# Dual color encoding: per-vertex RGB for Rerun, face MTL colors for legacy RViz.
mtllib sim_gene01_r_hand_ring_1.mtl
# Rhino

g sim_gene01_r_hand_ring_1
v -3.9484291034145382 7.7112463111111857 4.4671630355010885 0.0980392157 0.0980392157 0.0980392157
v -3.8342210831251009 10.096061597009649 4.2925524679256934 0.0980392157 0.0980392157 0.0980392157
v -5.5355848821299736 9.4283756627868733 3.305536637320972 0.0980392157 0.0980392157 0.0980392157
v -5.5772967842374683 9.4271024887618573 -3.4856937992256021 0.0980392157 0.0980392157 0.0980392157
v -5.5297341128073363 7.6358536934507182 3.1759332775496114 0.0980392157 0.0980392157 0.0980392157
v -5.5355848821299736 9.4283756627868733 3.305536637320972 0.0980392157 0.0980392157 0.0980392157
v -4.3906005129692831 9.6104992090983981 -3.6820492103567899 0.0980392157 0.0980392157 0.0980392157
v -5.5355848821299736 9.4283756627868733 3.305536637320972 0.0980392157 0.0980392157 0.0980392157
v -3.8342210831251009 10.096061597009649 4.2925524679256934 0.0980392157 0.0980392157 0.0980392157
v -5.5772967842374683 9.4271024887618573 -3.4856937992256021 0.0980392157 0.0980392157 0.0980392157
v -5.4388589052914904 7.598794051526097 -3.3244179647731373 0.0980392157 0.0980392157 0.0980392157
v -5.5772967842374683 9.4271024887618573 -3.4856937992256021 0.0980392157 0.0980392157 0.0980392157
v -4.512771134779678 6.5135235834384897 -3.9453434147437476 0.0980392157 0.0980392157 0.0980392157
v -5.4388589052914904 7.598794051526097 -3.3244179647731373 0.0980392157 0.0980392157 0.0980392157
v -3.9661871125704167 8.6505560485297348 -4.5148157768951345 0.0980392157 0.0980392157 0.0980392157
v -5.5355848821299736 9.4283756627868733 3.305536637320972 0.0980392157 0.0980392157 0.0980392157
v -5.5297341128073363 7.6358536934507182 3.1759332775496114 0.0980392157 0.0980392157 0.0980392157
v -4.5024664323887329 6.5389211529769069 3.9529726333034998 0.0980392157 0.0980392157 0.0980392157
v -5.5297341128073363 7.6358536934507182 3.1759332775496114 0.0980392157 0.0980392157 0.0980392157
v -5.5297341128073363 7.6358536934507182 3.1759332775496114 0.0980392157 0.0980392157 0.0980392157
v -4.5689370430209193 6.9973080127030611 1.1328552510947487 0.0980392157 0.0980392157 0.0980392157
v -4.5024664323887329 6.5389211529769069 3.9529726333034998 0.0980392157 0.0980392157 0.0980392157
v -4.5689370430209193 6.9973080127030611 1.1328552510947487 0.0980392157 0.0980392157 0.0980392157
v -5.5297341128073363 7.6358536934507182 3.1759332775496114 0.0980392157 0.0980392157 0.0980392157
v -5.4388589052914904 7.598794051526097 -3.3244179647731373 0.0980392157 0.0980392157 0.0980392157
v -4.512771134779678 6.5135235834384897 -3.9453434147437476 0.0980392157 0.0980392157 0.0980392157
v -4.5689370430209193 6.9973080127030611 1.1328552510947487 0.0980392157 0.0980392157 0.0980392157
v -5.4388589052914904 7.598794051526097 -3.3244179647731373 0.0980392157 0.0980392157 0.0980392157
v -4.3906005129692831 9.6104992090983981 -3.6820492103567899 0.0980392157 0.0980392157 0.0980392157
v -3.8342210831251009 10.096061597009649 4.2925524679256934 0.0980392157 0.0980392157 0.0980392157
v -3.3846216932025786 11.011610352630148 3.9898609287371665 0.0980392157 0.0980392157 0.0980392157
v -4.0027782703642636 3.9225648224622773 -4.4932929986693297 0.0980392157 0.0980392157 0.0980392157
v -4.5024664323887329 6.5389211529769069 3.9529726333034998 0.0980392157 0.0980392157 0.0980392157
v -4.512771134779678 6.5135235834384897 -3.9453434147437476 0.0980392157 0.0980392157 0.0980392157
v -4.5080134323956091 3.2734279668739434 -3.8999989996536324 0.0980392157 0.0980392157 0.0980392157
v -4.3636278544487306 -0.69205827658166541 -4.4711412470575711 0.0980392157 0.0980392157 0.0980392157
v 4.455864556871731 3.8814103514750919 -4.4386468838695565 0.0980392157 0.0980392157 0.0980392157
v 4.3208220272987719 -0.10849475097839445 -4.4900337093252185 0.0980392157 0.0980392157 0.0980392157
v -4.0027782703642636 3.9225648224622773 -4.4932929986693297 0.0980392157 0.0980392157 0.0980392157
v -3.9661871125704167 8.6505560485297348 -4.5148157768951345 0.0980392157 0.0980392157 0.0980392157
v -2.3959295802535063 6.9131067702751272 -4.6388348465373124 0.0980392157 0.0980392157 0.0980392157
v -4.4968297696741715 4.3482736716324268 4.0196847280255916 0.0980392157 0.0980392157 0.0980392157
v -4.512771134779678 6.5135235834384897 -3.9453434147437476 0.0980392157 0.0980392157 0.0980392157
v -4.5080134323956091 3.2734279668739434 -3.8999989996536324 0.0980392157 0.0980392157 0.0980392157
v -4.4955320945217379 2.9532176698163863 -1.7801921814001576 0.0980392157 0.0980392157 0.0980392157
v -4.7412453342266909 3.1862130977007439 1.2284990813688077 0.0980392157 0.0980392157 0.0980392157
v -4.3594985806992979 0.12068607871952963 4.4694367029336686 0.0980392157 0.0980392157 0.0980392157
v -3.9787568419654997 -2.0254821865887909 4.1015242180434592 0.0980392157 0.0980392157 0.0980392157
v -4.3594985806992979 0.12068607871952963 4.4694367029336686 0.0980392157 0.0980392157 0.0980392157
v -4.3061582001782313 -3.683629813123364 2.5930050066391859 0.0980392157 0.0980392157 0.0980392157
v -4.3036685180636214 -4.2482993515671561 -1.6201998788265815 0.0980392157 0.0980392157 0.0980392157
v -4.3061582001782313 -3.683629813123364 2.5930050066391859 0.0980392157 0.0980392157 0.0980392157
v -4.9006094891261744 -2.3606775522368886 0.66235011199345373 0.0980392157 0.0980392157 0.0980392157
v -4.7549543039222097 -0.71215780773098203 2.6201317562654105 0.0980392157 0.0980392157 0.0980392157
v -4.9006094891261744 -2.3606775522368886 0.66235011199345373 0.0980392157 0.0980392157 0.0980392157
v -4.7412453342266909 3.1862130977007439 1.2284990813688077 0.0980392157 0.0980392157 0.0980392157
v -4.8083033771202688 0.61688735373785031 -2.7012081739779621 0.0980392157 0.0980392157 0.0980392157
v -4.7412453342266909 3.1862130977007439 1.2284990813688077 0.0980392157 0.0980392157 0.0980392157
v -4.3636278544487306 -0.69205827658166541 -4.4711412470575711 0.0980392157 0.0980392157 0.0980392157
v -4.9359502437758325 -0.99495173431823125 -1.2247629519313794 0.0980392157 0.0980392157 0.0980392157
v -4.3636278544487306 -0.69205827658166541 -4.4711412470575711 0.0980392157 0.0980392157 0.0980392157
v -4.3036685180636214 -4.2482993515671561 -1.6201998788265815 0.0980392157 0.0980392157 0.0980392157
v -4.5024664323887329 6.5389211529769069 3.9529726333034998 0.0980392157 0.0980392157 0.0980392157
v -4.4968297696741715 4.3482736716324268 4.0196847280255916 0.0980392157 0.0980392157 0.0980392157
v -2.2461012160450053 5.2557055350095894 4.5111873437169479 0.0980392157 0.0980392157 0.0980392157
v -3.9484291034145382 7.7112463111111857 4.4671630355010885 0.0980392157 0.0980392157 0.0980392157
v -4.3594985806992979 0.12068607871952963 4.4694367029336686 0.0980392157 0.0980392157 0.0980392157
v -4.891894901948854 1.6026209839089429 0.20980000395605186 0.0980392157 0.0980392157 0.0980392157
v -4.8953337522653895 0.72771030666077241 1.3608933107652985 0.0980392157 0.0980392157 0.0980392157
v -4.8840220582906317 -0.8283088565766944 1.4267833538140056 0.0980392157 0.0980392157 0.0980392157
v -4.8988369956268079 -1.5360851690444242 -0.19423274268243798 0.0980392157 0.0980392157 0.0980392157
v -4.3036685180636214 -4.2482993515671561 -1.6201998788265815 0.0980392157 0.0980392157 0.0980392157
v -4.8901253752632696 0.80162608501745125 -1.3332298708678667 0.0980392157 0.0980392157 0.0980392157
v -4.8083033771202688 0.61688735373785031 -2.7012081739779621 0.0980392157 0.0980392157 0.0980392157
v 4.9000000953674316 -1.4943710565567017 0.10699655115604401 0.0980392157 0.0980392157 0.0980392157
v -4.8988369956268079 -1.5360851690444242 -0.19423274268243798 0.0980392157 0.0980392157 0.0980392157
v -4.8840220582906317 -0.8283088565766944 1.4267833538140056 0.0980392157 0.0980392157 0.0980392157
v 4.9965941324384211 0.7059176142209751 1.3777960217272018 0.0980392157 0.0980392157 0.0980392157
v -4.8840220582906317 -0.8283088565766944 1.4267833538140056 0.0980392157 0.0980392157 0.0980392157
v -4.8953337522653895 0.72771030666077241 1.3608933107652985 0.0980392157 0.0980392157 0.0980392157
v -4.891894901948854 1.6026209839089429 0.20980000395605186 0.0980392157 0.0980392157 0.0980392157
v 5.001257521308677 1.5355452657797719 0.23459125013947119 0.0980392157 0.0980392157 0.0980392157
v 5.0274455260895374 -1.0550071255757221 -1.1820716955892676 0.0980392157 0.0980392157 0.0980392157
v -4.9359502437758325 -0.99495173431823125 -1.2247629519313794 0.0980392157 0.0980392157 0.0980392157
v -4.8988369956268079 -1.5360851690444242 -0.19423274268243798 0.0980392157 0.0980392157 0.0980392157
v -4.9359502437758325 -0.99495173431823125 -1.2247629519313794 0.0980392157 0.0980392157 0.0980392157
v 5.0274455260895374 -1.0550071255757221 -1.1820716955892676 0.0980392157 0.0980392157 0.0980392157
v 4.8939809248333965 0.84103741754761363 -1.3905831549286041 0.0980392157 0.0980392157 0.0980392157
v -4.891894901948854 1.6026209839089429 0.20980000395605186 0.0980392157 0.0980392157 0.0980392157
v -4.8901253752632696 0.80162608501745125 -1.3332298708678667 0.0980392157 0.0980392157 0.0980392157
v 4.8939809248333965 0.84103741754761363 -1.3905831549286041 0.0980392157 0.0980392157 0.0980392157
v 4.8647313982554516 0.59360150061021355 -2.4175252366862585 0.0980392157 0.0980392157 0.0980392157
v 4.6321943973860211 2.8139090141186638 -1.2156733567160833 0.0980392157 0.0980392157 0.0980392157
v 4.8939809248333965 0.84103741754761363 -1.3905831549286041 0.0980392157 0.0980392157 0.0980392157
v 4.8771653092949681 -0.74784045598712012 1.3819603325330112 0.0980392157 0.0980392157 0.0980392157
v 4.9965941324384211 0.7059176142209751 1.3777960217272018 0.0980392157 0.0980392157 0.0980392157
v 4.7124017426855938 -2.1443020139389177 2.2698560066847659 0.0980392157 0.0980392157 0.0980392157
v 4.9000000953674316 -1.4943710565567017 0.10699655115604401 0.0980392157 0.0980392157 0.0980392157
v 4.8771653092949681 -0.74784045598712012 1.3819603325330112 0.0980392157 0.0980392157 0.0980392157
v 4.7124017426855938 -2.1443020139389177 2.2698560066847659 0.0980392157 0.0980392157 0.0980392157
v 5.0274455260895374 -1.0550071255757221 -1.1820716955892676 0.0980392157 0.0980392157 0.0980392157
v 4.2515209562109231 -1.9494625117797852 4.0734169820215262 0.0980392157 0.0980392157 0.0980392157
v -3.9787568419654997 -2.0254821865887909 4.1015242180434592 0.0980392157 0.0980392157 0.0980392157
v 4.1815716872688862 -3.220591820927301 3.1390764490421033 0.0980392157 0.0980392157 0.0980392157
v -3.9106810340535314 -2.8557578547862335 -3.5530642479418981 0.0980392157 0.0980392157 0.0980392157
v 4.2647333492613697 -2.3809739287851537 -3.8960068774902101 0.0980392157 0.0980392157 0.0980392157
v 4.3408927631879832 -4.0416806794138553 -2.0387681343567876 0.0980392157 0.0980392157 0.0980392157
v -4.3061582001782313 -3.683629813123364 2.5930050066391859 0.0980392157 0.0980392157 0.0980392157
v 4.2545472575346759 -4.2097830755405035 1.6650423377951609 0.0980392157 0.0980392157 0.0980392157
v -3.9536089718582228 -4.4954711934728397 0.74584124610599678 0.0980392157 0.0980392157 0.0980392157
v -4.3061582001782313 -3.683629813123364 2.5930050066391859 0.0980392157 0.0980392157 0.0980392157
v -4.3036685180636214 -4.2482993515671561 -1.6201998788265815 0.0980392157 0.0980392157 0.0980392157
v -3.9536089718582228 -4.4954711934728397 0.74584124610599678 0.0980392157 0.0980392157 0.0980392157
v 4.0044155871974558 -4.4929461936004218 -0.42450858924307922 0.0980392157 0.0980392157 0.0980392157
v -3.0958678638865442 11.283117679481705 -4.2138981043029622 0.0980392157 0.0980392157 0.0980392157
v -3.9661871125704167 8.6505560485297348 -4.5148157768951345 0.0980392157 0.0980392157 0.0980392157
v -4.3906005129692831 9.6104992090983981 -3.6820492103567899 0.0980392157 0.0980392157 0.0980392157
v -3.0958678638865442 11.283117679481705 -4.2138981043029622 0.0980392157 0.0980392157 0.0980392157
v -1.148717042906668 5.107647653741715 -4.5189544618701731 0.0980392157 0.0980392157 0.0980392157
v 2.2943141016207171 5.4395976474449128 -4.5407832317972625 0.0980392157 0.0980392157 0.0980392157
v 2.2943141016207171 5.4395976474449128 -4.5407832317972625 0.0980392157 0.0980392157 0.0980392157
v 2.4104943031750441 8.2002078433403476 -4.7849451877024745 0.0980392157 0.0980392157 0.0980392157
v 4.4787258319499541 8.5731161938639335 -4.2858823797316115 0.0980392157 0.0980392157 0.0980392157
v 2.4104943031750441 8.2002078433403476 -4.7849451877024745 0.0980392157 0.0980392157 0.0980392157
v 0.23435234249966053 10.405851868206733 -4.842605342797782 0.0980392157 0.0980392157 0.0980392157
v 2.0423320604942692 12.060379470970554 -4.3274096386656709 0.0980392157 0.0980392157 0.0980392157
v -0.51674517221175997 6.5944424257962293 -5.6215309047472983 0.0980392157 0.0980392157 0.0980392157
v 2.2943141016207171 5.4395976474449128 -4.5407832317972625 0.0980392157 0.0980392157 0.0980392157
v -1.148717042906668 5.107647653741715 -4.5189544618701731 0.0980392157 0.0980392157 0.0980392157
v -2.3046679960904974 8.7436099610052036 -4.7593809249850407 0.0980392157 0.0980392157 0.0980392157
v -1.3901539613755767 6.1155439771824831 4.9979850641487893 0.0980392157 0.0980392157 0.0980392157
v -2.1023820702774572 9.5502829221173151 4.772415710602222 0.0980392157 0.0980392157 0.0980392157
v -3.9484291034145382 7.7112463111111857 4.4671630355010885 0.0980392157 0.0980392157 0.0980392157
v -1.3901539613755767 6.1155439771824831 4.9979850641487893 0.0980392157 0.0980392157 0.0980392157
v -2.2461012160450053 5.2557055350095894 4.5111873437169479 0.0980392157 0.0980392157 0.0980392157
v 1.380411161410712 5.4295358040853632 4.5650982100730868 0.0980392157 0.0980392157 0.0980392157
v 1.380411161410712 5.4295358040853632 4.5650982100730868 0.0980392157 0.0980392157 0.0980392157
v 4.321206796696166 -0.32865400271560929 4.4751468666990855 0.0980392157 0.0980392157 0.0980392157
v 2.1840405163447691 8.5107165246905492 4.928420572702823 0.0980392157 0.0980392157 0.0980392157
v 4.4752604269297409 5.2308878873362783 4.3647060452104078 0.0980392157 0.0980392157 0.0980392157
v -4.3636278544487306 -0.69205827658166541 -4.4711412470575711 0.0980392157 0.0980392157 0.0980392157
v 4.3408927631879832 -4.0416806794138553 -2.0387681343567876 0.0980392157 0.0980392157 0.0980392157
v 4.2545472575346759 -4.2097830755405035 1.6650423377951609 0.0980392157 0.0980392157 0.0980392157
v 4.0044155871974558 -4.4929461936004218 -0.42450858924307922 0.0980392157 0.0980392157 0.0980392157
v -1.7600581755717559 12.120358749040657 -4.3584007866597467 0.0980392157 0.0980392157 0.0980392157
v -2.1023820702774572 9.5502829221173151 4.772415710602222 0.0980392157 0.0980392157 0.0980392157
v -1.7293716687357468 12.200298778669836 4.2790663189220863 0.0980392157 0.0980392157 0.0980392157
v -3.8342210831251009 10.096061597009649 4.2925524679256934 0.0980392157 0.0980392157 0.0980392157
v -3.9484291034145382 7.7112463111111857 4.4671630355010885 0.0980392157 0.0980392157 0.0980392157
v -3.8342210831251009 10.096061597009649 4.2925524679256934 0.0980392157 0.0980392157 0.0980392157
v 0.23435234249966053 10.405851868206733 -4.842605342797782 0.0980392157 0.0980392157 0.0980392157
v -3.0958678638865442 11.283117679481705 -4.2138981043029622 0.0980392157 0.0980392157 0.0980392157
v -2.1023820702774572 9.5502829221173151 4.772415710602222 0.0980392157 0.0980392157 0.0980392157
v -0.0069160514369963622 10.861423271766959 4.6566769350653754 0.0980392157 0.0980392157 0.0980392157
v -1.7293716687357468 12.200298778669836 4.2790663189220863 0.0980392157 0.0980392157 0.0980392157
v -1.0768308846383934 9.1080043804590254 -6.0020972843323452 0.0980392157 0.0980392157 0.0980392157
v -2.3046679960904974 8.7436099610052036 -4.7593809249850407 0.0980392157 0.0980392157 0.0980392157
v 0.23435234249966053 10.405851868206733 -4.842605342797782 0.0980392157 0.0980392157 0.0980392157
v -1.1013225480176714 6.8043888313337684 6.1917257402977084 0.0980392157 0.0980392157 0.0980392157
v -2.1023820702774572 9.5502829221173151 4.772415710602222 0.0980392157 0.0980392157 0.0980392157
v -1.3901539613755767 6.1155439771824831 4.9979850641487893 0.0980392157 0.0980392157 0.0980392157
v -1.0768308846383934 9.1080043804590254 -6.0020972843323452 0.0980392157 0.0980392157 0.0980392157
v -2.3959295802535063 6.9131067702751272 -4.6388348465373124 0.0980392157 0.0980392157 0.0980392157
v -2.3046679960904974 8.7436099610052036 -4.7593809249850407 0.0980392157 0.0980392157 0.0980392157
v 0.23435234249966053 10.405851868206733 -4.842605342797782 0.0980392157 0.0980392157 0.0980392157
v -3.0958678638865442 11.283117679481705 -4.2138981043029622 0.0980392157 0.0980392157 0.0980392157
v -1.7600581755717559 12.120358749040657 -4.3584007866597467 0.0980392157 0.0980392157 0.0980392157
v 0.13466811015088492 12.500150552838619 4.2507911687553959 0.0980392157 0.0980392157 0.0980392157
v -0.0069160514369963622 10.861423271766959 4.6566769350653754 0.0980392157 0.0980392157 0.0980392157
v -1.1034170111055694 9.0516162542163272 5.8186216091447713 0.0980392157 0.0980392157 0.0980392157
v -0.0069160514369963622 10.861423271766959 4.6566769350653754 0.0980392157 0.0980392157 0.0980392157
v -2.1023820702774572 9.5502829221173151 4.772415710602222 0.0980392157 0.0980392157 0.0980392157
v -2.134192115872108 7.3594721790430082 -7.7460441900400259 0.0980392157 0.0980392157 0.0980392157
v -1.5056842405952167 9.6342374563713093 -7.60303400350623 0.0980392157 0.0980392157 0.0980392157
v -1.3536089691757995 8.6503148431795474 -9.4761232542687406 0.0980392157 0.0980392157 0.0980392157
v -2.134192115872108 7.3594721790430082 -7.7460441900400259 0.0980392157 0.0980392157 0.0980392157
v -1.0768308846383934 9.1080043804590254 -6.0020972843323452 0.0980392157 0.0980392157 0.0980392157
v -1.5056842405952167 9.6342374563713093 -7.60303400350623 0.0980392157 0.0980392157 0.0980392157
v -1.3536089691757995 8.6503148431795474 -9.4761232542687406 0.0980392157 0.0980392157 0.0980392157
v -1.5056842405952167 9.6342374563713093 -7.60303400350623 0.0980392157 0.0980392157 0.0980392157
v 0.86968075378520249 9.2916574042190643 -9.5018829923663155 0.0980392157 0.0980392157 0.0980392157
v -1.1013225480176714 6.8043888313337684 6.1917257402977084 0.0980392157 0.0980392157 0.0980392157
v -1.6922419347436144 6.3382515512999795 7.6170528818066963 0.0980392157 0.0980392157 0.0980392157
v -2.0312856729920168 8.9894550595438449 7.7413521518746817 0.0980392157 0.0980392157 0.0980392157
v -0.10833013198696162 9.5305877605872507 9.5260001167494703 0.0980392157 0.0980392157 0.0980392157
v 0.55526052375343182 9.3761777764925789 5.5821913164523087 0.0980392157 0.0980392157 0.0980392157
v -1.1034170111055694 9.0516162542163272 5.8186216091447713 0.0980392157 0.0980392157 0.0980392157
v -1.3365464748583584 7.28206600558876 -6.5152038034127546 0.0980392157 0.0980392157 0.0980392157
v -1.3365464748583584 7.28206600558876 -6.5152038034127546 0.0980392157 0.0980392157 0.0980392157
v -0.51674517221175997 6.5944424257962293 -5.6215309047472983 0.0980392157 0.0980392157 0.0980392157
v -2.3959295802535063 6.9131067702751272 -4.6388348465373124 0.0980392157 0.0980392157 0.0980392157
v -1.6922419347436144 6.3382515512999795 7.6170528818066963 0.0980392157 0.0980392157 0.0980392157
v -1.3504061975784412 7.5012312544029394 9.4781416173983377 0.0980392157 0.0980392157 0.0980392157
v -2.0312856729920168 8.9894550595438449 7.7413521518746817 0.0980392157 0.0980392157 0.0980392157
v -1.1034170111055694 9.0516162542163272 5.8186216091447713 0.0980392157 0.0980392157 0.0980392157
v -0.5810189208368719 6.6325986734462834 -9.4964679766370708 0.0980392157 0.0980392157 0.0980392157
v -1.3365464748583584 7.28206600558876 -6.5152038034127546 0.0980392157 0.0980392157 0.0980392157
v -2.134192115872108 7.3594721790430082 -7.7460441900400259 0.0980392157 0.0980392157 0.0980392157
v -0.5810189208368719 6.6325986734462834 -9.4964679766370708 0.0980392157 0.0980392157 0.0980392157
v -0.51674517221175997 6.5944424257962293 -5.6215309047472983 0.0980392157 0.0980392157 0.0980392157
v -1.3365464748583584 7.28206600558876 -6.5152038034127546 0.0980392157 0.0980392157 0.0980392157
v -0.21845998364076946 6.6496017136249401 9.3881197107842276 0.0980392157 0.0980392157 0.0980392157
v -1.3504061975784412 7.5012312544029394 9.4781416173983377 0.0980392157 0.0980392157 0.0980392157
v -1.6922419347436144 6.3382515512999795 7.6170528818066963 0.0980392157 0.0980392157 0.0980392157
v 1.380411161410712 5.4295358040853632 4.5650982100730868 0.0980392157 0.0980392157 0.0980392157
v -1.1013225480176714 6.8043888313337684 6.1917257402977084 0.0980392157 0.0980392157 0.0980392157
v -1.3901539613755767 6.1155439771824831 4.9979850641487893 0.0980392157 0.0980392157 0.0980392157
v -1.148717042906668 5.107647653741715 -4.5189544618701731 0.0980392157 0.0980392157 0.0980392157
v -2.3959295802535063 6.9131067702751272 -4.6388348465373124 0.0980392157 0.0980392157 0.0980392157
v -0.51674517221175997 6.5944424257962293 -5.6215309047472983 0.0980392157 0.0980392157 0.0980392157
v -1.7293716687357468 12.200298778669836 4.2790663189220863 0.0980392157 0.0980392157 0.0980392157
v 0.13466811015088492 12.500150552838619 4.2507911687553959 0.0980392157 0.0980392157 0.0980392157
v -0.32780318622343951 12.509777386805704 -4.0157605905459626 0.0980392157 0.0980392157 0.0980392157
v -1.0768308846383934 9.1080043804590254 -6.0020972843323452 0.0980392157 0.0980392157 0.0980392157
v 1.0392283458250986 9.9525104956371244 -7.6490723544741455 0.0980392157 0.0980392157 0.0980392157
v -1.5056842405952167 9.6342374563713093 -7.60303400350623 0.0980392157 0.0980392157 0.0980392157
v 0.86968075378520249 9.2916574042190643 -9.5018829923663155 0.0980392157 0.0980392157 0.0980392157
v -1.5056842405952167 9.6342374563713093 -7.60303400350623 0.0980392157 0.0980392157 0.0980392157
v 1.0392283458250986 9.9525104956371244 -7.6490723544741455 0.0980392157 0.0980392157 0.0980392157
v 0.55526052375343182 9.3761777764925789 5.5821913164523087 0.0980392157 0.0980392157 0.0980392157
v 0.86968075378520249 9.2916574042190643 -9.5018829923663155 0.0980392157 0.0980392157 0.0980392157
v 1.000842392473599 6.8496901227056766 -9.4729828477191784 0.0980392157 0.0980392157 0.0980392157
v -0.5810189208368719 6.6325986734462834 -9.4964679766370708 0.0980392157 0.0980392157 0.0980392157
v -0.10833013198696162 9.5305877605872507 9.5260001167494703 0.0980392157 0.0980392157 0.0980392157
v -0.21845998364076946 6.6496017136249401 9.3881197107842276 0.0980392157 0.0980392157 0.0980392157
v 1.4576115790675157 7.6078995820083488 9.4801456863236613 0.0980392157 0.0980392157 0.0980392157
v -1.3504061975784412 7.5012312544029394 9.4781416173983377 0.0980392157 0.0980392157 0.0980392157
v 1.7333757602237847 9.2657396999393811 7.7476212660293733 0.0980392157 0.0980392157 0.0980392157
v -0.10833013198696162 9.5305877605872507 9.5260001167494703 0.0980392157 0.0980392157 0.0980392157
v 1.4576115790675157 7.6078995820083488 9.4801456863236613 0.0980392157 0.0980392157 0.0980392157
v 0.25278040513379363 6.4975098633509862 -7.6333317663240789 0.0980392157 0.0980392157 0.0980392157
v 1.2643921771624393 6.140159414055093 7.6699802108499764 0.0980392157 0.0980392157 0.0980392157
v -0.21845998364076946 6.6496017136249401 9.3881197107842276 0.0980392157 0.0980392157 0.0980392157
v -1.6922419347436144 6.3382515512999795 7.6170528818066963 0.0980392157 0.0980392157 0.0980392157
v -0.32780318622343951 12.509777386805704 -4.0157605905459626 0.0980392157 0.0980392157 0.0980392157
v 2.0423320604942692 12.060379470970554 -4.3274096386656709 0.0980392157 0.0980392157 0.0980392157
v -1.7600581755717559 12.120358749040657 -4.3584007866597467 0.0980392157 0.0980392157 0.0980392157
v 2.2858761492487449 11.994135478220617 4.2377301645867025 0.0980392157 0.0980392157 0.0980392157
v 2.0423320604942692 12.060379470970554 -4.3274096386656709 0.0980392157 0.0980392157 0.0980392157
v 0.81497917272961917 9.3111497904984528 -5.9718821888074443 0.0980392157 0.0980392157 0.0980392157
v -1.0768308846383934 9.1080043804590254 -6.0020972843323452 0.0980392157 0.0980392157 0.0980392157
v 0.23435234249966053 10.405851868206733 -4.842605342797782 0.0980392157 0.0980392157 0.0980392157
v 1.000842392473599 6.8496901227056766 -9.4729828477191784 0.0980392157 0.0980392157 0.0980392157
v 2.2858761492487449 11.994135478220617 4.2377301645867025 0.0980392157 0.0980392157 0.0980392157
v 0.13466811015088492 12.500150552838619 4.2507911687553959 0.0980392157 0.0980392157 0.0980392157
v 2.0094256682303295 10.098342824863192 4.6186227256851717 0.0980392157 0.0980392157 0.0980392157
v 4.455669102497839 8.6899562754792417 4.2758400479075558 0.0980392157 0.0980392157 0.0980392157
v 3.947947201647076 10.18362216115583 4.2588565988552212 0.0980392157 0.0980392157 0.0980392157
v 2.0094256682303295 10.098342824863192 4.6186227256851717 0.0980392157 0.0980392157 0.0980392157
v 1.0392283458250986 9.9525104956371244 -7.6490723544741455 0.0980392157 0.0980392157 0.0980392157
v -1.0768308846383934 9.1080043804590254 -6.0020972843323452 0.0980392157 0.0980392157 0.0980392157
v 0.81497917272961917 9.3111497904984528 -5.9718821888074443 0.0980392157 0.0980392157 0.0980392157
v 2.2943141016207171 5.4395976474449128 -4.5407832317972625 0.0980392157 0.0980392157 0.0980392157
v -0.51674517221175997 6.5944424257962293 -5.6215309047472983 0.0980392157 0.0980392157 0.0980392157
v 0.72968596698536792 6.7482978612570079 -5.7620107145499269 0.0980392157 0.0980392157 0.0980392157
v 1.6681497424858751 6.4449490961805118 -7.8013728855620661 0.0980392157 0.0980392157 0.0980392157
v 0.72968596698536792 6.7482978612570079 -5.7620107145499269 0.0980392157 0.0980392157 0.0980392157
v 1.000842392473599 6.8496901227056766 -9.4729828477191784 0.0980392157 0.0980392157 0.0980392157
v 0.950107389976109 6.8073840456454375 5.9982660422447474 0.0980392157 0.0980392157 0.0980392157
v 1.2643921771624393 6.140159414055093 7.6699802108499764 0.0980392157 0.0980392157 0.0980392157
v -1.1013225480176714 6.8043888313337684 6.1917257402977084 0.0980392157 0.0980392157 0.0980392157
v 1.380411161410712 5.4295358040853632 4.5650982100730868 0.0980392157 0.0980392157 0.0980392157
v 0.950107389976109 6.8073840456454375 5.9982660422447474 0.0980392157 0.0980392157 0.0980392157
v -1.1013225480176714 6.8043888313337684 6.1917257402977084 0.0980392157 0.0980392157 0.0980392157
v 1.412656439521085 7.8296602306476526 -6.3924929180280126 0.0980392157 0.0980392157 0.0980392157
v 0.81497917272961917 9.3111497904984528 -5.9718821888074443 0.0980392157 0.0980392157 0.0980392157
v 0.23435234249966053 10.405851868206733 -4.842605342797782 0.0980392157 0.0980392157 0.0980392157
v 1.412656439521085 7.8296602306476526 -6.3924929180280126 0.0980392157 0.0980392157 0.0980392157
v 0.23435234249966053 10.405851868206733 -4.842605342797782 0.0980392157 0.0980392157 0.0980392157
v 2.4104943031750441 8.2002078433403476 -4.7849451877024745 0.0980392157 0.0980392157 0.0980392157
v 1.412656439521085 7.8296602306476526 -6.3924929180280126 0.0980392157 0.0980392157 0.0980392157
v 1.0392283458250986 9.9525104956371244 -7.6490723544741455 0.0980392157 0.0980392157 0.0980392157
v 0.81497917272961917 9.3111497904984528 -5.9718821888074443 0.0980392157 0.0980392157 0.0980392157
v 1.412656439521085 7.8296602306476526 -6.3924929180280126 0.0980392157 0.0980392157 0.0980392157
v 2.2194755778090101 8.2644260025850915 -7.6789472549131368 0.0980392157 0.0980392157 0.0980392157
v 1.0392283458250986 9.9525104956371244 -7.6490723544741455 0.0980392157 0.0980392157 0.0980392157
v 0.55526052375343182 9.3761777764925789 5.5821913164523087 0.0980392157 0.0980392157 0.0980392157
v 1.7333757602237847 9.2657396999393811 7.7476212660293733 0.0980392157 0.0980392157 0.0980392157
v 1.4314655915319141 8.4760278540217868 6.4587248226391063 0.0980392157 0.0980392157 0.0980392157
v 2.1840405163447691 8.5107165246905492 4.928420572702823 0.0980392157 0.0980392157 0.0980392157
v 0.55526052375343182 9.3761777764925789 5.5821913164523087 0.0980392157 0.0980392157 0.0980392157
v 1.4314655915319141 8.4760278540217868 6.4587248226391063 0.0980392157 0.0980392157 0.0980392157
v 0.55526052375343182 9.3761777764925789 5.5821913164523087 0.0980392157 0.0980392157 0.0980392157
v 2.2943141016207171 5.4395976474449128 -4.5407832317972625 0.0980392157 0.0980392157 0.0980392157
v 0.72968596698536792 6.7482978612570079 -5.7620107145499269 0.0980392157 0.0980392157 0.0980392157
v 2.4104943031750441 8.2002078433403476 -4.7849451877024745 0.0980392157 0.0980392157 0.0980392157
v 1.412656439521085 7.8296602306476526 -6.3924929180280126 0.0980392157 0.0980392157 0.0980392157
v 2.4104943031750441 8.2002078433403476 -4.7849451877024745 0.0980392157 0.0980392157 0.0980392157
v 0.72968596698536792 6.7482978612570079 -5.7620107145499269 0.0980392157 0.0980392157 0.0980392157
v 1.6681497424858751 6.4449490961805118 -7.8013728855620661 0.0980392157 0.0980392157 0.0980392157
v 1.412656439521085 7.8296602306476526 -6.3924929180280126 0.0980392157 0.0980392157 0.0980392157
v 0.72968596698536792 6.7482978612570079 -5.7620107145499269 0.0980392157 0.0980392157 0.0980392157
v 1.2643921771624393 6.140159414055093 7.6699802108499764 0.0980392157 0.0980392157 0.0980392157
v 1.4576115790675157 7.6078995820083488 9.4801456863236613 0.0980392157 0.0980392157 0.0980392157
v -0.21845998364076946 6.6496017136249401 9.3881197107842276 0.0980392157 0.0980392157 0.0980392157
v 1.2643921771624393 6.140159414055093 7.6699802108499764 0.0980392157 0.0980392157 0.0980392157
v 0.950107389976109 6.8073840456454375 5.9982660422447474 0.0980392157 0.0980392157 0.0980392157
v 1.4314655915319141 8.4760278540217868 6.4587248226391063 0.0980392157 0.0980392157 0.0980392157
v 2.2307175920667501 7.7957795418467732 7.6491913962650528 0.0980392157 0.0980392157 0.0980392157
v 1.2643921771624393 6.140159414055093 7.6699802108499764 0.0980392157 0.0980392157 0.0980392157
v 1.4314655915319141 8.4760278540217868 6.4587248226391063 0.0980392157 0.0980392157 0.0980392157
v 2.1840405163447691 8.5107165246905492 4.928420572702823 0.0980392157 0.0980392157 0.0980392157
v 1.4314655915319141 8.4760278540217868 6.4587248226391063 0.0980392157 0.0980392157 0.0980392157
v 0.950107389976109 6.8073840456454375 5.9982660422447474 0.0980392157 0.0980392157 0.0980392157
v 1.380411161410712 5.4295358040853632 4.5650982100730868 0.0980392157 0.0980392157 0.0980392157
v 2.1840405163447691 8.5107165246905492 4.928420572702823 0.0980392157 0.0980392157 0.0980392157
v 0.950107389976109 6.8073840456454375 5.9982660422447474 0.0980392157 0.0980392157 0.0980392157
v 0.86968075378520249 9.2916574042190643 -9.5018829923663155 0.0980392157 0.0980392157 0.0980392157
v 1.0392283458250986 9.9525104956371244 -7.6490723544741455 0.0980392157 0.0980392157 0.0980392157
v 2.2194755778090101 8.2644260025850915 -7.6789472549131368 0.0980392157 0.0980392157 0.0980392157
v 1.4576115790675157 7.6078995820083488 9.4801456863236613 0.0980392157 0.0980392157 0.0980392157
v 2.2307175920667501 7.7957795418467732 7.6491913962650528 0.0980392157 0.0980392157 0.0980392157
v 1.7333757602237847 9.2657396999393811 7.7476212660293733 0.0980392157 0.0980392157 0.0980392157
v 1.7333757602237847 9.2657396999393811 7.7476212660293733 0.0980392157 0.0980392157 0.0980392157
v 2.2307175920667501 7.7957795418467732 7.6491913962650528 0.0980392157 0.0980392157 0.0980392157
v 1.4314655915319141 8.4760278540217868 6.4587248226391063 0.0980392157 0.0980392157 0.0980392157
v 1.6681497424858751 6.4449490961805118 -7.8013728855620661 0.0980392157 0.0980392157 0.0980392157
v 2.2194755778090101 8.2644260025850915 -7.6789472549131368 0.0980392157 0.0980392157 0.0980392157
v 1.412656439521085 7.8296602306476526 -6.3924929180280126 0.0980392157 0.0980392157 0.0980392157
v 1.000842392473599 6.8496901227056766 -9.4729828477191784 0.0980392157 0.0980392157 0.0980392157
v 1.6681497424858751 6.4449490961805118 -7.8013728855620661 0.0980392157 0.0980392157 0.0980392157
v 1.2643921771624393 6.140159414055093 7.6699802108499764 0.0980392157 0.0980392157 0.0980392157
v 2.2307175920667501 7.7957795418467732 7.6491913962650528 0.0980392157 0.0980392157 0.0980392157
v 1.4576115790675157 7.6078995820083488 9.4801456863236613 0.0980392157 0.0980392157 0.0980392157
v 4.4787258319499541 8.5731161938639335 -4.2858823797316115 0.0980392157 0.0980392157 0.0980392157
v 2.0423320604942692 12.060379470970554 -4.3274096386656709 0.0980392157 0.0980392157 0.0980392157
v 3.7487939886560619 10.541036139837125 -3.919062150746973 0.0980392157 0.0980392157 0.0980392157
v 3.947947201647076 10.18362216115583 4.2588565988552212 0.0980392157 0.0980392157 0.0980392157
v 3.7487939886560619 10.541036139837125 -3.919062150746973 0.0980392157 0.0980392157 0.0980392157
v 4.455669102497839 8.6899562754792417 4.2758400479075558 0.0980392157 0.0980392157 0.0980392157
v 4.4752604269297409 5.2308878873362783 4.3647060452104078 0.0980392157 0.0980392157 0.0980392157
v 4.455864556871731 3.8814103514750919 -4.4386468838695565 0.0980392157 0.0980392157 0.0980392157
v 4.4787258319499541 8.5731161938639335 -4.2858823797316115 0.0980392157 0.0980392157 0.0980392157
v 4.5254640066022196 2.9852617014774445 2.2144052716875824 0.0980392157 0.0980392157 0.0980392157
v 4.4752604269297409 5.2308878873362783 4.3647060452104078 0.0980392157 0.0980392157 0.0980392157
v 4.321206796696166 -0.32865400271560929 4.4751468666990855 0.0980392157 0.0980392157 0.0980392157
v 4.6321943973860211 2.8139090141186638 -1.2156733567160833 0.0980392157 0.0980392157 0.0980392157
v 4.3208220272987719 -0.10849475097839445 -4.4900337093252185 0.0980392157 0.0980392157 0.0980392157
v 4.3408927631879832 -4.0416806794138553 -2.0387681343567876 0.0980392157 0.0980392157 0.0980392157
v 4.2647333492613697 -2.3809739287851537 -3.8960068774902101 0.0980392157 0.0980392157 0.0980392157
v 5.001257521308677 1.5355452657797719 0.23459125013947119 0.0980392157 0.0980392157 0.0980392157
v 4.9965941324384211 0.7059176142209751 1.3777960217272018 0.0980392157 0.0980392157 0.0980392157
v 4.1815716872688862 -3.220591820927301 3.1390764490421033 0.0980392157 0.0980392157 0.0980392157
v 4.2545472575346759 -4.2097830755405035 1.6650423377951609 0.0980392157 0.0980392157 0.0980392157
v 5.0274455260895374 -1.0550071255757221 -1.1820716955892676 0.0980392157 0.0980392157 0.0980392157
v -4.3636278544487306 -0.69205827658166541 -4.4711412470575711 0.0980392157 0.0980392157 0.0980392157
v -1.148717042906668 5.107647653741715 -4.5189544618701731 0.0980392157 0.0980392157 0.0980392157
v -4.3036685180636214 -4.2482993515671561 -1.6201998788265815 0.0980392157 0.0980392157 0.0980392157
v 4.3408927631879832 -4.0416806794138553 -2.0387681343567876 0.0980392157 0.0980392157 0.0980392157
v -4.3636278544487306 -0.69205827658166541 -4.4711412470575711 0.0980392157 0.0980392157 0.0980392157
v -3.9106810340535314 -2.8557578547862335 -3.5530642479418981 0.0980392157 0.0980392157 0.0980392157
v -4.3036685180636214 -4.2482993515671561 -1.6201998788265815 0.0980392157 0.0980392157 0.0980392157
v -4.4968297696741715 4.3482736716324268 4.0196847280255916 0.0980392157 0.0980392157 0.0980392157
v -3.3846216932025786 11.011610352630148 3.9898609287371665 0.0980392157 0.0980392157 0.0980392157
v -3.8342210831251009 10.096061597009649 4.2925524679256934 0.0980392157 0.0980392157 0.0980392157
v -1.7293716687357468 12.200298778669836 4.2790663189220863 0.0980392157 0.0980392157 0.0980392157
v -2.3046679960904974 8.7436099610052036 -4.7593809249850407 0.0980392157 0.0980392157 0.0980392157
v -3.0958678638865442 11.283117679481705 -4.2138981043029622 0.0980392157 0.0980392157 0.0980392157
v 4.2515209562109231 -1.9494625117797852 4.0734169820215262 0.0980392157 0.0980392157 0.0980392157
v 4.9965941324384211 0.7059176142209751 1.3777960217272018 0.0980392157 0.0980392157 0.0980392157
v -1.0768308846383934 9.1080043804590254 -6.0020972843323452 0.0980392157 0.0980392157 0.0980392157
v -2.134192115872108 7.3594721790430082 -7.7460441900400259 0.0980392157 0.0980392157 0.0980392157
v -1.3365464748583584 7.28206600558876 -6.5152038034127546 0.0980392157 0.0980392157 0.0980392157
v -1.6922419347436144 6.3382515512999795 7.6170528818066963 0.0980392157 0.0980392157 0.0980392157
v -1.1013225480176714 6.8043888313337684 6.1917257402977084 0.0980392157 0.0980392157 0.0980392157
v 1.2643921771624393 6.140159414055093 7.6699802108499764 0.0980392157 0.0980392157 0.0980392157
v -0.51674517221175997 6.5944424257962293 -5.6215309047472983 0.0980392157 0.0980392157 0.0980392157
v 0.72968596698536792 6.7482978612570079 -5.7620107145499269 0.0980392157 0.0980392157 0.0980392157
v -4.3906005129692831 9.6104992090983981 -3.6820492103567899 0.0980392157 0.0980392157 0.0980392157
v -5.4388589052914904 7.598794051526097 -3.3244179647731373 0.0980392157 0.0980392157 0.0980392157
v -5.5772967842374683 9.4271024887618573 -3.4856937992256021 0.0980392157 0.0980392157 0.0980392157
v -1.3901539613755767 6.1155439771824831 4.9979850641487893 0.0980392157 0.0980392157 0.0980392157
v -2.134192115872108 7.3594721790430082 -7.7460441900400259 0.0980392157 0.0980392157 0.0980392157
v -1.3536089691757995 8.6503148431795474 -9.4761232542687406 0.0980392157 0.0980392157 0.0980392157
v -0.5810189208368719 6.6325986734462834 -9.4964679766370708 0.0980392157 0.0980392157 0.0980392157
v 1.7333757602237847 9.2657396999393811 7.7476212660293733 0.0980392157 0.0980392157 0.0980392157
v 0.55526052375343182 9.3761777764925789 5.5821913164523087 0.0980392157 0.0980392157 0.0980392157
v -4.3906005129692831 9.6104992090983981 -3.6820492103567899 0.0980392157 0.0980392157 0.0980392157
v -0.10833013198696162 9.5305877605872507 9.5260001167494703 0.0980392157 0.0980392157 0.0980392157
v -2.0312856729920168 8.9894550595438449 7.7413521518746817 0.0980392157 0.0980392157 0.0980392157
v -1.3504061975784412 7.5012312544029394 9.4781416173983377 0.0980392157 0.0980392157 0.0980392157
v 2.0423320604942692 12.060379470970554 -4.3274096386656709 0.0980392157 0.0980392157 0.0980392157
v 4.3408927631879832 -4.0416806794138553 -2.0387681343567876 0.0980392157 0.0980392157 0.0980392157
v 5.0274455260895374 -1.0550071255757221 -1.1820716955892676 0.0980392157 0.0980392157 0.0980392157
v -4.8988369956268079 -1.5360851690444242 -0.19423274268243798 0.0980392157 0.0980392157 0.0980392157
v 4.9000000953674316 -1.4943710565567017 0.10699655115604401 0.0980392157 0.0980392157 0.0980392157
v 5.0274455260895374 -1.0550071255757221 -1.1820716955892676 0.0980392157 0.0980392157 0.0980392157
v -4.3061582001782313 -3.683629813123364 2.5930050066391859 0.0980392157 0.0980392157 0.0980392157
v 2.0094256682303295 10.098342824863192 4.6186227256851717 0.0980392157 0.0980392157 0.0980392157
v -2.0312856729920168 8.9894550595438449 7.7413521518746817 0.0980392157 0.0980392157 0.0980392157
v 4.8771653092949681 -0.74784045598712012 1.3819603325330112 0.0980392157 0.0980392157 0.0980392157
v -4.8901253752632696 0.80162608501745125 -1.3332298708678667 0.0980392157 0.0980392157 0.0980392157
v 5.001257521308677 1.5355452657797719 0.23459125013947119 0.0980392157 0.0980392157 0.0980392157
v 4.4752604269297409 5.2308878873362783 4.3647060452104078 0.0980392157 0.0980392157 0.0980392157
v 4.2515209562109231 -1.9494625117797852 4.0734169820215262 0.0980392157 0.0980392157 0.0980392157
v -1.1034170111055694 9.0516162542163272 5.8186216091447713 0.0980392157 0.0980392157 0.0980392157
v -1.3536089691757995 8.6503148431795474 -9.4761232542687406 0.0980392157 0.0980392157 0.0980392157
v 4.7124017426855938 -2.1443020139389177 2.2698560066847659 0.0980392157 0.0980392157 0.0980392157
vn -0.70772415399551392 0.016646396368741989 0.70629274845123291
vn -0.61516952514648438 0.32408466935157776 0.71870410442352295
vn -0.5880286693572998 0.088256403803825378 0.80401062965393066
vn -0.99443662166595459 0.028950026258826256 0.10128013789653778
vn -0.99642294645309448 -0.079188793897628784 -0.029503628611564636
vn -0.86104404926300049 0.50121122598648071 -0.085967883467674255
vn -0.14958904683589935 0.9886590838432312 -0.01328111719340086
vn -0.20217218995094299 0.97934699058532715 -0.0024164849892258644
vn -0.57923787832260132 0.81426483392715454 -0.038160726428031921
vn -0.088820233941078186 0.995918869972229 -0.016017628833651543
vn -0.99323642253875732 -0.11607084423303604 -0.002989643719047308
vn -0.9945870041847229 0.10306783020496368 0.013178747147321701
vn -0.68117541074752808 -0.0022182187531143427 -0.7321169376373291
vn -0.72538632154464722 -0.014783536083996296 -0.68818318843841553
vn -0.68728309869766235 0.052926149219274521 -0.72445893287658691
vn -0.64469993114471436 -0.031582683324813843 0.7637830376625061
vn -0.70552754402160645 -0.016300655901432037 0.70849502086639404
vn -0.74974948167800903 -0.20984600484371185 0.62756705284118652
vn -0.74521136283874512 -0.12085000425577164 0.65578603744506836
vn -0.92239785194396973 -0.38622173666954041 0.003875890513882041
vn -0.93599617481231689 -0.35191407799720764 -0.0082216905429959297
vn -0.86926138401031494 -0.49338936805725098 0.030847311019897461
vn -0.48808807134628296 -0.87100082635879517 0.055925041437149048
vn -0.70281499624252319 -0.71111690998077393 0.01907399483025074
vn -0.6311875581741333 -0.77544355392456055 0.017016205936670303
vn -1 -3.2416010071756318E-05 -0.00011715065193129703
vn -0.99999970197677612 -0.00079562334576621652 -7.7724514994770288E-05
vn -0.99989515542984009 0.0039664944633841515 0.013927040621638298
vn -0.91903364658355713 0.38677340745925903 -0.076049216091632843
vn -0.84638559818267822 0.53256148099899292 -0.0031158640049397945
vn -0.75577676296234131 0.65482735633850098 0.001627171877771616
vn -0.6877593994140625 -0.001428613206371665 -0.72593730688095093
vn -0.99813878536224365 0.0066445390693843365 0.060620181262493134
vn -0.85601252317428589 -0.50973278284072876 -0.086110673844814301
vn -0.97156995534896851 -0.014866562560200691 -0.23628552258014679
vn -0.69388902187347412 -0.014274157583713531 -0.7199404239654541
vn 0.064857169985771179 0.0031474635470658541 -0.99788957834243774
vn 0.00063705828506499529 -0.039756651967763901 -0.99920916557312012
vn -0.042427726089954376 0.017724534496665001 -0.99894231557846069
vn -0.020333368331193924 0.055323433130979538 -0.99826145172119141
vn -0.29358941316604614 -0.16559244692325592 -0.94147992134094238
vn -0.99990946054458618 -0.0082600703462958336 -0.01062238123267889
vn -0.99812865257263184 -0.00045869257883168757 -0.06114683672785759
vn -0.9999624490737915 0.00010465697414474562 0.0086651816964149475
vn -0.9852556586265564 0.12556932866573334 -0.11620493233203888
vn -0.99152946472167969 0.053407933562994003 0.11839298903942108
vn -0.99917036294937134 0.01536258403211832 0.037717666476964951
vn -0.71287781000137329 -0.30886051058769226 0.6296113133430481
vn -0.72809100151062012 -0.028517343103885651 0.68488705158233643
vn -0.53092086315155029 -0.48839876055717468 0.69252413511276245
vn -0.85875129699707031 -0.50976711511611938 -0.051804259419441223
vn -0.99586683511734009 -0.0050837965682148933 -0.090683043003082275
vn -0.96766144037246704 -0.23769551515579224 0.084452174603939056
vn -0.95137399435043335 -0.08838605135679245 0.29508554935455322
vn -0.89395284652709961 -0.24191676080226898 0.37725925445556641
vn -0.90478616952896118 0.38749080896377563 0.17667168378829956
vn -0.94307291507720947 0.093155175447463989 -0.31927356123924255
vn -0.65558689832687378 0.75504279136657715 -0.010779036208987236
vn -0.9980737566947937 -0.05208057165145874 0.033710062503814697
vn -0.99469250440597534 -0.10275258123874664 0.0053558503277599812
vn -0.93047016859054565 -0.039788819849491119 -0.36420071125030518
vn -0.97185587882995605 0.0090811867266893387 -0.2354012131690979
vn -0.70587849617004395 -0.00099102512467652559 0.70833224058151245
vn -0.70850622653961182 0.00040953766438178718 0.7057044506072998
vn -0.031299851834774017 -0.0075441775843501091 0.99948155879974365
vn -0.34117695689201355 0.033795736730098724 0.9393913745880127
vn 0.0040867691859602928 -0.0055158822797238827 0.99997645616531372
vn -0.99980169534683228 0.0072595975361764431 0.018542898818850517
vn -0.99996680021286011 -0.0071385949850082397 0.00393680389970541
vn -0.99912989139556885 -0.038480162620544434 -0.016085799783468246
vn -0.99994832277297974 -0.0062510431744158268 -0.0080193560570478439
vn -0.90185707807540894 -0.42537069320678711 -0.075588114559650421
vn -0.99993890523910522 0.0066935475915670395 0.0088001005351543427
vn -0.99728411436080933 0.065413311123847961 0.033845294266939163
vn 0 0.93507903814315796 -0.35443919897079468
vn 0 0.93507903814315796 -0.35443919897079468
vn 0 0.93507903814315796 -0.35443919897079468
vn -7.6778150503997722E-10 -0.45509350299835205 -0.89044368267059326
vn 2.0014157442460601E-08 0.40763512253761292 -0.91314488649368286
vn -9.2390167738543028E-10 -0.56030964851379395 -0.82828325033187866
vn 5.0540799323428587E-10 -0.83654505014419556 -0.54789817333221436
vn 4.1532027816870709E-10 -0.8365744948387146 -0.54785317182540894
vn 0 0.73858296871185303 0.67416262626647949
vn 0 0.73858296871185303 0.67416262626647949
vn 0 0.73858296871185303 0.67416262626647949
vn 0 0.11115008592605591 0.99380362033843994
vn 0 0.11115008592605591 0.99380362033843994
vn 0 0.11115008592605591 0.99380362033843994
vn 0 -0.92662549018859863 0.37598568201065063
vn 9.263298750283866E-08 -0.92662537097930908 0.37598589062690735
vn -5.108314482527021E-08 -0.92662566900253296 0.37598520517349243
vn 0.96031093597412109 0.062781929969787598 -0.27177450060844421
vn 0.99407017230987549 -0.022996881976723671 -0.10628118366003036
vn 0.99929893016815186 0.014838206581771374 -0.034371860325336456
vn -6.177665934359311E-09 0.4536283016204834 -0.89119100570678711
vn 6.1501748138681478E-10 -0.12658171355724335 -0.99195617437362671
vn 0.95759689807891846 -0.17779304087162018 0.22671093046665192
vn 1 0 0
vn 0.99993747472763062 -0.0037637981586158276 0.010530089028179646
vn 0.99988508224487305 -0.014930389821529388 -0.0026222341693937778
vn 0.99993413686752319 0.00024061257136054337 0.011473078280687332
vn -0.0075829052366316319 -0.4048401415348053 0.9143560528755188
vn -0.021708393469452858 -0.47896945476531982 0.87756311893463135
vn 0.014359054155647755 -0.72915160655975342 0.68420153856277466
vn -0.0061370194889605045 -0.61239904165267944 -0.79052495956420898
vn 0.022704353556036949 -0.55059349536895752 -0.8344646692276001
vn -0.01593342237174511 -0.90716242790222168 -0.42047879099845886
vn -0.031238159164786339 -0.84726858139038086 0.53024536371231079
vn 0.024824921041727066 -0.91665375232696533 0.39891061186790466
vn -0.70493972301483154 -0.69758874177932739 0.12817944586277008
vn -0.69936096668243408 -0.59429305791854858 0.39712715148925781
vn -0.69112366437911987 -0.68114066123962402 -0.24165143072605133
vn 0.0010227217571809888 -0.99081063270568848 0.13525231182575226
vn -0.0026981232222169638 -0.99888533353805542 -0.04712599515914917
vn -0.68805831670761108 0.7256544828414917 0.0011564536252990365
vn -0.70378279685974121 0.17538140714168549 -0.68842655420303345
vn -0.66858857870101929 0.27494168281555176 -0.69093877077102661
vn -0.51908785104751587 0.4706704318523407 -0.71345436573028564
vn -0.0049305399879813194 -0.044416189193725586 -0.99900096654891968
vn 0.010279982350766659 -0.15151873230934143 -0.98840093612670898
vn 0.045147940516471863 0.002105263527482748 -0.99897807836532593
vn 0.27514269948005676 -0.055399622768163681 -0.95980590581893921
vn -0.10682423412799835 0.026360087096691132 -0.99392843246459961
vn 0.066144190728664398 -0.0048628910444676876 -0.99779820442199707
vn 0.54461050033569336 0.0069002872332930565 -0.83866071701049805
vn 0.37069204449653625 -0.0034708087332546711 -0.92874938249588013
vn 0.11549408733844757 -0.72798019647598267 -0.67580020427703857
vn -0.057983078062534332 -0.61187911033630371 -0.78882312774658203
vn 0.028645550832152367 -0.65799635648727417 -0.75247609615325928
vn -0.25088447332382202 0.14318639039993286 -0.95736861228942871
vn -0.23369207978248596 -0.18436625599861145 0.95467120409011841
vn -0.30791199207305908 0.1221657320857048 0.94353896379470825
vn -0.10400475561618805 -0.051037631928920746 0.99326640367507935
vn -0.32203474640846252 -0.48021209239959717 0.81589823961257935
vn -0.069218166172504425 -0.32549819350242615 0.94300574064254761
vn -0.0055544241331517696 -0.83134180307388306 0.55573374032974243
vn 6.0865444538649172E-05 -0.024373427033424377 0.99970293045043945
vn 0.00097006250871345401 -0.037236582487821579 0.99930602312088013
vn 0.37407568097114563 -0.0090549485757946968 0.92735397815704346
vn -0.061643291264772415 -0.0643635094165802 0.99602079391479492
vn 0.0037434510886669159 -0.10127978771924973 -0.99485093355178833
vn 0.681110680103302 -0.66109228134155273 -0.31471461057662964
vn 0.69068241119384766 -0.67632192373275757 0.25602051615715027
vn 0.70381474494934082 -0.70574510097503662 -0.081046968698501587
vn -0.38816121220588684 0.92159080505371094 0.0011306585511192679
vn -0.24972361326217651 0 0.96831715106964111
vn -0.10875474661588669 0 0.99406862258911133
vn 0.18938760459423065 0 0.98190242052078247
vn -0.36863890290260315 0.26809781789779663 0.89007240533828735
vn -0.4166465699672699 0.028302967548370361 0.90862786769866943
vn -0.2338150292634964 -0.075409702956676483 -0.96935230493545532
vn -0.64664274454116821 -0.18532970547676086 -0.73993653059005737
vn -0.14810192584991455 0.3763357400894165 0.9145694375038147
vn 0.30733039975166321 0.39551398158073425 0.86551529169082642
vn -0.056290943175554276 0.042084958404302597 0.99752706289291382
vn 0.020230511203408241 0.99704700708389282 -0.074081093072891235
vn 0.020230511203408241 0.99704700708389282 -0.074081093072891235
vn 0.020230511203408241 0.99704700708389282 -0.074081093072891235
vn -0.78495872020721436 0.048336409032344818 0.61765956878662109
vn -0.85140281915664673 -0.13855983316898346 0.50587981939315796
vn -0.75154918432235718 0.11110366135835648 0.65025365352630615
vn -0.79151433706283569 -0.0046406951732933521 -0.61113297939300537
vn -0.83292174339294434 0.088933184742927551 -0.54619801044464111
vn -0.76927012205123901 0.0062044956721365452 -0.63889360427856445
vn -0.022276205942034721 -0.050242133438587189 -0.99848860502243042
vn -0.28285855054855347 0.27347278594970703 -0.91934961080551147
vn -0.022448273375630379 0.034211263060569763 -0.99916249513626099
vn 0.013800257816910744 0.59182214736938477 0.80595040321350098
vn -0.011448063887655735 0.038686688989400864 0.99918580055236816
vn -0.377573162317276 0.49767470359802246 0.78087025880813599
vn 0.048950854688882828 0.48753604292869568 0.87172955274581909
vn -0.48132947087287903 0.45037204027175903 0.75198864936828613
vn -0.77430003881454468 0.011588103137910366 -0.63271260261535645
vn -0.70977491140365601 0.27574101090431213 -0.64821791648864746
vn -0.7369799017906189 0.19069616496562958 -0.64845627546310425
vn -0.86092394590377808 0.11018470674753189 0.49665817618370056
vn -0.85310488939285278 0.069728747010231018 0.51705890893936157
vn -0.82913553714752197 -0.021110519766807556 0.55864894390106201
vn -0.013678840361535549 0.99726682901382446 -0.07260720431804657
vn -0.013678840361535549 0.99726682901382446 -0.07260720431804657
vn -0.013678840361535549 0.99726682901382446 -0.07260720431804657
vn -0.77674627304077148 -0.40011167526245117 -0.48639068007469177
vn -0.62489962577819824 -0.58888411521911621 -0.51255828142166138
vn -0.83220171928405762 0.27052569389343262 -0.48400020599365234
vn -0.11450452357530594 0.99305605888366699 0.026987893506884575
vn -0.11248985677957535 0.99362993240356445 -0.0067493459209799767
vn -0.24779272079467773 0.96878606081008911 -0.0072354916483163834
vn -0.87471896409988403 0.31610065698623657 -0.36735153198242188
vn 0.15749399363994598 -0.98523515462875366 0.067136786878108978
vn 0.15749399363994598 -0.98523515462875366 0.067136786878108978
vn 0.15749399363994598 -0.98523515462875366 0.067136786878108978
vn -0.70961558818817139 -0.29058974981307983 0.64187484979629517
vn -0.74508661031723022 -0.16404327750205994 0.64647948741912842
vn -0.77599555253982544 0.064730338752269745 0.62740802764892578
vn -0.87668967247009277 -0.29108908772468567 0.3829912543296814
vn -0.59289395809173584 -0.79071396589279175 -0.15247359871864319
vn -0.20267221331596375 -0.93391817808151245 0.29448404908180237
vn -0.36416953802108765 -0.91832691431045532 0.15510070323944092
vn -0.35177472233772278 -0.93492776155471802 -0.046525489538908005
vn -0.35465002059936523 -0.93488740921020508 -0.014451810158789158
vn -0.83076602220535278 -0.55662113428115845 -0.0008745614904910326
vn -0.34227359294891357 -0.8718339204788208 0.35036331415176392
vn -0.31530064344406128 -0.8910297155380249 0.32657542824745178
vn -0.34736543893814087 -0.86799913644790649 0.35484471917152405
vn -0.72489356994628906 -0.58474689722061157 0.36414334177970886
vn -0.2073848694562912 -0.77357363700866699 0.5988115668296814
vn -0.023798931390047073 -0.77643686532974243 0.62974554300308228
vn -0.21694284677505493 -0.52011758089065552 -0.82608324289321899
vn -0.4809456467628479 -0.39271008968353271 -0.78388142585754395
vn -0.18975573778152466 -0.58686679601669312 -0.78713411092758179
vn -0.379018634557724 0.92538779973983765 -0.0015172186540439725
vn 0.032434433698654175 0.99947386980056763 -0.00016816628340166062
vn -0.077508121728897095 0.99699097871780396 0.0012165185762569308
vn -0.2074463814496994 0.82650387287139893 0.52331382036209106
vn 0.20983847975730896 0.84297597408294678 0.49533754587173462
vn -0.34331610798835754 0.74575388431549072 0.57095110416412354
vn 0.031441546976566315 0.86450743675231934 -0.50163561105728149
vn -0.35980644822120667 0.75493711233139038 -0.54827851057052612
vn 0.12099894136190414 0.86948984861373901 -0.47890150547027588
vn 0.13781294226646423 0.65512663125991821 0.7428436279296875
vn 0.005556340329349041 0.0069294366985559464 -0.99996054172515869
vn 0.057206425815820694 -0.030379381030797958 -0.99790006875991821
vn -0.069184958934783936 -0.04280487447977066 -0.99668508768081665
vn -0.043702516704797745 0.028379911556839943 0.99864143133163452
vn -0.0067250165157020092 -0.00041217432590201497 0.99997729063034058
vn 0.0022266109008342028 0.00040472947875969112 0.99999743700027466
vn 0.0077385064214468002 0.0023518446832895279 0.99996727705001831
vn 0.31079623103141785 0.26522243022918701 0.91272270679473877
vn 0.31079623103141785 0.26522243022918701 0.91272270679473877
vn 0.31079623103141785 0.26522243022918701 0.91272270679473877
vn 0.0063631343655288219 -0.99939906597137451 0.034074444323778152
vn 0.23872658610343933 -0.83411049842834473 0.49726176261901855
vn -0.14259174466133118 -0.97797054052352905 0.15245088934898376
vn 0.061516899615526199 -0.81138211488723755 0.58126997947692871
vn -0.036546234041452408 0.70464211702346802 -0.70862108469009399
vn 0.24820816516876221 0.63187325000762939 -0.73425400257110596
vn -0.21994508802890778 0.59268593788146973 -0.77482098340988159
vn 0.50220364332199097 0.86474806070327759 -0.001527999178506434
vn 0.14585354924201965 0.46369642019271851 -0.87390637397766113
vn 0.094863735139369965 0.82952064275741577 -0.55036020278930664
vn -0.42443174123764038 0.70828598737716675 -0.56408208608627319
vn 0.045770406723022461 0.83572065830230713 -0.54724407196044922
vn 0.60526406764984131 -0.79594993591308594 -0.010912851430475712
vn -0.020972829312086105 0.041048962622880936 0.99893701076507568
vn 0.052418224513530731 0.032641656696796417 0.99809157848358154
vn -0.015990179032087326 -0.016990963369607925 0.99972778558731079
vn -0.004743542056530714 0.044153850525617599 0.99901348352432251
vn 0.52333778142929077 0.28410449624061584 0.80336928367614746
vn 0.2367352694272995 0.13174107670783997 0.96260100603103638
vn -0.41821387410163879 0.90817826986312866 -0.017589805647730827
vn -0.41821387410163879 0.90817826986312866 -0.017589805647730827
vn -0.41821387410163879 0.90817826986312866 -0.017589805647730827
vn 0.14352856576442719 -0.60906773805618286 -0.78002309799194336
vn 0.14639131724834442 -0.22091934084892273 -0.96424281597137451
vn 0.25404652953147888 -0.54982995986938477 -0.79570555686950684
vn -0.17799210548400879 -0.98361021280288696 -0.028805790469050407
vn -0.34700426459312439 -0.93786352872848511 -0.00019270494522061199
vn -0.014487480744719505 -0.94206178188323975 -0.3351263701915741
vn -0.050291169434785843 -0.95783448219299316 -0.28288501501083374
vn -0.050291169434785843 -0.95783448219299316 -0.28288501501083374
vn -0.050291169434785843 -0.95783448219299316 -0.28288501501083374
vn 0.38376471400260925 -0.6149412989616394 0.6888917088508606
vn 0.49064204096794128 -0.53939062356948853 0.6843450665473938
vn -0.075630024075508118 -0.79903340339660645 0.59651130437850952
vn 0.77896493673324585 0.44143891334533691 -0.44535970687866211
vn 0.77896493673324585 0.44143891334533691 -0.44535970687866211
vn 0.77896493673324585 0.44143891334533691 -0.44535970687866211
vn 0.023589620366692543 0.95436000823974609 -0.29772549867630005
vn 0.023589620366692543 0.95436000823974609 -0.29772549867630005
vn 0.023589620366692543 0.95436000823974609 -0.29772549867630005
vn 0.94942820072174072 0.0052610323764383793 0.31394019722938538
vn 0.86295509338378906 0.36253631114959717 0.35196009278297424
vn 0.90129363536834717 0.29939979314804077 0.31309676170349121
vn 0.3686678409576416 0.30419817566871643 0.87837779521942139
vn 0.3686678409576416 0.30419817566871643 0.87837779521942139
vn 0.3686678409576416 0.30419817566871643 0.87837779521942139
vn 0.60739636421203613 0.79048991203308105 0.078710615634918213
vn 0.76111072301864624 0.47064194083213806 -0.44632568955421448
vn 0.8181159496307373 0.54860991239547729 -0.17237593233585358
vn 0 0.99866914749145508 0.051574196666479111
vn 0 0.99866914749145508 0.051574196666479111
vn 0 0.99866914749145508 0.051574196666479111
vn -0.35086226463317871 -0.08361431211233139 0.93268662691116333
vn 0.85620266199111938 0 -0.51664012670516968
vn 0.85620266199111938 0 -0.51664012670516968
vn 0.85620266199111938 0 -0.51664012670516968
vn 0.91421270370483398 -0.40442031621932983 0.025676911696791649
vn 0.97291487455368042 -0.17220155894756317 -0.15421818196773529
vn 0.56437158584594727 -0.82525449991226196 -0.020968988537788391
vn 0.66162240505218506 -0.60868364572525024 0.43790414929389954
vn 0.83918881416320801 -0.36006399989128113 0.40757337212562561
vn 0.53446555137634277 -0.72349017858505249 0.43693083524703979
vn 0.039689403027296066 -0.99605703353881836 0.079342037439346313
vn 0.039689403027296066 -0.99605703353881836 0.079342037439346313
vn 0.039689403027296066 -0.99605703353881836 0.079342037439346313
vn 0.89461737871170044 -0.29550951719284058 -0.33516255021095276
vn 0.92050355672836304 -0.24231983721256256 -0.30651965737342834
vn 0.94851154088973999 -0.0024693049490451813 -0.31673300266265869
vn 0.43447956442832947 -0.12444598972797394 -0.89204299449920654
vn -0.12729711830615997 -0.0066601801663637161 -0.99184226989746094
vn 0.43338537216186523 -0.3876211941242218 -0.81358891725540161
vn 0.79707902669906616 -0.43834772706031799 0.41535082459449768
vn 0.79707902669906616 -0.43834772706031799 0.41535082459449768
vn 0.79707902669906616 -0.43834772706031799 0.41535082459449768
vn 0.94703078269958496 -0.018566017970442772 0.32060572504997253
vn 0.94703078269958496 -0.018566017970442772 0.32060572504997253
vn 0.94703078269958496 -0.018566017970442772 0.32060572504997253
vn 0.75643974542617798 0.54226386547088623 -0.36571690440177917
vn 0.70711433887481689 0.6087530255317688 -0.35973477363586426
vn 0.90358155965805054 0.017045387998223305 -0.42807695269584656
vn 0.88263791799545288 0.25487047433853149 0.39495742321014404
vn 0.88061535358428955 0.24113745987415314 0.4078839123249054
vn 0.78659367561340332 0.43820974230766296 0.43502020835876465
vn 0.82952463626861572 0.29249259829521179 -0.47574883699417114
vn 0.85228472948074341 -0.065151333808898926 -0.51900488138198853
vn 0.86201554536819458 0.15859819948673248 -0.48143103718757629
vn 0.76771903038024902 -0.46893498301506042 0.43670067191123962
vn 0.84023517370223999 0.15842874348163605 0.51856064796447754
vn 0.86001437902450562 -0.12696945667266846 0.49422058463096619
vn 0.80994910001754761 -0.43574103713035583 -0.39257121086120605
vn 0.80632930994033813 -0.41575399041175842 -0.42069187760353088
vn 0.68735748529434204 -0.35887011885643005 0.63146805763244629
vn 0.7590593695640564 -0.096186704933643341 0.64387649297714233
vn 0.75108206272125244 -0.14025212824344635 0.64513957500457764
vn 0.69698613882064819 0.17045503854751587 -0.69653093814849854
vn 0.32063499093055725 0.67113155126571655 -0.66841280460357666
vn 0.60721820592880249 0.49250775575637817 -0.62347584962844849
vn 0.87597918510437012 0.48232525587081909 0.0047792042605578899
vn 0.83354264497756958 0.55236989259719849 -0.009703795425593853
vn 0.99388140439987183 0.11044842749834061 0.00096197292441502213
vn 0.99932211637496948 -0.0082104913890361786 0.035888087004423141
vn 0.99990010261535645 -0.0073227435350418091 -0.012089339084923267
vn 0.99729210138320923 0.073519542813301086 -0.0018388666212558746
vn 0.99358129501342773 0.074228167533874512 0.085360467433929443
vn 0.99222397804260254 -0.084167972207069397 -0.091691769659519196
vn 0.99911129474639893 -0.028791526332497597 -0.030784377828240395
vn 0.96688872575759888 0.21348227560520172 -0.13982661068439484
vn 0.99904155731201172 -0.030339246615767479 0.031552396714687347
vn 0.66356861591339111 -0.15617625415325165 -0.73163223266601562
vn 0.99041789770126343 -0.10914784669876099 -0.084611371159553528
vn 0.99297904968261719 0.11152754724025726 0.039423942565917969
vn 0.88021653890609741 0.15570862591266632 0.44830092787742615
vn 0.70103037357330322 -0.50804734230041504 0.50044417381286621
vn 0.99651312828063965 0.082424312829971313 0.012953208759427071
vn 0.7160068154335022 -0.13502691686153412 -0.68491017818450928
vn -0.99992352724075317 0.0095511702820658684 0.0078540975227952003
vn 0.12399953603744507 0.084148555994033813 -0.98870784044265747
vn -0.0343463234603405 -0.92830783128738403 -0.37022283673286438
vn 0.091285951435565948 -0.88139021396636963 -0.46348479390144348
vn -0.69241231679916382 -0.1208157017827034 -0.71131479740142822
vn -0.723000168800354 -0.40888369083404541 -0.55685263872146606
vn -0.71815472841262817 -0.6398162841796875 -0.27365833520889282
vn -0.79609256982803345 0.0051220199093222618 0.60515320301055908
vn -0.52289301156997681 0.46824714541435242 0.71226930618286133
vn -0.58098596334457397 0.40425577759742737 0.70642238855361938
vn -0.30428123474121094 0.68272674083709717 0.66430199146270752
vn 0.037526343017816544 -0.032906219363212585 -0.99875372648239136
vn 0.0015298754442483187 0.011472289450466633 -0.99993300437927246
vn 0.99921876192092896 0.024147758260369301 -0.031285714358091354
vn 0.99927794933319092 0.0088008763268589973 -0.036961156874895096
vn -0.81456780433654785 -0.27790793776512146 0.50916248559951782
vn -0.83671730756759644 -0.2382146418094635 0.49311047792434692
vn -0.87867224216461182 -0.14874021708965302 0.45366445183753967
vn -0.29907664656639099 -0.8578261137008667 -0.41795638203620911
vn -0.23121243715286255 -0.87303906679153442 -0.42935255169868469
vn 0.25395691394805908 -0.80010592937469482 -0.54344856739044189
vn 0.25254717469215393 -0.96724516153335571 -0.025626039132475853
vn 0.30807855725288391 -0.95131796598434448 -0.0090427380055189133
vn 0 0 -1
vn 0 0 -1
vn 0 0 -1
vn -0.39129996299743652 -0.14773820340633392 0.90832692384719849
vn -0.82808125019073486 -0.39045116305351257 -0.40228018164634705
vn -0.88947618007659912 -0.17629234492778778 -0.42160776257514954
vn -0.7274625301361084 -0.57777523994445801 -0.37010002136230469
vn 0.18904076516628265 0.98172086477279663 0.022083966061472893
vn 0.15902505815029144 0.97613787651062012 -0.14787100255489349
vn -0.64126574993133545 0.053727708756923676 -0.76543551683425903
vn -0.88263040781021118 0.31373769044876099 0.35004600882530212
vn -0.83225446939468384 0.29383647441864014 0.47011980414390564
vn -0.89134758710861206 0.40208905935287476 0.20934145152568817
vn 0.43795385956764221 0.89899677038192749 -0.0010843152413144708
vn 0.98993951082229614 -0.13272492587566376 -0.04902976006269455
vn 0.97899580001831055 0.20280468463897705 0.020915824919939041
vn 0 0.97848910093307495 0.20629838109016418
vn 0 0.97848910093307495 0.20629838109016418
vn 0 0.97848910093307495 0.20629838109016418
vn -0.00091086904285475612 -0.73066872358322144 0.68273156881332397
vn 0.31301736831665039 0.43623822927474976 0.84363281726837158
vn -0.28733369708061218 0.95781868696212769 0.0047628958709537983
vn 0 0.93507903814315796 -0.35443919897079468
vn 0 0.11115008592605591 0.99380362033843994
vn 1.159731777278239E-08 -0.92662537097930908 0.37598598003387451
vn 0.047021854668855667 0.020598255097866058 0.99868148565292358
vn 0.040466349571943283 -0.41943690180778503 0.90688210725784302
vn -0.71912539005279541 0.53812670707702637 -0.43963432312011719
vn -0.018637668341398239 -0.014750704169273376 -0.99971747398376465
vn 0.9995567798614502 0.01352153904736042 -0.026522664353251457
usemtl vc_191919__Default
f 1//1 2//2 3//3
f 4//4 5//5 6//6
f 7//7 8//8 9//9
f 10//10 8//8 7//7
f 11//11 5//5 12//12
f 13//13 14//14 15//15
f 1//1 16//16 17//17
f 18//18 1//1 19//19
f 20//20 21//21 22//22
f 23//23 24//24 25//25
f 26//26 27//27 28//28
f 29//29 30//30 31//31
f 15//15 32//32 13//13
f 33//33 21//21 34//34
f 32//32 35//35 13//13
f 32//32 36//36 35//35
f 38//38 141//141 39//39 37//37
f 40//40 41//41 39//39
f 35//35 42//42 33//33
f 43//43 44//44 33//33
f 45//45 46//46 42//42
f 35//35 45//45 42//42
f 46//46 47//47 42//42
f 48//48 49//49 50//50
f 51//51 52//52 53//53
f 54//54 52//52 47//47
f 55//55 52//52 54//54
f 56//56 54//54 47//47
f 57//57 58//58 45//45
f 57//57 45//45 59//59
f 60//60 57//57 61//61
f 62//62 60//60 61//61
f 63//63 64//64 1//1
f 65//65 66//66 67//67
f 68//68 46//46 57//57
f 69//69 70//70 46//46
f 70//70 54//54 56//56
f 60//60 53//53 54//54
f 71//71 60//60 54//54
f 71//71 54//54 70//70
f 72//72 53//53 60//60
f 60//60 73//73 74//74
f 73//73 68//68 57//57
f 75//75 76//76 77//77
f 78//78 79//79 80//80
f 78//78 80//80 81//81 82//82
f 83//83 84//84 85//85
f 88//88 392//392 86//86 87//87
f 91//91 393//393 89//89 90//90
f 92//92 93//93 94//94
f 95//95 79//79 96//96
f 97//97 98//98 99//99
f 100//100 101//101 98//98
f 102//102 103//103 104//104
f 105//105 106//106 107//107
f 108//108 109//109 104//104
f 110//110 111//111 112//112
f 113//113 114//114 109//109
f 115//115 29//29 31//31
f 116//116 117//117 118//118
f 119//119 120//120 37//37
f 121//121 122//122 37//37
f 122//122 123//123 37//37
f 124//124 125//125 126//126
f 127//127 128//128 129//129
f 130//130 41//41 40//40
f 131//131 132//132 133//133
f 134//134 135//135 136//136
f 65//65 67//67 137//137
f 67//67 138//138 137//137
f 139//139 137//137 140//140
f 138//138 67//67 103//103
f 106//106 105//105 141//141
f 142//142 143//143 144//144
f 115//115 31//31 145//145
f 146//146 147//147 148//148
f 149//149 132//132 150//150
f 151//151 130//130 152//152
f 153//153 154//154 155//155
f 156//156 157//157 158//158
f 159//159 160//160 161//161
f 162//162 163//163 164//164
f 165//165 166//166 167//167
f 168//168 155//155 169//169
f 170//170 171//171 172//172
f 173//173 174//174 175//175
f 176//176 177//177 178//178
f 179//179 180//180 181//181
f 184//184 396//396 182//182 183//183
f 185//185 186//186 187//187
f 188//188 163//163 162//162
f 189//189 190//190 191//191
f 192//192 193//193 194//194
f 160//160 159//159 195//195
f 196//196 197//197 198//198
f 199//199 200//200 201//201
f 202//202 203//203 204//204
f 205//205 206//206 207//207
f 208//208 209//209 210//210
f 211//211 212//212 213//213
f 214//214 215//215 216//216
f 217//217 218//218 219//219
f 220//220 171//171 170//170
f 223//223 397//397 221//221 222//222
f 224//224 227//227 225//225 226//226
f 228//228 229//229 230//230
f 231//231 200//200 199//199
f 232//232 233//233 234//234
f 235//235 236//236 237//237
f 238//238 382//382 213//213 212//212
f 167//167 239//239 165//165
f 240//240 241//241 242//242
f 231//231 199//199 243//243
f 169//169 246//246 244//244 245//245
f 246//246 247//247 248//248
f 249//249 139//139 247//247
f 250//250 251//251 252//252
f 253//253 254//254 255//255
f 256//256 257//257 231//231
f 258//258 256//256 231//231
f 259//259 260//260 261//261
f 262//262 263//263 264//264
f 265//265 266//266 267//267
f 268//268 269//269 270//270
f 271//271 272//272 273//273
f 274//274 275//275 276//276
f 277//277 278//278 279//279
f 280//280 281//281 282//282
f 139//139 249//249 283//283
f 284//284 285//285 286//286
f 287//287 288//288 289//289
f 290//290 291//291 292//292
f 293//293 294//294 295//295
f 296//296 297//297 298//298
f 299//299 300//300 301//301
f 302//302 303//303 304//304
f 305//305 306//306 307//307
f 308//308 309//309 310//310
f 311//311 312//312 313//313
f 314//314 315//315 316//316
f 317//317 318//318 319//319
f 320//320 310//310 321//321
f 322//322 323//323 324//324
f 325//325 326//326 327//327
f 238//238 328//328 329//329
f 329//329 328//328 330//330
f 333//333 330//330 331//331 332//332
f 334//334 335//335 336//336
f 337//337 338//338 332//332
f 334//334 337//337 332//332
f 335//335 334//334 332//332
f 339//339 340//340 92//92
f 92//92 340//340 338//338
f 92//92 338//338 337//337
f 341//341 337//337 334//334
f 341//341 334//334 342//342
f 336//336 97//97 342//342
f 343//343 344//344 97//97
f 339//339 92//92 345//345
f 35//35 346//346 45//45
f 41//41 347//347 39//39
f 348//348 349//349 114//114
f 213//213 145//145 211//211
f 350//350 351//351 352//352
f 353//353 49//49 1//1
f 354//354 355//355 356//356
f 357//357 40//40 358//358
f 97//97 359//359 343//343
f 93//93 341//341 94//94
f 360//360 97//97 99//99
f 106//106 141//141 38//38
f 361//361 362//362 363//363
f 364//364 365//365 366//366
f 367//367 231//231 368//368
f 369//369 370//370 371//371
f 105//105 107//107 348//348
f 113//113 109//109 108//108
f 114//114 113//113 348//348
f 65//65 372//372 133//133
f 373//373 374//374 375//375
f 246//246 248//248 244//244
f 310//310 320//320 308//308
f 336//336 342//342 334//334
f 37//37 39//39 119//119
f 68//68 69//69 46//46
f 376//376 377//377 185//185
f 139//139 140//140 247//247
f 101//101 92//92 94//94
f 378//378 15//15 14//14
f 379//379 380//380 381//381
f 238//238 329//329 382//382
f 329//329 330//330 333//333
f 384//384 398//398 344//344 383//383
f 385//385 386//386 387//387
f 103//103 388//388 104//104
f 389//389 171//171 220//220
f 97//97 336//336 359//359
f 124//124 126//126 123//123
f 185//185 187//187 390//390
f 75//75 77//77 391//391
f 138//138 394//394 137//137
f 138//138 103//103 395//395
f 31//31 211//211 145//145
