# Dual color encoding: per-vertex RGB for Rerun, face MTL colors for legacy RViz.
mtllib sim_gene01_r_hand_middle_4.mtl
# Rhino

g sim_gene01_r_hand_middle_4
v 8.8792543304165896 26.293261259402534 -7.251968615682526 0.0980392157 0.0980392157 0.0980392157
v 0.69539908671830108 23.556937678908213 -10.680440047313661 0.0980392157 0.0980392157 0.0980392157
v 0.50122361046149422 30.894145639943378 -8.4316168425035656 0.0980392157 0.0980392157 0.0980392157
v 10.973701980431539 12.364707866021359 -8.5728329561236265 0.0980392157 0.0980392157 0.0980392157
v 8.8792543304165896 26.293261259402534 -7.251968615682526 0.0980392157 0.0980392157 0.0980392157
v -13.457753205416013 14.911538987795064 -5.4392996698099054 0.0980392157 0.0980392157 0.0980392157
v -7.8684083547117147 29.092054287530306 -7.5058588605799406 0.0980392157 0.0980392157 0.0980392157
v -11.145157208697128 13.731010917668698 -9.0239145076195069 0.0980392157 0.0980392157 0.0980392157
v -3.9039233688887278 18.07806563710832 -5.5922423308288289 0.0980392157 0.0980392157 0.0980392157
v -3.9378636329888117 18.483218486291339 -9.075428730145978 0.0980392157 0.0980392157 0.0980392157
v 3.4598149434475345 17.932077864327312 -9.1556451295575094 0.0980392157 0.0980392157 0.0980392157
v 5.6278547582254443 6.9015787385320202 -5.0382053306188386 0.0980392157 0.0980392157 0.0980392157
v 3.5351392916106383 15.519282679745766 -5.2449667150220494 0.0980392157 0.0980392157 0.0980392157
v 3.4598149434475345 17.932077864327312 -9.1556451295575094 0.0980392157 0.0980392157 0.0980392157
v -4.6412836806605693 7.6109290687677005 -9.5783043351467541 0.0980392157 0.0980392157 0.0980392157
v 3.4598149434475345 17.932077864327312 -9.1556451295575094 0.0980392157 0.0980392157 0.0980392157
v -3.9378636329888117 18.483218486291339 -9.075428730145978 0.0980392157 0.0980392157 0.0980392157
v -4.6412836806605693 7.6109290687677005 -9.5783043351467541 0.0980392157 0.0980392157 0.0980392157
v -3.9378636329888117 18.483218486291339 -9.075428730145978 0.0980392157 0.0980392157 0.0980392157
v -3.9039233688887278 18.07806563710832 -5.5922423308288289 0.0980392157 0.0980392157 0.0980392157
v -6.2739757396385301 -0.70006484550870907 -9.7041481900964843 0.0980392157 0.0980392157 0.0980392157
v 4.3559345155239244 -0.73048269145600364 -9.6986363177313653 0.0980392157 0.0980392157 0.0980392157
v 5.6278547582254443 6.9015787385320202 -5.0382053306188386 0.0980392157 0.0980392157 0.0980392157
v 13.011091799769638 13.313027273761719 -6.3471736003588308 0.0980392157 0.0980392157 0.0980392157
v 12.724613443089627 -0.81199019963958086 -7.6231245097889495 0.0980392157 0.0980392157 0.0980392157
v -2.005814645102447 -0.70620473571399534 -11.230155826334833 0.0980392157 0.0980392157 0.0980392157
v -13.049040424911713 -0.26879850437387054 -8.2518801815320675 0.0980392157 0.0980392157 0.0980392157
v -6.2739757396385301 -0.70006484550870907 -9.7041481900964843 0.0980392157 0.0980392157 0.0980392157
v -4.6412836806605693 7.6109290687677005 -9.5783043351467541 0.0980392157 0.0980392157 0.0980392157
v -8.4437526502051945 6.0290444880943204 -5.0542710339173977 0.0980392157 0.0980392157 0.0980392157
v 6.2711808087751777 -0.7036645305787913 -10.610899847826825 0.0980392157 0.0980392157 0.0980392157
v 6.3168759832978898 -0.80792207252762249 -5.0601075862240066 0.0980392157 0.0980392157 0.0980392157
v 5.6278547582254443 6.9015787385320202 -5.0382053306188386 0.0980392157 0.0980392157 0.0980392157
v 4.3559345155239244 -0.73048269145600364 -9.6986363177313653 0.0980392157 0.0980392157 0.0980392157
v -13.049040424911713 -0.26879850437387054 -8.2518801815320675 0.0980392157 0.0980392157 0.0980392157
v -2.005814645102447 -0.70620473571399534 -11.230155826334833 0.0980392157 0.0980392157 0.0980392157
v -6.2739757396385301 -0.70006484550870907 -9.7041481900964843 0.0980392157 0.0980392157 0.0980392157
v 6.2711808087751777 -0.7036645305787913 -10.610899847826825 0.0980392157 0.0980392157 0.0980392157
v 4.3559345155239244 -0.73048269145600364 -9.6986363177313653 0.0980392157 0.0980392157 0.0980392157
v 6.3168759832978898 -0.80792207252762249 -5.0601075862240066 0.0980392157 0.0980392157 0.0980392157
v 0.50122361046149422 30.894145639943378 -8.4316168425035656 0.0980392157 0.0980392157 0.0980392157
v -2.5069928423209706 31.90001757270392 -2.3868004330474535 0.0980392157 0.0980392157 0.0980392157
v -3.7587850955567217 7.6675998416770623 -5.3022150454328338 0.0980392157 0.0980392157 0.0980392157
v -3.9039233688887278 18.07806563710832 -5.5922423308288289 0.0980392157 0.0980392157 0.0980392157
v 3.5351392916106383 15.519282679745766 -5.2449667150220494 0.0980392157 0.0980392157 0.0980392157
v -13.049040424911713 -0.26879850437387054 -8.2518801815320675 0.0980392157 0.0980392157 0.0980392157
v -11.145157208697128 13.731010917668698 -9.0239145076195069 0.0980392157 0.0980392157 0.0980392157
v 13.36647214170932 0.32991081044889575 -3.278021398435333 0.0980392157 0.0980392157 0.0980392157
v 12.724613443089627 -0.81199019963958086 -7.6231245097889495 0.0980392157 0.0980392157 0.0980392157
v 13.011091799769638 13.313027273761719 -6.3471736003588308 0.0980392157 0.0980392157 0.0980392157
v -9.1484945719044592 -5.5935851251055615 -0.76508365153167812 0.0980392157 0.0980392157 0.0980392157
v -13.049040424911713 -0.26879850437387054 -8.2518801815320675 0.0980392157 0.0980392157 0.0980392157
v -8.7548071055066785 -0.84037905446368033 -5.0453298194563052 0.0980392157 0.0980392157 0.0980392157
v -9.1484945719044592 -5.5935851251055615 -0.76508365153167812 0.0980392157 0.0980392157 0.0980392157
v -8.7548071055066785 -0.84037905446368033 -5.0453298194563052 0.0980392157 0.0980392157 0.0980392157
v -8.4437526502051945 6.0290444880943204 -5.0542710339173977 0.0980392157 0.0980392157 0.0980392157
v 9.1572774897178419 -4.6713037256957861 -2.4629577187742107 0.0980392157 0.0980392157 0.0980392157
v 6.3168759832978898 -0.80792207252762249 -5.0601075862240066 0.0980392157 0.0980392157 0.0980392157
v 12.724613443089627 -0.81199019963958086 -7.6231245097889495 0.0980392157 0.0980392157 0.0980392157
v 9.1572774897178419 -4.6713037256957861 -2.4629577187742107 0.0980392157 0.0980392157 0.0980392157
v 5.7624885692566137 -5.1501001533738879 -0.54882931838681404 0.0980392157 0.0980392157 0.0980392157
v 6.3168759832978898 -0.80792207252762249 -5.0601075862240066 0.0980392157 0.0980392157 0.0980392157
v 9.1572774897178419 -4.6713037256957861 -2.4629577187742107 0.0980392157 0.0980392157 0.0980392157
v 12.724613443089627 -0.81199019963958086 -7.6231245097889495 0.0980392157 0.0980392157 0.0980392157
v 13.36647214170932 0.32991081044889575 -3.278021398435333 0.0980392157 0.0980392157 0.0980392157
v 3.7386662790074938 30.617562920380077 0.27641814961665628 0.0980392157 0.0980392157 0.0980392157
v 5.6908837771433678 30.556535079388858 -5.883034365631187 0.0980392157 0.0980392157 0.0980392157
v 9.0889623031300193 25.271861374452435 3.6716267717128668 0.0980392157 0.0980392157 0.0980392157
v -12.183650597182691 19.704590493033059 2.5339107721297482 0.0980392157 0.0980392157 0.0980392157
v -8.5786255600232018 26.83962050873836 4.3329975066722017 0.0980392157 0.0980392157 0.0980392157
v 4.7762831033569775 9.0497703196732768 -0.070275888404552969 0.0980392157 0.0980392157 0.0980392157
v -3.7587850955567217 7.6675998416770623 -5.3022150454328338 0.0980392157 0.0980392157 0.0980392157
v 5.6278547582254443 6.9015787385320202 -5.0382053306188386 0.0980392157 0.0980392157 0.0980392157
v -6.6550324929318867 9.153631017263276 -0.067313492341512085 0.0980392157 0.0980392157 0.0980392157
v -8.4437526502051945 6.0290444880943204 -5.0542710339173977 0.0980392157 0.0980392157 0.0980392157
v -3.7587850955567217 7.6675998416770623 -5.3022150454328338 0.0980392157 0.0980392157 0.0980392157
v -8.722521459713791 4.3151040767659508 5.0429499584680482 0.0980392157 0.0980392157 0.0980392157
v -9.8330811395704334 -2.6301629958405695 4.4334790501410186 0.0980392157 0.0980392157 0.0980392157
v -13.758292549140053 6.3437060795310956 5.3913637073964047 0.0980392157 0.0980392157 0.0980392157
v -8.722521459713791 4.3151040767659508 5.0429499584680482 0.0980392157 0.0980392157 0.0980392157
v -5.5073071231615618 8.3505632142716379 4.7072425305275578 0.0980392157 0.0980392157 0.0980392157
v -5.5073071231615618 8.3505632142716379 4.7072425305275578 0.0980392157 0.0980392157 0.0980392157
v -8.722521459713791 4.3151040767659508 5.0429499584680482 0.0980392157 0.0980392157 0.0980392157
v -6.6550324929318867 9.153631017263276 -0.067313492341512085 0.0980392157 0.0980392157 0.0980392157
v -8.4437526502051945 6.0290444880943204 -5.0542710339173977 0.0980392157 0.0980392157 0.0980392157
v 3.7386662790074938 30.617562920380077 0.27641814961665628 0.0980392157 0.0980392157 0.0980392157
v -14.129633895767071 0.019846115944622045 -1.9290376776416831 0.0980392157 0.0980392157 0.0980392157
v -13.758292549140053 6.3437060795310956 5.3913637073964047 0.0980392157 0.0980392157 0.0980392157
v -9.8330811395704334 -2.6301629958405695 4.4334790501410186 0.0980392157 0.0980392157 0.0980392157
v -14.129633895767071 0.019846115944622045 -1.9290376776416831 0.0980392157 0.0980392157 0.0980392157
v -13.049040424911713 -0.26879850437387054 -8.2518801815320675 0.0980392157 0.0980392157 0.0980392157
v 9.9120193670549543 -4.6256113248084496 2.2096476109573766 0.0980392157 0.0980392157 0.0980392157
v 9.1572774897178419 -4.6713037256957861 -2.4629577187742107 0.0980392157 0.0980392157 0.0980392157
v 13.36647214170932 0.32991081044889575 -3.278021398435333 0.0980392157 0.0980392157 0.0980392157
v 7.5778436643379949 -2.7686620341641901 5.0710931410718274 0.0980392157 0.0980392157 0.0980392157
v 9.9120193670549543 -4.6256113248084496 2.2096476109573766 0.0980392157 0.0980392157 0.0980392157
v 13.36647214170932 0.32991081044889575 -3.278021398435333 0.0980392157 0.0980392157 0.0980392157
v 7.5778436643379949 -2.7686620341641901 5.0710931410718274 0.0980392157 0.0980392157 0.0980392157
v 13.36647214170932 0.32991081044889575 -3.278021398435333 0.0980392157 0.0980392157 0.0980392157
v 13.341920210640922 3.8906645095268555 4.2927183824161155 0.0980392157 0.0980392157 0.0980392157
v 9.1572774897178419 -4.6713037256957861 -2.4629577187742107 0.0980392157 0.0980392157 0.0980392157
v 9.9120193670549543 -4.6256113248084496 2.2096476109573766 0.0980392157 0.0980392157 0.0980392157
v -8.5786255600232018 26.83962050873836 4.3329975066722017 0.0980392157 0.0980392157 0.0980392157
v 5.7748570856093364 7.6748406951051109 4.7163008365781049 0.0980392157 0.0980392157 0.0980392157
v -9.8330811395704334 -2.6301629958405695 4.4334790501410186 0.0980392157 0.0980392157 0.0980392157
v -13.758292549140053 6.3437060795310956 5.3913637073964047 0.0980392157 0.0980392157 0.0980392157
v -14.129633895767071 0.019846115944622045 -1.9290376776416831 0.0980392157 0.0980392157 0.0980392157
v 4.4591898564769732 24.72176031968301 6.5654743671780791 0.0980392157 0.0980392157 0.0980392157
v 9.0889623031300193 25.271861374452435 3.6716267717128668 0.0980392157 0.0980392157 0.0980392157
v 3.7386662790074938 30.617562920380077 0.27641814961665628 0.0980392157 0.0980392157 0.0980392157
v 11.054328052105127 10.633890612457311 7.5614083599806383 0.0980392157 0.0980392157 0.0980392157
v 13.341920210640922 3.8906645095268555 4.2927183824161155 0.0980392157 0.0980392157 0.0980392157
v 11.724014881807509 18.766468717107003 2.9252944934399716 0.0980392157 0.0980392157 0.0980392157
v 7.5778436643379949 -2.7686620341641901 5.0710931410718274 0.0980392157 0.0980392157 0.0980392157
v 11.054328052105127 10.633890612457311 7.5614083599806383 0.0980392157 0.0980392157 0.0980392157
v 9.0889623031300193 25.271861374452435 3.6716267717128668 0.0980392157 0.0980392157 0.0980392157
v -8.5786255600232018 26.83962050873836 4.3329975066722017 0.0980392157 0.0980392157 0.0980392157
v -5.5073071231615618 8.3505632142716379 4.7072425305275578 0.0980392157 0.0980392157 0.0980392157
v -10.318815227319305 11.528305203911902 7.6497789923020756 0.0980392157 0.0980392157 0.0980392157
v -1.6596712829025364 14.117919278101127 8.4817021881736157 0.0980392157 0.0980392157 0.0980392157
v -10.318815227319305 11.528305203911902 7.6497789923020756 0.0980392157 0.0980392157 0.0980392157
v -5.5073071231615618 8.3505632142716379 4.7072425305275578 0.0980392157 0.0980392157 0.0980392157
v 11.054328052105127 10.633890612457311 7.5614083599806383 0.0980392157 0.0980392157 0.0980392157
v -1.6596712829025364 14.117919278101127 8.4817021881736157 0.0980392157 0.0980392157 0.0980392157
v 5.7748570856093364 7.6748406951051109 4.7163008365781049 0.0980392157 0.0980392157 0.0980392157
v 13.341920210640922 3.8906645095268555 4.2927183824161155 0.0980392157 0.0980392157 0.0980392157
v 11.054328052105127 10.633890612457311 7.5614083599806383 0.0980392157 0.0980392157 0.0980392157
v 5.7748570856093364 7.6748406951051109 4.7163008365781049 0.0980392157 0.0980392157 0.0980392157
v -9.8330811395704334 -2.6301629958405695 4.4334790501410186 0.0980392157 0.0980392157 0.0980392157
v -8.722521459713791 4.3151040767659508 5.0429499584680482 0.0980392157 0.0980392157 0.0980392157
v -13.758292549140053 6.3437060795310956 5.3913637073964047 0.0980392157 0.0980392157 0.0980392157
v 13.341920210640922 3.8906645095268555 4.2927183824161155 0.0980392157 0.0980392157 0.0980392157
v 5.7748570856093364 7.6748406951051109 4.7163008365781049 0.0980392157 0.0980392157 0.0980392157
v 4.4591898564769732 24.72176031968301 6.5654743671780791 0.0980392157 0.0980392157 0.0980392157
v -4.1604712997107516 22.518301219404755 7.1209330008265228 0.0980392157 0.0980392157 0.0980392157
v -10.318815227319305 11.528305203911902 7.6497789923020756 0.0980392157 0.0980392157 0.0980392157
v -1.6596712829025364 14.117919278101127 8.4817021881736157 0.0980392157 0.0980392157 0.0980392157
v 5.7624885692566137 -5.1501001533738879 -0.54882931838681404 0.0980392157 0.0980392157 0.0980392157
v 5.6278547582254443 6.9015787385320202 -5.0382053306188386 0.0980392157 0.0980392157 0.0980392157
v 6.3168759832978898 -0.80792207252762249 -5.0601075862240066 0.0980392157 0.0980392157 0.0980392157
v 11.054328052105127 10.633890612457311 7.5614083599806383 0.0980392157 0.0980392157 0.0980392157
v 7.5778436643379949 -2.7686620341641901 5.0710931410718274 0.0980392157 0.0980392157 0.0980392157
v 5.7748570856093364 7.6748406951051109 4.7163008365781049 0.0980392157 0.0980392157 0.0980392157
v 4.7762831033569775 9.0497703196732768 -0.070275888404552969 0.0980392157 0.0980392157 0.0980392157
v 5.6278547582254443 6.9015787385320202 -5.0382053306188386 0.0980392157 0.0980392157 0.0980392157
v 5.7748570856093364 7.6748406951051109 4.7163008365781049 0.0980392157 0.0980392157 0.0980392157
v -13.049040424911713 -0.26879850437387054 -8.2518801815320675 0.0980392157 0.0980392157 0.0980392157
v -9.1484945719044592 -5.5935851251055615 -0.76508365153167812 0.0980392157 0.0980392157 0.0980392157
v -9.8330811395704334 -2.6301629958405695 4.4334790501410186 0.0980392157 0.0980392157 0.0980392157
v 12.724613443089627 -0.81199019963958086 -7.6231245097889495 0.0980392157 0.0980392157 0.0980392157
v 5.7748570856093364 7.6748406951051109 4.7163008365781049 0.0980392157 0.0980392157 0.0980392157
v -1.6596712829025364 14.117919278101127 8.4817021881736157 0.0980392157 0.0980392157 0.0980392157
v -5.5073071231615618 8.3505632142716379 4.7072425305275578 0.0980392157 0.0980392157 0.0980392157
v -4.6412836806605693 7.6109290687677005 -9.5783043351467541 0.0980392157 0.0980392157 0.0980392157
v -3.7587850955567217 7.6675998416770623 -5.3022150454328338 0.0980392157 0.0980392157 0.0980392157
v -8.4437526502051945 6.0290444880943204 -5.0542710339173977 0.0980392157 0.0980392157 0.0980392157
v -8.7548071055066785 -0.84037905446368033 -5.0453298194563052 0.0980392157 0.0980392157 0.0980392157
v -3.9039233688887278 18.07806563710832 -5.5922423308288289 0.0980392157 0.0980392157 0.0980392157
v 3.4598149434475345 17.932077864327312 -9.1556451295575094 0.0980392157 0.0980392157 0.0980392157
v 3.5351392916106383 15.519282679745766 -5.2449667150220494 0.0980392157 0.0980392157 0.0980392157
v -5.5073071231615618 8.3505632142716379 4.7072425305275578 0.0980392157 0.0980392157 0.0980392157
v -3.7587850955567217 7.6675998416770623 -5.3022150454328338 0.0980392157 0.0980392157 0.0980392157
v -8.7548071055066785 -0.84037905446368033 -5.0453298194563052 0.0980392157 0.0980392157 0.0980392157
v 5.6278547582254443 6.9015787385320202 -5.0382053306188386 0.0980392157 0.0980392157 0.0980392157
v -8.4437526502051945 6.0290444880943204 -5.0542710339173977 0.0980392157 0.0980392157 0.0980392157
vn 0.61936599016189575 0.29452058672904968 -0.72776603698730469
vn 0.043709035962820053 0.082318060100078583 -0.995647132396698
vn 0.05945105105638504 0.5360906720161438 -0.84206432104110718
vn 0.46817615628242493 0.060344703495502472 -0.88157224655151367
vn 0.81624084711074829 0.43293952941894531 -0.38251042366027832
vn -0.98447299003601074 0.14358188211917877 -0.10098118335008621
vn -0.64414185285568237 0.52336698770523071 -0.55782461166381836
vn -0.43701621890068054 0.052199073135852814 -0.89793765544891357
vn -0.0019759566057473421 -0.99999803304672241 0
vn -0.0019758036360144615 -0.99999803304672241 0
vn -0.001976782688871026 -0.99999803304672241 0
vn -0.99988681077957153 -0.0021355333738029003 -0.014894690364599228
vn -0.99998772144317627 -2.268253592774272E-05 -0.0049516335129737854
vn -0.99998563528060913 -0.0027156276628375053 -0.0046192174777388573
vn 0.12642747163772583 -0.023986371234059334 0.99168580770492554
vn -0.10251530259847641 -0.070172585546970367 0.99225318431854248
vn 0.056469995528459549 -0.12237879633903503 0.99087566137313843
vn 0.99986845254898071 -0.002887544222176075 -0.015961861237883568
vn 0.99996316432952881 -0.0039123371243476868 -0.007635961752384901
vn 0.99997907876968384 -0.0029667888302356005 -0.005746849812567234
vn 0.19542843103408813 -0.013055842369794846 0.98063105344772339
vn -0.14582286775112152 -0.013061054050922394 0.98922449350357056
vn -0.061613086611032486 0.037868160754442215 0.99738150835037231
vn 0.79133349657058716 0.051447544246912003 -0.60921627283096313
vn 0.66353535652160645 -0.0041326563805341721 -0.74813348054885864
vn -0.071188487112522125 0.018158042803406715 -0.99729758501052856
vn -0.53121614456176758 0.0081612169742584229 -0.84719699621200562
vn 0.89406627416610718 -0.001660509267821908 0.44793158769607544
vn 0.88738274574279785 -0.01394193060696125 0.46082258224487305
vn 0.8855438232421875 -0.0087585821747779846 0.46447324752807617
vn 0.20634151995182037 0.013380427844822407 -0.97838854789733887
vn -0.91975581645965576 0.0015182690694928169 0.39248818159103394
vn -0.9132501482963562 -0.0077123148366808891 0.40732619166374207
vn -0.92083513736724854 -0.0016421086620539427 0.38994860649108887
vn -0.017338534817099571 -0.99979835748672485 0.010129457339644432
vn -0.0029389502014964819 -0.99991083145141602 -0.013028448447585106
vn -0.0050518987700343132 -0.99987000226974487 -0.015313245356082916
vn -0.0018517426215112209 -0.99985641241073608 -0.016844447702169418
vn -0.00077054789289832115 -0.99987155199050903 -0.016010012477636337
vn 0.0017001511296257377 -0.99969369173049927 -0.024690654128789902
vn 0.054007172584533691 0.86577600240707397 -0.4975089430809021
vn -0.18422369658946991 0.9659162163734436 0.18184454739093781
vn 0 0 -1
vn 0 0 -1
vn 0 0 -1
vn -0.87780302762985229 -0.01502675749361515 -0.47878596186637878
vn -0.72842681407928467 0.058094192296266556 -0.68265616893768311
vn 0.99917459487915039 0.0005633256514556706 -0.040617186576128006
vn 0.92777228355407715 0.0023443475365638733 -0.37313950061798096
vn 0.97847932577133179 0.11454100906848907 -0.17163504660129547
vn 0.38958665728569031 -0.30767917633056641 -0.8680759072303772
vn 0.38958665728569031 -0.30767917633056641 -0.8680759072303772
vn 0.38958665728569031 -0.30767917633056641 -0.8680759072303772
vn 1 0.00017135622329078615 0.00014022226969245821
vn 1 9.1382253231131472E-06 1.8627064491738565E-05
vn 1 -5.6835498980944976E-05 -8.9774090156424791E-05
vn -0.41397503018379211 -0.66741073131561279 -0.61902147531509399
vn -0.41397503018379211 -0.66741073131561279 -0.61902147531509399
vn -0.41397503018379211 -0.66741073131561279 -0.61902147531509399
vn 0.0071982927620410919 -0.65907764434814453 -0.75204044580459595
vn -0.012964406050741673 -0.99546718597412109 -0.094217598438262939
vn 0.0048522185534238815 -0.37233030796051025 -0.92808759212493896
vn 0.65462476015090942 -0.73929613828659058 -0.15782159566879272
vn 0.63609158992767334 -0.77054435014724731 -0.040606386959552765
vn 0.76808476448059082 -0.63110548257827759 -0.10840520262718201
vn 0.20019564032554626 0.88219797611236572 0.42620229721069336
vn 0.58098846673965454 0.780628502368927 -0.23037262260913849
vn 0.79675930738449097 0.51218277215957642 0.3206920325756073
vn -0.95536988973617554 0.25450503826141357 0.14998523890972137
vn -0.57283627986907959 0.5915302038192749 0.56740689277648926
vn -0.013627227395772934 -0.99885594844818115 0.045837488025426865
vn 0.00090000586351379752 -0.99413299560546875 0.10816082358360291
vn -0.0028670600149780512 -0.90980827808380127 0.41501885652542114
vn 0.0013136098859831691 -0.99982756376266479 -0.018523165956139565
vn -0.00086822634330019355 -0.8420567512512207 0.53938823938369751
vn 0.0023443468380719423 -0.87398803234100342 0.48594182729721069
vn 0.99999994039535522 -0.00034176427288912237 -0.00018499155703466386
vn 0.99999994039535522 0.00017381255747750401 -0.00038243306335061789
vn 0.093660809099674225 0.12756332755088806 0.98739820718765259
vn -0.041479464620351791 -0.0080907978117465973 0.99910658597946167
vn 0.035054489970207214 -0.0044082431122660637 0.99937570095062256
vn 0.82870745658874512 -0.50444114208221436 -0.24245214462280273
vn 0.896534264087677 -0.42877915501594543 -0.11124161630868912
vn 0.90424346923828125 -0.42701709270477295 0.00032538099912926555
vn 0.87391984462738037 -0.47581854462623596 0.099301896989345551
vn 0.45692849159240723 0.84483468532562256 0.27833563089370728
vn -0.9999077320098877 0.0033281173091381788 -0.013171741738915443
vn -0.98559361696243286 0.10990183800458908 0.1285567581653595
vn -0.43728160858154297 -0.88675028085708618 -0.14986255764961243
vn -0.44848588109016418 -0.8868560791015625 0.11111558973789215
vn -0.43341454863548279 -0.83788776397705078 0.33180698752403259
vn 0.85617655515670776 -0.51608812808990479 -0.024794077500700951
vn 0.85797929763793945 -0.50469785928726196 0.095663696527481079
vn 0.85760194063186646 -0.50352770090103149 0.10477972775697708
vn 0.8627626895904541 -0.15840344130992889 0.48015511035919189
vn 0.8627626895904541 -0.15840344130992889 0.48015511035919189
vn 0.8627626895904541 -0.15840344130992889 0.48015511035919189
vn 0.74636745452880859 -0.6610373854637146 0.077234804630279541
vn 0.55302548408508301 -0.83267945051193237 0.028421023860573769
vn 0.67629683017730713 -0.55383557081222534 0.48568376898765564
vn 0.0074616596102714539 -0.87088918685913086 -0.49142280220985413
vn 0.079185508191585541 -0.90840089321136475 0.41053310036659241
vn -0.23092511296272278 0.63167554140090942 0.74004030227661133
vn -0.0042217466980218887 -0.91729813814163208 -0.39817866683006287
vn -0.73369359970092773 -0.65435248613357544 0.1830752044916153
vn -0.83322882652282715 -0.20549486577510834 0.5133240818977356
vn -0.68819719552993774 -0.67888069152832031 0.25594064593315125
vn -0.069738537073135376 0.77867913246154785 0.62353456020355225
vn -0.069738537073135376 0.77867913246154785 0.62353456020355225
vn -0.069738537073135376 0.77867913246154785 0.62353456020355225
vn 0.75165563821792603 0.22799228131771088 0.61889690160751343
vn 0.99575799703598022 0.053628548979759216 0.074766352772712708
vn 0.95565575361251831 0.23762857913970947 0.173939049243927
vn 0.044041495770215988 -0.30410715937614441 0.95161926746368408
vn 0.59498465061187744 0.094418033957481384 0.7981719970703125
vn 0.71784520149230957 0.28902533650398254 0.63337403535842896
vn -0.013871912844479084 0.19409675896167755 0.98088431358337402
vn -0.020426647737622261 -0.49314689636230469 0.86970621347427368
vn -0.0076942094601690769 -0.4466610848903656 0.89467012882232666
vn 0.00024461798602715135 -0.54034733772277832 0.8414420485496521
vn 0.266651451587677 -0.80485469102859497 0.53019422292709351
vn 0.03740239143371582 -0.75202155113220215 0.65807652473449707
vn -0.084817267954349518 -0.83277040719985962 0.54708266258239746
vn -0.064271360635757446 -0.59445464611053467 0.80155652761459351
vn -0.01674499548971653 -0.8260185718536377 0.56339412927627563
vn -0.15469929575920105 -0.56703215837478638 0.80903810262680054
vn -0.1312788724899292 -0.54050189256668091 0.83103764057159424
vn -0.027470609173178673 -0.58239835500717163 0.8124392032623291
vn 0.014801090583205223 1.2840700946981087E-05 0.99989044666290283
vn 0.014801090583205223 1.2840700946981087E-05 0.99989044666290283
vn 0.014801090583205223 1.2840700946981087E-05 0.99989044666290283
vn 0.15013478696346283 -0.1322559118270874 0.97977954149246216
vn -0.010515651665627956 0.0061595598235726357 0.99992573261260986
vn 0.14062464237213135 0.34381759166717529 0.9284471869468689
vn -0.077347613871097565 0.21348392963409424 0.97387987375259399
vn -0.33107802271842957 0.1597563773393631 0.9299812912940979
vn -0.047821458429098129 0.10739517956972122 0.99306565523147583
vn -0.9956316351890564 -0.093323387205600739 0.0028918841853737831
vn -0.98944389820098877 0.13796171545982361 -0.044354002922773361
vn -0.99095815420150757 -0.029273504391312599 -0.13093873858451843
vn 0.41920396685600281 0.14714236557483673 0.8958890438079834
vn -0.98411905765533447 -0.04828326404094696 0.1708168089389801
vn -0.99551105499267578 0.094141498208045959 0.0097550787031650543
vn -0.93504166603088379 -0.3544648289680481 -0.0071971332654356956
vn -0.90133440494537354 -0.40798309445381165 0.14541679620742798
vn -0.91093480587005615 -0.37143206596374512 -0.17954370379447937
vn -0.99718886613845825 0.058446764945983887 0.04688619077205658
vn -0.99924945831298828 0.038276836276054382 -0.0059525752440094948
vn -0.99878549575805664 0.027363119646906853 -0.040973145514726639
vn 0.011706335470080376 -0.99988394975662231 0.0097492020577192307
vn -0.024156723171472549 -0.52755492925643921 0.84917736053466797
vn 0.0089832060039043427 -0.53329265117645264 0.84588313102722168
vn 0.016800208017230034 -0.55491673946380615 0.83173620700836182
vn 0.0028570047579705715 -0.99998903274536133 -0.0037084741052240133
vn 0.00099145236890763044 -0.99999678134918213 -0.0023435160983353853
vn -0.0034458613954484463 -0.99999368190765381 0.0009031431982293725
vn -0.0072855683974921703 -0.9994005560874939 -0.033843908458948135
vn -0.00030387085280381143 -0.3848884105682373 -0.92296308279037476
vn -0.0010243664728477597 -0.38637903332710266 -0.92233949899673462
vn -0.00047951468150131404 -0.38588884472846985 -0.92254513502120972
vn 0.00023693520051892847 -0.88899707794189453 -0.45791283249855042
vn 0.99988746643066406 -0.0014805574901401997 -0.014928791671991348
vn 0.89209014177322388 0.0033017795067280531 0.45184534788131714
vn 0 0 -1
vn 1 9.612088615540415E-05 0.00021377413941081613
usemtl vc_191919__Default
f 1//1 2//2 3//3
f 4//4 2//2 5//5
f 6//6 7//7 8//8
f 9//9 10//10 11//11
f 12//12 13//13 14//14
f 15//15 16//16 17//17
f 18//18 19//19 20//20
f 21//21 22//22 15//15
f 16//16 22//22 23//23
f 24//24 25//25 4//4
f 2//2 26//26 8//8
f 26//26 27//27 8//8
f 28//28 29//29 30//30
f 2//2 31//31 26//26
f 25//25 31//31 4//4
f 32//32 33//33 34//34
f 35//35 36//36 37//37
f 38//38 39//39 36//36
f 40//40 39//39 38//38
f 41//41 7//7 42//42
f 45//45 164//164 43//43 44//44
f 46//46 6//6 47//47
f 48//48 49//49 50//50
f 51//51 52//52 53//53
f 54//54 55//55 56//56
f 57//57 58//58 59//59
f 60//60 61//61 62//62
f 63//63 64//64 65//65
f 42//42 66//66 67//67
f 5//5 67//67 68//68
f 69//69 70//70 7//7
f 71//71 72//72 73//73
f 74//74 75//75 76//76
f 71//71 74//74 76//76
f 77//77 78//78 54//54
f 79//79 80//80 81//81
f 82//82 83//83 84//84
f 84//84 83//83 85//85
f 68//68 67//67 86//86
f 87//87 88//88 6//6
f 89//89 90//90 91//91
f 92//92 93//93 94//94
f 95//95 96//96 97//97
f 98//98 99//99 100//100
f 101//101 102//102 61//61
f 103//103 66//66 42//42
f 88//88 69//69 6//6
f 74//74 71//71 104//104
f 105//105 106//106 107//107
f 108//108 109//109 110//110
f 111//111 112//112 113//113
f 102//102 114//114 61//61
f 115//115 113//113 116//116
f 88//88 117//117 69//69
f 79//79 118//118 119//119
f 120//120 121//121 122//122
f 123//123 124//124 125//125
f 126//126 127//127 128//128
f 129//129 130//130 131//131
f 132//132 133//133 114//114
f 134//134 103//103 135//135
f 136//136 135//135 117//117
f 137//137 135//135 136//136
f 136//136 117//117 88//88
f 5//5 50//50 4//4
f 31//31 2//2 4//4
f 138//138 139//139 140//140
f 137//137 141//141 134//134
f 2//2 7//7 3//3
f 7//7 2//2 8//8
f 42//42 7//7 70//70
f 66//66 103//103 134//134
f 138//138 142//142 143//143
f 113//113 50//50 5//5
f 144//144 145//145 146//146
f 139//139 138//138 143//143
f 67//67 41//41 42//42
f 46//46 87//87 6//6
f 50//50 112//112 48//48
f 69//69 7//7 6//6
f 5//5 68//68 113//113
f 147//147 148//148 149//149
f 116//116 134//134 141//141
f 40//40 38//38 150//150
f 151//151 152//152 153//153
f 135//135 137//137 134//134
f 3//3 67//67 5//5
f 154//154 155//155 156//156
f 157//157 35//35 37//37
f 39//39 37//37 36//36
f 158//158 159//159 160//160
f 112//112 50//50 113//113
f 22//22 16//16 15//15
f 74//74 104//104 161//161
f 18//18 20//20 162//162
f 28//28 30//30 163//163
f 77//77 54//54 165//165
