# Dual color encoding: per-vertex RGB for Rerun, face MTL colors for legacy RViz.
mtllib sim_gene01_r_hand_little_3.mtl
# Rhino

g sim_gene01_r_hand_little_3
v 1.1683105290926288 32.053026242838207 -5.3950249376310522 0.0980392157 0.0980392157 0.0980392157
v 5.0205788905344244 35.229618559059077 -5.2302987868936777 0.0980392157 0.0980392157 0.0980392157
v 5.8768467465121361 32.327003523329168 -10.903470766520853 0.0980392157 0.0980392157 0.0980392157
v 1.1683105290926288 32.053026242838207 -5.3950249376310522 0.0980392157 0.0980392157 0.0980392157
v 5.8768467465121361 32.327003523329168 -10.903470766520853 0.0980392157 0.0980392157 0.0980392157
v 1.667060304862003 31.825330597443145 -11.671860099839186 0.0980392157 0.0980392157 0.0980392157
v -13.326787495617463 31.5274812586647 -8.2206975866440359 0.0980392157 0.0980392157 0.0980392157
v -8.1358579730434304 35.887568687923746 -5.2187126029016744 0.0980392157 0.0980392157 0.0980392157
v -7.6323251181302822 32.038945516910012 -11.029233659150712 0.0980392157 0.0980392157 0.0980392157
v -2.8556080211485084 32.086730409543421 -10.148266117770444 0.0980392157 0.0980392157 0.0980392157
v -7.6323251181302822 32.038945516910012 -11.029233659150712 0.0980392157 0.0980392157 0.0980392157
v -2.8556080211485084 32.086730409543421 -10.148266117770444 0.0980392157 0.0980392157 0.0980392157
v -7.6323251181302822 32.038945516910012 -11.029233659150712 0.0980392157 0.0980392157 0.0980392157
v -8.1358579730434304 35.887568687923746 -5.2187126029016744 0.0980392157 0.0980392157 0.0980392157
v -2.8556080211485084 32.086730409543421 -10.148266117770444 0.0980392157 0.0980392157 0.0980392157
v -4.2827052909019674 21.889072398550685 -10.098315526083496 0.0980392157 0.0980392157 0.0980392157
v 1.667060304862003 31.825330597443145 -11.671860099839186 0.0980392157 0.0980392157 0.0980392157
v -4.2827052909019674 21.889072398550685 -10.098315526083496 0.0980392157 0.0980392157 0.0980392157
v -2.8556080211485084 32.086730409543421 -10.148266117770444 0.0980392157 0.0980392157 0.0980392157
v -3.9643327713125682 27.685978405873527 -4.7355130786782116 0.0980392157 0.0980392157 0.0980392157
v 1.667060304862003 31.825330597443145 -11.671860099839186 0.0980392157 0.0980392157 0.0980392157
v 3.5114178651437991 21.488492191270822 -10.333584789581231 0.0980392157 0.0980392157 0.0980392157
v 1.9301168820373416 22.4504740112821 -5.6660854046680607 0.0980392157 0.0980392157 0.0980392157
v 13.146365701681503 16.12424275907658 -7.8052810025760015 0.0980392157 0.0980392157 0.0980392157
v 12.074439063510562 12.078636393922238 -10.242607203170076 0.0980392157 0.0980392157 0.0980392157
v 12.609895895561177 32.279046195577259 -8.2903320197981234 0.0980392157 0.0980392157 0.0980392157
v 1.9301168820373416 22.4504740112821 -5.6660854046680607 0.0980392157 0.0980392157 0.0980392157
v 3.5114178651437991 21.488492191270822 -10.333584789581231 0.0980392157 0.0980392157 0.0980392157
v -4.2827052909019674 21.889072398550685 -10.098315526083496 0.0980392157 0.0980392157 0.0980392157
v -13.286061195560961 13.387663829015244 -9.2068180418622667 0.0980392157 0.0980392157 0.0980392157
v -13.326787495617463 31.5274812586647 -8.2206975866440359 0.0980392157 0.0980392157 0.0980392157
v -7.6323251181302822 32.038945516910012 -11.029233659150712 0.0980392157 0.0980392157 0.0980392157
v -12.865669593916195 -3.841933822052038 -10.598869249217497 0.0980392157 0.0980392157 0.0980392157
v 4.5920652124207715 4.2761487724620437 -10.494118569469611 0.0980392157 0.0980392157 0.0980392157
v 5.4218566209899555 15.138581889005795 -10.185877847471934 0.0980392157 0.0980392157 0.0980392157
v -3.7863563216891878 13.789072290315307 -10.79989454874749 0.0980392157 0.0980392157 0.0980392157
v 4.813739736400608 15.253056550157392 -5.3445841410074921 0.0980392157 0.0980392157 0.0980392157
v -3.7863563216891878 13.789072290315307 -10.79989454874749 0.0980392157 0.0980392157 0.0980392157
v 5.4218566209899555 15.138581889005795 -10.185877847471934 0.0980392157 0.0980392157 0.0980392157
v 5.4218566209899555 15.138581889005795 -10.185877847471934 0.0980392157 0.0980392157 0.0980392157
v 4.5920652124207715 4.2761487724620437 -10.494118569469611 0.0980392157 0.0980392157 0.0980392157
v 4.6769430101005183 8.6789943621381909 -5.0019496159013981 0.0980392157 0.0980392157 0.0980392157
v -5.8123603221715694 13.411206473547972 -5.249240048945234 0.0980392157 0.0980392157 0.0980392157
v -4.0671766325677288 8.4986346180744015 -5.2222301354096547 0.0980392157 0.0980392157 0.0980392157
v -3.7863563216891878 13.789072290315307 -10.79989454874749 0.0980392157 0.0980392157 0.0980392157
v -5.1280984043673197 5.6606278598201376 -10.442478388841428 0.0980392157 0.0980392157 0.0980392157
v -9.1021357058061092 -5.2294716522262963 -10.096088564896231 0.0980392157 0.0980392157 0.0980392157
v 6.5583148867304146 -4.7793633585126667 -11.029730726137208 0.0980392157 0.0980392157 0.0980392157
v -5.1280984043673197 5.6606278598201376 -10.442478388841428 0.0980392157 0.0980392157 0.0980392157
v 6.5583148867304146 -4.7793633585126667 -11.029730726137208 0.0980392157 0.0980392157 0.0980392157
v 7.6670067159451039 3.8079783545258339 -4.6488220778114746 0.0980392157 0.0980392157 0.0980392157
v 4.5920652124207715 4.2761487724620437 -10.494118569469611 0.0980392157 0.0980392157 0.0980392157
v -1.3696679228354469 -5.5239230251519231 -12.634744991866658 0.0980392157 0.0980392157 0.0980392157
v 1.667060304862003 31.825330597443145 -11.671860099839186 0.0980392157 0.0980392157 0.0980392157
v 6.5583148867304146 -4.7793633585126667 -11.029730726137208 0.0980392157 0.0980392157 0.0980392157
v -9.1021357058061092 -5.2294716522262963 -10.096088564896231 0.0980392157 0.0980392157 0.0980392157
v -1.3696679228354469 -5.5239230251519231 -12.634744991866658 0.0980392157 0.0980392157 0.0980392157
v 11.463157061673588 -4.7713451293755176 -11.017580755685385 0.0980392157 0.0980392157 0.0980392157
v -12.865669593916195 -3.841933822052038 -10.598869249217497 0.0980392157 0.0980392157 0.0980392157
v 8.9296430477336202 33.833067908474248 -0.23965048374483719 0.0980392157 0.0980392157 0.0980392157
v 13.401417787975078 31.230007959583546 -2.8189600699251147 0.0980392157 0.0980392157 0.0980392157
v 5.0205788905344244 35.229618559059077 -5.2302987868936777 0.0980392157 0.0980392157 0.0980392157
v 1.1683105290926288 32.053026242838207 -5.3950249376310522 0.0980392157 0.0980392157 0.0980392157
v -8.1358579730434304 35.887568687923746 -5.2187126029016744 0.0980392157 0.0980392157 0.0980392157
v 5.0205788905344244 35.229618559059077 -5.2302987868936777 0.0980392157 0.0980392157 0.0980392157
v 13.401417787975078 31.230007959583546 -2.8189600699251147 0.0980392157 0.0980392157 0.0980392157
v 12.609895895561177 32.279046195577259 -8.2903320197981234 0.0980392157 0.0980392157 0.0980392157
v -12.865177310708161 32.633094028484599 -0.38032665355468104 0.0980392157 0.0980392157 0.0980392157
v -8.1358579730434304 35.887568687923746 -5.2187126029016744 0.0980392157 0.0980392157 0.0980392157
v -13.326787495617463 31.5274812586647 -8.2206975866440359 0.0980392157 0.0980392157 0.0980392157
v 1.1683105290926288 32.053026242838207 -5.3950249376310522 0.0980392157 0.0980392157 0.0980392157
v -3.9643327713125682 27.685978405873527 -4.7355130786782116 0.0980392157 0.0980392157 0.0980392157
v -2.8556080211485084 32.086730409543421 -10.148266117770444 0.0980392157 0.0980392157 0.0980392157
v -8.1358579730434304 35.887568687923746 -5.2187126029016744 0.0980392157 0.0980392157 0.0980392157
v 1.1683105290926288 32.053026242838207 -5.3950249376310522 0.0980392157 0.0980392157 0.0980392157
v -2.8556080211485084 32.086730409543421 -10.148266117770444 0.0980392157 0.0980392157 0.0980392157
v 11.759667087615322 11.453832378253249 4.665331180474297 0.0980392157 0.0980392157 0.0980392157
v 12.074439063510562 12.078636393922238 -10.242607203170076 0.0980392157 0.0980392157 0.0980392157
v 4.813739736400608 15.253056550157392 -5.3445841410074921 0.0980392157 0.0980392157 0.0980392157
v 4.6769430101005183 8.6789943621381909 -5.0019496159013981 0.0980392157 0.0980392157 0.0980392157
v -4.0671766325677288 8.4986346180744015 -5.2222301354096547 0.0980392157 0.0980392157 0.0980392157
v 11.600520708889034 5.6382970741501923 -4.1955995450712447 0.0980392157 0.0980392157 0.0980392157
v 11.463157061673588 -4.7713451293755176 -11.017580755685385 0.0980392157 0.0980392157 0.0980392157
v -12.865669593916195 -3.841933822052038 -10.598869249217497 0.0980392157 0.0980392157 0.0980392157
v -14.196948947841998 -3.2079593448334904 4.8907505141738037 0.0980392157 0.0980392157 0.0980392157
v -14.514625058779789 6.8876447203702158 3.1834955444268536 0.0980392157 0.0980392157 0.0980392157
v -10.817032863092805 6.4015802022456789 -9.4681698564583456 0.0980392157 0.0980392157 0.0980392157
v -5.1280984043673197 5.6606278598201376 -10.442478388841428 0.0980392157 0.0980392157 0.0980392157
v -4.0671766325677288 8.4986346180744015 -5.2222301354096547 0.0980392157 0.0980392157 0.0980392157
v -6.2177052523691501 10.517578106760546 -0.316793210530529 0.0980392157 0.0980392157 0.0980392157
v 4.6769430101005183 8.6789943621381909 -5.0019496159013981 0.0980392157 0.0980392157 0.0980392157
v 4.5920652124207715 4.2761487724620437 -10.494118569469611 0.0980392157 0.0980392157 0.0980392157
v 7.6670067159451039 3.8079783545258339 -4.6488220778114746 0.0980392157 0.0980392157 0.0980392157
v -11.65412683881109 7.586018862477804 5.2022227191191686 0.0980392157 0.0980392157 0.0980392157
v -10.817032863092805 6.4015802022456789 -9.4681698564583456 0.0980392157 0.0980392157 0.0980392157
v -12.019408673723785 -5.7027865058832585 -1.9449318844827614 0.0980392157 0.0980392157 0.0980392157
v -9.1021357058061092 -5.2294716522262963 -10.096088564896231 0.0980392157 0.0980392157 0.0980392157
v -10.817032863092805 6.4015802022456789 -9.4681698564583456 0.0980392157 0.0980392157 0.0980392157
v 8.4254554388278109 -5.6651195313905669 -2.390391662392092 0.0980392157 0.0980392157 0.0980392157
v 7.6670067159451039 3.8079783545258339 -4.6488220778114746 0.0980392157 0.0980392157 0.0980392157
v 6.5583148867304146 -4.7793633585126667 -11.029730726137208 0.0980392157 0.0980392157 0.0980392157
v 11.764919447335831 -3.8286498381161826 -3.8571489166908095 0.0980392157 0.0980392157 0.0980392157
v 8.4254554388278109 -5.6651195313905669 -2.390391662392092 0.0980392157 0.0980392157 0.0980392157
v 11.463157061673588 -4.7713451293755176 -11.017580755685385 0.0980392157 0.0980392157 0.0980392157
v -12.019408673723785 -5.7027865058832585 -1.9449318844827614 0.0980392157 0.0980392157 0.0980392157
v -12.865669593916195 -3.841933822052038 -10.598869249217497 0.0980392157 0.0980392157 0.0980392157
v -9.1021357058061092 -5.2294716522262963 -10.096088564896231 0.0980392157 0.0980392157 0.0980392157
v -7.9415048590726718 41.529304718369723 -3.9325890150170864 0.0980392157 0.0980392157 0.0980392157
v 4.5391891904474218 41.684257267661245 -5.283413991816114 0.0980392157 0.0980392157 0.0980392157
v 5.7607365104284769 37.539114789708059 0.33797966316510197 0.0980392157 0.0980392157 0.0980392157
v 5.0205788905344244 35.229618559059077 -5.2302987868936777 0.0980392157 0.0980392157 0.0980392157
v 4.5391891904474218 41.684257267661245 -5.283413991816114 0.0980392157 0.0980392157 0.0980392157
v 8.9296430477336202 33.833067908474248 -0.23965048374483719 0.0980392157 0.0980392157 0.0980392157
v 5.0205788905344244 35.229618559059077 -5.2302987868936777 0.0980392157 0.0980392157 0.0980392157
v 5.7607365104284769 37.539114789708059 0.33797966316510197 0.0980392157 0.0980392157 0.0980392157
v 9.0781814982197435 29.935859399214685 -5.2792175625831472 0.0980392157 0.0980392157 0.0980392157
v 13.401417787975078 31.230007959583546 -2.8189600699251147 0.0980392157 0.0980392157 0.0980392157
v 8.9296430477336202 33.833067908474248 -0.23965048374483719 0.0980392157 0.0980392157 0.0980392157
v 11.759667087615322 11.453832378253249 4.665331180474297 0.0980392157 0.0980392157 0.0980392157
v 13.227601758834535 15.716537626362737 5.3705411779695229 0.0980392157 0.0980392157 0.0980392157
v 12.231974267269406 3.0205327130671069 4.6252110022307225 0.0980392157 0.0980392157 0.0980392157
v 14.498548987062419 -0.53845006754505276 0.12068627990847486 0.0980392157 0.0980392157 0.0980392157
v 11.764919447335831 -3.8286498381161826 -3.8571489166908095 0.0980392157 0.0980392157 0.0980392157
v 11.600520708889034 5.6382970741501923 -4.1955995450712447 0.0980392157 0.0980392157 0.0980392157
v 11.575739818550447 -5.1372313652782085 2.7267361093723075 0.0980392157 0.0980392157 0.0980392157
v 11.764919447335831 -3.8286498381161826 -3.8571489166908095 0.0980392157 0.0980392157 0.0980392157
v 14.498548987062419 -0.53845006754505276 0.12068627990847486 0.0980392157 0.0980392157 0.0980392157
v 11.764919447335831 -3.8286498381161826 -3.8571489166908095 0.0980392157 0.0980392157 0.0980392157
v 11.575739818550447 -5.1372313652782085 2.7267361093723075 0.0980392157 0.0980392157 0.0980392157
v 8.4254554388278109 -5.6651195313905669 -2.390391662392092 0.0980392157 0.0980392157 0.0980392157
v -0.70107013404148955 42.025444191515135 1.952467291859266 0.0980392157 0.0980392157 0.0980392157
v 4.5391891904474218 41.684257267661245 -5.283413991816114 0.0980392157 0.0980392157 0.0980392157
v -7.9415048590726718 41.529304718369723 -3.9325890150170864 0.0980392157 0.0980392157 0.0980392157
v 5.7607365104284769 37.539114789708059 0.33797966316510197 0.0980392157 0.0980392157 0.0980392157
v 4.5391891904474218 41.684257267661245 -5.283413991816114 0.0980392157 0.0980392157 0.0980392157
v -0.70107013404148955 42.025444191515135 1.952467291859266 0.0980392157 0.0980392157 0.0980392157
v 8.9296430477336202 33.833067908474248 -0.23965048374483719 0.0980392157 0.0980392157 0.0980392157
v 13.401417787975078 31.230007959583546 -2.8189600699251147 0.0980392157 0.0980392157 0.0980392157
v 12.699801951991487 27.097575139649944 4.441446569119905 0.0980392157 0.0980392157 0.0980392157
v 4.6727808018189148 24.012053939649761 -0.80874127458958556 0.0980392157 0.0980392157 0.0980392157
v 9.0781814982197435 29.935859399214685 -5.2792175625831472 0.0980392157 0.0980392157 0.0980392157
v 8.9296430477336202 33.833067908474248 -0.23965048374483719 0.0980392157 0.0980392157 0.0980392157
v 4.6727808018189148 24.012053939649761 -0.80874127458958556 0.0980392157 0.0980392157 0.0980392157
v 13.401417787975078 31.230007959583546 -2.8189600699251147 0.0980392157 0.0980392157 0.0980392157
v 9.0781814982197435 29.935859399214685 -5.2792175625831472 0.0980392157 0.0980392157 0.0980392157
v -13.242660689765376 12.584584883173598 5.5671274248175528 0.0980392157 0.0980392157 0.0980392157
v -14.066766787515524 27.74420712050615 3.3560789895120893 0.0980392157 0.0980392157 0.0980392157
v -13.286061195560961 13.387663829015244 -9.2068180418622667 0.0980392157 0.0980392157 0.0980392157
v 14.498548987062419 -0.53845006754505276 0.12068627990847486 0.0980392157 0.0980392157 0.0980392157
v 11.600520708889034 5.6382970741501923 -4.1955995450712447 0.0980392157 0.0980392157 0.0980392157
v 12.231974267269406 3.0205327130671069 4.6252110022307225 0.0980392157 0.0980392157 0.0980392157
v 11.575739818550447 -5.1372313652782085 2.7267361093723075 0.0980392157 0.0980392157 0.0980392157
v 8.1961629456172513 -3.6672139454042711 5.591529621406111 0.0980392157 0.0980392157 0.0980392157
v 8.4254554388278109 -5.6651195313905669 -2.390391662392092 0.0980392157 0.0980392157 0.0980392157
v -7.5208217950413649 40.031224459070216 5.1947313373721276 0.0980392157 0.0980392157 0.0980392157
v 4.7887866126807399 40.211821395446826 5.0925243714614661 0.0980392157 0.0980392157 0.0980392157
v 5.7607365104284769 37.539114789708059 0.33797966316510197 0.0980392157 0.0980392157 0.0980392157
v -0.70107013404148955 42.025444191515135 1.952467291859266 0.0980392157 0.0980392157 0.0980392157
v 8.9296430477336202 33.833067908474248 -0.23965048374483719 0.0980392157 0.0980392157 0.0980392157
v 5.7607365104284769 37.539114789708059 0.33797966316510197 0.0980392157 0.0980392157 0.0980392157
v 4.7887866126807399 40.211821395446826 5.0925243714614661 0.0980392157 0.0980392157 0.0980392157
v 13.401417787975078 31.230007959583546 -2.8189600699251147 0.0980392157 0.0980392157 0.0980392157
v 8.9296430477336202 33.833067908474248 -0.23965048374483719 0.0980392157 0.0980392157 0.0980392157
v 12.699801951991487 27.097575139649944 4.441446569119905 0.0980392157 0.0980392157 0.0980392157
v 8.0934612309335368 27.771798706330962 4.3157269193533656 0.0980392157 0.0980392157 0.0980392157
v 4.6727808018189148 24.012053939649761 -0.80874127458958556 0.0980392157 0.0980392157 0.0980392157
v 8.9296430477336202 33.833067908474248 -0.23965048374483719 0.0980392157 0.0980392157 0.0980392157
v -7.7827851939843331 26.236225911268903 5.1160141079033776 0.0980392157 0.0980392157 0.0980392157
v -12.865177310708161 32.633094028484599 -0.38032665355468104 0.0980392157 0.0980392157 0.0980392157
v -14.066766787515524 27.74420712050615 3.3560789895120893 0.0980392157 0.0980392157 0.0980392157
v 9.8444919586181641 21.346076965332031 3.4780416488647461 0.0980392157 0.0980392157 0.0980392157
v 13.401417787975078 31.230007959583546 -2.8189600699251147 0.0980392157 0.0980392157 0.0980392157
v 11.019351215804555 21.381042091062788 -1.8338749809939898 0.0980392157 0.0980392157 0.0980392157
v 12.699801951991487 27.097575139649944 4.441446569119905 0.0980392157 0.0980392157 0.0980392157
v 12.699801951991487 27.097575139649944 4.441446569119905 0.0980392157 0.0980392157 0.0980392157
v 13.401417787975078 31.230007959583546 -2.8189600699251147 0.0980392157 0.0980392157 0.0980392157
v 9.8444919586181641 21.346076965332031 3.4780416488647461 0.0980392157 0.0980392157 0.0980392157
v 11.019351215804555 21.381042091062788 -1.8338749809939898 0.0980392157 0.0980392157 0.0980392157
v 4.6727808018189148 24.012053939649761 -0.80874127458958556 0.0980392157 0.0980392157 0.0980392157
v -13.242660689765376 12.584584883173598 5.5671274248175528 0.0980392157 0.0980392157 0.0980392157
v -13.286061195560961 13.387663829015244 -9.2068180418622667 0.0980392157 0.0980392157 0.0980392157
v 7.1005282110559609 7.7970040876759734 5.3512392631637287 0.0980392157 0.0980392157 0.0980392157
v -11.65412683881109 7.586018862477804 5.2022227191191686 0.0980392157 0.0980392157 0.0980392157
v 7.1005282110559609 7.7970040876759734 5.3512392631637287 0.0980392157 0.0980392157 0.0980392157
v 4.6769430101005183 8.6789943621381909 -5.0019496159013981 0.0980392157 0.0980392157 0.0980392157
v 7.6670067159451039 3.8079783545258339 -4.6488220778114746 0.0980392157 0.0980392157 0.0980392157
v 8.1961629456172513 -3.6672139454042711 5.591529621406111 0.0980392157 0.0980392157 0.0980392157
v 7.6670067159451039 3.8079783545258339 -4.6488220778114746 0.0980392157 0.0980392157 0.0980392157
v 8.4254554388278109 -5.6651195313905669 -2.390391662392092 0.0980392157 0.0980392157 0.0980392157
v 8.0934612309335368 27.771798706330962 4.3157269193533656 0.0980392157 0.0980392157 0.0980392157
v 8.9296430477336202 33.833067908474248 -0.23965048374483719 0.0980392157 0.0980392157 0.0980392157
v 4.7887866126807399 40.211821395446826 5.0925243714614661 0.0980392157 0.0980392157 0.0980392157
v -10.630098969074524 23.179800581510197 7.939523136458738 0.0980392157 0.0980392157 0.0980392157
v -7.7827851939843331 26.236225911268903 5.1160141079033776 0.0980392157 0.0980392157 0.0980392157
v -14.066766787515524 27.74420712050615 3.3560789895120893 0.0980392157 0.0980392157 0.0980392157
v 8.0934612309335368 27.771798706330962 4.3157269193533656 0.0980392157 0.0980392157 0.0980392157
v 12.699801951991487 27.097575139649944 4.441446569119905 0.0980392157 0.0980392157 0.0980392157
v 9.8444919586181641 21.346076965332031 3.4780416488647461 0.0980392157 0.0980392157 0.0980392157
v 11.575739818550447 -5.1372313652782085 2.7267361093723075 0.0980392157 0.0980392157 0.0980392157
v 14.498548987062419 -0.53845006754505276 0.12068627990847486 0.0980392157 0.0980392157 0.0980392157
v 12.231974267269406 3.0205327130671069 4.6252110022307225 0.0980392157 0.0980392157 0.0980392157
v -7.5208217950413649 40.031224459070216 5.1947313373721276 0.0980392157 0.0980392157 0.0980392157
v 4.7887866126807399 40.211821395446826 5.0925243714614661 0.0980392157 0.0980392157 0.0980392157
v 8.0934612309335368 27.771798706330962 4.3157269193533656 0.0980392157 0.0980392157 0.0980392157
v 4.7887866126807399 40.211821395446826 5.0925243714614661 0.0980392157 0.0980392157 0.0980392157
v 4.1662162745859046 24.001569906159752 5.3022642399959032 0.0980392157 0.0980392157 0.0980392157
v 8.3959311266765866 22.593489164668249 8.2185947545170315 0.0980392157 0.0980392157 0.0980392157
v 8.0934612309335368 27.771798706330962 4.3157269193533656 0.0980392157 0.0980392157 0.0980392157
v 4.1662162745859046 24.001569906159752 5.3022642399959032 0.0980392157 0.0980392157 0.0980392157
v 8.3959311266765866 22.593489164668249 8.2185947545170315 0.0980392157 0.0980392157 0.0980392157
v 4.1662162745859046 24.001569906159752 5.3022642399959032 0.0980392157 0.0980392157 0.0980392157
v -10.630098969074524 23.179800581510197 7.939523136458738 0.0980392157 0.0980392157 0.0980392157
v 8.3959311266765866 22.593489164668249 8.2185947545170315 0.0980392157 0.0980392157 0.0980392157
v 12.699801951991487 27.097575139649944 4.441446569119905 0.0980392157 0.0980392157 0.0980392157
v 8.0934612309335368 27.771798706330962 4.3157269193533656 0.0980392157 0.0980392157 0.0980392157
v -10.630098969074524 23.179800581510197 7.939523136458738 0.0980392157 0.0980392157 0.0980392157
v 8.9899290311602371 13.741999390839515 7.9995823755591706 0.0980392157 0.0980392157 0.0980392157
v 11.759667087615322 11.453832378253249 4.665331180474297 0.0980392157 0.0980392157 0.0980392157
v 13.227601758834535 15.716537626362737 5.3705411779695229 0.0980392157 0.0980392157 0.0980392157
v 7.1005282110559609 7.7970040876759734 5.3512392631637287 0.0980392157 0.0980392157 0.0980392157
v 11.759667087615322 11.453832378253249 4.665331180474297 0.0980392157 0.0980392157 0.0980392157
v -13.242660689765376 12.584584883173598 5.5671274248175528 0.0980392157 0.0980392157 0.0980392157
v 8.9899290311602371 13.741999390839515 7.9995823755591706 0.0980392157 0.0980392157 0.0980392157
v -13.242660689765376 12.584584883173598 5.5671274248175528 0.0980392157 0.0980392157 0.0980392157
v 11.759667087615322 11.453832378253249 4.665331180474297 0.0980392157 0.0980392157 0.0980392157
v -6.4419715371214465 13.785469821627553 8.7218038985692097 0.0980392157 0.0980392157 0.0980392157
v -11.65412683881109 7.586018862477804 5.2022227191191686 0.0980392157 0.0980392157 0.0980392157
v -11.742303136400748 -2.9033387902881129 6.1720005531269635 0.0980392157 0.0980392157 0.0980392157
v -14.196948947841998 -3.2079593448334904 4.8907505141738037 0.0980392157 0.0980392157 0.0980392157
v 8.3959311266765866 22.593489164668249 8.2185947545170315 0.0980392157 0.0980392157 0.0980392157
v 8.9899290311602371 13.741999390839515 7.9995823755591706 0.0980392157 0.0980392157 0.0980392157
v 8.3959311266765866 22.593489164668249 8.2185947545170315 0.0980392157 0.0980392157 0.0980392157
v -6.4419715371214465 13.785469821627553 8.7218038985692097 0.0980392157 0.0980392157 0.0980392157
v 12.231974267269406 3.0205327130671069 4.6252110022307225 0.0980392157 0.0980392157 0.0980392157
v 7.1005282110559609 7.7970040876759734 5.3512392631637287 0.0980392157 0.0980392157 0.0980392157
v 5.8768467465121361 32.327003523329168 -10.903470766520853 0.0980392157 0.0980392157 0.0980392157
v -6.2177052523691501 10.517578106760546 -0.316793210530529 0.0980392157 0.0980392157 0.0980392157
v -4.0671766325677288 8.4986346180744015 -5.2222301354096547 0.0980392157 0.0980392157 0.0980392157
v -14.514625058779789 6.8876447203702158 3.1834955444268536 0.0980392157 0.0980392157 0.0980392157
v 11.575739818550447 -5.1372313652782085 2.7267361093723075 0.0980392157 0.0980392157 0.0980392157
v 3.5114178651437991 21.488492191270822 -10.333584789581231 0.0980392157 0.0980392157 0.0980392157
v 12.609895895561177 32.279046195577259 -8.2903320197981234 0.0980392157 0.0980392157 0.0980392157
v 11.764919447335831 -3.8286498381161826 -3.8571489166908095 0.0980392157 0.0980392157 0.0980392157
v 11.600520708889034 5.6382970741501923 -4.1955995450712447 0.0980392157 0.0980392157 0.0980392157
v -7.9415048590726718 41.529304718369723 -3.9325890150170864 0.0980392157 0.0980392157 0.0980392157
v -8.1358579730434304 35.887568687923746 -5.2187126029016744 0.0980392157 0.0980392157 0.0980392157
v -7.5208217950413649 40.031224459070216 5.1947313373721276 0.0980392157 0.0980392157 0.0980392157
v -13.242660689765376 12.584584883173598 5.5671274248175528 0.0980392157 0.0980392157 0.0980392157
v -12.865669593916195 -3.841933822052038 -10.598869249217497 0.0980392157 0.0980392157 0.0980392157
v -12.019408673723785 -5.7027865058832585 -1.9449318844827614 0.0980392157 0.0980392157 0.0980392157
v -14.196948947841998 -3.2079593448334904 4.8907505141738037 0.0980392157 0.0980392157 0.0980392157
v 7.1005282110559609 7.7970040876759734 5.3512392631637287 0.0980392157 0.0980392157 0.0980392157
v 8.1961629456172513 -3.6672139454042711 5.591529621406111 0.0980392157 0.0980392157 0.0980392157
v -11.742303136400748 -2.9033387902881129 6.1720005531269635 0.0980392157 0.0980392157 0.0980392157
v -12.019408673723785 -5.7027865058832585 -1.9449318844827614 0.0980392157 0.0980392157 0.0980392157
v -10.817032863092805 6.4015802022456789 -9.4681698564583456 0.0980392157 0.0980392157 0.0980392157
v -11.65412683881109 7.586018862477804 5.2022227191191686 0.0980392157 0.0980392157 0.0980392157
v -12.865177310708161 32.633094028484599 -0.38032665355468104 0.0980392157 0.0980392157 0.0980392157
v -7.5208217950413649 40.031224459070216 5.1947313373721276 0.0980392157 0.0980392157 0.0980392157
v -8.1358579730434304 35.887568687923746 -5.2187126029016744 0.0980392157 0.0980392157 0.0980392157
v -7.5208217950413649 40.031224459070216 5.1947313373721276 0.0980392157 0.0980392157 0.0980392157
v -7.7827851939843331 26.236225911268903 5.1160141079033776 0.0980392157 0.0980392157 0.0980392157
v 4.813739736400608 15.253056550157392 -5.3445841410074921 0.0980392157 0.0980392157 0.0980392157
v -10.817032863092805 6.4015802022456789 -9.4681698564583456 0.0980392157 0.0980392157 0.0980392157
v 6.5583148867304146 -4.7793633585126667 -11.029730726137208 0.0980392157 0.0980392157 0.0980392157
v -4.2827052909019674 21.889072398550685 -10.098315526083496 0.0980392157 0.0980392157 0.0980392157
v -3.9643327713125682 27.685978405873527 -4.7355130786782116 0.0980392157 0.0980392157 0.0980392157
v 1.9301168820373416 22.4504740112821 -5.6660854046680607 0.0980392157 0.0980392157 0.0980392157
v -11.742303136400748 -2.9033387902881129 6.1720005531269635 0.0980392157 0.0980392157 0.0980392157
v 13.401417787975078 31.230007959583546 -2.8189600699251147 0.0980392157 0.0980392157 0.0980392157
v 4.6727808018189148 24.012053939649761 -0.80874127458958556 0.0980392157 0.0980392157 0.0980392157
v 11.019351215804555 21.381042091062788 -1.8338749809939898 0.0980392157 0.0980392157 0.0980392157
v 5.8768467465121361 32.327003523329168 -10.903470766520853 0.0980392157 0.0980392157 0.0980392157
v 1.1683105290926288 32.053026242838207 -5.3950249376310522 0.0980392157 0.0980392157 0.0980392157
v 11.759667087615322 11.453832378253249 4.665331180474297 0.0980392157 0.0980392157 0.0980392157
v -12.865177310708161 32.633094028484599 -0.38032665355468104 0.0980392157 0.0980392157 0.0980392157
v -3.7863563216891878 13.789072290315307 -10.79989454874749 0.0980392157 0.0980392157 0.0980392157
v 4.813739736400608 15.253056550157392 -5.3445841410074921 0.0980392157 0.0980392157 0.0980392157
v -5.8123603221715694 13.411206473547972 -5.249240048945234 0.0980392157 0.0980392157 0.0980392157
v -7.7827851939843331 26.236225911268903 5.1160141079033776 0.0980392157 0.0980392157 0.0980392157
v -7.5208217950413649 40.031224459070216 5.1947313373721276 0.0980392157 0.0980392157 0.0980392157
v -12.865177310708161 32.633094028484599 -0.38032665355468104 0.0980392157 0.0980392157 0.0980392157
v 1.1683105290926288 32.053026242838207 -5.3950249376310522 0.0980392157 0.0980392157 0.0980392157
v 1.9301168820373416 22.4504740112821 -5.6660854046680607 0.0980392157 0.0980392157 0.0980392157
v -3.9643327713125682 27.685978405873527 -4.7355130786782116 0.0980392157 0.0980392157 0.0980392157
v 11.463157061673588 -4.7713451293755176 -11.017580755685385 0.0980392157 0.0980392157 0.0980392157
v -5.8123603221715694 13.411206473547972 -5.249240048945234 0.0980392157 0.0980392157 0.0980392157
v -13.286061195560961 13.387663829015244 -9.2068180418622667 0.0980392157 0.0980392157 0.0980392157
v 4.6727808018189148 24.012053939649761 -0.80874127458958556 0.0980392157 0.0980392157 0.0980392157
vn -0.9781268835067749 0.17247007787227631 -0.11628353595733643
vn -0.9781268835067749 0.17247007787227631 -0.11628353595733643
vn -0.9781268835067749 0.17247007787227631 -0.11628353595733643
vn 0.13641805946826935 0.97741055488586426 -0.1614270806312561
vn -0.037133019417524338 0.99785572290420532 0.053898945450782776
vn -0.0031444979831576347 0.99916821718215942 0.040656261146068573
vn -0.54539275169372559 0.83022528886795044 -0.11520741879940033
vn -0.54539275169372559 0.83022528886795044 -0.11520741879940033
vn -0.54539275169372559 0.83022528886795044 -0.11520741879940033
vn 0.015326377004384995 0.99279391765594482 0.11885006725788116
vn 0.010514747351408005 0.99971294403076172 0.021527931094169617
vn 0.017018388956785202 0.93591487407684326 -0.35181492567062378
vn -0.0002128371997969225 0.92242330312728882 -0.38618031144142151
vn 0.059621088206768036 0.91245323419570923 -0.40481409430503845
vn 0.074388444423675537 -0.054813746362924576 0.99572175741195679
vn 0.096366189420223236 0.077439434826374054 0.992328941822052
vn -0.034625019878149033 -0.059005480259656906 0.99765700101852417
vn 0.99688494205474854 0.078559227287769318 -0.0069902371615171432
vn 0.95277535915374756 -0.30366876721382141 0.0020871320739388466
vn 0.98791372776031494 -0.15499544143676758 0.0017144237644970417
vn -0.98537951707839966 0.17033931612968445 -0.0034289869945496321
vn -0.98471635580062866 0.17401380836963654 -0.0072742034681141376
vn -0.98470407724380493 0.17412364482879639 -0.0062342965975403786
vn 0.97986048460006714 -0.034227319061756134 -0.19672809541225433
vn 0.38325217366218567 0.039029490202665329 -0.92281877994537354
vn 0.89143913984298706 0.020251188427209854 -0.45268768072128296
vn 0.03772219642996788 0.99296671152114868 0.11222375184297562
vn 0.16754442453384399 0.98583728075027466 0.0073269945569336414
vn 0.26596024632453918 0.95237404108047485 0.14916022121906281
vn -0.54883337020874023 0.088036581873893738 -0.83128303289413452
vn -0.86466109752655029 0.034493584185838699 -0.50117003917694092
vn -0.26216644048690796 0.035139273852109909 -0.96438270807266235
vn -0.23006531596183777 0.035162791609764099 -0.97253972291946411
vn -0.15284380316734314 -0.021388603374361992 0.98801887035369873
vn -0.14399906992912292 -0.0048238248564302921 0.98956608772277832
vn 0.095111064612865448 -0.016808163374662399 0.99532473087310791
vn -0.19615650177001953 -0.98057258129119873 0.00020080582180526108
vn -0.31957685947418213 -0.94732773303985596 0.020994463935494423
vn -0.17674247920513153 -0.9842570424079895 -0.00039231526898220181
vn -0.98896658420562744 0.14813733100891113 -0.00068571651354432106
vn -0.99240696430206299 0.1184973418712616 -0.032966937869787216
vn -0.97683882713317871 0.21346502006053925 -0.014783717691898346
vn 0.99008572101593018 -0.14014224708080292 -0.0095063298940658569
vn 0.97627067565917969 -0.21630004048347473 -0.010482572019100189
vn 0.99118959903717041 -0.13205738365650177 -0.010198432952165604
vn 0.95050686597824097 -0.31052243709564209 -0.010609926655888557
vn 0.20398645102977753 -0.042927347123622894 0.97803211212158203
vn -0.17817345261573792 -0.021898655220866203 0.98375540971755981
vn 0.14813385903835297 -0.01937357522547245 0.9887775182723999
vn -0.84880506992340088 -0.082669630646705627 0.52220273017883301
vn -0.84232890605926514 0.11872219294309616 0.52572530508041382
vn -0.84102165699005127 0.12933850288391113 0.52531337738037109
vn -0.040900971740484238 0.019402140751481056 -0.99897480010986328
vn 0.10875037312507629 0.022829825058579445 -0.99380689859390259
vn -0.01370347011834383 -0.99961090087890625 -0.02429589070379734
vn -0.040659651160240173 -0.99886864423751831 -0.024663064628839493
vn 0.011871375143527985 -0.99945855140686035 -0.030687358230352402
vn 0.18634749948978424 -0.98233014345169067 0.017379367724061012
vn -0.22898818552494049 -0.97287857532501221 0.032736547291278839
vn 0.35476967692375183 0.92277932167053223 -0.15038879215717316
vn 0.35410922765731812 0.90479117631912231 -0.23655784130096436
vn 0.35266226530075073 0.93128132820129395 -0.091347940266132355
vn 0 0 -1
vn 0 0 -1
vn 0 0 -1
vn 0.0021070931106805801 0.99050068855285645 0.13749171793460846
vn -0.026001039892435074 0.99962383508682251 -0.0087281195446848869
vn -0.56153488159179688 0.8165249228477478 0.13403578102588654
vn -0.55804145336151123 0.82162070274353027 -0.11631485819816589
vn -0.53883332014083862 0.79957538843154907 -0.26521295309066772
vn -0.0609743632376194 -0.94695240259170532 -0.31553643941879272
vn -0.0609743632376194 -0.94695240259170532 -0.31553643941879272
vn -0.0609743632376194 -0.94695240259170532 -0.31553643941879272
vn 0.59370815753936768 0.55585289001464844 -0.58184033632278442
vn 0.59370815753936768 0.55585289001464844 -0.58184033632278442
vn 0.59370815753936768 0.55585289001464844 -0.58184033632278442
vn 0.99588924646377563 -0.054426193237304688 -0.072404138743877411
vn 0.95793205499649048 -0.1502423882484436 0.24452701210975647
vn 0 0 -1
vn 0 0 -1
vn 0 0 -1
vn 0.9993293285369873 0.021340860053896904 -0.029756668955087662
vn 0.99927657842636108 0.038029678165912628 -0.00022922593052498996
vn -0.98554670810699463 -0.086750440299510956 -0.14550627768039703
vn -0.9922865629196167 -0.086573392152786255 0.08872658759355545
vn -0.99101269245147705 0.13276727497577667 -0.01633109524846077
vn 0.22699867188930511 -0.029381226748228073 0.97345179319381714
vn -0.050841435790061951 -0.88947230577468872 0.45415210723876953
vn -0.0031529825646430254 -0.89113980531692505 0.45371785759925842
vn 0.091201446950435638 -0.994972825050354 0.041368085891008377
vn -0.55210286378860474 -0.66062790155410767 0.50867784023284912
vn -0.65388751029968262 -0.55723285675048828 0.51178377866744995
vn -0.72181421518325806 -0.47113114595413208 0.50697112083435059
vn 0.2170737087726593 -0.81182801723480225 0.54204636812210083
vn 0.26893782615661621 -0.94828128814697266 0.16862696409225464
vn 0.73702698945999146 0.39881113171577454 0.54565644264221191
vn 0.73702698945999146 0.39881113171577454 0.54565644264221191
vn 0.73702698945999146 0.39881113171577454 0.54565644264221191
vn -0.99959707260131836 0.015043820254504681 0.024071164429187775
vn -0.99999493360519409 0.0016855885041877627 0.0026970615144819021
vn -0.99742275476455688 0.038025308400392532 0.060843154788017273
vn 0.26795795559883118 -0.96037864685058594 0.07662472128868103
vn -0.11360884457826614 -0.99150377511978149 0.063350796699523926
vn 0.18214172124862671 -0.98133951425552368 0.061621468514204025
vn -0.44911760091781616 -0.88941967487335205 -0.085006006062030792
vn -0.4682256281375885 -0.8796229362487793 -0.083834581077098846
vn -0.38292446732521057 -0.9195135235786438 -0.088677674531936646
vn 0 0 -1
vn 0 0 -1
vn 0.99635416269302368 0.077951937913894653 -0.034667514264583588
vn 0.99935400485992432 -0.0021232108119875193 -0.035875566303730011
vn 0.98865807056427002 0.10113421827554703 -0.11102727800607681
vn 0.17680865526199341 0.98423779010772705 -0.003836736548691988
vn 0.17680865526199341 0.98423779010772705 -0.003836736548691988
vn 0.17680865526199341 0.98423779010772705 -0.003836736548691988
vn 0.027885045856237411 -0.65209883451461792 0.75762099027633667
vn 0.027885045856237411 -0.65209883451461792 0.75762099027633667
vn 0.027885045856237411 -0.65209883451461792 0.75762099027633667
vn 0.95681923627853394 -0.2895817756652832 0.025286383926868439
vn 0.95261573791503906 -0.062862314283847809 0.29760974645614624
vn 0.99610602855682373 0.086715593934059143 0.015913115814328194
vn 0.82489967346191406 0.15297597646713257 -0.54418641328811646
vn 0.76877784729003906 0.072802439332008362 -0.63535845279693604
vn 0.87166225910186768 0.023256933316588402 -0.48955494165420532
vn 0.85432881116867065 -0.49954164028167725 0.14345875382423401
vn 0.85064268112182617 -0.42826715111732483 -0.30494967103004456
vn 0.65101653337478638 -0.75737679004669189 -0.050575427711009979
vn 0.43884873390197754 -0.78012454509735107 -0.44588959217071533
vn 0.066676512360572815 -0.89086663722991943 -0.44934490323066711
vn 0.54079180955886841 -0.77302312850952148 -0.33163151144981384
vn 0.034058354794979095 0.97593969106674194 0.21536430716514587
vn 0.19831638038158417 0.97400087118148804 -0.10951213538646698
vn -0.23685735464096069 0.91561776399612427 -0.32487344741821289
vn 0.55157005786895752 0.74818497896194458 0.36876788735389709
vn 0.56671380996704102 0.73797988891601562 0.36636212468147278
vn 0.52681756019592285 0.76101392507553101 0.37857767939567566
vn -0.34643930196762085 -0.92174720764160156 -0.1742466539144516
vn -0.36148208379745483 -0.92152321338653564 -0.141865074634552
vn -0.33975303173065186 -0.92147767543792725 -0.18827328085899353
vn 0.90133732557296753 0.056370336562395096 0.42943379282951355
vn 0.87159311771392822 -0.26052987575531006 0.41527050733566284
vn 0.80295801162719727 -0.45705023407936096 0.38257485628128052
vn 0.038428992033004761 0.50191223621368408 0.86406439542770386
vn 0.038428992033004761 0.50191223621368408 0.86406439542770386
vn 0.038428992033004761 0.50191223621368408 0.86406439542770386
vn -0.8714141845703125 0.034141000360250473 0.48935842514038086
vn -0.9929649829864502 -0.0023821615613996983 0.11838424205780029
vn -0.97737735509872437 -0.066607356071472168 -0.20074118673801422
vn 0.92226630449295044 0.38306182622909546 -0.051850534975528717
vn 0.85982060432434082 0.510581374168396 -0.0038982853293418884
vn 0.91471332311630249 0.40296879410743713 -0.030259612947702408
vn -0.0054764091037213802 -0.99458765983581543 0.10375655442476273
vn -0.030517159029841423 -0.53760403394699097 0.84264498949050903
vn 0.00027612893609330058 -0.98381924629211426 -0.1791636198759079
vn -0.1661512553691864 0.73316597938537598 0.65944021940231323
vn 0.43187963962554932 0.61930066347122192 -0.65570318698883057
vn 0.35906270146369934 0.77613276243209839 -0.51835495233535767
vn 0.4359147846698761 0.60797518491744995 -0.66358458995819092
vn 0.6228141188621521 0.78213906288146973 0.019000988453626633
vn 0.68268829584121704 0.71871656179428101 0.13184547424316406
vn 0.70095616579055786 0.71319502592086792 0.0036501120775938034
vn -0.188211590051651 -0.29495784640312195 0.93679040670394897
vn -0.188211590051651 -0.29495784640312195 0.93679040670394897
vn -0.188211590051651 -0.29495784640312195 0.93679040670394897
vn 0.61885231733322144 -0.53178274631500244 -0.57812529802322388
vn 0.61885231733322144 -0.53178274631500244 -0.57812529802322388
vn 0.61885231733322144 -0.53178274631500244 -0.57812529802322388
vn -0.1413353830575943 0.91309118270874023 0.38247719407081604
vn -0.1413353830575943 0.91309118270874023 0.38247719407081604
vn -0.1413353830575943 0.91309118270874023 0.38247719407081604
vn -0.91949605941772461 0.34462285041809082 -0.18910866975784302
vn -0.99955099821090698 0.0094228042289614677 0.028443405404686928
vn -0.96675139665603638 0.25541150569915771 -0.012515834532678127
vn -0.88627642393112183 0.46306291222572327 -0.0093166148290038109
vn 0.93296843767166138 -0.00074323749868199229 0.3599574863910675
vn 0.98975628614425659 0.0025778824929147959 -0.14274393022060394
vn 0.36215764284133911 0.9221271276473999 0.13610062003135681
vn 0.36551234126091003 0.93071097135543823 -0.013334283605217934
vn 0.36538383364677429 0.93035048246383667 0.030702259391546249
vn -0.88257020711898804 0.46957620978355408 0.023834191262722015
vn -0.89620578289031982 0.40946400165557861 0.17074680328369141
vn -0.05035066232085228 -0.86406320333480835 -0.50085890293121338
vn 0.01765349879860878 -0.87730371952056885 -0.47961080074310303
vn -0.53840357065200806 -0.83909463882446289 0.0777292400598526
vn -0.47070410847663879 -0.86739236116409302 0.16145646572113037
vn -0.56140303611755371 -0.80869799852371216 -0.17559675872325897
vn -0.95624822378158569 -0.18892709910869598 0.22337399423122406
vn -0.96896904706954956 0.1312565952539444 -0.20945318043231964
vn -0.97978776693344116 -0.19841945171356201 -0.025409035384654999
vn 0.69083976745605469 0.35572242736816406 0.62944579124450684
vn 0.69083976745605469 0.35572242736816406 0.62944579124450684
vn 0.69083976745605469 0.35572242736816406 0.62944579124450684
vn 0.11054366827011108 0.71816635131835938 0.68703508377075195
vn 0.05213729664683342 0.71291631460189819 0.69930827617645264
vn 0.18729150295257568 0.78777450323104858 0.58679914474487305
vn 0.074420586228370667 0.083344310522079468 -0.99373805522918701
vn 0.10779564082622528 0.10068055242300034 -0.98906195163726807
vn 0.011921375058591366 0.042233701795339584 -0.99903661012649536
vn 0.77338099479675293 -0.35140195488929749 0.52763479948043823
vn 0.78692525625228882 0.063545979559421539 0.61376750469207764
vn 0.86662566661834717 0.14250481128692627 0.47817608714103699
vn -0.035834018141031265 0.73371165990829468 0.67851537466049194
vn 0.016039742156863213 0.81338590383529663 0.58150327205657959
vn 0.005065305158495903 0.048275470733642578 0.9988211989402771
vn 0.00053241150453686714 0.0093918591737747192 0.99995577335357666
vn 0.0017251356039196253 0.0028869723901152611 0.99999433755874634
vn 0.077967166900634766 0.44217434525489807 0.89353400468826294
vn 0.077967166900634766 0.44217434525489807 0.89353400468826294
vn 0.077967166900634766 0.44217434525489807 0.89353400468826294
vn 0.080861113965511322 0.9775957465171814 0.19434002041816711
vn 0.12992504239082336 0.9570084810256958 0.25933420658111572
vn -0.0037298623938113451 0.60362988710403442 0.79725593328475952
vn 0.31738638877868652 0.44145581126213074 0.839275062084198
vn 0.31738638877868652 0.44145581126213074 0.839275062084198
vn 0.31738638877868652 0.44145581126213074 0.839275062084198
vn -0.2136300653219223 0.024745272472500801 0.97660118341445923
vn 0.77758800983428955 -0.42783153057098389 0.46077877283096313
vn 0.77758800983428955 -0.42783153057098389 0.46077877283096313
vn 0.77758800983428955 -0.42783153057098389 0.46077877283096313
vn -0.026926787570118904 0.0064657586626708508 0.99961650371551514
vn 0.061788462102413177 0.027800999581813812 0.99770200252532959
vn -0.022344015538692474 -0.0096226884052157402 0.99970400333404541
vn 0.050516419112682343 -0.81204789876937866 0.58140027523040771
vn -0.16482265293598175 -0.91538149118423462 -0.36730125546455383
vn -0.045656982809305191 -0.62574934959411621 0.77868682146072388
vn -0.10052943229675293 -0.97678238153457642 -0.18918235599994659
vn -0.11540506780147552 0.022541038691997528 0.99306273460388184
vn -0.41735005378723145 0.26440000534057617 0.86943173408508301
vn -0.5331839919090271 0.13570946455001831 0.83504354953765869
vn 0.12849406898021698 -0.0035721277818083763 0.99170386791229248
vn 0.24755947291851044 0.063708305358886719 0.96677583456039429
vn 0.047451823949813843 0.063276819884777069 0.99686729907989502
vn -0.11363880336284637 0.022473068907856941 0.99326795339584351
vn 0.40921452641487122 0.32277825474739075 0.85343873500823975
vn 0.1101294681429863 0.16806304454803467 0.97960519790649414
vn 0.23267427086830139 0.057203568518161774 -0.9708709716796875
vn 0.41544139385223389 -0.90207326412200928 0.11692839860916138
vn 0.15860091149806976 -0.97964012622833252 0.12308923900127411
vn -0.58291614055633545 0.075508065521717072 0.80901622772216797
vn 0.5693199634552002 -0.64712029695510864 0.50706028938293457
vn -0.11159241199493408 -0.040505114942789078 0.99292820692062378
vn 0.51951694488525391 0.041255112737417221 -0.85346364974975586
vn 0.99526983499526978 -0.018401829525828362 0.095390394330024719
vn 0.99648237228393555 -0.011951952241361141 0.08294561505317688
vn -0.95665848255157471 0.28011405467987061 -0.079628325998783112
vn -0.98913419246673584 -0.056864213198423386 -0.13557276129722595
vn -0.95476770401000977 0.25354048609733582 0.15535728633403778
vn -0.61364221572875977 -0.16195613145828247 0.77279585599899292
vn -0.36296573281288147 -0.3746052086353302 -0.85318624973297119
vn -0.50425297021865845 -0.80676907300949097 -0.30798158049583435
vn -0.43248417973518372 -0.55866312980651855 0.7077096700668335
vn -0.89732378721237183 -0.41326227784156799 0.15499766170978546
vn -0.96450477838516235 0.25929203629493713 0.049981273710727692
vn -0.42515313625335693 -0.37354612350463867 0.82444411516189575
vn 0.99915611743927002 0.023699916899204254 -0.033546574413776398
vn 0.9781302809715271 -0.15334917604923248 0.14051741361618042
vn 0.99980515241622925 0.0034300636034458876 0.019439408555626869
vn -0.52717131376266479 0.84485864639282227 -0.091128051280975342
vn -0.53050464391708374 0.84762156009674072 -0.010128194466233253
vn -0.60309410095214844 0.79766958951950073 -0.00086685619316995144
vn -0.00072933745104819536 0.18827852606773376 0.98211538791656494
vn -0.00052652019076049328 0.040255468338727951 0.99918925762176514
vn -0.98717010021209717 0.15966209769248962 -0.0017887185094878078
vn -0.065531983971595764 -0.91154009103775024 0.40595588088035583
vn -0.15942010283470154 -0.98591572046279907 0.050550617277622223
vn -0.055737629532814026 0.51365703344345093 -0.85618329048156738
vn 0.077300980687141418 0.56142204999923706 -0.82391130924224854
vn 0.064063608646392822 0.49112322926521301 -0.86873114109039307
vn 0.999908447265625 0.012248585931956768 -0.0057506188750267029
vn 0.00024703610688447952 0.00029339001048356295 0.99999994039535522
vn 5.7051852309086826E-06 3.4150150895584375E-05 1
vn 9.0572691988199949E-05 0.00012531557877082378 1
vn 0.24201253056526184 0.89098250865936279 -0.3841615617275238
vn -0.98517405986785889 0.1715453714132309 -0.0020528414752334356
vn 0.52364695072174072 -0.039111882448196411 0.85103708505630493
vn -0.99854147434234619 -0.0010379439918324351 0.05398058146238327
vn -0.17303752899169922 -0.98491513729095459 0.00038276411942206323
vn -0.16980671882629395 -0.98547714948654175 -0.00070160342147573829
vn -0.17432010173797607 -0.98468875885009766 0.00076852657366544008
vn -0.85416090488433838 -0.066231288015842438 0.51577377319335938
vn -0.75985556840896606 0.28879770636558533 0.58242201805114746
vn -0.65392345190048218 0.027231674641370773 0.75607049465179443
vn 0 0 -1
vn 0 0 -1
vn 0 0 -1
vn 0.21808651089668274 0.031944245100021362 -0.97540652751922607
vn 0 0 -1
vn -0.96330142021179199 -0.044478204101324081 -0.26471120119094849
vn -0.15394292771816254 -0.048656970262527466 -0.98688095808029175
usemtl vc_191919__Default
f 1//1 2//2 3//3
f 4//4 5//5 6//6
f 7//7 8//8 9//9
f 10//10 6//6 11//11
f 12//12 13//13 14//14
f 15//15 16//16 17//17
f 18//18 19//19 20//20
f 21//21 22//22 23//23
f 24//24 25//25 26//26
f 27//27 28//28 29//29
f 30//30 31//31 32//32
f 33//33 30//30 32//32
f 34//34 35//35 36//36
f 37//37 38//38 39//39
f 40//40 41//41 42//42
f 43//43 44//44 45//45
f 46//46 45//45 44//44
f 47//47 48//48 49//49
f 48//48 34//34 36//36
f 50//50 51//51 52//52
f 53//53 33//33 32//32
f 54//54 25//25 53//53
f 55//55 56//56 57//57
f 57//57 58//58 55//55
f 56//56 59//59 57//57
f 60//60 61//61 62//62
f 63//63 64//64 65//65
f 66//66 67//67 5//5
f 68//68 69//69 70//70
f 71//71 72//72 73//73
f 74//74 75//75 76//76
f 77//77 78//78 24//24
f 81//81 287//287 79//79 80//80
f 82//82 83//83 78//78
f 86//86 288//288 84//84 85//85
f 87//87 47//47 49//49
f 88//88 89//89 90//90
f 91//91 92//92 93//93
f 94//94 95//95 90//90
f 96//96 97//97 98//98
f 99//99 100//100 101//101
f 102//102 103//103 104//104
f 105//105 106//106 107//107
f 64//64 108//108 109//109
f 109//109 65//65 64//64
f 110//110 111//111 112//112
f 113//113 114//114 115//115
f 116//116 117//117 118//118
f 119//119 24//24 120//120
f 77//77 121//121 82//82
f 122//122 123//123 124//124
f 125//125 126//126 127//127
f 128//128 129//129 130//130
f 131//131 132//132 133//133
f 134//134 135//135 136//136
f 137//137 138//138 139//139
f 140//140 141//141 142//142
f 143//143 144//144 145//145
f 147//147 31//31 148//148 146//146
f 149//149 150//150 151//151
f 152//152 153//153 154//154
f 133//133 155//155 131//131
f 156//156 157//157 158//158
f 159//159 160//160 161//161
f 162//162 163//163 164//164
f 165//165 166//166 167//167
f 168//168 169//169 170//170
f 171//171 172//172 173//173
f 171//171 174//174 172//172
f 175//175 120//120 176//176
f 177//177 178//178 179//179
f 180//180 181//181 86//86
f 182//182 183//183 90//90
f 184//184 185//185 186//186
f 184//184 90//90 185//185
f 187//187 188//188 189//189
f 190//190 191//191 192//192
f 193//193 194//194 195//195
f 196//196 197//197 198//198
f 199//199 200//200 201//201
f 131//131 202//202 203//203
f 204//204 205//205 206//206
f 207//207 208//208 209//209
f 210//210 211//211 194//194
f 210//210 194//194 212//212
f 213//213 214//214 215//215
f 146//146 216//216 147//147
f 217//217 218//218 219//219
f 220//220 221//221 222//222
f 223//223 224//224 225//225
f 223//223 226//226 224//224
f 222//222 227//227 220//220
f 228//228 227//227 229//229
f 120//120 230//230 231//231
f 175//175 232//232 120//120
f 233//233 216//216 146//146
f 234//234 235//235 153//153
f 236//236 25//25 54//54
f 237//237 238//238 185//185
f 24//24 26//26 176//176
f 227//227 239//239 229//229
f 153//153 240//240 234//234
f 241//241 17//17 16//16
f 236//236 242//242 25//25
f 82//82 78//78 77//77
f 243//243 83//83 244//244
f 245//245 246//246 247//247
f 248//248 239//239 227//227
f 249//249 250//250 251//251
f 252//252 188//188 253//253
f 254//254 251//251 250//250
f 48//48 36//36 49//49
f 255//255 256//256 257//257
f 258//258 259//259 260//260
f 262//262 206//206 205//205 261//261
f 40//40 42//42 263//263
f 88//88 90//90 264//264
f 104//104 103//103 265//265
f 233//233 230//230 216//216
f 230//230 233//233 231//231
f 266//266 267//267 268//268
f 255//255 257//257 269//269
f 270//270 271//271 272//272
f 61//61 273//273 62//62
f 21//21 23//23 274//274
f 275//275 235//235 234//234
f 147//147 276//276 31//31
f 277//277 278//278 279//279
f 280//280 281//281 282//282
f 24//24 176//176 120//120
f 283//283 284//284 285//285
f 53//53 32//32 54//54
f 25//25 286//286 53//53
f 196//196 198//198 289//289
