# Dual color encoding: per-vertex RGB for Rerun, face MTL colors for legacy RViz.
mtllib sim_gene01_l_hand_little_1.mtl
# Rhino

g sim_gene01_l_hand_little_1
v -4.4216023442702914 9.7223800359402439 -3.7781657772275206 0.0980392157 0.0980392157 0.0980392157
v -3.8887056722769966 8.7257918274881394 -4.4542620974039151 0.0980392157 0.0980392157 0.0980392157
v -5.5869276618808623 9.4264338270964974 -3.4379455740334439 0.0980392157 0.0980392157 0.0980392157
v -2.6761905382528393 11.683773239035265 -4.2583159681087341 0.0980392157 0.0980392157 0.0980392157
v -3.8887056722769966 8.7257918274881394 -4.4542620974039151 0.0980392157 0.0980392157 0.0980392157
v -4.4216023442702914 9.7223800359402439 -3.7781657772275206 0.0980392157 0.0980392157 0.0980392157
v -4.9662476987788358 7.6471241944672563 -3.4481561505834919 0.0980392157 0.0980392157 0.0980392157
v -5.5852783300944253 7.6305168535213932 -3.4438952786636179 0.0980392157 0.0980392157 0.0980392157
v -3.8887056722769966 8.7257918274881394 -4.4542620974039151 0.0980392157 0.0980392157 0.0980392157
v -4.4160781154254076 6.1528169806322559 -4.3957609534104298 0.0980392157 0.0980392157 0.0980392157
v -4.9662476987788358 7.6471241944672563 -3.4481561505834919 0.0980392157 0.0980392157 0.0980392157
v -4.3304278466941222 9.6393481158052143 4.1488317823100562 0.0980392157 0.0980392157 0.0980392157
v -4.4216023442702914 9.7223800359402439 -3.7781657772275206 0.0980392157 0.0980392157 0.0980392157
v -5.5869276618808623 9.4264338270964974 -3.4379455740334439 0.0980392157 0.0980392157 0.0980392157
v -4.5112680153692963 6.8896382979632778 3.8371135408612411 0.0980392157 0.0980392157 0.0980392157
v -5.5852783300944253 7.6305168535213932 -3.4438952786636179 0.0980392157 0.0980392157 0.0980392157
v -4.9662476987788358 7.6471241944672563 -3.4481561505834919 0.0980392157 0.0980392157 0.0980392157
v -5.5502308736199257 7.4807961655224418 3.4508680371410061 0.0980392157 0.0980392157 0.0980392157
v -4.4160781154254076 6.1528169806322559 -4.3957609534104298 0.0980392157 0.0980392157 0.0980392157
v -4.5112680153692963 6.8896382979632778 3.8371135408612411 0.0980392157 0.0980392157 0.0980392157
v -4.9662476987788358 7.6471241944672563 -3.4481561505834919 0.0980392157 0.0980392157 0.0980392157
v -5.5502308736199257 7.4807961655224418 3.4508680371410061 0.0980392157 0.0980392157 0.0980392157
v -4.3304278466941222 9.6393481158052143 4.1488317823100562 0.0980392157 0.0980392157 0.0980392157
v -5.5854145272616158 9.4102369912689685 3.4618272921795921 0.0980392157 0.0980392157 0.0980392157
v -5.5502308736199257 7.4807961655224418 3.4508680371410061 0.0980392157 0.0980392157 0.0980392157
v -4.5112680153692963 6.8896382979632778 3.8371135408612411 0.0980392157 0.0980392157 0.0980392157
v -3.8887056722769966 8.7257918274881394 -4.4542620974039151 0.0980392157 0.0980392157 0.0980392157
v -2.3805272820153522 5.5134428478311968 -4.4935577435713858 0.0980392157 0.0980392157 0.0980392157
v -4.4160781154254076 6.1528169806322559 -4.3957609534104298 0.0980392157 0.0980392157 0.0980392157
v -4.5058025052547821 3.4997805213701016 -1.324738937052979 0.0980392157 0.0980392157 0.0980392157
v -3.9902212896785274 -0.34113029215224344 -4.4998442716360127 0.0980392157 0.0980392157 0.0980392157
v -4.3825696725967784 -1.7824662705558438 -4.1054688461902922 0.0980392157 0.0980392157 0.0980392157
v 0.49656096215874257 4.5863697049927339 -4.5060261943235771 0.0980392157 0.0980392157 0.0980392157
v -3.9902212896785274 -0.34113029215224344 -4.4998442716360127 0.0980392157 0.0980392157 0.0980392157
v -2.3805272820153522 5.5134428478311968 -4.4935577435713858 0.0980392157 0.0980392157 0.0980392157
v -3.1156361647828752 11.258020308857967 4.2093177486680142 0.0980392157 0.0980392157 0.0980392157
v -2.6761905382528393 11.683773239035265 -4.2583159681087341 0.0980392157 0.0980392157 0.0980392157
v -4.4216023442702914 9.7223800359402439 -3.7781657772275206 0.0980392157 0.0980392157 0.0980392157
v -4.5627322703666424 2.7814660370559765 1.6974680939405218 0.0980392157 0.0980392157 0.0980392157
v -4.3347361409163128 0.74338223175948315 4.4794322113469569 0.0980392157 0.0980392157 0.0980392157
v -3.665202463325322 7.3648143836789366 4.4842240328639305 0.0980392157 0.0980392157 0.0980392157
v -4.5112680153692963 6.8896382979632778 3.8371135408612411 0.0980392157 0.0980392157 0.0980392157
v -4.3347361409163128 0.74338223175948315 4.4794322113469569 0.0980392157 0.0980392157 0.0980392157
v -4.9749877931049928 0.37945238906388745 1.4825235535759107 0.0980392157 0.0980392157 0.0980392157
v -5.0378963627020106 -0.80545193429706186 1.3645875814126247 0.0980392157 0.0980392157 0.0980392157
v -5.014143356349269 1.4051653808462183 -0.7278910784772612 0.0980392157 0.0980392157 0.0980392157
v -4.8619097488351866 -0.052782639215450011 -1.5283111090564132 0.0980392157 0.0980392157 0.0980392157
v -4.4160781154254076 6.1528169806322559 -4.3957609534104298 0.0980392157 0.0980392157 0.0980392157
v -4.3825696725967784 -1.7824662705558438 -4.1054688461902922 0.0980392157 0.0980392157 0.0980392157
v -4.2481662198430001 -4.2388708914739022 -1.5290834907784834 0.0980392157 0.0980392157 0.0980392157
v -4.3189643437876724 -3.9301085018062207 2.2945800644752095 0.0980392157 0.0980392157 0.0980392157
v -4.9689820756863288 -1.4633496976313287 0.38486285636769824 0.0980392157 0.0980392157 0.0980392157
v 3.9976372378544442 -0.21633420165173334 -4.4977185065067937 0.0980392157 0.0980392157 0.0980392157
v 4.3596050900490519 -1.9120011728582949 -4.1071140514364473 0.0980392157 0.0980392157 0.0980392157
v -4.3304278466941222 9.6393481158052143 4.1488317823100562 0.0980392157 0.0980392157 0.0980392157
v -4.0213820952934523 -3.4185856343833252 -3.012192175097999 0.0980392157 0.0980392157 0.0980392157
v -4.2481662198430001 -4.2388708914739022 -1.5290834907784834 0.0980392157 0.0980392157 0.0980392157
v 4.3596050900490519 -1.9120011728582949 -4.1071140514364473 0.0980392157 0.0980392157 0.0980392157
v 4.4044751233127117 -3.4435854484499546 -2.8906455320269289 0.0980392157 0.0980392157 0.0980392157
v -4.0213820952934523 -3.4185856343833252 -3.012192175097999 0.0980392157 0.0980392157 0.0980392157
v -4.9689820756863288 -1.4633496976313287 0.38486285636769824 0.0980392157 0.0980392157 0.0980392157
v -4.9121512868613308 -1.1883765494475045 -0.97260723033386998 0.0980392157 0.0980392157 0.0980392157
v -4.3825696725967784 -1.7824662705558438 -4.1054688461902922 0.0980392157 0.0980392157 0.0980392157
v -4.8977856020742205 1.2439406120470933 0.94792999689038326 0.0980392157 0.0980392157 0.0980392157
v -5.0378963627020106 -0.80545193429706186 1.3645875814126247 0.0980392157 0.0980392157 0.0980392157
v -4.9749877931049928 0.37945238906388745 1.4825235535759107 0.0980392157 0.0980392157 0.0980392157
v 5.0458085793038592 -0.77728665263963226 1.3439230530207704 0.0980392157 0.0980392157 0.0980392157
v 4.9257852203159302 0.97991457146433891 1.2884442057816032 0.0980392157 0.0980392157 0.0980392157
v -4.9749877931049928 0.37945238906388745 1.4825235535759107 0.0980392157 0.0980392157 0.0980392157
v -4.8977856020742205 1.2439406120470933 0.94792999689038326 0.0980392157 0.0980392157 0.0980392157
v -4.8977856020742205 1.2439406120470933 0.94792999689038326 0.0980392157 0.0980392157 0.0980392157
v -5.014143356349269 1.4051653808462183 -0.7278910784772612 0.0980392157 0.0980392157 0.0980392157
v 5.0274716624310676 1.5302758660631968 -0.32436069340926021 0.0980392157 0.0980392157 0.0980392157
v 4.9000000953674316 0.89907723665237427 -1.1994234323501587 0.0980392157 0.0980392157 0.0980392157
v 5.0274716624310676 1.5302758660631968 -0.32436069340926021 0.0980392157 0.0980392157 0.0980392157
v -5.014143356349269 1.4051653808462183 -0.7278910784772612 0.0980392157 0.0980392157 0.0980392157
v 4.9000000953674316 0.89907723665237427 -1.1994234323501587 0.0980392157 0.0980392157 0.0980392157
v -5.014143356349269 1.4051653808462183 -0.7278910784772612 0.0980392157 0.0980392157 0.0980392157
v -4.8619097488351866 -0.052782639215450011 -1.5283111090564132 0.0980392157 0.0980392157 0.0980392157
v -4.8619097488351866 -0.052782639215450011 -1.5283111090564132 0.0980392157 0.0980392157 0.0980392157
v -4.9121512868613308 -1.1883765494475045 -0.97260723033386998 0.0980392157 0.0980392157 0.0980392157
v 4.9002066207125079 -0.32793254289394058 -1.5233875719135535 0.0980392157 0.0980392157 0.0980392157
v 4.9000000953674316 -1.3290044069290161 -0.69112509489059448 0.0980392157 0.0980392157 0.0980392157
v 4.9002066207125079 -0.32793254289394058 -1.5233875719135535 0.0980392157 0.0980392157 0.0980392157
v -4.9121512868613308 -1.1883765494475045 -0.97260723033386998 0.0980392157 0.0980392157 0.0980392157
v 5.0458085793038592 -0.77728665263963226 1.3439230530207704 0.0980392157 0.0980392157 0.0980392157
v 4.9712224029351919 -1.4560651409971084 0.37351616200905841 0.0980392157 0.0980392157 0.0980392157
v -5.0378963627020106 -0.80545193429706186 1.3645875814126247 0.0980392157 0.0980392157 0.0980392157
v -4.8413495658794945 -2.512647069991627 -0.63408667226783666 0.0980392157 0.0980392157 0.0980392157
v 4.5693669365669596 0.64022111500619661 -3.7748238937160745 0.0980392157 0.0980392157 0.0980392157
v 4.9000000953674316 0.89907723665237427 -1.1994234323501587 0.0980392157 0.0980392157 0.0980392157
v 4.9002066207125079 -0.32793254289394058 -1.5233875719135535 0.0980392157 0.0980392157 0.0980392157
v 5.0274716624310676 1.5302758660631968 -0.32436069340926021 0.0980392157 0.0980392157 0.0980392157
v 4.3596050900490519 -1.9120011728582949 -4.1071140514364473 0.0980392157 0.0980392157 0.0980392157
v 4.9000000953674316 -1.3290044069290161 -0.69112509489059448 0.0980392157 0.0980392157 0.0980392157
v -4.2481662198430001 -4.2388708914739022 -1.5290834907784834 0.0980392157 0.0980392157 0.0980392157
v -4.0213820952934523 -3.4185856343833252 -3.012192175097999 0.0980392157 0.0980392157 0.0980392157
v 4.2414947089693342 -4.3026478647139843 -1.2992452441720133 0.0980392157 0.0980392157 0.0980392157
v -4.9121512868613308 -1.1883765494475045 -0.97260723033386998 0.0980392157 0.0980392157 0.0980392157
v -4.9689820756863288 -1.4633496976313287 0.38486285636769824 0.0980392157 0.0980392157 0.0980392157
v 4.9000000953674316 -1.3290044069290161 -0.69112509489059448 0.0980392157 0.0980392157 0.0980392157
v 4.9712224029351919 -1.4560651409971084 0.37351616200905841 0.0980392157 0.0980392157 0.0980392157
v -3.9521484917557075 -4.5491530946167176 0.28166913689790152 0.0980392157 0.0980392157 0.0980392157
v 3.9866643733514815 -4.5221195167128503 0.28477970295171623 0.0980392157 0.0980392157 0.0980392157
v 5.0274716624310676 1.5302758660631968 -0.32436069340926021 0.0980392157 0.0980392157 0.0980392157
v 4.5275137921241679 3.6868799999855999 0.4587011889050121 0.0980392157 0.0980392157 0.0980392157
v 4.9257852203159302 0.97991457146433891 1.2884442057816032 0.0980392157 0.0980392157 0.0980392157
v -4.2866345409562534 -1.9109152850475652 4.156917092450696 0.0980392157 0.0980392157 0.0980392157
v -5.0378963627020106 -0.80545193429706186 1.3645875814126247 0.0980392157 0.0980392157 0.0980392157
v -4.9689820756863288 -1.4633496976313287 0.38486285636769824 0.0980392157 0.0980392157 0.0980392157
v -4.3189643437876724 -3.9301085018062207 2.2945800644752095 0.0980392157 0.0980392157 0.0980392157
v 4.2955873168602885 -4.066261279884154 1.9579520367327867 0.0980392157 0.0980392157 0.0980392157
v -4.3347361409163128 0.74338223175948315 4.4794322113469569 0.0980392157 0.0980392157 0.0980392157
v -2.0995477489561178 5.6313251743843971 4.5296281829704892 0.0980392157 0.0980392157 0.0980392157
v -3.665202463325322 7.3648143836789366 4.4842240328639305 0.0980392157 0.0980392157 0.0980392157
v 1.8919639930211929 4.8728342887091927 4.5128321417705166 0.0980392157 0.0980392157 0.0980392157
v 4.2339017408693103 -2.6994726572645789 3.6497392130931932 0.0980392157 0.0980392157 0.0980392157
v -4.2866345409562534 -1.9109152850475652 4.156917092450696 0.0980392157 0.0980392157 0.0980392157
v -2.1164166158926925 9.9987861968508618 -4.7297217119632862 0.0980392157 0.0980392157 0.0980392157
v -3.8887056722769966 8.7257918274881394 -4.4542620974039151 0.0980392157 0.0980392157 0.0980392157
v -2.6761905382528393 11.683773239035265 -4.2583159681087341 0.0980392157 0.0980392157 0.0980392157
v -1.7973472600024269 7.0003214006751691 -5.1006904279421503 0.0980392157 0.0980392157 0.0980392157
v 4.458509887312883 8.3290439570314287 -4.3962980484092036 0.0980392157 0.0980392157 0.0980392157
v 1.7405980068403224 6.2974303465682109 -4.892866714149708 0.0980392157 0.0980392157 0.0980392157
v -1.7973472600024269 7.0003214006751691 -5.1006904279421503 0.0980392157 0.0980392157 0.0980392157
v 4.2955873168602885 -4.066261279884154 1.9579520367327867 0.0980392157 0.0980392157 0.0980392157
v 3.9866643733514815 -4.5221195167128503 0.28477970295171623 0.0980392157 0.0980392157 0.0980392157
v 4.2414947089693342 -4.3026478647139843 -1.2992452441720133 0.0980392157 0.0980392157 0.0980392157
v -0.82149796092882355 9.4624517530678869 5.2125497940609424 0.0980392157 0.0980392157 0.0980392157
v -1.6301346582596699 12.167342719461523 4.2900683831333115 0.0980392157 0.0980392157 0.0980392157
v -4.3304278466941222 9.6393481158052143 4.1488317823100562 0.0980392157 0.0980392157 0.0980392157
v 4.3911728154679865 -0.55494273328045551 4.4622949713520441 0.0980392157 0.0980392157 0.0980392157
v 4.4882639023948494 8.16342442319573 4.3420598612350103 0.0980392157 0.0980392157 0.0980392157
v -1.6301346582596699 12.167342719461523 4.2900683831333115 0.0980392157 0.0980392157 0.0980392157
v -1.318019669544146 8.0324407237560038 -9.5348098566506909 0.0980392157 0.0980392157 0.0980392157
v -2.0340669421717128 7.2287351641084339 -7.6896515649938975 0.0980392157 0.0980392157 0.0980392157
v -1.8600672669013527 9.2949470499426781 -7.8094067027379106 0.0980392157 0.0980392157 0.0980392157
v -1.1159200911615008 9.0220731599649895 -6.0216565072686272 0.0980392157 0.0980392157 0.0980392157
v 0.23271507516812506 10.303356062610984 -7.7353534606508187 0.0980392157 0.0980392157 0.0980392157
v -1.8600672669013527 9.2949470499426781 -7.8094067027379106 0.0980392157 0.0980392157 0.0980392157
v -1.1159200911615008 9.0220731599649895 -6.0216565072686272 0.0980392157 0.0980392157 0.0980392157
v -1.8600672669013527 9.2949470499426781 -7.8094067027379106 0.0980392157 0.0980392157 0.0980392157
v -2.0340669421717128 7.2287351641084339 -7.6896515649938975 0.0980392157 0.0980392157 0.0980392157
v -0.36145113283910535 6.6176795485176783 -9.5125747064490351 0.0980392157 0.0980392157 0.0980392157
v -2.0340669421717128 7.2287351641084339 -7.6896515649938975 0.0980392157 0.0980392157 0.0980392157
v -1.318019669544146 8.0324407237560038 -9.5348098566506909 0.0980392157 0.0980392157 0.0980392157
v -1.1849754926874296 7.0622487058676597 -6.0941890738401057 0.0980392157 0.0980392157 0.0980392157
v 0.69746122779915076 6.5209167084898745 -6.0206119744836872 0.0980392157 0.0980392157 0.0980392157
v 1.6188105659613168 12.274795396122677 -4.2671266874412499 0.0980392157 0.0980392157 0.0980392157
v 0.73436547063112123 10.34890713490401 -4.8550701064406452 0.0980392157 0.0980392157 0.0980392157
v -2.6761905382528393 11.683773239035265 -4.2583159681087341 0.0980392157 0.0980392157 0.0980392157
v 2.0149430458225694 9.2207098273704986 -4.8704767064497805 0.0980392157 0.0980392157 0.0980392157
v 4.458509887312883 8.3290439570314287 -4.3962980484092036 0.0980392157 0.0980392157 0.0980392157
v 3.7507783629847591 10.549494084707307 -4.2156035227062221 0.0980392157 0.0980392157 0.0980392157
v 4.458509887312883 8.3290439570314287 -4.3962980484092036 0.0980392157 0.0980392157 0.0980392157
v 1.7405980068403224 6.2974303465682109 -4.892866714149708 0.0980392157 0.0980392157 0.0980392157
v -0.69275396320463578 12.473537320963153 -3.9994703934789126 0.0980392157 0.0980392157 0.0980392157
v 1.6188105659613168 12.274795396122677 -4.2671266874412499 0.0980392157 0.0980392157 0.0980392157
v -1.7973472600024269 7.0003214006751691 -5.1006904279421503 0.0980392157 0.0980392157 0.0980392157
v -2.1164166158926925 9.9987861968508618 -4.7297217119632862 0.0980392157 0.0980392157 0.0980392157
v -1.1159200911615008 9.0220731599649895 -6.0216565072686272 0.0980392157 0.0980392157 0.0980392157
v -1.1159200911615008 9.0220731599649895 -6.0216565072686272 0.0980392157 0.0980392157 0.0980392157
v -1.1849754926874296 7.0622487058676597 -6.0941890738401057 0.0980392157 0.0980392157 0.0980392157
v -1.7973472600024269 7.0003214006751691 -5.1006904279421503 0.0980392157 0.0980392157 0.0980392157
v -1.1849754926874296 7.0622487058676597 -6.0941890738401057 0.0980392157 0.0980392157 0.0980392157
v 0.49656096215874257 4.5863697049927339 -4.5060261943235771 0.0980392157 0.0980392157 0.0980392157
v -1.7973472600024269 7.0003214006751691 -5.1006904279421503 0.0980392157 0.0980392157 0.0980392157
v -0.21657006954841762 12.520537079252207 4.0209386335471846 0.0980392157 0.0980392157 0.0980392157
v -0.69275396320463578 12.473537320963153 -3.9994703934789126 0.0980392157 0.0980392157 0.0980392157
v -1.2607381991543614 8.8603269772825062 5.9588317889518008 0.0980392157 0.0980392157 0.0980392157
v -0.82149796092882355 9.4624517530678869 5.2125497940609424 0.0980392157 0.0980392157 0.0980392157
v -3.665202463325322 7.3648143836789366 4.4842240328639305 0.0980392157 0.0980392157 0.0980392157
v -2.0995477489561178 5.6313251743843971 4.5296281829704892 0.0980392157 0.0980392157 0.0980392157
v -1.0594951439999774 6.8441707003677257 6.3227884817234825 0.0980392157 0.0980392157 0.0980392157
v -1.2607381991543614 8.8603269772825062 5.9588317889518008 0.0980392157 0.0980392157 0.0980392157
v -2.0995477489561178 5.6313251743843971 4.5296281829704892 0.0980392157 0.0980392157 0.0980392157
v -1.0594951439999774 6.8441707003677257 6.3227884817234825 0.0980392157 0.0980392157 0.0980392157
v -2.0995477489561178 5.6313251743843971 4.5296281829704892 0.0980392157 0.0980392157 0.0980392157
v -0.22924302687149511 6.6215369181714827 5.5061189596254385 0.0980392157 0.0980392157 0.0980392157
v -0.22924302687149511 6.6215369181714827 5.5061189596254385 0.0980392157 0.0980392157 0.0980392157
v -1.2607381991543614 8.8603269772825062 5.9588317889518008 0.0980392157 0.0980392157 0.0980392157
v -1.0594951439999774 6.8441707003677257 6.3227884817234825 0.0980392157 0.0980392157 0.0980392157
v -2.0651103239885318 7.1434087981115413 7.782346359080436 0.0980392157 0.0980392157 0.0980392157
v -0.91673135087071866 6.0024732090398292 7.6873759723245554 0.0980392157 0.0980392157 0.0980392157
v -2.0651103239885318 7.1434087981115413 7.782346359080436 0.0980392157 0.0980392157 0.0980392157
v -1.0594951439999774 6.8441707003677257 6.3227884817234825 0.0980392157 0.0980392157 0.0980392157
v -1.8501341144300283 9.1437881265609011 7.7689318999538166 0.0980392157 0.0980392157 0.0980392157
v -0.92712295621160967 9.2670178462228652 9.484332961836845 0.0980392157 0.0980392157 0.0980392157
v -1.8501341144300283 9.1437881265609011 7.7689318999538166 0.0980392157 0.0980392157 0.0980392157
v -2.0651103239885318 7.1434087981115413 7.782346359080436 0.0980392157 0.0980392157 0.0980392157
v -0.82324848746655022 6.8170491130759503 9.5702614052094539 0.0980392157 0.0980392157 0.0980392157
v -0.92712295621160967 9.2670178462228652 9.484332961836845 0.0980392157 0.0980392157 0.0980392157
v -2.0651103239885318 7.1434087981115413 7.782346359080436 0.0980392157 0.0980392157 0.0980392157
v -0.82324848746655022 6.8170491130759503 9.5702614052094539 0.0980392157 0.0980392157 0.0980392157
v -2.0651103239885318 7.1434087981115413 7.782346359080436 0.0980392157 0.0980392157 0.0980392157
v -0.91673135087071866 6.0024732090398292 7.6873759723245554 0.0980392157 0.0980392157 0.0980392157
v -1.8600672669013527 9.2949470499426781 -7.8094067027379106 0.0980392157 0.0980392157 0.0980392157
v 0.23271507516812506 10.303356062610984 -7.7353534606508187 0.0980392157 0.0980392157 0.0980392157
v -0.28084956591320176 9.401397287861613 -9.1318779716676399 0.0980392157 0.0980392157 0.0980392157
v 0.48358642174508487 9.3657725431398315 -5.9664406867237583 0.0980392157 0.0980392157 0.0980392157
v -1.1159200911615008 9.0220731599649895 -6.0216565072686272 0.0980392157 0.0980392157 0.0980392157
v -2.1164166158926925 9.9987861968508618 -4.7297217119632862 0.0980392157 0.0980392157 0.0980392157
v -0.92712295621160967 9.2670178462228652 9.484332961836845 0.0980392157 0.0980392157 0.0980392157
v -1.2607381991543614 8.8603269772825062 5.9588317889518008 0.0980392157 0.0980392157 0.0980392157
v -1.8501341144300283 9.1437881265609011 7.7689318999538166 0.0980392157 0.0980392157 0.0980392157
v -0.82149796092882355 9.4624517530678869 5.2125497940609424 0.0980392157 0.0980392157 0.0980392157
v -1.2607381991543614 8.8603269772825062 5.9588317889518008 0.0980392157 0.0980392157 0.0980392157
v -0.92712295621160967 9.2670178462228652 9.484332961836845 0.0980392157 0.0980392157 0.0980392157
v -0.82324848746655022 6.8170491130759503 9.5702614052094539 0.0980392157 0.0980392157 0.0980392157
v 0.9700288101693304 7.0270146531227695 9.4951524786020478 0.0980392157 0.0980392157 0.0980392157
v 1.070380547427102 8.7281304342600912 -9.3896652494517259 0.0980392157 0.0980392157 0.0980392157
v -1.318019669544146 8.0324407237560038 -9.5348098566506909 0.0980392157 0.0980392157 0.0980392157
v -0.28084956591320176 9.401397287861613 -9.1318779716676399 0.0980392157 0.0980392157 0.0980392157
v 1.070380547427102 8.7281304342600912 -9.3896652494517259 0.0980392157 0.0980392157 0.0980392157
v 1.9142537805043067 9.6841327202501795 4.829159290859983 0.0980392157 0.0980392157 0.0980392157
v 2.3395483305457878 11.953686043871894 4.2813290551803416 0.0980392157 0.0980392157 0.0980392157
v -1.6301346582596699 12.167342719461523 4.2900683831333115 0.0980392157 0.0980392157 0.0980392157
v 0.84643695097146543 9.2188421662890647 5.6948081179925198 0.0980392157 0.0980392157 0.0980392157
v -1.6301346582596699 12.167342719461523 4.2900683831333115 0.0980392157 0.0980392157 0.0980392157
v -0.82149796092882355 9.4624517530678869 5.2125497940609424 0.0980392157 0.0980392157 0.0980392157
v 0.37394654185684995 9.490884316455622 7.5729254943530817 0.0980392157 0.0980392157 0.0980392157
v 0.84643695097146543 9.2188421662890647 5.6948081179925198 0.0980392157 0.0980392157 0.0980392157
v 0.37394654185684995 9.490884316455622 7.5729254943530817 0.0980392157 0.0980392157 0.0980392157
v 1.0132146990967801 6.0001175976874253 7.7058631291172137 0.0980392157 0.0980392157 0.0980392157
v -0.91673135087071866 6.0024732090398292 7.6873759723245554 0.0980392157 0.0980392157 0.0980392157
v -1.0594951439999774 6.8441707003677257 6.3227884817234825 0.0980392157 0.0980392157 0.0980392157
v 1.917112093880792 6.6230481121028024 -7.8529837527098554 0.0980392157 0.0980392157 0.0980392157
v -0.36145113283910535 6.6176795485176783 -9.5125747064490351 0.0980392157 0.0980392157 0.0980392157
v 1.0914519930854816 7.0933350894716201 -9.4844190916690057 0.0980392157 0.0980392157 0.0980392157
v 1.7405980068403224 6.2974303465682109 -4.892866714149708 0.0980392157 0.0980392157 0.0980392157
v -1.1849754926874296 7.0622487058676597 -6.0941890738401057 0.0980392157 0.0980392157 0.0980392157
v 0.69746122779915076 6.5209167084898745 -6.0206119744836872 0.0980392157 0.0980392157 0.0980392157
v 1.7405980068403224 6.2974303465682109 -4.892866714149708 0.0980392157 0.0980392157 0.0980392157
v 2.3395483305457878 11.953686043871894 4.2813290551803416 0.0980392157 0.0980392157 0.0980392157
v 1.6188105659613168 12.274795396122677 -4.2671266874412499 0.0980392157 0.0980392157 0.0980392157
v 2.3395483305457878 11.953686043871894 4.2813290551803416 0.0980392157 0.0980392157 0.0980392157
v -0.21657006954841762 12.520537079252207 4.0209386335471846 0.0980392157 0.0980392157 0.0980392157
v -1.6301346582596699 12.167342719461523 4.2900683831333115 0.0980392157 0.0980392157 0.0980392157
v 1.9142537805043067 9.6841327202501795 4.829159290859983 0.0980392157 0.0980392157 0.0980392157
v -1.6301346582596699 12.167342719461523 4.2900683831333115 0.0980392157 0.0980392157 0.0980392157
v 0.84643695097146543 9.2188421662890647 5.6948081179925198 0.0980392157 0.0980392157 0.0980392157
v 2.0840828201214112 6.6813778433153059 4.9165818846421221 0.0980392157 0.0980392157 0.0980392157
v 1.3667268684111429 7.3238316766019906 6.0738384077069885 0.0980392157 0.0980392157 0.0980392157
v -0.22924302687149511 6.6215369181714827 5.5061189596254385 0.0980392157 0.0980392157 0.0980392157
v 2.0840828201214112 6.6813778433153059 4.9165818846421221 0.0980392157 0.0980392157 0.0980392157
v 1.8289089711323145 9.1880212568035784 7.6844930104596836 0.0980392157 0.0980392157 0.0980392157
v 1.0132146990967801 6.0001175976874253 7.7058631291172137 0.0980392157 0.0980392157 0.0980392157
v -1.0594951439999774 6.8441707003677257 6.3227884817234825 0.0980392157 0.0980392157 0.0980392157
v -0.22924302687149511 6.6215369181714827 5.5061189596254385 0.0980392157 0.0980392157 0.0980392157
v 1.0132146990967801 6.0001175976874253 7.7058631291172137 0.0980392157 0.0980392157 0.0980392157
v -0.22924302687149511 6.6215369181714827 5.5061189596254385 0.0980392157 0.0980392157 0.0980392157
v 1.3667268684111429 7.3238316766019906 6.0738384077069885 0.0980392157 0.0980392157 0.0980392157
v 1.1055549073226567 9.1067719089484456 9.4098272590111769 0.0980392157 0.0980392157 0.0980392157
v 1.958537259041617 9.1742073328476472 -7.8090944055375928 0.0980392157 0.0980392157 0.0980392157
v 1.375450175315257 8.4902620408555034 -6.2790946235977207 0.0980392157 0.0980392157 0.0980392157
v 0.23271507516812506 10.303356062610984 -7.7353534606508187 0.0980392157 0.0980392157 0.0980392157
v 0.48358642174508487 9.3657725431398315 -5.9664406867237583 0.0980392157 0.0980392157 0.0980392157
v 1.375450175315257 8.4902620408555034 -6.2790946235977207 0.0980392157 0.0980392157 0.0980392157
v 0.48358642174508487 9.3657725431398315 -5.9664406867237583 0.0980392157 0.0980392157 0.0980392157
v 2.0149430458225694 9.2207098273704986 -4.8704767064497805 0.0980392157 0.0980392157 0.0980392157
v 1.375450175315257 8.4902620408555034 -6.2790946235977207 0.0980392157 0.0980392157 0.0980392157
v 1.958537259041617 9.1742073328476472 -7.8090944055375928 0.0980392157 0.0980392157 0.0980392157
v 0.23271507516812506 10.303356062610984 -7.7353534606508187 0.0980392157 0.0980392157 0.0980392157
v 2.0149430458225694 9.2207098273704986 -4.8704767064497805 0.0980392157 0.0980392157 0.0980392157
v 0.48358642174508487 9.3657725431398315 -5.9664406867237583 0.0980392157 0.0980392157 0.0980392157
v 0.73436547063112123 10.34890713490401 -4.8550701064406452 0.0980392157 0.0980392157 0.0980392157
v 1.6188105659613168 12.274795396122677 -4.2671266874412499 0.0980392157 0.0980392157 0.0980392157
v 2.0149430458225694 9.2207098273704986 -4.8704767064497805 0.0980392157 0.0980392157 0.0980392157
v 0.73436547063112123 10.34890713490401 -4.8550701064406452 0.0980392157 0.0980392157 0.0980392157
v 2.0149430458225694 9.2207098273704986 -4.8704767064497805 0.0980392157 0.0980392157 0.0980392157
v 1.7405980068403224 6.2974303465682109 -4.892866714149708 0.0980392157 0.0980392157 0.0980392157
v 1.375450175315257 8.4902620408555034 -6.2790946235977207 0.0980392157 0.0980392157 0.0980392157
v 2.0840828201214112 6.6813778433153059 4.9165818846421221 0.0980392157 0.0980392157 0.0980392157
v 1.9142537805043067 9.6841327202501795 4.829159290859983 0.0980392157 0.0980392157 0.0980392157
v 1.3667268684111429 7.3238316766019906 6.0738384077069885 0.0980392157 0.0980392157 0.0980392157
v 2.1265950667540712 7.3977705404226137 7.8363435051569779 0.0980392157 0.0980392157 0.0980392157
v 1.3667268684111429 7.3238316766019906 6.0738384077069885 0.0980392157 0.0980392157 0.0980392157
v 2.1265950667540712 7.3977705404226137 7.8363435051569779 0.0980392157 0.0980392157 0.0980392157
v 0.9700288101693304 7.0270146531227695 9.4951524786020478 0.0980392157 0.0980392157 0.0980392157
v 1.0132146990967801 6.0001175976874253 7.7058631291172137 0.0980392157 0.0980392157 0.0980392157
v 1.917112093880792 6.6230481121028024 -7.8529837527098554 0.0980392157 0.0980392157 0.0980392157
v 1.070380547427102 8.7281304342600912 -9.3896652494517259 0.0980392157 0.0980392157 0.0980392157
v 1.958537259041617 9.1742073328476472 -7.8090944055375928 0.0980392157 0.0980392157 0.0980392157
v 0.69746122779915076 6.5209167084898745 -6.0206119744836872 0.0980392157 0.0980392157 0.0980392157
v 1.917112093880792 6.6230481121028024 -7.8529837527098554 0.0980392157 0.0980392157 0.0980392157
v 1.375450175315257 8.4902620408555034 -6.2790946235977207 0.0980392157 0.0980392157 0.0980392157
v 0.69746122779915076 6.5209167084898745 -6.0206119744836872 0.0980392157 0.0980392157 0.0980392157
v 3.9319995875559375 10.215436697401957 4.280376668551888 0.0980392157 0.0980392157 0.0980392157
v 2.3395483305457878 11.953686043871894 4.2813290551803416 0.0980392157 0.0980392157 0.0980392157
v 1.9142537805043067 9.6841327202501795 4.829159290859983 0.0980392157 0.0980392157 0.0980392157
v 1.8289089711323145 9.1880212568035784 7.6844930104596836 0.0980392157 0.0980392157 0.0980392157
v 2.1265950667540712 7.3977705404226137 7.8363435051569779 0.0980392157 0.0980392157 0.0980392157
v 1.3667268684111429 7.3238316766019906 6.0738384077069885 0.0980392157 0.0980392157 0.0980392157
v 2.1265950667540712 7.3977705404226137 7.8363435051569779 0.0980392157 0.0980392157 0.0980392157
v 1.8289089711323145 9.1880212568035784 7.6844930104596836 0.0980392157 0.0980392157 0.0980392157
v 1.1055549073226567 9.1067719089484456 9.4098272590111769 0.0980392157 0.0980392157 0.0980392157
v 0.9700288101693304 7.0270146531227695 9.4951524786020478 0.0980392157 0.0980392157 0.0980392157
v 2.1265950667540712 7.3977705404226137 7.8363435051569779 0.0980392157 0.0980392157 0.0980392157
v 1.1055549073226567 9.1067719089484456 9.4098272590111769 0.0980392157 0.0980392157 0.0980392157
v 3.7507783629847591 10.549494084707307 -4.2156035227062221 0.0980392157 0.0980392157 0.0980392157
v 2.0840828201214112 6.6813778433153059 4.9165818846421221 0.0980392157 0.0980392157 0.0980392157
v 4.4882639023948494 8.16342442319573 4.3420598612350103 0.0980392157 0.0980392157 0.0980392157
v 1.9142537805043067 9.6841327202501795 4.829159290859983 0.0980392157 0.0980392157 0.0980392157
v 3.9319995875559375 10.215436697401957 4.280376668551888 0.0980392157 0.0980392157 0.0980392157
v 4.5693669365669596 0.64022111500619661 -3.7748238937160745 0.0980392157 0.0980392157 0.0980392157
v 4.3596050900490519 -1.9120011728582949 -4.1071140514364473 0.0980392157 0.0980392157 0.0980392157
v 3.9976372378544442 -0.21633420165173334 -4.4977185065067937 0.0980392157 0.0980392157 0.0980392157
v 4.458509887312883 8.3290439570314287 -4.3962980484092036 0.0980392157 0.0980392157 0.0980392157
v 4.4882639023948494 8.16342442319573 4.3420598612350103 0.0980392157 0.0980392157 0.0980392157
v 4.2955873168602885 -4.066261279884154 1.9579520367327867 0.0980392157 0.0980392157 0.0980392157
v 4.2414947089693342 -4.3026478647139843 -1.2992452441720133 0.0980392157 0.0980392157 0.0980392157
v 4.4044751233127117 -3.4435854484499546 -2.8906455320269289 0.0980392157 0.0980392157 0.0980392157
v 4.9712224029351919 -1.4560651409971084 0.37351616200905841 0.0980392157 0.0980392157 0.0980392157
v 4.3911728154679865 -0.55494273328045551 4.4622949713520441 0.0980392157 0.0980392157 0.0980392157
v 4.2339017408693103 -2.6994726572645789 3.6497392130931932 0.0980392157 0.0980392157 0.0980392157
v 5.0458085793038592 -0.77728665263963226 1.3439230530207704 0.0980392157 0.0980392157 0.0980392157
v 3.9319995875559375 10.215436697401957 4.280376668551888 0.0980392157 0.0980392157 0.0980392157
v 4.9712224029351919 -1.4560651409971084 0.37351616200905841 0.0980392157 0.0980392157 0.0980392157
v 4.2955873168602885 -4.066261279884154 1.9579520367327867 0.0980392157 0.0980392157 0.0980392157
v 5.0458085793038592 -0.77728665263963226 1.3439230530207704 0.0980392157 0.0980392157 0.0980392157
v 4.2339017408693103 -2.6994726572645789 3.6497392130931932 0.0980392157 0.0980392157 0.0980392157
v -5.5869276618808623 9.4264338270964974 -3.4379455740334439 0.0980392157 0.0980392157 0.0980392157
v -5.5854145272616158 9.4102369912689685 3.4618272921795921 0.0980392157 0.0980392157 0.0980392157
v -0.36145113283910535 6.6176795485176783 -9.5125747064490351 0.0980392157 0.0980392157 0.0980392157
v -5.5502308736199257 7.4807961655224418 3.4508680371410061 0.0980392157 0.0980392157 0.0980392157
v -5.5854145272616158 9.4102369912689685 3.4618272921795921 0.0980392157 0.0980392157 0.0980392157
v -5.5852783300944253 7.6305168535213932 -3.4438952786636179 0.0980392157 0.0980392157 0.0980392157
v -4.5112680153692963 6.8896382979632778 3.8371135408612411 0.0980392157 0.0980392157 0.0980392157
v -4.8413495658794945 -2.512647069991627 -0.63408667226783666 0.0980392157 0.0980392157 0.0980392157
v -4.3825696725967784 -1.7824662705558438 -4.1054688461902922 0.0980392157 0.0980392157 0.0980392157
v -3.9521484917557075 -4.5491530946167176 0.28166913689790152 0.0980392157 0.0980392157 0.0980392157
v -4.3189643437876724 -3.9301085018062207 2.2945800644752095 0.0980392157 0.0980392157 0.0980392157
v -4.3189643437876724 -3.9301085018062207 2.2945800644752095 0.0980392157 0.0980392157 0.0980392157
v -4.2866345409562534 -1.9109152850475652 4.156917092450696 0.0980392157 0.0980392157 0.0980392157
v -1.1849754926874296 7.0622487058676597 -6.0941890738401057 0.0980392157 0.0980392157 0.0980392157
v 0.23271507516812506 10.303356062610984 -7.7353534606508187 0.0980392157 0.0980392157 0.0980392157
v -1.1159200911615008 9.0220731599649895 -6.0216565072686272 0.0980392157 0.0980392157 0.0980392157
v 0.48358642174508487 9.3657725431398315 -5.9664406867237583 0.0980392157 0.0980392157 0.0980392157
v 0.48358642174508487 9.3657725431398315 -5.9664406867237583 0.0980392157 0.0980392157 0.0980392157
v -2.1164166158926925 9.9987861968508618 -4.7297217119632862 0.0980392157 0.0980392157 0.0980392157
v 1.1055549073226567 9.1067719089484456 9.4098272590111769 0.0980392157 0.0980392157 0.0980392157
v -0.36145113283910535 6.6176795485176783 -9.5125747064490351 0.0980392157 0.0980392157 0.0980392157
v 1.917112093880792 6.6230481121028024 -7.8529837527098554 0.0980392157 0.0980392157 0.0980392157
v 0.69746122779915076 6.5209167084898745 -6.0206119744836872 0.0980392157 0.0980392157 0.0980392157
v 1.917112093880792 6.6230481121028024 -7.8529837527098554 0.0980392157 0.0980392157 0.0980392157
v 1.070380547427102 8.7281304342600912 -9.3896652494517259 0.0980392157 0.0980392157 0.0980392157
v 4.458509887312883 8.3290439570314287 -4.3962980484092036 0.0980392157 0.0980392157 0.0980392157
v -5.5869276618808623 9.4264338270964974 -3.4379455740334439 0.0980392157 0.0980392157 0.0980392157
v -5.5852783300944253 7.6305168535213932 -3.4438952786636179 0.0980392157 0.0980392157 0.0980392157
v 4.2339017408693103 -2.6994726572645789 3.6497392130931932 0.0980392157 0.0980392157 0.0980392157
v -0.82324848746655022 6.8170491130759503 9.5702614052094539 0.0980392157 0.0980392157 0.0980392157
v -0.91673135087071866 6.0024732090398292 7.6873759723245554 0.0980392157 0.0980392157 0.0980392157
v 1.0132146990967801 6.0001175976874253 7.7058631291172137 0.0980392157 0.0980392157 0.0980392157
v 4.9712224029351919 -1.4560651409971084 0.37351616200905841 0.0980392157 0.0980392157 0.0980392157
v 4.9257852203159302 0.97991457146433891 1.2884442057816032 0.0980392157 0.0980392157 0.0980392157
v 4.9257852203159302 0.97991457146433891 1.2884442057816032 0.0980392157 0.0980392157 0.0980392157
v -3.1156361647828752 11.258020308857967 4.2093177486680142 0.0980392157 0.0980392157 0.0980392157
v 0.9700288101693304 7.0270146531227695 9.4951524786020478 0.0980392157 0.0980392157 0.0980392157
v 1.375450175315257 8.4902620408555034 -6.2790946235977207 0.0980392157 0.0980392157 0.0980392157
v 1.917112093880792 6.6230481121028024 -7.8529837527098554 0.0980392157 0.0980392157 0.0980392157
v 1.958537259041617 9.1742073328476472 -7.8090944055375928 0.0980392157 0.0980392157 0.0980392157
v -4.3825696725967784 -1.7824662705558438 -4.1054688461902922 0.0980392157 0.0980392157 0.0980392157
v -1.318019669544146 8.0324407237560038 -9.5348098566506909 0.0980392157 0.0980392157 0.0980392157
v 0.84643695097146543 9.2188421662890647 5.6948081179925198 0.0980392157 0.0980392157 0.0980392157
v -4.2866345409562534 -1.9109152850475652 4.156917092450696 0.0980392157 0.0980392157 0.0980392157
v 4.9002066207125079 -0.32793254289394058 -1.5233875719135535 0.0980392157 0.0980392157 0.0980392157
v -4.9689820756863288 -1.4633496976313287 0.38486285636769824 0.0980392157 0.0980392157 0.0980392157
v 4.4044751233127117 -3.4435854484499546 -2.8906455320269289 0.0980392157 0.0980392157 0.0980392157
v 1.1055549073226567 9.1067719089484456 9.4098272590111769 0.0980392157 0.0980392157 0.0980392157
v 0.84643695097146543 9.2188421662890647 5.6948081179925198 0.0980392157 0.0980392157 0.0980392157
v 4.458509887312883 8.3290439570314287 -4.3962980484092036 0.0980392157 0.0980392157 0.0980392157
v 1.0914519930854816 7.0933350894716201 -9.4844190916690057 0.0980392157 0.0980392157 0.0980392157
v -5.5869276618808623 9.4264338270964974 -3.4379455740334439 0.0980392157 0.0980392157 0.0980392157
vn -0.039269357919692993 0.59289747476577759 -0.80431991815567017
vn -0.039269357919692993 0.59289747476577759 -0.80431991815567017
vn -0.039269357919692993 0.59289747476577759 -0.80431991815567017
vn -0.54600417613983154 0.584278404712677 -0.60041499137878418
vn -0.6855003833770752 0.086799293756484985 -0.72287970781326294
vn -0.5804140567779541 0.32105728983879089 -0.7483593225479126
vn -0.18265070021152496 -0.90983939170837402 -0.372600257396698
vn -0.18265070021152496 -0.90983939170837402 -0.372600257396698
vn -0.18265070021152496 -0.90983939170837402 -0.372600257396698
vn -0.72988611459732056 0.013798992149531841 -0.68342947959899902
vn -0.75744718313217163 -0.05390726774930954 -0.65066719055175781
vn -0.14670459926128387 0.98551082611083984 0.085124723613262177
vn -0.035829685628414154 0.99933046102523804 -0.0074052810668945312
vn -0.0069354651495814323 0.99862080812454224 -0.052042320370674133
vn -0.48401591181755066 -0.87423443794250488 0.037983141839504242
vn -0.089428842067718506 -0.9952775239944458 -0.03775082528591156
vn -0.077204242348670959 -0.99659806489944458 -0.028840195387601852
vn -0.5282442569732666 -0.83646166324615479 0.1459103524684906
vn -0.99814927577972412 -0.056986149400472641 -0.02122851274907589
vn -0.99863559007644653 0.010806132107973099 0.051089819520711899
vn -0.93012100458145142 -0.36591506004333496 0.03132157027721405
vn -0.40250799059867859 -0.03657132014632225 0.91468566656112671
vn -0.62500393390655518 0.13588902354240417 0.76870298385620117
vn -0.39404228329658508 0.029353922232985497 0.91862344741821289
vn -0.41154614090919495 -0.03556358814239502 0.91069477796554565
vn -0.38129609823226929 -0.040827278047800064 0.92355096340179443
vn -0.24960625171661377 0.019048005342483521 -0.96816003322601318
vn 0.034831158816814423 -0.015639025717973709 -0.99927085638046265
vn -0.0037144687958061695 0.027781529352068901 -0.9996071457862854
vn -0.99665617942810059 0.078631170094013214 -0.022216614335775375
vn -0.69758015871047974 -0.028835825622081757 -0.71592628955841064
vn -0.70403563976287842 -0.20706234872341156 -0.67930775880813599
vn 0.0013659406686201692 -0.075414977967739105 -0.99715131521224976
vn -0.0025986991822719574 -0.046344932168722153 -0.99892210960388184
vn -0.1020551398396492 -0.16359229385852814 -0.9812350869178772
vn -0.71118885278701782 0.7029234766960144 0.010442230850458145
vn -0.59218686819076538 0.80558675527572632 -0.018565202131867409
vn -0.8895600438117981 0.45655044913291931 -0.015639567747712135
vn -0.97938621044158936 0.17176605761051178 0.10629723966121674
vn -0.9988170862197876 -0.036629527807235718 -0.031980261206626892
vn -0.70133233070373535 -0.0024353745393455029 0.7128303050994873
vn -0.70671272277832031 0.00076086993794888258 0.70750021934509277
vn -0.71355444192886353 -0.0086907101795077324 0.70054590702056885
vn -0.9654114842414856 0.068933859467506409 0.2514534592628479
vn -0.99024617671966553 -0.073176950216293335 0.11856470257043839
vn -0.99275898933410645 0.10332273691892624 -0.061269845813512802
vn -0.98115837574005127 0.10327470302581787 -0.16328677535057068
vn -0.99439454078674316 -0.092468179762363434 -0.051274862140417099
vn -0.99317640066146851 0.033591683954000473 0.11167921870946884
vn -0.99839925765991211 0.056255139410495758 -0.0058515230193734169
vn -0.99697554111480713 -0.077660895884037018 -0.0029173856601119041
vn -0.81149530410766602 -0.58262819051742554 -0.04494171217083931
vn -0.00086448132060468197 -0.062631070613861084 -0.99803638458251953
vn 0.00039865472353994846 -0.43050390481948853 -0.9025886058807373
vn -0.91773366928100586 0.39657890796661377 0.022139038890600204
vn -0.69624447822570801 -0.542275071144104 -0.47029930353164673
vn -0.68885618448257446 -0.68276560306549072 -0.24353303015232086
vn 0.014197453856468201 -0.45069125294685364 -0.892566978931427
vn 0.021602464839816093 -0.71231323480606079 -0.70152920484542847
vn 0.00074726052116602659 -0.72342467308044434 -0.69040292501449585
vn -0.99720942974090576 -0.036981865763664246 0.064851291477680206
vn -0.99945515394210815 -0.0085745928809046745 0.031873632222414017
vn -0.97103643417358398 -0.13273097574710846 -0.19867236912250519
vn -0.99987977743148804 0.012764344923198223 0.0088048363104462624
vn 0 0.059108030050992966 -0.99825161695480347
vn 0 0.059108030050992966 -0.99825161695480347
vn 0 0.059108030050992966 -0.99825161695480347
vn 0 -0.44882157444953918 -0.89362138509750366
vn 0 -0.44882157444953918 -0.89362138509750366
vn 0 -0.44882157444953918 -0.89362138509750366
vn 1.2710944474747521E-07 -0.97575938701629639 -0.21884621679782867
vn 3.4979566976289789E-07 -0.97575932741165161 -0.21884632110595703
vn -4.54350823630989E-09 -0.97575932741165161 -0.21884633600711823
vn -5.758190724236556E-08 -0.79957294464111328 0.60056900978088379
vn 2.9153543579241159E-08 -0.7995724081993103 0.60056972503662109
vn -3.7624449333861776E-08 -0.79957276582717896 0.60056924819946289
vn 0 -0.29741299152374268 0.95474892854690552
vn 0 -0.29741299152374268 0.95474892854690552
vn 0 -0.29741299152374268 0.95474892854690552
vn 0 0.29727193713188171 0.95479285717010498
vn 0 0.29727193713188171 0.95479285717010498
vn 0 0.29727193713188171 0.95479285717010498
vn 0 0.73698031902313232 0.67591416835784912
vn 0 0.73698031902313232 0.67591416835784912
vn 0 0.73698031902313232 0.67591416835784912
vn -6.4207164029994601E-08 0.83672881126403809 -0.54761749505996704
vn -3.4196180109802299E-08 0.83672851324081421 -0.54761791229248047
vn 6.5019891692941201E-09 0.83672845363616943 -0.54761803150177002
vn -0.95846050977706909 -0.27760037779808044 -0.065509632229804993
vn 0.98930865526199341 0.014166663400828838 -0.14514718949794769
vn 1 0 0
vn 0.99999892711639404 -0.0013476017629727721 0.00060228077927604318
vn 0.99234193563461304 0.11720479279756546 -0.038993455469608307
vn 0.98051935434341431 -0.059831194579601288 -0.18708819150924683
vn 1 0 0
vn -9.7801169829381251E-08 -0.93174070119857788 -0.3631243109703064
vn 0 -0.75434720516204834 -0.65647566318511963
vn 4.8097398064328445E-08 -0.96509593725204468 -0.26189664006233215
vn -1.6743206288083456E-07 0.99375313520431519 0.1116008460521698
vn 5.7820443544187583E-07 0.99375337362289429 0.11159854382276535
vn 0 0.99375343322753906 0.1115981861948967
vn 0.99998182058334351 0.0045934491790831089 0.0039025342557579279
vn 3.249360588597483E-06 -0.99936962127685547 0.035501524806022644
vn 3.1062093057698803E-06 -0.99621725082397461 0.086897686123847961
vn 0.99275541305541992 0.097915366291999817 -0.069636650383472443
vn 0.98902648687362671 0.14101491868495941 0.044061638414859772
vn 0.98619085550308228 0.07948797196149826 0.14529013633728027
vn -0.924735426902771 -0.34657275676727295 -0.15732681751251221
vn -0.91958034038543701 -0.39256894588470459 -0.016175031661987305
vn -0.91065520048141479 -0.41205281019210815 0.030325613915920258
vn 0.001578560215421021 -0.87376469373703003 0.48634633421897888
vn -8.1346144725102931E-05 -0.89461249113082886 0.44684275984764099
vn 0.0036908537149429321 0.016803739592432976 0.99985200166702271
vn -0.15390738844871521 -0.27487748861312866 0.94908106327056885
vn -0.07061370462179184 0.043538544327020645 0.99655312299728394
vn 0.078473925590515137 -0.040251646190881729 0.99610322713851929
vn -0.0028687580488622189 -0.5693630576133728 0.82208120822906494
vn -0.0043495474383234978 -0.4243895411491394 0.90546929836273193
vn -0.25851407647132874 0.21854688227176666 -0.94096106290817261
vn 0.13936978578567505 0.245775505900383 -0.9592551589012146
vn -0.23171961307525635 -0.15269392728805542 -0.96072399616241455
vn -0.36025127768516541 -0.062219388782978058 -0.93077802658081055
vn 0.10511396825313568 0.052745699882507324 -0.9930604100227356
vn 0.090333357453346252 -0.1348579078912735 -0.98673868179321289
vn -0.38454738259315491 -0.66078794002532959 -0.64457941055297852
vn 0.71026146411895752 -0.63909667730331421 0.29510009288787842
vn 0.7026183009147644 -0.7092517614364624 0.057353947311639786
vn 0.70519345998764038 -0.67761331796646118 -0.208668053150177
vn -0.18657276034355164 0.18726664781570435 0.96442824602127075
vn 0.0664401575922966 0.65920650959014893 0.74902099370956421
vn -0.19768357276916504 -0.0030821026302874088 0.98026102781295776
vn -0.018050411716103554 -0.052505239844322205 0.99845749139785767
vn -0.015675254166126251 0.018697448074817657 0.99970227479934692
vn -0.37668797373771667 0.92632579803466797 0.0051642558537423611
vn -0.81896519660949707 0 -0.57384318113327026
vn -0.81896519660949707 0 -0.57384318113327026
vn -0.81896519660949707 0 -0.57384318113327026
vn -0.3039422333240509 0.8974534273147583 0.31968188285827637
vn -0.3039422333240509 0.8974534273147583 0.31968188285827637
vn -0.3039422333240509 0.8974534273147583 0.31968188285827637
vn -0.74084746837615967 0.47062486410140991 0.47922566533088684
vn -0.83276671171188354 0.28759971261024475 0.4730602502822876
vn -0.90267056226730347 -0.24789567291736603 0.35175788402557373
vn -0.50143206119537354 -0.85225212574005127 -0.14910466969013214
vn -0.42282178997993469 -0.90563392639160156 -0.032387342303991318
vn -0.29834336042404175 -0.85903352499008179 -0.4159960150718689
vn -0.38791894912719727 -0.92093747854232788 -0.037324350327253342
vn -0.28050827980041504 -0.95672661066055298 0.077390365302562714
vn -0.12241276353597641 -0.027491271495819092 -0.99209845066070557
vn 0.080499649047851562 0.44408416748046875 -0.89236152172088623
vn -0.04053017869591713 0.025109114125370979 -0.99886274337768555
vn 0.32816141843795776 0.13437992334365845 -0.93501448631286621
vn 0.035099860280752182 0.027031600475311279 -0.99901819229125977
vn 0.16859868168830872 0.18164001405239105 -0.96880412101745605
vn 0.67170971632003784 0.17584580183029175 -0.71964174509048462
vn 0.25684022903442383 -0.1174260750412941 -0.95929360389709473
vn -0.10070036351680756 0.7054712176322937 -0.70154809951782227
vn 0.25015115737915039 0.66791236400604248 -0.70094043016433716
vn -0.77645516395568848 0 -0.6301724910736084
vn -0.77645516395568848 0 -0.6301724910736084
vn -0.77645516395568848 0 -0.6301724910736084
vn -0.98085933923721313 0.19174891710281372 -0.033871211111545563
vn -0.81368142366409302 -0.21527989208698273 -0.53997880220413208
vn -0.85301434993743896 -0.11907259374856949 -0.50812232494354248
vn -0.19945240020751953 -0.24447518587112427 -0.94892078638076782
vn 0.092717960476875305 -0.76910006999969482 -0.63236737251281738
vn -0.47743910551071167 -0.19532708823680878 -0.85667920112609863
vn -0.051528967916965485 0.99866729974746704 -0.0028931356500834227
vn -0.14414925873279572 0.9895557165145874 0.00069911690661683679
vn -0.68145662546157837 -0.0457451231777668 0.73042744398117065
vn -0.78043544292449951 0.086420290172100067 0.61923503875732422
vn -0.51649332046508789 -0.1462474912405014 0.84370982646942139
vn -0.45004209876060486 -0.41570234298706055 0.79035037755966187
vn -0.88178682327270508 0.12199439853429794 0.45559781789779663
vn -0.88178682327270508 0.12199439853429794 0.45559781789779663
vn -0.88178682327270508 0.12199439853429794 0.45559781789779663
vn 0.34178793430328369 -0.93622684478759766 -0.081610925495624542
vn 0.34178793430328369 -0.93622684478759766 -0.081610925495624542
vn 0.34178793430328369 -0.93622684478759766 -0.081610925495624542
vn -0.084169313311576843 -0.52695327997207642 0.84571611881256104
vn -0.97367125749588013 0.1611616313457489 -0.16121777892112732
vn -0.76508498191833496 -0.30139723420143127 -0.56903839111328125
vn -0.90477627515792847 -0.014246730133891106 -0.42564886808395386
vn -0.85110384225845337 -0.36114907264709473 -0.38104283809661865
vn -0.66768348217010498 -0.55689948797225952 -0.49402600526809692
vn -0.83643150329589844 -0.38154178857803345 -0.39345669746398926
vn -0.8993108868598938 0.11885502189397812 -0.42084839940071106
vn -0.84848171472549438 0.1731514185667038 0.50009733438491821
vn -0.89090120792388916 0.10037537664175034 0.44296702742576599
vn -0.9252890944480896 0.023418199270963669 0.37853884696960449
vn -0.91964298486709595 -0.023892449215054512 0.39202797412872314
vn -0.91964298486709595 -0.023892449215054512 0.39202797412872314
vn -0.91964298486709595 -0.023892449215054512 0.39202797412872314
vn -0.49734064936637878 -0.54648840427398682 0.67379719018936157
vn -0.49734064936637878 -0.54648840427398682 0.67379719018936157
vn -0.49734064936637878 -0.54648840427398682 0.67379719018936157
vn -0.54527151584625244 0.56138676404953003 -0.62251412868499756
vn 0.15026633441448212 0.71666783094406128 -0.68103396892547607
vn -0.21028551459312439 0.70771324634552002 -0.67447900772094727
vn 0.26714101433753967 0.89860057830810547 -0.34806996583938599
vn 0.26714101433753967 0.89860057830810547 -0.34806996583938599
vn 0.26714101433753967 0.89860057830810547 -0.34806996583938599
vn -0.38534834980964661 0.92276310920715332 0.0038637020625174046
vn -0.14947639405727386 0.98875695466995239 0.0040653529576957226
vn -0.083851717412471771 0.99642729759216309 0.010078509338200092
vn -0.35843580961227417 0.93354713916778564 0.0036740610376000404
vn -0.69409424066543579 0.71752446889877319 -0.058239735662937164
vn -0.072570748627185822 0.11435316503047943 0.99078595638275146
vn 0.0037542840000241995 -0.048349115997552872 0.99882346391677856
vn 0.014906433410942554 -0.031840655952692032 0.99938178062438965
vn 0.042935367673635483 -0.022889453917741776 -0.99881559610366821
vn -0.022884313017129898 0.055074732750654221 -0.99821996688842773
vn -0.13852927088737488 0.024900374934077263 -0.99004524946212769
vn 0.41307729482650757 0.62117737531661987 -0.6659623384475708
vn 0.20398187637329102 0.33119618892669678 0.9212493896484375
vn -0.0083963200449943542 0.043751660734415054 0.99900716543197632
vn -0.074717551469802856 0.022941786795854568 0.99694079160690308
vn 0.0022332754451781511 0.81363588571548462 0.58137047290802002
vn 0.0041521801613271236 0.81407743692398071 0.5807415246963501
vn 0.00887259840965271 0.81514877080917358 0.57918363809585571
vn 0.075194619596004486 0.9965435266494751 -0.035309839993715286
vn 0.6006351113319397 0.79834884405136108 -0.043319322168827057
vn 0.046167068183422089 0.9989280104637146 0.0033732748124748468
vn 0.24501363933086395 -0.60748839378356934 -0.7555965781211853
vn -0.25143852829933167 -0.63168120384216309 -0.73331952095031738
vn -0.20714585483074188 -0.65541607141494751 -0.72630596160888672
vn 0.77824532985687256 -0.49562561511993408 -0.38560274243354797
vn 0.087253712117671967 -0.974254310131073 -0.20788291096687317
vn 0.80636322498321533 -0.4832022488117218 -0.34101900458335876
vn -0.45056170225143433 -0.89273792505264282 -0.003620839910581708
vn -0.45056170225143433 -0.89273792505264282 -0.003620839910581708
vn -0.45056170225143433 -0.89273792505264282 -0.003620839910581708
vn 0.14717453718185425 -0.59426510334014893 -0.79068869352340698
vn 0.50083768367767334 0.8652234673500061 0.023452175781130791
vn 0.36149054765701294 0.93237119913101196 0.0029199612326920033
vn 0.36002489924430847 0.6139674186706543 0.70244294404983521
vn -0.017199959605932236 0.70914709568023682 0.70485073328018188
vn -0.2663567066192627 0.66650831699371338 0.69629073143005371
vn 0.31855767965316772 0.32687360048294067 0.88976103067398071
vn 0.31855767965316772 0.32687360048294067 0.88976103067398071
vn 0.31855767965316772 0.32687360048294067 0.88976103067398071
vn 0.77005833387374878 -0.63784575462341309 -0.012765691615641117
vn 0.67285716533660889 -0.73977094888687134 -0.0014636333798989654
vn 0.2970987856388092 -0.95484668016433716 -0.00028778970590792596
vn 0.38771116733551025 -0.25203144550323486 0.88665676116943359
vn 0.11254773288965225 0.99351853132247925 -0.015935026109218597
vn -0.31669872999191284 -0.94838458299636841 -0.016389235854148865
vn 0.22576288878917694 -0.97417867183685303 -0.0026460189837962389
vn 0.076271690428256989 -0.99705237150192261 -0.0083194943144917488
vn 0.44802370667457581 -0.78891736268997192 -0.42057600617408752
vn 0.32809621095657349 -0.84327232837677002 -0.42572838068008423
vn 0.3664831817150116 -0.82583212852478027 -0.42859235405921936
vn 0.44158017635345459 0.85362452268600464 0.27628275752067566
vn 0.64483392238616943 0.46411463618278503 -0.60727816820144653
vn 0.66158908605575562 0.68258893489837646 0.31043878197669983
vn 0.82121723890304565 0.40580058097839355 0.40115851163864136
vn 0.73474299907684326 0.53585207462310791 0.41595101356506348
vn 0.65552222728729248 0.60145395994186401 -0.45666587352752686
vn 0.65552222728729248 0.60145395994186401 -0.45666587352752686
vn 0.65552222728729248 0.60145395994186401 -0.45666587352752686
vn 0.35965299606323242 0.8183598518371582 0.44825983047485352
vn 0.35965299606323242 0.8183598518371582 0.44825983047485352
vn 0.35965299606323242 0.8183598518371582 0.44825983047485352
vn 0.499796062707901 0.51284325122833252 -0.69799405336380005
vn 0.499796062707901 0.51284325122833252 -0.69799405336380005
vn 0.499796062707901 0.51284325122833252 -0.69799405336380005
vn 0.23131729662418365 0.3409578800201416 -0.91117507219314575
vn 0.23131729662418365 0.3409578800201416 -0.91117507219314575
vn 0.23131729662418365 0.3409578800201416 -0.91117507219314575
vn 0.88497889041900635 -0.023312764242291451 -0.46504715085029602
vn 0.8294641375541687 -0.17699111998081207 -0.52977675199508667
vn 0.96430063247680664 0.07453995943069458 -0.25410249829292297
vn 0.9226762056350708 -0.11305741965770721 0.36862799525260925
vn 0.82946473360061646 0.093734860420227051 0.55063778162002563
vn 0.88701879978179932 -0.012375172227621078 0.4615674614906311
vn 0.86242944002151489 -0.27180579304695129 -0.4270094633102417
vn 0.81066769361495972 -0.41305530071258545 -0.41497373580932617
vn 0.60911953449249268 -0.36998641490936279 0.70148658752441406
vn 0.49727016687393188 -0.49961641430854797 0.70929956436157227
vn 0.40855821967124939 -0.58314222097396851 0.70215761661529541
vn 0.79855865240097046 0.029958661645650864 -0.60117101669311523
vn 0.79855865240097046 0.029958661645650864 -0.60117101669311523
vn 0.79855865240097046 0.029958661645650864 -0.60117101669311523
vn 0.92611104249954224 -0.035001795738935471 0.37562370300292969
vn 0.92611104249954224 -0.035001795738935471 0.37562370300292969
vn 0.92611104249954224 -0.035001795738935471 0.37562370300292969
vn 0.3747631311416626 -0.664173424243927 -0.64685875177383423
vn -0.0036227460950613022 0.019057013094425201 0.99981182813644409
vn 0.009678899310529232 0.041728600859642029 0.99908208847045898
vn -0.010536294430494308 -0.022121958434581757 0.99969977140426636
vn 0.85801988840103149 0.14154928922653198 -0.49372634291648865
vn 0.87658149003982544 -0.020470362156629562 -0.48081794381141663
vn 0.97849595546722412 0.049122203141450882 -0.2003314346075058
vn 0.8644719123840332 0.13516810536384583 0.48416727781295776
vn 0.86627256870269775 0.13203927874565125 0.48180645704269409
vn 0.86790400743484497 0.12917782366275787 0.47964119911193848
vn 0.92042189836502075 -0.0080662881955504417 0.39084327220916748
vn 0.92042189836502075 -0.0080662881955504417 0.39084327220916748
vn 0.92042189836502075 -0.0080662881955504417 0.39084327220916748
vn 0.82656961679458618 0.56235498189926147 -0.023229226469993591
vn 0.14527149498462677 -0.16111584007740021 0.9761853814125061
vn 0.038352198898792267 0.0042516859248280525 0.99925523996353149
vn 0.44556054472923279 0.2326914519071579 0.86448276042938232
vn 0.87103778123855591 0.49121579527854919 -0.00046703597763553262
vn 0.71300762891769409 -0.019513446837663651 -0.70088469982147217
vn 0.6815418004989624 -0.10381989181041718 -0.7243770956993103
vn 0.68553352355957031 -0.012796647846698761 -0.72792857885360718
vn 0.9963647723197937 -0.081150829792022705 0.025918576866388321
vn 0.99927753210067749 0.023729290813207626 0.029687691479921341
vn 0.99753481149673462 -0.068894989788532257 0.013333684764802456
vn 0.99942058324813843 0.032233722507953644 0.01092942338436842
vn 0.9949270486831665 -0.03238905593752861 -0.095242500305175781
vn 0.89192062616348267 -0.44703772664070129 0.068079903721809387
vn 0.99964720010757446 -0.02368680015206337 0.012017118744552135
vn 0.99724811315536499 -0.065194293856620789 0.035296879708766937
vn 0.99074763059616089 -0.093906901776790619 0.097982600331306458
vn 0.86804413795471191 0.49647459387779236 -0.0035113450139760971
vn 0.99545025825500488 -0.011809874325990677 0.094548046588897705
vn 0.91966259479522705 -0.37867015600204468 0.10406533628702164
vn 0.89227086305618286 -0.43869388103485107 -0.10677268356084824
vn 0.78786957263946533 -0.51178944110870361 -0.3425392210483551
vn 0.064593352377414703 0.99253451824188232 -0.10345485061407089
vn -0.22103515267372131 0.96989899873733521 0.10217360407114029
vn -0.0015865371096879244 -0.097014971077442169 -0.9952816367149353
vn -0.97963595390319824 -0.20076723396778107 -0.0024225867819041014
vn -0.99971300363540649 -0.010242725722491741 -0.021656785160303116
vn -0.9943472146987915 -0.10617536306381226 -0.00064365303842350841
vn -0.78198903799057007 -0.0041633257642388344 0.62327831983566284
vn -0.99899446964263916 -0.017953252419829369 -0.041081700474023819
vn -0.99858206510543823 -0.016867458820343018 -0.050490748137235641
vn -0.70163732767105103 -0.71211075782775879 0.024562526494264603
vn -0.71754258871078491 -0.6052587628364563 0.34466573596000671
vn -0.9978523850440979 0.064730681478977203 -0.010024844668805599
vn -0.9435572624206543 0.11977435648441315 -0.3087940514087677
vn -0.89645391702651978 -0.26209616661071777 0.35731780529022217
vn 0.13146848976612091 0.88466566801071167 0.44730603694915771
vn -0.50491970777511597 0.76418054103851318 0.40135294198989868
vn 0.17582507431507111 0.88085901737213135 0.43951442837715149
vn 0.05737752839922905 0.53992968797683716 -0.839752197265625
vn -0.14883576333522797 0.4731314480304718 -0.86832857131958008
vn 0.26329657435417175 0.9646613597869873 0.010165569372475147
vn -0.17171397805213928 -0.9848020076751709 -0.026063809171319008
vn 0.19536124169826508 -0.98058652877807617 -0.016854755580425262
vn -0.023900797590613365 -0.98537659645080566 0.16870607435703278
vn 0.78164881467819214 -0.33498281240463257 -0.52612888813018799
vn 0.97665643692016602 0.0010686969617381692 -0.21480484306812286
vn 0.7655949592590332 0.020275745540857315 -0.64300334453582764
vn -0.32838818430900574 0.056158658117055893 -0.94287186861038208
vn -0.4453977644443512 -0.027629593387246132 -0.89490640163421631
vn 0.054442960768938065 -0.60414654016494751 0.79501128196716309
vn -0.3709985613822937 -0.73818778991699219 0.56341713666915894
vn -0.20244432985782623 -0.89140349626541138 0.40548259019851685
vn 0.34633636474609375 -0.84617829322814941 0.4050104022026062
vn -6.6964975076189148E-07 0.99375277757644653 0.11160377413034439
vn 0 0.059108030050992966 -0.99825161695480347
vn 1.3574034118946088E-09 -0.97575944662094116 -0.21884596347808838
vn 0.063504844903945923 0.28367090225219727 0.95681655406951904
vn 0.46966138482093811 -0.85757380723953247 0.20972687005996704
vn 0.87981802225112915 0.00030459350091405213 0.47531059384346008
vn 0.88006937503814697 -0.00028870810638181865 0.47484505176544189
vn 0.87987834215164185 0.00016226181469392031 0.47519895434379578
vn -0.0015759974485263228 -0.38464713096618652 -0.92306232452392578
vn -0.21986562013626099 0.90193969011306763 -0.3717041015625
vn 0.71926897764205933 0.23767398297786713 0.65281176567077637
vn -0.99134606122970581 -0.13114817440509796 0.0057550412602722645
vn 0 -0.29741299152374268 0.95474892854690552
vn -8.5809546135351411E-08 0.83672899007797241 -0.54761719703674316
vn 3.6100983313858137E-10 -0.78526252508163452 -0.619162917137146
vn 0.0045711868442595005 0.030121477320790291 0.99953579902648926
vn 0.91946595907211304 -0.11288688331842422 -0.3766150176525116
vn 0.9993857741355896 0.034726418554782867 -0.0047052116133272648
vn 0.10020148009061813 -0.13835355639457703 -0.98530095815658569
vn -0.98479604721069336 0.17338791489601135 0.010648053139448166
usemtl vc_191919__Default
f 1//1 2//2 3//3
f 4//4 5//5 6//6
f 7//7 8//8 9//9
f 5//5 10//10 11//11
f 12//12 13//13 14//14
f 15//15 16//16 17//17
f 15//15 18//18 16//16
f 19//19 20//20 21//21
f 22//22 23//23 24//24
f 25//25 26//26 23//23
f 27//27 28//28 29//29
f 19//19 30//30 20//20
f 31//31 32//32 10//10
f 33//33 34//34 29//29
f 35//35 33//33 29//29
f 36//36 37//37 38//38
f 39//39 40//40 20//20
f 41//41 42//42 43//43
f 44//44 45//45 40//40
f 44//44 40//40 39//39
f 46//46 39//39 30//30
f 46//46 30//30 47//47
f 48//48 47//47 30//30
f 48//48 49//49 47//47
f 50//50 51//51 52//52
f 34//34 53//53 54//54
f 36//36 38//38 55//55
f 56//56 57//57 32//32
f 58//58 59//59 60//60
f 61//61 62//62 63//63
f 39//39 64//64 44//44
f 46//46 64//64 39//39
f 65//65 66//66 67//67
f 68//68 69//69 70//70
f 71//71 72//72 73//73
f 74//74 75//75 76//76
f 77//77 78//78 79//79
f 80//80 81//81 82//82
f 83//83 84//84 85//85
f 86//86 87//87 88//88
f 63//63 89//89 61//61
f 90//90 91//91 92//92
f 90//90 93//93 91//91
f 90//90 92//92 94//94
f 95//95 94//94 92//92
f 96//96 97//97 98//98
f 99//99 100//100 101//101
f 102//102 94//94 95//95
f 103//103 96//96 104//104
f 105//105 106//106 107//107
f 108//108 109//109 110//110
f 111//111 103//103 112//112
f 113//113 114//114 115//115
f 116//116 114//114 113//113
f 117//117 118//118 111//111
f 119//119 120//120 121//121
f 122//122 27//27 119//119
f 33//33 123//123 53//53
f 124//124 123//123 33//33
f 33//33 35//35 125//125
f 122//122 28//28 27//27
f 126//126 127//127 128//128
f 129//129 130//130 131//131
f 131//131 115//115 129//129
f 132//132 133//133 116//116
f 134//134 37//37 36//36
f 135//135 136//136 137//137
f 138//138 139//139 140//140
f 141//141 142//142 143//143
f 144//144 145//145 146//146
f 147//147 145//145 148//148
f 149//149 150//150 151//151
f 152//152 149//149 153//153
f 154//154 155//155 149//149
f 153//153 156//156 152//152
f 157//157 158//158 4//4
f 159//159 160//160 161//161
f 162//162 163//163 164//164
f 165//165 166//166 167//167
f 134//134 168//168 169//169
f 170//170 171//171 172//172
f 173//173 170//170 172//172
f 174//174 175//175 176//176
f 177//177 178//178 179//179
f 116//116 180//180 114//114
f 181//181 182//182 183//183
f 184//184 185//185 186//186
f 181//181 183//183 187//187
f 188//188 189//189 190//190
f 191//191 192//192 193//193
f 194//194 195//195 196//196
f 197//197 198//198 199//199
f 200//200 201//201 202//202
f 203//203 204//204 205//205
f 203//203 206//206 207//207
f 210//210 369//369 208//208 209//209
f 211//211 212//212 213//213
f 214//214 199//199 198//198
f 215//215 216//216 217//217
f 218//218 219//219 220//220
f 221//221 222//222 206//206
f 223//223 206//206 203//203
f 224//224 225//225 226//226
f 227//227 228//228 229//229
f 230//230 231//231 232//232
f 233//233 166//166 165//165
f 234//234 235//235 168//168
f 236//236 237//237 238//238
f 239//239 240//240 241//241
f 242//242 243//243 244//244
f 245//245 180//180 116//116
f 246//246 222//222 221//221
f 247//247 248//248 249//249
f 250//250 251//251 252//252
f 253//253 246//246 221//221
f 214//214 198//198 254//254
f 255//255 256//256 257//257
f 258//258 259//259 260//260
f 261//261 262//262 263//263
f 264//264 265//265 266//266
f 267//267 268//268 269//269
f 270//270 271//271 272//272
f 273//273 274//274 275//275
f 276//276 250//250 277//277
f 278//278 279//279 280//280
f 281//281 282//282 283//283
f 284//284 285//285 286//286
f 271//271 287//287 272//272
f 288//288 289//289 290//290
f 293//293 370//370 291//291 292//292
f 294//294 295//295 296//296
f 297//297 298//298 299//299
f 234//234 300//300 235//235
f 302//302 288//288 303//303 301//301
f 234//234 304//304 300//300
f 305//305 306//306 307//307
f 106//106 90//90 308//308
f 308//308 309//309 106//106
f 312//312 313//313 310//310 311//311
f 93//93 90//90 106//106
f 107//107 106//106 314//314
f 315//315 316//316 314//314
f 309//309 371//371 300//300 317//317
f 94//94 318//318 312//312
f 319//319 318//318 320//320
f 321//321 319//319 320//320
f 12//12 322//322 323//323
f 211//211 372//372 324//324 212//212
f 326//326 373//373 327//327 325//325
f 41//41 23//23 328//328
f 329//329 330//330 50//50
f 331//331 332//332 57//57
f 61//61 333//333 334//334
f 302//302 301//301 116//116
f 141//141 143//143 335//335
f 148//148 145//145 144//144
f 336//336 337//337 338//338
f 150//150 339//339 340//340
f 223//223 203//203 341//341
f 342//342 343//343 344//344
f 345//345 229//229 346//346
f 132//132 116//116 113//113
f 347//347 305//305 307//307
f 348//348 5//5 349//349
f 20//20 30//30 39//39
f 117//117 111//111 112//112
f 53//53 34//34 33//33
f 52//52 89//89 50//50
f 118//118 350//350 132//132
f 134//134 169//169 37//37
f 169//169 168//168 235//235
f 351//351 352//352 353//353
f 309//309 314//314 106//106
f 100//100 354//354 101//101
f 103//103 104//104 112//112
f 47//47 63//63 62//62
f 66//66 355//355 67//67
f 71//71 73//73 356//356
f 96//96 98//98 104//104
f 314//314 316//316 107//107
f 130//130 357//357 131//131
f 353//353 358//358 351//351
f 359//359 360//360 361//361
f 34//34 54//54 362//362
f 58//58 60//60 362//362
f 197//197 199//199 363//363
f 274//274 364//364 275//275
f 45//45 365//365 40//40
f 77//77 79//79 366//366
f 87//87 367//367 88//88
f 97//97 368//368 98//98
f 150//150 340//340 151//151
f 132//132 113//113 118//118
