# Dual color encoding: per-vertex RGB for Rerun, face MTL colors for legacy RViz.
mtllib sim_gene01_r_hand_index_3.mtl
# Rhino

g sim_gene01_r_hand_index_3
v -0.51768931618095415 32.125406932268923 -10.590421748502621 0.0980392157 0.0980392157 0.0980392157
v 0.90239144609563482 32.189113272064759 -12.034450628790168 0.0980392157 0.0980392157 0.0980392157
v -10.669692713685791 31.875862373132556 -9.7642078312026843 0.0980392157 0.0980392157 0.0980392157
v 12.140716500632188 32.17208325913073 -8.8427753369358939 0.0980392157 0.0980392157 0.0980392157
v 11.810168805663434 12.165494856361249 -10.229835793112366 0.0980392157 0.0980392157 0.0980392157
v 0.90239144609563482 32.189113272064759 -12.034450628790168 0.0980392157 0.0980392157 0.0980392157
v 12.140716500632188 32.17208325913073 -8.8427753369358939 0.0980392157 0.0980392157 0.0980392157
v 8.3331987447428677 32.073106175796532 -8.7768378566492942 0.0980392157 0.0980392157 0.0980392157
v -10.669692713685791 31.875862373132556 -9.7642078312026843 0.0980392157 0.0980392157 0.0980392157
v 0.90239144609563482 32.189113272064759 -12.034450628790168 0.0980392157 0.0980392157 0.0980392157
v -12.586722777636053 -1.4258363835069758 -10.587133563069388 0.0980392157 0.0980392157 0.0980392157
v -0.88827355746461123 -5.8336184591791787 -12.814203595968461 0.0980392157 0.0980392157 0.0980392157
v 0.42304483943040161 20.158175322203594 -7.5897828062160251 0.0980392157 0.0980392157 0.0980392157
v -5.9539216887488919 14.267262796642537 -10.182808183474135 0.0980392157 0.0980392157 0.0980392157
v 4.561316891480212 13.972598163929627 -10.426079763740541 0.0980392157 0.0980392157 0.0980392157
v -11.829722874694784 3.3133061350792739 -8.8358359557035069 0.0980392157 0.0980392157 0.0980392157
v -13.587539712990893 14.350686129697618 -8.3789081257354692 0.0980392157 0.0980392157 0.0980392157
v -12.586722777636053 -1.4258363835069758 -10.587133563069388 0.0980392157 0.0980392157 0.0980392157
v -5.9539216887488919 14.267262796642537 -10.182808183474135 0.0980392157 0.0980392157 0.0980392157
v -10.449863219361864 -5.2748613437360321 -9.9420193398367545 0.0980392157 0.0980392157 0.0980392157
v 5.0096790066713917 -4.369633838212474 -11.227312396317279 0.0980392157 0.0980392157 0.0980392157
v -10.449863219361864 -5.2748613437360321 -9.9420193398367545 0.0980392157 0.0980392157 0.0980392157
v 11.214591634217969 4.9741816697286545 -8.9733266317113607 0.0980392157 0.0980392157 0.0980392157
v 11.63897242021763 -3.7001326406056672 -10.679864780848282 0.0980392157 0.0980392157 0.0980392157
v 11.810168805663434 12.165494856361249 -10.229835793112366 0.0980392157 0.0980392157 0.0980392157
v 4.561316891480212 13.972598163929627 -10.426079763740541 0.0980392157 0.0980392157 0.0980392157
v 5.9713690632662946 2.2531770997007907 -10.291770829648893 0.0980392157 0.0980392157 0.0980392157
v 5.0096790066713917 -4.369633838212474 -11.227312396317279 0.0980392157 0.0980392157 0.0980392157
v -10.449863219361864 -5.2748613437360321 -9.9420193398367545 0.0980392157 0.0980392157 0.0980392157
v -0.88827355746461123 -5.8336184591791787 -12.814203595968461 0.0980392157 0.0980392157 0.0980392157
v -13.587539712990893 14.350686129697618 -8.3789081257354692 0.0980392157 0.0980392157 0.0980392157
v -13.644545392014956 31.995036334432811 -7.9005363754058555 0.0980392157 0.0980392157 0.0980392157
v -8.370175370712639 32.495289919959198 -5.2174385011543132 0.0980392157 0.0980392157 0.0980392157
v -13.644545392014956 31.995036334432811 -7.9005363754058555 0.0980392157 0.0980392157 0.0980392157
v -8.1587912827622588 22.499344910718001 -5.3167308140081735 0.0980392157 0.0980392157 0.0980392157
v -10.669692713685791 31.875862373132556 -9.7642078312026843 0.0980392157 0.0980392157 0.0980392157
v -8.370175370712639 32.495289919959198 -5.2174385011543132 0.0980392157 0.0980392157 0.0980392157
v -9.7309302063132286 23.401931388324321 -9.0578236735233748 0.0980392157 0.0980392157 0.0980392157
v -0.51768931618095415 32.125406932268923 -10.590421748502621 0.0980392157 0.0980392157 0.0980392157
v -10.669692713685791 31.875862373132556 -9.7642078312026843 0.0980392157 0.0980392157 0.0980392157
v -9.7309302063132286 23.401931388324321 -9.0578236735233748 0.0980392157 0.0980392157 0.0980392157
v 3.3380153727798962 23.40679786741633 -10.501723325688683 0.0980392157 0.0980392157 0.0980392157
v 8.1419425174505626 18.044963060945996 -8.1954040322453192 0.0980392157 0.0980392157 0.0980392157
v 8.3331987447428677 32.073106175796532 -8.7768378566492942 0.0980392157 0.0980392157 0.0980392157
v 7.8330094134492025 30.846447352267809 -5.1126869998251978 0.0980392157 0.0980392157 0.0980392157
v 8.3331987447428677 32.073106175796532 -8.7768378566492942 0.0980392157 0.0980392157 0.0980392157
v 8.1419425174505626 18.044963060945996 -8.1954040322453192 0.0980392157 0.0980392157 0.0980392157
v 12.764510239953966 31.688785949621639 -4.2350999877592947 0.0980392157 0.0980392157 0.0980392157
v 12.764510239953966 31.688785949621639 -4.2350999877592947 0.0980392157 0.0980392157 0.0980392157
v 8.3331987447428677 32.073106175796532 -8.7768378566492942 0.0980392157 0.0980392157 0.0980392157
v 7.8330094134492025 30.846447352267809 -5.1126869998251978 0.0980392157 0.0980392157 0.0980392157
v 7.1480364356631103 23.351435583310753 -5.1158842298222673 0.0980392157 0.0980392157 0.0980392157
v 12.764510239953966 31.688785949621639 -4.2350999877592947 0.0980392157 0.0980392157 0.0980392157
v 13.025014203000053 15.818523451215828 -4.230186743438705 0.0980392157 0.0980392157 0.0980392157
v 12.140716500632188 32.17208325913073 -8.8427753369358939 0.0980392157 0.0980392157 0.0980392157
v 0.42304483943040161 20.158175322203594 -7.5897828062160251 0.0980392157 0.0980392157 0.0980392157
v 3.3380153727798962 23.40679786741633 -10.501723325688683 0.0980392157 0.0980392157 0.0980392157
v -9.7309302063132286 23.401931388324321 -9.0578236735233748 0.0980392157 0.0980392157 0.0980392157
v -8.1587912827622588 22.499344910718001 -5.3167308140081735 0.0980392157 0.0980392157 0.0980392157
v 0.42304483943040161 20.158175322203594 -7.5897828062160251 0.0980392157 0.0980392157 0.0980392157
v -9.7309302063132286 23.401931388324321 -9.0578236735233748 0.0980392157 0.0980392157 0.0980392157
v 0.91590071984964871 22.76890399639986 -5.2549681693826784 0.0980392157 0.0980392157 0.0980392157
v 0.42304483943040161 20.158175322203594 -7.5897828062160251 0.0980392157 0.0980392157 0.0980392157
v -8.1587912827622588 22.499344910718001 -5.3167308140081735 0.0980392157 0.0980392157 0.0980392157
v 4.561316891480212 13.972598163929627 -10.426079763740541 0.0980392157 0.0980392157 0.0980392157
v 3.3380153727798962 23.40679786741633 -10.501723325688683 0.0980392157 0.0980392157 0.0980392157
v 0.42304483943040161 20.158175322203594 -7.5897828062160251 0.0980392157 0.0980392157 0.0980392157
v 8.1419425174505626 18.044963060945996 -8.1954040322453192 0.0980392157 0.0980392157 0.0980392157
v 3.3380153727798962 23.40679786741633 -10.501723325688683 0.0980392157 0.0980392157 0.0980392157
v 4.561316891480212 13.972598163929627 -10.426079763740541 0.0980392157 0.0980392157 0.0980392157
v 1.1636317659905586 15.464710521364502 -5.3222317205970153 0.0980392157 0.0980392157 0.0980392157
v 0.42304483943040161 20.158175322203594 -7.5897828062160251 0.0980392157 0.0980392157 0.0980392157
v 0.91590071984964871 22.76890399639986 -5.2549681693826784 0.0980392157 0.0980392157 0.0980392157
v 9.2061833535484912 13.463079854380803 -5.2991814042222263 0.0980392157 0.0980392157 0.0980392157
v 7.1480364356631103 23.351435583310753 -5.1158842298222673 0.0980392157 0.0980392157 0.0980392157
v 8.1419425174505626 18.044963060945996 -8.1954040322453192 0.0980392157 0.0980392157 0.0980392157
v 1.1636317659905586 15.464710521364502 -5.3222317205970153 0.0980392157 0.0980392157 0.0980392157
v -5.9539216887488919 14.267262796642537 -10.182808183474135 0.0980392157 0.0980392157 0.0980392157
v 0.42304483943040161 20.158175322203594 -7.5897828062160251 0.0980392157 0.0980392157 0.0980392157
v 11.810168805663434 12.165494856361249 -10.229835793112366 0.0980392157 0.0980392157 0.0980392157
v -13.587539712990893 14.350686129697618 -8.3789081257354692 0.0980392157 0.0980392157 0.0980392157
v -5.9539216887488919 14.267262796642537 -10.182808183474135 0.0980392157 0.0980392157 0.0980392157
v -12.467291661822976 13.462626987227226 -5.2168994755159064 0.0980392157 0.0980392157 0.0980392157
v 1.1636317659905586 15.464710521364502 -5.3222317205970153 0.0980392157 0.0980392157 0.0980392157
v 9.2061833535484912 13.463079854380803 -5.2991814042222263 0.0980392157 0.0980392157 0.0980392157
v 8.1419425174505626 18.044963060945996 -8.1954040322453192 0.0980392157 0.0980392157 0.0980392157
v 11.810168805663434 12.165494856361249 -10.229835793112366 0.0980392157 0.0980392157 0.0980392157
v -13.587539712990893 14.350686129697618 -8.3789081257354692 0.0980392157 0.0980392157 0.0980392157
v -11.829722874694784 3.3133061350792739 -8.8358359557035069 0.0980392157 0.0980392157 0.0980392157
v 5.9713690632662946 2.2531770997007907 -10.291770829648893 0.0980392157 0.0980392157 0.0980392157
v 11.214591634217969 4.9741816697286545 -8.9733266317113607 0.0980392157 0.0980392157 0.0980392157
v 13.025014203000053 15.818523451215828 -4.230186743438705 0.0980392157 0.0980392157 0.0980392157
v 9.2061833535484912 13.463079854380803 -5.2991814042222263 0.0980392157 0.0980392157 0.0980392157
v 11.810168805663434 12.165494856361249 -10.229835793112366 0.0980392157 0.0980392157 0.0980392157
v 11.214591634217969 4.9741816697286545 -8.9733266317113607 0.0980392157 0.0980392157 0.0980392157
v 5.9713690632662946 2.2531770997007907 -10.291770829648893 0.0980392157 0.0980392157 0.0980392157
v 10.84574573569547 5.6442279595283802 -4.9718581970273865 0.0980392157 0.0980392157 0.0980392157
v 11.162118899853599 -2.381742567965389 -5.4763126215162448 0.0980392157 0.0980392157 0.0980392157
v 11.63897242021763 -3.7001326406056672 -10.679864780848282 0.0980392157 0.0980392157 0.0980392157
v 11.214591634217969 4.9741816697286545 -8.9733266317113607 0.0980392157 0.0980392157 0.0980392157
v -11.829722874694784 3.3133061350792739 -8.8358359557035069 0.0980392157 0.0980392157 0.0980392157
v -11.822965476204139 -6.3926381022135201 0.63152448713196152 0.0980392157 0.0980392157 0.0980392157
v -10.449863219361864 -5.2748613437360321 -9.9420193398367545 0.0980392157 0.0980392157 0.0980392157
v 8.295476638132568 -3.0523940829646277 -5.4873616135877459 0.0980392157 0.0980392157 0.0980392157
v 10.84574573569547 5.6442279595283802 -4.9718581970273865 0.0980392157 0.0980392157 0.0980392157
v 5.9713690632662946 2.2531770997007907 -10.291770829648893 0.0980392157 0.0980392157 0.0980392157
v 8.295476638132568 -3.0523940829646277 -5.4873616135877459 0.0980392157 0.0980392157 0.0980392157
v 5.0096790066713917 -4.369633838212474 -11.227312396317279 0.0980392157 0.0980392157 0.0980392157
v 11.63897242021763 -3.7001326406056672 -10.679864780848282 0.0980392157 0.0980392157 0.0980392157
v 11.162118899853599 -2.381742567965389 -5.4763126215162448 0.0980392157 0.0980392157 0.0980392157
v -12.027696432348609 33.290197740788642 0.80050579213170314 0.0980392157 0.0980392157 0.0980392157
v 7.1480364356631103 23.351435583310753 -5.1158842298222673 0.0980392157 0.0980392157 0.0980392157
v 0.91590071984964871 22.76890399639986 -5.2549681693826784 0.0980392157 0.0980392157 0.0980392157
v 7.8330094134492025 30.846447352267809 -5.1126869998251978 0.0980392157 0.0980392157 0.0980392157
v 7.1480364356631103 23.351435583310753 -5.1158842298222673 0.0980392157 0.0980392157 0.0980392157
v 11.68794926504448 22.755780550306408 -5.105967958402184 0.0980392157 0.0980392157 0.0980392157
v 7.8330094134492025 30.846447352267809 -5.1126869998251978 0.0980392157 0.0980392157 0.0980392157
v -13.482467038659792 11.697489591484189 5.1702824368762901 0.0980392157 0.0980392157 0.0980392157
v -14.213572463553877 30.525735694615658 1.2779705843517932 0.0980392157 0.0980392157 0.0980392157
v 1.1636317659905586 15.464710521364502 -5.3222317205970153 0.0980392157 0.0980392157 0.0980392157
v 9.2061833535484912 13.463079854380803 -5.2991814042222263 0.0980392157 0.0980392157 0.0980392157
v -8.7700491310875108 8.2735423896814417 -5.3220286441091753 0.0980392157 0.0980392157 0.0980392157
v 10.84574573569547 5.6442279595283802 -4.9718581970273865 0.0980392157 0.0980392157 0.0980392157
v 9.2061833535484912 13.463079854380803 -5.2991814042222263 0.0980392157 0.0980392157 0.0980392157
v 13.025014203000053 15.818523451215828 -4.230186743438705 0.0980392157 0.0980392157 0.0980392157
v -11.829722874694784 3.3133061350792739 -8.8358359557035069 0.0980392157 0.0980392157 0.0980392157
v -12.586722777636053 -1.4258363835069758 -10.587133563069388 0.0980392157 0.0980392157 0.0980392157
v -14.307714379932314 -3.3532566999916185 -3.9284508480987985 0.0980392157 0.0980392157 0.0980392157
v -11.452593240045285 7.5322627547078405 5.2568668537203829 0.0980392157 0.0980392157 0.0980392157
v 10.84574573569547 5.6442279595283802 -4.9718581970273865 0.0980392157 0.0980392157 0.0980392157
v 6.039775060859859 8.5377125581234008 -4.8986782649767502 0.0980392157 0.0980392157 0.0980392157
v -14.307714379932314 -3.3532566999916185 -3.9284508480987985 0.0980392157 0.0980392157 0.0980392157
v -12.586722777636053 -1.4258363835069758 -10.587133563069388 0.0980392157 0.0980392157 0.0980392157
v -11.822965476204139 -6.3926381022135201 0.63152448713196152 0.0980392157 0.0980392157 0.0980392157
v 6.039775060859859 8.5377125581234008 -4.8986782649767502 0.0980392157 0.0980392157 0.0980392157
v 10.84574573569547 5.6442279595283802 -4.9718581970273865 0.0980392157 0.0980392157 0.0980392157
v 8.295476638132568 -3.0523940829646277 -5.4873616135877459 0.0980392157 0.0980392157 0.0980392157
v 8.7989377498897241 -7.342823540531759 -1.0316632800430365 0.0980392157 0.0980392157 0.0980392157
v -0.26177679883661009 42.194291850108286 1.3547455474027121 0.0980392157 0.0980392157 0.0980392157
v 3.2384982967948086 41.624194977998037 -5.1788170291296485 0.0980392157 0.0980392157 0.0980392157
v -7.1594408144163442 42.279284455164557 0.7605530169437561 0.0980392157 0.0980392157 0.0980392157
v -14.313849566804665 5.8692838544488035 -4.1480565929854141 0.0980392157 0.0980392157 0.0980392157
v -12.467291661822976 13.462626987227226 -5.2168994755159064 0.0980392157 0.0980392157 0.0980392157
v 6.039775060859859 8.5377125581234008 -4.8986782649767502 0.0980392157 0.0980392157 0.0980392157
v -11.452593240045285 7.5322627547078405 5.2568668537203829 0.0980392157 0.0980392157 0.0980392157
v -11.829722874694784 3.3133061350792739 -8.8358359557035069 0.0980392157 0.0980392157 0.0980392157
v -8.7700491310875108 8.2735423896814417 -5.3220286441091753 0.0980392157 0.0980392157 0.0980392157
v 7.170404224477557 36.366955418011038 1.1294447962423049 0.0980392157 0.0980392157 0.0980392157
v 7.8330094134492025 30.846447352267809 -5.1126869998251978 0.0980392157 0.0980392157 0.0980392157
v 3.2384982967948086 41.624194977998037 -5.1788170291296485 0.0980392157 0.0980392157 0.0980392157
v 2.1981948068394872 37.757587047571505 -0.43736340644563676 0.0980392157 0.0980392157 0.0980392157
v 3.2384982967948086 41.624194977998037 -5.1788170291296485 0.0980392157 0.0980392157 0.0980392157
v -0.26177679883661009 42.194291850108286 1.3547455474027121 0.0980392157 0.0980392157 0.0980392157
v -12.027696432348609 33.290197740788642 0.80050579213170314 0.0980392157 0.0980392157 0.0980392157
v -7.1594408144163442 42.279284455164557 0.7605530169437561 0.0980392157 0.0980392157 0.0980392157
v -7.8519910758481748 40.24081753999377 -4.9702949651911466 0.0980392157 0.0980392157 0.0980392157
v 7.170404224477557 36.366955418011038 1.1294447962423049 0.0980392157 0.0980392157 0.0980392157
v 3.2384982967948086 41.624194977998037 -5.1788170291296485 0.0980392157 0.0980392157 0.0980392157
v 2.1981948068394872 37.757587047571505 -0.43736340644563676 0.0980392157 0.0980392157 0.0980392157
v 12.764510239953966 31.688785949621639 -4.2350999877592947 0.0980392157 0.0980392157 0.0980392157
v 7.8330094134492025 30.846447352267809 -5.1126869998251978 0.0980392157 0.0980392157 0.0980392157
v 7.170404224477557 36.366955418011038 1.1294447962423049 0.0980392157 0.0980392157 0.0980392157
v 8.5202127709748652 32.291858234574896 0.26658048142913038 0.0980392157 0.0980392157 0.0980392157
v 7.8330094134492025 30.846447352267809 -5.1126869998251978 0.0980392157 0.0980392157 0.0980392157
v 12.764510239953966 31.688785949621639 -4.2350999877592947 0.0980392157 0.0980392157 0.0980392157
v 5.2014118585774858 28.602942338789198 -0.89604219638615823 0.0980392157 0.0980392157 0.0980392157
v 7.8330094134492025 30.846447352267809 -5.1126869998251978 0.0980392157 0.0980392157 0.0980392157
v 8.5202127709748652 32.291858234574896 0.26658048142913038 0.0980392157 0.0980392157 0.0980392157
v 5.9356455481203856 21.365408764151848 1.4489647358127307 0.0980392157 0.0980392157 0.0980392157
v 7.1480364356631103 23.351435583310753 -5.1158842298222673 0.0980392157 0.0980392157 0.0980392157
v 5.2014118585774858 28.602942338789198 -0.89604219638615823 0.0980392157 0.0980392157 0.0980392157
v 11.68794926504448 22.755780550306408 -5.105967958402184 0.0980392157 0.0980392157 0.0980392157
v 7.1480364356631103 23.351435583310753 -5.1158842298222673 0.0980392157 0.0980392157 0.0980392157
v 5.9356455481203856 21.365408764151848 1.4489647358127307 0.0980392157 0.0980392157 0.0980392157
v -13.482467038659792 11.697489591484189 5.1702824368762901 0.0980392157 0.0980392157 0.0980392157
v -12.467291661822976 13.462626987227226 -5.2168994755159064 0.0980392157 0.0980392157 0.0980392157
v -14.313849566804665 5.8692838544488035 -4.1480565929854141 0.0980392157 0.0980392157 0.0980392157
v -13.482467038659792 11.697489591484189 5.1702824368762901 0.0980392157 0.0980392157 0.0980392157
v -13.772839388013365 -3.1992897197184185 4.9880247313479984 0.0980392157 0.0980392157 0.0980392157
v -11.452593240045285 7.5322627547078405 5.2568668537203829 0.0980392157 0.0980392157 0.0980392157
v -11.452593240045285 7.5322627547078405 5.2568668537203829 0.0980392157 0.0980392157 0.0980392157
v -8.7700491310875108 8.2735423896814417 -5.3220286441091753 0.0980392157 0.0980392157 0.0980392157
v -8.9341283210876181 9.8601429370836868 0.31654295474207705 0.0980392157 0.0980392157 0.0980392157
v -8.7700491310875108 8.2735423896814417 -5.3220286441091753 0.0980392157 0.0980392157 0.0980392157
v 6.039775060859859 8.5377125581234008 -4.8986782649767502 0.0980392157 0.0980392157 0.0980392157
v -8.9341283210876181 9.8601429370836868 0.31654295474207705 0.0980392157 0.0980392157 0.0980392157
v 14.559061871874627 -0.24673099954687583 0.07979981408830597 0.0980392157 0.0980392157 0.0980392157
v 10.84574573569547 5.6442279595283802 -4.9718581970273865 0.0980392157 0.0980392157 0.0980392157
v 11.836188844606522 4.4081367831627798 3.8935466950765059 0.0980392157 0.0980392157 0.0980392157
v 14.559061871874627 -0.24673099954687583 0.07979981408830597 0.0980392157 0.0980392157 0.0980392157
v 11.162118899853599 -2.381742567965389 -5.4763126215162448 0.0980392157 0.0980392157 0.0980392157
v 8.7989377498897241 -7.342823540531759 -1.0316632800430365 0.0980392157 0.0980392157 0.0980392157
v 13.088415523494506 29.265537392972202 1.9219829171977036 0.0980392157 0.0980392157 0.0980392157
v 12.764510239953966 31.688785949621639 -4.2350999877592947 0.0980392157 0.0980392157 0.0980392157
v 7.170404224477557 36.366955418011038 1.1294447962423049 0.0980392157 0.0980392157 0.0980392157
v 13.088415523494506 29.265537392972202 1.9219829171977036 0.0980392157 0.0980392157 0.0980392157
v 8.5202127709748652 32.291858234574896 0.26658048142913038 0.0980392157 0.0980392157 0.0980392157
v 12.764510239953966 31.688785949621639 -4.2350999877592947 0.0980392157 0.0980392157 0.0980392157
v 7.5879670523235676 28.142096028366907 4.8595199441783192 0.0980392157 0.0980392157 0.0980392157
v 5.2014118585774858 28.602942338789198 -0.89604219638615823 0.0980392157 0.0980392157 0.0980392157
v 8.5202127709748652 32.291858234574896 0.26658048142913038 0.0980392157 0.0980392157 0.0980392157
v 13.088415523494506 29.265537392972202 1.9219829171977036 0.0980392157 0.0980392157 0.0980392157
v 12.764510239953966 31.688785949621639 -4.2350999877592947 0.0980392157 0.0980392157 0.0980392157
v 11.68794926504448 22.755780550306408 -5.105967958402184 0.0980392157 0.0980392157 0.0980392157
v 12.012092171689781 24.65462260633182 6.5319012022465008 0.0980392157 0.0980392157 0.0980392157
v 11.68794926504448 22.755780550306408 -5.105967958402184 0.0980392157 0.0980392157 0.0980392157
v 5.9356455481203856 21.365408764151848 1.4489647358127307 0.0980392157 0.0980392157 0.0980392157
v 7.5879670523235676 28.142096028366907 4.8595199441783192 0.0980392157 0.0980392157 0.0980392157
v 5.9356455481203856 21.365408764151848 1.4489647358127307 0.0980392157 0.0980392157 0.0980392157
v 5.2014118585774858 28.602942338789198 -0.89604219638615823 0.0980392157 0.0980392157 0.0980392157
v 6.039775060859859 8.5377125581234008 -4.8986782649767502 0.0980392157 0.0980392157 0.0980392157
v 6.9391659622552453 8.1923485310536197 4.8272914542371685 0.0980392157 0.0980392157 0.0980392157
v 13.025014203000053 15.818523451215828 -4.230186743438705 0.0980392157 0.0980392157 0.0980392157
v 12.588282158503636 14.81163584194204 5.6865663278895635 0.0980392157 0.0980392157 0.0980392157
v 9.5813651761647609 -3.5243246719799721 6.0036365374270515 0.0980392157 0.0980392157 0.0980392157
v 14.559061871874627 -0.24673099954687583 0.07979981408830597 0.0980392157 0.0980392157 0.0980392157
v 9.5813651761647609 -3.5243246719799721 6.0036365374270515 0.0980392157 0.0980392157 0.0980392157
v 6.9391659622552453 8.1923485310536197 4.8272914542371685 0.0980392157 0.0980392157 0.0980392157
v 8.7989377498897241 -7.342823540531759 -1.0316632800430365 0.0980392157 0.0980392157 0.0980392157
v -13.772839388013365 -3.1992897197184185 4.9880247313479984 0.0980392157 0.0980392157 0.0980392157
v -14.307714379932314 -3.3532566999916185 -3.9284508480987985 0.0980392157 0.0980392157 0.0980392157
v -11.822965476204139 -6.3926381022135201 0.63152448713196152 0.0980392157 0.0980392157 0.0980392157
v 7.170404224477557 36.366955418011038 1.1294447962423049 0.0980392157 0.0980392157 0.0980392157
v 2.1981948068394872 37.757587047571505 -0.43736340644563676 0.0980392157 0.0980392157 0.0980392157
v -0.26177679883661009 42.194291850108286 1.3547455474027121 0.0980392157 0.0980392157 0.0980392157
v 5.5564201279911671 40.491326616697961 5.1519063547579993 0.0980392157 0.0980392157 0.0980392157
v 7.170404224477557 36.366955418011038 1.1294447962423049 0.0980392157 0.0980392157 0.0980392157
v -0.26177679883661009 42.194291850108286 1.3547455474027121 0.0980392157 0.0980392157 0.0980392157
v -7.3151922967111762 40.085678368814087 5.2427663384068621 0.0980392157 0.0980392157 0.0980392157
v 7.5879670523235676 28.142096028366907 4.8595199441783192 0.0980392157 0.0980392157 0.0980392157
v 8.5202127709748652 32.291858234574896 0.26658048142913038 0.0980392157 0.0980392157 0.0980392157
v 13.088415523494506 29.265537392972202 1.9219829171977036 0.0980392157 0.0980392157 0.0980392157
v 9.5813651761647609 -3.5243246719799721 6.0036365374270515 0.0980392157 0.0980392157 0.0980392157
v 8.7989377498897241 -7.342823540531759 -1.0316632800430365 0.0980392157 0.0980392157 0.0980392157
v -12.027696432348609 33.290197740788642 0.80050579213170314 0.0980392157 0.0980392157 0.0980392157
v -7.7497312625970114 25.683543297746901 5.3663937721384647 0.0980392157 0.0980392157 0.0980392157
v -7.3151922967111762 40.085678368814087 5.2427663384068621 0.0980392157 0.0980392157 0.0980392157
v -7.7497312625970114 25.683543297746901 5.3663937721384647 0.0980392157 0.0980392157 0.0980392157
v -12.027696432348609 33.290197740788642 0.80050579213170314 0.0980392157 0.0980392157 0.0980392157
v -14.213572463553877 30.525735694615658 1.2779705843517932 0.0980392157 0.0980392157 0.0980392157
v 7.5879670523235676 28.142096028366907 4.8595199441783192 0.0980392157 0.0980392157 0.0980392157
v 13.088415523494506 29.265537392972202 1.9219829171977036 0.0980392157 0.0980392157 0.0980392157
v 7.170404224477557 36.366955418011038 1.1294447962423049 0.0980392157 0.0980392157 0.0980392157
v -12.137625942599698 23.913381769960989 7.1316261069183104 0.0980392157 0.0980392157 0.0980392157
v -7.7497312625970114 25.683543297746901 5.3663937721384647 0.0980392157 0.0980392157 0.0980392157
v -14.213572463553877 30.525735694615658 1.2779705843517932 0.0980392157 0.0980392157 0.0980392157
v -7.7497312625970114 25.683543297746901 5.3663937721384647 0.0980392157 0.0980392157 0.0980392157
v 0.91948991682677272 22.475441095975167 8.3944274194314534 0.0980392157 0.0980392157 0.0980392157
v 12.012092171689781 24.65462260633182 6.5319012022465008 0.0980392157 0.0980392157 0.0980392157
v 12.012092171689781 24.65462260633182 6.5319012022465008 0.0980392157 0.0980392157 0.0980392157
v 12.588282158503636 14.81163584194204 5.6865663278895635 0.0980392157 0.0980392157 0.0980392157
v 13.088415523494506 29.265537392972202 1.9219829171977036 0.0980392157 0.0980392157 0.0980392157
v 6.9391659622552453 8.1923485310536197 4.8272914542371685 0.0980392157 0.0980392157 0.0980392157
v -13.482467038659792 11.697489591484189 5.1702824368762901 0.0980392157 0.0980392157 0.0980392157
v 5.5564201279911671 40.491326616697961 5.1519063547579993 0.0980392157 0.0980392157 0.0980392157
v -7.3151922967111762 40.085678368814087 5.2427663384068621 0.0980392157 0.0980392157 0.0980392157
v 7.5879670523235676 28.142096028366907 4.8595199441783192 0.0980392157 0.0980392157 0.0980392157
v 5.5564201279911671 40.491326616697961 5.1519063547579993 0.0980392157 0.0980392157 0.0980392157
v -7.3151922967111762 40.085678368814087 5.2427663384068621 0.0980392157 0.0980392157 0.0980392157
v 7.170404224477557 36.366955418011038 1.1294447962423049 0.0980392157 0.0980392157 0.0980392157
v -12.137625942599698 23.913381769960989 7.1316261069183104 0.0980392157 0.0980392157 0.0980392157
v 0.91948991682677272 22.475441095975167 8.3944274194314534 0.0980392157 0.0980392157 0.0980392157
v -7.7497312625970114 25.683543297746901 5.3663937721384647 0.0980392157 0.0980392157 0.0980392157
v 4.5249249297532401 13.863016463239697 8.7372844605612272 0.0980392157 0.0980392157 0.0980392157
v -9.3421384246420658 13.893434692633392 8.0878360772205813 0.0980392157 0.0980392157 0.0980392157
v -13.482467038659792 11.697489591484189 5.1702824368762901 0.0980392157 0.0980392157 0.0980392157
v 6.9391659622552453 8.1923485310536197 4.8272914542371685 0.0980392157 0.0980392157 0.0980392157
v 8.0979202466578624 12.650438975763326 5.6244732471031575 0.0980392157 0.0980392157 0.0980392157
v 8.0979202466578624 12.650438975763326 5.6244732471031575 0.0980392157 0.0980392157 0.0980392157
v 12.588282158503636 14.81163584194204 5.6865663278895635 0.0980392157 0.0980392157 0.0980392157
v 4.5249249297532401 13.863016463239697 8.7372844605612272 0.0980392157 0.0980392157 0.0980392157
v 8.0979202466578624 12.650438975763326 5.6244732471031575 0.0980392157 0.0980392157 0.0980392157
v 9.5813651761647609 -3.5243246719799721 6.0036365374270515 0.0980392157 0.0980392157 0.0980392157
v 11.836188844606522 4.4081367831627798 3.8935466950765059 0.0980392157 0.0980392157 0.0980392157
v 8.0979202466578624 12.650438975763326 5.6244732471031575 0.0980392157 0.0980392157 0.0980392157
v -9.3421384246420658 13.893434692633392 8.0878360772205813 0.0980392157 0.0980392157 0.0980392157
v -12.137625942599698 23.913381769960989 7.1316261069183104 0.0980392157 0.0980392157 0.0980392157
v 4.5249249297532401 13.863016463239697 8.7372844605612272 0.0980392157 0.0980392157 0.0980392157
v 12.588282158503636 14.81163584194204 5.6865663278895635 0.0980392157 0.0980392157 0.0980392157
v 0.91948991682677272 22.475441095975167 8.3944274194314534 0.0980392157 0.0980392157 0.0980392157
v 8.3331987447428677 32.073106175796532 -8.7768378566492942 0.0980392157 0.0980392157 0.0980392157
v 11.63897242021763 -3.7001326406056672 -10.679864780848282 0.0980392157 0.0980392157 0.0980392157
v -11.822965476204139 -6.3926381022135201 0.63152448713196152 0.0980392157 0.0980392157 0.0980392157
v -8.370175370712639 32.495289919959198 -5.2174385011543132 0.0980392157 0.0980392157 0.0980392157
v -7.8519910758481748 40.24081753999377 -4.9702949651911466 0.0980392157 0.0980392157 0.0980392157
v 3.2384982967948086 41.624194977998037 -5.1788170291296485 0.0980392157 0.0980392157 0.0980392157
v 12.012092171689781 24.65462260633182 6.5319012022465008 0.0980392157 0.0980392157 0.0980392157
v 8.295476638132568 -3.0523940829646277 -5.4873616135877459 0.0980392157 0.0980392157 0.0980392157
v 11.162118899853599 -2.381742567965389 -5.4763126215162448 0.0980392157 0.0980392157 0.0980392157
v 8.7989377498897241 -7.342823540531759 -1.0316632800430365 0.0980392157 0.0980392157 0.0980392157
v -7.8519910758481748 40.24081753999377 -4.9702949651911466 0.0980392157 0.0980392157 0.0980392157
v -11.829722874694784 3.3133061350792739 -8.8358359557035069 0.0980392157 0.0980392157 0.0980392157
v -12.027696432348609 33.290197740788642 0.80050579213170314 0.0980392157 0.0980392157 0.0980392157
v -14.213572463553877 30.525735694615658 1.2779705843517932 0.0980392157 0.0980392157 0.0980392157
v -14.307714379932314 -3.3532566999916185 -3.9284508480987985 0.0980392157 0.0980392157 0.0980392157
v -13.772839388013365 -3.1992897197184185 4.9880247313479984 0.0980392157 0.0980392157 0.0980392157
v 12.764510239953966 31.688785949621639 -4.2350999877592947 0.0980392157 0.0980392157 0.0980392157
v 5.2014118585774858 28.602942338789198 -0.89604219638615823 0.0980392157 0.0980392157 0.0980392157
v 7.1480364356631103 23.351435583310753 -5.1158842298222673 0.0980392157 0.0980392157 0.0980392157
v 7.8330094134492025 30.846447352267809 -5.1126869998251978 0.0980392157 0.0980392157 0.0980392157
v -12.137625942599698 23.913381769960989 7.1316261069183104 0.0980392157 0.0980392157 0.0980392157
v 11.63897242021763 -3.7001326406056672 -10.679864780848282 0.0980392157 0.0980392157 0.0980392157
v -13.482467038659792 11.697489591484189 5.1702824368762901 0.0980392157 0.0980392157 0.0980392157
v -12.467291661822976 13.462626987227226 -5.2168994755159064 0.0980392157 0.0980392157 0.0980392157
v 7.5879670523235676 28.142096028366907 4.8595199441783192 0.0980392157 0.0980392157 0.0980392157
v 12.012092171689781 24.65462260633182 6.5319012022465008 0.0980392157 0.0980392157 0.0980392157
v 5.9356455481203856 21.365408764151848 1.4489647358127307 0.0980392157 0.0980392157 0.0980392157
v 6.9391659622552453 8.1923485310536197 4.8272914542371685 0.0980392157 0.0980392157 0.0980392157
v -11.452593240045285 7.5322627547078405 5.2568668537203829 0.0980392157 0.0980392157 0.0980392157
v 12.588282158503636 14.81163584194204 5.6865663278895635 0.0980392157 0.0980392157 0.0980392157
v 7.5879670523235676 28.142096028366907 4.8595199441783192 0.0980392157 0.0980392157 0.0980392157
v -12.027696432348609 33.290197740788642 0.80050579213170314 0.0980392157 0.0980392157 0.0980392157
v -7.8519910758481748 40.24081753999377 -4.9702949651911466 0.0980392157 0.0980392157 0.0980392157
v -8.370175370712639 32.495289919959198 -5.2174385011543132 0.0980392157 0.0980392157 0.0980392157
v 11.810168805663434 12.165494856361249 -10.229835793112366 0.0980392157 0.0980392157 0.0980392157
v 10.84574573569547 5.6442279595283802 -4.9718581970273865 0.0980392157 0.0980392157 0.0980392157
v -8.1587912827622588 22.499344910718001 -5.3167308140081735 0.0980392157 0.0980392157 0.0980392157
v -13.482467038659792 11.697489591484189 5.1702824368762901 0.0980392157 0.0980392157 0.0980392157
v -13.772839388013365 -3.1992897197184185 4.9880247313479984 0.0980392157 0.0980392157 0.0980392157
v 5.0096790066713917 -4.369633838212474 -11.227312396317279 0.0980392157 0.0980392157 0.0980392157
v 6.039775060859859 8.5377125581234008 -4.8986782649767502 0.0980392157 0.0980392157 0.0980392157
v -7.7497312625970114 25.683543297746901 5.3663937721384647 0.0980392157 0.0980392157 0.0980392157
v 7.8330094134492025 30.846447352267809 -5.1126869998251978 0.0980392157 0.0980392157 0.0980392157
vn 0.0019977730698883533 0.99858260154724121 0.053186859935522079
vn -0.005385691300034523 0.99899387359619141 0.044521663337945938
vn 0.010055145248770714 0.99887526035308838 0.046337120234966278
vn 0.53032875061035156 0.054715096950531006 -0.84602463245391846
vn 0.39012345671653748 0.038873955607414246 -0.91994160413742065
vn 0.074878029525279999 0.058976892381906509 -0.99544715881347656
vn -0.019319312646985054 0.99921214580535889 0.034667138010263443
vn -0.014829538762569427 0.99933195114135742 0.033401884138584137
vn -0.42628166079521179 0.042188093066215515 -0.90360617637634277
vn 0.046698007732629776 0.023216206580400467 -0.99863922595977783
vn -0.31456363201141357 0.024708162993192673 -0.94891476631164551
vn -0.010165262967348099 0.016554521396756172 -0.99981129169464111
vn 0.34419417381286621 -0.79868632555007935 0.49358943104743958
vn -0.18784540891647339 -0.81186121702194214 0.55280691385269165
vn 0.64908427000045776 -0.68742674589157104 0.32578223943710327
vn -0.96504020690917969 -0.019821899011731148 0.26135122776031494
vn -0.87412995100021362 -0.11397793143987656 0.47212907671928406
vn -0.9810149073600769 -0.094763986766338348 0.16920258104801178
vn 0.19183310866355896 -0.0080593526363372803 0.98139446973800659
vn 0.19982102513313293 -0.04220866784453392 0.97892284393310547
vn -0.12555642426013947 -0.020123159512877464 0.99188238382339478
vn -0.19498369097709656 0.040678888559341431 -0.97996252775192261
vn 0.96385735273361206 -0.042533095926046371 0.26300176978111267
vn 0.95909106731414795 -0.24568973481655121 0.14064440131187439
vn 0.8577723503112793 -0.1377989798784256 0.49521514773368835
vn -0.19572345912456512 -0.011916720308363438 0.9805867075920105
vn -0.15881958603858948 -0.030956443399190903 0.98682218790054321
vn 0.086348623037338257 -0.99540811777114868 -0.041311249136924744
vn -0.37771916389465332 -0.9253196120262146 0.03334365040063858
vn 0.032862678170204163 -0.99796468019485474 -0.054649036377668381
vn -0.95756840705871582 -0.023738499730825424 -0.28722682595252991
vn -0.90308487415313721 0.042016375809907913 -0.42740187048912048
vn -0.047207936644554138 0.99266833066940308 -0.11127004772424698
vn -0.113029845058918 0.99358302354812622 0.0041206078603863716
vn 0.91487962007522583 0.060912996530532837 -0.39910507202148438
vn 0.84261971712112427 0.075667731463909149 -0.53316634893417358
vn 0.81458932161331177 -0.00065824168268591166 -0.58003771305084229
vn 0.27936094999313354 -0.059253301471471786 0.95835614204406738
vn -0.012287382036447525 -0.029196294024586678 0.99949818849563599
vn 0.29123976826667786 -0.066880762577056885 0.95430934429168701
vn 0.92488360404968262 0.082551129162311554 -0.3711814284324646
vn -0.12000443786382675 -0.03912007063627243 0.99200230836868286
vn -0.22491681575775146 -0.046766996383666992 0.9732549786567688
vn -0.25848621129989624 -0.060643669217824936 0.96410953998565674
vn -0.96159040927886963 -0.17823661863803864 -0.20874777436256409
vn -0.92445468902587891 -0.30106416344642639 -0.23397412896156311
vn -0.89820706844329834 0.16919609904289246 -0.40570527315139771
vn -0.0064602792263031006 0.99900799989700317 0.044059295207262039
vn 0.263538658618927 0.90824198722839355 -0.32502895593643188
vn 0.263538658618927 0.90824198722839355 -0.32502895593643188
vn 0.263538658618927 0.90824198722839355 -0.32502895593643188
vn -0.94230526685714722 -0.037947937846183777 -0.33259689807891846
vn 0.99227845668792725 0.0020207096822559834 -0.12401372194290161
vn 0.99910205602645874 -0.00057490915060043335 -0.042364079505205154
vn 0.9394834041595459 0.047774404287338257 -0.33924707770347595
vn 0.088854663074016571 0.56467539072036743 0.82051599025726318
vn 0.27011564373970032 0.63182699680328369 0.7265205979347229
vn -0.093380659818649292 0.43493196368217468 0.89560830593109131
vn 0.33281427621841431 0.90896147489547729 -0.25104525685310364
vn 0.33281427621841431 0.90896147489547729 -0.25104525685310364
vn 0.33281427621841431 0.90896147489547729 -0.25104525685310364
vn -0.085527561604976654 0.96192079782485962 -0.25960233807563782
vn -0.15353071689605713 0.96496313810348511 -0.21277798712253571
vn -0.14275862276554108 0.90168529748916626 -0.40814650058746338
vn 0.47636979818344116 -0.0066337930038571358 0.87922000885009766
vn 0.46292808651924133 0.035516716539859772 0.88568401336669922
vn 0.48679104447364807 0.12240822613239288 0.86489921808242798
vn -0.49949720501899719 -0.14607316255569458 0.85391169786453247
vn -0.54278534650802612 -0.066113360226154327 0.8372652530670166
vn -0.51853156089782715 -0.22322073578834534 0.82540750503540039
vn 0.96137124300003052 0.079162664711475372 -0.26362597942352295
vn 0.97032558917999268 0.03215397521853447 -0.2396547794342041
vn 0.98276615142822266 0.047546688467264175 -0.17863357067108154
vn -0.97490131855010986 -0.084757506847381592 -0.20587271451950073
vn -0.88027918338775635 0.037206489592790604 -0.47299501299858093
vn -0.96411538124084473 0.062584526836872101 -0.25800144672393799
vn 0.59180372953414917 -0.73394221067428589 -0.33331239223480225
vn 0.59180372953414917 -0.73394221067428589 -0.33331239223480225
vn 0.59180372953414917 -0.73394221067428589 -0.33331239223480225
vn -0.15814515948295593 -0.49582010507583618 0.85390430688858032
vn -0.03944053128361702 -0.99876505136489868 -0.03021339513361454
vn 0.10346885770559311 -0.9946211576461792 -0.0047961990348994732
vn 0.030346402898430824 -0.99878668785095215 -0.038783930242061615
vn 0.12767738103866577 -0.99172115325927734 0.013700085692107677
vn -0.99652367830276489 -0.064699381589889526 -0.052483830600976944
vn -0.99984210729598999 -0.016783939674496651 -0.0058384356088936329
vn -0.96294218301773071 -0.19830557703971863 -0.18280386924743652
vn 0.22102963924407959 -0.043636690825223923 0.97429037094116211
vn 0.21225687861442566 -0.037762761116027832 0.97648400068283081
vn -0.17554859817028046 -0.016590708866715431 0.98433095216751099
vn -0.21682193875312805 -0.017195504158735275 0.97605973482131958
vn 0.76129347085952759 -0.57150501012802124 0.30629119277000427
vn 0.74270480871200562 -0.58245772123336792 0.33035215735435486
vn 0.78381073474884033 -0.55669540166854858 0.27519255876541138
vn -0.084364034235477448 0.99643468856811523 0.00076820963295176625
vn -0.087806627154350281 0.99613511562347412 0.0021882543805986643
vn -0.085693202912807465 0.99632072448730469 0.0013164266711100936
vn 0.99366968870162964 0.061114214360713959 0.09426320344209671
vn 0.99341875314712524 0.040766097605228424 0.10703901201486588
vn 0.98658549785614014 0.10372951626777649 0.12605233490467072
vn 0.98367083072662354 0.0088464953005313873 0.17975938320159912
vn 0.99875372648239136 0.031552307307720184 0.038670293986797333
vn 0.95655333995819092 0.066979587078094482 0.28375953435897827
vn -0.91590762138366699 -0.030624296516180038 0.40021923184394836
vn -0.86403906345367432 0.028871968388557434 0.50259613990783691
vn -0.89648187160491943 -0.019362524151802063 0.44265717267990112
vn 0.13449631631374359 -0.99088668823242188 0.0073659638874232769
vn 0.064889542758464813 -0.99789178371429443 0.0011620199074968696
vn 0.15952736139297485 -0.98689061403274536 0.024453690275549889
vn 0.13485264778137207 -0.99015682935714722 0.037473112344741821
vn -0.082617335021495819 0.95426201820373535 -0.28732982277870178
vn 0.0021346947178244591 0.0032757071312516928 -0.99999237060546875
vn 0.00077332934597507119 0.0011216695420444012 -0.99999904632568359
vn -0.0014033748302608728 -0.0010351926321163774 -0.99999845027923584
vn 0.086633644998073578 0.011626256629824638 0.99617236852645874
vn 0.091061770915985107 0.0056855431757867336 0.99582898616790771
vn 0.12810643017292023 0.0088093895465135574 0.99172127246856689
vn -0.94066870212554932 -0.027062810957431793 0.33824554085731506
vn -0.99984288215637207 -0.0090874424204230309 0.015218609943985939
vn 0.0031681996770203114 0.0038402380887418985 -0.99998760223388672
vn 0.0069638686254620552 -0.022592844441533089 -0.99972051382064819
vn -0.066652856767177582 0.0079751079902052879 -0.99774438142776489
vn 0.96662837266921997 0.065606206655502319 -0.24763977527618408
vn 0.93149358034133911 0.18680709600448608 -0.31212624907493591
vn 0.88974934816360474 0.22473961114883423 -0.39728856086730957
vn -0.93800210952758789 0.039484567940235138 -0.34437340497970581
vn -0.92248111963272095 -0.078924819827079773 -0.37788808345794678
vn -0.88479244709014893 -0.071303337812423706 -0.46049767732620239
vn 0.99627792835235596 -0.040843423455953598 -0.075908571481704712
vn 0.26479208469390869 0.04221576452255249 -0.96338099241256714
vn -0.0004020440683234483 0.0050234817899763584 -0.99998730421066284
vn -0.16998608410358429 -0.98071807622909546 -0.096420086920261383
vn -0.16998608410358429 -0.98071807622909546 -0.096420086920261383
vn -0.16998608410358429 -0.98071807622909546 -0.096420086920261383
vn -0.92988699674606323 0.013949374668300152 -0.36758068203926086
vn -0.89626330137252808 0.10469028353691101 -0.43098965287208557
vn -0.98732203245162964 -0.060459822416305542 -0.14676444232463837
vn -0.99632483720779419 -0.085441328585147858 -0.0060482011176645756
vn 0.002647915156558156 0.99534100294113159 0.096380628645420074
vn 0.051852267235517502 0.99860113859176636 -0.010349965654313564
vn -0.082781799137592316 0.99386173486709595 0.073389261960983276
vn -0.57127243280410767 0.033566471189260483 -0.82007384300231934
vn -0.047001674771308899 -0.014063155278563499 -0.99879580736160278
vn 0.026231374591588974 -0.0031576897017657757 -0.99965089559555054
vn 0.64547461271286011 -0.72673559188842773 0.2349848747253418
vn 0.56779325008392334 -0.81049317121505737 -0.14391548931598663
vn 0.60648787021636963 -0.79504209756851196 -0.0089739598333835602
vn 0.81858807802200317 0.012813151814043522 -0.574238121509552
vn 0.77064883708953857 0.34671595692634583 -0.53468531370162964
vn 0.7753027081489563 -0.31120577454566956 -0.54959684610366821
vn 0.74004447460174561 0.45334801077842712 0.49679949879646301
vn 0.69124299287796021 0.5334898829460144 0.48741328716278076
vn 0.77671551704406738 0.39941146969795227 0.48701488971710205
vn -0.86723244190216064 0.49423083662986755 0.060364048928022385
vn -0.85326218605041504 0.49393334984779358 0.16725262999534607
vn -0.86030560731887817 0.47321438789367676 -0.18958491086959839
vn 0.012839722447097301 0.99764728546142578 0.067342489957809448
vn -0.097753249108791351 0.88483971357345581 0.45552495121955872
vn 0.082623258233070374 0.99600028991699219 0.034011270850896835
vn 0.13325129449367523 0.61697828769683838 -0.77561712265014648
vn 0.092303454875946045 0.56786489486694336 -0.81793004274368286
vn 0.18635398149490356 0.6765209436416626 -0.71245461702346802
vn -0.12418694794178009 -0.91226357221603394 0.39032387733459473
vn -0.12418694794178009 -0.91226357221603394 0.39032387733459473
vn -0.12418694794178009 -0.91226357221603394 0.39032387733459473
vn 0.77545559406280518 -0.60802376270294189 0.17022253572940826
vn 0.77545559406280518 -0.60802376270294189 0.17022253572940826
vn 0.77545559406280518 -0.60802376270294189 0.17022253572940826
vn 0.99973529577255249 0.013613015413284302 0.018549405038356781
vn 0.93794190883636475 0.22485850751399994 0.26401436328887939
vn 0.99931603670120239 -0.02143285796046257 -0.030135247856378555
vn 0.35686004161834717 0.93145519495010376 0.071008250117301941
vn 0.35686004161834717 0.93145519495010376 0.071008250117301941
vn 0.35686004161834717 0.93145519495010376 0.071008250117301941
vn -0.929695725440979 0.36766701936721802 0.022063285112380981
vn -0.90460211038589478 0.42625695466995239 0.00020433388999663293
vn -0.99786472320556641 0.061794430017471313 0.02115221694111824
vn -0.35994169116020203 -0.066454499959945679 0.93060505390167236
vn -0.55883258581161499 -0.005077811423689127 0.82926493883132935
vn -0.12279795855283737 0.045336503535509109 0.99139559268951416
vn 0.65039640665054321 -0.75793123245239258 -0.050246585160493851
vn 0.7645917534828186 -0.49358880519866943 0.41445091366767883
vn 0.71232551336288452 -0.69354003667831421 0.10767821967601776
vn 0.020739311352372169 -0.85898560285568237 0.51157951354980469
vn -0.027939829975366592 -0.90816181898117065 0.41768589615821838
vn 0.050388853996992111 -0.99861103296279907 -0.015392197296023369
vn 0.60824638605117798 0.77790564298629761 0.1577945351600647
vn 0.89710825681686401 0.44033047556877136 -0.036136724054813385
vn 0.98721319437026978 0.048684712499380112 0.15178915858268738
vn 0.89417976140975952 0.030449090525507927 -0.44667151570320129
vn 0.83627074956893921 -0.25362342596054077 -0.48613417148590088
vn 0.75848501920700073 -0.63462024927139282 -0.14818084239959717
vn 0.6106407642364502 0.68633675575256348 0.3950439989566803
vn 0.6106407642364502 0.68633675575256348 0.3950439989566803
vn 0.6106407642364502 0.68633675575256348 0.3950439989566803
vn -0.17954663932323456 -0.85268616676330566 -0.49060094356536865
vn -0.17954663932323456 -0.85268616676330566 -0.49060094356536865
vn -0.17954663932323456 -0.85268616676330566 -0.49060094356536865
vn 0.71497619152069092 -0.52790355682373047 -0.45839592814445496
vn 0.71497619152069092 -0.52790355682373047 -0.45839592814445496
vn 0.71497619152069092 -0.52790355682373047 -0.45839592814445496
vn -0.99926275014877319 0.038336124271154404 -0.0020726509392261505
vn -0.99929141998291016 -0.012265460565686226 0.035583391785621643
vn -0.99911707639694214 -0.034163471311330795 0.024452723562717438
vn -0.058052860200405121 0.998313307762146 -0.00064142531482502818
vn -0.056328538805246353 0.99831420183181763 -0.013992915861308575
vn -0.057414595037698746 0.99833476543426514 -0.0055930847302079201
vn 0.69792717695236206 0.018281446769833565 -0.7159353494644165
vn 0.68134307861328125 -0.009296175092458725 -0.73190516233444214
vn 0.68553686141967773 -0.0024634089786559343 -0.72803378105163574
vn 0.039652783423662186 -0.98933166265487671 -0.14018049836158752
vn 0.045899868011474609 -0.9983639121055603 -0.034098073840141296
vn 0.99951010942459106 0.01614728756248951 -0.026811599731445312
vn 0.99866998195648193 0.023382395505905151 0.04595160111784935
vn 0.78300172090530396 0.024705531075596809 0.6215287446975708
vn 0.90666824579238892 -0.19382238388061523 0.37468060851097107
vn -0.96048623323440552 -0.17523600161075592 0.21623717248439789
vn -0.87272274494171143 0.42228055000305176 0.24501876533031464
vn -0.9964144229888916 -0.07898315042257309 -0.030329877510666847
vn -0.43871498107910156 -0.65302670001983643 0.61732101440429688
vn -0.55461210012435913 -0.62210649251937866 -0.5526200532913208
vn -0.5134817361831665 -0.85547876358032227 0.067026466131210327
vn 0.019400771707296371 0.064081452786922455 -0.99775606393814087
vn 0.019400771707296371 0.064081452786922455 -0.99775606393814087
vn 0.019400771707296371 0.064081452786922455 -0.99775606393814087
vn 0.40581658482551575 0.54793059825897217 -0.73149502277374268
vn 0.32185110449790955 0.54136389493942261 -0.77674770355224609
vn 0.45123177766799927 0.51767235994338989 -0.72691482305526733
vn -0.78263884782791138 0.49426442384719849 0.37839013338088989
vn -0.41916283965110779 -0.71613454818725586 -0.55808043479919434
vn -0.39700880646705627 -0.69640415906906128 -0.59783381223678589
vn -0.39565259218215942 -0.69516956806182861 -0.60016524791717529
vn 0.79278564453125 -0.47301864624023438 0.38437515497207642
vn 0.67075365781784058 -0.70734590291976929 -0.22305002808570862
vn -0.85173916816711426 -0.046837534755468369 0.52186840772628784
vn -0.53568857908248901 -0.20598092675209045 0.81890755891799927
vn -0.35203155875205994 0.54551535844802856 0.76058316230773926
vn -0.23185147345066071 -0.018515672534704208 0.97257494926452637
vn -0.39035141468048096 0.37972709536552429 0.83870917558670044
vn -0.4088062047958374 0.36387044191360474 0.8369443416595459
vn 0.40402624011039734 0.33523723483085632 0.85110443830490112
vn 0.40402624011039734 0.33523723483085632 0.85110443830490112
vn 0.40402624011039734 0.33523723483085632 0.85110443830490112
vn -0.084125116467475891 0.56702244281768799 0.81939518451690674
vn -0.11975336074829102 0.60041326284408569 0.79067254066467285
vn -0.31413033604621887 0.93998163938522339 0.13325405120849609
vn 0.0017555513186380267 0.65680158138275146 0.75406140089035034
vn 0.0029650898650288582 0.55712831020355225 0.83042114973068237
vn -0.017418861389160156 0.37740552425384521 0.92588424682617188
vn 0.48564094305038452 -0.0027578086592257023 0.87415403127670288
vn 0.93981152772903442 0.003429928794503212 0.3416760265827179
vn 0.99666178226470947 0.0048243091441690922 0.081498377025127411
vn 0.019129492342472076 -0.008493504486978054 0.99978095293045044
vn -0.0054644066840410233 -0.0029988044407218695 0.99998056888580322
vn 0.081485554575920105 0.843738853931427 0.53053265810012817
vn -0.106647789478302 0.74362480640411377 0.66003668308258057
vn 0.015954622998833656 0.001386340125463903 0.99987173080444336
vn 0.0013024699874222279 -0.00046771645429544151 0.99999904632568359
vn -0.016648698598146439 0.0011083848075941205 0.99986076354980469
vn -0.10668757557868958 0.03611103817820549 0.9936366081237793
vn -0.084714785218238831 0.86437928676605225 0.4956529438495636
vn -0.016776563599705696 0.76425904035568237 0.6446911096572876
vn -0.070821270346641541 0.8262094259262085 0.55889385938644409
vn 0.068448036909103394 -0.93940693140029907 0.33590096235275269
vn -0.11434758454561234 -0.69484883546829224 0.71000683307647705
vn -0.050268962979316711 -0.69371676445007324 0.71849149465560913
vn 0.018280660733580589 0.044690325856208801 0.99883359670639038
vn -0.025366371497511864 -0.048440266400575638 0.9985039234161377
vn 0.089986905455589294 -0.96330159902572632 0.252888023853302
vn 0.0070097045972943306 -0.97983461618423462 -0.19968719780445099
vn 0.41720503568649292 -0.90507400035858154 0.082346737384796143
vn 0.080520562827587128 -0.99402260780334473 -0.073726177215576172
vn 0.23103709518909454 -0.283814936876297 0.93062931299209595
vn 0.4868600070476532 0.205780029296875 0.84889453649520874
vn 0.30798560380935669 -0.23579593002796173 0.92170774936676025
vn -0.19998376071453094 0.028590139001607895 0.9793819785118103
vn -0.3437533974647522 -0.0013608108274638653 0.93905895948410034
vn 0.085926078259944916 0.02575998567044735 0.99596846103668213
vn 0.521240234375 -0.052048612385988235 0.85182130336761475
vn 0.015136284753680229 0.028570046648383141 0.99947720766067505
vn -0.014086236245930195 0.9986262321472168 0.050469744950532913
vn 0.27232715487480164 -0.95849090814590454 0.084457516670227051
vn -0.76217746734619141 -0.53132206201553345 -0.36984091997146606
vn -0.017111439257860184 -0.0094651337713003159 -0.99980878829956055
vn -0.0068221064284443855 0.046358563005924225 -0.99890154600143433
vn 0.052808977663516998 0.077705554664134979 -0.99557673931121826
vn -0.99416327476501465 0.098216593265533447 -0.044642016291618347
vn 0.14759427309036255 -0.57689499855041504 -0.80337291955947876
vn 0.40750443935394287 -0.37042424082756042 -0.83470118045806885
vn 0.096950992941856384 -0.98182767629623413 -0.16314063966274261
vn -0.22499911487102509 0.75173437595367432 -0.6198958158493042
vn -0.13214483857154846 0.1380971223115921 -0.9815635085105896
vn -0.21323733031749725 0.95792514085769653 0.19211775064468384
vn 0.053035750985145569 0.9557119607925415 0.28948545455932617
vn -0.99999988079071045 0.00026918176445178688 0.0003942004987038672
vn -0.99998372793197632 -0.0055931420065462589 0.0010983798420056701
vn 0.15033099055290222 0.073388941586017609 0.98590803146362305
vn 0.30077618360519409 0.01667477935552597 0.95354896783828735
vn 0.14445890486240387 -0.13778091967105865 0.97987145185470581
vn 0.31774091720581055 0.040996093302965164 0.94729089736938477
vn -0.67242187261581421 0.04759804904460907 0.7386360764503479
vn 0.23921181261539459 0.043022815138101578 -0.97001379728317261
vn -0.81585663557052612 -0.57663846015930176 0.043197687715291977
vn -0.94293588399887085 -0.33279922604560852 0.010795840062201023
vn 0.033904880285263062 0.022768216207623482 -0.99916571378707886
vn 0.034551717340946198 0.023834634572267532 -0.99911868572235107
vn 0.0078744292259216309 -0.020104717463254929 -0.99976688623428345
vn -0.01649756170809269 -0.84748214483261108 -0.53056752681732178
vn 0.005393514409661293 -0.91948312520980835 -0.39309251308441162
vn 0.18578748404979706 -0.53589797019958496 0.82358747720718384
vn -0.082873687148094177 0.35089185833930969 0.93274158239364624
vn -0.82399600744247437 -0.1071527823805809 -0.55637115240097046
vn -0.80598306655883789 -0.04514361172914505 -0.59021466970443726
vn -0.86771869659423828 -0.00021251448197290301 -0.49705550074577332
vn -0.32358920574188232 -0.080788783729076385 0.94274240732192993
vn 0.98220920562744141 0.12422478944063187 0.14083056151866913
vn 0.026373088359832764 0.016462337225675583 -0.99951660633087158
vn -0.99898678064346313 0.04488789290189743 -0.0032469162251800299
vn 0.99964427947998047 0.024664824828505516 0.01014662254601717
vn -0.93237274885177612 -0.13342925906181335 0.33597272634506226
vn -0.94729781150817871 0.3174755871295929 -0.042850412428379059
vn -0.01230089645832777 -0.00033393691410310566 0.99992430210113525
vn 0.015098202973604202 -0.013171990402042866 -0.99979925155639648
usemtl vc_191919__Default
f 1//1 2//2 3//3
f 4//4 5//5 6//6
f 7//7 2//2 8//8
f 9//9 10//10 11//11
f 10//10 5//5 12//12
f 13//13 14//14 15//15
f 16//16 17//17 18//18
f 21//21 26//26 19//19 20//20
f 22//22 11//11 12//12
f 23//23 24//24 25//25
f 26//26 21//21 27//27
f 28//28 29//29 30//30
f 31//31 32//32 11//11
f 33//33 3//3 34//34
f 35//35 36//36 37//37
f 38//38 39//39 40//40
f 35//35 41//41 36//36
f 39//39 38//38 42//42
f 42//42 43//43 44//44
f 45//45 46//46 47//47
f 48//48 7//7 8//8
f 49//49 50//50 51//51
f 52//52 45//45 47//47
f 53//53 54//54 55//55
f 56//56 57//57 58//58
f 59//59 60//60 61//61
f 62//62 63//63 64//64
f 65//65 66//66 67//67
f 68//68 69//69 70//70
f 71//71 72//72 73//73
f 74//74 75//75 76//76
f 77//77 78//78 79//79
f 80//80 68//68 26//26
f 81//81 82//82 83//83
f 84//84 83//83 82//82
f 85//85 86//86 87//87
f 19//19 88//88 89//89
f 90//90 91//91 26//26
f 92//92 93//93 94//94
f 95//95 96//96 97//97
f 98//98 99//99 100//100
f 101//101 102//102 103//103
f 104//104 105//105 106//106
f 107//107 108//108 109//109
f 110//110 107//107 109//109
f 111//111 33//33 34//34
f 112//112 113//113 114//114
f 115//115 116//116 117//117
f 118//118 119//119 31//31
f 113//113 112//112 120//120
f 121//121 122//122 120//120
f 123//123 124//124 125//125
f 126//126 127//127 128//128
f 129//129 102//102 101//101
f 121//121 130//130 131//131
f 132//132 133//133 134//134
f 135//135 136//136 137//137
f 138//138 135//135 137//137
f 139//139 140//140 141//141
f 142//142 143//143 122//122
f 121//121 144//144 122//122
f 145//145 146//146 147//147
f 148//148 149//149 150//150
f 151//151 152//152 153//153
f 154//154 155//155 156//156
f 157//157 158//158 159//159
f 160//160 161//161 162//162
f 163//163 164//164 165//165
f 166//166 167//167 168//168
f 169//169 170//170 171//171
f 172//172 173//173 174//174
f 175//175 176//176 177//177
f 178//178 179//179 180//180
f 181//181 182//182 183//183
f 184//184 185//185 186//186
f 187//187 188//188 189//189
f 190//190 191//191 123//123
f 192//192 191//191 190//190
f 193//193 194//194 195//195
f 196//196 197//197 198//198
f 199//199 200//200 201//201
f 202//202 203//203 204//204
f 205//205 206//206 207//207
f 208//208 209//209 210//210
f 186//186 211//211 212//212
f 189//189 213//213 214//214
f 215//215 216//216 189//189
f 217//217 218//218 219//219
f 220//220 221//221 222//222
f 223//223 224//224 225//225
f 226//226 227//227 228//228
f 229//229 155//155 154//154
f 230//230 231//231 232//232
f 233//233 234//234 216//216
f 235//235 236//236 237//237
f 238//238 239//239 240//240
f 241//241 242//242 243//243
f 244//244 245//245 246//246
f 247//247 248//248 249//249
f 250//250 251//251 252//252
f 253//253 254//254 180//180
f 255//255 139//139 256//256
f 259//259 322//322 257//257 258//258
f 257//257 260//260 258//258
f 261//261 262//262 263//263
f 264//264 265//265 266//266
f 267//267 268//268 254//254
f 264//264 266//266 269//269
f 270//270 271//271 272//272
f 273//273 268//268 267//267
f 273//273 274//274 275//275
f 118//118 276//276 277//277
f 278//278 279//279 250//250
f 277//277 276//276 280//280
f 278//278 250//250 280//280
f 1//1 281//281 2//2
f 28//28 30//30 282//282
f 283//283 18//18 29//29
f 284//284 285//285 286//286
f 287//287 202//202 204//204
f 32//32 9//9 11//11
f 288//288 289//289 290//290
f 141//141 140//140 291//291
f 142//142 122//122 292//292
f 293//293 34//34 294//294
f 177//177 295//295 296//296
f 54//54 53//53 252//252
f 139//139 141//141 256//256
f 116//116 297//297 117//117
f 298//298 299//299 300//300
f 301//301 119//119 118//118
f 12//12 5//5 302//302
f 123//123 213//213 189//189
f 252//252 251//251 54//54
f 54//54 5//5 55//55
f 20//20 19//19 89//89
f 303//303 31//31 304//304
f 305//305 306//306 307//307
f 308//308 309//309 186//186
f 275//275 274//274 310//310
f 247//247 249//249 311//311
f 312//312 313//313 314//314
f 126//126 128//128 177//177
f 91//91 315//315 26//26
f 98//98 100//100 316//316
f 284//284 113//113 317//317
f 276//276 278//278 280//280
f 177//177 296//296 318//318
f 42//42 44//44 39//39
f 113//113 284//284 114//114
f 122//122 143//143 120//120
f 319//319 102//102 129//129
f 10//10 12//12 11//11
f 104//104 106//106 320//320
f 119//119 32//32 31//31
f 112//112 121//121 120//120
f 218//218 321//321 219//219
f 284//284 286//286 323//323
