# Dual color encoding: per-vertex RGB for Rerun, face MTL colors for legacy RViz.
mtllib sim_gene01_r_ankle_1.mtl
# Rhino

g sim_gene01_r_ankle_1
v -52.427677928832608 -0.16250515793668541 -24.78410703199626 0.901960784 0.901960784 0.901960784
v -30.172500291809087 10.185731210495629 -21.049199717110824 0.901960784 0.901960784 0.901960784
v -45.122962750698392 23.935504129283757 -34.53612838924893 0.901960784 0.901960784 0.901960784
v 19.98480489066818 19.373395531468198 -29.874624246010125 0.901960784 0.901960784 0.901960784
v -28.289353169089502 32.560369905663748 -35.692648969173497 0.901960784 0.901960784 0.901960784
v -52.694089449736467 22.035959593828078 -47.681239716385065 0.901960784 0.901960784 0.901960784
v -28.075604430128383 32.942905339205289 -49.077486843582918 0.901960784 0.901960784 0.901960784
v -48.981957362215432 -24.249412507460111 -49.152564625256126 0.901960784 0.901960784 0.901960784
v -30.295144737016024 -12.862111843996583 -25.721896683515553 0.901960784 0.901960784 0.901960784
v 18.15790566573283 -16.156751671735357 -28.271645092673662 0.901960784 0.901960784 0.901960784
v 14.139687793095655 -8.7692388139032857 -12.55715856567404 0.901960784 0.901960784 0.901960784
v 78.80991887855437 -25.006058771735319 -48.971991506376455 0.901960784 0.901960784 0.901960784
v 28.240916581012129 -1.54876663274921 -23.53712706620566 0.901960784 0.901960784 0.901960784
v 49.002759344802143 32.196024620951619 -35.352050678836783 0.901960784 0.901960784 0.901960784
v 77.265776229048299 25.332842445193656 -48.841506918478402 0.901960784 0.901960784 0.901960784
v 81.109666295065011 22.302574272982937 -36.10719890295109 0.901960784 0.901960784 0.901960784
v 82.487862864618251 -21.642638203107204 -36.966044514609735 0.901960784 0.901960784 0.901960784
v 46.632587399976124 33.400584330073592 -48.028002474936301 0.901960784 0.901960784 0.901960784
v 14.7025632684886 9.424664027488177 -16.855507620669833 0.901960784 0.901960784 0.901960784
v -22.679747284146323 -4.7214428953001324 3.6753640007160957 0.901960784 0.901960784 0.901960784
v -5.6584536188822891 8.9461230268718683 21.577133412567864 0.901960784 0.901960784 0.901960784
v -52.867748510692593 -21.772295529311535 -37.984163156866899 0.901960784 0.901960784 0.901960784
v -27.949594487166877 -32.734453425546135 -35.784974717586614 0.901960784 0.901960784 0.901960784
v -26.635372451988907 -32.818146203219989 -48.418755871641871 0.901960784 0.901960784 0.901960784
v 49.126432088363572 -32.195839721510765 -35.36869443878885 0.901960784 0.901960784 0.901960784
v 45.62585398627003 -33.457052174490727 -48.554790113991174 0.901960784 0.901960784 0.901960784
v -0.24508988636128315 -8.8918868702430931 21.289282287391625 0.901960784 0.901960784 0.901960784
v 12.880137612780699 -6.463433355041885 15.51618701826486 0.901960784 0.901960784 0.901960784
v 80.135791411677189 -0.50085917484411269 -23.990355454566192 0.901960784 0.901960784 0.901960784
v 14.489605619074833 7.8046157713667874 10.896830448295406 0.901960784 0.901960784 0.901960784
vn -0.53940248489379883 -0.04516100138425827 0.84083616733551025
vn -0.40431869029998779 0.75895041227340698 0.51041221618652344
vn -0.32931023836135864 0.55454713106155396 0.76422005891799927
vn 0.058197755366563797 0.42453423142433167 0.90353953838348389
vn -0.046313963830471039 0.73768597841262817 0.67355358600616455
vn -0.6995614767074585 0.26756274700164795 -0.66258883476257324
vn -0.015708610415458679 0.24186290800571442 -0.97018325328826904
vn -0.09477551281452179 -0.053308010101318359 -0.99407035112380981
vn -0.29295477271080017 -0.78014212846755981 0.55277097225189209
vn 0.12759858369827271 -0.60691827535629272 0.78445446491241455
vn 0.59789031744003296 -0.79704344272613525 0.085140474140644073
vn 0.23314335942268372 -0.24707815051078796 -0.94052994251251221
vn 0.045993097126483917 0.014997877180576324 0.998829185962677
vn 0.043754048645496368 0.6614527702331543 0.74870944023132324
vn 0.21889024972915649 0.26204359531402588 -0.93990433216094971
vn 0.71903854608535767 0.53546273708343506 0.44301599264144897
vn 0.86884570121765137 -0.43538686633110046 0.23568072915077209
vn 0.025792909786105156 0.83751070499420166 -0.54581183195114136
vn 0.5566791296005249 0.79982572793960571 0.22447076439857483
vn -0.80427640676498413 -0.43321463465690613 0.40677335858345032
vn -0.31886520981788635 0.81725698709487915 0.48001664876937866
vn -0.84898310899734497 -0.45996105670928955 0.26012203097343445
vn -0.059456858783960342 -0.77567028999328613 0.62833148241043091
vn -0.043573018163442612 -0.75513559579849243 -0.65411895513534546
vn 0.02893592044711113 -0.64739173650741577 0.76160794496536255
vn 0.029812885448336601 -0.79498529434204102 -0.60589569807052612
vn -0.10317773371934891 -0.84442251920700073 0.52564722299575806
vn 0.75780105590820312 -0.51529890298843384 0.40025568008422852
vn 0.2141558974981308 0.0071134637109935284 0.97677361965179443
vn 0.78782093524932861 0.57975894212722778 0.20788861811161041
usemtl vc_E6E6E6__Default
f 1//1 2//2 3//3
f 3//3 4//4 5//5
f 6//6 7//7 8//8
f 9//9 10//10 11//11
f 12//12 26//26 8//8 7//7
f 4//4 13//13 14//14
f 15//15 16//16 17//17
f 7//7 6//6 3//3
f 18//18 7//7 5//5
f 4//4 3//3 19//19
f 20//20 21//21 2//2
f 9//9 2//2 1//1
f 23//23 9//9 1//1 22//22
f 8//8 24//24 23//23
f 25//25 10//10 23//23
f 24//24 8//8 26//26
f 27//27 9//9 11//11
f 20//20 9//9 27//27
f 28//28 21//21 27//27
f 18//18 15//15 7//7
f 15//15 18//18 14//14
f 17//17 16//16 29//29
f 24//24 26//26 23//23
f 29//29 25//25 17//17
f 12//12 17//17 25//25
f 12//12 15//15 17//17
f 11//11 19//19 30//30 28//28
f 30//30 21//21 28//28
f 1//1 6//6 22//22
f 20//20 2//2 9//9
f 27//27 21//21 20//20
f 13//13 4//4 19//19
f 4//4 14//14 5//5
f 3//3 2//2 19//19
f 8//8 22//22 6//6
f 11//11 28//28 27//27
f 29//29 13//13 25//25
f 19//19 2//2 21//21
f 16//16 14//14 29//29
f 1//1 3//3 6//6
f 18//18 5//5 14//14
f 8//8 23//23 22//22
f 19//19 11//11 10//10
f 26//26 25//25 23//23
f 19//19 10//10 13//13
f 12//12 25//25 26//26
f 10//10 9//9 23//23
f 30//30 19//19 21//21
f 13//13 10//10 25//25
f 7//7 15//15 12//12
f 13//13 29//29 14//14
f 7//7 3//3 5//5
f 15//15 14//14 16//16
