# Dual color encoding: per-vertex RGB for Rerun, face MTL colors for legacy RViz.
mtllib sim_gene01_r_hand_thumb_5.mtl
# Rhino

g sim_gene01_r_hand_thumb_5
v -15.768381645809253 9.338127936729995 6.0587749812050626 0.0980392157 0.0980392157 0.0980392157
v -15.900904282833126 17.02877884485968 4.5927773049626364 0.0980392157 0.0980392157 0.0980392157
v -17.806910683989383 3.1268671720661638 3.2992116287540321 0.0980392157 0.0980392157 0.0980392157
v -10.003819606714401 5.4982803437039642 4.5995159029284931 0.0980392157 0.0980392157 0.0980392157
v -15.768381645809253 9.338127936729995 6.0587749812050626 0.0980392157 0.0980392157 0.0980392157
v -17.806910683989383 3.1268671720661638 3.2992116287540321 0.0980392157 0.0980392157 0.0980392157
v -9.6203061851337512 -2.9295830899503255 5.1699280829627217 0.0980392157 0.0980392157 0.0980392157
v -10.003819606714401 5.4982803437039642 4.5995159029284931 0.0980392157 0.0980392157 0.0980392157
v -17.806910683989383 3.1268671720661638 3.2992116287540321 0.0980392157 0.0980392157 0.0980392157
v -17.538649262528853 -0.42418123936391994 -3.2268092232002057 0.0980392157 0.0980392157 0.0980392157
v -9.6203061851337512 -2.9295830899503255 5.1699280829627217 0.0980392157 0.0980392157 0.0980392157
v -17.806910683989383 3.1268671720661638 3.2992116287540321 0.0980392157 0.0980392157 0.0980392157
v -17.538649262528853 -0.42418123936391994 -3.2268092232002057 0.0980392157 0.0980392157 0.0980392157
v -9.9365881925353055 -6.4166395303459174 0.68644795583393647 0.0980392157 0.0980392157 0.0980392157
v -9.6203061851337512 -2.9295830899503255 5.1699280829627217 0.0980392157 0.0980392157 0.0980392157
v -18.263469126359951 0.36101303904396581 -9.0188981413965834 0.0980392157 0.0980392157 0.0980392157
v -16.159240616028448 18.351530534129324 -8.8445138234066416 0.0980392157 0.0980392157 0.0980392157
v -9.2395252436033477 -1.2752971153489991 -6.1440294339329524 0.0980392157 0.0980392157 0.0980392157
v -9.9365881925353055 -6.4166395303459174 0.68644795583393647 0.0980392157 0.0980392157 0.0980392157
v -17.538649262528853 -0.42418123936391994 -3.2268092232002057 0.0980392157 0.0980392157 0.0980392157
v -18.263469126359951 0.36101303904396581 -9.0188981413965834 0.0980392157 0.0980392157 0.0980392157
v -9.2395252436033477 -1.2752971153489991 -6.1440294339329524 0.0980392157 0.0980392157 0.0980392157
v -17.538649262528853 -0.42418123936391994 -3.2268092232002057 0.0980392157 0.0980392157 0.0980392157
v -7.3966851538465281 8.493381657007907 5.0781016968572841 0.0980392157 0.0980392157 0.0980392157
v -9.8978185981564835 13.028714964777228 7.9203978599489746 0.0980392157 0.0980392157 0.0980392157
v -10.003819606714401 5.4982803437039642 4.5995159029284931 0.0980392157 0.0980392157 0.0980392157
v -7.3966851538465281 8.493381657007907 5.0781016968572841 0.0980392157 0.0980392157 0.0980392157
v -15.768381645809253 9.338127936729995 6.0587749812050626 0.0980392157 0.0980392157 0.0980392157
v -9.9365881925353055 -6.4166395303459174 0.68644795583393647 0.0980392157 0.0980392157 0.0980392157
v -8.802125849580829 2.0465872906398146 -1.3670904925707967 0.0980392157 0.0980392157 0.0980392157
v -9.6203061851337512 -2.9295830899503255 5.1699280829627217 0.0980392157 0.0980392157 0.0980392157
v -8.802125849580829 2.0465872906398146 -1.3670904925707967 0.0980392157 0.0980392157 0.0980392157
v -9.9365881925353055 -6.4166395303459174 0.68644795583393647 0.0980392157 0.0980392157 0.0980392157
v -9.2395252436033477 -1.2752971153489991 -6.1440294339329524 0.0980392157 0.0980392157 0.0980392157
v -4.6685556881421633 0.32337546064116918 -13.027400181116077 0.0980392157 0.0980392157 0.0980392157
v -9.2395252436033477 -1.2752971153489991 -6.1440294339329524 0.0980392157 0.0980392157 0.0980392157
v -9.8978185981564835 13.028714964777228 7.9203978599489746 0.0980392157 0.0980392157 0.0980392157
v 10.643861775002392 12.94922932837731 7.8828873133531845 0.0980392157 0.0980392157 0.0980392157
v 8.0233901007870045 7.7502645259412244 5.3533799055758022 0.0980392157 0.0980392157 0.0980392157
v 10.643861775002392 12.94922932837731 7.8828873133531845 0.0980392157 0.0980392157 0.0980392157
v -9.8978185981564835 13.028714964777228 7.9203978599489746 0.0980392157 0.0980392157 0.0980392157
v -7.3966851538465281 8.493381657007907 5.0781016968572841 0.0980392157 0.0980392157 0.0980392157
v -8.802125849580829 2.0465872906398146 -1.3670904925707967 0.0980392157 0.0980392157 0.0980392157
v -7.3966851538465281 8.493381657007907 5.0781016968572841 0.0980392157 0.0980392157 0.0980392157
v -10.003819606714401 5.4982803437039642 4.5995159029284931 0.0980392157 0.0980392157 0.0980392157
v -4.6685556881421633 0.32337546064116918 -13.027400181116077 0.0980392157 0.0980392157 0.0980392157
v -8.802125849580829 2.0465872906398146 -1.3670904925707967 0.0980392157 0.0980392157 0.0980392157
v -9.2395252436033477 -1.2752971153489991 -6.1440294339329524 0.0980392157 0.0980392157 0.0980392157
v -4.6685556881421633 0.32337546064116918 -13.027400181116077 0.0980392157 0.0980392157 0.0980392157
v -9.2395252436033477 -1.2752971153489991 -6.1440294339329524 0.0980392157 0.0980392157 0.0980392157
v -7.7576540440159292 6.2530951048656949 -11.199209575423003 0.0980392157 0.0980392157 0.0980392157
v -4.6685556881421633 0.32337546064116918 -13.027400181116077 0.0980392157 0.0980392157 0.0980392157
v -7.7576540440159292 6.2530951048656949 -11.199209575423003 0.0980392157 0.0980392157 0.0980392157
v -9.2395252436033477 -1.2752971153489991 -6.1440294339329524 0.0980392157 0.0980392157 0.0980392157
v -8.1276932002328124 25.468585171764111 7.1974965128037605 0.0980392157 0.0980392157 0.0980392157
v -12.626293998174226 30.604630817048346 -7.381984678741178 0.0980392157 0.0980392157 0.0980392157
v -2.7913025486384173 8.2783546387245561 -4.3817641232706404 0.0980392157 0.0980392157 0.0980392157
v -2.7913025486384173 8.2783546387245561 -4.3817641232706404 0.0980392157 0.0980392157 0.0980392157
v -8.802125849580829 2.0465872906398146 -1.3670904925707967 0.0980392157 0.0980392157 0.0980392157
v -8.8600208271987473 5.3852876438921369 -4.517460585475332 0.0980392157 0.0980392157 0.0980392157
v -7.7576540440159292 6.2530951048656949 -11.199209575423003 0.0980392157 0.0980392157 0.0980392157
v -8.8600208271987473 5.3852876438921369 -4.517460585475332 0.0980392157 0.0980392157 0.0980392157
v -8.802125849580829 2.0465872906398146 -1.3670904925707967 0.0980392157 0.0980392157 0.0980392157
v -2.7913025486384173 8.2783546387245561 -4.3817641232706404 0.0980392157 0.0980392157 0.0980392157
v -8.8600208271987473 5.3852876438921369 -4.517460585475332 0.0980392157 0.0980392157 0.0980392157
v -7.7576540440159292 6.2530951048656949 -11.199209575423003 0.0980392157 0.0980392157 0.0980392157
v -4.6685556881421633 0.32337546064116918 -13.027400181116077 0.0980392157 0.0980392157 0.0980392157
v -3.4619865417480469 4.5382685661315918 -11.558441162109375 0.0980392157 0.0980392157 0.0980392157
v -7.7576540440159292 6.2530951048656949 -11.199209575423003 0.0980392157 0.0980392157 0.0980392157
v -4.6685556881421633 0.32337546064116918 -13.027400181116077 0.0980392157 0.0980392157 0.0980392157
v -10.277187270606388 32.421149564218751 1.8376681974459266 0.0980392157 0.0980392157 0.0980392157
v -3.4619865417480469 4.5382685661315918 -11.558441162109375 0.0980392157 0.0980392157 0.0980392157
v -2.7913025486384173 8.2783546387245561 -4.3817641232706404 0.0980392157 0.0980392157 0.0980392157
v -7.7576540440159292 6.2530951048656949 -11.199209575423003 0.0980392157 0.0980392157 0.0980392157
v -2.7913025486384173 8.2783546387245561 -4.3817641232706404 0.0980392157 0.0980392157 0.0980392157
v -3.4619865417480469 4.5382685661315918 -11.558441162109375 0.0980392157 0.0980392157 0.0980392157
v 3.2747931195269779 7.8578895514641145 -11.381979628176618 0.0980392157 0.0980392157 0.0980392157
v 1.8627156783856704 9.7383001981549118 -5.4971130581169287 0.0980392157 0.0980392157 0.0980392157
v 6.3076683704933814 7.3829305607539446 -5.4292436488395657 0.0980392157 0.0980392157 0.0980392157
v -2.7913025486384173 8.2783546387245561 -4.3817641232706404 0.0980392157 0.0980392157 0.0980392157
v -2.2428985179303931 35.247839718221883 -10.525371285985422 0.0980392157 0.0980392157 0.0980392157
v -4.6685556881421633 0.32337546064116918 -13.027400181116077 0.0980392157 0.0980392157 0.0980392157
v -16.159240616028448 18.351530534129324 -8.8445138234066416 0.0980392157 0.0980392157 0.0980392157
v 3.2747931195269779 7.8578895514641145 -11.381979628176618 0.0980392157 0.0980392157 0.0980392157
v 6.9250335464739052 9.1369968825120207 -0.22675980467684603 0.0980392157 0.0980392157 0.0980392157
v 8.0233901007870045 7.7502645259412244 5.3533799055758022 0.0980392157 0.0980392157 0.0980392157
v -7.3966851538465281 8.493381657007907 5.0781016968572841 0.0980392157 0.0980392157 0.0980392157
v 6.9250335464739052 9.1369968825120207 -0.22675980467684603 0.0980392157 0.0980392157 0.0980392157
v -7.3966851538465281 8.493381657007907 5.0781016968572841 0.0980392157 0.0980392157 0.0980392157
v -2.7913025486384173 8.2783546387245561 -4.3817641232706404 0.0980392157 0.0980392157 0.0980392157
v 6.3076683704933814 7.3829305607539446 -5.4292436488395657 0.0980392157 0.0980392157 0.0980392157
v 11.901004141556346 3.390412090660321 -3.2382829634421828 0.0980392157 0.0980392157 0.0980392157
v 6.9250335464739052 9.1369968825120207 -0.22675980467684603 0.0980392157 0.0980392157 0.0980392157
v 6.3076683704933814 7.3829305607539446 -5.4292436488395657 0.0980392157 0.0980392157 0.0980392157
v 3.2747931195269779 7.8578895514641145 -11.381979628176618 0.0980392157 0.0980392157 0.0980392157
v 6.3076683704933814 7.3829305607539446 -5.4292436488395657 0.0980392157 0.0980392157 0.0980392157
v 1.8627156783856704 9.7383001981549118 -5.4971130581169287 0.0980392157 0.0980392157 0.0980392157
v 8.0292174405208883 22.668147508684115 7.4542681169930454 0.0980392157 0.0980392157 0.0980392157
v -7.1539999030028989 37.756739974327402 -8.7301632421878033 0.0980392157 0.0980392157 0.0980392157
v -12.626293998174226 30.604630817048346 -7.381984678741178 0.0980392157 0.0980392157 0.0980392157
v -7.1539999030028989 37.756739974327402 -8.7301632421878033 0.0980392157 0.0980392157 0.0980392157
v 6.9250335464739052 9.1369968825120207 -0.22675980467684603 0.0980392157 0.0980392157 0.0980392157
v 11.901004141556346 3.390412090660321 -3.2382829634421828 0.0980392157 0.0980392157 0.0980392157
v 11.752893185249285 3.0121969326404461 5.4972600262803679 0.0980392157 0.0980392157 0.0980392157
v 10.472735231388157 0.46878536372597246 -11.611122511618513 0.0980392157 0.0980392157 0.0980392157
v 12.589828569803485 -5.6367556092098141 -0.88795087101725312 0.0980392157 0.0980392157 0.0980392157
v 11.901004141556346 3.390412090660321 -3.2382829634421828 0.0980392157 0.0980392157 0.0980392157
v 11.901004141556346 3.390412090660321 -3.2382829634421828 0.0980392157 0.0980392157 0.0980392157
v 12.589828569803485 -5.6367556092098141 -0.88795087101725312 0.0980392157 0.0980392157 0.0980392157
v 11.752893185249285 3.0121969326404461 5.4972600262803679 0.0980392157 0.0980392157 0.0980392157
v 6.3076683704933814 7.3829305607539446 -5.4292436488395657 0.0980392157 0.0980392157 0.0980392157
v 3.2747931195269779 7.8578895514641145 -11.381979628176618 0.0980392157 0.0980392157 0.0980392157
v 4.3533668706400679 1.8404768106290081 -11.622681538972051 0.0980392157 0.0980392157 0.0980392157
v 9.6648802486905296 4.699881145661692 -10.130682125111921 0.0980392157 0.0980392157 0.0980392157
v 6.3076683704933814 7.3829305607539446 -5.4292436488395657 0.0980392157 0.0980392157 0.0980392157
v 4.3533668706400679 1.8404768106290081 -11.622681538972051 0.0980392157 0.0980392157 0.0980392157
v 10.472735231388157 0.46878536372597246 -11.611122511618513 0.0980392157 0.0980392157 0.0980392157
v 4.3533668706400679 1.8404768106290081 -11.622681538972051 0.0980392157 0.0980392157 0.0980392157
v 5.7418838872527012 31.167962830999755 -10.463621596653649 0.0980392157 0.0980392157 0.0980392157
v 3.0596220586653544 0.29453351493652757 -13.433831428452956 0.0980392157 0.0980392157 0.0980392157
v 10.472735231388157 0.46878536372597246 -11.611122511618513 0.0980392157 0.0980392157 0.0980392157
v -4.6685556881421633 0.32337546064116918 -13.027400181116077 0.0980392157 0.0980392157 0.0980392157
v 3.0596220586653544 0.29453351493652757 -13.433831428452956 0.0980392157 0.0980392157 0.0980392157
v 5.2419804990179326 32.123346355599359 5.4800968640206795 0.0980392157 0.0980392157 0.0980392157
v -4.0566595907750322 34.76500146776926 4.0680601246486292 0.0980392157 0.0980392157 0.0980392157
v -4.0865301855461604 37.799994871100502 -2.9604109684440125 0.0980392157 0.0980392157 0.0980392157
v 10.643861775002392 12.94922932837731 7.8828873133531845 0.0980392157 0.0980392157 0.0980392157
v 8.0233901007870045 7.7502645259412244 5.3533799055758022 0.0980392157 0.0980392157 0.0980392157
v 16.514208488314758 6.624914556254005 5.5875960711773969 0.0980392157 0.0980392157 0.0980392157
v 18.587177239825056 0.33870085644923209 -0.38777356960301085 0.0980392157 0.0980392157 0.0980392157
v 16.514208488314758 6.624914556254005 5.5875960711773969 0.0980392157 0.0980392157 0.0980392157
v 13.157143310582356 -1.9686084094257814 4.6348873909151225 0.0980392157 0.0980392157 0.0980392157
v 18.587177239825056 0.33870085644923209 -0.38777356960301085 0.0980392157 0.0980392157 0.0980392157
v 13.157143310582356 -1.9686084094257814 4.6348873909151225 0.0980392157 0.0980392157 0.0980392157
v 12.589828569803485 -5.6367556092098141 -0.88795087101725312 0.0980392157 0.0980392157 0.0980392157
v 18.587177239825056 0.33870085644923209 -0.38777356960301085 0.0980392157 0.0980392157 0.0980392157
v 12.589828569803485 -5.6367556092098141 -0.88795087101725312 0.0980392157 0.0980392157 0.0980392157
v 17.516380521281086 0.37147085262277396 -8.06866652062687 0.0980392157 0.0980392157 0.0980392157
v 9.6648802486905296 4.699881145661692 -10.130682125111921 0.0980392157 0.0980392157 0.0980392157
v 11.901004141556346 3.390412090660321 -3.2382829634421828 0.0980392157 0.0980392157 0.0980392157
v 6.3076683704933814 7.3829305607539446 -5.4292436488395657 0.0980392157 0.0980392157 0.0980392157
v 9.6648802486905296 4.699881145661692 -10.130682125111921 0.0980392157 0.0980392157 0.0980392157
v 10.472735231388157 0.46878536372597246 -11.611122511618513 0.0980392157 0.0980392157 0.0980392157
v 11.901004141556346 3.390412090660321 -3.2382829634421828 0.0980392157 0.0980392157 0.0980392157
v 17.516380521281086 0.37147085262277396 -8.06866652062687 0.0980392157 0.0980392157 0.0980392157
v 12.589828569803485 -5.6367556092098141 -0.88795087101725312 0.0980392157 0.0980392157 0.0980392157
v 10.472735231388157 0.46878536372597246 -11.611122511618513 0.0980392157 0.0980392157 0.0980392157
v 14.341553571279572 16.57200207322856 -9.2291225499230087 0.0980392157 0.0980392157 0.0980392157
v 15.83507300785821 16.76972826756397 4.8066574277234544 0.0980392157 0.0980392157 0.0980392157
v 10.643861775002392 12.94922932837731 7.8828873133531845 0.0980392157 0.0980392157 0.0980392157
v 15.83507300785821 16.76972826756397 4.8066574277234544 0.0980392157 0.0980392157 0.0980392157
v 10.643861775002392 12.94922932837731 7.8828873133531845 0.0980392157 0.0980392157 0.0980392157
v 16.514208488314758 6.624914556254005 5.5875960711773969 0.0980392157 0.0980392157 0.0980392157
v 5.5055347090163087 36.701197233976806 0.44470511245936117 0.0980392157 0.0980392157 0.0980392157
v 10.662747593831888 30.030441051971927 3.7631109523305888 0.0980392157 0.0980392157 0.0980392157
v 8.0292174405208883 22.668147508684115 7.4542681169930454 0.0980392157 0.0980392157 0.0980392157
v 5.6881464164228479 38.393226952342239 -8.6254253572284938 0.0980392157 0.0980392157 0.0980392157
v 15.83507300785821 16.76972826756397 4.8066574277234544 0.0980392157 0.0980392157 0.0980392157
v 10.662747593831888 30.030441051971927 3.7631109523305888 0.0980392157 0.0980392157 0.0980392157
v 18.587177239825056 0.33870085644923209 -0.38777356960301085 0.0980392157 0.0980392157 0.0980392157
v 16.514208488314758 6.624914556254005 5.5875960711773969 0.0980392157 0.0980392157 0.0980392157
v 17.516380521281086 0.37147085262277396 -8.06866652062687 0.0980392157 0.0980392157 0.0980392157
v 17.564331616872821 9.2275893086595069 -5.7339402072948156 0.0980392157 0.0980392157 0.0980392157
v 5.5055347090163087 36.701197233976806 0.44470511245936117 0.0980392157 0.0980392157 0.0980392157
v 5.6881464164228479 38.393226952342239 -8.6254253572284938 0.0980392157 0.0980392157 0.0980392157
v 10.629451309789729 34.329663062843657 -7.8418890087754614 0.0980392157 0.0980392157 0.0980392157
v 14.620325808988454 25.444085340315805 -6.4633078577964298 0.0980392157 0.0980392157 0.0980392157
v 14.620325808988454 25.444085340315805 -6.4633078577964298 0.0980392157 0.0980392157 0.0980392157
v 10.629451309789729 34.329663062843657 -7.8418890087754614 0.0980392157 0.0980392157 0.0980392157
v -18.263469126359951 0.36101303904396581 -9.0188981413965834 0.0980392157 0.0980392157 0.0980392157
v 13.157143310582356 -1.9686084094257814 4.6348873909151225 0.0980392157 0.0980392157 0.0980392157
v 16.514208488314758 6.624914556254005 5.5875960711773969 0.0980392157 0.0980392157 0.0980392157
v 11.752893185249285 3.0121969326404461 5.4972600262803679 0.0980392157 0.0980392157 0.0980392157
v -10.003819606714401 5.4982803437039642 4.5995159029284931 0.0980392157 0.0980392157 0.0980392157
v 10.472735231388157 0.46878536372597246 -11.611122511618513 0.0980392157 0.0980392157 0.0980392157
v 9.6648802486905296 4.699881145661692 -10.130682125111921 0.0980392157 0.0980392157 0.0980392157
v 8.0233901007870045 7.7502645259412244 5.3533799055758022 0.0980392157 0.0980392157 0.0980392157
v 11.752893185249285 3.0121969326404461 5.4972600262803679 0.0980392157 0.0980392157 0.0980392157
v -18.263469126359951 0.36101303904396581 -9.0188981413965834 0.0980392157 0.0980392157 0.0980392157
v 1.8627156783856704 9.7383001981549118 -5.4971130581169287 0.0980392157 0.0980392157 0.0980392157
v 8.0233901007870045 7.7502645259412244 5.3533799055758022 0.0980392157 0.0980392157 0.0980392157
v 13.157143310582356 -1.9686084094257814 4.6348873909151225 0.0980392157 0.0980392157 0.0980392157
vn -0.75171363353729248 0.11689283698797226 0.64904755353927612
vn -0.89358937740325928 0.22890651226043701 0.38613450527191162
vn -0.98746675252914429 0.092831775546073914 0.12763869762420654
vn 0.20568650960922241 -0.44482481479644775 0.87167882919311523
vn 0.38163325190544128 -0.58166700601577759 0.718345046043396
vn 0.24988141655921936 -0.57736480236053467 0.77730894088745117
vn -0.03676367923617363 0.21223674714565277 0.97652649879455566
vn -0.03676367923617363 0.21223674714565277 0.97652649879455566
vn -0.03676367923617363 0.21223674714565277 0.97652649879455566
vn -0.39320486783981323 -0.90846669673919678 0.14169768989086151
vn -0.42578089237213135 -0.88603484630584717 0.18344704806804657
vn -0.41346615552902222 -0.89152622222900391 0.18500484526157379
vn -0.67477822303771973 -0.49205219745635986 0.55005365610122681
vn -0.67477822303771973 -0.49205219745635986 0.55005365610122681
vn -0.67477822303771973 -0.49205219745635986 0.55005365610122681
vn -0.35092830657958984 -0.92482239007949829 0.14680902659893036
vn -0.97093570232391357 0.17875812947750092 -0.15915206074714661
vn -0.36597931385040283 -0.82630693912506104 -0.42810741066932678
vn -0.36597931385040283 -0.82630693912506104 -0.42810741066932678
vn -0.36597931385040283 -0.82630693912506104 -0.42810741066932678
vn -0.047586962580680847 -0.99050527811050415 -0.12897579371929169
vn -0.1130107119679451 -0.94669324159622192 -0.30166280269622803
vn -0.23779988288879395 -0.96876519918441772 -0.070322506129741669
vn 0.014897841028869152 -0.76918542385101318 0.63885200023651123
vn 0.016997158527374268 -0.7748827338218689 0.63187640905380249
vn -0.032445844262838364 0.014325294643640518 0.99937081336975098
vn 0.053522862493991852 0.051295474171638489 0.99724823236465454
vn 0.046322043985128403 0.0083307446911931038 0.99889183044433594
vn 0.96785902976989746 -0.23133426904678345 0.098657630383968353
vn 0.99434763193130493 -0.045745790004730225 0.095812618732452393
vn 0.97145813703536987 -0.12711921334266663 0.20027415454387665
vn 0.99679207801818848 0.070634588599205017 -0.037633243948221207
vn 0.98547232151031494 -0.16983327269554138 -0.00096510403091087937
vn 0.97231018543243408 -0.10410841554403305 -0.20922310650348663
vn 0.0061834394000470638 -0.99441665410995483 -0.10534349828958511
vn -0.033547133207321167 -0.98956942558288574 -0.14009636640548706
vn -0.14567811787128448 0.062147177755832672 0.98737818002700806
vn -0.49482080340385437 -0.44238883256912231 0.74796020984649658
vn -0.37367427349090576 -0.33018085360527039 0.86680340766906738
vn 0.21881359815597534 -0.76632219552993774 0.60404545068740845
vn 0.10208910703659058 -0.42747983336448669 0.89824205636978149
vn 0.18007384240627289 -0.39446023106575012 0.90109628438949585
vn 0.70748233795166016 -0.57940614223480225 0.40466940402984619
vn 0.75029265880584717 -0.55245649814605713 0.36311531066894531
vn 0.75354170799255371 -0.54587340354919434 0.36632922291755676
vn 0.73936796188354492 -0.59122282266616821 0.32216551899909973
vn 0.73936796188354492 -0.59122282266616821 0.32216551899909973
vn 0.73936796188354492 -0.59122282266616821 0.32216551899909973
vn -0.65682929754257202 -0.44264900684356689 -0.61044007539749146
vn -0.65682929754257202 -0.44264900684356689 -0.61044007539749146
vn -0.65682929754257202 -0.44264900684356689 -0.61044007539749146
vn 0.82300299406051636 0.27938538789749146 0.49458053708076477
vn 0.82300299406051636 0.27938538789749146 0.49458053708076477
vn 0.82300299406051636 0.27938538789749146 0.49458053708076477
vn -0.14900368452072144 0.13084737956523895 0.98014122247695923
vn -0.91891038417816162 0.39362919330596924 -0.025686284527182579
vn 0.64807754755020142 -0.58903247117996216 0.48273825645446777
vn 0.045616224408149719 -0.53456741571426392 -0.84389388561248779
vn 0.045616224408149719 -0.53456741571426392 -0.84389388561248779
vn 0.045616224408149719 -0.53456741571426392 -0.84389388561248779
vn 0.83849602937698364 0.49599942564964294 0.22563019394874573
vn 0.83433729410171509 0.48864540457725525 0.25516068935394287
vn 0.81257188320159912 0.50617831945419312 0.28898173570632935
vn 0.44333654642105103 -0.82210820913314819 -0.35719859600067139
vn 0.44333654642105103 -0.82210820913314819 -0.35719859600067139
vn 0.44333654642105103 -0.82210820913314819 -0.35719859600067139
vn 0.7404140830039978 0.60916805267333984 0.28407970070838928
vn 0.10412784665822983 -0.082687713205814362 0.99112063646316528
vn 0.17955918610095978 -0.08023834228515625 0.98046940565109253
vn 0.12088015675544739 -0.086141683161258698 0.98892241716384888
vn -0.77166008949279785 0.51756024360656738 0.36969181895256042
vn -0.69886112213134766 -0.65869742631912231 0.27876654267311096
vn -0.79542183876037598 -0.53658777475357056 0.2817404568195343
vn -0.84897124767303467 -0.44819667935371399 0.27994203567504883
vn 0.37645822763442993 -0.85893827676773071 0.34713718295097351
vn 0.46595963835716248 -0.78843986988067627 0.4015522301197052
vn 0.43138909339904785 -0.8513759970664978 0.29843315482139587
vn 0 0 -1
vn 0 0 -1
vn 0 0 -1
vn -0.076361097395420074 0.13727699220180511 -0.98758494853973389
vn -0.11127329617738724 0.079279489815235138 -0.99062252044677734
vn -0.47726735472679138 0.084539264440536499 -0.87468218803405762
vn -0.080140382051467896 -0.088793195784091949 0.9928208589553833
vn -0.47238203883171082 -0.87613886594772339 -0.096103481948375702
vn -0.47238203883171082 -0.87613886594772339 -0.096103481948375702
vn -0.47238203883171082 -0.87613886594772339 -0.096103481948375702
vn 0.018495047464966774 -0.93602830171585083 0.35143834352493286
vn 0.071768179535865784 -0.94311672449111938 -0.32462316751480103
vn -0.032537318766117096 -0.90194332599639893 0.43062698841094971
vn -0.042015187442302704 -0.90152907371520996 0.4306739866733551
vn -0.61758732795715332 -0.69799524545669556 0.36247554421424866
vn -0.48592165112495422 -0.79561883211135864 0.36176067590713501
vn -0.48707863688468933 -0.79488998651504517 0.36180704832077026
vn -0.7050439715385437 -0.69785457849502563 0.12614277005195618
vn -0.68950933218002319 -0.71396005153656006 0.12181107699871063
vn -0.74390041828155518 -0.65406566858291626 0.1371503472328186
vn 0.091874472796916962 0.10999582707881927 0.98967671394348145
vn -0.41522753238677979 0.90951305627822876 0.019290739670395851
vn -0.58005028963088989 0.16892728209495544 -0.79687213897705078
vn -0.32141345739364624 0.37870290875434875 -0.86791563034057617
vn -0.77944308519363403 -0.62575018405914307 -0.030086904764175415
vn -0.7757798433303833 -0.62898331880569458 -0.050454329699277878
vn -0.79292917251586914 -0.60847842693328857 -0.031894851475954056
vn -0.90898764133453369 -0.31671065092086792 0.27099055051803589
vn -0.90898764133453369 -0.31671065092086792 0.27099055051803589
vn -0.90898764133453369 -0.31671065092086792 0.27099055051803589
vn -0.99999767541885376 -0.0013831279939040542 0.001666519558057189
vn -0.99999755620956421 0.0021871712524443865 0.00027001096168532968
vn -0.99999922513961792 0.0001210106784128584 -0.001241323072463274
vn -0.96430307626724243 0.12360182404518127 0.23418395221233368
vn -0.96430307626724243 0.12360182404518127 0.23418395221233368
vn -0.96430307626724243 0.12360182404518127 0.23418395221233368
vn 0.25649741291999817 -0.67831933498382568 0.68854331970214844
vn 0.25649741291999817 -0.67831933498382568 0.68854331970214844
vn 0.25649741291999817 -0.67831933498382568 0.68854331970214844
vn -0.27811843156814575 -0.071191988885402679 0.95790493488311768
vn -0.11860600113868713 -0.086515575647354126 0.98916512727737427
vn 0.16661937534809113 0.09167364239692688 -0.98175042867660522
vn 0.085393577814102173 0.086649276316165924 -0.99257230758666992
vn 0.073295503854751587 -0.98341888189315796 -0.16587677597999573
vn -0.025925213471055031 -0.99959486722946167 -0.011745946481823921
vn -0.004420028068125248 -0.99887293577194214 -0.047257542610168457
vn 0.17536105215549469 0.39128386974334717 0.90340769290924072
vn -0.16331061720848083 0.69856268167495728 0.69666332006454468
vn -0.16952010989189148 0.95779126882553101 0.23216122388839722
vn -0.38064280152320862 -0.33364489674568176 0.86243385076522827
vn -0.38064280152320862 -0.33364489674568176 0.86243385076522827
vn -0.38064280152320862 -0.33364489674568176 0.86243385076522827
vn 0.68050926923751831 -0.38569891452789307 0.62301158905029297
vn 0.57335925102233887 -0.28727546334266663 0.7672886848449707
vn 0.65665817260742188 -0.27364316582679749 0.70279401540756226
vn 0.5467832088470459 -0.68636292219161987 0.47951439023017883
vn 0.54542970657348633 -0.68393820524215698 0.48449450731277466
vn 0.62708866596221924 -0.45381683111190796 0.63309562206268311
vn 0.63560539484024048 -0.68247169256210327 -0.36088526248931885
vn 0.66570025682449341 -0.67881524562835693 -0.30992424488067627
vn 0.80390465259552002 -0.59273654222488403 -0.048996772617101669
vn -0.6269499659538269 -0.7665296196937561 0.13916213810443878
vn -0.6269499659538269 -0.7665296196937561 0.13916213810443878
vn -0.6269499659538269 -0.7665296196937561 0.13916213810443878
vn -0.67222428321838379 -0.68804603815078735 0.27332615852355957
vn -0.67222428321838379 -0.68804603815078735 0.27332615852355957
vn -0.67222428321838379 -0.68804603815078735 0.27332615852355957
vn 0.28580516576766968 -0.84030157327651978 -0.46066117286682129
vn 0.22120721638202667 -0.88420909643173218 -0.41138994693756104
vn -0.20227693021297455 -0.57063263654708862 -0.79590350389480591
vn 0.47625696659088135 0.093550339341163635 -0.87431550025939941
vn 0.14775820076465607 0.33733910322189331 0.92971491813659668
vn 0.22097204625606537 0.29172846674919128 0.93062657117843628
vn 0.90825164318084717 0.22053402662277222 0.35558924078941345
vn 0.13446539640426636 0.040632728487253189 0.99008488655090332
vn 0.65288275480270386 -0.010691756382584572 0.75738352537155151
vn 0.28822576999664307 0.87468063831329346 0.3896917998790741
vn 0.7358623743057251 0.47304707765579224 0.48449251055717468
vn 0.33736655116081238 0.20416641235351562 0.91896677017211914
vn 0.27849438786506653 0.96024501323699951 -0.01924663782119751
vn 0.61609375476837158 0.22949230670928955 0.75349968671798706
vn 0.56361812353134155 0.37003564834594727 0.73851758241653442
vn 0.99465262889862061 0.10018230229616165 0.025093790143728256
vn 0.9278639554977417 0.2000255286693573 0.3147352933883667
vn 0.80230063199996948 0.044902317225933075 -0.59522891044616699
vn 0.98737365007400513 0.11328189820051193 -0.11072703450918198
vn 0.35708677768707275 0.70668703317642212 0.61080479621887207
vn 0.30571696162223816 0.49577608704566956 -0.81286114454269409
vn 0.58818858861923218 0.29813924431800842 -0.75176268815994263
vn 0.92404186725616455 -0.042262326925992966 -0.37994807958602905
vn 0.95375317335128784 0.27853113412857056 -0.11302785575389862
vn 0.82167565822601318 0.56978261470794678 -0.014031280763447285
vn -0.5523909330368042 0.086214013397693634 -0.82911479473114014
vn -0.030225718393921852 -0.38399127125740051 0.92284184694290161
vn 0.11174018681049347 -0.20093435049057007 0.97321093082427979
vn -0.018561780452728271 -0.0030899324920028448 0.99982291460037231
vn 0.98343706130981445 0.15291622281074524 0.097304724156856537
vn 0.24777697026729584 0.053719110786914825 -0.96732664108276367
vn -0.2774055004119873 -0.071393728256225586 0.95809662342071533
vn -0.031979583203792572 0.058387655764818192 0.99778163433074951
vn 0.0004519703215919435 0.0036379264201968908 0.99999326467514038
vn -0.98493039608001709 0.072089739143848419 -0.15721046924591064
vn 0.44283574819564819 -0.84805542230606079 0.29103004932403564
vn -0.78915202617645264 -0.61366713047027588 -0.025530107319355011
vn -0.99999648332595825 0.0016528343548998237 -0.0020810100249946117
usemtl vc_191919__Default
f 1//1 2//2 3//3
f 4//4 5//5 6//6
f 7//7 8//8 9//9
f 10//10 11//11 12//12
f 13//13 14//14 15//15
f 16//16 10//10 12//12
f 17//17 179//179 3//3 2//2
f 18//18 19//19 20//20
f 21//21 22//22 23//23
f 24//24 25//25 5//5
f 26//26 27//27 28//28
f 29//29 30//30 31//31
f 32//32 33//33 34//34
f 35//35 36//36 21//21
f 2//2 1//1 37//37
f 38//38 27//27 39//39
f 40//40 41//41 42//42
f 43//43 44//44 45//45
f 46//46 47//47 48//48
f 49//49 50//50 51//51
f 52//52 53//53 54//54
f 55//55 2//2 37//37
f 2//2 56//56 17//17
f 57//57 44//44 43//43
f 58//58 59//59 60//60
f 61//61 62//62 63//63
f 64//64 65//65 66//66
f 67//67 61//61 63//63
f 68//68 69//69 70//70
f 55//55 71//71 2//2
f 56//56 2//2 71//71
f 72//72 73//73 74//74
f 77//77 180//180 75//75 76//76
f 78//78 79//79 80//80
f 81//81 82//82 83//83
f 84//84 68//68 70//70
f 85//85 86//86 87//87
f 88//88 89//89 90//90
f 91//91 88//88 90//90
f 92//92 93//93 94//94
f 95//95 96//96 97//97
f 55//55 37//37 98//98
f 99//99 56//56 71//71
f 83//83 100//100 101//101
f 104//104 181//181 102//102 103//103
f 105//105 106//106 107//107
f 108//108 109//109 110//110
f 111//111 112//112 113//113
f 114//114 115//115 116//116
f 117//117 118//118 70//70
f 119//119 120//120 81//81
f 121//121 122//122 123//123
f 124//124 125//125 55//55
f 124//124 55//55 98//98
f 125//125 126//126 71//71
f 126//126 99//99 71//71
f 127//127 128//128 129//129
f 130//130 131//131 132//132
f 133//133 134//134 135//135
f 136//136 137//137 138//138
f 139//139 140//140 141//141
f 142//142 143//143 144//144
f 145//145 146//146 147//147
f 119//119 148//148 120//120
f 149//149 98//98 150//150
f 151//151 152//152 153//153
f 154//154 126//126 125//125
f 155//155 124//124 156//156
f 99//99 126//126 157//157
f 158//158 159//159 98//98
f 160//160 151//151 161//161
f 162//162 163//163 160//160
f 155//155 164//164 124//124
f 157//157 126//126 154//154
f 165//165 81//81 101//101
f 119//119 81//81 165//165
f 148//148 163//163 162//162
f 119//119 165//165 166//166
f 148//148 167//167 163//163
f 166//166 168//168 148//148
f 155//155 151//151 168//168
f 154//154 155//155 169//169
f 157//157 154//154 169//169
f 82//82 170//170 83//83
f 171//171 172//172 173//173
f 30//30 174//174 31//31
f 83//83 101//101 81//81
f 154//154 125//125 124//124
f 163//163 168//168 151//151
f 120//120 82//82 81//81
f 118//118 84//84 70//70
f 148//148 175//175 120//120
f 148//148 162//162 175//175
f 166//166 148//148 119//119
f 125//125 71//71 55//55
f 163//163 151//151 160//160
f 117//117 176//176 118//118
f 155//155 168//168 169//169
f 177//177 178//178 172//172
f 37//37 152//152 98//98
f 109//109 182//182 110//110
