# Dual color encoding: per-vertex RGB for Rerun, face MTL colors for legacy RViz.
mtllib sim_gene01_r_hand_ring_4.mtl
# Rhino

g sim_gene01_r_hand_ring_4
v -6.3666359145028846 29.936040669287298 -7.9053406444307051 0.0980392157 0.0980392157 0.0980392157
v 3.7696709452337367 31.231299891872734 -7.86257151848082 0.0980392157 0.0980392157 0.0980392157
v 0.42659521515632193 23.47007155014316 -10.576145227959723 0.0980392157 0.0980392157 0.0980392157
v 3.7696709452337367 31.231299891872734 -7.86257151848082 0.0980392157 0.0980392157 0.0980392157
v 7.929208893446372 18.070973671793233 -9.5000047058546144 0.0980392157 0.0980392157 0.0980392157
v 9.2303104965386247 25.566152014137792 -6.646194288501218 0.0980392157 0.0980392157 0.0980392157
v 12.911905909176095 13.562991238017069 -6.9615101001363415 0.0980392157 0.0980392157 0.0980392157
v -13.538988128225906 12.289570893387918 -7.3137875911549584 0.0980392157 0.0980392157 0.0980392157
v -10.407312576771293 24.533815288063817 -6.4697732885909591 0.0980392157 0.0980392157 0.0980392157
v -4.567009174293343 18.509580128759417 -5.4055527555405369 0.0980392157 0.0980392157 0.0980392157
v -4.566571097184049 18.275020120622258 -9.2115869160494857 0.0980392157 0.0980392157 0.0980392157
v 5.214546024666773 17.535192332773605 -8.9566474686911643 0.0980392157 0.0980392157 0.0980392157
v 3.8484634589491722 17.598885952305647 -5.2524246506626078 0.0980392157 0.0980392157 0.0980392157
v -4.566571097184049 18.275020120622258 -9.2115869160494857 0.0980392157 0.0980392157 0.0980392157
v -4.567009174293343 18.509580128759417 -5.4055527555405369 0.0980392157 0.0980392157 0.0980392157
v -5.5614114455131425 8.3296062564643947 -4.831370066362731 0.0980392157 0.0980392157 0.0980392157
v 5.0351870309660329 -0.6816616353784053 -9.7879369080647862 0.0980392157 0.0980392157 0.0980392157
v 5.214546024666773 17.535192332773605 -8.9566474686911643 0.0980392157 0.0980392157 0.0980392157
v -4.566571097184049 18.275020120622258 -9.2115869160494857 0.0980392157 0.0980392157 0.0980392157
v 12.951094909131445 -0.78537519318656202 -8.0372487224491849 0.0980392157 0.0980392157 0.0980392157
v 12.911905909176095 13.562991238017069 -6.9615101001363415 0.0980392157 0.0980392157 0.0980392157
v 1.4121771901656928 -0.7118695335468288 -11.257002462815004 0.0980392157 0.0980392157 0.0980392157
v 6.0413166769247262 6.5196313005283697 -5.2065539861192409 0.0980392157 0.0980392157 0.0980392157
v 3.8484634589491722 17.598885952305647 -5.2524246506626078 0.0980392157 0.0980392157 0.0980392157
v 5.214546024666773 17.535192332773605 -8.9566474686911643 0.0980392157 0.0980392157 0.0980392157
v -13.840888784836945 -0.4682742197239283 -7.6093584213309136 0.0980392157 0.0980392157 0.0980392157
v -5.6204154648607627 -0.64882452404273194 -10.475800820476389 0.0980392157 0.0980392157 0.0980392157
v -8.7174648306959419 4.0338402991165516 -5.1113743203268243 0.0980392157 0.0980392157 0.0980392157
v -5.7452500242639699 7.0281263236170979 -9.2522472391039781 0.0980392157 0.0980392157 0.0980392157
v -5.5614114455131425 8.3296062564643947 -4.831370066362731 0.0980392157 0.0980392157 0.0980392157
v -6.9520967909011944 13.915154014788962 -10.130842944000497 0.0980392157 0.0980392157 0.0980392157
v -5.6204154648607627 -0.64882452404273194 -10.475800820476389 0.0980392157 0.0980392157 0.0980392157
v -5.7452500242639699 7.0281263236170979 -9.2522472391039781 0.0980392157 0.0980392157 0.0980392157
v -8.7174648306959419 4.0338402991165516 -5.1113743203268243 0.0980392157 0.0980392157 0.0980392157
v -8.9208580377394284 -3.1588002571888483 -3.5276938943167293 0.0980392157 0.0980392157 0.0980392157
v -5.6204154648607627 -0.64882452404273194 -10.475800820476389 0.0980392157 0.0980392157 0.0980392157
v 6.1270068493008338 -4.3767695023564475 -1.9312076625655228 0.0980392157 0.0980392157 0.0980392157
v 5.0351870309660329 -0.6816616353784053 -9.7879369080647862 0.0980392157 0.0980392157 0.0980392157
v -8.9208580377394284 -3.1588002571888483 -3.5276938943167293 0.0980392157 0.0980392157 0.0980392157
v -13.840888784836945 -0.4682742197239283 -7.6093584213309136 0.0980392157 0.0980392157 0.0980392157
v -5.6204154648607627 -0.64882452404273194 -10.475800820476389 0.0980392157 0.0980392157 0.0980392157
v 1.4121771901656928 -0.7118695335468288 -11.257002462815004 0.0980392157 0.0980392157 0.0980392157
v 5.0351870309660329 -0.6816616353784053 -9.7879369080647862 0.0980392157 0.0980392157 0.0980392157
v 12.951094909131445 -0.78537519318656202 -8.0372487224491849 0.0980392157 0.0980392157 0.0980392157
v -10.932169698341742 23.794114853718284 4.1620772923118077 0.0980392157 0.0980392157 0.0980392157
v -13.538988128225906 12.289570893387918 -7.3137875911549584 0.0980392157 0.0980392157 0.0980392157
v -4.567009174293343 18.509580128759417 -5.4055527555405369 0.0980392157 0.0980392157 0.0980392157
v 3.8484634589491722 17.598885952305647 -5.2524246506626078 0.0980392157 0.0980392157 0.0980392157
v 6.0413166769247262 6.5196313005283697 -5.2065539861192409 0.0980392157 0.0980392157 0.0980392157
v -9.5776495036619913 -4.1239567543137987 3.4444899685599983 0.0980392157 0.0980392157 0.0980392157
v -13.840888784836945 -0.4682742197239283 -7.6093584213309136 0.0980392157 0.0980392157 0.0980392157
v -8.9208580377394284 -3.1588002571888483 -3.5276938943167293 0.0980392157 0.0980392157 0.0980392157
v 6.2590253886520619 29.645367420926856 1.4890612750941505 0.0980392157 0.0980392157 0.0980392157
v 11.239898453676947 20.001346204605973 4.9249505192254945 0.0980392157 0.0980392157 0.0980392157
v -5.5575419289827552 8.0558191320788133 4.8410380334964334 0.0980392157 0.0980392157 0.0980392157
v 6.0764710368796377 7.04671137808913 5.0088419877696353 0.0980392157 0.0980392157 0.0980392157
v 3.0015348691978678 8.9868390305722645 0.15145267850675004 0.0980392157 0.0980392157 0.0980392157
v 6.0413166769247262 6.5196313005283697 -5.2065539861192409 0.0980392157 0.0980392157 0.0980392157
v 12.735868943850161 8.0161031937464244 6.3362595726746704 0.0980392157 0.0980392157 0.0980392157
v 12.951094909131445 -0.78537519318656202 -8.0372487224491849 0.0980392157 0.0980392157 0.0980392157
v -8.9208580377394284 -3.1588002571888483 -3.5276938943167293 0.0980392157 0.0980392157 0.0980392157
v -8.7174648306959419 4.0338402991165516 -5.1113743203268243 0.0980392157 0.0980392157 0.0980392157
v -8.7535668778214895 4.084819802058302 5.1621479472669138 0.0980392157 0.0980392157 0.0980392157
v -4.051102797638908 26.03243732048217 6.0130595998383205 0.0980392157 0.0980392157 0.0980392157
v -4.2937733942703273 31.233146179333104 -1.2460841618312313 0.0980392157 0.0980392157 0.0980392157
v -13.957040540979188 5.6107182883997524 5.4914359262727546 0.0980392157 0.0980392157 0.0980392157
v 3.0015348691978678 8.9868390305722645 0.15145267850675004 0.0980392157 0.0980392157 0.0980392157
v 6.0764710368796377 7.04671137808913 5.0088419877696353 0.0980392157 0.0980392157 0.0980392157
v -5.5575419289827552 8.0558191320788133 4.8410380334964334 0.0980392157 0.0980392157 0.0980392157
v 7.5858398227514865 -4.4739032543590254 4.8491600232869772 0.0980392157 0.0980392157 0.0980392157
v 12.951094909131445 -0.78537519318656202 -8.0372487224491849 0.0980392157 0.0980392157 0.0980392157
v 13.46754087836376 0.97939354034900039 0.90656734333081535 0.0980392157 0.0980392157 0.0980392157
v -13.957040540979188 5.6107182883997524 5.4914359262727546 0.0980392157 0.0980392157 0.0980392157
v -13.840888784836945 -0.4682742197239283 -7.6093584213309136 0.0980392157 0.0980392157 0.0980392157
v -9.5776495036619913 -4.1239567543137987 3.4444899685599983 0.0980392157 0.0980392157 0.0980392157
v 7.5858398227514865 -4.4739032543590254 4.8491600232869772 0.0980392157 0.0980392157 0.0980392157
v 6.1270068493008338 -4.3767695023564475 -1.9312076625655228 0.0980392157 0.0980392157 0.0980392157
v 12.951094909131445 -0.78537519318656202 -8.0372487224491849 0.0980392157 0.0980392157 0.0980392157
v 2.9561235615796964 24.4317424801058 6.705530076383531 0.0980392157 0.0980392157 0.0980392157
v 12.735868943850161 8.0161031937464244 6.3362595726746704 0.0980392157 0.0980392157 0.0980392157
v 10.024241434190026 4.6391760169130105 4.6917925981576065 0.0980392157 0.0980392157 0.0980392157
v 13.46754087836376 0.97939354034900039 0.90656734333081535 0.0980392157 0.0980392157 0.0980392157
v 7.5858398227514865 -4.4739032543590254 4.8491600232869772 0.0980392157 0.0980392157 0.0980392157
v 13.46754087836376 0.97939354034900039 0.90656734333081535 0.0980392157 0.0980392157 0.0980392157
v 10.024241434190026 4.6391760169130105 4.6917925981576065 0.0980392157 0.0980392157 0.0980392157
v -5.5575419289827552 8.0558191320788133 4.8410380334964334 0.0980392157 0.0980392157 0.0980392157
v 6.0764710368796377 7.04671137808913 5.0088419877696353 0.0980392157 0.0980392157 0.0980392157
v 6.3207741759821534 11.553981624952634 5.2099468146194363 0.0980392157 0.0980392157 0.0980392157
v -6.8539461579489043 12.883414690578435 8.4411044299039641 0.0980392157 0.0980392157 0.0980392157
v -5.5575419289827552 8.0558191320788133 4.8410380334964334 0.0980392157 0.0980392157 0.0980392157
v -5.0993299545811741 12.634683635004773 5.2491752697432918 0.0980392157 0.0980392157 0.0980392157
v 5.757965292096344 13.038080557171767 8.4794984401435407 0.0980392157 0.0980392157 0.0980392157
v -6.8539461579489043 12.883414690578435 8.4411044299039641 0.0980392157 0.0980392157 0.0980392157
v -5.0993299545811741 12.634683635004773 5.2491752697432918 0.0980392157 0.0980392157 0.0980392157
v 12.735868943850161 8.0161031937464244 6.3362595726746704 0.0980392157 0.0980392157 0.0980392157
v 6.0764710368796377 7.04671137808913 5.0088419877696353 0.0980392157 0.0980392157 0.0980392157
v 10.024241434190026 4.6391760169130105 4.6917925981576065 0.0980392157 0.0980392157 0.0980392157
v 7.5858398227514865 -4.4739032543590254 4.8491600232869772 0.0980392157 0.0980392157 0.0980392157
v 10.024241434190026 4.6391760169130105 4.6917925981576065 0.0980392157 0.0980392157 0.0980392157
v 5.757965292096344 13.038080557171767 8.4794984401435407 0.0980392157 0.0980392157 0.0980392157
v 6.3207741759821534 11.553981624952634 5.2099468146194363 0.0980392157 0.0980392157 0.0980392157
v 6.0764710368796377 7.04671137808913 5.0088419877696353 0.0980392157 0.0980392157 0.0980392157
v 5.757965292096344 13.038080557171767 8.4794984401435407 0.0980392157 0.0980392157 0.0980392157
v -13.957040540979188 5.6107182883997524 5.4914359262727546 0.0980392157 0.0980392157 0.0980392157
v -8.7535668778214895 4.084819802058302 5.1621479472669138 0.0980392157 0.0980392157 0.0980392157
v -13.957040540979188 5.6107182883997524 5.4914359262727546 0.0980392157 0.0980392157 0.0980392157
v -5.5575419289827552 8.0558191320788133 4.8410380334964334 0.0980392157 0.0980392157 0.0980392157
v -6.8539461579489043 12.883414690578435 8.4411044299039641 0.0980392157 0.0980392157 0.0980392157
v -9.5776495036619913 -4.1239567543137987 3.4444899685599983 0.0980392157 0.0980392157 0.0980392157
v -13.957040540979188 5.6107182883997524 5.4914359262727546 0.0980392157 0.0980392157 0.0980392157
v -6.8539461579489043 12.883414690578435 8.4411044299039641 0.0980392157 0.0980392157 0.0980392157
v 5.757965292096344 13.038080557171767 8.4794984401435407 0.0980392157 0.0980392157 0.0980392157
v 6.3207741759821534 11.553981624952634 5.2099468146194363 0.0980392157 0.0980392157 0.0980392157
v -5.7452500242639699 7.0281263236170979 -9.2522472391039781 0.0980392157 0.0980392157 0.0980392157
v 3.7696709452337367 31.231299891872734 -7.86257151848082 0.0980392157 0.0980392157 0.0980392157
v 6.0764710368796377 7.04671137808913 5.0088419877696353 0.0980392157 0.0980392157 0.0980392157
v 7.5858398227514865 -4.4739032543590254 4.8491600232869772 0.0980392157 0.0980392157 0.0980392157
v -13.840888784836945 -0.4682742197239283 -7.6093584213309136 0.0980392157 0.0980392157 0.0980392157
v -5.5614114455131425 8.3296062564643947 -4.831370066362731 0.0980392157 0.0980392157 0.0980392157
v 12.951094909131445 -0.78537519318656202 -8.0372487224491849 0.0980392157 0.0980392157 0.0980392157
v 6.1270068493008338 -4.3767695023564475 -1.9312076625655228 0.0980392157 0.0980392157 0.0980392157
v -5.7452500242639699 7.0281263236170979 -9.2522472391039781 0.0980392157 0.0980392157 0.0980392157
v -5.5614114455131425 8.3296062564643947 -4.831370066362731 0.0980392157 0.0980392157 0.0980392157
v 6.0413166769247262 6.5196313005283697 -5.2065539861192409 0.0980392157 0.0980392157 0.0980392157
v 3.0015348691978678 8.9868390305722645 0.15145267850675004 0.0980392157 0.0980392157 0.0980392157
v 13.46754087836376 0.97939354034900039 0.90656734333081535 0.0980392157 0.0980392157 0.0980392157
v -9.5776495036619913 -4.1239567543137987 3.4444899685599983 0.0980392157 0.0980392157 0.0980392157
v -5.5614114455131425 8.3296062564643947 -4.831370066362731 0.0980392157 0.0980392157 0.0980392157
v -8.7535668778214895 4.084819802058302 5.1621479472669138 0.0980392157 0.0980392157 0.0980392157
v -5.0993299545811741 12.634683635004773 5.2491752697432918 0.0980392157 0.0980392157 0.0980392157
vn -0.50915873050689697 0.55703699588775635 -0.65609997510910034
vn 0.29140380024909973 0.58317559957504272 -0.75828099250793457
vn 0.0251650121062994 0.083067819476127625 -0.99622613191604614
vn 0.34708282351493835 0.42683830857276917 -0.83507037162780762
vn 0.30441641807556152 0.065073534846305847 -0.95031368732452393
vn 0.85988986492156982 0.41961419582366943 -0.29071173071861267
vn 0.54858362674713135 -0.009558563120663166 -0.83604103326797485
vn -0.59479755163192749 0.074336729943752289 -0.80043107271194458
vn -0.88335967063903809 0.39638319611549377 -0.25011205673217773
vn -0.015545316971838474 -0.99987608194351196 -0.0024884582962840796
vn -0.0012499606236815453 -0.99999916553497314 0.00025027358788065612
vn -0.23144860565662384 -0.9641340970993042 -0.12991125881671906
vn -0.18237325549125671 -0.97831028699874878 -0.098229177296161652
vn 0.99565726518630981 -0.090971395373344421 -0.019770216196775436
vn 0.99613624811172485 -0.086672469973564148 -0.014158247038722038
vn 0.99510496854782104 -0.095595456659793854 -0.025051023811101913
vn -0.1653885543346405 -0.016321651637554169 0.98609340190887451
vn -0.099211320281028748 -0.10637891292572021 0.98936372995376587
vn 0.11035777628421783 -0.12166101485490799 0.98641765117645264
vn 0.61278069019317627 0.0082806916907429695 -0.79020965099334717
vn 0.94806963205337524 0.10531413555145264 -0.30012154579162598
vn 0.063272617757320404 0.015407253056764603 -0.99787735939025879
vn -0.9999387264251709 0.003960790578275919 -0.010338532738387585
vn -0.98205417394638062 0.18851353228092194 -0.0056785931810736656
vn -0.99509650468826294 0.020151842385530472 -0.096834369003772736
vn -0.54127961397171021 0.028471069410443306 -0.84036052227020264
vn -0.20284956693649292 0.014409988187253475 -0.97910386323928833
vn 0.72186416387557983 -0.688884437084198 0.065957300364971161
vn 0.71125233173370361 -0.7024882435798645 0.025108061730861664
vn 0.80528402328491211 -0.57813048362731934 0.13146388530731201
vn -0.2421591579914093 0.046689614653587341 -0.96911251544952393
vn 0.1771005243062973 -0.0080867810174822807 0.98415952920913696
vn 0.14793919026851654 -0.020330246537923813 0.98878747224807739
vn 0.82906001806259155 -0.036144934594631195 0.55799019336700439
vn 0.87413156032562256 -0.0057511106133460999 0.48565512895584106
vn 0.88443237543106079 -0.066894777119159698 0.46184894442558289
vn -0.99998772144317627 0.0017907058354467154 -0.0046182065270841122
vn -0.94685375690460205 0.15627191960811615 0.28115317225456238
vn -0.31232026219367981 -0.93133580684661865 -0.18726891279220581
vn -0.080741144716739655 -0.996440589427948 -0.024228906258940697
vn 0.013107925653457642 -0.99978947639465332 -0.01578679122030735
vn -0.0008654159028083086 -0.99995505809783936 -0.0094391638413071632
vn -0.0029583259020000696 -0.99579113721847534 -0.091604068875312805
vn -0.0012783450074493885 -0.99481827020645142 -0.10166101902723312
vn -0.81061190366744995 0.35861888527870178 0.46292638778686523
vn -0.96490693092346191 0.086026325821876526 -0.24810084700584412
vn 0.016412826254963875 -0.09369601309299469 -0.99546557664871216
vn 0.016345929354429245 0.01275711040943861 -0.99978500604629517
vn 0.0040096691809594631 0.024068133905529976 -0.99970227479934692
vn -0.44167140126228333 -0.81254059076309204 -0.38040003180503845
vn -0.28739124536514282 -0.76887416839599609 -0.57117313146591187
vn -0.10913151502609253 -0.68100118637084961 -0.72410476207733154
vn 0.45533022284507751 0.7672160267829895 0.45172333717346191
vn 0.85922622680664062 0.28638586401939392 0.42392623424530029
vn 0.78573989868164062 -0.61258411407470703 -0.085752665996551514
vn -0.63166964054107666 -0.77261579036712646 -0.063705340027809143
vn -0.63889425992965698 -0.76920825242996216 -0.011522007174789906
vn -0.52790635824203491 -0.84698814153671265 0.062657915055751801
vn 0.91809648275375366 0.13516837358474731 0.37259677052497864
vn 0.95592802762985229 0.020209616050124168 -0.29290473461151123
vn 0.99999988079071045 0.00022826004715170711 0.00038965060957707465
vn 0.99999982118606567 -0.00039665153599344194 0.00050265341997146606
vn 0.99999970197677612 -0.00048426791909150779 -0.00056715047685429454
vn -0.12000808119773865 0.48177579045295715 0.8680381178855896
vn -0.28092232346534729 0.9120105504989624 0.29886355996131897
vn -0.97391468286514282 0.097021996974945068 0.20512646436691284
vn -0.017767513170838356 -0.9735984206199646 -0.22757522761821747
vn -0.061986830085515976 -0.90317243337631226 -0.42477902770042419
vn -0.0038987398147583008 -0.88851636648178101 -0.45882830023765564
vn 0.80156040191650391 -0.57257777452468872 -0.17220813035964966
vn 0.74607104063034058 -0.6276785135269165 0.22225593030452728
vn 0.53020906448364258 -0.74282568693161011 -0.40876436233520508
vn -0.81019818782806396 -0.21044529974460602 0.54707551002502441
vn -0.54471546411514282 -0.83837330341339111 0.020378012210130692
vn -0.71392995119094849 -0.668937087059021 0.20694746077060699
vn 0.069230198860168457 -0.53122216463088989 0.84439933300018311
vn 0.062132429331541061 -0.99680984020233154 0.050096400082111359
vn 0.37398064136505127 -0.74340015649795532 -0.55452203750610352
vn 0.068965882062911987 0.36072459816932678 0.9301190972328186
vn -0.067570671439170837 -0.53344458341598511 0.84313172101974487
vn -0.083492472767829895 -0.64439606666564941 0.7601202130317688
vn -0.10191617161035538 -0.77093154191970825 0.62871110439300537
vn 0.43579298257827759 0.014369004406034946 0.89993220567703247
vn 0.46208429336547852 -0.044457428157329559 0.88572096824645996
vn 0.55906730890274048 -0.32169240713119507 0.76417124271392822
vn -0.006960693746805191 0.0010877505410462618 0.99997520446777344
vn 0.00054497533710673451 -0.0028244000859558582 0.9999958872795105
vn 0.03138912096619606 0.026649599894881248 0.99915188550949097
vn 0.9511793851852417 -0.083217449486255646 0.2972080409526825
vn 0.9511793851852417 -0.083217449486255646 0.2972080409526825
vn 0.9511793851852417 -0.083217449486255646 0.2972080409526825
vn -0.18505579233169556 -0.90935605764389038 0.37259355187416077
vn 0.26636147499084473 -0.96351546049118042 0.026257898658514023
vn 0.047810956835746765 -0.97845327854156494 0.20085631310939789
vn -0.057526510208845139 -0.71748334169387817 0.69419622421264648
vn -0.066965632140636444 -0.68708127737045288 0.72348803281784058
vn 0.026122855022549629 -0.76519936323165894 0.64326316118240356
vn 0.00020724473870359361 -0.0010740706929937005 0.99999940395355225
vn 0 0 1
vn -0.99480563402175903 0.098437078297138214 0.02592046745121479
vn -0.99480563402175903 0.098437078297138214 0.02592046745121479
vn -0.99480563402175903 0.098437078297138214 0.02592046745121479
vn -0.15297700464725494 -0.64277273416519165 0.75062721967697144
vn 0.030554397031664848 -0.027987930923700333 0.9991411566734314
vn -0.073927544057369232 -0.035935968160629272 0.9966159462928772
vn -0.1048915684223175 -0.75132107734680176 0.65154767036437988
vn 0.10630380362272263 -0.48953917622566223 0.86547726392745972
vn 0.18619005382061005 -0.36347383260726929 0.91280889511108398
vn -0.3717840313911438 -0.33772081136703491 0.86470878124237061
vn -0.026176158338785172 -0.058351390063762665 0.99795287847518921
vn -0.13263398408889771 0.12741990387439728 0.982940673828125
vn 0.13532213866710663 0.1100342869758606 0.98467272520065308
vn -0.1841731071472168 -0.92076528072357178 0.34390631318092346
vn 0.81964516639709473 -0.066350303590297699 0.5690162181854248
vn 0.34923553466796875 0.87274116277694702 -0.34111204743385315
vn -0.99734771251678467 -0.063643276691436768 -0.035314459353685379
vn -0.97918659448623657 -0.016157692298293114 0.20231781899929047
vn -0.96978306770324707 0.0034551913850009441 -0.24394446611404419
vn -0.0029008453711867332 -0.99938488006591797 0.034949902445077896
vn 0.20597332715988159 -0.9033847451210022 -0.37612625956535339
vn -0.12685765326023102 -0.93638342618942261 -0.32725104689598083
vn 0.99490112066268921 -0.097366206347942352 -0.026298152282834053
vn 0.0027862850110977888 -0.92622268199920654 0.37696650624275208
vn -0.023914443328976631 -0.95981484651565552 0.27961325645446777
vn -0.0023244556505233049 -0.98256140947341919 0.18592387437820435
vn 0.99989008903503418 0.0039253858849406242 0.014297697693109512
vn 0.99999988079071045 0.00035257340641692281 -0.00040433535468764603
vn -0.004868378397077322 -0.011593962088227272 -0.99992096424102783
vn 0.83374041318893433 -0.54922014474868774 -0.056869290769100189
vn -0.0047473968006670475 -0.0040305755101144314 0.999980628490448
usemtl vc_191919__Default
f 1//1 2//2 3//3
f 3//3 4//4 5//5
f 6//6 5//5 4//4
f 7//7 5//5 6//6
f 8//8 9//9 1//1
f 10//10 11//11 12//12
f 13//13 10//10 12//12
f 14//14 15//15 16//16
f 19//19 33//33 17//17 18//18
f 20//20 5//5 21//21
f 5//5 22//22 3//3
f 23//23 24//24 25//25
f 8//8 31//31 27//27 26//26
f 28//28 29//29 30//30
f 3//3 22//22 31//31
f 32//32 17//17 33//33
f 34//34 35//35 36//36
f 20//20 22//22 5//5
f 37//37 25//25 38//38
f 37//37 23//23 25//25
f 39//39 40//40 41//41
f 42//42 43//43 41//41
f 44//44 43//43 42//42
f 9//9 45//45 1//1
f 45//45 9//9 46//46
f 49//49 128//128 47//47 48//48
f 50//50 51//51 52//52
f 53//53 54//54 6//6
f 6//6 54//54 21//21
f 55//55 129//129 28//28 30//30
f 56//56 57//57 58//58
f 21//21 59//59 60//60
f 61//61 62//62 63//63
f 64//64 65//65 45//45
f 66//66 45//45 46//46
f 67//67 68//68 69//69
f 70//70 71//71 72//72
f 73//73 74//74 75//75
f 76//76 77//77 78//78
f 53//53 65//65 64//64
f 79//79 53//53 64//64
f 80//80 81//81 82//82
f 83//83 84//84 85//85
f 88//88 130//130 86//86 87//87
f 89//89 90//90 91//91
f 92//92 93//93 94//94
f 95//95 96//96 97//97
f 98//98 99//99 87//87
f 100//100 101//101 102//102
f 95//95 103//103 96//96
f 104//104 105//105 86//86
f 106//106 107//107 108//108
f 109//109 105//105 110//110
f 111//111 64//64 45//45
f 79//79 112//112 54//54
f 111//111 112//112 79//79 64//64
f 66//66 111//111 45//45
f 8//8 1//1 31//31
f 92//92 94//94 113//113
f 34//34 36//36 114//114
f 65//65 115//115 1//1
f 53//53 115//115 65//65
f 53//53 6//6 115//115
f 1//1 45//45 65//65
f 23//23 37//37 116//116
f 116//116 37//37 117//117
f 112//112 59//59 54//54
f 46//46 118//118 66//66
f 53//53 79//79 54//54
f 22//22 27//27 31//31
f 1//1 3//3 31//31
f 67//67 69//69 119//119
f 120//120 121//121 43//43
f 59//59 21//21 54//54
f 14//14 16//16 122//122
f 123//123 124//124 125//125
f 59//59 126//126 60//60
f 61//61 63//63 127//127
