# Dual color encoding: per-vertex RGB for Rerun, face MTL colors for legacy RViz.
mtllib sim_gene01_l_hand_index_1.mtl
# Rhino

g sim_gene01_l_hand_index_1
v -4.5510961866644575 6.8372643836148859 -3.8106338814329983 0.0980392157 0.0980392157 0.0980392157
v -5.5618943397718681 7.6369883374375434 -3.4449265814922274 0.0980392157 0.0980392157 0.0980392157
v -5.5083777583638396 9.3776101988546934 -3.2836295289213551 0.0980392157 0.0980392157 0.0980392157
v -3.9331164070014264 7.8831655652871344 -4.5435933436624696 0.0980392157 0.0980392157 0.0980392157
v -4.5510961866644575 6.8372643836148859 -3.8106338814329983 0.0980392157 0.0980392157 0.0980392157
v -5.5083777583638396 9.3776101988546934 -3.2836295289213551 0.0980392157 0.0980392157 0.0980392157
v -3.0175340910215751 11.290155760998754 -4.2977479935491543 0.0980392157 0.0980392157 0.0980392157
v -4.2617015689226863 9.7155686373213523 -0.77601813568325984 0.0980392157 0.0980392157 0.0980392157
v -3.0175340910215751 11.290155760998754 -4.2977479935491543 0.0980392157 0.0980392157 0.0980392157
v -5.5083777583638396 9.3776101988546934 -3.2836295289213551 0.0980392157 0.0980392157 0.0980392157
v -5.5618943397718681 7.6369883374375434 -3.4449265814922274 0.0980392157 0.0980392157 0.0980392157
v -5.5387364985094614 7.6994844540091112 2.2922430094841952 0.0980392157 0.0980392157 0.0980392157
v -5.5083777583638396 9.3776101988546934 -3.2836295289213551 0.0980392157 0.0980392157 0.0980392157
v -4.5510961866644575 6.8372643836148859 -3.8106338814329983 0.0980392157 0.0980392157 0.0980392157
v -4.429237368222676 6.7664388971619811 4.3190857780742862 0.0980392157 0.0980392157 0.0980392157
v -5.5618943397718681 7.6369883374375434 -3.4449265814922274 0.0980392157 0.0980392157 0.0980392157
v -4.2617015689226863 9.7155686373213523 -0.77601813568325984 0.0980392157 0.0980392157 0.0980392157
v -5.5083777583638396 9.3776101988546934 -3.2836295289213551 0.0980392157 0.0980392157 0.0980392157
v -5.5489366743727011 9.2930292822802532 3.2306610524420201 0.0980392157 0.0980392157 0.0980392157
v -3.6399921240817625 10.281225393412566 4.3805293296077092 0.0980392157 0.0980392157 0.0980392157
v -5.5489366743727011 9.2930292822802532 3.2306610524420201 0.0980392157 0.0980392157 0.0980392157
v -4.429237368222676 6.7664388971619811 4.3190857780742862 0.0980392157 0.0980392157 0.0980392157
v -5.5489366743727011 9.2930292822802532 3.2306610524420201 0.0980392157 0.0980392157 0.0980392157
v -5.5387364985094614 7.6994844540091112 2.2922430094841952 0.0980392157 0.0980392157 0.0980392157
v -2.3957080084979925 6.9784576736953019 -4.6467888850467558 0.0980392157 0.0980392157 0.0980392157
v -1.7165094751980234 5.3279380801329665 -4.5263200392921741 0.0980392157 0.0980392157 0.0980392157
v -3.9331164070014264 7.8831655652871344 -4.5435933436624696 0.0980392157 0.0980392157 0.0980392157
v -4.4668904401300153 2.6525100034764897 -3.9076610174831887 0.0980392157 0.0980392157 0.0980392157
v -4.451920469029945 4.3058962529915439 4.4702923386275026 0.0980392157 0.0980392157 0.0980392157
v -4.5510961866644575 6.8372643836148859 -3.8106338814329983 0.0980392157 0.0980392157 0.0980392157
v -4.4668904401300153 2.6525100034764897 -3.9076610174831887 0.0980392157 0.0980392157 0.0980392157
v -4.2697382978486935 0.45254829823593923 -4.4854480985833796 0.0980392157 0.0980392157 0.0980392157
v 3.8517451329594259 4.7597393314129022 -4.5036645509781303 0.0980392157 0.0980392157 0.0980392157
v 4.2838879673026042 -0.92801276578986602 -4.4385603080803415 0.0980392157 0.0980392157 0.0980392157
v -4.2697382978486935 0.45254829823593923 -4.4854480985833796 0.0980392157 0.0980392157 0.0980392157
v -4.7894178538273806 0.25634434710682386 -2.6586908982505371 0.0980392157 0.0980392157 0.0980392157
v -4.2987910539900271 -2.7939515690336814 -3.5296871385472692 0.0980392157 0.0980392157 0.0980392157
v -5.0029508746193327 -1.0818303671238012 -1.1198830536314657 0.0980392157 0.0980392157 0.0980392157
v -4.2958425003049507 -4.4329160111783192 -0.68651721448687675 0.0980392157 0.0980392157 0.0980392157
v -4.2155769898079694 -4.3403147897973486 1.3784678484936683 0.0980392157 0.0980392157 0.0980392157
v -5.0288295751778955 -1.4687417033686254 0.46970487330989436 0.0980392157 0.0980392157 0.0980392157
v -4.3906103530864646 -1.6748795187809051 4.1569356888350386 0.0980392157 0.0980392157 0.0980392157
v -5.0288295751778955 -1.4687417033686254 0.46970487330989436 0.0980392157 0.0980392157 0.0980392157
v -4.7613856862865624 2.8052268406687433 0.16596128821625622 0.0980392157 0.0980392157 0.0980392157
v -4.6532526938487511 0.59394237974939612 2.7493033321906375 0.0980392157 0.0980392157 0.0980392157
v -4.3906103530864646 -1.6748795187809051 4.1569356888350386 0.0980392157 0.0980392157 0.0980392157
v -4.3906103530864646 -1.6748795187809051 4.1569356888350386 0.0980392157 0.0980392157 0.0980392157
v -3.9890489255030515 -0.18562503634424843 4.50726911450898 0.0980392157 0.0980392157 0.0980392157
v -4.451920469029945 4.3058962529915439 4.4702923386275026 0.0980392157 0.0980392157 0.0980392157
v -4.7613856862865624 2.8052268406687433 0.16596128821625622 0.0980392157 0.0980392157 0.0980392157
v -4.9159245991259422 1.5006527696770258 0.2807272015214124 0.0980392157 0.0980392157 0.0980392157
v -4.7613856862865624 2.8052268406687433 0.16596128821625622 0.0980392157 0.0980392157 0.0980392157
v -3.955029705410853 -4.0290098870145448 -2.1061471993779333 0.0980392157 0.0980392157 0.0980392157
v -4.2987910539900271 -2.7939515690336814 -3.5296871385472692 0.0980392157 0.0980392157 0.0980392157
v 4.1882682204101958 -2.9070925186161132 -3.5034135501875143 0.0980392157 0.0980392157 0.0980392157
v -5.0029508746193327 -1.0818303671238012 -1.1198830536314657 0.0980392157 0.0980392157 0.0980392157
v -4.9142017333046262 0.81525663457048292 -1.3594629278566508 0.0980392157 0.0980392157 0.0980392157
v -4.2987910539900271 -2.7939515690336814 -3.5296871385472692 0.0980392157 0.0980392157 0.0980392157
v -3.955029705410853 -4.0290098870145448 -2.1061471993779333 0.0980392157 0.0980392157 0.0980392157
v -4.2958425003049507 -4.4329160111783192 -0.68651721448687675 0.0980392157 0.0980392157 0.0980392157
v 4.0142458951346445 -4.0712168500402743 -1.9435671471748197 0.0980392157 0.0980392157 0.0980392157
v -3.955029705410853 -4.0290098870145448 -2.1061471993779333 0.0980392157 0.0980392157 0.0980392157
v -4.9159245991259422 1.5006527696770258 0.2807272015214124 0.0980392157 0.0980392157 0.0980392157
v -4.8876689631123984 0.72411828040243176 1.3630763966713018 0.0980392157 0.0980392157 0.0980392157
v -4.8973993788370143 -0.46540573048780531 1.4765888672335965 0.0980392157 0.0980392157 0.0980392157
v 4.9052698266513275 0.68559474441764179 1.3806680536446052 0.0980392157 0.0980392157 0.0980392157
v -4.8973993788370143 -0.46540573048780531 1.4765888672335965 0.0980392157 0.0980392157 0.0980392157
v -4.8876689631123984 0.72411828040243176 1.3630763966713018 0.0980392157 0.0980392157 0.0980392157
v 4.9043567960262315 1.4241055072545745 -0.64825003623121491 0.0980392157 0.0980392157 0.0980392157
v 4.9000000953674316 1.3199367523193359 0.70894068479537964 0.0980392157 0.0980392157 0.0980392157
v -4.9159245991259422 1.5006527696770258 0.2807272015214124 0.0980392157 0.0980392157 0.0980392157
v 4.9000000953674316 1.3199367523193359 0.70894068479537964 0.0980392157 0.0980392157 0.0980392157
v 4.9944858612740264 -0.73479050649526223 -1.3285334762805063 0.0980392157 0.0980392157 0.0980392157
v 4.9508251577463396 0.55863847861587956 -1.405547337037699 0.0980392157 0.0980392157 0.0980392157
v -4.9142017333046262 0.81525663457048292 -1.3594629278566508 0.0980392157 0.0980392157 0.0980392157
v 4.9944858612740264 -0.73479050649526223 -1.3285334762805063 0.0980392157 0.0980392157 0.0980392157
v -5.0029508746193327 -1.0818303671238012 -1.1198830536314657 0.0980392157 0.0980392157 0.0980392157
v 4.9179065128879484 -1.5358353107317086 -0.19471511972223912 0.0980392157 0.0980392157 0.0980392157
v -5.0288295751778955 -1.4687417033686254 0.46970487330989436 0.0980392157 0.0980392157 0.0980392157
v 5.0499821459396763 -0.85774303118291739 1.3555501268895866 0.0980392157 0.0980392157 0.0980392157
v 4.9179065128879484 -1.5358353107317086 -0.19471511972223912 0.0980392157 0.0980392157 0.0980392157
v 5.0499821459396763 -0.85774303118291739 1.3555501268895866 0.0980392157 0.0980392157 0.0980392157
v -5.0288295751778955 -1.4687417033686254 0.46970487330989436 0.0980392157 0.0980392157 0.0980392157
v -4.2958425003049507 -4.4329160111783192 -0.68651721448687675 0.0980392157 0.0980392157 0.0980392157
v -3.955029705410853 -4.0290098870145448 -2.1061471993779333 0.0980392157 0.0980392157 0.0980392157
v 4.2886848589763877 -4.4940654530310589 -0.45832850550332449 0.0980392157 0.0980392157 0.0980392157
v 4.1775476257843298 -4.0087132358571864 2.2384880546903712 0.0980392157 0.0980392157 0.0980392157
v -4.2155769898079694 -4.3403147897973486 1.3784678484936683 0.0980392157 0.0980392157 0.0980392157
v 4.9043567960262315 1.4241055072545745 -0.64825003623121491 0.0980392157 0.0980392157 0.0980392157
v -4.9159245991259422 1.5006527696770258 0.2807272015214124 0.0980392157 0.0980392157 0.0980392157
v -4.9142017333046262 0.81525663457048292 -1.3594629278566508 0.0980392157 0.0980392157 0.0980392157
v 5.0499821459396763 -0.85774303118291739 1.3555501268895866 0.0980392157 0.0980392157 0.0980392157
v 4.9944858612740264 -0.73479050649526223 -1.3285334762805063 0.0980392157 0.0980392157 0.0980392157
v 4.9179065128879484 -1.5358353107317086 -0.19471511972223912 0.0980392157 0.0980392157 0.0980392157
v 4.7203018991935854 2.2016229778480394 1.8889909114151346 0.0980392157 0.0980392157 0.0980392157
v 4.9000000953674316 1.3199367523193359 0.70894068479537964 0.0980392157 0.0980392157 0.0980392157
v 4.9043567960262315 1.4241055072545745 -0.64825003623121491 0.0980392157 0.0980392157 0.0980392157
v 4.9052698266513275 0.68559474441764179 1.3806680536446052 0.0980392157 0.0980392157 0.0980392157
v 4.9052698266513275 0.68559474441764179 1.3806680536446052 0.0980392157 0.0980392157 0.0980392157
v -4.3906103530864646 -1.6748795187809051 4.1569356888350386 0.0980392157 0.0980392157 0.0980392157
v -4.2155769898079694 -4.3403147897973486 1.3784678484936683 0.0980392157 0.0980392157 0.0980392157
v -3.9703950764633027 -3.1577982784385772 3.2594985614734306 0.0980392157 0.0980392157 0.0980392157
v -5.0288295751778955 -1.4687417033686254 0.46970487330989436 0.0980392157 0.0980392157 0.0980392157
v -3.2512289987925671 11.17860182726835 4.0413927819570974 0.0980392157 0.0980392157 0.0980392157
v -4.2617015689226863 9.7155686373213523 -0.77601813568325984 0.0980392157 0.0980392157 0.0980392157
v -3.6399921240817625 10.281225393412566 4.3805293296077092 0.0980392157 0.0980392157 0.0980392157
v 4.3928898660699565 -1.7781679740970642 4.1684178333477373 0.0980392157 0.0980392157 0.0980392157
v -4.3906103530864646 -1.6748795187809051 4.1569356888350386 0.0980392157 0.0980392157 0.0980392157
v -3.9703950764633027 -3.1577982784385772 3.2594985614734306 0.0980392157 0.0980392157 0.0980392157
v -3.6399921240817625 10.281225393412566 4.3805293296077092 0.0980392157 0.0980392157 0.0980392157
v 4.0012118455682613 -0.2741193658666532 4.498081393106534 0.0980392157 0.0980392157 0.0980392157
v 4.0303723897873311 6.030579593893151 4.5141015921806389 0.0980392157 0.0980392157 0.0980392157
v -4.451920469029945 4.3058962529915439 4.4702923386275026 0.0980392157 0.0980392157 0.0980392157
v 4.4975073524372426 3.4164868472818668 -3.9346657782835157 0.0980392157 0.0980392157 0.0980392157
v 4.2838879673026042 -0.92801276578986602 -4.4385603080803415 0.0980392157 0.0980392157 0.0980392157
v 3.8517451329594259 4.7597393314129022 -4.5036645509781303 0.0980392157 0.0980392157 0.0980392157
v 1.7117029467424638 5.2765771162639901 -4.5350540394343142 0.0980392157 0.0980392157 0.0980392157
v 4.4681441486795439 8.9747014925286397 -4.253301468913552 0.0980392157 0.0980392157 0.0980392157
v 3.8517451329594259 4.7597393314129022 -4.5036645509781303 0.0980392157 0.0980392157 0.0980392157
v 2.2203911147603144 7.1381668863198051 -4.8323024539670074 0.0980392157 0.0980392157 0.0980392157
v 2.3791495587912639 8.7932502603615248 -4.7506781810737388 0.0980392157 0.0980392157 0.0980392157
v 4.4681441486795439 8.9747014925286397 -4.253301468913552 0.0980392157 0.0980392157 0.0980392157
v 2.2203911147603144 7.1381668863198051 -4.8323024539670074 0.0980392157 0.0980392157 0.0980392157
v 3.8517451329594259 4.7597393314129022 -4.5036645509781303 0.0980392157 0.0980392157 0.0980392157
v 1.7117029467424638 5.2765771162639901 -4.5350540394343142 0.0980392157 0.0980392157 0.0980392157
v -4.0135525658321773 -1.4581059589869056 -4.2847717165146886 0.0980392157 0.0980392157 0.0980392157
v -4.2697382978486935 0.45254829823593923 -4.4854480985833796 0.0980392157 0.0980392157 0.0980392157
v 4.2838879673026042 -0.92801276578986602 -4.4385603080803415 0.0980392157 0.0980392157 0.0980392157
v -4.0135525658321773 -1.4581059589869056 -4.2847717165146886 0.0980392157 0.0980392157 0.0980392157
v -4.2987910539900271 -2.7939515690336814 -3.5296871385472692 0.0980392157 0.0980392157 0.0980392157
v 4.638642264677558 -3.0874351201312646 -1.5957119723523148 0.0980392157 0.0980392157 0.0980392157
v 4.0142458951346445 -4.0712168500402743 -1.9435671471748197 0.0980392157 0.0980392157 0.0980392157
v 4.1882682204101958 -2.9070925186161132 -3.5034135501875143 0.0980392157 0.0980392157 0.0980392157
v -3.0175340910215751 11.290155760998754 -4.2977479935491543 0.0980392157 0.0980392157 0.0980392157
v -4.2155769898079694 -4.3403147897973486 1.3784678484936683 0.0980392157 0.0980392157 0.0980392157
v -1.761398905339238 5.7880795898722202 4.6754128006217828 0.0980392157 0.0980392157 0.0980392157
v -4.429237368222676 6.7664388971619811 4.3190857780742862 0.0980392157 0.0980392157 0.0980392157
v 1.4827873893561432 5.6620974560735196 4.6756951880332771 0.0980392157 0.0980392157 0.0980392157
v 4.0303723897873311 6.030579593893151 4.5141015921806389 0.0980392157 0.0980392157 0.0980392157
v -1.761398905339238 5.7880795898722202 4.6754128006217828 0.0980392157 0.0980392157 0.0980392157
v -2.1027109075156503 8.8619663088213994 4.8323510100192211 0.0980392157 0.0980392157 0.0980392157
v 2.412403318690151 7.7719791351130141 4.8793684514492321 0.0980392157 0.0980392157 0.0980392157
v 4.0303723897873311 6.030579593893151 4.5141015921806389 0.0980392157 0.0980392157 0.0980392157
v 3.4604797260389866 10.982970796884729 4.2809702427575784 0.0980392157 0.0980392157 0.0980392157
v 1.3723883962077466 10.874517506123913 4.5628487447076616 0.0980392157 0.0980392157 0.0980392157
v 0.043064641954426386 12.52807818257723 4.1385282529138063 0.0980392157 0.0980392157 0.0980392157
v -1.5545367969976078 12.230165218594497 4.3187128056007529 0.0980392157 0.0980392157 0.0980392157
v 1.3723883962077466 10.874517506123913 4.5628487447076616 0.0980392157 0.0980392157 0.0980392157
v 1.7507977481235046 12.142137341551708 4.2553781017692174 0.0980392157 0.0980392157 0.0980392157
v 4.3928898660699565 -1.7781679740970642 4.1684178333477373 0.0980392157 0.0980392157 0.0980392157
v 4.500083468415033 3.2318430980913067 3.919865063912884 0.0980392157 0.0980392157 0.0980392157
v 4.0012118455682613 -0.2741193658666532 4.498081393106534 0.0980392157 0.0980392157 0.0980392157
v -3.9890489255030515 -0.18562503634424843 4.50726911450898 0.0980392157 0.0980392157 0.0980392157
v 4.3928898660699565 -1.7781679740970642 4.1684178333477373 0.0980392157 0.0980392157 0.0980392157
v -2.0551596001347576 8.8150343491419498 -4.8934307069069272 0.0980392157 0.0980392157 0.0980392157
v -3.9331164070014264 7.8831655652871344 -4.5435933436624696 0.0980392157 0.0980392157 0.0980392157
v -3.0175340910215751 11.290155760998754 -4.2977479935491543 0.0980392157 0.0980392157 0.0980392157
v -1.5545367969976078 12.230165218594497 4.3187128056007529 0.0980392157 0.0980392157 0.0980392157
v -1.4380150412516728 12.295463999548048 -4.0515523798525859 0.0980392157 0.0980392157 0.0980392157
v -1.5545367969976078 12.230165218594497 4.3187128056007529 0.0980392157 0.0980392157 0.0980392157
v -3.2512289987925671 11.17860182726835 4.0413927819570974 0.0980392157 0.0980392157 0.0980392157
v -3.6399921240817625 10.281225393412566 4.3805293296077092 0.0980392157 0.0980392157 0.0980392157
v -1.3996142696401064 10.740291545965441 4.5668042301442116 0.0980392157 0.0980392157 0.0980392157
v -1.5545367969976078 12.230165218594497 4.3187128056007529 0.0980392157 0.0980392157 0.0980392157
v -3.6399921240817625 10.281225393412566 4.3805293296077092 0.0980392157 0.0980392157 0.0980392157
v -2.1027109075156503 8.8619663088213994 4.8323510100192211 0.0980392157 0.0980392157 0.0980392157
v -1.3996142696401064 10.740291545965441 4.5668042301442116 0.0980392157 0.0980392157 0.0980392157
v -3.6399921240817625 10.281225393412566 4.3805293296077092 0.0980392157 0.0980392157 0.0980392157
v -3.0175340910215751 11.290155760998754 -4.2977479935491543 0.0980392157 0.0980392157 0.0980392157
v -0.43790420800681007 9.4951151846752637 -5.3816035964351023 0.0980392157 0.0980392157 0.0980392157
v -1.3284835279040044 8.5801320685031808 -5.9720449015569361 0.0980392157 0.0980392157 0.0980392157
v -2.3957080084979925 6.9784576736953019 -4.6467888850467558 0.0980392157 0.0980392157 0.0980392157
v -2.0551596001347576 8.8150343491419498 -4.8934307069069272 0.0980392157 0.0980392157 0.0980392157
v -1.0166711993704811 6.9085265312194615 6.0606583121134783 0.0980392157 0.0980392157 0.0980392157
v -2.1027109075156503 8.8619663088213994 4.8323510100192211 0.0980392157 0.0980392157 0.0980392157
v -1.761398905339238 5.7880795898722202 4.6754128006217828 0.0980392157 0.0980392157 0.0980392157
v -0.98371477235014559 9.0234408235164256 -9.4454785172732905 0.0980392157 0.0980392157 0.0980392157
v -1.5355689706624145 7.5570302343593116 -9.3020294825723493 0.0980392157 0.0980392157 0.0980392157
v -2.2375491254915563 7.685110219343132 -7.8651526533702665 0.0980392157 0.0980392157 0.0980392157
v -0.24291349995111156 6.4355837336923267 -9.4717285217075862 0.0980392157 0.0980392157 0.0980392157
v -1.5355689706624145 7.5570302343593116 -9.3020294825723493 0.0980392157 0.0980392157 0.0980392157
v -0.98371477235014559 9.0234408235164256 -9.4454785172732905 0.0980392157 0.0980392157 0.0980392157
v -1.3134292917310608 7.1474774073042369 -6.8101932099177391 0.0980392157 0.0980392157 0.0980392157
v -0.24291349995111156 6.4355837336923267 -9.4717285217075862 0.0980392157 0.0980392157 0.0980392157
v -1.3134292917310608 7.1474774073042369 -6.8101932099177391 0.0980392157 0.0980392157 0.0980392157
v -2.2375491254915563 7.685110219343132 -7.8651526533702665 0.0980392157 0.0980392157 0.0980392157
v -1.5355689706624145 7.5570302343593116 -9.3020294825723493 0.0980392157 0.0980392157 0.0980392157
v -0.98371477235014559 9.0234408235164256 -9.4454785172732905 0.0980392157 0.0980392157 0.0980392157
v -2.2375491254915563 7.685110219343132 -7.8651526533702665 0.0980392157 0.0980392157 0.0980392157
v -1.2057779493931666 9.9093631233472568 -7.7589501900175408 0.0980392157 0.0980392157 0.0980392157
v -1.3284835279040044 8.5801320685031808 -5.9720449015569361 0.0980392157 0.0980392157 0.0980392157
v -1.2057779493931666 9.9093631233472568 -7.7589501900175408 0.0980392157 0.0980392157 0.0980392157
v -2.2375491254915563 7.685110219343132 -7.8651526533702665 0.0980392157 0.0980392157 0.0980392157
v -2.3957080084979925 6.9784576736953019 -4.6467888850467558 0.0980392157 0.0980392157 0.0980392157
v -1.3284835279040044 8.5801320685031808 -5.9720449015569361 0.0980392157 0.0980392157 0.0980392157
v -1.3134292917310608 7.1474774073042369 -6.8101932099177391 0.0980392157 0.0980392157 0.0980392157
v -0.0055047305957121595 6.5329623197260052 -5.7770490410996018 0.0980392157 0.0980392157 0.0980392157
v -2.3957080084979925 6.9784576736953019 -4.6467888850467558 0.0980392157 0.0980392157 0.0980392157
v -1.3134292917310608 7.1474774073042369 -6.8101932099177391 0.0980392157 0.0980392157 0.0980392157
v -0.0055047305957121595 6.5329623197260052 -5.7770490410996018 0.0980392157 0.0980392157 0.0980392157
v -1.7165094751980234 5.3279380801329665 -4.5263200392921741 0.0980392157 0.0980392157 0.0980392157
v -2.3957080084979925 6.9784576736953019 -4.6467888850467558 0.0980392157 0.0980392157 0.0980392157
v -0.43790420800681007 9.4951151846752637 -5.3816035964351023 0.0980392157 0.0980392157 0.0980392157
v -1.3284835279040044 8.5801320685031808 -5.9720449015569361 0.0980392157 0.0980392157 0.0980392157
v -2.0551596001347576 8.8150343491419498 -4.8934307069069272 0.0980392157 0.0980392157 0.0980392157
v 1.1707619593462715 12.427382614067684 -4.2513600449713307 0.0980392157 0.0980392157 0.0980392157
v -3.0175340910215751 11.290155760998754 -4.2977479935491543 0.0980392157 0.0980392157 0.0980392157
v -1.4380150412516728 12.295463999548048 -4.0515523798525859 0.0980392157 0.0980392157 0.0980392157
v 0.83269348831344681 6.6620189047263771 6.1664798307848736 0.0980392157 0.0980392157 0.0980392157
v -1.761398905339238 5.7880795898722202 4.6754128006217828 0.0980392157 0.0980392157 0.0980392157
v 1.4827873893561432 5.6620974560735196 4.6756951880332771 0.0980392157 0.0980392157 0.0980392157
v 0.83269348831344681 6.6620189047263771 6.1664798307848736 0.0980392157 0.0980392157 0.0980392157
v -1.0166711993704811 6.9085265312194615 6.0606583121134783 0.0980392157 0.0980392157 0.0980392157
v -1.761398905339238 5.7880795898722202 4.6754128006217828 0.0980392157 0.0980392157 0.0980392157
v -1.4768177090768995 8.5407253373541874 6.4562562853318584 0.0980392157 0.0980392157 0.0980392157
v -2.1027109075156503 8.8619663088213994 4.8323510100192211 0.0980392157 0.0980392157 0.0980392157
v -1.0166711993704811 6.9085265312194615 6.0606583121134783 0.0980392157 0.0980392157 0.0980392157
v -2.1798251640795314 7.4440721697503598 7.7975333332106036 0.0980392157 0.0980392157 0.0980392157
v -1.4768177090768995 8.5407253373541874 6.4562562853318584 0.0980392157 0.0980392157 0.0980392157
v -1.0166711993704811 6.9085265312194615 6.0606583121134783 0.0980392157 0.0980392157 0.0980392157
v -1.6681530324006653 9.1643179495514104 7.9414842199970863 0.0980392157 0.0980392157 0.0980392157
v -0.048539249447171473 9.5325564080040426 5.670690413636442 0.0980392157 0.0980392157 0.0980392157
v -1.4768177090768995 8.5407253373541874 6.4562562853318584 0.0980392157 0.0980392157 0.0980392157
v -1.6681530324006653 9.1643179495514104 7.9414842199970863 0.0980392157 0.0980392157 0.0980392157
v -1.0181610191697688 5.9888309440749685 7.7641478891348905 0.0980392157 0.0980392157 0.0980392157
v -2.1798251640795314 7.4440721697503598 7.7975333332106036 0.0980392157 0.0980392157 0.0980392157
v -1.0166711993704811 6.9085265312194615 6.0606583121134783 0.0980392157 0.0980392157 0.0980392157
v 0.16687320207447409 6.4787051693193316 8.9160334414462525 0.0980392157 0.0980392157 0.0980392157
v -2.1798251640795314 7.4440721697503598 7.7975333332106036 0.0980392157 0.0980392157 0.0980392157
v -1.0181610191697688 5.9888309440749685 7.7641478891348905 0.0980392157 0.0980392157 0.0980392157
v -1.6681530324006653 9.1643179495514104 7.9414842199970863 0.0980392157 0.0980392157 0.0980392157
v -2.1798251640795314 7.4440721697503598 7.7975333332106036 0.0980392157 0.0980392157 0.0980392157
v -1.5175140916455536 7.4931936572981082 9.5107072424179648 0.0980392157 0.0980392157 0.0980392157
v -1.5175140916455536 7.4931936572981082 9.5107072424179648 0.0980392157 0.0980392157 0.0980392157
v -2.1798251640795314 7.4440721697503598 7.7975333332106036 0.0980392157 0.0980392157 0.0980392157
v 0.16687320207447409 6.4787051693193316 8.9160334414462525 0.0980392157 0.0980392157 0.0980392157
v 0.91210384684507373 9.1336466744769815 -9.4881280609392533 0.0980392157 0.0980392157 0.0980392157
v 1.4750229252317784 7.6417055515378038 -9.400680908897181 0.0980392157 0.0980392157 0.0980392157
v -0.98371477235014559 9.0234408235164256 -9.4454785172732905 0.0980392157 0.0980392157 0.0980392157
v -1.2057779493931666 9.9093631233472568 -7.7589501900175408 0.0980392157 0.0980392157 0.0980392157
v 0.91210384684507373 9.1336466744769815 -9.4881280609392533 0.0980392157 0.0980392157 0.0980392157
v -0.0055047305957121595 6.5329623197260052 -5.7770490410996018 0.0980392157 0.0980392157 0.0980392157
v -0.24291349995111156 6.4355837336923267 -9.4717285217075862 0.0980392157 0.0980392157 0.0980392157
v -0.43790420800681007 9.4951151846752637 -5.3816035964351023 0.0980392157 0.0980392157 0.0980392157
v 0.80742057827732605 9.1743406902148568 -5.9589839686592727 0.0980392157 0.0980392157 0.0980392157
v -1.2057779493931666 9.9093631233472568 -7.7589501900175408 0.0980392157 0.0980392157 0.0980392157
v -0.43790420800681007 9.4951151846752637 -5.3816035964351023 0.0980392157 0.0980392157 0.0980392157
v -1.2057779493931666 9.9093631233472568 -7.7589501900175408 0.0980392157 0.0980392157 0.0980392157
v -1.3284835279040044 8.5801320685031808 -5.9720449015569361 0.0980392157 0.0980392157 0.0980392157
v 1.7117029467424638 5.2765771162639901 -4.5350540394343142 0.0980392157 0.0980392157 0.0980392157
v -1.3996142696401064 10.740291545965441 4.5668042301442116 0.0980392157 0.0980392157 0.0980392157
v 0.83269348831344681 6.6620189047263771 6.1664798307848736 0.0980392157 0.0980392157 0.0980392157
v -1.0181610191697688 5.9888309440749685 7.7641478891348905 0.0980392157 0.0980392157 0.0980392157
v -1.0166711993704811 6.9085265312194615 6.0606583121134783 0.0980392157 0.0980392157 0.0980392157
v 1.2637122205408637 6.156101607400041 7.7917165865063494 0.0980392157 0.0980392157 0.0980392157
v -1.0181610191697688 5.9888309440749685 7.7641478891348905 0.0980392157 0.0980392157 0.0980392157
v 0.83269348831344681 6.6620189047263771 6.1664798307848736 0.0980392157 0.0980392157 0.0980392157
v 0.16687320207447409 6.4787051693193316 8.9160334414462525 0.0980392157 0.0980392157 0.0980392157
v -1.0181610191697688 5.9888309440749685 7.7641478891348905 0.0980392157 0.0980392157 0.0980392157
v 1.2637122205408637 6.156101607400041 7.7917165865063494 0.0980392157 0.0980392157 0.0980392157
v 0.16687320207447409 6.4787051693193316 8.9160334414462525 0.0980392157 0.0980392157 0.0980392157
v 1.2637122205408637 6.156101607400041 7.7917165865063494 0.0980392157 0.0980392157 0.0980392157
v 1.9977744551764169 7.265997339858183 7.6493289811987646 0.0980392157 0.0980392157 0.0980392157
v 1.1314140183772867 7.0307875763889287 9.4952557223283414 0.0980392157 0.0980392157 0.0980392157
v 1.1762912124827842 8.9563142342965758 9.4651112115507114 0.0980392157 0.0980392157 0.0980392157
v -0.22241748178723286 9.4737201619243869 9.4227622033876877 0.0980392157 0.0980392157 0.0980392157
v 1.2293401688839947 7.0517728999850728 -6.4226887220193216 0.0980392157 0.0980392157 0.0980392157
v -0.0055047305957121595 6.5329623197260052 -5.7770490410996018 0.0980392157 0.0980392157 0.0980392157
v 1.7481120465845745 6.5523747220386284 -7.5946704260496167 0.0980392157 0.0980392157 0.0980392157
v 0.86161286549133687 10.143995046729655 -4.8944609007353099 0.0980392157 0.0980392157 0.0980392157
v 0.80742057827732605 9.1743406902148568 -5.9589839686592727 0.0980392157 0.0980392157 0.0980392157
v -0.43790420800681007 9.4951151846752637 -5.3816035964351023 0.0980392157 0.0980392157 0.0980392157
v 1.7507977481235046 12.142137341551708 4.2553781017692174 0.0980392157 0.0980392157 0.0980392157
v 1.1707619593462715 12.427382614067684 -4.2513600449713307 0.0980392157 0.0980392157 0.0980392157
v 0.043064641954426386 12.52807818257723 4.1385282529138063 0.0980392157 0.0980392157 0.0980392157
v 1.1314140183772867 7.0307875763889287 9.4952557223283414 0.0980392157 0.0980392157 0.0980392157
v -1.5175140916455536 7.4931936572981082 9.5107072424179648 0.0980392157 0.0980392157 0.0980392157
v 1.7481120465845745 6.5523747220386284 -7.5946704260496167 0.0980392157 0.0980392157 0.0980392157
v -0.24291349995111156 6.4355837336923267 -9.4717285217075862 0.0980392157 0.0980392157 0.0980392157
v 1.4750229252317784 7.6417055515378038 -9.400680908897181 0.0980392157 0.0980392157 0.0980392157
v 0.86161286549133687 10.143995046729655 -4.8944609007353099 0.0980392157 0.0980392157 0.0980392157
v -0.43790420800681007 9.4951151846752637 -5.3816035964351023 0.0980392157 0.0980392157 0.0980392157
v -3.0175340910215751 11.290155760998754 -4.2977479935491543 0.0980392157 0.0980392157 0.0980392157
v 1.1707619593462715 12.427382614067684 -4.2513600449713307 0.0980392157 0.0980392157 0.0980392157
v 3.0390460971627409 11.350088559962536 -4.3005148110335494 0.0980392157 0.0980392157 0.0980392157
v -3.0175340910215751 11.290155760998754 -4.2977479935491543 0.0980392157 0.0980392157 0.0980392157
v 3.0390460971627409 11.350088559962536 -4.3005148110335494 0.0980392157 0.0980392157 0.0980392157
v 1.3769721594081299 8.1012275221784567 5.8691725332483742 0.0980392157 0.0980392157 0.0980392157
v 1.3723883962077466 10.874517506123913 4.5628487447076616 0.0980392157 0.0980392157 0.0980392157
v -0.048539249447171473 9.5325564080040426 5.670690413636442 0.0980392157 0.0980392157 0.0980392157
v 1.975150492511871 9.0860618689975254 7.9863482281888167 0.0980392157 0.0980392157 0.0980392157
v -0.048539249447171473 9.5325564080040426 5.670690413636442 0.0980392157 0.0980392157 0.0980392157
v -0.22241748178723286 9.4737201619243869 9.4227622033876877 0.0980392157 0.0980392157 0.0980392157
v 1.975150492511871 9.0860618689975254 7.9863482281888167 0.0980392157 0.0980392157 0.0980392157
v 1.3769721594081299 8.1012275221784567 5.8691725332483742 0.0980392157 0.0980392157 0.0980392157
v 1.1762912124827842 8.9563142342965758 9.4651112115507114 0.0980392157 0.0980392157 0.0980392157
v 1.1266207142250368 10.009120871473922 -7.7272855300768555 0.0980392157 0.0980392157 0.0980392157
v 2.2142745059822517 8.2544582211562396 -7.7462984835038737 0.0980392157 0.0980392157 0.0980392157
v 0.91210384684507373 9.1336466744769815 -9.4881280609392533 0.0980392157 0.0980392157 0.0980392157
v 1.4514445572446726 8.2984186796879982 -6.7679092377577792 0.0980392157 0.0980392157 0.0980392157
v 1.1266207142250368 10.009120871473922 -7.7272855300768555 0.0980392157 0.0980392157 0.0980392157
v 0.80742057827732605 9.1743406902148568 -5.9589839686592727 0.0980392157 0.0980392157 0.0980392157
v 2.2142745059822517 8.2544582211562396 -7.7462984835038737 0.0980392157 0.0980392157 0.0980392157
v 1.1266207142250368 10.009120871473922 -7.7272855300768555 0.0980392157 0.0980392157 0.0980392157
v 1.4514445572446726 8.2984186796879982 -6.7679092377577792 0.0980392157 0.0980392157 0.0980392157
v 2.2203911147603144 7.1381668863198051 -4.8323024539670074 0.0980392157 0.0980392157 0.0980392157
v -0.0055047305957121595 6.5329623197260052 -5.7770490410996018 0.0980392157 0.0980392157 0.0980392157
v 1.2293401688839947 7.0517728999850728 -6.4226887220193216 0.0980392157 0.0980392157 0.0980392157
v 1.7117029467424638 5.2765771162639901 -4.5350540394343142 0.0980392157 0.0980392157 0.0980392157
v 2.2203911147603144 7.1381668863198051 -4.8323024539670074 0.0980392157 0.0980392157 0.0980392157
v 0.80742057827732605 9.1743406902148568 -5.9589839686592727 0.0980392157 0.0980392157 0.0980392157
v 2.3791495587912639 8.7932502603615248 -4.7506781810737388 0.0980392157 0.0980392157 0.0980392157
v 0.86161286549133687 10.143995046729655 -4.8944609007353099 0.0980392157 0.0980392157 0.0980392157
v 3.0390460971627409 11.350088559962536 -4.3005148110335494 0.0980392157 0.0980392157 0.0980392157
v 0.80742057827732605 9.1743406902148568 -5.9589839686592727 0.0980392157 0.0980392157 0.0980392157
v 2.3791495587912639 8.7932502603615248 -4.7506781810737388 0.0980392157 0.0980392157 0.0980392157
v 2.2203911147603144 7.1381668863198051 -4.8323024539670074 0.0980392157 0.0980392157 0.0980392157
v 0.83269348831344681 6.6620189047263771 6.1664798307848736 0.0980392157 0.0980392157 0.0980392157
v 1.4827873893561432 5.6620974560735196 4.6756951880332771 0.0980392157 0.0980392157 0.0980392157
v 1.3769721594081299 8.1012275221784567 5.8691725332483742 0.0980392157 0.0980392157 0.0980392157
v 2.412403318690151 7.7719791351130141 4.8793684514492321 0.0980392157 0.0980392157 0.0980392157
v 1.3769721594081299 8.1012275221784567 5.8691725332483742 0.0980392157 0.0980392157 0.0980392157
v 1.4827873893561432 5.6620974560735196 4.6756951880332771 0.0980392157 0.0980392157 0.0980392157
v 1.2637122205408637 6.156101607400041 7.7917165865063494 0.0980392157 0.0980392157 0.0980392157
v 0.83269348831344681 6.6620189047263771 6.1664798307848736 0.0980392157 0.0980392157 0.0980392157
v 1.3769721594081299 8.1012275221784567 5.8691725332483742 0.0980392157 0.0980392157 0.0980392157
v 1.9977744551764169 7.265997339858183 7.6493289811987646 0.0980392157 0.0980392157 0.0980392157
v 1.2637122205408637 6.156101607400041 7.7917165865063494 0.0980392157 0.0980392157 0.0980392157
v 1.3769721594081299 8.1012275221784567 5.8691725332483742 0.0980392157 0.0980392157 0.0980392157
v 1.1314140183772867 7.0307875763889287 9.4952557223283414 0.0980392157 0.0980392157 0.0980392157
v 0.16687320207447409 6.4787051693193316 8.9160334414462525 0.0980392157 0.0980392157 0.0980392157
v 1.9977744551764169 7.265997339858183 7.6493289811987646 0.0980392157 0.0980392157 0.0980392157
v 2.2142745059822517 8.2544582211562396 -7.7462984835038737 0.0980392157 0.0980392157 0.0980392157
v 1.7481120465845745 6.5523747220386284 -7.5946704260496167 0.0980392157 0.0980392157 0.0980392157
v 1.4750229252317784 7.6417055515378038 -9.400680908897181 0.0980392157 0.0980392157 0.0980392157
v 0.91210384684507373 9.1336466744769815 -9.4881280609392533 0.0980392157 0.0980392157 0.0980392157
v 1.4514445572446726 8.2984186796879982 -6.7679092377577792 0.0980392157 0.0980392157 0.0980392157
v 1.2293401688839947 7.0517728999850728 -6.4226887220193216 0.0980392157 0.0980392157 0.0980392157
v 2.2142745059822517 8.2544582211562396 -7.7462984835038737 0.0980392157 0.0980392157 0.0980392157
v 2.2203911147603144 7.1381668863198051 -4.8323024539670074 0.0980392157 0.0980392157 0.0980392157
v 1.2293401688839947 7.0517728999850728 -6.4226887220193216 0.0980392157 0.0980392157 0.0980392157
v 1.4514445572446726 8.2984186796879982 -6.7679092377577792 0.0980392157 0.0980392157 0.0980392157
v 2.2203911147603144 7.1381668863198051 -4.8323024539670074 0.0980392157 0.0980392157 0.0980392157
v 1.4514445572446726 8.2984186796879982 -6.7679092377577792 0.0980392157 0.0980392157 0.0980392157
v 0.80742057827732605 9.1743406902148568 -5.9589839686592727 0.0980392157 0.0980392157 0.0980392157
v 4.4681441486795439 8.9747014925286397 -4.253301468913552 0.0980392157 0.0980392157 0.0980392157
v 2.3791495587912639 8.7932502603615248 -4.7506781810737388 0.0980392157 0.0980392157 0.0980392157
v 3.4604797260389866 10.982970796884729 4.2809702427575784 0.0980392157 0.0980392157 0.0980392157
v 3.0390460971627409 11.350088559962536 -4.3005148110335494 0.0980392157 0.0980392157 0.0980392157
v 1.3769721594081299 8.1012275221784567 5.8691725332483742 0.0980392157 0.0980392157 0.0980392157
v 1.975150492511871 9.0860618689975254 7.9863482281888167 0.0980392157 0.0980392157 0.0980392157
v 1.9977744551764169 7.265997339858183 7.6493289811987646 0.0980392157 0.0980392157 0.0980392157
v 1.1314140183772867 7.0307875763889287 9.4952557223283414 0.0980392157 0.0980392157 0.0980392157
v 1.9977744551764169 7.265997339858183 7.6493289811987646 0.0980392157 0.0980392157 0.0980392157
v 1.975150492511871 9.0860618689975254 7.9863482281888167 0.0980392157 0.0980392157 0.0980392157
v 1.1314140183772867 7.0307875763889287 9.4952557223283414 0.0980392157 0.0980392157 0.0980392157
v 1.975150492511871 9.0860618689975254 7.9863482281888167 0.0980392157 0.0980392157 0.0980392157
v 1.1762912124827842 8.9563142342965758 9.4651112115507114 0.0980392157 0.0980392157 0.0980392157
v 4.4975073524372426 3.4164868472818668 -3.9346657782835157 0.0980392157 0.0980392157 0.0980392157
v 4.9508251577463396 0.55863847861587956 -1.405547337037699 0.0980392157 0.0980392157 0.0980392157
v 4.2838879673026042 -0.92801276578986602 -4.4385603080803415 0.0980392157 0.0980392157 0.0980392157
v 4.7203018991935854 2.2016229778480394 1.8889909114151346 0.0980392157 0.0980392157 0.0980392157
v 4.4975073524372426 3.4164868472818668 -3.9346657782835157 0.0980392157 0.0980392157 0.0980392157
v 4.500083468415033 3.2318430980913067 3.919865063912884 0.0980392157 0.0980392157 0.0980392157
v 4.9944858612740264 -0.73479050649526223 -1.3285334762805063 0.0980392157 0.0980392157 0.0980392157
v 4.638642264677558 -3.0874351201312646 -1.5957119723523148 0.0980392157 0.0980392157 0.0980392157
v 4.1882682204101958 -2.9070925186161132 -3.5034135501875143 0.0980392157 0.0980392157 0.0980392157
v 4.1775476257843298 -4.0087132358571864 2.2384880546903712 0.0980392157 0.0980392157 0.0980392157
v 4.2886848589763877 -4.4940654530310589 -0.45832850550332449 0.0980392157 0.0980392157 0.0980392157
v 4.9508251577463396 0.55863847861587956 -1.405547337037699 0.0980392157 0.0980392157 0.0980392157
v 4.4975073524372426 3.4164868472818668 -3.9346657782835157 0.0980392157 0.0980392157 0.0980392157
v 4.3928898660699565 -1.7781679740970642 4.1684178333477373 0.0980392157 0.0980392157 0.0980392157
v 4.638642264677558 -3.0874351201312646 -1.5957119723523148 0.0980392157 0.0980392157 0.0980392157
v 4.5001857770935683 8.4850179144137616 3.9728214023336608 0.0980392157 0.0980392157 0.0980392157
v 4.4681441486795439 8.9747014925286397 -4.253301468913552 0.0980392157 0.0980392157 0.0980392157
v 4.3928898660699565 -1.7781679740970642 4.1684178333477373 0.0980392157 0.0980392157 0.0980392157
v -5.5489366743727011 9.2930292822802532 3.2306610524420201 0.0980392157 0.0980392157 0.0980392157
v -4.429237368222676 6.7664388971619811 4.3190857780742862 0.0980392157 0.0980392157 0.0980392157
v -1.6681530324006653 9.1643179495514104 7.9414842199970863 0.0980392157 0.0980392157 0.0980392157
v -5.5387364985094614 7.6994844540091112 2.2922430094841952 0.0980392157 0.0980392157 0.0980392157
v -4.0135525658321773 -1.4581059589869056 -4.2847717165146886 0.0980392157 0.0980392157 0.0980392157
v 1.7507977481235046 12.142137341551708 4.2553781017692174 0.0980392157 0.0980392157 0.0980392157
v 4.5001857770935683 8.4850179144137616 3.9728214023336608 0.0980392157 0.0980392157 0.0980392157
v 4.0303723897873311 6.030579593893151 4.5141015921806389 0.0980392157 0.0980392157 0.0980392157
v -1.3996142696401064 10.740291545965441 4.5668042301442116 0.0980392157 0.0980392157 0.0980392157
v -2.1027109075156503 8.8619663088213994 4.8323510100192211 0.0980392157 0.0980392157 0.0980392157
v -0.22241748178723286 9.4737201619243869 9.4227622033876877 0.0980392157 0.0980392157 0.0980392157
v -2.1027109075156503 8.8619663088213994 4.8323510100192211 0.0980392157 0.0980392157 0.0980392157
v 4.2886848589763877 -4.4940654530310589 -0.45832850550332449 0.0980392157 0.0980392157 0.0980392157
v 4.500083468415033 3.2318430980913067 3.919865063912884 0.0980392157 0.0980392157 0.0980392157
v 4.5001857770935683 8.4850179144137616 3.9728214023336608 0.0980392157 0.0980392157 0.0980392157
v -1.2057779493931666 9.9093631233472568 -7.7589501900175408 0.0980392157 0.0980392157 0.0980392157
v 0.80742057827732605 9.1743406902148568 -5.9589839686592727 0.0980392157 0.0980392157 0.0980392157
v 1.1266207142250368 10.009120871473922 -7.7272855300768555 0.0980392157 0.0980392157 0.0980392157
v 1.7481120465845745 6.5523747220386284 -7.5946704260496167 0.0980392157 0.0980392157 0.0980392157
v 4.9179065128879484 -1.5358353107317086 -0.19471511972223912 0.0980392157 0.0980392157 0.0980392157
v -5.0029508746193327 -1.0818303671238012 -1.1198830536314657 0.0980392157 0.0980392157 0.0980392157
v -5.0288295751778955 -1.4687417033686254 0.46970487330989436 0.0980392157 0.0980392157 0.0980392157
v 4.2886848589763877 -4.4940654530310589 -0.45832850550332449 0.0980392157 0.0980392157 0.0980392157
v -4.9159245991259422 1.5006527696770258 0.2807272015214124 0.0980392157 0.0980392157 0.0980392157
v -5.0029508746193327 -1.0818303671238012 -1.1198830536314657 0.0980392157 0.0980392157 0.0980392157
v 4.9043567960262315 1.4241055072545745 -0.64825003623121491 0.0980392157 0.0980392157 0.0980392157
v -4.9142017333046262 0.81525663457048292 -1.3594629278566508 0.0980392157 0.0980392157 0.0980392157
v 4.9508251577463396 0.55863847861587956 -1.405547337037699 0.0980392157 0.0980392157 0.0980392157
v -2.2375491254915563 7.685110219343132 -7.8651526533702665 0.0980392157 0.0980392157 0.0980392157
v -1.3134292917310608 7.1474774073042369 -6.8101932099177391 0.0980392157 0.0980392157 0.0980392157
v -1.3284835279040044 8.5801320685031808 -5.9720449015569361 0.0980392157 0.0980392157 0.0980392157
v 1.1266207142250368 10.009120871473922 -7.7272855300768555 0.0980392157 0.0980392157 0.0980392157
v 1.3723883962077466 10.874517506123913 4.5628487447076616 0.0980392157 0.0980392157 0.0980392157
v -1.5175140916455536 7.4931936572981082 9.5107072424179648 0.0980392157 0.0980392157 0.0980392157
vn 0 0 -1
vn 0 0 -1
vn 0 0 -1
vn -0.71095675230026245 0.017558027058839798 -0.70301651954650879
vn -0.71987253427505493 -0.014258195646107197 -0.69395983219146729
vn -0.57643640041351318 0.002509736455976963 -0.81713813543319702
vn -0.57098907232284546 0.59872817993164062 -0.56169033050537109
vn -0.56674283742904663 0.82367032766342163 0.019228924065828323
vn -0.48991283774375916 0.86947160959243774 -0.063281364738941193
vn -0.53014934062957764 0.84787309169769287 -0.0072708153165876865
vn -0.99288320541381836 -0.11886947602033615 -0.0072759520262479782
vn -0.99993407726287842 0.011108184233307838 -0.0029030132573097944
vn -0.99596363306045532 0.08959583193063736 0.0053903581574559212
vn -0.67903977632522583 -0.73094862699508667 0.067963853478431702
vn -0.36888206005096436 -0.91024404764175415 0.18810044229030609
vn -0.63395935297012329 -0.77290648221969604 0.026666218414902687
vn -0.2896428108215332 0.95659393072128296 -0.032172828912734985
vn -0.058073882013559341 0.99830752611160278 -0.0030747225973755121
vn -0.0015304955886676908 0.99999320507049561 -0.0033487258478999138
vn -0.49497640132904053 0.86862677335739136 -0.022043325006961823
vn -0.48154345154762268 0.8764183521270752 -0.0026060575619339943
vn -0.73994654417037964 -0.031509742140769958 0.67192721366882324
vn -0.69186586141586304 0.054557546973228455 0.71996182203292847
vn -0.73129445314407349 -0.043883293867111206 0.68064874410629272
vn -0.31279578804969788 -0.14726366102695465 -0.93833482265472412
vn 0.0057420297525823116 -0.021528976038098335 -0.9997517466545105
vn -0.081887230277061462 -0.031275924295186996 -0.99615073204040527
vn -0.99598211050033569 0.0065443739295005798 -0.08931315690279007
vn -0.99922925233840942 -0.0019948661793023348 0.039203885942697525
vn -0.99958831071853638 -0.028029285371303558 0.0061261081136763096
vn -0.74253243207931519 -0.002178664319217205 -0.66980654001235962
vn -0.70363163948059082 0.011207626201212406 -0.71047651767730713
vn 0.083162486553192139 -0.015305902808904648 -0.99641847610473633
vn -0.03758477047085762 -0.00023711436369922012 -0.99929338693618774
vn -0.99594247341156006 0.039601132273674011 0.080810613930225372
vn -0.96691155433654785 0.0068859225139021873 -0.25501897931098938
vn -0.99310910701751709 0.092304371297359467 0.07220914214849472
vn -0.77285242080688477 -0.51149541139602661 -0.37559494376182556
vn -0.99841529130935669 -0.025924019515514374 0.049949057400226593
vn -0.98969537019729614 -0.13288159668445587 0.05334395170211792
vn -0.8923991322517395 0.44452807307243347 -0.077579282224178314
vn -0.90248149633407593 -0.42785245180130005 0.049693111330270767
vn -0.98288112878799438 -0.18393105268478394 0.010678806342184544
vn -0.96840298175811768 0.21628342568874359 0.12416578829288483
vn -0.97144013643264771 0.065237425267696381 0.22814071178436279
vn -0.99012273550033569 -0.053015030920505524 0.12979373335838318
vn -0.70751333236694336 -0.008242165669798851 0.70665192604064941
vn -0.70609003305435181 -0.019767116755247116 0.70784610509872437
vn -0.71832543611526489 -0.0020132679492235184 0.69570434093475342
vn -0.97660040855407715 -0.12699221074581146 -0.17356447875499725
vn -0.99858570098876953 -0.018753599375486374 -0.049748748540878296
vn -0.95847827196121216 0.27658811211585999 -0.069415129721164703
vn -5.0772530812537298E-05 -0.82406443357467651 -0.56649613380432129
vn 0.00032545637805014849 -0.6606820821762085 -0.75066572427749634
vn 0.016565648838877678 -0.6438642144203186 -0.76496046781539917
vn -0.999675452709198 -0.016618538647890091 0.019309708848595619
vn -0.99999135732650757 -0.0013832177501171827 0.0039185327477753162
vn -0.6855614185333252 -0.45418602228164673 -0.56896448135375977
vn -0.69492173194885254 -0.63411247730255127 -0.33909469842910767
vn -0.71599727869033813 -0.68922901153564453 -0.11095608025789261
vn 0.06336500495672226 -0.89691394567489624 -0.4376416802406311
vn -0.022115850821137428 -0.89062964916229248 -0.45419132709503174
vn -0.99793857336044312 -0.028025126084685326 0.05773404985666275
vn -0.99982756376266479 -0.00030673184664919972 0.018567552790045738
vn -0.99988770484924316 -0.00055653159506618977 0.014974283054471016
vn 0 -0.42553001642227173 -0.90494430065155029
vn 4.3347245237690402E-10 0.26302036643028259 -0.96479028463363647
vn 0 -0.55770564079284668 -0.83003878593444824
vn 2.832144518905011E-10 -0.97916704416275024 -0.20305649936199188
vn 0 -0.97916704416275024 -0.20305649936199188
vn -8.7927620739947088E-10 -0.97916704416275024 -0.20305648446083069
vn 0 -0.72855508327484131 -0.68498724699020386
vn 0 0.1095716580748558 0.99397891759872437
vn 0 0.10957165062427521 0.99397891759872437
vn 0 0.10957165062427521 0.99397891759872437
vn 0 0.73699033260345459 0.67590326070785522
vn 0 0.73699033260345459 0.67590326070785522
vn 0 0.73699033260345459 0.67590326070785522
vn 0 0.93554121255874634 -0.35321760177612305
vn 0 0.93554121255874634 -0.35321760177612305
vn 0 0.93554121255874634 -0.35321760177612305
vn -1.1492748974717415E-09 0.44049561023712158 -0.89775478839874268
vn -3.428000383554064E-10 0.75069540739059448 -0.66064846515655518
vn -0.0028770267963409424 -0.98686361312866211 -0.16152986884117126
vn 0.025829557329416275 -0.92257148027420044 -0.3849605917930603
vn 0.01176082156598568 -0.99742501974105835 -0.070746175944805145
vn 0.043623078614473343 -0.85493475198745728 0.51689803600311279
vn -0.005113622173666954 -0.96277815103530884 0.27024438977241516
vn 1.6961179127861215E-08 -0.92644953727722168 0.37641891837120056
vn 2.4795104636154974E-08 -0.9264494776725769 0.37641912698745728
vn 3.7992460732994005E-08 -0.92644965648651123 0.37641870975494385
vn 0.9786674976348877 -0.150030717253685 0.14035920798778534
vn 0.99875724315643311 -0.038821637630462646 0.031255215406417847
vn 0.99998939037322998 0.0021391180343925953 -0.004076977726072073
vn 0.93106603622436523 0.24601015448570251 0.2694346010684967
vn 1 0 0
vn 0.99511188268661499 0.075460866093635559 -0.063702590763568878
vn 0.99995541572570801 0.0087316306307911873 -0.0035982222761958838
vn 9.368147368959967E-10 -0.12229608744382858 -0.99249368906021118
vn -0.80826526880264282 -0.2182161808013916 0.5468902587890625
vn -0.68227910995483398 -0.69441097974777222 0.22866708040237427
vn -0.72136646509170532 -0.50109332799911499 0.47805431485176086
vn -0.95651775598526001 -0.12362861633300781 -0.26417747139930725
vn -0.72324126958847046 0.69059431552886963 0.0012317537330091
vn -0.89604055881500244 0.4438970685005188 0.0081649627536535263
vn -0.82490217685699463 0.56527543067932129 0.00035316165303811431
vn -0.016447039321064949 -0.36891037225723267 0.92931944131851196
vn -0.031976047903299332 -0.36784449219703674 0.92933738231658936
vn -0.0088188666850328445 -0.73403489589691162 0.67905449867248535
vn -0.37012243270874023 0.25046682357788086 0.89458131790161133
vn -0.00090657325927168131 -0.04387163370847702 0.99903678894042969
vn 0.0001630766928428784 0.060543283820152283 0.9981655478477478
vn -0.02649647556245327 0.021969620138406754 0.99940747022628784
vn 0.7419440746307373 0.0073217269964516163 -0.6704217791557312
vn 0.72134435176849365 -0.095950767397880554 -0.6858978271484375
vn 0.70533066987991333 0.031888853758573532 -0.70816081762313843
vn -0.03077419102191925 -0.16186235845088959 -0.98633337020874023
vn 0.68250787258148193 0.096707873046398163 -0.72445195913314819
vn 0.70613622665405273 -0.0089204143732786179 -0.70801985263824463
vn 0.29198926687240601 -0.097330108284950256 -0.95145630836486816
vn 0.32282811403274536 0.11001250892877579 -0.94004213809967041
vn -0.10700505971908569 0.023864854127168655 -0.99397200345993042
vn 0 -0.40852367877960205 -0.91274774074554443
vn 0 -0.40852367877960205 -0.91274774074554443
vn 0 -0.40852367877960205 -0.91274774074554443
vn 0.0010421796469017863 -0.27880141139030457 -0.96034818887710571
vn -0.081172868609428406 0.0031411221716552973 -0.99669510126113892
vn 0.00043451142846606672 -0.23519612848758698 -0.97194784879684448
vn -0.047187920659780502 -0.40010672807693481 -0.9152529239654541
vn -0.0074079008772969246 -0.57971930503845215 -0.81478261947631836
vn 0.73254334926605225 -0.527243971824646 -0.43057405948638916
vn 0.71974039077758789 -0.64453864097595215 -0.25796058773994446
vn 0.68370771408081055 -0.46654972434043884 -0.56113731861114502
vn -0.68422317504882812 0.72919034957885742 -0.010958733968436718
vn -0.12464039027690887 -0.90976530313491821 0.39596951007843018
vn -0.19366426765918732 -0.043544989079236984 0.98010098934173584
vn 0.05912240594625473 -0.080490998923778534 0.99500036239624023
vn -0.00655032554641366 -0.051011707633733749 0.998676598072052
vn 0.027036260813474655 -0.056075736880302429 0.99806040525436401
vn -0.083124816417694092 -0.23899562656879425 0.96745610237121582
vn -0.39130425453186035 0.083801768720149994 0.91643780469894409
vn 0.3206840455532074 -0.023902051150798798 0.94688457250595093
vn 0.0061963917687535286 -0.036416687071323395 0.999317467212677
vn 0.11791308224201202 0.18026742339134216 0.97652453184127808
vn 0.49627372622489929 0.504322350025177 0.70666211843490601
vn 0.030916213989257812 0.6602330207824707 0.75042426586151123
vn -0.04603104293346405 0.33718413114547729 0.94031268358230591
vn -0.0076741324737668037 -0.048299387097358704 0.99880343675613403
vn 0.32864749431610107 0.74779802560806274 0.57687866687774658
vn 0.71078586578369141 -0.15789695084095001 0.68545752763748169
vn 0.70794689655303955 -0.00075179024133831263 0.70626527070999146
vn 0.70476347208023071 -0.025247924029827118 0.70899295806884766
vn -0.00047255546087399125 -0.051027793437242508 0.99869710206985474
vn 0.058937285095453262 -0.38918820023536682 0.91927087306976318
vn -0.26107129454612732 0.083019398152828217 -0.96174299716949463
vn -0.64790475368499756 -0.11530964076519012 -0.75294297933578491
vn -0.50818246603012085 -0.0068773156963288784 -0.86122196912765503
vn -0.34990307688713074 0.93678587675094604 0.00031781764118932188
vn -0.31440091133117676 0.94928896427154541 -0.0015782160917297006
vn -0.079837828874588013 0.47038054466247559 0.8788447380065918
vn -0.079837828874588013 0.47038054466247559 0.8788447380065918
vn -0.079837828874588013 0.47038054466247559 0.8788447380065918
vn -0.29829713702201843 0 0.95447307825088501
vn -0.14415742456912994 0 0.989554762840271
vn 0.15773051977157593 0 0.98748219013214111
vn 0 0.4014221727848053 0.91589313745498657
vn 0 0.4014221727848053 0.91589313745498657
vn 0 0.4014221727848053 0.91589313745498657
vn -0.1106048971414566 0.61657577753067017 -0.77948760986328125
vn -0.40707084536552429 -0.16662813723087311 -0.89806926250457764
vn -0.79646825790405273 0.0048398356884717941 -0.60466098785400391
vn -0.79735070466995239 -0.0012008718913421035 -0.60351502895355225
vn -0.79513609409332275 0.0028761718422174454 -0.60642421245574951
vn -0.7815520167350769 -0.12094952911138535 0.61200296878814697
vn -0.8029438853263855 -0.0025572481099516153 0.59604912996292114
vn -0.76834988594055176 -0.17553624510765076 0.61548799276351929
vn -0.7698969841003418 0.32963463664054871 -0.54644274711608887
vn -0.8183596134185791 -0.27053815126419067 -0.50704699754714966
vn -0.97051256895065308 -0.18173554539680481 -0.15835890173912048
vn -0.026847625151276588 -0.020971506834030151 -0.99941951036453247
vn -0.044911298900842667 -0.036252450197935104 -0.99833297729492188
vn -0.017028393223881721 -0.014037014916539192 -0.99975645542144775
vn -0.71727585792541504 -0.69668728113174438 -0.011925686150789261
vn -0.51445466279983521 -0.60878938436508179 0.60391378402709961
vn -0.21554760634899139 -0.97426605224609375 0.065915979444980621
vn -0.24331679940223694 -0.96943634748458862 0.031466227024793625
vn -0.29936808347702026 -0.93334197998046875 -0.19812001287937164
vn -0.73074299097061157 0.52307671308517456 -0.43864047527313232
vn -0.56262481212615967 0.75667291879653931 -0.33301559090614319
vn -0.84568268060684204 0.14444358646869659 -0.5137673020362854
vn -0.99964696168899536 0.0019796863198280334 0.026496173813939095
vn -0.99964696168899536 0.0019796863198280334 0.026496173813939095
vn -0.99964696168899536 0.0019796863198280334 0.026496173813939095
vn -0.80242621898651123 0.5940173864364624 -0.057057160884141922
vn -0.80242621898651123 0.5940173864364624 -0.057057160884141922
vn -0.80242621898651123 0.5940173864364624 -0.057057160884141922
vn -0.096152417361736298 -0.97411799430847168 -0.20456978678703308
vn -0.096152417361736298 -0.97411799430847168 -0.20456978678703308
vn -0.096152417361736298 -0.97411799430847168 -0.20456978678703308
vn -0.051245696842670441 -0.63176345825195312 -0.77346545457839966
vn -0.28845483064651489 -0.48454245924949646 -0.82584041357040405
vn -0.59011924266815186 -0.073108933866024017 -0.80399900674819946
vn -0.044638145714998245 0.92399483919143677 -0.37979066371917725
vn -0.044638145714998245 0.92399483919143677 -0.37979066371917725
vn -0.044638145714998245 0.92399483919143677 -0.37979066371917725
vn 0.16922272741794586 -0.080000899732112885 -0.98232555389404297
vn -0.38716486096382141 0.70604556798934937 -0.59296125173568726
vn -0.046879217028617859 0.35179600119590759 -0.93490207195281982
vn -0.0079180393368005753 -0.85910534858703613 0.51173758506774902
vn -0.023108651861548424 -0.83829516172409058 0.54472672939300537
vn 0.068376421928405762 -0.86772346496582031 0.49232169985771179
vn -0.33868971467018127 -0.64118677377700806 0.68859916925430298
vn -0.33868971467018127 -0.64118677377700806 0.68859916925430298
vn -0.33868971467018127 -0.64118677377700806 0.68859916925430298
vn -0.8023039698600769 -0.59484684467315674 0.049653910100460052
vn -0.8023039698600769 -0.59484684467315674 0.049653910100460052
vn -0.8023039698600769 -0.59484684467315674 0.049653910100460052
vn -0.84101784229278564 -0.13023611903190613 -0.52509760856628418
vn -0.85191500186920166 0.17796537280082703 -0.49251314997673035
vn -0.6427994966506958 -0.55267924070358276 -0.53042858839035034
vn -0.8253290057182312 0.32201370596885681 -0.46383103728294373
vn -0.19291006028652191 0.98075109720230103 -0.03021664172410965
vn -0.91143798828125 0.41104760766029358 0.017907282337546349
vn -0.85392999649047852 0.52038311958312988 -0.0022434841375797987
vn -0.92769497632980347 -0.16219659149646759 -0.3362652063369751
vn -0.72426265478134155 -0.59118229150772095 -0.35489034652709961
vn -0.83858174085617065 -0.41177365183830261 -0.35668343305587769
vn 0 0 1
vn 0 0 1
vn 0 0 1
vn -0.84071159362792969 0.4712643027305603 0.26667195558547974
vn -0.99902039766311646 0.042730148881673813 0.011507215909659863
vn -0.82979738712310791 -0.062660351395606995 0.55453586578369141
vn -0.017530044540762901 -0.9976813793182373 0.065761104226112366
vn -0.017530044540762901 -0.9976813793182373 0.065761104226112366
vn -0.017530044540762901 -0.9976813793182373 0.065761104226112366
vn 0.017951212823390961 -0.0061888899654150009 -0.99981969594955444
vn 0.038602005690336227 -0.027454011142253876 -0.99887746572494507
vn -0.19949971139431 0.88585919141769409 -0.41887149214744568
vn 0.023830410093069077 0.8294329047203064 -0.55809783935546875
vn 0.55255836248397827 0.5423620343208313 -0.63286864757537842
vn -0.22656457126140594 -0.9739951491355896 0.0014051028992980719
vn -0.15269245207309723 -0.98645061254501343 -0.060001328587532043
vn 0.38489457964897156 0.92296051979064941 0
vn 0.38489457964897156 0.92296051979064941 0
vn 0.38489457964897156 0.92296051979064941 0
vn -0.40888115763664246 0.83971190452575684 0.35735148191452026
vn -0.46287918090820312 0.79958838224411011 0.38262420892715454
vn -0.66967993974685669 0.71650040149688721 0.19533558189868927
vn 0.22252084314823151 -0.69604378938674927 -0.68264740705490112
vn -0.01238609291613102 0.11226589977741241 0.99360102415084839
vn 0.069897010922431946 -0.95761585235595703 -0.2794393002986908
vn 0.069897010922431946 -0.95761585235595703 -0.2794393002986908
vn 0.069897010922431946 -0.95761585235595703 -0.2794393002986908
vn 0.24065132439136505 -0.84304302930831909 -0.4810045063495636
vn -0.20362603664398193 -0.82532328367233276 -0.52666682004928589
vn 0.16115814447402954 -0.87951934337615967 -0.44774302840232849
vn 0.067068800330162048 -0.96972817182540894 0.23479567468166351
vn -0.08192896842956543 -0.90597027540206909 0.41533786058425903
vn -0.032189194113016129 -0.82736515998840332 0.56074124574661255
vn 0.84591561555862427 -0.20486567914485931 0.49239900708198547
vn 0.84591561555862427 -0.20486567914485931 0.49239900708198547
vn 0.84591561555862427 -0.20486567914485931 0.49239900708198547
vn 0.093826986849308014 -0.092564351856708527 0.99127614498138428
vn -0.019453903660178185 0.025435088202357292 0.99948716163635254
vn -0.0178226288408041 -0.0021640497725456953 0.99983882904052734
vn -0.052274692803621292 -0.94071507453918457 0.33514553308486938
vn 0.36075231432914734 -0.92931246757507324 -0.078969284892082214
vn -0.13747531175613403 -0.98871612548828125 0.059505965560674667
vn 0.089259736239910126 0.82314103841781616 -0.56077760457992554
vn 0.16611397266387939 0.79022282361984253 -0.58987629413604736
vn -0.02270059660077095 0.82941538095474243 -0.55817097425460815
vn 0.38541123270988464 0.92265868186950684 -0.012615871615707874
vn 0.25407934188842773 0.9671783447265625 0.0031121647916734219
vn 0.010766676627099514 0.99994122982025146 -0.0012528912629932165
vn 0.60542929172515869 -0.7949102520942688 -0.039662346243858337
vn -0.78837388753890991 -0.57804149389266968 -0.21055793762207031
vn 0.54533696174621582 -0.64234244823455811 -0.53851991891860962
vn 0.36036616563796997 -0.93280279636383057 0.0038908992428332567
vn 0.57427757978439331 -0.29583117365837097 -0.76334077119827271
vn 0.3246314525604248 0.52694523334503174 -0.78545725345611572
vn 0.23341019451618195 0.56676137447357178 -0.79012733697891235
vn 0.26078057289123535 -0.10283081233501434 -0.95990586280822754
vn 0.07617737352848053 0.41746300458908081 -0.90549522638320923
vn 0.019900141283869743 0.12018433958292007 -0.99255210161209106
vn 0.0072847027331590652 0.050011470913887024 -0.99872207641601562
vn -0.20418712496757507 0.32799413800239563 -0.92234885692596436
vn 0.49407464265823364 0.55562704801559448 0.66870683431625366
vn 0.14042873680591583 0.31539422273635864 0.93851280212402344
vn -0.0095575563609600067 0.64088547229766846 0.76757699251174927
vn 0.25729471445083618 0.96604764461517334 0.023481829091906548
vn 0.24883246421813965 0.96723908185958862 -0.050308488309383392
vn -0.087234564125537872 0.99237149953842163 0.08711426705121994
vn 0.71508204936981201 0.61398607492446899 -0.33418366312980652
vn 0.93362027406692505 0.30289846658706665 0.19132617115974426
vn 0.46125078201293945 0.88457083702087402 0.069152951240539551
vn 0.91549819707870483 0.20251312851905823 -0.34763696789741516
vn 0.8541908860206604 0.29245764017105103 -0.42991447448730469
vn 0.93034243583679199 0.17523819208145142 -0.32210943102836609
vn 0.7356296181678772 0.55619895458221436 0.38664165139198303
vn 0.88533681631088257 0.28349962830543518 0.36851960420608521
vn 0.84647339582443237 0.37463471293449402 0.37832745909690857
vn 0.37418019771575928 0.30871137976646423 0.87446355819702148
vn 0.37418019771575928 0.30871137976646423 0.87446355819702148
vn 0.37418019771575928 0.30871137976646423 0.87446355819702148
vn -0.13828115165233612 -0.98901110887527466 0.052300237119197845
vn -0.13828115165233612 -0.98901110887527466 0.052300237119197845
vn -0.13828115165233612 -0.98901110887527466 0.052300237119197845
vn 0.23552678525447845 -0.52550709247589111 -0.81753867864608765
vn 0.6790662407875061 -0.06966022402048111 -0.73076432943344116
vn 0.24453465640544891 0.6378180980682373 -0.73033612966537476
vn 0.057413093745708466 0.39591148495674133 -0.91649210453033447
vn 0.21122889220714569 0.16175135970115662 -0.96395999193191528
vn 0.025390466675162315 0.047743752598762512 -0.99853688478469849
vn 0.74959951639175415 0.17326676845550537 -0.63881081342697144
vn 0.75788623094558716 0.14008595049381256 -0.63716906309127808
vn 0.79808253049850464 -0.060585711151361465 -0.59949451684951782
vn 0.88098275661468506 -0.019412849098443985 0.47274991869926453
vn 0.88098275661468506 -0.019412849098443985 0.47274991869926453
vn 0.88098275661468506 -0.019412849098443985 0.47274991869926453
vn 0.67213273048400879 0.49568739533424377 0.55002874135971069
vn -0.080846518278121948 -0.19240656495094299 0.97797930240631104
vn 0.39868044853210449 -0.034530587494373322 0.91643959283828735
vn 0.99484944343566895 0.08969995379447937 -0.047207646071910858
vn 0.99484944343566895 0.08969995379447937 -0.047207646071910858
vn 0.99484944343566895 0.08969995379447937 -0.047207646071910858
vn 0.99968206882476807 -0.0037463572807610035 -0.024933243170380592
vn 0.99968206882476807 -0.0037463572807610035 -0.024933243170380592
vn 0.99968206882476807 -0.0037463572807610035 -0.024933243170380592
vn 0.71386861801147461 -0.58277130126953125 0.38829010725021362
vn 0.71386861801147461 -0.58277130126953125 0.38829010725021362
vn 0.71386861801147461 -0.58277130126953125 0.38829010725021362
vn 0.97771942615509033 0.093859098851680756 -0.18776379525661469
vn 0.72951948642730713 -0.4898134171962738 -0.47737213969230652
vn 0.82688337564468384 -0.15914635360240936 -0.53938508033752441
vn 0.76354753971099854 0.46467715501785278 -0.44840863347053528
vn 0.8500206470489502 0.1130770742893219 0.51446908712387085
vn 0.83495193719863892 -0.29274427890777588 0.46600008010864258
vn 0.86410820484161377 0.021111426874995232 0.50286310911178589
vn 0.81573271751403809 -0.32917001843452454 -0.47563356161117554
vn 0.78592991828918457 -0.39840158820152283 -0.4728533923625946
vn 0.85592997074127197 -0.20641526579856873 -0.47410610318183899
vn 0.74889737367630005 0.66268599033355713 0
vn 0.74889737367630005 0.66268599033355713 0
vn 0.74889737367630005 0.66268599033355713 0
vn 0.26852026581764221 -0.038702100515365601 -0.96249622106552124
vn 0.29276913404464722 -0.043314851820468903 -0.95520156621932983
vn 0.75407379865646362 0.65678954124450684 0.00049590237904340029
vn 0.676300048828125 0.73661696910858154 0.003699825843796134
vn 0.84794652462005615 -0.034660398960113525 -0.52894741296768188
vn 0.78972834348678589 0.4216029942035675 -0.44562321901321411
vn 0.82043814659118652 -0.22762316465377808 -0.52447015047073364
vn 0.73120272159576416 -0.22325989603996277 0.64459103345870972
vn 0.74875408411026001 -0.15054059028625488 0.64552676677703857
vn 0.77475649118423462 0.18573358654975891 0.60436362028121948
vn 0.87510734796524048 -0.20690922439098358 0.43746507167816162
vn 0.86401766538619995 0.44933679699897766 0.22709007561206818
vn 0.80111539363861084 0.43092089891433716 0.41535687446594238
vn 0.99331659078598022 -0.014233061112463474 -0.1145409494638443
vn 0.86907494068145752 0.049571812152862549 -0.49219036102294922
vn 0.9976353645324707 0.0080152526497840881 0.068259730935096741
vn 0.99485433101654053 -0.043968286365270615 -0.091277860105037689
vn 0.99999600648880005 -0.0022789279464632273 -0.0016656361985951662
vn 0.99968421459197998 0.024937678128480911 0.0030886686872690916
vn 0.88227277994155884 -0.26699218153953552 -0.38769826292991638
vn 0.9745638370513916 -0.19386455416679382 -0.11243588477373123
vn 0.99611461162567139 0.058819543570280075 0.065543599426746368
vn 0.99728214740753174 -0.053909815847873688 0.05021996796131134
vn 0.99993687868118286 -0.009497692808508873 -0.005998401902616024
vn 0.99873340129852295 0.037293195724487305 0.033775847405195236
vn 0.82377970218658447 0.11467161029577255 -0.55519133806228638
vn 0.99451977014541626 -0.054825600236654282 0.089020103216171265
vn 0.98944514989852905 0.086003243923187256 -0.11662673205137253
vn 0.99722546339035034 0.073437705636024475 0.012175774201750755
vn 0.99008983373641968 0.13952039182186127 -0.016005482524633408
vn 0.9825749397277832 -0.18260699510574341 -0.034658588469028473
vn -0.99018692970275879 0.13972997665405273 -0.0023132083006203175
vn -0.9884498119354248 -0.15032458305358887 0.01922105997800827
vn -0.44266781210899353 0.89314758777618408 0.079577714204788208
vn -0.48301979899406433 -0.83150702714920044 0.27438640594482422
vn -0.73288846015930176 -0.1872149258852005 -0.65408337116241455
vn 0.062050163745880127 0.12477029114961624 0.99024349451065063
vn 0.67024356126785278 0.032166838645935059 0.74144381284713745
vn 0.69718420505523682 -0.034668177366256714 0.716053307056427
vn -0.193172886967659 0.4409521222114563 0.87649613618850708
vn -0.56618964672088623 0.25644895434379578 0.78336656093597412
vn -0.58180147409439087 0.80424714088439941 0.1212167888879776
vn -0.93250435590744019 0.36109670996665955 -0.0066910828463733196
vn 0.65203839540481567 -0.74907422065734863 -0.11719094961881638
vn 0.84771817922592163 0.0098488824442028999 0.53035545349121094
vn 0.99997901916503906 -0.0041544120758771896 0.0049664443358778954
vn -0.25946551561355591 0.82892197370529175 0.4955461323261261
vn 0.16393400728702545 0.83902072906494141 0.51881581544876099
vn 0.27215850353240967 0.78034257888793945 0.56302326917648315
vn 0.79641449451446533 -0.43610104918479919 0.41897469758987427
vn 0 0.97808951139450073 0.20818465948104858
vn 0 0.97808951139450073 0.20818465948104858
vn 0 0.97808951139450073 0.20818465948104858
vn -0.023602534085512161 -0.99411910772323608 -0.10568878054618835
vn 0 -0.79846334457397461 -0.60204339027404785
vn 0 0.10957165062427521 0.99397891759872437
vn -3.8979020899887473E-08 -0.58204931020736694 0.81315350532531738
vn 3.031223938521066E-09 -0.58204931020736694 0.81315350532531738
vn 4.1996887745199274E-08 -0.58204877376556396 0.81315386295318604
vn -0.8568611741065979 -0.18770797550678253 0.48016104102134705
vn -0.82483357191085815 -0.34297174215316772 0.44946634769439697
vn -0.79443418979644775 0.3095756471157074 0.52252960205078125
vn 0.17666611075401306 0.83460456132888794 -0.52175116539001465
vn 0.19916889071464539 0.73249703645706177 0.65098375082015991
vn -0.045486181974411011 0.052210681140422821 0.99759966135025024
usemtl vc_191919__Default
f 1//1 2//2 3//3
f 4//4 5//5 6//6
f 4//4 6//6 7//7
f 8//8 9//9 10//10
f 11//11 12//12 13//13
f 14//14 15//15 16//16
f 17//17 18//18 19//19
f 20//20 17//17 21//21
f 22//22 23//23 24//24
f 25//25 26//26 27//27
f 29//29 378//378 30//30 28//28
f 4//4 31//31 5//5
f 4//4 32//32 31//31
f 34//34 127//127 26//26 33//33
f 35//35 36//36 28//28
f 37//37 36//36 35//35
f 38//38 36//36 37//37
f 39//39 43//43 38//38 37//37
f 39//39 40//40 41//41
f 42//42 43//43 40//40
f 28//28 44//44 29//29
f 45//45 46//46 29//29
f 47//47 48//48 49//49
f 50//50 45//45 29//29
f 44//44 51//51 45//45
f 36//36 52//52 28//28
f 53//53 54//54 55//55
f 56//56 57//57 36//36
f 58//58 59//59 60//60
f 55//55 61//61 62//62
f 63//63 52//52 36//36
f 57//57 63//63 36//36
f 51//51 64//64 45//45
f 64//64 65//65 45//45
f 66//66 67//67 68//68
f 69//69 70//70 71//71
f 72//72 66//66 68//68
f 75//75 401//401 73//73 74//74
f 76//76 77//77 78//78
f 79//79 80//80 81//81
f 82//82 83//83 67//67
f 84//84 85//85 61//61
f 86//86 87//87 88//88
f 89//89 90//90 91//91
f 92//92 93//93 94//94
f 95//95 96//96 97//97
f 95//95 98//98 96//96
f 82//82 67//67 99//99
f 95//95 92//92 98//98
f 100//100 101//101 102//102
f 46//46 45//45 103//103
f 104//104 105//105 106//106
f 107//107 108//108 109//109
f 22//22 110//110 23//23
f 113//113 153//153 111//111 112//112
f 114//114 115//115 116//116
f 26//26 117//117 33//33
f 118//118 114//114 119//119
f 120//120 121//121 122//122
f 123//123 124//124 125//125
f 126//126 127//127 128//128
f 55//55 129//129 128//128
f 130//130 129//129 55//55
f 131//131 132//132 133//133
f 104//104 134//134 105//105
f 109//109 135//135 87//87
f 136//136 137//137 113//113
f 138//138 136//136 113//113
f 139//139 138//138 113//113
f 137//137 140//140 141//141
f 142//142 138//138 143//143
f 142//142 143//143 144//144
f 142//142 144//144 145//145
f 146//146 147//147 148//148
f 146//146 148//148 149//149
f 150//150 151//151 152//152
f 153//153 108//108 154//154
f 155//155 156//156 157//157
f 158//158 159//159 104//104
f 160//160 161//161 162//162
f 163//163 164//164 165//165
f 166//166 167//167 168//168
f 169//169 170//170 155//155
f 171//171 172//172 173//173
f 174//174 175//175 176//176
f 177//177 178//178 179//179
f 180//180 181//181 182//182
f 183//183 178//178 184//184
f 185//185 186//186 187//187
f 188//188 189//189 190//190
f 191//191 192//192 193//193
f 194//194 195//195 196//196
f 197//197 198//198 199//199
f 200//200 201//201 202//202
f 203//203 204//204 205//205
f 206//206 207//207 208//208
f 209//209 210//210 211//211
f 212//212 213//213 214//214
f 215//215 216//216 217//217
f 218//218 219//219 220//220
f 221//221 219//219 218//218
f 222//222 223//223 224//224
f 225//225 226//226 227//227
f 228//228 229//229 230//230
f 231//231 232//232 233//233
f 234//234 235//235 236//236
f 237//237 238//238 182//182
f 240//240 408//408 241//241 239//239
f 242//242 183//183 243//243
f 244//244 245//245 246//246
f 247//247 248//248 249//249
f 250//250 201//201 200//200
f 148//148 147//147 251//251
f 252//252 253//253 254//254
f 255//255 256//256 257//257
f 258//258 259//259 260//260
f 261//261 262//262 263//263
f 266//266 410//410 264//264 265//265
f 267//267 268//268 243//243
f 267//267 243//243 269//269
f 270//270 271//271 272//272
f 273//273 274//274 275//275
f 276//276 277//277 258//258
f 278//278 279//279 280//280
f 281//281 282//282 283//283
f 284//284 285//285 286//286
f 281//281 283//283 287//287
f 288//288 289//289 290//290
f 291//291 292//292 293//293
f 294//294 295//295 292//292
f 296//296 291//291 293//293
f 297//297 298//298 299//299
f 300//300 301//301 302//302
f 303//303 304//304 305//305
f 306//306 307//307 308//308
f 309//309 200//200 310//310
f 121//121 311//311 281//281
f 312//312 313//313 314//314
f 315//315 316//316 317//317
f 318//318 319//319 320//320
f 321//321 289//289 288//288
f 142//142 322//322 323//323
f 324//324 325//325 326//326
f 327//327 328//328 329//329
f 330//330 331//331 332//332
f 333//333 334//334 335//335
f 336//336 333//333 335//335
f 337//337 338//338 339//339
f 340//340 341//341 342//342
f 343//343 344//344 345//345
f 346//346 347//347 314//314
f 274//274 273//273 348//348 349//349
f 350//350 351//351 352//352
f 353//353 354//354 355//355
f 356//356 357//357 358//358
f 359//359 360//360 361//361
f 362//362 97//97 363//363
f 364//364 362//362 363//363
f 365//365 366//366 367//367
f 368//368 369//369 366//366
f 97//97 370//370 371//371
f 95//95 364//364 372//372
f 92//92 95//95 372//372
f 92//92 373//373 93//93
f 348//348 374//374 375//375
f 368//368 373//373 92//92
f 376//376 368//368 92//92
f 12//12 377//377 13//13
f 274//274 159//159 275//275
f 293//293 222//222 379//379
f 16//16 15//15 380//380
f 381//381 58//58 32//32
f 65//65 43//43 45//45
f 107//107 109//109 87//87
f 25//25 27//27 155//155
f 148//148 144//144 382//382
f 383//383 144//144 384//384
f 385//385 386//386 290//290
f 231//231 233//233 387//387
f 93//93 361//361 360//360
f 151//151 384//384 152//152
f 127//127 27//27 26//26
f 120//120 122//122 33//33
f 222//222 388//388 223//223
f 389//389 132//132 366//366
f 383//383 384//384 390//390
f 364//364 363//363 391//391
f 392//392 393//393 394//394
f 338//338 395//395 339//339
f 375//375 374//374 363//363
f 375//375 349//349 348//348
f 153//153 154//154 111//111
f 159//159 134//134 104//104
f 159//159 158//158 275//275
f 396//396 397//397 398//398
f 84//84 61//61 399//399
f 137//137 141//141 110//110
f 72//72 68//68 400//400
f 402//402 403//403 404//404
f 405//405 406//406 407//407
f 238//238 180//180 182//182
f 86//86 88//88 84//84
f 290//290 409//409 385//385
f 365//365 367//367 361//361
