# Dual color encoding: per-vertex RGB for Rerun, face MTL colors for legacy RViz.
mtllib sim_gene01_r_hand_middle_3.mtl
# Rhino

g sim_gene01_r_hand_middle_3
v -12.538595864943771 3.1235697616062925 -10.486671686546897 0.0980392157 0.0980392157 0.0980392157
v -11.073768346599167 32.121244061474883 -9.3450680862436712 0.0980392157 0.0980392157 0.0980392157
v -2.9989518510535049 32.169010353275453 -11.829721755630917 0.0980392157 0.0980392157 0.0980392157
v -0.081239277916085761 -5.9279649689330558 -12.898971608144258 0.0980392157 0.0980392157 0.0980392157
v 7.3648399218351344 32.148603027024095 -10.827926296477603 0.0980392157 0.0980392157 0.0980392157
v 7.3648399218351344 32.148603027024095 -10.827926296477603 0.0980392157 0.0980392157 0.0980392157
v -2.9989518510535049 32.169010353275453 -11.829721755630917 0.0980392157 0.0980392157 0.0980392157
v -0.23052587442193762 32.132126919230771 -10.549540282125381 0.0980392157 0.0980392157 0.0980392157
v 12.872532672618407 32.323726436896123 -7.0729098541684232 0.0980392157 0.0980392157 0.0980392157
v 12.872532672618407 32.323726436896123 -7.0729098541684232 0.0980392157 0.0980392157 0.0980392157
v 12.765583095434689 13.821020549742148 -8.9444103768906214 0.0980392157 0.0980392157 0.0980392157
v -13.782981120023955 15.045357188659107 -8.2211070606843268 0.0980392157 0.0980392157 0.0980392157
v -13.95688420978523 31.395012106389235 -5.2653580801866946 0.0980392157 0.0980392157 0.0980392157
v -11.073768346599167 32.121244061474883 -9.3450680862436712 0.0980392157 0.0980392157 0.0980392157
v 4.9117943743668562 2.6482315643938303 -10.436235529822795 0.0980392157 0.0980392157 0.0980392157
v -2.0827911215807546 14.339020636897803 -10.755506866611032 0.0980392157 0.0980392157 0.0980392157
v -1.1331904195502887 -5.7241965850983396 -11.194341844795764 0.0980392157 0.0980392157 0.0980392157
v 4.6376553648086549 15.27606744765091 -10.389790130536174 0.0980392157 0.0980392157 0.0980392157
v 4.6376553648086549 15.27606744765091 -10.389790130536174 0.0980392157 0.0980392157 0.0980392157
v -4.0204588559645185 16.664087217396997 -8.0669486937691719 0.0980392157 0.0980392157 0.0980392157
v -2.0827911215807546 14.339020636897803 -10.755506866611032 0.0980392157 0.0980392157 0.0980392157
v 11.927635553455277 3.1766358367243201 -8.9521429083067048 0.0980392157 0.0980392157 0.0980392157
v 11.627264291510196 -4.1153480100828466 -10.73854793828292 0.0980392157 0.0980392157 0.0980392157
v 12.765583095434689 13.821020549742148 -8.9444103768906214 0.0980392157 0.0980392157 0.0980392157
v -10.278895590966618 3.1993126286466307 -9.4827401233479591 0.0980392157 0.0980392157 0.0980392157
v -13.782981120023955 15.045357188659107 -8.2211070606843268 0.0980392157 0.0980392157 0.0980392157
v -12.538595864943771 3.1235697616062925 -10.486671686546897 0.0980392157 0.0980392157 0.0980392157
v -14.864730876216861 -3.5643664101721924 -0.51583247147198874 0.0980392157 0.0980392157 0.0980392157
v -12.538595864943771 3.1235697616062925 -10.486671686546897 0.0980392157 0.0980392157 0.0980392157
v -11.108610090640918 -4.7927010966921477 -10.085266835049714 0.0980392157 0.0980392157 0.0980392157
v -14.212653798866263 2.5433440324371324 -3.2097716835480448 0.0980392157 0.0980392157 0.0980392157
v -11.983268393236573 3.1154927827461054 -5.0393429978185553 0.0980392157 0.0980392157 0.0980392157
v -12.538595864943771 3.1235697616062925 -10.486671686546897 0.0980392157 0.0980392157 0.0980392157
v -14.212653798866263 2.5433440324371324 -3.2097716835480448 0.0980392157 0.0980392157 0.0980392157
v -1.1331904195502887 -5.7241965850983396 -11.194341844795764 0.0980392157 0.0980392157 0.0980392157
v -11.108610090640918 -4.7927010966921477 -10.085266835049714 0.0980392157 0.0980392157 0.0980392157
v -0.081239277916085761 -5.9279649689330558 -12.898971608144258 0.0980392157 0.0980392157 0.0980392157
v 8.6195563942233022 -4.3628268779543351 -9.8379638966757561 0.0980392157 0.0980392157 0.0980392157
v 11.627264291510196 -4.1153480100828466 -10.73854793828292 0.0980392157 0.0980392157 0.0980392157
v -8.3956862626134026 32.840473671942171 -5.1667909743383547 0.0980392157 0.0980392157 0.0980392157
v -11.073768346599167 32.121244061474883 -9.3450680862436712 0.0980392157 0.0980392157 0.0980392157
v -13.95688420978523 31.395012106389235 -5.2653580801866946 0.0980392157 0.0980392157 0.0980392157
v -9.0264778007385811 23.24556092520648 -9.3402420422900185 0.0980392157 0.0980392157 0.0980392157
v -0.23052587442193762 32.132126919230771 -10.549540282125381 0.0980392157 0.0980392157 0.0980392157
v -11.073768346599167 32.121244061474883 -9.3450680862436712 0.0980392157 0.0980392157 0.0980392157
v -7.8138153808115138 24.510189969677274 -5.1259261059968688 0.0980392157 0.0980392157 0.0980392157
v -9.0264778007385811 23.24556092520648 -9.3402420422900185 0.0980392157 0.0980392157 0.0980392157
v -11.073768346599167 32.121244061474883 -9.3450680862436712 0.0980392157 0.0980392157 0.0980392157
v -8.3956862626134026 32.840473671942171 -5.1667909743383547 0.0980392157 0.0980392157 0.0980392157
v 2.8691647052764893 23.024250030517578 -10.39140796661377 0.0980392157 0.0980392157 0.0980392157
v 10.71806961607756 22.018950021740729 -5.6696950832058119 0.0980392157 0.0980392157 0.0980392157
v 12.872532672618407 32.323726436896123 -7.0729098541684232 0.0980392157 0.0980392157 0.0980392157
v 6.86856547458365 20.797881360858309 -9.9947370136451141 0.0980392157 0.0980392157 0.0980392157
v -3.8937242738651019 21.29061741363536 -7.1765735529210755 0.0980392157 0.0980392157 0.0980392157
v 2.8691647052764893 23.024250030517578 -10.39140796661377 0.0980392157 0.0980392157 0.0980392157
v -9.0264778007385811 23.24556092520648 -9.3402420422900185 0.0980392157 0.0980392157 0.0980392157
v 6.86856547458365 20.797881360858309 -9.9947370136451141 0.0980392157 0.0980392157 0.0980392157
v -9.7942247234436302 14.198133607205394 -8.9257726259749823 0.0980392157 0.0980392157 0.0980392157
v -3.8937242738651019 21.29061741363536 -7.1765735529210755 0.0980392157 0.0980392157 0.0980392157
v -9.0264778007385811 23.24556092520648 -9.3402420422900185 0.0980392157 0.0980392157 0.0980392157
v -7.8138153808115138 24.510189969677274 -5.1259261059968688 0.0980392157 0.0980392157 0.0980392157
v -9.7942247234436302 14.198133607205394 -8.9257726259749823 0.0980392157 0.0980392157 0.0980392157
v -9.0264778007385811 23.24556092520648 -9.3402420422900185 0.0980392157 0.0980392157 0.0980392157
v 4.5603591326270703 22.073211354337456 -5.2523033703858744 0.0980392157 0.0980392157 0.0980392157
v 2.8691647052764893 23.024250030517578 -10.39140796661377 0.0980392157 0.0980392157 0.0980392157
v -3.8937242738651019 21.29061741363536 -7.1765735529210755 0.0980392157 0.0980392157 0.0980392157
v 0.56917801908147092 19.129627148230181 -7.8118502373475165 0.0980392157 0.0980392157 0.0980392157
v 6.86856547458365 20.797881360858309 -9.9947370136451141 0.0980392157 0.0980392157 0.0980392157
v 2.8691647052764893 23.024250030517578 -10.39140796661377 0.0980392157 0.0980392157 0.0980392157
v 4.5603591326270703 22.073211354337456 -5.2523033703858744 0.0980392157 0.0980392157 0.0980392157
v 0.56917801908147092 19.129627148230181 -7.8118502373475165 0.0980392157 0.0980392157 0.0980392157
v 2.8691647052764893 23.024250030517578 -10.39140796661377 0.0980392157 0.0980392157 0.0980392157
v 6.86856547458365 20.797881360858309 -9.9947370136451141 0.0980392157 0.0980392157 0.0980392157
v 4.6376553648086549 15.27606744765091 -10.389790130536174 0.0980392157 0.0980392157 0.0980392157
v 4.5603591326270703 22.073211354337456 -5.2523033703858744 0.0980392157 0.0980392157 0.0980392157
v 4.5603591326270703 22.073211354337456 -5.2523033703858744 0.0980392157 0.0980392157 0.0980392157
v 10.71806961607756 22.018950021740729 -5.6696950832058119 0.0980392157 0.0980392157 0.0980392157
v 6.86856547458365 20.797881360858309 -9.9947370136451141 0.0980392157 0.0980392157 0.0980392157
v -7.2852163785015147 14.991482549081738 -5.0683643877310187 0.0980392157 0.0980392157 0.0980392157
v -3.8937242738651019 21.29061741363536 -7.1765735529210755 0.0980392157 0.0980392157 0.0980392157
v -4.0204588559645185 16.664087217396997 -8.0669486937691719 0.0980392157 0.0980392157 0.0980392157
v -2.0827911215807546 14.339020636897803 -10.755506866611032 0.0980392157 0.0980392157 0.0980392157
v -4.0204588559645185 16.664087217396997 -8.0669486937691719 0.0980392157 0.0980392157 0.0980392157
v -9.7942247234436302 14.198133607205394 -8.9257726259749823 0.0980392157 0.0980392157 0.0980392157
v -7.2852163785015147 14.991482549081738 -5.0683643877310187 0.0980392157 0.0980392157 0.0980392157
v 4.2175618553076735 15.142146835202244 -5.1429432086735822 0.0980392157 0.0980392157 0.0980392157
v 4.6376553648086549 15.27606744765091 -10.389790130536174 0.0980392157 0.0980392157 0.0980392157
v 0.56917801908147092 19.129627148230181 -7.8118502373475165 0.0980392157 0.0980392157 0.0980392157
v 4.2175618553076735 15.142146835202244 -5.1429432086735822 0.0980392157 0.0980392157 0.0980392157
v 0.56917801908147092 19.129627148230181 -7.8118502373475165 0.0980392157 0.0980392157 0.0980392157
v 4.5603591326270703 22.073211354337456 -5.2523033703858744 0.0980392157 0.0980392157 0.0980392157
v 4.2175618553076735 15.142146835202244 -5.1429432086735822 0.0980392157 0.0980392157 0.0980392157
v -4.0204588559645185 16.664087217396997 -8.0669486937691719 0.0980392157 0.0980392157 0.0980392157
v 4.6376553648086549 15.27606744765091 -10.389790130536174 0.0980392157 0.0980392157 0.0980392157
v 4.2175618553076735 15.142146835202244 -5.1429432086735822 0.0980392157 0.0980392157 0.0980392157
v -7.2852163785015147 14.991482549081738 -5.0683643877310187 0.0980392157 0.0980392157 0.0980392157
v -4.0204588559645185 16.664087217396997 -8.0669486937691719 0.0980392157 0.0980392157 0.0980392157
v 11.705898984326863 15.169352604288857 -5.069418661210694 0.0980392157 0.0980392157 0.0980392157
v 4.6376553648086549 15.27606744765091 -10.389790130536174 0.0980392157 0.0980392157 0.0980392157
v 12.765583095434689 13.821020549742148 -8.9444103768906214 0.0980392157 0.0980392157 0.0980392157
v 4.2175618553076735 15.142146835202244 -5.1429432086735822 0.0980392157 0.0980392157 0.0980392157
v 4.6376553648086549 15.27606744765091 -10.389790130536174 0.0980392157 0.0980392157 0.0980392157
v 11.705898984326863 15.169352604288857 -5.069418661210694 0.0980392157 0.0980392157 0.0980392157
v -7.2852163785015147 14.991482549081738 -5.0683643877310187 0.0980392157 0.0980392157 0.0980392157
v -12.681806820440517 13.913013721641512 -5.2978513454025498 0.0980392157 0.0980392157 0.0980392157
v -9.7942247234436302 14.198133607205394 -8.9257726259749823 0.0980392157 0.0980392157 0.0980392157
v 12.765583095434689 13.821020549742148 -8.9444103768906214 0.0980392157 0.0980392157 0.0980392157
v -9.7942247234436302 14.198133607205394 -8.9257726259749823 0.0980392157 0.0980392157 0.0980392157
v -10.278895590966618 3.1993126286466307 -9.4827401233479591 0.0980392157 0.0980392157 0.0980392157
v -11.983268393236573 3.1154927827461054 -5.0393429978185553 0.0980392157 0.0980392157 0.0980392157
v -10.278895590966618 3.1993126286466307 -9.4827401233479591 0.0980392157 0.0980392157 0.0980392157
v -12.538595864943771 3.1235697616062925 -10.486671686546897 0.0980392157 0.0980392157 0.0980392157
v 8.3125173800707621 3.4335326789291218 -5.4095938531521348 0.0980392157 0.0980392157 0.0980392157
v 11.766121137415317 3.0971272272080084 -4.0000547397709667 0.0980392157 0.0980392157 0.0980392157
v 11.927635553455277 3.1766358367243201 -8.9521429083067048 0.0980392157 0.0980392157 0.0980392157
v 11.927635553455277 3.1766358367243201 -8.9521429083067048 0.0980392157 0.0980392157 0.0980392157
v 11.766121137415317 3.0971272272080084 -4.0000547397709667 0.0980392157 0.0980392157 0.0980392157
v 11.617513929495658 -3.6169469980822848 -3.5654189644759393 0.0980392157 0.0980392157 0.0980392157
v -11.108610090640918 -4.7927010966921477 -10.085266835049714 0.0980392157 0.0980392157 0.0980392157
v 8.6195563942233022 -4.3628268779543351 -9.8379638966757561 0.0980392157 0.0980392157 0.0980392157
v 8.3125173800707621 3.4335326789291218 -5.4095938531521348 0.0980392157 0.0980392157 0.0980392157
v 4.9117943743668562 2.6482315643938303 -10.436235529822795 0.0980392157 0.0980392157 0.0980392157
v 8.6195563942233022 -4.3628268779543351 -9.8379638966757561 0.0980392157 0.0980392157 0.0980392157
v 11.617513929495658 -3.6169469980822848 -3.5654189644759393 0.0980392157 0.0980392157 0.0980392157
v 8.6195563942233022 -4.3628268779543351 -9.8379638966757561 0.0980392157 0.0980392157 0.0980392157
v 11.627264291510196 -4.1153480100828466 -10.73854793828292 0.0980392157 0.0980392157 0.0980392157
v 4.5603591326270703 22.073211354337456 -5.2523033703858744 0.0980392157 0.0980392157 0.0980392157
v -3.8937242738651019 21.29061741363536 -7.1765735529210755 0.0980392157 0.0980392157 0.0980392157
v -7.8138153808115138 24.510189969677274 -5.1259261059968688 0.0980392157 0.0980392157 0.0980392157
v -8.3956862626134026 32.840473671942171 -5.1667909743383547 0.0980392157 0.0980392157 0.0980392157
v 13.510167886155971 29.561870691833924 1.4426886440172606 0.0980392157 0.0980392157 0.0980392157
v 13.452347931168454 16.282817397809684 3.3116833308284295 0.0980392157 0.0980392157 0.0980392157
v 4.8190218677581029 9.0089549152661075 -5.1862630412201254 0.0980392157 0.0980392157 0.0980392157
v -7.2852163785015147 14.991482549081738 -5.0683643877310187 0.0980392157 0.0980392157 0.0980392157
v 4.2175618553076735 15.142146835202244 -5.1429432086735822 0.0980392157 0.0980392157 0.0980392157
v 11.705898984326863 15.169352604288857 -5.069418661210694 0.0980392157 0.0980392157 0.0980392157
v 12.765583095434689 13.821020549742148 -8.9444103768906214 0.0980392157 0.0980392157 0.0980392157
v 13.452347931168454 16.282817397809684 3.3116833308284295 0.0980392157 0.0980392157 0.0980392157
v 11.705898984326863 15.169352604288857 -5.069418661210694 0.0980392157 0.0980392157 0.0980392157
v 11.766121137415317 3.0971272272080084 -4.0000547397709667 0.0980392157 0.0980392157 0.0980392157
v 8.3125173800707621 3.4335326789291218 -5.4095938531521348 0.0980392157 0.0980392157 0.0980392157
v -9.2241743580036903 35.396524727411638 2.8303115701140023 0.0980392157 0.0980392157 0.0980392157
v -7.9576072074797244 42.3163492376151 0.71112409604821702 0.0980392157 0.0980392157 0.0980392157
v -7.7956901892465806 40.0079084213654 -5.2460263661492119 0.0980392157 0.0980392157 0.0980392157
v 3.8576066698847975 41.32612213917642 -5.2703324837007806 0.0980392157 0.0980392157 0.0980392157
v -7.7956901892465806 40.0079084213654 -5.2460263661492119 0.0980392157 0.0980392157 0.0980392157
v -7.9576072074797244 42.3163492376151 0.71112409604821702 0.0980392157 0.0980392157 0.0980392157
v -0.64417379168614386 42.015425331470389 1.3553957665456928 0.0980392157 0.0980392157 0.0980392157
v -7.7956901892465806 40.0079084213654 -5.2460263661492119 0.0980392157 0.0980392157 0.0980392157
v 3.8576066698847975 41.32612213917642 -5.2703324837007806 0.0980392157 0.0980392157 0.0980392157
v -10.658846983110042 35.606854918709722 -1.1191682624571579 0.0980392157 0.0980392157 0.0980392157
v -7.7956901892465806 40.0079084213654 -5.2460263661492119 0.0980392157 0.0980392157 0.0980392157
v -8.3956862626134026 32.840473671942171 -5.1667909743383547 0.0980392157 0.0980392157 0.0980392157
v -7.8138153808115138 24.510189969677274 -5.1259261059968688 0.0980392157 0.0980392157 0.0980392157
v -9.4729372893262216 9.2643747719384333 -4.6840808901559612 0.0980392157 0.0980392157 0.0980392157
v -11.983268393236573 3.1154927827461054 -5.0393429978185553 0.0980392157 0.0980392157 0.0980392157
v -12.681806820440517 13.913013721641512 -5.2978513454025498 0.0980392157 0.0980392157 0.0980392157
v 5.8060282479463599 32.825979294473527 -5.1799677518277534 0.0980392157 0.0980392157 0.0980392157
v 12.872532672618407 32.323726436896123 -7.0729098541684232 0.0980392157 0.0980392157 0.0980392157
v 10.71806961607756 22.018950021740729 -5.6696950832058119 0.0980392157 0.0980392157 0.0980392157
v 12.872532672618407 32.323726436896123 -7.0729098541684232 0.0980392157 0.0980392157 0.0980392157
v 5.8060282479463599 32.825979294473527 -5.1799677518277534 0.0980392157 0.0980392157 0.0980392157
v 9.1705785584464223 33.492815842610113 0.76199368453949201 0.0980392157 0.0980392157 0.0980392157
v 9.1705785584464223 33.492815842610113 0.76199368453949201 0.0980392157 0.0980392157 0.0980392157
v 3.8576066698847975 41.32612213917642 -5.2703324837007806 0.0980392157 0.0980392157 0.0980392157
v 5.9259522757191734 37.219200709521331 1.2548208137020818 0.0980392157 0.0980392157 0.0980392157
v 5.9259522757191734 37.219200709521331 1.2548208137020818 0.0980392157 0.0980392157 0.0980392157
v 3.8576066698847975 41.32612213917642 -5.2703324837007806 0.0980392157 0.0980392157 0.0980392157
v -0.64417379168614386 42.015425331470389 1.3553957665456928 0.0980392157 0.0980392157 0.0980392157
v -10.658846983110042 35.606854918709722 -1.1191682624571579 0.0980392157 0.0980392157 0.0980392157
v -9.2241743580036903 35.396524727411638 2.8303115701140023 0.0980392157 0.0980392157 0.0980392157
v -7.7956901892465806 40.0079084213654 -5.2460263661492119 0.0980392157 0.0980392157 0.0980392157
v -7.8138153808115138 24.510189969677274 -5.1259261059968688 0.0980392157 0.0980392157 0.0980392157
v -13.95688420978523 31.395012106389235 -5.2653580801866946 0.0980392157 0.0980392157 0.0980392157
v -10.658846983110042 35.606854918709722 -1.1191682624571579 0.0980392157 0.0980392157 0.0980392157
v -9.2241743580036903 35.396524727411638 2.8303115701140023 0.0980392157 0.0980392157 0.0980392157
v -10.658846983110042 35.606854918709722 -1.1191682624571579 0.0980392157 0.0980392157 0.0980392157
v -13.95688420978523 31.395012106389235 -5.2653580801866946 0.0980392157 0.0980392157 0.0980392157
v 8.7219997893935162 5.3570033222577296 5.3295067508411842 0.0980392157 0.0980392157 0.0980392157
v 4.8190218677581029 9.0089549152661075 -5.1862630412201254 0.0980392157 0.0980392157 0.0980392157
v 8.3125173800707621 3.4335326789291218 -5.4095938531521348 0.0980392157 0.0980392157 0.0980392157
v 6.988250719176305 -0.039180140602310114 0.168263157103376 0.0980392157 0.0980392157 0.0980392157
v 8.7219997893935162 5.3570033222577296 5.3295067508411842 0.0980392157 0.0980392157 0.0980392157
v 8.3125173800707621 3.4335326789291218 -5.4095938531521348 0.0980392157 0.0980392157 0.0980392157
v 11.717270668950242 10.38046658363548 4.7103727624222769 0.0980392157 0.0980392157 0.0980392157
v 11.92634166119888 2.519386714396723 4.800905936748598 0.0980392157 0.0980392157 0.0980392157
v 11.766121137415317 3.0971272272080084 -4.0000547397709667 0.0980392157 0.0980392157 0.0980392157
v 8.6195563942233022 -4.3628268779543351 -9.8379638966757561 0.0980392157 0.0980392157 0.0980392157
v 14.76999759573129 0.017126762560547678 -0.14611120650988463 0.0980392157 0.0980392157 0.0980392157
v 11.617513929495658 -3.6169469980822848 -3.5654189644759393 0.0980392157 0.0980392157 0.0980392157
v 11.766121137415317 3.0971272272080084 -4.0000547397709667 0.0980392157 0.0980392157 0.0980392157
v 8.2576408862578958 -4.7335415952435973 5.604589428195859 0.0980392157 0.0980392157 0.0980392157
v 11.255548862040806 -5.4661029896646154 2.7888473078741551 0.0980392157 0.0980392157 0.0980392157
v 11.617513929495658 -3.6169469980822848 -3.5654189644759393 0.0980392157 0.0980392157 0.0980392157
v 14.76999759573129 0.017126762560547678 -0.14611120650988463 0.0980392157 0.0980392157 0.0980392157
v 11.255548862040806 -5.4661029896646154 2.7888473078741551 0.0980392157 0.0980392157 0.0980392157
v 8.6195563942233022 -4.3628268779543351 -9.8379638966757561 0.0980392157 0.0980392157 0.0980392157
v 11.617513929495658 -3.6169469980822848 -3.5654189644759393 0.0980392157 0.0980392157 0.0980392157
v 5.5695446545099703 40.62739271131624 5.1435656209642104 0.0980392157 0.0980392157 0.0980392157
v 5.9259522757191734 37.219200709521331 1.2548208137020818 0.0980392157 0.0980392157 0.0980392157
v -0.64417379168614386 42.015425331470389 1.3553957665456928 0.0980392157 0.0980392157 0.0980392157
v -9.2241743580036903 35.396524727411638 2.8303115701140023 0.0980392157 0.0980392157 0.0980392157
v -8.1104799488747563 40.148584058953872 5.1405964174239491 0.0980392157 0.0980392157 0.0980392157
v 13.510167886155971 29.561870691833924 1.4426886440172606 0.0980392157 0.0980392157 0.0980392157
v 9.1705785584464223 33.492815842610113 0.76199368453949201 0.0980392157 0.0980392157 0.0980392157
v -14.061575026314957 29.459913216038487 2.2926477711705755 0.0980392157 0.0980392157 0.0980392157
v -9.2241743580036903 35.396524727411638 2.8303115701140023 0.0980392157 0.0980392157 0.0980392157
v -13.95688420978523 31.395012106389235 -5.2653580801866946 0.0980392157 0.0980392157 0.0980392157
v -14.134476969617154 16.323947469195176 2.3664999529345621 0.0980392157 0.0980392157 0.0980392157
v -14.061575026314957 29.459913216038487 2.2926477711705755 0.0980392157 0.0980392157 0.0980392157
v -12.05843920558622 13.999586489131143 6.9877002538008215 0.0980392157 0.0980392157 0.0980392157
v -14.134476969617154 16.323947469195176 2.3664999529345621 0.0980392157 0.0980392157 0.0980392157
v -12.681806820440517 13.913013721641512 -5.2978513454025498 0.0980392157 0.0980392157 0.0980392157
v 13.452347931168454 16.282817397809684 3.3116833308284295 0.0980392157 0.0980392157 0.0980392157
v 11.717270668950242 10.38046658363548 4.7103727624222769 0.0980392157 0.0980392157 0.0980392157
v 11.705898984326863 15.169352604288857 -5.069418661210694 0.0980392157 0.0980392157 0.0980392157
v -11.01345418923596 8.5795035452610691 4.7094672365336434 0.0980392157 0.0980392157 0.0980392157
v -11.983268393236573 3.1154927827461054 -5.0393429978185553 0.0980392157 0.0980392157 0.0980392157
v -9.4729372893262216 9.2643747719384333 -4.6840808901559612 0.0980392157 0.0980392157 0.0980392157
v 14.76999759573129 0.017126762560547678 -0.14611120650988463 0.0980392157 0.0980392157 0.0980392157
v 11.766121137415317 3.0971272272080084 -4.0000547397709667 0.0980392157 0.0980392157 0.0980392157
v 11.92634166119888 2.519386714396723 4.800905936748598 0.0980392157 0.0980392157 0.0980392157
v -12.80832503263527 0.36529518184773802 5.610319310069058 0.0980392157 0.0980392157 0.0980392157
v -14.249343972837774 7.6894716727915693 3.8002746348658745 0.0980392157 0.0980392157 0.0980392157
v -11.01345418923596 8.5795035452610691 4.7094672365336434 0.0980392157 0.0980392157 0.0980392157
v -12.80832503263527 0.36529518184773802 5.610319310069058 0.0980392157 0.0980392157 0.0980392157
v -14.212653798866263 2.5433440324371324 -3.2097716835480448 0.0980392157 0.0980392157 0.0980392157
v -14.864730876216861 -3.5643664101721924 -0.51583247147198874 0.0980392157 0.0980392157 0.0980392157
v -12.01046259776801 -4.3590054554887985 0.58278910550620988 0.0980392157 0.0980392157 0.0980392157
v -12.80832503263527 0.36529518184773802 5.610319310069058 0.0980392157 0.0980392157 0.0980392157
v -12.01046259776801 -4.3590054554887985 0.58278910550620988 0.0980392157 0.0980392157 0.0980392157
v -14.864730876216861 -3.5643664101721924 -0.51583247147198874 0.0980392157 0.0980392157 0.0980392157
v -9.2241743580036903 35.396524727411638 2.8303115701140023 0.0980392157 0.0980392157 0.0980392157
v -8.4060316050520196 26.363610087333878 5.1584667754861986 0.0980392157 0.0980392157 0.0980392157
v -11.0047694358529 22.994376109241955 7.6174308121401975 0.0980392157 0.0980392157 0.0980392157
v -8.4060316050520196 26.363610087333878 5.1584667754861986 0.0980392157 0.0980392157 0.0980392157
v -14.061575026314957 29.459913216038487 2.2926477711705755 0.0980392157 0.0980392157 0.0980392157
v -9.2241743580036903 35.396524727411638 2.8303115701140023 0.0980392157 0.0980392157 0.0980392157
v -9.2218669428976643 28.385486815090971 1.0144703823565562 0.0980392157 0.0980392157 0.0980392157
v -14.061575026314957 29.459913216038487 2.2926477711705755 0.0980392157 0.0980392157 0.0980392157
v -8.4060316050520196 26.363610087333878 5.1584667754861986 0.0980392157 0.0980392157 0.0980392157
v -9.2218669428976643 28.385486815090971 1.0144703823565562 0.0980392157 0.0980392157 0.0980392157
v -14.061575026314957 29.459913216038487 2.2926477711705755 0.0980392157 0.0980392157 0.0980392157
v -9.2218669428976643 28.385486815090971 1.0144703823565562 0.0980392157 0.0980392157 0.0980392157
v -9.2241743580036903 35.396524727411638 2.8303115701140023 0.0980392157 0.0980392157 0.0980392157
v 5.8983747795923351 26.553305581854147 5.1831927158228313 0.0980392157 0.0980392157 0.0980392157
v 13.510167886155971 29.561870691833924 1.4426886440172606 0.0980392157 0.0980392157 0.0980392157
v 9.1705785584464223 33.492815842610113 0.76199368453949201 0.0980392157 0.0980392157 0.0980392157
v 5.8983747795923351 26.553305581854147 5.1831927158228313 0.0980392157 0.0980392157 0.0980392157
v 9.1705785584464223 33.492815842610113 0.76199368453949201 0.0980392157 0.0980392157 0.0980392157
v 5.9259522757191734 37.219200709521331 1.2548208137020818 0.0980392157 0.0980392157 0.0980392157
v 11.45409039488683 23.092591077547478 7.6890408075524634 0.0980392157 0.0980392157 0.0980392157
v 13.510167886155971 29.561870691833924 1.4426886440172606 0.0980392157 0.0980392157 0.0980392157
v 5.8983747795923351 26.553305581854147 5.1831927158228313 0.0980392157 0.0980392157 0.0980392157
v -12.05843920558622 13.999586489131143 6.9877002538008215 0.0980392157 0.0980392157 0.0980392157
v -11.0047694358529 22.994376109241955 7.6174308121401975 0.0980392157 0.0980392157 0.0980392157
v 11.45409039488683 23.092591077547478 7.6890408075524634 0.0980392157 0.0980392157 0.0980392157
v 10.755077072748705 14.308387103513022 7.4964804603172919 0.0980392157 0.0980392157 0.0980392157
v 11.717270668950242 10.38046658363548 4.7103727624222769 0.0980392157 0.0980392157 0.0980392157
v 13.452347931168454 16.282817397809684 3.3116833308284295 0.0980392157 0.0980392157 0.0980392157
v 8.7219997893935162 5.3570033222577296 5.3295067508411842 0.0980392157 0.0980392157 0.0980392157
v 11.717270668950242 10.38046658363548 4.7103727624222769 0.0980392157 0.0980392157 0.0980392157
v 3.6239483849406793 9.3521826951782074 4.3708975992442936 0.0980392157 0.0980392157 0.0980392157
v -12.01046259776801 -4.3590054554887985 0.58278910550620988 0.0980392157 0.0980392157 0.0980392157
v -12.80832503263527 0.36529518184773802 5.610319310069058 0.0980392157 0.0980392157 0.0980392157
v -14.864730876216861 -3.5643664101721924 -0.51583247147198874 0.0980392157 0.0980392157 0.0980392157
v 5.8983747795923351 26.553305581854147 5.1831927158228313 0.0980392157 0.0980392157 0.0980392157
v 5.5695446545099703 40.62739271131624 5.1435656209642104 0.0980392157 0.0980392157 0.0980392157
v -8.1104799488747563 40.148584058953872 5.1405964174239491 0.0980392157 0.0980392157 0.0980392157
v 11.45409039488683 23.092591077547478 7.6890408075524634 0.0980392157 0.0980392157 0.0980392157
v 5.8983747795923351 26.553305581854147 5.1831927158228313 0.0980392157 0.0980392157 0.0980392157
v -8.4060316050520196 26.363610087333878 5.1584667754861986 0.0980392157 0.0980392157 0.0980392157
v 10.755077072748705 14.308387103513022 7.4964804603172919 0.0980392157 0.0980392157 0.0980392157
v -11.01345418923596 8.5795035452610691 4.7094672365336434 0.0980392157 0.0980392157 0.0980392157
v 11.717270668950242 10.38046658363548 4.7103727624222769 0.0980392157 0.0980392157 0.0980392157
v 10.755077072748705 14.308387103513022 7.4964804603172919 0.0980392157 0.0980392157 0.0980392157
v -11.01345418923596 8.5795035452610691 4.7094672365336434 0.0980392157 0.0980392157 0.0980392157
v -11.01345418923596 8.5795035452610691 4.7094672365336434 0.0980392157 0.0980392157 0.0980392157
v -12.05843920558622 13.999586489131143 6.9877002538008215 0.0980392157 0.0980392157 0.0980392157
v -14.249343972837774 7.6894716727915693 3.8002746348658745 0.0980392157 0.0980392157 0.0980392157
v 8.7219997893935162 5.3570033222577296 5.3295067508411842 0.0980392157 0.0980392157 0.0980392157
v 11.92634166119888 2.519386714396723 4.800905936748598 0.0980392157 0.0980392157 0.0980392157
v -14.249343972837774 7.6894716727915693 3.8002746348658745 0.0980392157 0.0980392157 0.0980392157
v 11.92634166119888 2.519386714396723 4.800905936748598 0.0980392157 0.0980392157 0.0980392157
v 8.2576408862578958 -4.7335415952435973 5.604589428195859 0.0980392157 0.0980392157 0.0980392157
v -3.5707071226016183 13.743699985910229 8.6261558460467072 0.0980392157 0.0980392157 0.0980392157
v 11.45409039488683 23.092591077547478 7.6890408075524634 0.0980392157 0.0980392157 0.0980392157
v 11.627264291510196 -4.1153480100828466 -10.73854793828292 0.0980392157 0.0980392157 0.0980392157
v 5.5695446545099703 40.62739271131624 5.1435656209642104 0.0980392157 0.0980392157 0.0980392157
v 5.8983747795923351 26.553305581854147 5.1831927158228313 0.0980392157 0.0980392157 0.0980392157
v 5.9259522757191734 37.219200709521331 1.2548208137020818 0.0980392157 0.0980392157 0.0980392157
v -12.05843920558622 13.999586489131143 6.9877002538008215 0.0980392157 0.0980392157 0.0980392157
v -3.5707071226016183 13.743699985910229 8.6261558460467072 0.0980392157 0.0980392157 0.0980392157
v -12.05843920558622 13.999586489131143 6.9877002538008215 0.0980392157 0.0980392157 0.0980392157
v 10.755077072748705 14.308387103513022 7.4964804603172919 0.0980392157 0.0980392157 0.0980392157
v 11.927635553455277 3.1766358367243201 -8.9521429083067048 0.0980392157 0.0980392157 0.0980392157
v -12.01046259776801 -4.3590054554887985 0.58278910550620988 0.0980392157 0.0980392157 0.0980392157
v -11.108610090640918 -4.7927010966921477 -10.085266835049714 0.0980392157 0.0980392157 0.0980392157
v 9.1705785584464223 33.492815842610113 0.76199368453949201 0.0980392157 0.0980392157 0.0980392157
v 5.8060282479463599 32.825979294473527 -5.1799677518277534 0.0980392157 0.0980392157 0.0980392157
v 3.8576066698847975 41.32612213917642 -5.2703324837007806 0.0980392157 0.0980392157 0.0980392157
v -12.681806820440517 13.913013721641512 -5.2978513454025498 0.0980392157 0.0980392157 0.0980392157
v -11.983268393236573 3.1154927827461054 -5.0393429978185553 0.0980392157 0.0980392157 0.0980392157
v -14.212653798866263 2.5433440324371324 -3.2097716835480448 0.0980392157 0.0980392157 0.0980392157
v 8.6195563942233022 -4.3628268779543351 -9.8379638966757561 0.0980392157 0.0980392157 0.0980392157
v 11.255548862040806 -5.4661029896646154 2.7888473078741551 0.0980392157 0.0980392157 0.0980392157
v 8.2576408862578958 -4.7335415952435973 5.604589428195859 0.0980392157 0.0980392157 0.0980392157
v -14.864730876216861 -3.5643664101721924 -0.51583247147198874 0.0980392157 0.0980392157 0.0980392157
v -11.108610090640918 -4.7927010966921477 -10.085266835049714 0.0980392157 0.0980392157 0.0980392157
v 5.5695446545099703 40.62739271131624 5.1435656209642104 0.0980392157 0.0980392157 0.0980392157
v -8.1104799488747563 40.148584058953872 5.1405964174239491 0.0980392157 0.0980392157 0.0980392157
v 4.8190218677581029 9.0089549152661075 -5.1862630412201254 0.0980392157 0.0980392157 0.0980392157
v 3.6239483849406793 9.3521826951782074 4.3708975992442936 0.0980392157 0.0980392157 0.0980392157
v 11.255548862040806 -5.4661029896646154 2.7888473078741551 0.0980392157 0.0980392157 0.0980392157
v 11.92634166119888 2.519386714396723 4.800905936748598 0.0980392157 0.0980392157 0.0980392157
v 0.56917801908147092 19.129627148230181 -7.8118502373475165 0.0980392157 0.0980392157 0.0980392157
v 4.6376553648086549 15.27606744765091 -10.389790130536174 0.0980392157 0.0980392157 0.0980392157
v 6.86856547458365 20.797881360858309 -9.9947370136451141 0.0980392157 0.0980392157 0.0980392157
v -11.01345418923596 8.5795035452610691 4.7094672365336434 0.0980392157 0.0980392157 0.0980392157
v -9.4729372893262216 9.2643747719384333 -4.6840808901559612 0.0980392157 0.0980392157 0.0980392157
v 3.6239483849406793 9.3521826951782074 4.3708975992442936 0.0980392157 0.0980392157 0.0980392157
v -11.0047694358529 22.994376109241955 7.6174308121401975 0.0980392157 0.0980392157 0.0980392157
v -11.108610090640918 -4.7927010966921477 -10.085266835049714 0.0980392157 0.0980392157 0.0980392157
v -9.7942247234436302 14.198133607205394 -8.9257726259749823 0.0980392157 0.0980392157 0.0980392157
v -4.0204588559645185 16.664087217396997 -8.0669486937691719 0.0980392157 0.0980392157 0.0980392157
v -3.8937242738651019 21.29061741363536 -7.1765735529210755 0.0980392157 0.0980392157 0.0980392157
v 4.9117943743668562 2.6482315643938303 -10.436235529822795 0.0980392157 0.0980392157 0.0980392157
v 4.8190218677581029 9.0089549152661075 -5.1862630412201254 0.0980392157 0.0980392157 0.0980392157
v -11.983268393236573 3.1154927827461054 -5.0393429978185553 0.0980392157 0.0980392157 0.0980392157
v -11.0047694358529 22.994376109241955 7.6174308121401975 0.0980392157 0.0980392157 0.0980392157
v -12.80832503263527 0.36529518184773802 5.610319310069058 0.0980392157 0.0980392157 0.0980392157
v -14.212653798866263 2.5433440324371324 -3.2097716835480448 0.0980392157 0.0980392157 0.0980392157
v -11.983268393236573 3.1154927827461054 -5.0393429978185553 0.0980392157 0.0980392157 0.0980392157
v -13.782981120023955 15.045357188659107 -8.2211070606843268 0.0980392157 0.0980392157 0.0980392157
v -10.278895590966618 3.1993126286466307 -9.4827401233479591 0.0980392157 0.0980392157 0.0980392157
v -11.983268393236573 3.1154927827461054 -5.0393429978185553 0.0980392157 0.0980392157 0.0980392157
v -13.95688420978523 31.395012106389235 -5.2653580801866946 0.0980392157 0.0980392157 0.0980392157
v -7.8138153808115138 24.510189969677274 -5.1259261059968688 0.0980392157 0.0980392157 0.0980392157
v -8.3956862626134026 32.840473671942171 -5.1667909743383547 0.0980392157 0.0980392157 0.0980392157
v -12.681806820440517 13.913013721641512 -5.2978513454025498 0.0980392157 0.0980392157 0.0980392157
v -12.05843920558622 13.999586489131143 6.9877002538008215 0.0980392157 0.0980392157 0.0980392157
v 12.872532672618407 32.323726436896123 -7.0729098541684232 0.0980392157 0.0980392157 0.0980392157
v 4.2175618553076735 15.142146835202244 -5.1429432086735822 0.0980392157 0.0980392157 0.0980392157
v -13.782981120023955 15.045357188659107 -8.2211070606843268 0.0980392157 0.0980392157 0.0980392157
v -8.4060316050520196 26.363610087333878 5.1584667754861986 0.0980392157 0.0980392157 0.0980392157
vn -0.34701773524284363 0.03254159539937973 -0.93729382753372192
vn -0.40689319372177124 0.072647243738174438 -0.91058242321014404
vn -0.10328525304794312 0.026587808504700661 -0.9942963719367981
vn 0.019829783588647842 0.010078219696879387 -0.99975258111953735
vn 0.25806900858879089 0.046622063964605331 -0.96500092744827271
vn -0.016201585531234741 0.99887323379516602 0.044606208801269531
vn 0.0073637384921312332 0.99862372875213623 0.051926802843809128
vn 0.0012857615947723389 0.99845468997955322 0.055557005107402802
vn -0.021492360159754753 0.99848031997680664 0.050746221095323563
vn 0.94442117214202881 0.015153557062149048 -0.32838854193687439
vn 0.84907525777816772 0.057802185416221619 -0.52510005235671997
vn -0.95771843194961548 0.029364481568336487 -0.28620466589927673
vn -0.98735916614532471 0.00049491575919091702 -0.15849792957305908
vn -0.43568071722984314 0.059482879936695099 -0.89813369512557983
vn -0.16489437222480774 -0.025957480072975159 0.98596960306167603
vn 0.068193696439266205 -0.0060596959665417671 0.99765372276306152
vn 0.035998843610286713 -0.022260513156652451 0.99910390377044678
vn -0.16791796684265137 -0.003250814275816083 0.98579561710357666
vn -0.045656107366085052 -0.9361947774887085 0.3485037088394165
vn 0.1512264758348465 -0.96042913198471069 0.23389406502246857
vn 0.043608255684375763 -0.9512784481048584 0.30523377656936646
vn 0.97224503755569458 -0.011063984595239162 0.23370327055454254
vn 0.96832877397537231 -0.20867778360843658 0.13708733022212982
vn 0.87254244089126587 -0.033540491014719009 0.48738560080528259
vn 0.22656732797622681 -0.036997575312852859 0.97329258918762207
vn 0.28739547729492188 -0.060176648199558258 0.95591980218887329
vn 0.22615182399749756 -0.036923754960298538 0.97339200973510742
vn -0.88572019338607788 -0.21598121523857117 -0.41091585159301758
vn -0.92601925134658813 0.035675562918186188 -0.37578669190406799
vn -0.90482336282730103 -0.27629521489143372 -0.3239685595035553
vn -0.13091027736663818 0.99049806594848633 0.042142976075410843
vn -0.13091027736663818 0.99049806594848633 0.042142976075410843
vn -0.13091027736663818 0.99049806594848633 0.042142976075410843
vn -0.9998365044593811 -0.017900926992297173 -0.0025531572755426168
vn 0.055024009197950363 -0.99726653099060059 -0.049313630908727646
vn -0.27481544017791748 -0.96125698089599609 0.021481147035956383
vn 0.015551425516605377 -0.99782723188400269 -0.064023576676845551
vn 0.081725142896175385 -0.99610996246337891 0.032954216003417969
vn 0.05975043773651123 -0.99370259046554565 0.094789788126945496
vn -0.10070952028036118 0.98978441953659058 -0.10091766715049744
vn 0.023623177781701088 0.99957531690597534 0.01706106960773468
vn -0.034635376185178757 0.99925756454467773 0.016874739900231361
vn 0.28669577836990356 -0.056841101497411728 0.95633393526077271
vn -0.01210686843842268 -0.030465047806501389 0.99946248531341553
vn 0.30037593841552734 -0.066225036978721619 0.95151907205581665
vn 0.88861662149429321 0.0013185660354793072 -0.45864880084991455
vn 0.88936012983322144 0.0026989649049937725 -0.45719936490058899
vn 0.88477897644042969 0.0076292646117508411 -0.46594840288162231
vn 0.88277661800384521 0.0011131531791761518 -0.46979168057441711
vn -0.13226588070392609 -0.035580344498157501 0.99057549238204956
vn -0.88028222322463989 -0.033322464674711227 0.47327879071235657
vn -0.78201621770858765 -0.013637133873999119 0.62310892343521118
vn -0.91494864225387573 -0.07278711348772049 0.39695218205451965
vn 0.36501103639602661 0.45061966776847839 0.81468325853347778
vn 0.36501103639602661 0.45061966776847839 0.81468325853347778
vn 0.36501103639602661 0.45061966776847839 0.81468325853347778
vn -0.20621423423290253 -0.044297013431787491 0.97750371694564819
vn 0.14950892329216003 0.63414829969406128 0.75861912965774536
vn -0.27029207348823547 0.21286919713020325 0.93895095586776733
vn -0.12104874849319458 0.41007941961288452 0.90398120880126953
vn 0.88802599906921387 -0.29559841752052307 -0.35218095779418945
vn 0.94291484355926514 0.2792828381061554 -0.18141844868659973
vn 0.90597766637802124 -0.32462656497955322 -0.27170214056968689
vn -0.38605639338493347 0.92243599891662598 -0.0085023259744048119
vn -0.38605639338493347 0.92243599891662598 -0.0085023259744048119
vn -0.38605639338493347 0.92243599891662598 -0.0085023259744048119
vn 0.313312828540802 0.43169423937797546 0.84585762023925781
vn 0.313312828540802 0.43169423937797546 0.84585762023925781
vn 0.313312828540802 0.43169423937797546 0.84585762023925781
vn 0.67451441287994385 -0.67632788419723511 -0.29599133133888245
vn 0.67451441287994385 -0.67632788419723511 -0.29599133133888245
vn 0.67451441287994385 -0.67632788419723511 -0.29599133133888245
vn -0.99688565731048584 0.0013725749449804425 -0.07884824275970459
vn -0.99717569351196289 0.0046259663067758083 -0.074961930513381958
vn -0.99674177169799805 -0.00089516234584152699 -0.080653749406337738
vn -0.0034790255594998598 0.99986475706100464 0.016072513535618782
vn 0.25798389315605164 0.96106159687042236 -0.099019646644592285
vn 0.16367004811763763 0.98484605550765991 -0.057361651211977005
vn -0.99707961082458496 0.076360017061233521 -0.0011939111864194274
vn -0.99514484405517578 -0.034595489501953125 -0.092140451073646545
vn -0.99331408739089966 0.11053013801574707 0.033319797366857529
vn -0.042627241462469101 -0.57600617408752441 0.81633317470550537
vn -0.042708743363618851 -0.5700032114982605 0.82053172588348389
vn 0.19538576900959015 -0.42893636226654053 0.88195127248764038
vn 0.97139143943786621 0.0098889842629432678 -0.23727795481681824
vn 0.8340003490447998 0.55005341768264771 0.043412376195192337
vn 0.8340003490447998 0.55005341768264771 0.043412376195192337
vn 0.8340003490447998 0.55005341768264771 0.043412376195192337
vn 0.8448561429977417 -0.0050675352104008198 -0.53496956825256348
vn 0.84550613164901733 0.019004441797733307 -0.53362739086151123
vn 0.83350646495819092 0.0059551135636866093 -0.55247759819030762
vn -0.28568318486213684 -0.9581683874130249 -0.017274655401706696
vn -0.28568318486213684 -0.9581683874130249 -0.017274655401706696
vn -0.28568318486213684 -0.9581683874130249 -0.017274655401706696
vn -0.023659214377403259 -0.93352675437927246 -0.35772627592086792
vn 0.10918435454368591 -0.98416680097579956 -0.13962282240390778
vn 0.1310122013092041 -0.95115578174591064 -0.27953264117240906
vn -0.094703815877437592 -0.44287887215614319 0.89156574010848999
vn -0.52546489238739014 -0.32153570652008057 0.78771913051605225
vn -0.31154084205627441 -0.39479893445968628 0.86433565616607666
vn 0 -0.99999868869781494 -0.0016320241848006845
vn 0 -0.99999868869781494 -0.0016320241848006845
vn 0 -0.99999868869781494 -0.0016320241848006845
vn -0.025004683062434196 -0.99967712163925171 -0.0045204660855233669
vn 0.0018370861653238535 -0.99960803985595703 -0.027934625744819641
vn -0.025421371683478355 -0.9996681809425354 -0.0041567245498299599
vn -0.31597048044204712 -0.12256463617086411 0.94081908464431763
vn 0.26343521475791931 -0.016189107671380043 0.96454125642776489
vn 0.21012552082538605 -0.031933996826410294 0.97715276479721069
vn -0.020814396440982819 0.99961060285568237 0.018584700301289558
vn -0.0017621347215026617 0.99990880489349365 0.013391134329140186
vn -0.015436847694218159 0.99973428249359131 0.017119314521551132
vn 0.040622562170028687 0.99915540218353271 0.0061913048848509789
vn 0.049353312700986862 0.99723398685455322 0.055575191974639893
vn 0.016450116410851479 0.99766767024993896 0.066246546804904938
vn 0.99013763666152954 -0.034883741289377213 0.13568563759326935
vn 0.99722093343734741 -0.016297632828354836 0.072696790099143982
vn 0.99307113885879517 -0.051545400172472 -0.10560683161020279
vn 0.20190121233463287 -0.043478552252054214 0.97844034433364868
vn -0.67189496755599976 -0.6108672022819519 0.41880586743354797
vn -0.67189496755599976 -0.6108672022819519 0.41880586743354797
vn -0.67189496755599976 -0.6108672022819519 0.41880586743354797
vn -0.19099859893321991 -0.038524623960256577 0.98083400726318359
vn 0.39894643425941467 -0.91360551118850708 0.07852809876203537
vn 0.072042368352413177 -0.99432426691055298 0.078288815915584564
vn 0.4466986358165741 -0.89190393686294556 0.070481479167938232
vn -0.0055724387057125568 -0.00034838874125853181 -0.99998438358306885
vn 0.01427727285772562 0.029427321627736092 -0.99946492910385132
vn -0.028766700997948647 0.0083269169554114342 -0.99955147504806519
vn 0.016014112159609795 0.001967225456610322 -0.99986982345581055
vn 0.99967336654663086 -0.0023000957444310188 0.02545255608856678
vn 0.98896163702011108 -0.0075303814373910427 0.14798051118850708
vn -0.0026325855869799852 0.0036907324101775885 -0.99998974800109863
vn -0.0091173090040683746 -0.026219381019473076 -0.9996146559715271
vn 0.0037606894038617611 0.007185635156929493 -0.99996709823608398
vn 0.24563385546207428 -0.9615216851234436 0.12304496765136719
vn 0.17151623964309692 -0.94912880659103394 0.26407715678215027
vn 0.25250780582427979 -0.9617658257484436 -0.10604874789714813
vn -0.044121995568275452 -0.14824160933494568 -0.98796641826629639
vn 0.45664969086647034 0.085365831851959229 -0.88554149866104126
vn 0.096334710717201233 0.13214181363582611 -0.98653846979141235
vn -0.97798925638198853 -0.20649680495262146 0.029934434220194817
vn -0.88167780637741089 0.46495184302330017 0.080399058759212494
vn -0.97677052021026611 0.20899930596351624 -0.04731455072760582
vn -0.028262501582503319 0.98853182792663574 -0.14834423363208771
vn -0.034778919070959091 0.70199257135391235 -0.71133452653884888
vn -0.041955918073654175 0.9991072416305542 0.0049365418963134289
vn 0.0095735220238566399 0.9916498064994812 0.1286042332649231
vn -0.044104639440774918 0.040113035589456558 -0.99822127819061279
vn 0.013748543336987495 0.028020711615681648 -0.99951279163360596
vn -0.91080212593078613 0.049972761422395706 -0.40980750322341919
vn -0.89752703905105591 0.14552274346351624 -0.41625508666038513
vn -0.91093266010284424 -0.14914777874946594 -0.3846513032913208
vn -0.76263880729675293 -0.59349793195724487 -0.25718137621879578
vn -0.0025438657030463219 -0.0017606249311938882 -0.99999523162841797
vn -0.038480054587125778 0.035330362617969513 -0.99863457679748535
vn -0.00010447106615174562 -0.01225582417100668 -0.99992489814758301
vn -0.059477433562278748 -0.024805968627333641 -0.9979214072227478
vn -0.16498228907585144 -0.049766141921281815 -0.98504018783569336
vn -0.10527154803276062 -0.00051898980746045709 -0.99444335699081421
vn 0.036148980259895325 0.99921512603759766 0.016199246048927307
vn 0.16863469779491425 0.98037880659103394 -0.10207704454660416
vn 0.23070156574249268 0.91013693809509277 -0.34413298964500427
vn 0.48707854747772217 0.71099525690078735 0.50718855857849121
vn 0.58123487234115601 0.654502272605896 0.4835212230682373
vn 0.54572725296020508 0.67730957269668579 0.49338981509208679
vn 0.50990873575210571 0.83389085531234741 0.21123230457305908
vn 0.50990873575210571 0.83389085531234741 0.21123230457305908
vn 0.50990873575210571 0.83389085531234741 0.21123230457305908
vn -0.60632139444351196 0.76861447095870972 -0.20397575199604034
vn -0.51661080121994019 0.7195391058921814 -0.46408703923225403
vn -0.65148425102233887 0.73668795824050903 0.18127095699310303
vn 0.08652118593454361 0.63749462366104126 -0.76558125019073486
vn 0.25027185678482056 0.42255255579948425 -0.87109893560409546
vn 0.32054540514945984 0.30835989117622375 -0.89563655853271484
vn -0.88946253061294556 0.29286929965019226 0.35083326697349548
vn -0.88946253061294556 0.29286929965019226 0.35083326697349548
vn -0.88946253061294556 0.29286929965019226 0.35083326697349548
vn -0.68605929613113403 -0.71991211175918579 -0.10511540621519089
vn -0.81743144989013672 -0.47338148951530457 0.32820075750350952
vn -0.41339227557182312 -0.90534287691116333 -0.097267881035804749
vn -0.99923443794250488 0.039095833897590637 -0.0014173018280416727
vn -0.99294066429138184 0.096969164907932281 0.068307220935821533
vn -0.99530386924743652 0.064465999603271484 -0.072210177779197693
vn 0.99998348951339722 0.0014832374872639775 0.0055515202693641186
vn 0.99917036294937134 -0.0009190481505356729 0.040715515613555908
vn 0.98602050542831421 0.0068537504412233829 -0.16648295521736145
vn -0.9950602650642395 -0.040702387690544128 -0.090545192360877991
vn 0.49536487460136414 -0.080132551491260529 -0.86498117446899414
vn 0.61818236112594604 -0.023614495992660522 -0.78567993640899658
vn 0.54412680864334106 0.010256197303533554 -0.83894026279449463
vn -0.98151999711990356 -0.10341834276914597 0.16100646555423737
vn 0.87113475799560547 -0.48324930667877197 0.087145440280437469
vn 0.78725093603134155 -0.60140430927276611 -0.13619384169578552
vn 0.91167396306991577 -0.30956795811653137 0.27021890878677368
vn 0.4353410005569458 -0.79639893770217896 0.4197939932346344
vn 0.25039809942245483 -0.39651069045066833 -0.88322138786315918
vn 0.42162483930587769 -0.71014469861984253 -0.56385016441345215
vn 0.42620506882667542 0.82653391361236572 -0.36768323183059692
vn 0.53270065784454346 0.7468407154083252 -0.39806902408599854
vn 0.077589288353919983 0.94428747892379761 -0.31984531879425049
vn -0.98205274343490601 -0.18857906758785248 -0.0032233842648565769
vn -0.93548154830932617 0.29837766289710999 0.18932786583900452
vn -0.080121062695980072 0.74097597599029541 0.66673475503921509
vn 0.31079080700874329 0.8707878589630127 0.38096925616264343
vn -0.66240924596786499 0.67649960517883301 0.32181087136268616
vn -0.66240924596786499 0.67649960517883301 0.32181087136268616
vn -0.66240924596786499 0.67649960517883301 0.32181087136268616
vn -0.99613893032073975 -0.046862050890922546 0.074237048625946045
vn -0.99224084615707397 0.004516159649938345 0.12424876540899277
vn -0.21058888733386993 -0.95576608180999756 -0.20533761382102966
vn -0.17625223100185394 -0.96972948312759399 -0.16899679601192474
vn -0.20279981195926666 -0.97788047790527344 0.051205839961767197
vn 0.93754935264587402 -0.18463762104511261 -0.29480534791946411
vn 0.99933415651321411 0.026609573513269424 0.024963401257991791
vn 0.9990507960319519 0.040252126753330231 0.016650572419166565
vn 0.91225981712341309 -0.37894275784492493 -0.15551349520683289
vn 0.99940681457519531 0.021830795332789421 0.026634935289621353
vn 0.95616716146469116 -0.25243371725082397 0.14839659631252289
vn 0.5298997163772583 0.84650170803070068 0.051391862332820892
vn 0.5088382363319397 0.8606153130531311 0.020613210275769234
vn 0.5960652232170105 0.8029358983039856 0.0004163874255027622
vn -0.99969744682312012 0.011358062736690044 -0.021818557754158974
vn -0.99210047721862793 0.12519347667694092 -0.0079553220421075821
vn 0.99780833721160889 -0.031670704483985901 -0.058098740875720978
vn 0.99998193979263306 0.00013162537652533501 -0.0060109305195510387
vn -0.019353270530700684 0.21387572586536407 0.97666913270950317
vn -0.035160757601261139 0.21055044233798981 0.97695046663284302
vn 0.048405725508928299 0.21382023394107819 0.97567301988601685
vn -0.022179821506142616 0.98467183113098145 -0.17300128936767578
vn 0.022306600585579872 0.98527312278747559 -0.16952677071094513
vn -0.052417736500501633 0.98522365093231201 -0.16305431723594666
vn -0.99642997980117798 -0.071665078401565552 -0.044624611735343933
vn -0.99960106611251831 -0.023789430037140846 -0.015224969014525414
vn -0.16265848278999329 0.29881727695465088 0.94034594297409058
vn -0.16265848278999329 0.29881727695465088 0.94034594297409058
vn -0.16265848278999329 0.29881727695465088 0.94034594297409058
vn -0.99999874830245972 0.0012296275235712528 0.0010011013364419341
vn -0.99999982118606567 -0.00046694593038409948 -0.00038016409962438047
vn -0.06461615115404129 0.99436628818511963 0.084026716649532318
vn -0.10569258779287338 0.9923471212387085 0.063845321536064148
vn 0.012541764415800571 0.99987655878067017 0.0094619337469339371
vn -0.054779093712568283 -0.12836448848247528 0.99021303653717041
vn -0.056356985121965408 -0.1892799586057663 0.9803045392036438
vn -0.12406131625175476 0.0664963498711586 0.99004393815994263
vn -0.047256432473659515 -0.16959564387798309 0.98438006639480591
vn 0.035066116601228714 0.016797233372926712 0.99924379587173462
vn 0.12142791599035263 0.11319719254970551 0.98612457513809204
vn 0.7948724627494812 2.5143986931652762E-05 0.60677653551101685
vn 0.7948724627494812 2.5143986931652762E-05 0.60677653551101685
vn 0.7948724627494812 2.5143986931652762E-05 0.60677653551101685
vn 0.21449430286884308 0.86860442161560059 0.44667497277259827
vn 0.21449430286884308 0.86860442161560059 0.44667497277259827
vn 0.21449430286884308 0.86860442161560059 0.44667497277259827
vn -0.62285560369491577 0.036995965987443924 0.78146159648895264
vn -0.42719882726669312 -0.008687424473464489 0.90411597490310669
vn 0.55601000785827637 -0.0069064488634467125 0.83114689588546753
vn 0.66781127452850342 -0.45866924524307251 0.58621716499328613
vn 0.84430301189422607 -0.44117128849029541 0.30417159199714661
vn 0.93545889854431152 -0.35088238120079041 -0.04240494966506958
vn 0.00051018694648519158 0.072063632309436798 0.99739992618560791
vn -6.4652987930458039E-05 0.0075186258181929588 0.99997174739837646
vn 5.5099801102187485E-05 -0.0098845399916172028 0.99995112419128418
vn -0.58904367685317993 -0.78690111637115479 0.18388627469539642
vn -0.51157450675964355 0.029157567769289017 0.85874408483505249
vn -0.75594574213027954 -0.63361448049545288 0.1645561158657074
vn 8.5890442278468981E-06 3.5561315598897636E-05 1
vn 0.00065781403100118041 0.00083268975140526891 0.99999946355819702
vn -0.0020417843479663134 -0.00085794349433854222 0.99999755620956421
vn 0.010877049528062344 0.56446331739425659 0.82538646459579468
vn 0.0056063826195895672 0.55632007122039795 0.83094918727874756
vn -0.0067630899138748646 0.55032628774642944 0.83492231369018555
vn 0.32654210925102234 0.041121136397123337 0.94428771734237671
vn 0.00063899153610691428 0.00052439689170569181 0.99999964237213135
vn 0.28409203886985779 -0.29767438769340515 0.91141736507415771
vn 0.1378953605890274 -0.47134095430374146 0.87110424041748047
vn -0.069661393761634827 -0.34926816821098328 0.93442976474761963
vn -0.47161811590194702 -0.017766183242201805 0.88162392377853394
vn -0.47272461652755737 -0.2164003998041153 0.85422617197036743
vn -0.5131726861000061 0.033627092838287354 0.85762637853622437
vn 0.44389954209327698 0.18312597274780273 0.87716478109359741
vn 0.4411647617816925 0.060080915689468384 0.89541274309158325
vn -0.76086205244064331 0.080834396183490753 0.64385926723480225
vn 0.38979226350784302 0.016918046399950981 0.92074739933013916
vn 0.34111779928207397 -0.52412575483322144 0.78034025430679321
vn -0.033148545771837234 0.018563572317361832 0.99927800893783569
vn 0.18357107043266296 0.029218535870313644 0.98257207870483398
vn 0.19802168011665344 0.030419064685702324 -0.97972553968429565
vn 0.94732791185379028 0.25177961587905884 0.19793158769607544
vn 0.97759324312210083 -0.19842387735843658 -0.070280857384204865
vn 0.99664855003356934 0.031170710921287537 -0.075631208717823029
vn -0.19954046607017517 -0.45099645853042603 0.86993438005447388
vn -0.010329185053706169 -0.99985092878341675 0.013833602890372276
vn -0.076301403343677521 -0.99658668041229248 -0.031512334942817688
vn 0.082274965941905975 -0.99595457315444946 -0.036129351705312729
vn -0.22999024391174316 0.020731823518872261 0.97297209501266479
vn 0.99998998641967773 -0.0037932733539491892 -0.0023804944939911366
vn 0.977794349193573 0.018676662817597389 0.20873275399208069
vn 0.87755489349365234 0.0069102956913411617 -0.47942635416984558
vn 0.8755306601524353 9.7094751254189759E-05 -0.483162522315979
vn 0.87857609987258911 0.0048052151687443256 -0.47757816314697266
vn -0.51384603977203369 -0.05003264918923378 -0.85642218589782715
vn -0.51356953382492065 0.069995731115341187 -0.85518825054168701
vn -0.5088161826133728 0.1465570479631424 -0.84830838441848755
vn 0.031111123040318489 -0.60872060060501099 -0.79277443885803223
vn 0.052497100085020065 -0.97514975070953369 0.21523715555667877
vn -0.0041160848923027515 -0.73410272598266602 0.67902594804763794
vn -0.60304474830627441 -0.79587477445602417 -0.054040368646383286
vn -0.30879718065261841 -0.46367645263671875 -0.83045077323913574
vn 0.036288388073444366 0.74834966659545898 0.66231101751327515
vn -0.031335920095443726 0.71293514966964722 0.70052945613861084
vn -0.81254810094833374 -0.57955151796340942 -0.062334734946489334
vn -0.78096771240234375 -0.62388485670089722 0.029276244342327118
vn 0.88800126314163208 -0.32817175984382629 0.32211336493492126
vn 0.65375888347625732 0.053152240812778473 0.75483381748199463
vn 0.41879072785377502 0.00047530411393381655 0.90808266401290894
vn 0.42441445589065552 0.0014257649891078472 0.90546691417694092
vn 0.40474885702133179 -0.032320365309715271 0.91385650634765625
vn 0.052828896790742874 -0.90097987651824951 -0.43063253164291382
vn 0.083194978535175323 -0.92808842658996582 0.36294686794281006
vn -0.044933196157217026 -0.92404848337173462 -0.37962529063224792
vn -0.22454510629177094 0.041242029517889023 0.97359055280685425
vn -0.20721746981143951 0.045407336205244064 -0.97724056243896484
vn -0.00022592004097532481 -0.00026719601009972394 0.99999994039535522
vn -3.588873369153589E-05 -9.2556489107664675E-05 1
vn 0.00023592537036165595 0.00030514641548506916 0.99999994039535522
vn 0.010984765365719795 0.99975109100341797 -0.019418075680732727
vn -0.026596914976835251 -0.87344855070114136 0.48618951439857483
vn 0.04472147673368454 0.21281127631664276 0.97606933116912842
vn -0.014405953697860241 0.54355061054229736 0.839252769947052
vn 0.0020843546371906996 -0.98520702123641968 -0.1713557243347168
vn 0.013301187194883823 -0.98486745357513428 -0.17279820144176483
vn 0.0068639367818832397 -0.98453497886657715 -0.17505371570587158
vn -0.0042106062173843384 -0.99973434209823608 -0.022662118077278137
vn 0.94005036354064941 -0.019826168194413185 0.34045892953872681
vn 0.94014382362365723 -0.0021798915695399046 0.3407709002494812
vn -0.085888691246509552 0.0046694837510585785 0.99629378318786621
vn -0.084347561001777649 -0.001678063184954226 0.99643498659133911
vn -0.089210562407970428 0.0030647323001176119 0.99600809812545776
vn -0.88201606273651123 0.4709094762802124 -0.017087627202272415
vn -0.85931015014648438 0.51113617420196533 0.018052838742733002
vn -0.42279452085494995 -0.078380867838859558 0.90282958745956421
vn -0.99709141254425049 0.0027141370810568333 -0.076166547834873199
vn -0.34499070048332214 -0.92300468683242798 0.17042241990566254
vn -0.00013262394350022078 -5.5731234169797972E-05 1
usemtl vc_191919__Default
f 1//1 2//2 3//3
f 5//5 288//288 4//4 3//3
f 6//6 7//7 8//8
f 9//9 6//6 8//8
f 10//10 11//11 5//5
f 12//12 13//13 2//2
f 12//12 14//14 1//1
f 15//15 16//16 17//17
f 18//18 16//16 15//15
f 19//19 20//20 21//21
f 22//22 23//23 24//24
f 25//25 26//26 27//27
f 28//28 29//29 30//30
f 31//31 32//32 33//33
f 28//28 34//34 29//29
f 35//35 36//36 37//37
f 38//38 35//35 37//37
f 38//38 37//37 39//39
f 40//40 41//41 42//42
f 43//43 50//50 44//44 45//45
f 46//46 47//47 48//48
f 46//46 48//48 49//49
f 51//51 52//52 53//53
f 54//54 55//55 56//56
f 50//50 57//57 44//44
f 58//58 59//59 60//60
f 61//61 62//62 63//63
f 64//64 65//65 66//66
f 67//67 68//68 69//69
f 70//70 71//71 72//72
f 73//73 74//74 75//75
f 76//76 77//77 78//78
f 79//79 80//80 81//81
f 82//82 83//83 84//84
f 85//85 62//62 61//61
f 86//86 87//87 88//88
f 89//89 90//90 91//91
f 92//92 93//93 94//94
f 95//95 96//96 97//97
f 98//98 99//99 100//100
f 101//101 102//102 103//103
f 104//104 105//105 106//106
f 15//15 296//296 107//107 18//18
f 108//108 109//109 16//16
f 109//109 108//108 26//26
f 110//110 111//111 112//112
f 113//113 114//114 115//115
f 118//118 23//23 116//116 117//117
f 119//119 17//17 109//109
f 120//120 121//121 122//122
f 17//17 123//123 15//15
f 124//124 125//125 126//126
f 127//127 128//128 129//129
f 130//130 158//158 127//127 129//129
f 132//132 11//11 10//10 131//131
f 133//133 134//134 135//135
f 136//136 137//137 138//138
f 139//139 140//140 141//141
f 142//142 143//143 144//144
f 145//145 146//146 147//147
f 148//148 145//145 147//147
f 150//150 158//158 130//130 149//149
f 151//151 152//152 153//153
f 154//154 151//151 153//153
f 155//155 156//156 157//157
f 157//157 134//134 155//155
f 158//158 159//159 160//160
f 161//161 162//162 163//163
f 164//164 165//165 166//166
f 167//167 168//168 169//169
f 170//170 171//171 172//172
f 173//173 174//174 175//175
f 176//176 177//177 178//178
f 179//179 180//180 181//181
f 182//182 183//183 184//184
f 185//185 186//186 187//187
f 182//182 184//184 188//188
f 189//189 190//190 191//191
f 182//182 188//188 192//192
f 193//193 194//194 195//195
f 196//196 197//197 198//198
f 199//199 200//200 201//201
f 143//143 202//202 203//203
f 204//204 161//161 205//205
f 206//206 207//207 208//208
f 210//210 13//13 12//12 209//209
f 211//211 212//212 213//213
f 214//214 215//215 216//216
f 217//217 218//218 219//219
f 220//220 221//221 222//222
f 34//34 223//223 224//224
f 218//218 225//225 226//226
f 227//227 228//228 229//229
f 230//230 231//231 232//232
f 233//233 234//234 203//203
f 235//235 236//236 237//237
f 238//238 239//239 234//234
f 240//240 241//241 242//242
f 243//243 244//244 245//245
f 246//246 247//247 248//248
f 249//249 250//250 251//251
f 252//252 253//253 254//254
f 255//255 256//256 210//210
f 255//255 210//210 209//209
f 132//132 131//131 257//257
f 258//258 259//259 260//260
f 182//182 192//192 183//183
f 261//261 262//262 263//263
f 264//264 265//265 266//266
f 269//269 345//345 267//267 268//268
f 270//270 271//271 272//272
f 273//273 132//132 257//257
f 263//263 262//262 274//274
f 275//275 276//276 277//277
f 278//278 279//279 280//280
f 281//281 282//282 275//275
f 265//265 278//278 283//283
f 284//284 285//285 196//196
f 286//286 273//273 287//287
f 11//11 288//288 5//5
f 289//289 290//290 291//291
f 276//276 292//292 277//277
f 293//293 294//294 295//295
f 218//218 297//297 298//298
f 139//139 141//141 133//133
f 299//299 300//300 301//301
f 302//302 303//303 304//304
f 305//305 306//306 307//307
f 308//308 309//309 264//264
f 148//148 147//147 310//310
f 311//311 310//310 147//147
f 312//312 179//179 313//313
f 314//314 195//195 315//315
f 285//285 282//282 281//281
f 316//316 317//317 318//318
f 139//139 133//133 135//135
f 319//319 320//320 321//321
f 286//286 322//322 255//255
f 41//41 8//8 7//7
f 4//4 323//323 1//1
f 109//109 17//17 16//16
f 324//324 325//325 326//326
f 113//113 115//115 327//327
f 321//321 320//320 328//328
f 1//1 3//3 4//4
f 227//227 229//229 329//329
f 270//270 272//272 330//330
f 134//134 129//129 128//128
f 185//185 187//187 216//216
f 331//331 332//332 333//333
f 286//286 287//287 322//322
f 105//105 334//334 106//106
f 298//298 335//335 336//336
f 337//337 338//338 339//339
f 34//34 224//224 340//340
f 134//134 133//133 155//155
f 341//341 340//340 224//224
f 57//57 342//342 44//44
f 74//74 343//343 75//75
f 158//158 160//160 127//127
f 212//212 344//344 213//213
