# Dual color encoding: per-vertex RGB for Rerun, face MTL colors for legacy RViz.
mtllib sim_gene01_r_hand_ring_3.mtl
# Rhino

g sim_gene01_r_hand_ring_3
v 8.1722925978024268 31.262231673933474 -9.0163753767395605 0.0980392157 0.0980392157 0.0980392157
v -0.40440716286252787 32.095931800626033 -12.194226723636202 0.0980392157 0.0980392157 0.0980392157
v -2.0260793132236472 32.305665125408652 -10.433150357732135 0.0980392157 0.0980392157 0.0980392157
v 8.1722925978024268 31.262231673933474 -9.0163753767395605 0.0980392157 0.0980392157 0.0980392157
v 11.076060735633835 32.181468682802539 -9.3954553713382438 0.0980392157 0.0980392157 0.0980392157
v -0.40440716286252787 32.095931800626033 -12.194226723636202 0.0980392157 0.0980392157 0.0980392157
v -0.40440716286252787 32.095931800626033 -12.194226723636202 0.0980392157 0.0980392157 0.0980392157
v 11.076060735633835 32.181468682802539 -9.3954553713382438 0.0980392157 0.0980392157 0.0980392157
v 12.045805331876934 12.224596899906281 -10.25622005137383 0.0980392157 0.0980392157 0.0980392157
v -11.576183228660298 32.21450494984429 -9.3777388704453362 0.0980392157 0.0980392157 0.0980392157
v -12.721322393069737 4.334443203980868 -10.348926959514859 0.0980392157 0.0980392157 0.0980392157
v -13.587410970246227 32.054811957571772 -6.6590734014533099 0.0980392157 0.0980392157 0.0980392157
v -2.0260793132236472 32.305665125408652 -10.433150357732135 0.0980392157 0.0980392157 0.0980392157
v -11.576183228660298 32.21450494984429 -9.3777388704453362 0.0980392157 0.0980392157 0.0980392157
v 11.267548343123183 -4.5429521949221474 -10.71459352236146 0.0980392157 0.0980392157 0.0980392157
v -0.011668753046298441 -5.6373244116961407 -12.794495914690351 0.0980392157 0.0980392157 0.0980392157
v -11.35699881045548 -5.5627715723063265 -10.080550439715603 0.0980392157 0.0980392157 0.0980392157
v -0.13233503651144929 -5.6367762913747335 -11.207137293192178 0.0980392157 0.0980392157 0.0980392157
v 7.7971789034341423 -2.0444547307053385 -9.8315483823883927 0.0980392157 0.0980392157 0.0980392157
v -0.81708875627597877 12.972916928287262 -10.835875139012169 0.0980392157 0.0980392157 0.0980392157
v 11.093026086989118 4.1670145125092564 -9.1815134404537577 0.0980392157 0.0980392157 0.0980392157
v 11.267548343123183 -4.5429521949221474 -10.71459352236146 0.0980392157 0.0980392157 0.0980392157
v 12.045805331876934 12.224596899906281 -10.25622005137383 0.0980392157 0.0980392157 0.0980392157
v -7.7506182451280949 15.153205034073565 -9.515966926326584 0.0980392157 0.0980392157 0.0980392157
v -11.35699881045548 -5.5627715723063265 -10.080550439715603 0.0980392157 0.0980392157 0.0980392157
v -0.011668753046298441 -5.6373244116961407 -12.794495914690351 0.0980392157 0.0980392157 0.0980392157
v 11.267548343123183 -4.5429521949221474 -10.71459352236146 0.0980392157 0.0980392157 0.0980392157
v -0.13233503651144929 -5.6367762913747335 -11.207137293192178 0.0980392157 0.0980392157 0.0980392157
v 8.1722925978024268 31.262231673933474 -9.0163753767395605 0.0980392157 0.0980392157 0.0980392157
v -2.0260793132236472 32.305665125408652 -10.433150357732135 0.0980392157 0.0980392157 0.0980392157
v 2.6228371103514339 24.102767942193566 -10.241017985556436 0.0980392157 0.0980392157 0.0980392157
v 13.204669838508405 31.877536136476611 -6.3424668319560551 0.0980392157 0.0980392157 0.0980392157
v 8.1722925978024268 31.262231673933474 -9.0163753767395605 0.0980392157 0.0980392157 0.0980392157
v 7.7799082539524562 29.838802612590761 -4.790482479935406 0.0980392157 0.0980392157 0.0980392157
v 5.9625381291201123 34.55593302226255 -5.2515793149037036 0.0980392157 0.0980392157 0.0980392157
v 8.1722925978024268 31.262231673933474 -9.0163753767395605 0.0980392157 0.0980392157 0.0980392157
v 5.9625381291201123 34.55593302226255 -5.2515793149037036 0.0980392157 0.0980392157 0.0980392157
v -13.587410970246227 32.054811957571772 -6.6590734014533099 0.0980392157 0.0980392157 0.0980392157
v -13.587410970246227 32.054811957571772 -6.6590734014533099 0.0980392157 0.0980392157 0.0980392157
v -9.3267728285354536 21.712905501223929 -9.2602415588077402 0.0980392157 0.0980392157 0.0980392157
v 2.6228371103514339 24.102767942193566 -10.241017985556436 0.0980392157 0.0980392157 0.0980392157
v 12.269254571816376 28.083697532926674 -5.9170547359679224 0.0980392157 0.0980392157 0.0980392157
v 8.1722925978024268 31.262231673933474 -9.0163753767395605 0.0980392157 0.0980392157 0.0980392157
v 6.3590838431018391 15.116127546766107 -9.9684149630734744 0.0980392157 0.0980392157 0.0980392157
v 7.7799082539524562 29.838802612590761 -4.790482479935406 0.0980392157 0.0980392157 0.0980392157
v -12.295558461292664 21.895520882690732 -5.7702080734158923 0.0980392157 0.0980392157 0.0980392157
v -9.3267728285354536 21.712905501223929 -9.2602415588077402 0.0980392157 0.0980392157 0.0980392157
v -13.587410970246227 32.054811957571772 -6.6590734014533099 0.0980392157 0.0980392157 0.0980392157
v 8.4033852924785801 21.624068389230104 -5.5129057200387761 0.0980392157 0.0980392157 0.0980392157
v 12.269254571816376 28.083697532926674 -5.9170547359679224 0.0980392157 0.0980392157 0.0980392157
v 6.3590838431018391 15.116127546766107 -9.9684149630734744 0.0980392157 0.0980392157 0.0980392157
v 0.73529937380500066 22.465691137952781 -5.2278212092210161 0.0980392157 0.0980392157 0.0980392157
v 2.6228371103514339 24.102767942193566 -10.241017985556436 0.0980392157 0.0980392157 0.0980392157
v -9.3267728285354536 21.712905501223929 -9.2602415588077402 0.0980392157 0.0980392157 0.0980392157
v 0.73529937380500066 22.465691137952781 -5.2278212092210161 0.0980392157 0.0980392157 0.0980392157
v 0.061411941973745998 16.77896934642698 -7.8200753278062676 0.0980392157 0.0980392157 0.0980392157
v 2.6228371103514339 24.102767942193566 -10.241017985556436 0.0980392157 0.0980392157 0.0980392157
v 7.7866188577495192 12.802432117779423 -5.4462074169478001 0.0980392157 0.0980392157 0.0980392157
v 8.4033852924785801 21.624068389230104 -5.5129057200387761 0.0980392157 0.0980392157 0.0980392157
v 6.3590838431018391 15.116127546766107 -9.9684149630734744 0.0980392157 0.0980392157 0.0980392157
v 0.73529937380500066 22.465691137952781 -5.2278212092210161 0.0980392157 0.0980392157 0.0980392157
v -9.3267728285354536 21.712905501223929 -9.2602415588077402 0.0980392157 0.0980392157 0.0980392157
v -12.295558461292664 21.895520882690732 -5.7702080734158923 0.0980392157 0.0980392157 0.0980392157
v 0.73529937380500066 22.465691137952781 -5.2278212092210161 0.0980392157 0.0980392157 0.0980392157
v 1.1893195864935417 15.839928915477509 -5.3393227222868642 0.0980392157 0.0980392157 0.0980392157
v 0.061411941973745998 16.77896934642698 -7.8200753278062676 0.0980392157 0.0980392157 0.0980392157
v 6.3590838431018391 15.116127546766107 -9.9684149630734744 0.0980392157 0.0980392157 0.0980392157
v 2.6228371103514339 24.102767942193566 -10.241017985556436 0.0980392157 0.0980392157 0.0980392157
v 0.061411941973745998 16.77896934642698 -7.8200753278062676 0.0980392157 0.0980392157 0.0980392157
v 6.3590838431018391 15.116127546766107 -9.9684149630734744 0.0980392157 0.0980392157 0.0980392157
v 0.061411941973745998 16.77896934642698 -7.8200753278062676 0.0980392157 0.0980392157 0.0980392157
v -0.81708875627597877 12.972916928287262 -10.835875139012169 0.0980392157 0.0980392157 0.0980392157
v 0.061411941973745998 16.77896934642698 -7.8200753278062676 0.0980392157 0.0980392157 0.0980392157
v -7.7506182451280949 15.153205034073565 -9.515966926326584 0.0980392157 0.0980392157 0.0980392157
v -0.81708875627597877 12.972916928287262 -10.835875139012169 0.0980392157 0.0980392157 0.0980392157
v 1.1893195864935417 15.839928915477509 -5.3393227222868642 0.0980392157 0.0980392157 0.0980392157
v -12.382832619891042 14.064776335627112 -5.2694451765366637 0.0980392157 0.0980392157 0.0980392157
v 0.061411941973745998 16.77896934642698 -7.8200753278062676 0.0980392157 0.0980392157 0.0980392157
v 12.94501213260236 13.353196575540883 -3.2873941106376683 0.0980392157 0.0980392157 0.0980392157
v 7.7866188577495192 12.802432117779423 -5.4462074169478001 0.0980392157 0.0980392157 0.0980392157
v 12.045805331876934 12.224596899906281 -10.25622005137383 0.0980392157 0.0980392157 0.0980392157
v -13.570430414489374 14.232976261885028 -8.2333255235128586 0.0980392157 0.0980392157 0.0980392157
v -12.721322393069737 4.334443203980868 -10.348926959514859 0.0980392157 0.0980392157 0.0980392157
v -10.731652593068901 3.5401967334712041 -9.3636986475364044 0.0980392157 0.0980392157 0.0980392157
v 6.3590838431018391 15.116127546766107 -9.9684149630734744 0.0980392157 0.0980392157 0.0980392157
v 7.7971789034341423 -2.0444547307053385 -9.8315483823883927 0.0980392157 0.0980392157 0.0980392157
v 11.093026086989118 4.1670145125092564 -9.1815134404537577 0.0980392157 0.0980392157 0.0980392157
v 8.1447403429710032 4.2208070634079586 -5.4117332050114983 0.0980392157 0.0980392157 0.0980392157
v 11.609083628409909 4.254682066358642 -4.4575158656442406 0.0980392157 0.0980392157 0.0980392157
v 11.093026086989118 4.1670145125092564 -9.1815134404537577 0.0980392157 0.0980392157 0.0980392157
v 11.093026086989118 4.1670145125092564 -9.1815134404537577 0.0980392157 0.0980392157 0.0980392157
v 11.609083628409909 4.254682066358642 -4.4575158656442406 0.0980392157 0.0980392157 0.0980392157
v 11.588597383586265 -3.7763958163070805 -4.2687776065429057 0.0980392157 0.0980392157 0.0980392157
v -11.580134144052797 7.971416504324158 -4.9289705162520407 0.0980392157 0.0980392157 0.0980392157
v -10.731652593068901 3.5401967334712041 -9.3636986475364044 0.0980392157 0.0980392157 0.0980392157
v -12.721322393069737 4.334443203980868 -10.348926959514859 0.0980392157 0.0980392157 0.0980392157
v -13.779334072815097 -2.4300383403646393 -5.1884482347832348 0.0980392157 0.0980392157 0.0980392157
v -12.721322393069737 4.334443203980868 -10.348926959514859 0.0980392157 0.0980392157 0.0980392157
v -11.35699881045548 -5.5627715723063265 -10.080550439715603 0.0980392157 0.0980392157 0.0980392157
v -11.580134144052797 7.971416504324158 -4.9289705162520407 0.0980392157 0.0980392157 0.0980392157
v -11.35699881045548 -5.5627715723063265 -10.080550439715603 0.0980392157 0.0980392157 0.0980392157
v -10.731652593068901 3.5401967334712041 -9.3636986475364044 0.0980392157 0.0980392157 0.0980392157
v -11.580134144052797 7.971416504324158 -4.9289705162520407 0.0980392157 0.0980392157 0.0980392157
v 11.588597383586265 -3.7763958163070805 -4.2687776065429057 0.0980392157 0.0980392157 0.0980392157
v 11.267548343123183 -4.5429521949221474 -10.71459352236146 0.0980392157 0.0980392157 0.0980392157
v 11.588597383586265 -3.7763958163070805 -4.2687776065429057 0.0980392157 0.0980392157 0.0980392157
v 7.7971789034341423 -2.0444547307053385 -9.8315483823883927 0.0980392157 0.0980392157 0.0980392157
v 11.267548343123183 -4.5429521949221474 -10.71459352236146 0.0980392157 0.0980392157 0.0980392157
v 7.7799082539524562 29.838802612590761 -4.790482479935406 0.0980392157 0.0980392157 0.0980392157
v 13.204669838508405 31.877536136476611 -6.3424668319560551 0.0980392157 0.0980392157 0.0980392157
v 5.9625381291201123 34.55593302226255 -5.2515793149037036 0.0980392157 0.0980392157 0.0980392157
v 13.318163617638401 31.075624404181866 -0.87184127427506952 0.0980392157 0.0980392157 0.0980392157
v 13.204669838508405 31.877536136476611 -6.3424668319560551 0.0980392157 0.0980392157 0.0980392157
v 7.7799082539524562 29.838802612590761 -4.790482479935406 0.0980392157 0.0980392157 0.0980392157
v 12.94501213260236 13.353196575540883 -3.2873941106376683 0.0980392157 0.0980392157 0.0980392157
v 13.204669838508405 31.877536136476611 -6.3424668319560551 0.0980392157 0.0980392157 0.0980392157
v 13.318163617638401 31.075624404181866 -0.87184127427506952 0.0980392157 0.0980392157 0.0980392157
v -13.759298091697003 10.857089073092951 4.5918649653986092 0.0980392157 0.0980392157 0.0980392157
v -13.830863045895278 31.649179289772832 -0.085146299875302034 0.0980392157 0.0980392157 0.0980392157
v -13.570430414489374 14.232976261885028 -8.2333255235128586 0.0980392157 0.0980392157 0.0980392157
v -13.830863045895278 31.649179289772832 -0.085146299875302034 0.0980392157 0.0980392157 0.0980392157
v -7.754361318776529 38.610514748691578 -5.2577714839337633 0.0980392157 0.0980392157 0.0980392157
v -13.587410970246227 32.054811957571772 -6.6590734014533099 0.0980392157 0.0980392157 0.0980392157
v -7.754361318776529 38.610514748691578 -5.2577714839337633 0.0980392157 0.0980392157 0.0980392157
v 5.9625381291201123 34.55593302226255 -5.2515793149037036 0.0980392157 0.0980392157 0.0980392157
v 0.73529937380500066 22.465691137952781 -5.2278212092210161 0.0980392157 0.0980392157 0.0980392157
v 8.4033852924785801 21.624068389230104 -5.5129057200387761 0.0980392157 0.0980392157 0.0980392157
v 7.7799082539524562 29.838802612590761 -4.790482479935406 0.0980392157 0.0980392157 0.0980392157
v 12.269254571816376 28.083697532926674 -5.9170547359679224 0.0980392157 0.0980392157 0.0980392157
v 1.1893195864935417 15.839928915477509 -5.3393227222868642 0.0980392157 0.0980392157 0.0980392157
v 5.755748856714372 8.4444321538538016 -5.2095517575004759 0.0980392157 0.0980392157 0.0980392157
v 7.7866188577495192 12.802432117779423 -5.4462074169478001 0.0980392157 0.0980392157 0.0980392157
v 11.609083628409909 4.254682066358642 -4.4575158656442406 0.0980392157 0.0980392157 0.0980392157
v 12.94501213260236 13.353196575540883 -3.2873941106376683 0.0980392157 0.0980392157 0.0980392157
v -11.580134144052797 7.971416504324158 -4.9289705162520407 0.0980392157 0.0980392157 0.0980392157
v -12.382832619891042 14.064776335627112 -5.2694451765366637 0.0980392157 0.0980392157 0.0980392157
v -11.580134144052797 7.971416504324158 -4.9289705162520407 0.0980392157 0.0980392157 0.0980392157
v -14.183835711785528 8.2729109001914516 -3.8762445374115786 0.0980392157 0.0980392157 0.0980392157
v -12.382832619891042 14.064776335627112 -5.2694451765366637 0.0980392157 0.0980392157 0.0980392157
v 8.1447403429710032 4.2208070634079586 -5.4117332050114983 0.0980392157 0.0980392157 0.0980392157
v 7.9285047757023994 -5.9218094612553518 1.6617845034743894 0.0980392157 0.0980392157 0.0980392157
v 8.1447403429710032 4.2208070634079586 -5.4117332050114983 0.0980392157 0.0980392157 0.0980392157
v 7.7971789034341423 -2.0444547307053385 -9.8315483823883927 0.0980392157 0.0980392157 0.0980392157
v -13.779334072815097 -2.4300383403646393 -5.1884482347832348 0.0980392157 0.0980392157 0.0980392157
v 14.717274881691587 -0.22925723429571263 0.45658504273316058 0.0980392157 0.0980392157 0.0980392157
v 11.588597383586265 -3.7763958163070805 -4.2687776065429057 0.0980392157 0.0980392157 0.0980392157
v 11.609083628409909 4.254682066358642 -4.4575158656442406 0.0980392157 0.0980392157 0.0980392157
v -7.8697190566115696 42.348100094789167 -0.36546037874624659 0.0980392157 0.0980392157 0.0980392157
v -7.754361318776529 38.610514748691578 -5.2577714839337633 0.0980392157 0.0980392157 0.0980392157
v -8.4530906287466916 36.73484460127753 3.4016606535906604 0.0980392157 0.0980392157 0.0980392157
v 4.2253343236862362 41.490981929956604 -4.9489278005230375 0.0980392157 0.0980392157 0.0980392157
v 2.7021373712081345 10.098133366599138 0.64888690181027597 0.0980392157 0.0980392157 0.0980392157
v -11.580134144052797 7.971416504324158 -4.9289705162520407 0.0980392157 0.0980392157 0.0980392157
v 5.755748856714372 8.4444321538538016 -5.2095517575004759 0.0980392157 0.0980392157 0.0980392157
v 7.7799082539524562 29.838802612590761 -4.790482479935406 0.0980392157 0.0980392157 0.0980392157
v 5.9625381291201123 34.55593302226255 -5.2515793149037036 0.0980392157 0.0980392157 0.0980392157
v 13.318163617638401 31.075624404181866 -0.87184127427506952 0.0980392157 0.0980392157 0.0980392157
v 5.9625381291201123 34.55593302226255 -5.2515793149037036 0.0980392157 0.0980392157 0.0980392157
v 4.2253343236862362 41.490981929956604 -4.9489278005230375 0.0980392157 0.0980392157 0.0980392157
v 5.1058548843537652 37.892663260564717 2.4352261982044414 0.0980392157 0.0980392157 0.0980392157
v -13.830863045895278 31.649179289772832 -0.085146299875302034 0.0980392157 0.0980392157 0.0980392157
v -8.4530906287466916 36.73484460127753 3.4016606535906604 0.0980392157 0.0980392157 0.0980392157
v -7.754361318776529 38.610514748691578 -5.2577714839337633 0.0980392157 0.0980392157 0.0980392157
v 5.1058548843537652 37.892663260564717 2.4352261982044414 0.0980392157 0.0980392157 0.0980392157
v 13.318163617638401 31.075624404181866 -0.87184127427506952 0.0980392157 0.0980392157 0.0980392157
v 5.9625381291201123 34.55593302226255 -5.2515793149037036 0.0980392157 0.0980392157 0.0980392157
v 7.870617811587894 32.367057472888753 0.61149536344510302 0.0980392157 0.0980392157 0.0980392157
v 7.7799082539524562 29.838802612590761 -4.790482479935406 0.0980392157 0.0980392157 0.0980392157
v 13.318163617638401 31.075624404181866 -0.87184127427506952 0.0980392157 0.0980392157 0.0980392157
v 5.3848531190097484 28.52564371196824 1.3565811637547369 0.0980392157 0.0980392157 0.0980392157
v 7.7799082539524562 29.838802612590761 -4.790482479935406 0.0980392157 0.0980392157 0.0980392157
v 7.870617811587894 32.367057472888753 0.61149536344510302 0.0980392157 0.0980392157 0.0980392157
v 10.072299957275391 21.379903793334961 -3.8036174774169922 0.0980392157 0.0980392157 0.0980392157
v 13.318163617638401 31.075624404181866 -0.87184127427506952 0.0980392157 0.0980392157 0.0980392157
v 7.7799082539524562 29.838802612590761 -4.790482479935406 0.0980392157 0.0980392157 0.0980392157
v 9.7381706358726152 20.439068404886445 1.3314464878664487 0.0980392157 0.0980392157 0.0980392157
v 13.318163617638401 31.075624404181866 -0.87184127427506952 0.0980392157 0.0980392157 0.0980392157
v 10.072299957275391 21.379903793334961 -3.8036174774169922 0.0980392157 0.0980392157 0.0980392157
v 12.332617479756117 28.006851159602526 1.7401068233974204 0.0980392157 0.0980392157 0.0980392157
v 13.318163617638401 31.075624404181866 -0.87184127427506952 0.0980392157 0.0980392157 0.0980392157
v 6.260314686524179 23.494294201349344 -2.5106897898114124 0.0980392157 0.0980392157 0.0980392157
v 6.260314686524179 23.494294201349344 -2.5106897898114124 0.0980392157 0.0980392157 0.0980392157
v 7.7799082539524562 29.838802612590761 -4.790482479935406 0.0980392157 0.0980392157 0.0980392157
v 5.3848531190097484 28.52564371196824 1.3565811637547369 0.0980392157 0.0980392157 0.0980392157
v 9.7381706358726152 20.439068404886445 1.3314464878664487 0.0980392157 0.0980392157 0.0980392157
v 10.072299957275391 21.379903793334961 -3.8036174774169922 0.0980392157 0.0980392157 0.0980392157
v 6.260314686524179 23.494294201349344 -2.5106897898114124 0.0980392157 0.0980392157 0.0980392157
v -11.580134144052797 7.971416504324158 -4.9289705162520407 0.0980392157 0.0980392157 0.0980392157
v 2.7021373712081345 10.098133366599138 0.64888690181027597 0.0980392157 0.0980392157 0.0980392157
v -11.048469722273921 8.8514987776033394 4.4826091834325226 0.0980392157 0.0980392157 0.0980392157
v 11.931550983546652 3.1591910695557006 4.4942203724086811 0.0980392157 0.0980392157 0.0980392157
v 7.9285047757023994 -5.9218094612553518 1.6617845034743894 0.0980392157 0.0980392157 0.0980392157
v 5.755748856714372 8.4444321538538016 -5.2095517575004759 0.0980392157 0.0980392157 0.0980392157
v 8.1447403429710032 4.2208070634079586 -5.4117332050114983 0.0980392157 0.0980392157 0.0980392157
v 7.9285047757023994 -5.9218094612553518 1.6617845034743894 0.0980392157 0.0980392157 0.0980392157
v 8.9005223715312365 -0.79626898855409634 5.6237290905094044 0.0980392157 0.0980392157 0.0980392157
v 5.755748856714372 8.4444321538538016 -5.2095517575004759 0.0980392157 0.0980392157 0.0980392157
v -11.048469722273921 8.8514987776033394 4.4826091834325226 0.0980392157 0.0980392157 0.0980392157
v -13.759298091697003 10.857089073092951 4.5918649653986092 0.0980392157 0.0980392157 0.0980392157
v -14.320437167955065 -4.2734766296647848 4.4324728851009008 0.0980392157 0.0980392157 0.0980392157
v -13.759298091697003 10.857089073092951 4.5918649653986092 0.0980392157 0.0980392157 0.0980392157
v -14.183835711785528 8.2729109001914516 -3.8762445374115786 0.0980392157 0.0980392157 0.0980392157
v -14.320437167955065 -4.2734766296647848 4.4324728851009008 0.0980392157 0.0980392157 0.0980392157
v -14.320437167955065 -4.2734766296647848 4.4324728851009008 0.0980392157 0.0980392157 0.0980392157
v -13.779334072815097 -2.4300383403646393 -5.1884482347832348 0.0980392157 0.0980392157 0.0980392157
v -13.779334072815097 -2.4300383403646393 -5.1884482347832348 0.0980392157 0.0980392157 0.0980392157
v -11.35699881045548 -5.5627715723063265 -10.080550439715603 0.0980392157 0.0980392157 0.0980392157
v 4.5061603181339747 40.965284602150177 5.1097965520247994 0.0980392157 0.0980392157 0.0980392157
v 4.2253343236862362 41.490981929956604 -4.9489278005230375 0.0980392157 0.0980392157 0.0980392157
v -7.8697190566115696 42.348100094789167 -0.36546037874624659 0.0980392157 0.0980392157 0.0980392157
v -12.382832619891042 14.064776335627112 -5.2694451765366637 0.0980392157 0.0980392157 0.0980392157
v 11.609083628409909 4.254682066358642 -4.4575158656442406 0.0980392157 0.0980392157 0.0980392157
v 11.931550983546652 3.1591910695557006 4.4942203724086811 0.0980392157 0.0980392157 0.0980392157
v 14.717274881691587 -0.22925723429571263 0.45658504273316058 0.0980392157 0.0980392157 0.0980392157
v 11.632017488578178 -4.1723266254716753 3.5421923775898434 0.0980392157 0.0980392157 0.0980392157
v 14.717274881691587 -0.22925723429571263 0.45658504273316058 0.0980392157 0.0980392157 0.0980392157
v 11.931550983546652 3.1591910695557006 4.4942203724086811 0.0980392157 0.0980392157 0.0980392157
v 7.9285047757023994 -5.9218094612553518 1.6617845034743894 0.0980392157 0.0980392157 0.0980392157
v 11.588597383586265 -3.7763958163070805 -4.2687776065429057 0.0980392157 0.0980392157 0.0980392157
v 11.632017488578178 -4.1723266254716753 3.5421923775898434 0.0980392157 0.0980392157 0.0980392157
v 8.9005223715312365 -0.79626898855409634 5.6237290905094044 0.0980392157 0.0980392157 0.0980392157
v 7.9285047757023994 -5.9218094612553518 1.6617845034743894 0.0980392157 0.0980392157 0.0980392157
v -7.9884554371717806 40.355474688625321 5.2267106210273626 0.0980392157 0.0980392157 0.0980392157
v -7.9884554371717806 40.355474688625321 5.2267106210273626 0.0980392157 0.0980392157 0.0980392157
v 5.1058548843537652 37.892663260564717 2.4352261982044414 0.0980392157 0.0980392157 0.0980392157
v 4.2253343236862362 41.490981929956604 -4.9489278005230375 0.0980392157 0.0980392157 0.0980392157
v 4.5061603181339747 40.965284602150177 5.1097965520247994 0.0980392157 0.0980392157 0.0980392157
v 6.9623200295601713 28.384302310950638 5.044971321293561 0.0980392157 0.0980392157 0.0980392157
v 5.3848531190097484 28.52564371196824 1.3565811637547369 0.0980392157 0.0980392157 0.0980392157
v 7.870617811587894 32.367057472888753 0.61149536344510302 0.0980392157 0.0980392157 0.0980392157
v 6.9623200295601713 28.384302310950638 5.044971321293561 0.0980392157 0.0980392157 0.0980392157
v 7.870617811587894 32.367057472888753 0.61149536344510302 0.0980392157 0.0980392157 0.0980392157
v 13.318163617638401 31.075624404181866 -0.87184127427506952 0.0980392157 0.0980392157 0.0980392157
v -13.561658185154524 25.544950702129505 5.3183222886140245 0.0980392157 0.0980392157 0.0980392157
v -9.056115837544759 24.994727443327559 5.2246163042989213 0.0980392157 0.0980392157 0.0980392157
v -13.830863045895278 31.649179289772832 -0.085146299875302034 0.0980392157 0.0980392157 0.0980392157
v 9.7381706358726152 20.439068404886445 1.3314464878664487 0.0980392157 0.0980392157 0.0980392157
v 5.3848531190097484 28.52564371196824 1.3565811637547369 0.0980392157 0.0980392157 0.0980392157
v 12.332617479756117 28.006851159602526 1.7401068233974204 0.0980392157 0.0980392157 0.0980392157
v 12.332617479756117 28.006851159602526 1.7401068233974204 0.0980392157 0.0980392157 0.0980392157
v 5.3848531190097484 28.52564371196824 1.3565811637547369 0.0980392157 0.0980392157 0.0980392157
v 6.9623200295601713 28.384302310950638 5.044971321293561 0.0980392157 0.0980392157 0.0980392157
v 12.992077486594962 25.063933473093069 5.90646873952352 0.0980392157 0.0980392157 0.0980392157
v -13.561658185154524 25.544950702129505 5.3183222886140245 0.0980392157 0.0980392157 0.0980392157
v 12.391895220700089 13.203221013227743 5.1635236627904906 0.0980392157 0.0980392157 0.0980392157
v 5.7438589706959533 8.2144665840924365 4.8820673061420434 0.0980392157 0.0980392157 0.0980392157
v 5.7438589706959533 8.2144665840924365 4.8820673061420434 0.0980392157 0.0980392157 0.0980392157
v 2.7021373712081345 10.098133366599138 0.64888690181027597 0.0980392157 0.0980392157 0.0980392157
v 5.755748856714372 8.4444321538538016 -5.2095517575004759 0.0980392157 0.0980392157 0.0980392157
v 5.7438589706959533 8.2144665840924365 4.8820673061420434 0.0980392157 0.0980392157 0.0980392157
v 5.755748856714372 8.4444321538538016 -5.2095517575004759 0.0980392157 0.0980392157 0.0980392157
v 8.9005223715312365 -0.79626898855409634 5.6237290905094044 0.0980392157 0.0980392157 0.0980392157
v 11.632017488578178 -4.1723266254716753 3.5421923775898434 0.0980392157 0.0980392157 0.0980392157
v 11.588597383586265 -3.7763958163070805 -4.2687776065429057 0.0980392157 0.0980392157 0.0980392157
v 6.9623200295601713 28.384302310950638 5.044971321293561 0.0980392157 0.0980392157 0.0980392157
v 5.1058548843537652 37.892663260564717 2.4352261982044414 0.0980392157 0.0980392157 0.0980392157
v 4.5061603181339747 40.965284602150177 5.1097965520247994 0.0980392157 0.0980392157 0.0980392157
v -13.830863045895278 31.649179289772832 -0.085146299875302034 0.0980392157 0.0980392157 0.0980392157
v -9.056115837544759 24.994727443327559 5.2246163042989213 0.0980392157 0.0980392157 0.0980392157
v -8.4530906287466916 36.73484460127753 3.4016606535906604 0.0980392157 0.0980392157 0.0980392157
v -9.056115837544759 24.994727443327559 5.2246163042989213 0.0980392157 0.0980392157 0.0980392157
v 6.9623200295601713 28.384302310950638 5.044971321293561 0.0980392157 0.0980392157 0.0980392157
v 4.5061603181339747 40.965284602150177 5.1097965520247994 0.0980392157 0.0980392157 0.0980392157
v 6.9623200295601713 28.384302310950638 5.044971321293561 0.0980392157 0.0980392157 0.0980392157
v 13.318163617638401 31.075624404181866 -0.87184127427506952 0.0980392157 0.0980392157 0.0980392157
v 5.1058548843537652 37.892663260564717 2.4352261982044414 0.0980392157 0.0980392157 0.0980392157
v 12.332617479756117 28.006851159602526 1.7401068233974204 0.0980392157 0.0980392157 0.0980392157
v 12.992077486594962 25.063933473093069 5.90646873952352 0.0980392157 0.0980392157 0.0980392157
v 13.318163617638401 31.075624404181866 -0.87184127427506952 0.0980392157 0.0980392157 0.0980392157
v 12.992077486594962 25.063933473093069 5.90646873952352 0.0980392157 0.0980392157 0.0980392157
v -11.048469722273921 8.8514987776033394 4.4826091834325226 0.0980392157 0.0980392157 0.0980392157
v -11.753010775743414 -3.0824539405504305 6.0163867941769995 0.0980392157 0.0980392157 0.0980392157
v 4.5061603181339747 40.965284602150177 5.1097965520247994 0.0980392157 0.0980392157 0.0980392157
v -7.9884554371717806 40.355474688625321 5.2267106210273626 0.0980392157 0.0980392157 0.0980392157
v 12.992077486594962 25.063933473093069 5.90646873952352 0.0980392157 0.0980392157 0.0980392157
v -9.056115837544759 24.994727443327559 5.2246163042989213 0.0980392157 0.0980392157 0.0980392157
v 5.8209908729048294 22.564182879813639 8.3872077324651109 0.0980392157 0.0980392157 0.0980392157
v -9.056115837544759 24.994727443327559 5.2246163042989213 0.0980392157 0.0980392157 0.0980392157
v -7.8559296182125991 22.890768372301203 8.1945845842738976 0.0980392157 0.0980392157 0.0980392157
v -13.561658185154524 25.544950702129505 5.3183222886140245 0.0980392157 0.0980392157 0.0980392157
v -11.048469722273921 8.8514987776033394 4.4826091834325226 0.0980392157 0.0980392157 0.0980392157
v 5.7438589706959533 8.2144665840924365 4.8820673061420434 0.0980392157 0.0980392157 0.0980392157
v -13.759298091697003 10.857089073092951 4.5918649653986092 0.0980392157 0.0980392157 0.0980392157
v 8.3595525350701365 13.816171608789084 8.3213707819980929 0.0980392157 0.0980392157 0.0980392157
v -10.554253135412154 13.845651758666326 8.1544638378743439 0.0980392157 0.0980392157 0.0980392157
v 4.5212274907981325 12.83957463576251 6.1915109189661006 0.0980392157 0.0980392157 0.0980392157
v 4.5212274907981325 12.83957463576251 6.1915109189661006 0.0980392157 0.0980392157 0.0980392157
v -13.759298091697003 10.857089073092951 4.5918649653986092 0.0980392157 0.0980392157 0.0980392157
v 5.7438589706959533 8.2144665840924365 4.8820673061420434 0.0980392157 0.0980392157 0.0980392157
v 12.391895220700089 13.203221013227743 5.1635236627904906 0.0980392157 0.0980392157 0.0980392157
v 4.5212274907981325 12.83957463576251 6.1915109189661006 0.0980392157 0.0980392157 0.0980392157
v 4.5212274907981325 12.83957463576251 6.1915109189661006 0.0980392157 0.0980392157 0.0980392157
v 12.391895220700089 13.203221013227743 5.1635236627904906 0.0980392157 0.0980392157 0.0980392157
v 8.9005223715312365 -0.79626898855409634 5.6237290905094044 0.0980392157 0.0980392157 0.0980392157
v 11.931550983546652 3.1591910695557006 4.4942203724086811 0.0980392157 0.0980392157 0.0980392157
v 5.8209908729048294 22.564182879813639 8.3872077324651109 0.0980392157 0.0980392157 0.0980392157
v -7.8559296182125991 22.890768372301203 8.1945845842738976 0.0980392157 0.0980392157 0.0980392157
v -10.554253135412154 13.845651758666326 8.1544638378743439 0.0980392157 0.0980392157 0.0980392157
v -10.554253135412154 13.845651758666326 8.1544638378743439 0.0980392157 0.0980392157 0.0980392157
v -13.561658185154524 25.544950702129505 5.3183222886140245 0.0980392157 0.0980392157 0.0980392157
v 11.076060735633835 32.181468682802539 -9.3954553713382438 0.0980392157 0.0980392157 0.0980392157
v -7.7506182451280949 15.153205034073565 -9.515966926326584 0.0980392157 0.0980392157 0.0980392157
v 12.045805331876934 12.224596899906281 -10.25622005137383 0.0980392157 0.0980392157 0.0980392157
v 11.093026086989118 4.1670145125092564 -9.1815134404537577 0.0980392157 0.0980392157 0.0980392157
v 12.391895220700089 13.203221013227743 5.1635236627904906 0.0980392157 0.0980392157 0.0980392157
v 8.3595525350701365 13.816171608789084 8.3213707819980929 0.0980392157 0.0980392157 0.0980392157
v -7.8697190566115696 42.348100094789167 -0.36546037874624659 0.0980392157 0.0980392157 0.0980392157
v -7.754361318776529 38.610514748691578 -5.2577714839337633 0.0980392157 0.0980392157 0.0980392157
v -11.753010775743414 -3.0824539405504305 6.0163867941769995 0.0980392157 0.0980392157 0.0980392157
v 7.7971789034341423 -2.0444547307053385 -9.8315483823883927 0.0980392157 0.0980392157 0.0980392157
v 11.588597383586265 -3.7763958163070805 -4.2687776065429057 0.0980392157 0.0980392157 0.0980392157
v -11.753010775743414 -3.0824539405504305 6.0163867941769995 0.0980392157 0.0980392157 0.0980392157
v -13.561658185154524 25.544950702129505 5.3183222886140245 0.0980392157 0.0980392157 0.0980392157
v -10.554253135412154 13.845651758666326 8.1544638378743439 0.0980392157 0.0980392157 0.0980392157
v -10.554253135412154 13.845651758666326 8.1544638378743439 0.0980392157 0.0980392157 0.0980392157
v -0.40440716286252787 32.095931800626033 -12.194226723636202 0.0980392157 0.0980392157 0.0980392157
v 2.6228371103514339 24.102767942193566 -10.241017985556436 0.0980392157 0.0980392157 0.0980392157
v 6.3590838431018391 15.116127546766107 -9.9684149630734744 0.0980392157 0.0980392157 0.0980392157
v -12.721322393069737 4.334443203980868 -10.348926959514859 0.0980392157 0.0980392157 0.0980392157
v -13.759298091697003 10.857089073092951 4.5918649653986092 0.0980392157 0.0980392157 0.0980392157
v -12.382832619891042 14.064776335627112 -5.2694451765366637 0.0980392157 0.0980392157 0.0980392157
v 5.8209908729048294 22.564182879813639 8.3872077324651109 0.0980392157 0.0980392157 0.0980392157
v 12.992077486594962 25.063933473093069 5.90646873952352 0.0980392157 0.0980392157 0.0980392157
v -9.056115837544759 24.994727443327559 5.2246163042989213 0.0980392157 0.0980392157 0.0980392157
v -12.295558461292664 21.895520882690732 -5.7702080734158923 0.0980392157 0.0980392157 0.0980392157
v -13.587410970246227 32.054811957571772 -6.6590734014533099 0.0980392157 0.0980392157 0.0980392157
v -11.35699881045548 -5.5627715723063265 -10.080550439715603 0.0980392157 0.0980392157 0.0980392157
v -12.382832619891042 14.064776335627112 -5.2694451765366637 0.0980392157 0.0980392157 0.0980392157
v -13.570430414489374 14.232976261885028 -8.2333255235128586 0.0980392157 0.0980392157 0.0980392157
v -7.7506182451280949 15.153205034073565 -9.515966926326584 0.0980392157 0.0980392157 0.0980392157
v 6.3590838431018391 15.116127546766107 -9.9684149630734744 0.0980392157 0.0980392157 0.0980392157
v 5.3848531190097484 28.52564371196824 1.3565811637547369 0.0980392157 0.0980392157 0.0980392157
v 9.7381706358726152 20.439068404886445 1.3314464878664487 0.0980392157 0.0980392157 0.0980392157
v 6.260314686524179 23.494294201349344 -2.5106897898114124 0.0980392157 0.0980392157 0.0980392157
v -9.056115837544759 24.994727443327559 5.2246163042989213 0.0980392157 0.0980392157 0.0980392157
v -8.4530906287466916 36.73484460127753 3.4016606535906604 0.0980392157 0.0980392157 0.0980392157
v 5.8209908729048294 22.564182879813639 8.3872077324651109 0.0980392157 0.0980392157 0.0980392157
v 12.391895220700089 13.203221013227743 5.1635236627904906 0.0980392157 0.0980392157 0.0980392157
v 12.992077486594962 25.063933473093069 5.90646873952352 0.0980392157 0.0980392157 0.0980392157
vn 0.15665538609027863 0.93272757530212402 -0.32477438449859619
vn 0.099312335252761841 0.85435843467712402 -0.51010656356811523
vn 0.072267673909664154 0.85947638750076294 -0.50604122877120972
vn -0.014657152816653252 0.99857223033905029 0.051368314772844315
vn -0.027701998129487038 0.99871420860290527 0.042456623166799545
vn -0.0011256481520831585 0.99896180629730225 0.045541215687990189
vn 0.0011903946287930012 0.01408833172172308 -0.99990004301071167
vn 0.44150888919830322 0.069686867296695709 -0.89454662799835205
vn 0.47296735644340515 0.056339602917432785 -0.8792768120765686
vn -0.48371493816375732 0.062679983675479889 -0.87297827005386353
vn -0.32150793075561523 0.04961840808391571 -0.94560599327087402
vn 0.016114471480250359 0.9995684027671814 0.024561911821365356
vn 0.0081101581454277039 0.99869978427886963 0.05032835528254509
vn 0.02053225040435791 0.99855923652648926 0.049576789140701294
vn 0.2194599062204361 0.029113147407770157 -0.97518706321716309
vn 0.0071853459812700748 0.03422897681593895 -0.99938815832138062
vn -0.23299337923526764 0.030529459938406944 -0.97199898958206177
vn -0.005911591462790966 -0.032831516116857529 0.9994434118270874
vn -0.20994278788566589 -0.043644104152917862 0.97673904895782471
vn 0.014094274491071701 -0.025029204785823822 0.99958735704421997
vn 0.98145407438278198 0.010026458650827408 0.19143500924110413
vn 0.9547353982925415 -0.24789716303348541 0.16439975798130035
vn 0.83578163385391235 -0.11714515089988708 0.53641968965530396
vn 0.21840541064739227 -0.017838753759860992 0.97569507360458374
vn 0.22840826213359833 -0.041171122342348099 0.9726945161819458
vn 0.037560328841209412 -0.99821245670318604 -0.046488240361213684
vn 0.072453208267688751 -0.99504762887954712 0.068049579858779907
vn -0.010775210335850716 -0.9987417459487915 -0.048978123813867569
vn -0.29927942156791687 -0.063090309500694275 0.95207744836807251
vn 0.064641393721103668 -0.02515542134642601 0.99759143590927124
vn -0.1150030642747879 -0.033197712153196335 0.99281024932861328
vn 0.069843105971813202 0.99428999423980713 -0.080680832266807556
vn 0.051104947924613953 0.99750083684921265 -0.048789139837026596
vn -0.77489644289016724 -0.54148858785629272 -0.32607609033584595
vn -0.77489644289016724 -0.54148858785629272 -0.32607609033584595
vn -0.77489644289016724 -0.54148858785629272 -0.32607609033584595
vn 0.23412781953811646 0.93137770891189575 -0.27878251671791077
vn -0.96565842628479004 0.0081290565431118011 -0.25968778133392334
vn 0.40082347393035889 -0.11376733332872391 0.90906411409378052
vn 0.37544900178909302 0.061182186007499695 0.92482149600982666
vn 0.0030160997994244099 -0.15638138353824615 0.98769211769104004
vn -0.10854888707399368 -0.99328029155731201 0.040142059326171875
vn -0.037084981799125671 -0.99828386306762695 -0.045321855694055557
vn -0.48051935434341431 -0.71517711877822876 0.50756561756134033
vn -0.051545467227697372 -0.99827474355697632 -0.028118401765823364
vn 0.92400741577148438 -0.068380638957023621 0.3762105405330658
vn 0.9388459324836731 -0.14451310038566589 0.31254479289054871
vn 0.76194489002227783 0.007599908858537674 0.64759725332260132
vn -0.79989713430404663 0.36816731095314026 0.47393813729286194
vn -0.79989713430404663 0.36816731095314026 0.47393813729286194
vn -0.79989713430404663 0.36816731095314026 0.47393813729286194
vn 0.18534539639949799 0.63856750726699829 0.74691271781921387
vn 0.18534539639949799 0.63856750726699829 0.74691271781921387
vn 0.18534539639949799 0.63856750726699829 0.74691271781921387
vn 0.80278182029724121 -0.5564579963684082 -0.21423317492008209
vn 0.80278182029724121 -0.5564579963684082 -0.21423317492008209
vn 0.80278182029724121 -0.5564579963684082 -0.21423317492008209
vn -0.93412983417510986 0.18025767803192139 -0.30807247757911682
vn -0.98742169141769409 0.090816989541053772 -0.1294243335723877
vn -0.96335232257843018 0.21237723529338837 -0.16385415196418762
vn -0.21838967502117157 0.9237896203994751 0.3145134449005127
vn -0.21838967502117157 0.9237896203994751 0.3145134449005127
vn -0.21838967502117157 0.9237896203994751 0.3145134449005127
vn 0.92097574472427368 0.0092264590784907341 -0.38951057195663452
vn 0.97160768508911133 -0.080900982022285461 -0.22233641147613525
vn 0.98587518930435181 0.022758474573493004 -0.16592817008495331
vn 0.49473610520362854 -0.020627351477742195 0.86879843473434448
vn 0.50536918640136719 -0.06475338339805603 0.8604702353477478
vn 0.46658942103385925 -0.13280214369297028 0.87444722652435303
vn -0.13374558091163635 -0.60259628295898438 0.78675907850265503
vn -0.13374558091163635 -0.60259628295898438 0.78675907850265503
vn -0.13374558091163635 -0.60259628295898438 0.78675907850265503
vn 0.099159002304077148 -0.61739349365234375 0.78037989139556885
vn 0.022331872954964638 -0.53296953439712524 0.84583967924118042
vn -0.051580604165792465 -0.67822766304016113 0.73303931951522827
vn -0.15312056243419647 -0.98803800344467163 0.01830371655523777
vn -0.012526058591902256 -0.91096830368041992 -0.41228616237640381
vn -0.16863876581192017 -0.98562031984329224 0.01065354235470295
vn -0.06028454378247261 -0.99730777740478516 -0.041749477386474609
vn -0.15614603459835052 -0.98770970106124878 -0.0069254203699529171
vn -0.031705785542726517 -0.99814349412918091 -0.052002906799316406
vn 0.30504459142684937 -0.074783943593502045 0.94939726591110229
vn 0.23136040568351746 -0.035686876624822617 0.97221332788467407
vn 0.21557679772377014 -0.030990129336714745 0.97599500417709351
vn -0.21554563939571381 -0.012608020566403866 0.97641235589981079
vn -0.19547580182552338 -0.024594990536570549 0.98040008544921875
vn -0.22375763952732086 -0.031725097447633743 0.9741283655166626
vn 0.13192762434482574 0.99091112613677979 0.026271950453519821
vn 0.097447581589221954 0.99441713094711304 0.040479131042957306
vn 0.084258712828159332 0.99538695812225342 0.045883677899837494
vn 0.99273240566253662 -0.047788463532924652 0.11044716835021973
vn 0.98966079950332642 -0.0034805608447641134 0.14338546991348267
vn 0.99259823560714722 -0.096527300775051117 0.073696635663509369
vn 0.15777628123760223 0.98655730485916138 0.04255954921245575
vn 0.12983071804046631 0.99025142192840576 0.050458788871765137
vn 0.14263689517974854 0.98866575956344604 0.046848200261592865
vn -0.96415728330612183 -0.1194029301404953 -0.23694653809070587
vn -0.99026483297348022 0.089592874050140381 -0.10652993619441986
vn -0.91412955522537231 -0.28011983633041382 -0.29308706521987915
vn -0.91857737302780151 0.37833485007286072 0.11436068266630173
vn 0.99645155668258667 -0.034038465470075607 0.076978676021099091
vn 0.97465628385543823 -0.055559221655130386 0.21669861674308777
vn 0.99782800674438477 -0.046567503362894058 0.046591799706220627
vn 0.99522495269775391 -0.091175198554992676 -0.034848716109991074
vn -0.21329359710216522 -0.043974254280328751 0.97599798440933228
vn 0.21012173593044281 -0.97569870948791504 0.062135592103004456
vn -0.11725158989429474 -0.99287909269332886 0.021050909534096718
vn 0.18896453082561493 -0.97995388507843018 0.06310928612947464
vn 0.18136079609394073 0.17516075074672699 0.96769154071807861
vn 0.090281963348388672 -0.026576010510325432 0.99556159973144531
vn 0.1115398108959198 0.019510505720973015 0.99356842041015625
vn -0.046654563397169113 0.99887752532958984 0.008184351958334446
vn -0.046654563397169113 0.99887752532958984 0.008184351958334446
vn -0.046654563397169113 0.99887752532958984 0.008184351958334446
vn 0.9981502890586853 -0.045678891241550446 -0.040117479860782623
vn 0.9774477481842041 0.011646752245724201 -0.21085603535175323
vn 0.99982923269271851 -0.006848242599517107 -0.017162680625915527
vn -0.98655480146408081 -0.082234174013137817 0.14123460650444031
vn -0.99981600046157837 -0.0074397670105099678 0.017680756747722626
vn -0.98983508348464966 -0.06687367707490921 -0.12551680207252502
vn -0.63729822635650635 0.76742458343505859 0.070074737071990967
vn -0.63729822635650635 0.76742458343505859 0.070074737071990967
vn -0.63729822635650635 0.76742458343505859 0.070074737071990967
vn 0.064230695366859436 -0.0030609623063355684 -0.99793040752410889
vn -0.0033740941435098648 -0.019572146236896515 -0.99980276823043823
vn -0.036699257791042328 0.012500012293457985 -0.99924814701080322
vn -0.030153825879096985 -0.00032142165582627058 -0.99954521656036377
vn -0.035418376326560974 0.0056634140200912952 -0.99935650825500488
vn -0.14148759841918945 0.0075237741693854332 -0.98991143703460693
vn 0.029208585619926453 -0.019762415438890457 -0.99937796592712402
vn 0.046971466392278671 0.0068872319534420967 -0.99887245893478394
vn 0.021595330908894539 -0.0087683182209730148 -0.99972832202911377
vn 0.46391203999519348 0.080915264785289764 -0.88217818737030029
vn 0.61038780212402344 -0.0017012764001265168 -0.79210090637207031
vn -0.026482827961444855 -0.01385387871414423 -0.99955326318740845
vn -0.023385662585496902 -0.0018600941402837634 -0.99972480535507202
vn -0.34657451510429382 0.059931669384241104 -0.93610590696334839
vn -0.49955132603645325 0.058914363384246826 -0.86427861452102661
vn -0.53248894214630127 -0.05217251181602478 -0.84482753276824951
vn 0.043742362409830093 0.036395512521266937 -0.99837964773178101
vn -0.66892403364181519 -0.07509777694940567 -0.73952752351760864
vn -0.98384618759155273 0.017356697469949722 -0.17817237973213196
vn -0.97276204824447632 0.03190496563911438 0.22959974408149719
vn -0.51742708683013916 0.048684705048799515 -0.85434126853942871
vn 0.90683454275131226 0.12113726884126663 -0.4037039577960968
vn 0.82235074043273926 -0.19097062945365906 -0.53597527742385864
vn 0.97524213790893555 0.039765719324350357 -0.21753507852554321
vn -0.99850332736968994 0.03126862645149231 0.04487115889787674
vn -0.97803705930709839 0.18205572664737701 -0.10148490220308304
vn -0.99888980388641357 -0.01035795733332634 0.04595503956079483
vn -0.014130496419966221 0.0067019369453191757 -0.9998776912689209
vn -0.026865825057029724 -0.99824756383895874 -0.052725724875926971
vn 0.530303955078125 -0.8421330451965332 0.097926802933216095
vn -0.056438684463500977 -0.99706214666366577 0.051786165684461594
vn 0.75853782892227173 0.31340968608856201 -0.57130968570709229
vn 0.79844623804092407 0.10981173813343048 -0.59196710586547852
vn 0.78240197896957397 0.24437816441059113 -0.57282322645187378
vn 0.84130990505218506 0.52934145927429199 0.10952282696962357
vn 0.89960700273513794 0.25736376643180847 0.3528047502040863
vn 0.89124578237533569 0.28496327996253967 0.35281282663345337
vn -0.59594851732254028 0.71523374319076538 -0.36508366465568542
vn -0.57170248031616211 0.71227562427520752 -0.40720966458320618
vn -0.65855270624160767 0.7407299280166626 0.13276870548725128
vn 0.69440048933029175 0.57113921642303467 -0.43773043155670166
vn 0.50586622953414917 0.71989953517913818 -0.47523054480552673
vn 0.49673324823379517 0.72556161880493164 -0.47625249624252319
vn -0.221326544880867 -0.86952590942382812 0.44151920080184937
vn -0.221326544880867 -0.86952590942382812 0.44151920080184937
vn -0.221326544880867 -0.86952590942382812 0.44151920080184937
vn 0.85611653327941895 -0.51471596956253052 0.046173229813575745
vn 0.814552903175354 -0.5198138952255249 0.25748226046562195
vn 0.86139512062072754 -0.50323456525802612 0.06894499808549881
vn -0.029476804658770561 -0.051652468740940094 0.99822998046875
vn -0.18253859877586365 0.03702622652053833 0.98250126838684082
vn -0.11428327113389969 0.16889640688896179 0.97898584604263306
vn -0.95500588417053223 0.29601043462753296 0.018483087420463562
vn -0.9153326153755188 0.36296573281288147 0.17441935837268829
vn -0.89995485544204712 0.37892180681228638 0.21563753485679626
vn -0.9991791844367981 0.029345421120524406 -0.027925232425332069
vn -0.99783951044082642 -0.058715052902698517 -0.029477173462510109
vn 0.087233357131481171 0.001701504341326654 0.99618643522262573
vn 0.87852966785430908 -0.049604397267103195 0.47510525584220886
vn 0.8342699408531189 0.051137864589691162 0.54897958040237427
vn 0.81184226274490356 0.059601344168186188 0.58082687854766846
vn 0.36076837778091431 0.92219728231430054 0.13927803933620453
vn 0.53012287616729736 0.83875018358230591 -0.12436963617801666
vn 0.38711896538734436 0.91628533601760864 0.10276234894990921
vn 0.075233533978462219 -0.88274872303009033 0.46378299593925476
vn -0.03981369361281395 -0.99655914306640625 -0.072695843875408173
vn 0.030497061088681221 -0.91665548086166382 -0.39851310849189758
vn 0.99983084201812744 0.0062536909244954586 0.017296351492404938
vn -0.83551055192947388 -0.37601357698440552 -0.40066936612129211
vn -0.83551055192947388 -0.37601357698440552 -0.40066936612129211
vn -0.83551055192947388 -0.37601357698440552 -0.40066936612129211
vn -0.99049204587936401 -0.13322161138057709 -0.034315384924411774
vn -0.86813348531723022 0.22225838899612427 0.44378533959388733
vn -0.74443483352661133 0.30584901571273804 0.59352600574493408
vn -0.18111062049865723 0.11775757372379303 0.97638726234436035
vn -0.55368751287460327 -0.035933665931224823 0.83194887638092041
vn -0.52937114238739014 -0.43001517653465271 0.73133653402328491
vn -0.99957054853439331 0.0287293940782547 -0.0057703847996890545
vn -0.9922415018081665 0.1232103705406189 -0.016613496467471123
vn -0.9995763897895813 -0.028900705277919769 0.0034348312765359879
vn -0.99999606609344482 0.00082434609066694975 0.0026862500235438347
vn -0.99992358684539795 -0.012213314883410931 0.0019233629573136568
vn -0.53099352121353149 -0.3695644736289978 -0.76254045963287354
vn -0.20384237170219421 -0.61080443859100342 -0.76509231328964233
vn 0.13322411477565765 0.86460602283477783 0.48446643352508545
vn 0.1636483371257782 0.97646933794021606 -0.14045237004756927
vn -0.076321005821228027 0.99662452936172485 -0.030243681743741035
vn -0.99097937345504761 -0.097548589110374451 -0.091892383992671967
vn 0.82032924890518188 0.54048377275466919 -0.18691504001617432
vn 0.81103825569152832 0.57913380861282349 0.082589372992515564
vn 0.92926722764968872 0.36773177981376648 -0.035153564065694809
vn 0.79007887840270996 -0.23031221330165863 0.56809473037719727
vn 0.9362415075302124 -0.25614580512046814 0.24050185084342957
vn 0.71640473604202271 0.022627469152212143 0.69731789827346802
vn 0.53624987602233887 -0.80423814058303833 0.25619739294052124
vn 0.39058768749237061 -0.76934140920639038 -0.50552451610565186
vn 0.4441012442111969 -0.70750999450683594 0.54973053932189941
vn 0.13710629940032959 0.015980888158082962 0.99042743444442749
vn 0.0066151614300906658 -0.95137804746627808 0.30795454978942871
vn -0.89775484800338745 0.37618494033813477 0.22917485237121582
vn -0.12669743597507477 0.77578669786453247 0.61814463138580322
vn 0.99770134687423706 -0.06776418536901474 -6.8051886046305299E-05
vn 0.99770039319992065 -0.06777818500995636 -7.7180768130347133E-05
vn 0.99770915508270264 -0.067649208009243011 6.9718603299406823E-06
vn 0.61913126707077026 -0.47291499376296997 -0.62691932916641235
vn 0.61913126707077026 -0.47291499376296997 -0.62691932916641235
vn 0.61913126707077026 -0.47291499376296997 -0.62691932916641235
vn -0.39857617020606995 -0.74277466535568237 -0.53798025846481323
vn -0.35149025917053223 -0.7084038257598877 -0.61206096410751343
vn -0.31083330512046814 -0.67576003074645996 -0.66837942600250244
vn 0.31349050998687744 0.58148062229156494 0.75073564052581787
vn 0.051115501672029495 0.63472437858581543 0.77104616165161133
vn -0.12985850870609283 0.81557595729827881 0.56389063596725464
vn 0.009941495954990387 -0.013245362788438797 -0.99986284971237183
vn 0.0011684856144711375 0.0049981153570115566 -0.99998682737350464
vn 0.00025177511270157993 0.0052498937584459782 -0.99998617172241211
vn 0.067008689045906067 0.95096230506896973 0.30196109414100647
vn 0.066524185240268707 0.9687923789024353 0.23877993226051331
vn 0.074709288775920868 0.96555423736572266 0.24924591183662415
vn 0.93408125638961792 -0.020488513633608818 0.35647222399711609
vn -0.98021417856216431 -0.018186599016189575 0.19710241258144379
vn 0.96594345569610596 -0.16883629560470581 0.19608031213283539
vn -0.023590980097651482 -0.87157952785491943 -0.48968622088432312
vn -0.4081571102142334 -0.84562408924102783 -0.34398791193962097
vn -0.43000778555870056 -0.8976472020149231 -0.096554622054100037
vn -0.41017720103263855 -0.81496620178222656 0.40937119722366333
vn -0.97261792421340942 -0.1835128515958786 -0.14260940253734589
vn -0.943672776222229 -0.29425454139709473 0.15131403505802155
vn -0.99235427379608154 0.12071367353200912 0.02571493573486805
vn 0.68493878841400146 -0.72690516710281372 0.049675680696964264
vn 0.76651126146316528 -0.64182198047637939 0.022912541404366493
vn 0.90781551599502563 -0.36935403943061829 -0.19861678779125214
vn 0.97832012176513672 0.19292131066322327 -0.075307026505470276
vn 0.91653555631637573 0.3594532310962677 0.17537389695644379
vn -0.59087473154067993 0.090230613946914673 0.80170166492462158
vn -0.58746564388275146 0.09714624285697937 0.80339699983596802
vn -0.63799905776977539 -0.015218336135149002 0.76988673210144043
vn -0.010507562197744846 0.0041321497410535812 0.99993628263473511
vn -0.026766747236251831 -0.0043933908455073833 0.99963206052780151
vn 0.038253743201494217 0.15616440773010254 0.98699003458023071
vn 0.37104642391204834 0.34251555800437927 0.86313825845718384
vn 0.33134374022483826 0.31064856052398682 0.89090335369110107
vn 0.34542816877365112 0.32197049260139465 0.88148421049118042
vn -0.21084888279438019 0.66607362031936646 0.71546393632888794
vn -0.15102177858352661 0.58321869373321533 0.7981531023979187
vn -0.10201844573020935 0.793842613697052 0.59950488805770874
vn 0.25641226768493652 0.82569527626037598 0.50247395038604736
vn 0.99511957168579102 -0.037738654762506485 -0.091175004839897156
vn 0.99982446432113647 0.0088080447167158127 0.016536301001906395
vn 0.00078678491991013288 2.9192020519985817E-05 0.99999970197677612
vn -0.0032876022160053253 -3.200898936484009E-05 0.99999457597732544
vn -0.12472725659608841 0.11139362305402756 0.98591816425323486
vn 0.1702401340007782 -0.33465346693992615 0.92683619260787964
vn 0.0074256360530853271 0.96976810693740845 0.24391520023345947
vn 0.09716237336397171 0.86945426464080811 0.48436430096626282
vn 0.03939274325966835 0.86620157957077026 0.49813956022262573
vn 0.48100972175598145 0.85607093572616577 0.18913538753986359
vn -0.00040507415542379022 -0.00036195735447108746 0.99999988079071045
vn 0.0036212960258126259 0.0023479654919356108 0.99999070167541504
vn -0.00078885728726163507 -0.00076830422040075064 0.99999940395355225
vn 0.053086549043655396 -0.95837593078613281 0.28053045272827148
vn -0.036700248718261719 -0.99371099472045898 -0.10579033195972443
vn -0.017066124826669693 -0.98523420095443726 -0.17035949230194092
vn -0.012834876775741577 -0.49172386527061462 0.87065660953521729
vn -0.064215153455734253 -0.67256641387939453 0.73724544048309326
vn -0.045236054807901382 -0.49763765931129456 0.86620461940765381
vn 0.4699307382106781 -0.02262205071747303 0.88241338729858398
vn -0.12178892642259598 -0.00036264548543840647 0.99255597591400146
vn -0.064219862222671509 -0.96682292222976685 0.24724322557449341
vn 0.18056184053421021 -0.75988221168518066 0.62448090314865112
vn 0.42875269055366516 -0.14429633319377899 0.89182382822036743
vn 0.430429607629776 0.18070144951343536 0.88435137271881104
vn 0.071790508925914764 0.028552621603012085 0.99701094627380371
vn -0.12641242146492004 0.024603839963674545 0.9916725754737854
vn -0.15087902545928955 0.015357060357928276 0.98843294382095337
vn -0.32275485992431641 0.050365950912237167 0.94514155387878418
vn -0.58997040987014771 -0.043815534561872482 0.80623513460159302
vn 0.51457935571670532 0.033353693783283234 -0.85679382085800171
vn -0.11367793381214142 -0.9779544472694397 -0.17516389489173889
vn -0.2125069797039032 -0.05370880663394928 0.97568237781524658
vn -0.99435806274414062 0.038462765514850616 -0.098857000470161438
vn 0.74065309762954712 0.052187215536832809 0.66985780000686646
vn 0.15536832809448242 0.019790645688772202 0.98765832185745239
vn -0.4709765613079071 0.8814316987991333 -0.035485289990901947
vn 0.010984903201460838 0.62497580051422119 -0.78056687116622925
vn -0.35650283098220825 -0.2107432633638382 0.91021591424942017
vn 0.093461863696575165 -0.31739440560340881 -0.9436766505241394
vn -0.07577882707118988 -0.66911715269088745 -0.73928332328796387
vn -0.13624642789363861 -0.66970634460449219 0.73002082109451294
vn -0.85222601890563965 0.076550997793674469 0.51754301786422729
vn -0.53122967481613159 0.036326877772808075 0.84644871950149536
vn -0.04625079408288002 -0.62827777862548828 0.77661311626434326
vn 0.0054270550608634949 0.99888718128204346 0.046850260347127914
vn -0.16299137473106384 -0.033364724367856979 0.98606318235397339
vn -0.17212879657745361 -0.033444933593273163 0.98450654745101929
vn -0.999053955078125 -0.035883177071809769 0.024567639455199242
vn -0.92825877666473389 0.37176007032394409 0.011405390687286854
vn -0.76438486576080322 0.64475798606872559 0.0017003858229145408
vn -0.05577315017580986 0.99838399887084961 -0.010899043641984463
vn -0.19288472831249237 0.97483539581298828 0.11176484078168869
vn 0.10160444676876068 0.99080628156661987 -0.089327707886695862
vn 0.11722150444984436 -0.0087047982960939407 -0.99306762218475342
vn 0.19233758747577667 -0.041416831314563751 -0.98045444488525391
vn -0.50733524560928345 -0.85775297880172729 0.082889877259731293
vn -0.039769042283296585 -0.99647074937820435 -0.073922045528888702
vn -0.066924355924129486 -0.99677705764770508 -0.044234238564968109
vn -0.085607290267944336 -0.99632596969604492 0.0024362651165574789
vn -0.1471492201089859 -0.98906147480010986 -0.010222353041172028
vn 1 0 0
vn 1 0 0
vn 1 0 0
vn -0.98467391729354858 -0.14871165156364441 -0.091116167604923248
vn -0.99983692169189453 0.015450106002390385 0.0093521112576127052
vn 0.12725888192653656 -0.034231424331665039 0.99127864837646484
vn 0.12700186669826508 -0.03440282866358757 0.99130570888519287
vn 0.12282610684633255 -0.037185922265052795 0.99173128604888916
usemtl vc_191919__Default
f 1//1 2//2 3//3
f 4//4 5//5 6//6
f 7//7 8//8 9//9
f 10//10 7//7 11//11
f 12//12 13//13 14//14
f 15//15 16//16 9//9
f 17//17 11//11 16//16
f 18//18 19//19 20//20
f 21//21 22//22 23//23
f 24//24 25//25 18//18
f 26//26 27//27 28//28
f 29//29 30//30 31//31
f 32//32 5//5 33//33
f 34//34 35//35 36//36
f 32//32 33//33 37//37
f 38//38 10//10 11//11
f 39//39 40//40 30//30
f 30//30 40//40 41//41
f 42//42 43//43 44//44
f 45//45 43//43 42//42
f 46//46 47//47 48//48
f 49//49 50//50 51//51
f 52//52 53//53 54//54
f 55//55 56//56 57//57
f 58//58 59//59 60//60
f 61//61 62//62 63//63
f 64//64 65//65 66//66
f 67//67 68//68 69//69
f 70//70 71//71 72//72
f 73//73 74//74 75//75
f 76//76 77//77 78//78
f 79//79 80//80 81//81
f 82//82 83//83 84//84
f 85//85 86//86 87//87
f 88//88 89//89 90//90
f 91//91 92//92 93//93
f 94//94 95//95 96//96
f 97//97 98//98 99//99
f 97//97 100//100 98//98
f 101//101 102//102 103//103
f 25//25 24//24 84//84
f 104//104 22//22 21//21
f 19//19 18//18 105//105
f 106//106 107//107 108//108
f 109//109 110//110 111//111
f 112//112 113//113 114//114
f 115//115 116//116 117//117
f 118//118 244//244 119//119 120//120
f 121//121 122//122 123//123
f 126//126 325//325 124//124 125//125
f 127//127 128//128 129//129
f 127//127 132//132 130//130 126//126
f 128//128 127//127 126//126
f 131//131 130//130 132//132
f 133//133 132//132 134//134
f 136//136 130//130 131//131 135//135
f 137//137 138//138 139//139
f 133//133 140//140 132//132
f 140//140 131//131 132//132
f 141//141 142//142 143//143
f 144//144 138//138 137//137
f 145//145 146//146 147//147
f 148//148 149//149 150//150
f 125//125 124//124 151//151
f 152//152 153//153 154//154
f 155//155 156//156 157//157
f 158//158 159//159 160//160
f 161//161 162//162 163//163
f 164//164 165//165 166//166
f 167//167 168//168 169//169
f 170//170 171//171 172//172
f 173//173 174//174 175//175
f 176//176 177//177 178//178
f 176//176 179//179 180//180
f 181//181 173//173 175//175
f 182//182 183//183 184//184
f 185//185 186//186 187//187
f 188//188 189//189 190//190
f 147//147 115//115 191//191
f 192//192 193//193 194//194
f 195//195 196//196 197//197
f 198//198 199//199 200//200
f 201//201 202//202 203//203
f 204//204 202//202 205//205
f 200//200 206//206 207//207
f 208//208 209//209 210//210
f 120//120 211//211 118//118
f 212//212 213//213 214//214
f 215//215 216//216 217//217
f 218//218 219//219 220//220
f 221//221 222//222 220//220
f 223//223 148//148 150//150
f 208//208 210//210 224//224
f 225//225 226//226 227//227
f 228//228 229//229 230//230
f 231//231 232//232 233//233
f 234//234 235//235 236//236
f 237//237 238//238 239//239
f 240//240 241//241 242//242
f 243//243 115//115 117//117
f 245//245 115//115 243//243
f 246//246 190//190 189//189
f 247//247 248//248 249//249
f 250//250 251//251 252//252
f 253//253 254//254 216//216
f 255//255 256//256 257//257
f 258//258 259//259 260//260
f 261//261 262//262 263//263
f 264//264 265//265 266//266
f 267//267 268//268 269//269
f 270//270 240//240 242//242
f 103//103 271//271 272//272
f 261//261 273//273 274//274
f 275//275 262//262 276//276
f 277//277 278//278 279//279
f 280//280 279//279 278//278
f 281//281 282//282 283//283
f 284//284 285//285 286//286
f 287//287 288//288 289//289
f 221//221 290//290 291//291
f 284//284 292//292 293//293
f 294//294 220//220 295//295
f 296//296 297//297 298//298
f 299//299 297//297 300//300
f 116//116 9//9 301//301
f 77//77 302//302 78//78
f 87//87 303//303 85//85
f 142//142 304//304 143//143
f 128//128 126//126 125//125
f 305//305 296//296 306//306
f 307//307 209//209 308//308
f 115//115 245//245 191//191
f 198//198 200//200 309//309
f 310//310 311//311 222//222
f 200//200 207//207 312//312
f 313//313 118//118 314//314
f 315//315 288//288 287//287
f 221//221 291//291 282//282
f 290//290 221//221 295//295
f 13//13 316//316 14//14
f 317//317 318//318 29//29
f 116//116 115//115 9//9
f 319//319 120//120 38//38
f 320//320 321//321 202//202
f 322//322 323//323 324//324
f 124//124 325//325 326//326
f 16//16 7//7 9//9
f 19//19 85//85 20//20
f 26//26 28//28 327//327
f 328//328 329//329 330//330
f 80//80 331//331 81//81
f 332//332 333//333 334//334
f 335//335 223//223 336//336
f 337//337 338//338 339//339
f 11//11 7//7 16//16
f 82//82 84//84 24//24
f 296//296 298//298 306//306
f 24//24 18//18 20//20
f 119//119 38//38 120//120
f 103//103 272//272 101//101
