# Dual color encoding: per-vertex RGB for Rerun, face MTL colors for legacy RViz.
mtllib sim_gene01_l_hand_middle_1.mtl
# Rhino

g sim_gene01_l_hand_middle_1
v -5.4397738532186208 7.6488893415551535 3.285182714503657 0.0980392157 0.0980392157 0.0980392157
v -5.5211181076299498 9.3925421144354164 3.3257606413485488 0.0980392157 0.0980392157 0.0980392157
v -5.4094834374576672 7.7398873830775834 -3.3370870351961419 0.0980392157 0.0980392157 0.0980392157
v -4.5 6.6680002212524414 4 0.0980392157 0.0980392157 0.0980392157
v -5.4397738532186208 7.6488893415551535 3.285182714503657 0.0980392157 0.0980392157 0.0980392157
v -5.4094834374576672 7.7398873830775834 -3.3370870351961419 0.0980392157 0.0980392157 0.0980392157
v -4.5068862835031487 6.7587640698548759 -3.9888598208011325 0.0980392157 0.0980392157 0.0980392157
v -4.5068862835031487 6.7587640698548759 -3.9888598208011325 0.0980392157 0.0980392157 0.0980392157
v -5.4094834374576672 7.7398873830775834 -3.3370870351961419 0.0980392157 0.0980392157 0.0980392157
v -4.1006858868935874 9.9624693596053877 -4.2219446284564865 0.0980392157 0.0980392157 0.0980392157
v -5.5740225655169988 9.3637710152532438 -3.4055438636222668 0.0980392157 0.0980392157 0.0980392157
v -5.5211181076299498 9.3925421144354164 3.3257606413485488 0.0980392157 0.0980392157 0.0980392157
v -4.0723988152412405 9.8033299141798036 4.4376837807891309 0.0980392157 0.0980392157 0.0980392157
v -5.5740225655169988 9.3637710152532438 -3.4055438636222668 0.0980392157 0.0980392157 0.0980392157
v -4.0723988152412405 9.8033299141798036 4.4376837807891309 0.0980392157 0.0980392157 0.0980392157
v -5.5211181076299498 9.3925421144354164 3.3257606413485488 0.0980392157 0.0980392157 0.0980392157
v -5.4397738532186208 7.6488893415551535 3.285182714503657 0.0980392157 0.0980392157 0.0980392157
v -3.9868765542530937 8.2278380228210946 -4.4964919193876183 0.0980392157 0.0980392157 0.0980392157
v -4 0 -4.5 0.0980392157 0.0980392157 0.0980392157
v -4.4337623138637499 -2.318055398782259 -3.9290870892758853 0.0980392157 0.0980392157 0.0980392157
v -4.5077671559277395 3.0816693717279251 -2.2373543695190952 0.0980392157 0.0980392157 0.0980392157
v -4.5068862835031487 6.7587640698548759 -3.9888598208011325 0.0980392157 0.0980392157 0.0980392157
v -4.4337623138637499 -2.318055398782259 -3.9290870892758853 0.0980392157 0.0980392157 0.0980392157
v 3.9346188749607371 -2.0888097216964461 -4.0522636869009121 0.0980392157 0.0980392157 0.0980392157
v -4.4337623138637499 -2.318055398782259 -3.9290870892758853 0.0980392157 0.0980392157 0.0980392157
v -4 0 -4.5 0.0980392157 0.0980392157 0.0980392157
v -3.9868765542530937 8.2278380228210946 -4.4964919193876183 0.0980392157 0.0980392157 0.0980392157
v 0.28488130001431727 4.0667400853046161 -4.5076813636903532 0.0980392157 0.0980392157 0.0980392157
v -4.5 6.6680002212524414 4 0.0980392157 0.0980392157 0.0980392157
v -4.3345402801700104 -0.61833606556845666 4.4757423214656153 0.0980392157 0.0980392157 0.0980392157
v -4.7879778754815661 1.3050954235698504 0.94015748712722502 0.0980392157 0.0980392157 0.0980392157
v -4.3345402801700104 -0.61833606556845666 4.4757423214656153 0.0980392157 0.0980392157 0.0980392157
v -4.5 6.6680002212524414 4 0.0980392157 0.0980392157 0.0980392157
v -5.0351671491903858 -0.41706957741568879 1.5078121061022334 0.0980392157 0.0980392157 0.0980392157
v -4.7879778754815661 1.3050954235698504 0.94015748712722502 0.0980392157 0.0980392157 0.0980392157
v -4.9840475623960314 1.3825237355095035 -0.97827491755078266 0.0980392157 0.0980392157 0.0980392157
v -4.4337623138637499 -2.318055398782259 -3.9290870892758853 0.0980392157 0.0980392157 0.0980392157
v -5.1005368246211695 -1.4984309667090201 0.56868607646241542 0.0980392157 0.0980392157 0.0980392157
v -4.4337623138637499 -2.318055398782259 -3.9290870892758853 0.0980392157 0.0980392157 0.0980392157
v -4.2487968937105762 -4.1962746793737251 -1.7924456889100235 0.0980392157 0.0980392157 0.0980392157
v -4.2487968937105762 -4.1962746793737251 -1.7924456889100235 0.0980392157 0.0980392157 0.0980392157
v -4.2514031465726747 -4.4332706245161342 1.3431767339433676 0.0980392157 0.0980392157 0.0980392157
v -4.8831345212626225 -0.47790550027620604 -1.4914171725226406 0.0980392157 0.0980392157 0.0980392157
v -4.9840475623960314 1.3825237355095035 -0.97827491755078266 0.0980392157 0.0980392157 0.0980392157
v -4.4337623138637499 -2.318055398782259 -3.9290870892758853 0.0980392157 0.0980392157 0.0980392157
v -4.9840475623960314 1.3825237355095035 -0.97827491755078266 0.0980392157 0.0980392157 0.0980392157
v -4.2514031465726747 -4.4332706245161342 1.3431767339433676 0.0980392157 0.0980392157 0.0980392157
v -5.0351671491903858 -0.41706957741568879 1.5078121061022334 0.0980392157 0.0980392157 0.0980392157
v -5.1005368246211695 -1.4984309667090201 0.56868607646241542 0.0980392157 0.0980392157 0.0980392157
v -4.8995315909391826 -1.4000789621280938 -0.61852533779571439 0.0980392157 0.0980392157 0.0980392157
v 5.0312828387434338 1.3797724725126734 1.0112123775348276 0.0980392157 0.0980392157 0.0980392157
v 5.0245176770375117 -0.54551377858617323 1.4718963790677184 0.0980392157 0.0980392157 0.0980392157
v -5.0351671491903858 -0.41706957741568879 1.5078121061022334 0.0980392157 0.0980392157 0.0980392157
v 5.0532994531732234 1.2450307884702951 -0.96382201870765316 0.0980392157 0.0980392157 0.0980392157
v 5.0312828387434338 1.3797724725126734 1.0112123775348276 0.0980392157 0.0980392157 0.0980392157
v -4.9840475623960314 1.3825237355095035 -0.97827491755078266 0.0980392157 0.0980392157 0.0980392157
v -4.9840475623960314 1.3825237355095035 -0.97827491755078266 0.0980392157 0.0980392157 0.0980392157
v -4.8831345212626225 -0.47790550027620604 -1.4914171725226406 0.0980392157 0.0980392157 0.0980392157
v 4.8915366620122755 -0.33587005849647267 -1.5060480323582743 0.0980392157 0.0980392157 0.0980392157
v -4.8831345212626225 -0.47790550027620604 -1.4914171725226406 0.0980392157 0.0980392157 0.0980392157
v -4.8995315909391826 -1.4000789621280938 -0.61852533779571439 0.0980392157 0.0980392157 0.0980392157
v 4.8637071767389637 -1.4414932814960442 -0.61375410219627979 0.0980392157 0.0980392157 0.0980392157
v 5.0245176770375117 -0.54551377858617323 1.4718963790677184 0.0980392157 0.0980392157 0.0980392157
v 4.9136707621268867 -1.4065164912160486 0.59713553437950917 0.0980392157 0.0980392157 0.0980392157
v -5.0351671491903858 -0.41706957741568879 1.5078121061022334 0.0980392157 0.0980392157 0.0980392157
v 4.4468595542179425 -0.17778445104562479 -4.4310091072958011 0.0980392157 0.0980392157 0.0980392157
v 5.0532994531732234 1.2450307884702951 -0.96382201870765316 0.0980392157 0.0980392157 0.0980392157
v 4.8915366620122755 -0.33587005849647267 -1.5060480323582743 0.0980392157 0.0980392157 0.0980392157
v 4.8637071767389637 -1.4414932814960442 -0.61375410219627979 0.0980392157 0.0980392157 0.0980392157
v -5.1005368246211695 -1.4984309667090201 0.56868607646241542 0.0980392157 0.0980392157 0.0980392157
v -5.0351671491903858 -0.41706957741568879 1.5078121061022334 0.0980392157 0.0980392157 0.0980392157
v -4.2514031465726747 -4.4332706245161342 1.3431767339433676 0.0980392157 0.0980392157 0.0980392157
v -3.9627131107576843 -2.7474329460221707 3.618331306623972 0.0980392157 0.0980392157 0.0980392157
v -4.3345402801700104 -0.61833606556845666 4.4757423214656153 0.0980392157 0.0980392157 0.0980392157
v -4.2514031465726747 -4.4332706245161342 1.3431767339433676 0.0980392157 0.0980392157 0.0980392157
v -1.71538726318804 5.992541676766364 4.6157459026336349 0.0980392157 0.0980392157 0.0980392157
v -4.0723988152412405 9.8033299141798036 4.4376837807891309 0.0980392157 0.0980392157 0.0980392157
v -4.3345402801700104 -0.61833606556845666 4.4757423214656153 0.0980392157 0.0980392157 0.0980392157
v 1.6524063491504482 5.9722448141479845 4.5719526224418008 0.0980392157 0.0980392157 0.0980392157
v 4.3860953952300772 -0.65416885216140486 4.4430670055054851 0.0980392157 0.0980392157 0.0980392157
v -1.383371318201716 9.985455142883314 -4.820571333691503 0.0980392157 0.0980392157 0.0980392157
v -4.1006858868935874 9.9624693596053877 -4.2219446284564865 0.0980392157 0.0980392157 0.0980392157
v 3.6883663963449727 7.2271340016225327 -4.5073552113477033 0.0980392157 0.0980392157 0.0980392157
v 4.0384395943508746 10.228008488534989 -4.3249248108218428 0.0980392157 0.0980392157 0.0980392157
v 4.4468595542179425 -0.17778445104562479 -4.4310091072958011 0.0980392157 0.0980392157 0.0980392157
v 1.2793048533716576 10.08684861117602 -4.8259439065898482 0.0980392157 0.0980392157 0.0980392157
v 1.9311189786742098 12.123871813025296 -4.3384737876042996 0.0980392157 0.0980392157 0.0980392157
v -1.383371318201716 9.985455142883314 -4.820571333691503 0.0980392157 0.0980392157 0.0980392157
v -2.0382591057174717 12.135794914402767 -4.2351943806450745 0.0980392157 0.0980392157 0.0980392157
v 1.2793048533716576 10.08684861117602 -4.8259439065898482 0.0980392157 0.0980392157 0.0980392157
v 1.5130839295126894 6.9352742630460655 -5.1742950086763004 0.0980392157 0.0980392157 0.0980392157
v -1.0735348001320582 6.6267669522557044 -5.1839639377947799 0.0980392157 0.0980392157 0.0980392157
v -4.0723988152412405 9.8033299141798036 4.4376837807891309 0.0980392157 0.0980392157 0.0980392157
v -2.4141177622822974 11.957652712143766 4.2156470819460337 0.0980392157 0.0980392157 0.0980392157
v -4.1006858868935874 9.9624693596053877 -4.2219446284564865 0.0980392157 0.0980392157 0.0980392157
v 3.9346188749607371 -2.0888097216964461 -4.0522636869009121 0.0980392157 0.0980392157 0.0980392157
v 4.3625724064638289 -3.3898412701227523 -2.9257794755393789 0.0980392157 0.0980392157 0.0980392157
v -4.4337623138637499 -2.318055398782259 -3.9290870892758853 0.0980392157 0.0980392157 0.0980392157
v 4.2823688915762732 -4.3622171121106854 -1.2509755175617572 0.0980392157 0.0980392157 0.0980392157
v -4.2487968937105762 -4.1962746793737251 -1.7924456889100235 0.0980392157 0.0980392157 0.0980392157
v 4.7435539580062196 -2.8553449613367903 -0.10244898261093942 0.0980392157 0.0980392157 0.0980392157
v 4.231061015560293 -4.2045551239103398 1.8887116913068114 0.0980392157 0.0980392157 0.0980392157
v 4.2852057767314298 -2.3992571680989236 3.8221847391911936 0.0980392157 0.0980392157 0.0980392157
v -3.9627131107576843 -2.7474329460221707 3.618331306623972 0.0980392157 0.0980392157 0.0980392157
v 4.3860953952300772 -0.65416885216140486 4.4430670055054851 0.0980392157 0.0980392157 0.0980392157
v -1.71538726318804 5.992541676766364 4.6157459026336349 0.0980392157 0.0980392157 0.0980392157
v -1.390565883604002 8.9148029318529431 5.1742169435486671 0.0980392157 0.0980392157 0.0980392157
v 4.3860953952300772 -0.65416885216140486 4.4430670055054851 0.0980392157 0.0980392157 0.0980392157
v 4.0910326305105649 9.9293378228094227 4.4331342281697399 0.0980392157 0.0980392157 0.0980392157
v 1.6852811824867369 9.5314663801039146 4.9216177947236011 0.0980392157 0.0980392157 0.0980392157
v 4.0910326305105649 9.9293378228094227 4.4331342281697399 0.0980392157 0.0980392157 0.0980392157
v 0.48474385139998444 12.523285610617615 4.2413184724137114 0.0980392157 0.0980392157 0.0980392157
v -2.4141177622822974 11.957652712143766 4.2156470819460337 0.0980392157 0.0980392157 0.0980392157
v 0.12008854707795003 9.8562836226330042 5.0070753787056406 0.0980392157 0.0980392157 0.0980392157
v 0.12008854707795003 9.8562836226330042 5.0070753787056406 0.0980392157 0.0980392157 0.0980392157
v -4.0723988152412405 9.8033299141798036 4.4376837807891309 0.0980392157 0.0980392157 0.0980392157
v 4.5 8 4 0.0980392157 0.0980392157 0.0980392157
v 4.0910326305105649 9.9293378228094227 4.4331342281697399 0.0980392157 0.0980392157 0.0980392157
v 4.3860953952300772 -0.65416885216140486 4.4430670055054851 0.0980392157 0.0980392157 0.0980392157
v -2.0382591057174717 12.135794914402767 -4.2351943806450745 0.0980392157 0.0980392157 0.0980392157
v -1.383371318201716 9.985455142883314 -4.820571333691503 0.0980392157 0.0980392157 0.0980392157
v -4.1006858868935874 9.9624693596053877 -4.2219446284564865 0.0980392157 0.0980392157 0.0980392157
v -1.1847806412625168 9.1556066563015257 -5.9849641521467873 0.0980392157 0.0980392157 0.0980392157
v -1.4392150424636698 9.9883602744475493 -7.8951148350463471 0.0980392157 0.0980392157 0.0980392157
v -1.8428092699650858 7.2438012423922267 -7.8290347627071037 0.0980392157 0.0980392157 0.0980392157
v -1.1493604642497668 8.2662299365257823 -9.624354689426676 0.0980392157 0.0980392157 0.0980392157
v -1.8428092699650858 7.2438012423922267 -7.8290347627071037 0.0980392157 0.0980392157 0.0980392157
v -1.4392150424636698 9.9883602744475493 -7.8951148350463471 0.0980392157 0.0980392157 0.0980392157
v -0.077956415490350928 6.4813160342431608 -9.2821602075979737 0.0980392157 0.0980392157 0.0980392157
v -1.8428092699650858 7.2438012423922267 -7.8290347627071037 0.0980392157 0.0980392157 0.0980392157
v -1.1493604642497668 8.2662299365257823 -9.624354689426676 0.0980392157 0.0980392157 0.0980392157
v -1.0735348001320582 6.6267669522557044 -5.1839639377947799 0.0980392157 0.0980392157 0.0980392157
v -1.1847806412625168 9.1556066563015257 -5.9849641521467873 0.0980392157 0.0980392157 0.0980392157
v -1.8428092699650858 7.2438012423922267 -7.8290347627071037 0.0980392157 0.0980392157 0.0980392157
v -1.0735348001320582 6.6267669522557044 -5.1839639377947799 0.0980392157 0.0980392157 0.0980392157
v -1.1847806412625168 9.1556066563015257 -5.9849641521467873 0.0980392157 0.0980392157 0.0980392157
v -1.0735348001320582 6.6267669522557044 -5.1839639377947799 0.0980392157 0.0980392157 0.0980392157
v -1.383371318201716 9.985455142883314 -4.820571333691503 0.0980392157 0.0980392157 0.0980392157
v -1.2800357854433657 7.0175084317382748 5.8790786611990855 0.0980392157 0.0980392157 0.0980392157
v -1.390565883604002 8.9148029318529431 5.1742169435486671 0.0980392157 0.0980392157 0.0980392157
v -1.71538726318804 5.992541676766364 4.6157459026336349 0.0980392157 0.0980392157 0.0980392157
v -0.093025328640100713 9.4680767255850711 8.814315416723554 0.0980392157 0.0980392157 0.0980392157
v -1.390565883604002 8.9148029318529431 5.1742169435486671 0.0980392157 0.0980392157 0.0980392157
v -1.6701778187478342 9.1358118207390646 9.0702833277572754 0.0980392157 0.0980392157 0.0980392157
v -1.6701778187478342 9.1358118207390646 9.0702833277572754 0.0980392157 0.0980392157 0.0980392157
v -1.390565883604002 8.9148029318529431 5.1742169435486671 0.0980392157 0.0980392157 0.0980392157
v -1.5818751947439105 6.3534065246941918 7.9169896135376518 0.0980392157 0.0980392157 0.0980392157
v -1.2800357854433657 7.0175084317382748 5.8790786611990855 0.0980392157 0.0980392157 0.0980392157
v -1.5818751947439105 6.3534065246941918 7.9169896135376518 0.0980392157 0.0980392157 0.0980392157
v -1.390565883604002 8.9148029318529431 5.1742169435486671 0.0980392157 0.0980392157 0.0980392157
v -0.79940743338951537 6.8174728975101626 9.4647846906585276 0.0980392157 0.0980392157 0.0980392157
v -1.6701778187478342 9.1358118207390646 9.0702833277572754 0.0980392157 0.0980392157 0.0980392157
v -1.5818751947439105 6.3534065246941918 7.9169896135376518 0.0980392157 0.0980392157 0.0980392157
v 1.1273891916733048 8.5815726188539756 -9.6567234427549646 0.0980392157 0.0980392157 0.0980392157
v -0.077956415490350928 6.4813160342431608 -9.2821602075979737 0.0980392157 0.0980392157 0.0980392157
v -1.1493604642497668 8.2662299365257823 -9.624354689426676 0.0980392157 0.0980392157 0.0980392157
v 1.2793048533716576 10.08684861117602 -4.8259439065898482 0.0980392157 0.0980392157 0.0980392157
v -1.1847806412625168 9.1556066563015257 -5.9849641521467873 0.0980392157 0.0980392157 0.0980392157
v -1.383371318201716 9.985455142883314 -4.820571333691503 0.0980392157 0.0980392157 0.0980392157
v 0.48474385139998444 12.523285610617615 4.2413184724137114 0.0980392157 0.0980392157 0.0980392157
v 0.03382134799735978 12.512346557283744 -3.6286718586944073 0.0980392157 0.0980392157 0.0980392157
v -2.4141177622822974 11.957652712143766 4.2156470819460337 0.0980392157 0.0980392157 0.0980392157
v 1.0774245202943966 6.8691059194918767 6.1713920622649834 0.0980392157 0.0980392157 0.0980392157
v -1.71538726318804 5.992541676766364 4.6157459026336349 0.0980392157 0.0980392157 0.0980392157
v 1.6524063491504482 5.9722448141479845 4.5719526224418008 0.0980392157 0.0980392157 0.0980392157
v -1.2800357854433657 7.0175084317382748 5.8790786611990855 0.0980392157 0.0980392157 0.0980392157
v 0.69010684388000709 5.8467614648427197 7.7360053717136745 0.0980392157 0.0980392157 0.0980392157
v -1.5818751947439105 6.3534065246941918 7.9169896135376518 0.0980392157 0.0980392157 0.0980392157
v -1.2800357854433657 7.0175084317382748 5.8790786611990855 0.0980392157 0.0980392157 0.0980392157
v -0.79940743338951537 6.8174728975101626 9.4647846906585276 0.0980392157 0.0980392157 0.0980392157
v 0.764483085618747 6.7806363863530308 9.3581232872065314 0.0980392157 0.0980392157 0.0980392157
v 1.3858886715243206 8.7754909876562994 9.408034449721363 0.0980392157 0.0980392157 0.0980392157
v -1.4392150424636698 9.9883602744475493 -7.8951148350463471 0.0980392157 0.0980392157 0.0980392157
v 1.6552593806577796 9.7418382417229807 -7.7034200633877061 0.0980392157 0.0980392157 0.0980392157
v 1.1273891916733048 8.5815726188539756 -9.6567234427549646 0.0980392157 0.0980392157 0.0980392157
v 1.6552593806577796 9.7418382417229807 -7.7034200633877061 0.0980392157 0.0980392157 0.0980392157
v -1.4392150424636698 9.9883602744475493 -7.8951148350463471 0.0980392157 0.0980392157 0.0980392157
v -1.1847806412625168 9.1556066563015257 -5.9849641521467873 0.0980392157 0.0980392157 0.0980392157
v 1.9311189786742098 12.123871813025296 -4.3384737876042996 0.0980392157 0.0980392157 0.0980392157
v -0.093025328640100713 9.4680767255850711 8.814315416723554 0.0980392157 0.0980392157 0.0980392157
v 0.12008854707795003 9.8562836226330042 5.0070753787056406 0.0980392157 0.0980392157 0.0980392157
v 1.0774245202943966 6.8691059194918767 6.1713920622649834 0.0980392157 0.0980392157 0.0980392157
v 2.14315023104992 7.2792147672414043 7.8742632932052565 0.0980392157 0.0980392157 0.0980392157
v 0.69010684388000709 5.8467614648427197 7.7360053717136745 0.0980392157 0.0980392157 0.0980392157
v 1.0774245202943966 6.8691059194918767 6.1713920622649834 0.0980392157 0.0980392157 0.0980392157
v 0.69010684388000709 5.8467614648427197 7.7360053717136745 0.0980392157 0.0980392157 0.0980392157
v 0.764483085618747 6.7806363863530308 9.3581232872065314 0.0980392157 0.0980392157 0.0980392157
v -1.5818751947439105 6.3534065246941918 7.9169896135376518 0.0980392157 0.0980392157 0.0980392157
v 2.14315023104992 7.2792147672414043 7.8742632932052565 0.0980392157 0.0980392157 0.0980392157
v 0.764483085618747 6.7806363863530308 9.3581232872065314 0.0980392157 0.0980392157 0.0980392157
v 0.69010684388000709 5.8467614648427197 7.7360053717136745 0.0980392157 0.0980392157 0.0980392157
v 1.5130839295126894 6.9352742630460655 -5.1742950086763004 0.0980392157 0.0980392157 0.0980392157
v 1.7096504950786142 6.7303138282846433 -7.7211040075483428 0.0980392157 0.0980392157 0.0980392157
v 1.0407237472026267 9.0234752623280414 -5.916514275718523 0.0980392157 0.0980392157 0.0980392157
v 1.7096504950786142 6.7303138282846433 -7.7211040075483428 0.0980392157 0.0980392157 0.0980392157
v -0.077956415490350928 6.4813160342431608 -9.2821602075979737 0.0980392157 0.0980392157 0.0980392157
v 1.1273891916733048 8.5815726188539756 -9.6567234427549646 0.0980392157 0.0980392157 0.0980392157
v 0.12008854707795003 9.8562836226330042 5.0070753787056406 0.0980392157 0.0980392157 0.0980392157
v 1.2312253308720877 8.8336307128782146 6.2881525993567324 0.0980392157 0.0980392157 0.0980392157
v 1.6852811824867369 9.5314663801039146 4.9216177947236011 0.0980392157 0.0980392157 0.0980392157
v -0.093025328640100713 9.4680767255850711 8.814315416723554 0.0980392157 0.0980392157 0.0980392157
v 1.2312253308720877 8.8336307128782146 6.2881525993567324 0.0980392157 0.0980392157 0.0980392157
v 1.6905049784013721 9.336505258986957 7.7940190000798246 0.0980392157 0.0980392157 0.0980392157
v 1.2312253308720877 8.8336307128782146 6.2881525993567324 0.0980392157 0.0980392157 0.0980392157
v -0.093025328640100713 9.4680767255850711 8.814315416723554 0.0980392157 0.0980392157 0.0980392157
v 1.3858886715243206 8.7754909876562994 9.408034449721363 0.0980392157 0.0980392157 0.0980392157
v 1.6905049784013721 9.336505258986957 7.7940190000798246 0.0980392157 0.0980392157 0.0980392157
v -0.093025328640100713 9.4680767255850711 8.814315416723554 0.0980392157 0.0980392157 0.0980392157
v 1.6552593806577796 9.7418382417229807 -7.7034200633877061 0.0980392157 0.0980392157 0.0980392157
v 1.7096504950786142 6.7303138282846433 -7.7211040075483428 0.0980392157 0.0980392157 0.0980392157
v 1.1273891916733048 8.5815726188539756 -9.6567234427549646 0.0980392157 0.0980392157 0.0980392157
v 1.7096504950786142 6.7303138282846433 -7.7211040075483428 0.0980392157 0.0980392157 0.0980392157
v 1.6552593806577796 9.7418382417229807 -7.7034200633877061 0.0980392157 0.0980392157 0.0980392157
v 1.0407237472026267 9.0234752623280414 -5.916514275718523 0.0980392157 0.0980392157 0.0980392157
v 1.2793048533716576 10.08684861117602 -4.8259439065898482 0.0980392157 0.0980392157 0.0980392157
v 1.5130839295126894 6.9352742630460655 -5.1742950086763004 0.0980392157 0.0980392157 0.0980392157
v 1.0407237472026267 9.0234752623280414 -5.916514275718523 0.0980392157 0.0980392157 0.0980392157
v 2.4003458656388443 11.843797806075663 3.9720823967891183 0.0980392157 0.0980392157 0.0980392157
v 4.0910326305105649 9.9293378228094227 4.4331342281697399 0.0980392157 0.0980392157 0.0980392157
v 2.4003458656388443 11.843797806075663 3.9720823967891183 0.0980392157 0.0980392157 0.0980392157
v 0.48474385139998444 12.523285610617615 4.2413184724137114 0.0980392157 0.0980392157 0.0980392157
v 1.6524063491504482 5.9722448141479845 4.5719526224418008 0.0980392157 0.0980392157 0.0980392157
v 1.6852811824867369 9.5314663801039146 4.9216177947236011 0.0980392157 0.0980392157 0.0980392157
v 1.2312253308720877 8.8336307128782146 6.2881525993567324 0.0980392157 0.0980392157 0.0980392157
v 1.0774245202943966 6.8691059194918767 6.1713920622649834 0.0980392157 0.0980392157 0.0980392157
v 4.0910326305105649 9.9293378228094227 4.4331342281697399 0.0980392157 0.0980392157 0.0980392157
v 1.6852811824867369 9.5314663801039146 4.9216177947236011 0.0980392157 0.0980392157 0.0980392157
v 1.6524063491504482 5.9722448141479845 4.5719526224418008 0.0980392157 0.0980392157 0.0980392157
v 2.14315023104992 7.2792147672414043 7.8742632932052565 0.0980392157 0.0980392157 0.0980392157
v 1.2312253308720877 8.8336307128782146 6.2881525993567324 0.0980392157 0.0980392157 0.0980392157
v 1.6905049784013721 9.336505258986957 7.7940190000798246 0.0980392157 0.0980392157 0.0980392157
v 2.14315023104992 7.2792147672414043 7.8742632932052565 0.0980392157 0.0980392157 0.0980392157
v 1.0774245202943966 6.8691059194918767 6.1713920622649834 0.0980392157 0.0980392157 0.0980392157
v 1.2312253308720877 8.8336307128782146 6.2881525993567324 0.0980392157 0.0980392157 0.0980392157
v 0.764483085618747 6.7806363863530308 9.3581232872065314 0.0980392157 0.0980392157 0.0980392157
v 1.6905049784013721 9.336505258986957 7.7940190000798246 0.0980392157 0.0980392157 0.0980392157
v 1.3858886715243206 8.7754909876562994 9.408034449721363 0.0980392157 0.0980392157 0.0980392157
v 2.14315023104992 7.2792147672414043 7.8742632932052565 0.0980392157 0.0980392157 0.0980392157
v 1.6905049784013721 9.336505258986957 7.7940190000798246 0.0980392157 0.0980392157 0.0980392157
v 0.764483085618747 6.7806363863530308 9.3581232872065314 0.0980392157 0.0980392157 0.0980392157
v 4.0910326305105649 9.9293378228094227 4.4331342281697399 0.0980392157 0.0980392157 0.0980392157
v 4.0384395943508746 10.228008488534989 -4.3249248108218428 0.0980392157 0.0980392157 0.0980392157
v 2.4003458656388443 11.843797806075663 3.9720823967891183 0.0980392157 0.0980392157 0.0980392157
v 4.5 8 4 0.0980392157 0.0980392157 0.0980392157
v 4.5116687313736579 3.7533553529605741 0.34612848961506631 0.0980392157 0.0980392157 0.0980392157
v 4.4468595542179425 -0.17778445104562479 -4.4310091072958011 0.0980392157 0.0980392157 0.0980392157
v 4.499913002207272 8.0009539421936786 -4.0010670235047545 0.0980392157 0.0980392157 0.0980392157
v 4.3860953952300772 -0.65416885216140486 4.4430670055054851 0.0980392157 0.0980392157 0.0980392157
v 4.5116687313736579 3.7533553529605741 0.34612848961506631 0.0980392157 0.0980392157 0.0980392157
v 4.3625724064638289 -3.3898412701227523 -2.9257794755393789 0.0980392157 0.0980392157 0.0980392157
v 4.231061015560293 -4.2045551239103398 1.8887116913068114 0.0980392157 0.0980392157 0.0980392157
v 4.2823688915762732 -4.3622171121106854 -1.2509755175617572 0.0980392157 0.0980392157 0.0980392157
v 5.0532994531732234 1.2450307884702951 -0.96382201870765316 0.0980392157 0.0980392157 0.0980392157
v 4.4468595542179425 -0.17778445104562479 -4.4310091072958011 0.0980392157 0.0980392157 0.0980392157
v 4.5116687313736579 3.7533553529605741 0.34612848961506631 0.0980392157 0.0980392157 0.0980392157
v 5.0312828387434338 1.3797724725126734 1.0112123775348276 0.0980392157 0.0980392157 0.0980392157
v 5.0532994531732234 1.2450307884702951 -0.96382201870765316 0.0980392157 0.0980392157 0.0980392157
v 4.3860953952300772 -0.65416885216140486 4.4430670055054851 0.0980392157 0.0980392157 0.0980392157
v 5.0312828387434338 1.3797724725126734 1.0112123775348276 0.0980392157 0.0980392157 0.0980392157
v 4.3860953952300772 -0.65416885216140486 4.4430670055054851 0.0980392157 0.0980392157 0.0980392157
v 5.0245176770375117 -0.54551377858617323 1.4718963790677184 0.0980392157 0.0980392157 0.0980392157
v 4.3860953952300772 -0.65416885216140486 4.4430670055054851 0.0980392157 0.0980392157 0.0980392157
v 4.2852057767314298 -2.3992571680989236 3.8221847391911936 0.0980392157 0.0980392157 0.0980392157
v 5.0245176770375117 -0.54551377858617323 1.4718963790677184 0.0980392157 0.0980392157 0.0980392157
v 4.2852057767314298 -2.3992571680989236 3.8221847391911936 0.0980392157 0.0980392157 0.0980392157
v 5.0245176770375117 -0.54551377858617323 1.4718963790677184 0.0980392157 0.0980392157 0.0980392157
v -4.1006858868935874 9.9624693596053877 -4.2219446284564865 0.0980392157 0.0980392157 0.0980392157
v 4.4468595542179425 -0.17778445104562479 -4.4310091072958011 0.0980392157 0.0980392157 0.0980392157
v 4.0384395943508746 10.228008488534989 -4.3249248108218428 0.0980392157 0.0980392157 0.0980392157
v 4.499913002207272 8.0009539421936786 -4.0010670235047545 0.0980392157 0.0980392157 0.0980392157
v -4.2487968937105762 -4.1962746793737251 -1.7924456889100235 0.0980392157 0.0980392157 0.0980392157
v -4.2514031465726747 -4.4332706245161342 1.3431767339433676 0.0980392157 0.0980392157 0.0980392157
v -4.2487968937105762 -4.1962746793737251 -1.7924456889100235 0.0980392157 0.0980392157 0.0980392157
v 4.231061015560293 -4.2045551239103398 1.8887116913068114 0.0980392157 0.0980392157 0.0980392157
v 1.7096504950786142 6.7303138282846433 -7.7211040075483428 0.0980392157 0.0980392157 0.0980392157
v 1.0407237472026267 9.0234752623280414 -5.916514275718523 0.0980392157 0.0980392157 0.0980392157
v 4.4468595542179425 -0.17778445104562479 -4.4310091072958011 0.0980392157 0.0980392157 0.0980392157
v 4.3625724064638289 -3.3898412701227523 -2.9257794755393789 0.0980392157 0.0980392157 0.0980392157
v 3.9346188749607371 -2.0888097216964461 -4.0522636869009121 0.0980392157 0.0980392157 0.0980392157
v -1.383371318201716 9.985455142883314 -4.820571333691503 0.0980392157 0.0980392157 0.0980392157
v 4.9136707621268867 -1.4065164912160486 0.59713553437950917 0.0980392157 0.0980392157 0.0980392157
v 4.231061015560293 -4.2045551239103398 1.8887116913068114 0.0980392157 0.0980392157 0.0980392157
v -4.7879778754815661 1.3050954235698504 0.94015748712722502 0.0980392157 0.0980392157 0.0980392157
v 4.9136707621268867 -1.4065164912160486 0.59713553437950917 0.0980392157 0.0980392157 0.0980392157
v 5.0532994531732234 1.2450307884702951 -0.96382201870765316 0.0980392157 0.0980392157 0.0980392157
v -1.390565883604002 8.9148029318529431 5.1742169435486671 0.0980392157 0.0980392157 0.0980392157
v -0.79940743338951537 6.8174728975101626 9.4647846906585276 0.0980392157 0.0980392157 0.0980392157
v 1.9311189786742098 12.123871813025296 -4.3384737876042996 0.0980392157 0.0980392157 0.0980392157
v -4.7879778754815661 1.3050954235698504 0.94015748712722502 0.0980392157 0.0980392157 0.0980392157
v -1.6701778187478342 9.1358118207390646 9.0702833277572754 0.0980392157 0.0980392157 0.0980392157
v -0.093025328640100713 9.4680767255850711 8.814315416723554 0.0980392157 0.0980392157 0.0980392157
v -1.1493604642497668 8.2662299365257823 -9.624354689426676 0.0980392157 0.0980392157 0.0980392157
v 1.5130839295126894 6.9352742630460655 -5.1742950086763004 0.0980392157 0.0980392157 0.0980392157
v -1.0735348001320582 6.6267669522557044 -5.1839639377947799 0.0980392157 0.0980392157 0.0980392157
v 4.2852057767314298 -2.3992571680989236 3.8221847391911936 0.0980392157 0.0980392157 0.0980392157
v 1.0407237472026267 9.0234752623280414 -5.916514275718523 0.0980392157 0.0980392157 0.0980392157
v -5.5740225655169988 9.3637710152532438 -3.4055438636222668 0.0980392157 0.0980392157 0.0980392157
v 4.8915366620122755 -0.33587005849647267 -1.5060480323582743 0.0980392157 0.0980392157 0.0980392157
vn -0.99430572986602783 -0.10656523704528809 0
vn -0.99983227252960205 0.018315840512514114 0
vn -0.98823648691177368 -0.15293358266353607 0
vn -0.84042274951934814 -0.5419313907623291 0
vn -0.84042274951934814 -0.5419313907623291 0
vn -0.84042274951934814 -0.5419313907623291 0
vn -0.84042274951934814 -0.5419313907623291 0
vn -0.70596212148666382 -0.064987555146217346 -0.7052617073059082
vn -0.66595923900604248 -0.08630746603012085 -0.7409786581993103
vn -0.63244205713272095 0.25177082419395447 -0.73254930973052979
vn -0.52979004383087158 -0.11997348070144653 -0.83960044384002686
vn -0.1144820898771286 0.99342530965805054 -4.019557309220545E-05
vn -0.37327215075492859 0.92772012948989868 -0.0018013590015470982
vn -0.070395410060882568 0.99751901626586914 0.00057999405544251204
vn -0.69148653745651245 0.060407292097806931 0.71985924243927002
vn -0.59251612424850464 0.019127096980810165 0.80533146858215332
vn -0.66189330816268921 -0.008153112605214119 0.74955374002456665
vn -0.71234279870986938 0.032342113554477692 -0.70108610391616821
vn -0.70710676908493042 0 -0.70710676908493042
vn -0.71443498134613037 -0.19286251068115234 -0.67259699106216431
vn -0.98203706741333008 0.17794725298881531 -0.062753252685070038
vn -0.99999445676803589 -0.0023464255500584841 0.0023552654311060905
vn -0.99995201826095581 0.0088748252019286156 -0.0041427789255976677
vn 0.073842234909534454 -0.4342302680015564 -0.8977702260017395
vn -0.011169353500008583 -0.40990996360778809 -0.91205757856369019
vn 0 -0.014383748173713684 -0.99989652633666992
vn -0.032608833163976669 -0.0088353240862488747 -0.99942916631698608
vn -0.033613443374633789 -0.13425841927528381 -0.99037611484527588
vn -0.70085740089416504 0 0.71330142021179199
vn -0.70569407939910889 0.043446626514196396 0.7071833610534668
vn -0.98787117004394531 0.13877967000007629 0.069647461175918579
vn -0.9996187686920166 -0.026315696537494659 0.0083554573357105255
vn -1 0 0
vn -0.92927360534667969 0.0034543215297162533 0.36937597393989563
vn -0.90313088893890381 0.099954500794410706 0.41756877303123474
vn -0.73023605346679688 0.13149198889732361 -0.67042165994644165
vn -0.92916631698608398 -0.12274152040481567 -0.34868967533111572
vn -0.98379909992218018 -0.17587007582187653 0.034771069884300232
vn -0.62566310167312622 -0.40725937485694885 -0.66534614562988281
vn -0.99048203229904175 0.0047194482758641243 -0.13756121695041656
vn -0.65050315856933594 -0.75436347723007202 -0.088212154805660248
vn -0.95943444967269897 -0.28192928433418274 0.0011745779775083065
vn -0.99999350309371948 -0.0035197357647120953 -0.00077958172187209129
vn -0.99926465749740601 0.029187431558966637 0.02486446313560009
vn -0.98365932703018188 -0.14167213439941406 -0.11110034584999084
vn -0.96302205324172974 0.26934248208999634 -0.0065656085498631001
vn -0.86688143014907837 -0.17394647002220154 0.46718218922615051
vn -0.91244208812713623 -0.38722908496856689 -0.13229930400848389
vn -0.94914567470550537 -0.15336991846561432 0.27495488524436951
vn -0.99994206428527832 0.0091926828026771545 -0.0056037269532680511
vn 0 -0.27947607636451721 -0.96015262603759766
vn 0 -0.27947607636451721 -0.96015262603759766
vn 0 -0.27947607636451721 -0.96015262603759766
vn 0 -0.86110383272171021 0.50842916965484619
vn 0 -0.80626612901687622 -0.59155303239822388
vn 0 -0.82017749547958374 0.5721091628074646
vn 0 -0.27947607636451721 0.96015262603759766
vn 0 -0.27947607636451721 0.96015262603759766
vn 0 -0.27947607636451721 0.96015262603759766
vn 6.4329427118536842E-08 0.67451572418212891 0.73826050758361816
vn 1.449839572842393E-07 0.92954504489898682 0.36870849132537842
vn -5.6114668467444062E-08 0.90010899305343628 0.4356648325920105
vn -2.8349566250085445E-08 0.68808907270431519 -0.72562623023986816
vn 1.823842410431098E-07 0.92695975303649902 -0.37516084313392639
vn 6.0362626008725329E-09 0.70253592729568481 -0.71164828538894653
vn 0.99376118183135986 0.015004416927695274 -0.11051533371210098
vn 0.99981319904327393 0.0119880186393857 0.015159366652369499
vn 0.99999821186065674 0.00031912792474031448 0.0018536027055233717
vn 0.99994760751724243 -0.0074464692734181881 -0.0070227216929197311
vn 1.3511500185359182E-07 0.9117550253868103 -0.41073447465896606
vn -0.84519922733306885 -0.50462275743484497 0.17605164647102356
vn -0.99993038177490234 0.0054364204406738281 -0.010475288145244122
vn -0.70506739616394043 -0.43818813562393188 0.55755817890167236
vn -0.67069530487060547 -0.19484028220176697 0.71568500995635986
vn -0.69072794914245605 -0.68820971250534058 0.22195111215114594
vn -0.15498465299606323 -0.20589335262775421 0.96622341871261597
vn -0.051746983081102371 0.042878750711679459 0.99773925542831421
vn -0.020094214007258415 -0.046002600342035294 0.99873918294906616
vn 0.056677188724279404 -0.14137190580368042 0.98833274841308594
vn -0.011032112874090672 -0.059504799544811249 0.99816703796386719
vn -0.2089456170797348 0.1648709625005722 -0.96392911672592163
vn -0.017129059880971909 -0.0027525159530341625 -0.99984949827194214
vn 0.1047724261879921 -0.029091937467455864 -0.99407064914703369
vn 0.0012390465708449483 -0.0075308815576136112 -0.99997085332870483
vn -0.0056747887283563614 -0.018422819674015045 -0.99981415271759033
vn 0.1068582758307457 0.18232084810733795 -0.97741514444351196
vn -0.02721637487411499 -0.037355519831180573 -0.99893134832382202
vn -0.20536606013774872 0.18389931321144104 -0.96125221252441406
vn -0.092106066644191742 0.2798498272895813 -0.95561528205871582
vn 0.25914499163627625 0.11306367814540863 -0.95919781923294067
vn 0.62370449304580688 -0.074088484048843384 -0.7781410813331604
vn -0.3834957480430603 -0.13286738097667694 -0.91393506526947021
vn -0.89706116914749146 0.43896907567977905 0.050867136567831039
vn -0.54583728313446045 0.82644945383071899 0.13799597322940826
vn -0.90479016304016113 0.41956251859664917 -0.072952672839164734
vn 0.071126341819763184 -0.47063741087913513 -0.87945520877838135
vn 0.020762097090482712 -0.79046386480331421 -0.61215674877166748
vn -0.20667363703250885 -0.57962369918823242 -0.78824001550674438
vn 0.10576599091291428 -0.95662611722946167 -0.27144071459770203
vn -0.092319346964359283 -0.8978884220123291 -0.43043404817581177
vn 0.9647642970085144 -0.26302385330200195 0.006947321817278862
vn 0.041622664779424667 -0.82277673482894897 0.56683856248855591
vn -0.032863512635231018 -0.58555322885513306 0.80996757745742798
vn -0.071325227618217468 -0.60875475406646729 0.79014581441879272
vn 0.17923001945018768 -0.17128606140613556 0.96878153085708618
vn -0.29407480359077454 -0.15596647560596466 0.94297111034393311
vn -0.36451303958892822 0.012071943841874599 0.93112003803253174
vn -0.0058040390722453594 0.020697293803095818 0.99976891279220581
vn 0.042146388441324234 -0.0024271458387374878 0.99910849332809448
vn 0.21890677511692047 0.2132163792848587 0.95216524600982666
vn 0.6971781849861145 0.45618972182273865 0.55302214622497559
vn -0.083055503666400909 0.012447679415345192 0.99646717309951782
vn -0.098835453391075134 0.13208408653736115 0.98629879951477051
vn 0.0924106165766716 -0.19672746956348419 0.97609353065490723
vn 0.0012375854421406984 0.32991215586662292 0.94401085376739502
vn -0.27472522854804993 0.50218719244003296 0.81995981931686401
vn 0.70578378438949585 0.021113557741045952 0.70811259746551514
vn 0.68902188539505005 0.14638535678386688 0.70980286598205566
vn 0.72278851270675659 -0.056110367178916931 0.68878763914108276
vn -0.43766534328460693 0.89753514528274536 -0.053663086146116257
vn 0.054878514260053635 0.16013191640377045 -0.98556894063949585
vn 0.011383576318621635 -0.1255919486284256 -0.99201667308807373
vn -0.5007815957069397 0.34786328673362732 0.79259628057479858
vn -0.43527451157569885 0.4866560697555542 0.75743114948272705
vn -0.6386755108833313 -0.14850357174873352 0.75501006841659546
vn -0.91713285446166992 -0.1276458352804184 -0.37758961319923401
vn -0.91713285446166992 -0.1276458352804184 -0.37758961319923401
vn -0.91713285446166992 -0.1276458352804184 -0.37758961319923401
vn -0.23164829611778259 -0.97252851724624634 -0.022965004667639732
vn -0.3633144199848175 -0.93150985240936279 -0.017087232321500778
vn -0.39843392372131348 -0.83400076627731323 -0.38169774413108826
vn -0.92672282457351685 0.10710795968770981 0.36015644669532776
vn -0.92672282457351685 0.10710795968770981 0.36015644669532776
vn -0.92672282457351685 0.10710795968770981 0.36015644669532776
vn -0.49366247653961182 -0.86962777376174927 -0.0067018717527389526
vn -0.8833993673324585 0.46071961522102356 -0.085690982639789581
vn -0.95265388488769531 -0.12498359382152557 -0.27718156576156616
vn -0.86575120687484741 0.44158786535263062 -0.23553130030632019
vn -0.91833639144897461 -0.39130029082298279 0.059518124908208847
vn -0.96071493625640869 0.23051388561725616 0.15456424653530121
vn -0.86711210012435913 0.074424721300601959 0.49252161383628845
vn -0.21333654224872589 0.92997783422470093 -0.29938066005706787
vn -0.21333654224872589 0.92997783422470093 -0.29938066005706787
vn -0.21333654224872589 0.92997783422470093 -0.29938066005706787
vn -0.43767830729484558 0.24927873909473419 0.86388528347015381
vn -0.45681723952293396 0.15216509997844696 0.87644952535629272
vn -0.45869094133377075 -0.27623263001441956 0.84456980228424072
vn -0.9461066722869873 0.32385510206222534 0
vn -0.9461066722869873 0.32385510206222534 0
vn -0.9461066722869873 0.32385510206222534 0
vn -0.9117584228515625 0.12793102860450745 0.3902951180934906
vn -0.9117584228515625 0.12793102860450745 0.3902951180934906
vn -0.9117584228515625 0.12793102860450745 0.3902951180934906
vn 0.24950000643730164 -0.0078074214980006218 -0.96834331750869751
vn -0.043874107301235199 0.01260710135102272 -0.99895751476287842
vn -0.088330626487731934 0.022158095613121986 -0.99584472179412842
vn 0.076714560389518738 0.82251042127609253 -0.56355255842208862
vn -0.18611441552639008 0.80115938186645508 -0.56877505779266357
vn 0.0069201979786157608 0.74850612878799438 -0.66309177875518799
vn 0.12166582047939301 0.98973280191421509 0.075009286403656006
vn -0.011248900555074215 0.99559116363525391 -0.093122176826000214
vn -0.49187859892845154 0.86880922317504883 0.05679752305150032
vn 0.13936048746109009 -0.83485150337219238 0.5325426459312439
vn -0.22467972338199615 -0.71708524227142334 0.65977853536605835
vn 0.22178773581981659 -0.80413150787353516 0.55152761936187744
vn -0.45869457721710205 -0.48444896936416626 0.74492180347442627
vn 0.21462814509868622 -0.89171814918518066 -0.39846387505531311
vn -0.48123225569725037 -0.75042504072189331 -0.45307585597038269
vn -0.52563732862472534 -0.72894352674484253 -0.43857350945472717
vn 0.027754360809922218 -0.0090589998289942741 0.99957370758056641
vn 0.073670566082000732 -0.069154709577560425 0.99488204717636108
vn 0.29246529936790466 0.16169834136962891 0.94250607490539551
vn -0.41318634152412415 0.81676316261291504 -0.40270954370498657
vn 0.36244970560073853 0.8056570291519165 -0.46855840086936951
vn 0.47138383984565735 0.74390971660614014 -0.47370409965515137
vn 0.53511011600494385 0.72014611959457397 0.44164097309112549
vn -0.33894389867782593 0.86370944976806641 0.37299200892448425
vn -0.43266180157661438 0.82586044073104858 0.36160516738891602
vn 0.40323379635810852 0.91410928964614868 -0.042504865676164627
vn -0.025446813553571701 0.99915271997451782 -0.032346669584512711
vn -0.057031679898500443 0.99835461378097534 0.0059582088142633438
vn 0.47128093242645264 -0.7948223352432251 -0.38229790329933167
vn 0.50516426563262939 -0.36244297027587891 -0.78322672843933105
vn 0.30259394645690918 -0.5638081431388855 -0.76847726106643677
vn 0.42136514186859131 -0.45456653833389282 -0.78474241495132446
vn 0.22280013561248779 -0.86026012897491455 0.4585985541343689
vn 0.20068272948265076 -0.86593061685562134 0.45813816785812378
vn -0.40156376361846924 -0.79658478498458862 0.45188409090042114
vn 0.41104906797409058 -0.29102820158004761 0.86391043663024902
vn 0.32141792774200439 -0.38769146800041199 0.86393624544143677
vn 0.2467319518327713 -0.45923283696174622 0.85336309671401978
vn 0.87922430038452148 -0.46167099475860596 -0.11757779866456985
vn 0.056689906865358353 -0.99833810329437256 0.010357022285461426
vn 0.40481221675872803 0.54017770290374756 -0.73779070377349854
vn 0.691689133644104 -0.47970366477966309 -0.53986155986785889
vn 0.15847626328468323 -0.9712601900100708 -0.17759191989898682
vn 0.97136622667312622 -0.22155486047267914 -0.085796922445297241
vn 0.3829345703125 0.62163901329040527 0.68331986665725708
vn 0.3829345703125 0.62163901329040527 0.68331986665725708
vn 0.3829345703125 0.62163901329040527 0.68331986665725708
vn 0.12431085854768753 0.99223631620407104 -0.0037228458095341921
vn 0.81208425760269165 0.58289754390716553 0.02737845852971077
vn -0.10106708854436874 0.99487960338592529 0
vn -0.10106708854436874 0.99487960338592529 0
vn -0.10106708854436874 0.99487960338592529 0
vn 0.065415561199188232 0.94141662120819092 0.33084067702293396
vn 0.065415561199188232 0.94141662120819092 0.33084067702293396
vn 0.065415561199188232 0.94141662120819092 0.33084067702293396
vn 0.91581195592880249 -0.11341889202594757 -0.38525918126106262
vn 0.91581195592880249 -0.11341889202594757 -0.38525918126106262
vn 0.91581195592880249 -0.11341889202594757 -0.38525918126106262
vn 0.94973158836364746 -0.31306532025337219 0
vn 0.94973158836364746 -0.31306532025337219 0
vn 0.94973158836364746 -0.31306532025337219 0
vn 0.84500342607498169 0 -0.53476089239120483
vn 0.84500342607498169 0 -0.53476089239120483
vn 0.84500342607498169 0 -0.53476089239120483
vn 0.44398272037506104 0.89589422941207886 -0.015902211889624596
vn 0.63418614864349365 0.30217498540878296 0.71168684959411621
vn 0.39510425925254822 0.60268235206604004 0.69330120086669922
vn 0.1070031002163887 0.72967922687530518 0.67536550760269165
vn 0.85343509912490845 -0.36272716522216797 0.37426930665969849
vn 0.94785600900650024 0.098989211022853851 0.30293580889701843
vn 0.95755726099014282 0.28737711906433105 0.022326689213514328
vn 0.90894591808319092 -0.25884711742401123 0.32682642340660095
vn -0.1499779224395752 0.5128244161605835 0.84529149532318115
vn 0.025711033493280411 0.0070441984571516514 0.99964457750320435
vn 0.050715066492557526 -0.14847385883331299 0.98761504888534546
vn 0.59038031101226807 -0.12077723443508148 -0.79803752899169922
vn 0.61804455518722534 0.15545342862606049 -0.77061998844146729
vn 0.5567048192024231 0.35375517606735229 -0.75162291526794434
vn 0.95226508378982544 0.30527228116989136 0
vn 0.95226508378982544 0.30527228116989136 0
vn 0.95226508378982544 0.30527228116989136 0
vn 0.94993746280670166 -0.31243816018104553 -0.0010797291761264205
vn 0.94993746280670166 -0.31243816018104553 -0.0010797291761264205
vn 0.94993746280670166 -0.31243816018104553 -0.0010797291761264205
vn 0.47072988748550415 -0.10020718723535538 0.8765682578086853
vn 0.45981001853942871 0.29713714122772217 0.83682990074157715
vn 0.45096865296363831 -0.37024968862533569 0.8121221661567688
vn 0.90938609838485718 0.4127042293548584 0.051885787397623062
vn 0.88804608583450317 0.44754904508590698 -0.10523314028978348
vn 0.52891921997070312 0.84632480144500732 0.06307750940322876
vn 0.99989640712738037 0.014395463280379772 0
vn 0.98664551973342896 -0.020002014935016632 0.16164928674697876
vn 0.99124759435653687 0.054596967995166779 -0.12019725143909454
vn 0.99995380640029907 0.0096104200929403305 -2.4967275749077089E-06
vn 0.99726366996765137 -0.01823917031288147 0.071641147136688232
vn 0.99086916446685791 0.13103762269020081 0.031741105020046234
vn 0.99908941984176636 -0.017591020092368126 -0.038869522511959076
vn 0.99907845258712769 0.0041933213360607624 0.042715452611446381
vn 0.99930030107498169 0.036758795380592346 -0.0069043203257024288
vn 0.89083367586135864 0.04786725714802742 -0.45180091261863708
vn 0.8898162841796875 0.053832080215215683 -0.45313256978988647
vn 0.89328658580780029 0.032562728971242905 -0.44830653071403503
vn 0.98486500978469849 0.16102252900600433 0.064130149781703949
vn 0.99061501026153564 -0.073185175657272339 -0.11543739587068558
vn 0.25666585564613342 0.51097339391708374 0.82038336992263794
vn 0.99960833787918091 0.0095457695424556732 0.026307059451937675
vn 0.99947154521942139 0.032228052616119385 -0.0042431922629475594
vn 0.99991053342819214 0.010057255625724792 0.0088210171088576317
vn 0.7376168966293335 0.09762980043888092 0.66812402009963989
vn 0.90104657411575317 0.057348974049091339 0.42991411685943604
vn 0.90136492252349854 -0.1380445659160614 0.41046914458274841
vn 0.99877405166625977 0.045254208147525787 0.02006138302385807
vn 0.84481650590896606 -0.51517903804779053 0.14448399841785431
vn -0.36887642741203308 0.92947721481323242 0.0014991227071732283
vn 0.70730525255203247 -0.026889480650424957 -0.70639663934707642
vn 0.70621579885482788 0.023475771769881248 -0.70760732889175415
vn 0.70492660999298096 0.045186642557382584 -0.70783936977386475
vn 0.26254197955131531 -0.79650765657424927 -0.54465329647064209
vn -0.10125775635242462 -0.96215420961380005 0.25299444794654846
vn -0.036736816167831421 -0.9219057559967041 -0.38566854596138
vn 0.063554786145687103 -0.91129511594772339 0.40681940317153931
vn 0.89030015468597412 -0.45334929227828979 0.04289565235376358
vn 0.90387964248657227 0.42312711477279663 -0.062969006597995758
vn 0.73066383600234985 -0.15711678564548492 -0.66441303491592407
vn 0.69152629375457764 -0.44028821587562561 -0.57265841960906982
vn 0.7060694694519043 -0.32390481233596802 -0.62972342967987061
vn -0.88167744874954224 0.15343232452869415 -0.44620999693870544
vn 0.99969017505645752 0.024359449744224548 0.0051179383881390095
vn 0.053775019943714142 -0.91893386840820312 0.39072850346565247
vn 0 -0.87764942646026611 -0.47930306196212769
vn -5.5012147726074545E-08 0.96583449840545654 -0.25915953516960144
vn 0 -0.27947607636451721 0.96015262603759766
vn -0.057403270155191422 0.70398879051208496 0.70788747072219849
vn -0.33860298991203308 -0.7924884557723999 0.50725740194320679
vn 0.33521360158920288 0.9290432333946228 0.15655830502510071
vn 0 -0.27947607636451721 -0.96015262603759766
vn -0.20730093121528625 0.047258883714675903 0.9771350622177124
vn -0.02068326435983181 0.044523574411869049 0.99879419803619385
vn -0.36708194017410278 0.83085513114929199 -0.41824707388877869
vn 0.19500128924846649 -0.24129945039749146 -0.9506571888923645
vn -0.15557755529880524 -0.33517733216285706 -0.92922103404998779
vn 0.058146268129348755 -0.49130386114120483 0.8690451979637146
vn 0.50149232149124146 0.7438090443611145 0.44187504053115845
vn -0.99885272979736328 0.047887790948152542 0
vn 6.4762382123717543E-09 0.69100981950759888 0.72284537553787231
usemtl vc_191919__Default
f 2//2 297//297 3//3 1//1
f 4//4 5//5 6//6
f 4//4 6//6 7//7
f 8//8 9//9 10//10
f 10//10 9//9 11//11
f 12//12 13//13 14//14
f 15//15 16//16 17//17
f 18//18 8//8 10//10
f 18//18 19//19 8//8
f 19//19 20//20 8//8
f 21//21 22//22 23//23
f 24//24 25//25 26//26
f 27//27 28//28 26//26
f 15//15 29//29 30//30
f 31//31 32//32 33//33
f 21//21 31//31 33//33
f 34//34 32//32 35//35
f 36//36 21//21 37//37
f 38//38 39//39 40//40
f 38//38 41//41 42//42
f 43//43 44//44 45//45
f 21//21 46//46 31//31
f 47//47 48//48 49//49
f 50//50 45//45 38//38
f 45//45 50//50 43//43
f 53//53 289//289 51//51 52//52
f 54//54 55//55 56//56
f 57//57 58//58 59//59
f 62//62 298//298 60//60 61//61
f 63//63 64//64 65//65
f 66//66 67//67 68//68
f 68//68 69//69 66//66
f 62//62 61//61 70//70
f 71//71 72//72 32//32
f 73//73 74//74 75//75
f 76//76 77//77 78//78
f 78//78 80//80 79//79 76//76
f 81//81 27//27 82//82
f 83//83 84//84 85//85
f 28//28 83//83 85//85
f 84//84 86//86 87//87
f 86//86 88//88 89//89
f 90//90 84//84 83//83
f 91//91 90//90 83//83
f 91//91 83//83 28//28
f 92//92 28//28 27//27
f 93//93 94//94 95//95
f 96//96 97//97 98//98
f 99//99 100//100 97//97
f 101//101 66//66 69//69
f 102//102 103//103 104//104
f 78//78 104//104 105//105
f 106//106 107//107 77//77
f 108//108 109//109 79//79
f 110//110 111//111 112//112
f 112//112 113//113 114//114
f 115//115 113//113 116//116
f 117//117 118//118 119//119
f 120//120 95//95 94//94
f 121//121 122//122 89//89
f 123//123 124//124 125//125
f 126//126 127//127 128//128
f 129//129 130//130 131//131
f 132//132 133//133 134//134
f 135//135 130//130 129//129
f 136//136 137//137 138//138
f 139//139 140//140 141//141
f 142//142 143//143 144//144
f 145//145 146//146 147//147
f 148//148 149//149 150//150
f 151//151 152//152 153//153
f 154//154 155//155 156//156
f 157//157 158//158 159//159
f 160//160 161//161 162//162
f 163//163 164//164 165//165
f 163//163 166//166 164//164
f 167//167 168//168 169//169
f 170//170 171//171 172//172
f 173//173 174//174 175//175
f 178//178 296//296 176//176 177//177
f 161//161 179//179 120//120
f 180//180 181//181 140//140
f 167//167 169//169 182//182
f 183//183 184//184 185//185
f 186//186 187//187 188//188
f 189//189 190//190 191//191
f 192//192 135//135 193//193
f 157//157 194//194 158//158
f 195//195 196//196 197//197
f 198//198 199//199 200//200
f 201//201 202//202 181//181
f 203//203 204//204 205//205
f 206//206 207//207 208//208
f 209//209 210//210 211//211
f 212//212 213//213 214//214
f 215//215 216//216 217//217
f 218//218 179//179 160//160
f 219//219 220//220 221//221
f 222//222 223//223 224//224
f 225//225 222//222 224//224
f 226//226 227//227 228//228
f 229//229 230//230 231//231
f 232//232 233//233 234//234
f 235//235 236//236 237//237
f 238//238 239//239 240//240
f 241//241 242//242 243//243
f 241//241 244//244 242//242
f 245//245 246//246 247//247
f 248//248 249//249 244//244
f 246//246 101//101 250//250
f 251//251 252//252 250//250
f 101//101 251//251 250//250
f 253//253 254//254 255//255
f 256//256 257//257 249//249
f 258//258 256//256 249//249
f 259//259 260//260 261//261
f 262//262 263//263 264//264
f 265//265 251//251 101//101 266//266
f 13//13 267//267 14//14
f 28//28 85//85 26//26
f 268//268 269//269 270//270
f 97//97 271//271 98//98
f 99//99 272//272 273//273
f 274//274 104//104 272//272
f 160//160 179//179 161//161
f 192//192 275//275 276//276
f 249//249 247//247 244//244
f 277//277 278//278 279//279
f 15//15 17//17 29//29
f 92//92 27//27 280//280
f 101//101 69//69 281//281
f 272//272 99//99 282//282
f 261//261 101//101 281//281
f 21//21 33//33 22//22
f 55//55 283//283 56//56
f 62//62 70//70 284//284
f 244//244 247//247 242//242
f 57//57 59//59 285//285
f 115//115 116//116 286//286
f 187//187 287//287 188//188
f 242//242 288//288 243//243
f 290//290 172//172 291//291
f 24//24 26//26 85//85
f 173//173 175//175 292//292
f 86//86 89//89 87//87
f 293//293 28//28 294//294
f 104//104 295//295 105//105
f 110//110 112//112 115//115
f 64//64 70//70 65//65
f 161//161 120//120 162//162
f 170//170 172//172 290//290
f 135//135 129//129 193//193
