# Dual color encoding: per-vertex RGB for Rerun, face MTL colors for legacy RViz.
mtllib sim_gene01_l_hand_thumb_1.mtl
# Rhino

g sim_gene01_l_hand_thumb_1
v 18.386172088913739 -5.883124797047353 -5.1911856238098029 0.0980392157 0.0980392157 0.0980392157
v 18.192052169915442 1.6646345571139634 -7.5475723665833208 0.0980392157 0.0980392157 0.0980392157
v 18.402669812849695 7.2299015391121664 -0.66369339663087756 0.0980392157 0.0980392157 0.0980392157
v 17.825454716475136 -4.0830681749316566 1.5262702755033486 0.0980392157 0.0980392157 0.0980392157
v 18.18134374063024 -4.2184708422901345 6.1860577007817428 0.0980392157 0.0980392157 0.0980392157
v 17.232671077629853 -7.3072977332729296 1.9985134007558663 0.0980392157 0.0980392157 0.0980392157
v 18.386172088913739 -5.883124797047353 -5.1911856238098029 0.0980392157 0.0980392157 0.0980392157
v 18.18134374063024 -4.2184708422901345 6.1860577007817428 0.0980392157 0.0980392157 0.0980392157
v 18.386588183261566 5.4492947166308703 4.994228885801177 0.0980392157 0.0980392157 0.0980392157
v 18.386588183261566 5.4492947166308703 4.994228885801177 0.0980392157 0.0980392157 0.0980392157
v 17.902374875738779 1.2512397386134504 7.5387826329856091 0.0980392157 0.0980392157 0.0980392157
v 18.18134374063024 -4.2184708422901345 6.1860577007817428 0.0980392157 0.0980392157 0.0980392157
v 17.825454716475136 -4.0830681749316566 1.5262702755033486 0.0980392157 0.0980392157 0.0980392157
v 14.329365238963327 0.027547022379075164 -0.40832229515101542 0.0980392157 0.0980392157 0.0980392157
v 18.386588183261566 5.4492947166308703 4.994228885801177 0.0980392157 0.0980392157 0.0980392157
v 14.329365238963327 0.027547022379075164 -0.40832229515101542 0.0980392157 0.0980392157 0.0980392157
v 18.386172088913739 -5.883124797047353 -5.1911856238098029 0.0980392157 0.0980392157 0.0980392157
v 18.402669812849695 7.2299015391121664 -0.66369339663087756 0.0980392157 0.0980392157 0.0980392157
v 14.329365238963327 0.027547022379075164 -0.40832229515101542 0.0980392157 0.0980392157 0.0980392157
v 18.402669812849695 7.2299015391121664 -0.66369339663087756 0.0980392157 0.0980392157 0.0980392157
v 18.386588183261566 5.4492947166308703 4.994228885801177 0.0980392157 0.0980392157 0.0980392157
v 2.144616012146447 7.6663372970873152 -0.55891037186256365 0.0980392157 0.0980392157 0.0980392157
v 1.8547981695596751 6.4660076134917066 3.8430485092061 0.0980392157 0.0980392157 0.0980392157
v 18.386588183261566 5.4492947166308703 4.994228885801177 0.0980392157 0.0980392157 0.0980392157
v 18.402669812849695 7.2299015391121664 -0.66369339663087756 0.0980392157 0.0980392157 0.0980392157
v 18.143956676367942 6.2861108890639832 -4.0528762059925221 0.0980392157 0.0980392157 0.0980392157
v 1.9589609860486898 5.2017747506138932 -5.3512781286211792 0.0980392157 0.0980392157 0.0980392157
v 18.192052169915442 1.6646345571139634 -7.5475723665833208 0.0980392157 0.0980392157 0.0980392157
v -8.2304678630767309 2.305519731805326 7.0581271820481177 0.0980392157 0.0980392157 0.0980392157
v 18.386172088913739 -5.883124797047353 -5.1911856238098029 0.0980392157 0.0980392157 0.0980392157
v 3.4408603491949066 -0.54814931179022519 -7.5634639911270023 0.0980392157 0.0980392157 0.0980392157
v 18.386172088913739 -5.883124797047353 -5.1911856238098029 0.0980392157 0.0980392157 0.0980392157
v -7.6277714107568553 14.483954742369574 6.654836015897958 0.0980392157 0.0980392157 0.0980392157
v -7.343551872436155 14.405296308125825 -7.3381138432759876 0.0980392157 0.0980392157 0.0980392157
v -19.449129000595821 14.436028620654485 6.8450162076625514 0.0980392157 0.0980392157 0.0980392157
v -37.605072453839853 14.476262465821598 5.7574329858642557 0.0980392157 0.0980392157 0.0980392157
v -29.376684413293255 14.498252705551652 -6.9891313212343507 0.0980392157 0.0980392157 0.0980392157
v -42.135770140818508 14.21842038904833 -8.4284673576735969 0.0980392157 0.0980392157 0.0980392157
v -14.995662689208984 12.920534133911133 -7.4499998092651367 0.0980392157 0.0980392157 0.0980392157
v -29.376684413293255 14.498252705551652 -6.9891313212343507 0.0980392157 0.0980392157 0.0980392157
v -7.343551872436155 14.405296308125825 -7.3381138432759876 0.0980392157 0.0980392157 0.0980392157
v -7.343551872436155 14.405296308125825 -7.3381138432759876 0.0980392157 0.0980392157 0.0980392157
v -7.6277714107568553 14.483954742369574 6.654836015897958 0.0980392157 0.0980392157 0.0980392157
v -4.7992848929730219 9.960007583002815 -3.7156687848234466 0.0980392157 0.0980392157 0.0980392157
v -4.7992848929730219 9.960007583002815 -3.7156687848234466 0.0980392157 0.0980392157 0.0980392157
v -7.6277714107568553 14.483954742369574 6.654836015897958 0.0980392157 0.0980392157 0.0980392157
v -4.0754387425659573 9.5916286052196575 2.9180704036631342 0.0980392157 0.0980392157 0.0980392157
v -4.7992848929730219 9.960007583002815 -3.7156687848234466 0.0980392157 0.0980392157 0.0980392157
v -4.0754387425659573 9.5916286052196575 2.9180704036631342 0.0980392157 0.0980392157 0.0980392157
v -10.107928268652012 10.64235324544196 -10.985423867322867 0.0980392157 0.0980392157 0.0980392157
v -7.343551872436155 14.405296308125825 -7.3381138432759876 0.0980392157 0.0980392157 0.0980392157
v -4.7992848929730219 9.960007583002815 -3.7156687848234466 0.0980392157 0.0980392157 0.0980392157
v -4.186147657898232 6.0246773980168102 -7.5959100150152539 0.0980392157 0.0980392157 0.0980392157
v -10.107928268652012 10.64235324544196 -10.985423867322867 0.0980392157 0.0980392157 0.0980392157
v -4.7992848929730219 9.960007583002815 -3.7156687848234466 0.0980392157 0.0980392157 0.0980392157
v 1.9589609860486898 5.2017747506138932 -5.3512781286211792 0.0980392157 0.0980392157 0.0980392157
v -4.186147657898232 6.0246773980168102 -7.5959100150152539 0.0980392157 0.0980392157 0.0980392157
v -8.2304678630767309 2.305519731805326 7.0581271820481177 0.0980392157 0.0980392157 0.0980392157
v -4.0754387425659573 9.5916286052196575 2.9180704036631342 0.0980392157 0.0980392157 0.0980392157
v -10.805233704639141 11.332619420150575 7.8865641427115154 0.0980392157 0.0980392157 0.0980392157
v -4.0754387425659573 9.5916286052196575 2.9180704036631342 0.0980392157 0.0980392157 0.0980392157
v -7.6277714107568553 14.483954742369574 6.654836015897958 0.0980392157 0.0980392157 0.0980392157
v -8.2304678630767309 2.305519731805326 7.0581271820481177 0.0980392157 0.0980392157 0.0980392157
v -4.186147657898232 6.0246773980168102 -7.5959100150152539 0.0980392157 0.0980392157 0.0980392157
v 1.9589609860486898 5.2017747506138932 -5.3512781286211792 0.0980392157 0.0980392157 0.0980392157
v 3.4408603491949066 -0.54814931179022519 -7.5634639911270023 0.0980392157 0.0980392157 0.0980392157
v -6.3868812897065439 6.5599209205646414 -14.607024049406723 0.0980392157 0.0980392157 0.0980392157
v -10.107928268652012 10.64235324544196 -10.985423867322867 0.0980392157 0.0980392157 0.0980392157
v -4.186147657898232 6.0246773980168102 -7.5959100150152539 0.0980392157 0.0980392157 0.0980392157
v -6.3868812897065439 6.5599209205646414 -14.607024049406723 0.0980392157 0.0980392157 0.0980392157
v -12.912168173950882 11.126139975609393 -14.89402735228018 0.0980392157 0.0980392157 0.0980392157
v -10.107928268652012 10.64235324544196 -10.985423867322867 0.0980392157 0.0980392157 0.0980392157
v -29.431812026273853 11.536785011427098 -10.689045443387215 0.0980392157 0.0980392157 0.0980392157
v -29.376684413293255 14.498252705551652 -6.9891313212343507 0.0980392157 0.0980392157 0.0980392157
v -14.995662689208984 12.920534133911133 -7.4499998092651367 0.0980392157 0.0980392157 0.0980392157
v -10.107928268652012 10.64235324544196 -10.985423867322867 0.0980392157 0.0980392157 0.0980392157
v -14.995662689208984 12.920534133911133 -7.4499998092651367 0.0980392157 0.0980392157 0.0980392157
v -7.343551872436155 14.405296308125825 -7.3381138432759876 0.0980392157 0.0980392157 0.0980392157
v -29.431812026273853 11.536785011427098 -10.689045443387215 0.0980392157 0.0980392157 0.0980392157
v -14.995662689208984 12.920534133911133 -7.4499998092651367 0.0980392157 0.0980392157 0.0980392157
v -10.107928268652012 10.64235324544196 -10.985423867322867 0.0980392157 0.0980392157 0.0980392157
v -29.431812026273853 11.536785011427098 -10.689045443387215 0.0980392157 0.0980392157 0.0980392157
v -10.107928268652012 10.64235324544196 -10.985423867322867 0.0980392157 0.0980392157 0.0980392157
v -12.912168173950882 11.126139975609393 -14.89402735228018 0.0980392157 0.0980392157 0.0980392157
v -6.3868812897065439 6.5599209205646414 -14.607024049406723 0.0980392157 0.0980392157 0.0980392157
v -12.12926371030111 -1.0972671466522712 -14.822480480670986 0.0980392157 0.0980392157 0.0980392157
v -12.912168173950882 11.126139975609393 -14.89402735228018 0.0980392157 0.0980392157 0.0980392157
v -12.912168173950882 11.126139975609393 -14.89402735228018 0.0980392157 0.0980392157 0.0980392157
v -35.001299675505201 10.881998768969233 -14.864694995955933 0.0980392157 0.0980392157 0.0980392157
v -29.376684413293255 14.498252705551652 -6.9891313212343507 0.0980392157 0.0980392157 0.0980392157
v -29.431812026273853 11.536785011427098 -10.689045443387215 0.0980392157 0.0980392157 0.0980392157
v -35.001299675505201 10.881998768969233 -14.864694995955933 0.0980392157 0.0980392157 0.0980392157
v -34.944761000892683 13.083280721465862 -10.279716405310179 0.0980392157 0.0980392157 0.0980392157
v 17.232671077629853 -7.3072977332729296 1.9985134007558663 0.0980392157 0.0980392157 0.0980392157
v 18.18134374063024 -4.2184708422901345 6.1860577007817428 0.0980392157 0.0980392157 0.0980392157
v 2.3279812416883168 -7.0080902593342573 2.8952678630079949 0.0980392157 0.0980392157 0.0980392157
v -4.2656996751450489 -3.6589520645169422 6.6081663954942247 0.0980392157 0.0980392157 0.0980392157
v 17.902374875738779 1.2512397386134504 7.5387826329856091 0.0980392157 0.0980392157 0.0980392157
v 0.36201419971751014 -7.1295042580320054 -3.9019795777899655 0.0980392157 0.0980392157 0.0980392157
v -19.449129000595821 14.436028620654485 6.8450162076625514 0.0980392157 0.0980392157 0.0980392157
v -10.805233704639141 11.332619420150575 7.8865641427115154 0.0980392157 0.0980392157 0.0980392157
v -7.6277714107568553 14.483954742369574 6.654836015897958 0.0980392157 0.0980392157 0.0980392157
v -6.3868812897065439 6.5599209205646414 -14.607024049406723 0.0980392157 0.0980392157 0.0980392157
v -4.186147657898232 6.0246773980168102 -7.5959100150152539 0.0980392157 0.0980392157 0.0980392157
v -11.214994163689248 0.70800569309047856 -8.7231412859867881 0.0980392157 0.0980392157 0.0980392157
v -6.5972731083184311 -1.2346837628786593 -7.5177595018271335 0.0980392157 0.0980392157 0.0980392157
v -11.214994163689248 0.70800569309047856 -8.7231412859867881 0.0980392157 0.0980392157 0.0980392157
v -4.186147657898232 6.0246773980168102 -7.5959100150152539 0.0980392157 0.0980392157 0.0980392157
v -8.4749926374500362 -4.1185485770030859 -14.479287722979665 0.0980392157 0.0980392157 0.0980392157
v -11.214994163689248 0.70800569309047856 -8.7231412859867881 0.0980392157 0.0980392157 0.0980392157
v -6.5972731083184311 -1.2346837628786593 -7.5177595018271335 0.0980392157 0.0980392157 0.0980392157
v -5.5384093109029946 -4.82724693120299 -14.059925815886361 0.0980392157 0.0980392157 0.0980392157
v -7.1179839158414282 -6.6386252187299482 -7.8991460751602744 0.0980392157 0.0980392157 0.0980392157
v -6.5972731083184311 -1.2346837628786593 -7.5177595018271335 0.0980392157 0.0980392157 0.0980392157
v -12.092219742328856 -3.7893267466141527 -10.4416667103115 0.0980392157 0.0980392157 0.0980392157
v -6.5972731083184311 -1.2346837628786593 -7.5177595018271335 0.0980392157 0.0980392157 0.0980392157
v -7.1179839158414282 -6.6386252187299482 -7.8991460751602744 0.0980392157 0.0980392157 0.0980392157
v -12.092219742328856 -3.7893267466141527 -10.4416667103115 0.0980392157 0.0980392157 0.0980392157
v -8.4749926374500362 -4.1185485770030859 -14.479287722979665 0.0980392157 0.0980392157 0.0980392157
v -6.5972731083184311 -1.2346837628786593 -7.5177595018271335 0.0980392157 0.0980392157 0.0980392157
v -2.5496833324432373 -1.5844926834106445 -7.4499998092651367 0.0980392157 0.0980392157 0.0980392157
v -5.5384093109029946 -4.82724693120299 -14.059925815886361 0.0980392157 0.0980392157 0.0980392157
v -6.5972731083184311 -1.2346837628786593 -7.5177595018271335 0.0980392157 0.0980392157 0.0980392157
v -2.5496833324432373 -1.5844926834106445 -7.4499998092651367 0.0980392157 0.0980392157 0.0980392157
v -7.1179839158414282 -6.6386252187299482 -7.8991460751602744 0.0980392157 0.0980392157 0.0980392157
v 3.4408603491949066 -0.54814931179022519 -7.5634639911270023 0.0980392157 0.0980392157 0.0980392157
v -5.5384093109029946 -4.82724693120299 -14.059925815886361 0.0980392157 0.0980392157 0.0980392157
v -2.5496833324432373 -1.5844926834106445 -7.4499998092651367 0.0980392157 0.0980392157 0.0980392157
v -7.1179839158414282 -6.6386252187299482 -7.8991460751602744 0.0980392157 0.0980392157 0.0980392157
v -34.850117883281463 -11.055686205343253 -14.944763091749575 0.0980392157 0.0980392157 0.0980392157
v -35.001299675505201 10.881998768969233 -14.864694995955933 0.0980392157 0.0980392157 0.0980392157
v -13.07005108925043 -10.740263232563752 -14.833642062057445 0.0980392157 0.0980392157 0.0980392157
v -18.835190362372259 -10.999447132392859 -14.922553086424095 0.0980392157 0.0980392157 0.0980392157
v -8.4749926374500362 -4.1185485770030859 -14.479287722979665 0.0980392157 0.0980392157 0.0980392157
v -5.5384093109029946 -4.82724693120299 -14.059925815886361 0.0980392157 0.0980392157 0.0980392157
v -8.4749926374500362 -4.1185485770030859 -14.479287722979665 0.0980392157 0.0980392157 0.0980392157
v -19.449129000595821 14.436028620654485 6.8450162076625514 0.0980392157 0.0980392157 0.0980392157
v -16.402578188813724 5.276956538769717 13.919573733848395 0.0980392157 0.0980392157 0.0980392157
v -10.805233704639141 11.332619420150575 7.8865641427115154 0.0980392157 0.0980392157 0.0980392157
v -13.607917818535494 -1.4114388299363432 9.1110213031628646 0.0980392157 0.0980392157 0.0980392157
v -8.2304678630767309 2.305519731805326 7.0581271820481177 0.0980392157 0.0980392157 0.0980392157
v -10.805233704639141 11.332619420150575 7.8865641427115154 0.0980392157 0.0980392157 0.0980392157
v -12.12926371030111 -1.0972671466522712 -14.822480480670986 0.0980392157 0.0980392157 0.0980392157
v -6.3868812897065439 6.5599209205646414 -14.607024049406723 0.0980392157 0.0980392157 0.0980392157
v -11.214994163689248 0.70800569309047856 -8.7231412859867881 0.0980392157 0.0980392157 0.0980392157
v -13.607917818535494 -1.4114388299363432 9.1110213031628646 0.0980392157 0.0980392157 0.0980392157
v -16.402578188813724 5.276956538769717 13.919573733848395 0.0980392157 0.0980392157 0.0980392157
v 0.36201419971751014 -7.1295042580320054 -3.9019795777899655 0.0980392157 0.0980392157 0.0980392157
v -7.1179839158414282 -6.6386252187299482 -7.8991460751602744 0.0980392157 0.0980392157 0.0980392157
v -9.0256341963578706 -8.9615869937790347 -10.826663115233883 0.0980392157 0.0980392157 0.0980392157
v -7.1179839158414282 -6.6386252187299482 -7.8991460751602744 0.0980392157 0.0980392157 0.0980392157
v -7.8932294947432879 -12.528347327182157 -7.4321532306654303 0.0980392157 0.0980392157 0.0980392157
v -12.12926371030111 -1.0972671466522712 -14.822480480670986 0.0980392157 0.0980392157 0.0980392157
v -9.0256341963578706 -8.9615869937790347 -10.826663115233883 0.0980392157 0.0980392157 0.0980392157
v -5.5384093109029946 -4.82724693120299 -14.059925815886361 0.0980392157 0.0980392157 0.0980392157
v -7.1179839158414282 -6.6386252187299482 -7.8991460751602744 0.0980392157 0.0980392157 0.0980392157
v -8.4749926374500362 -4.1185485770030859 -14.479287722979665 0.0980392157 0.0980392157 0.0980392157
v -7.1179839158414282 -6.6386252187299482 -7.8991460751602744 0.0980392157 0.0980392157 0.0980392157
v -5.5384093109029946 -4.82724693120299 -14.059925815886361 0.0980392157 0.0980392157 0.0980392157
v -3.6645350595606345 -9.5637726666705021 1.9565964096576247 0.0980392157 0.0980392157 0.0980392157
v -3.6645350595606345 -9.5637726666705021 1.9565964096576247 0.0980392157 0.0980392157 0.0980392157
v 0.36201419971751014 -7.1295042580320054 -3.9019795777899655 0.0980392157 0.0980392157 0.0980392157
v 2.3279812416883168 -7.0080902593342573 2.8952678630079949 0.0980392157 0.0980392157 0.0980392157
v -13.607917818535494 -1.4114388299363432 9.1110213031628646 0.0980392157 0.0980392157 0.0980392157
v -8.2304678630767309 2.305519731805326 7.0581271820481177 0.0980392157 0.0980392157 0.0980392157
v -23.840308378525485 4.8409808067218512 10.088460825486576 0.0980392157 0.0980392157 0.0980392157
v -16.402578188813724 5.276956538769717 13.919573733848395 0.0980392157 0.0980392157 0.0980392157
v -19.449129000595821 14.436028620654485 6.8450162076625514 0.0980392157 0.0980392157 0.0980392157
v -23.840308378525485 4.8409808067218512 10.088460825486576 0.0980392157 0.0980392157 0.0980392157
v -19.449129000595821 14.436028620654485 6.8450162076625514 0.0980392157 0.0980392157 0.0980392157
v -30.263960674538367 11.205006657992541 10.262224973373192 0.0980392157 0.0980392157 0.0980392157
v -9.0256341963578706 -8.9615869937790347 -10.826663115233883 0.0980392157 0.0980392157 0.0980392157
v -8.4749926374500362 -4.1185485770030859 -14.479287722979665 0.0980392157 0.0980392157 0.0980392157
v -12.092219742328856 -3.7893267466141527 -10.4416667103115 0.0980392157 0.0980392157 0.0980392157
v -9.0256341963578706 -8.9615869937790347 -10.826663115233883 0.0980392157 0.0980392157 0.0980392157
v -7.1179839158414282 -6.6386252187299482 -7.8991460751602744 0.0980392157 0.0980392157 0.0980392157
v -8.4749926374500362 -4.1185485770030859 -14.479287722979665 0.0980392157 0.0980392157 0.0980392157
v -37.605072453839853 14.476262465821598 5.7574329858642557 0.0980392157 0.0980392157 0.0980392157
v -30.263960674538367 11.205006657992541 10.262224973373192 0.0980392157 0.0980392157 0.0980392157
v -19.449129000595821 14.436028620654485 6.8450162076625514 0.0980392157 0.0980392157 0.0980392157
v -39.566914193022377 9.1678119936304228 -10.02536888640474 0.0980392157 0.0980392157 0.0980392157
v -34.944761000892683 13.083280721465862 -10.279716405310179 0.0980392157 0.0980392157 0.0980392157
v -35.001299675505201 10.881998768969233 -14.864694995955933 0.0980392157 0.0980392157 0.0980392157
v -4.2656996751450489 -3.6589520645169422 6.6081663954942247 0.0980392157 0.0980392157 0.0980392157
v -6.2567209022128525 -11.097713673721721 3.9922971669761518 0.0980392157 0.0980392157 0.0980392157
v -6.2567209022128525 -11.097713673721721 3.9922971669761518 0.0980392157 0.0980392157 0.0980392157
v -7.8932294947432879 -12.528347327182157 -7.4321532306654303 0.0980392157 0.0980392157 0.0980392157
v -7.1179839158414282 -6.6386252187299482 -7.8991460751602744 0.0980392157 0.0980392157 0.0980392157
v 0.36201419971751014 -7.1295042580320054 -3.9019795777899655 0.0980392157 0.0980392157 0.0980392157
v -7.8932294947432879 -12.528347327182157 -7.4321532306654303 0.0980392157 0.0980392157 0.0980392157
v 0.36201419971751014 -7.1295042580320054 -3.9019795777899655 0.0980392157 0.0980392157 0.0980392157
v -3.6645350595606345 -9.5637726666705021 1.9565964096576247 0.0980392157 0.0980392157 0.0980392157
v -19.782103375045619 0.67066358343112931 7.9300291567530854 0.0980392157 0.0980392157 0.0980392157
v -16.402578188813724 5.276956538769717 13.919573733848395 0.0980392157 0.0980392157 0.0980392157
v -23.840308378525485 4.8409808067218512 10.088460825486576 0.0980392157 0.0980392157 0.0980392157
v -19.782103375045619 0.67066358343112931 7.9300291567530854 0.0980392157 0.0980392157 0.0980392157
v -23.840308378525485 4.8409808067218512 10.088460825486576 0.0980392157 0.0980392157 0.0980392157
v -23.216458158137534 -6.250927462489976 10.353898300431188 0.0980392157 0.0980392157 0.0980392157
v -23.216458158137534 -6.250927462489976 10.353898300431188 0.0980392157 0.0980392157 0.0980392157
v -23.840308378525485 4.8409808067218512 10.088460825486576 0.0980392157 0.0980392157 0.0980392157
v -33.592976059093303 -10.347152890615714 10.115237648624593 0.0980392157 0.0980392157 0.0980392157
v -34.325749001182885 6.9078120376210208 10.047501711094892 0.0980392157 0.0980392157 0.0980392157
v -40.065764925196305 2.8405032936484673 8.963199116129509 0.0980392157 0.0980392157 0.0980392157
v -41.283005948449542 -9.219560714968436 8.7913375366639404 0.0980392157 0.0980392157 0.0980392157
v -41.729566866273736 8.9409691025928026 8.7597674117486939 0.0980392157 0.0980392157 0.0980392157
v -34.325749001182885 6.9078120376210208 10.047501711094892 0.0980392157 0.0980392157 0.0980392157
v -30.263960674538367 11.205006657992541 10.262224973373192 0.0980392157 0.0980392157 0.0980392157
v -9.0256341963578706 -8.9615869937790347 -10.826663115233883 0.0980392157 0.0980392157 0.0980392157
v -12.092219742328856 -3.7893267466141527 -10.4416667103115 0.0980392157 0.0980392157 0.0980392157
v -7.1179839158414282 -6.6386252187299482 -7.8991460751602744 0.0980392157 0.0980392157 0.0980392157
v -13.07005108925043 -10.740263232563752 -14.833642062057445 0.0980392157 0.0980392157 0.0980392157
v -5.5384093109029946 -4.82724693120299 -14.059925815886361 0.0980392157 0.0980392157 0.0980392157
v -9.0256341963578706 -8.9615869937790347 -10.826663115233883 0.0980392157 0.0980392157 0.0980392157
v -42.386346564375891 13.351037856452253 2.8075109740550479 0.0980392157 0.0980392157 0.0980392157
v -39.566914193022377 9.1678119936304228 -10.02536888640474 0.0980392157 0.0980392157 0.0980392157
v -42.135770140818508 14.21842038904833 -8.4284673576735969 0.0980392157 0.0980392157 0.0980392157
v -34.944761000892683 13.083280721465862 -10.279716405310179 0.0980392157 0.0980392157 0.0980392157
v -16.829039658306648 -5.209667080714115 13.428701291045344 0.0980392157 0.0980392157 0.0980392157
v -6.2567209022128525 -11.097713673721721 3.9922971669761518 0.0980392157 0.0980392157 0.0980392157
v -13.607917818535494 -1.4114388299363432 9.1110213031628646 0.0980392157 0.0980392157 0.0980392157
v -7.2551151657003938 -14.415852965667934 5.8099020908291639 0.0980392157 0.0980392157 0.0980392157
v -6.2567209022128525 -11.097713673721721 3.9922971669761518 0.0980392157 0.0980392157 0.0980392157
v -6.9917358690495908 -14.508814600115635 -7.0927560441608648 0.0980392157 0.0980392157 0.0980392157
v -3.6645350595606345 -9.5637726666705021 1.9565964096576247 0.0980392157 0.0980392157 0.0980392157
v -6.2567209022128525 -11.097713673721721 3.9922971669761518 0.0980392157 0.0980392157 0.0980392157
v -13.607917818535494 -1.4114388299363432 9.1110213031628646 0.0980392157 0.0980392157 0.0980392157
v -16.402578188813724 5.276956538769717 13.919573733848395 0.0980392157 0.0980392157 0.0980392157
v -19.782103375045619 0.67066358343112931 7.9300291567530854 0.0980392157 0.0980392157 0.0980392157
v -6.9917358690495908 -14.508814600115635 -7.0927560441608648 0.0980392157 0.0980392157 0.0980392157
v -7.8932294947432879 -12.528347327182157 -7.4321532306654303 0.0980392157 0.0980392157 0.0980392157
v -3.6645350595606345 -9.5637726666705021 1.9565964096576247 0.0980392157 0.0980392157 0.0980392157
v -13.07005108925043 -10.740263232563752 -14.833642062057445 0.0980392157 0.0980392157 0.0980392157
v -9.0256341963578706 -8.9615869937790347 -10.826663115233883 0.0980392157 0.0980392157 0.0980392157
v -7.8932294947432879 -12.528347327182157 -7.4321532306654303 0.0980392157 0.0980392157 0.0980392157
v -41.729566866273736 8.9409691025928026 8.7597674117486939 0.0980392157 0.0980392157 0.0980392157
v -30.263960674538367 11.205006657992541 10.262224973373192 0.0980392157 0.0980392157 0.0980392157
v -37.605072453839853 14.476262465821598 5.7574329858642557 0.0980392157 0.0980392157 0.0980392157
v -42.386346564375891 13.351037856452253 2.8075109740550479 0.0980392157 0.0980392157 0.0980392157
v -41.729566866273736 8.9409691025928026 8.7597674117486939 0.0980392157 0.0980392157 0.0980392157
v -37.605072453839853 14.476262465821598 5.7574329858642557 0.0980392157 0.0980392157 0.0980392157
v -35.299999237060547 3.7434260845184326 -13.198751449584961 0.0980392157 0.0980392157 0.0980392157
v -39.566914193022377 9.1678119936304228 -10.02536888640474 0.0980392157 0.0980392157 0.0980392157
v -35.001299675505201 10.881998768969233 -14.864694995955933 0.0980392157 0.0980392157 0.0980392157
v -38.989271672236583 -0.26267099028453522 -10.52974701906539 0.0980392157 0.0980392157 0.0980392157
v -16.829039658306648 -5.209667080714115 13.428701291045344 0.0980392157 0.0980392157 0.0980392157
v -14.277450391373504 -14.489192030827795 7.1561897880737613 0.0980392157 0.0980392157 0.0980392157
v -7.2551151657003938 -14.415852965667934 5.8099020908291639 0.0980392157 0.0980392157 0.0980392157
v -7.2551151657003938 -14.415852965667934 5.8099020908291639 0.0980392157 0.0980392157 0.0980392157
v -6.9917358690495908 -14.508814600115635 -7.0927560441608648 0.0980392157 0.0980392157 0.0980392157
v -6.2567209022128525 -11.097713673721721 3.9922971669761518 0.0980392157 0.0980392157 0.0980392157
v -16.829039658306648 -5.209667080714115 13.428701291045344 0.0980392157 0.0980392157 0.0980392157
v -13.607917818535494 -1.4114388299363432 9.1110213031628646 0.0980392157 0.0980392157 0.0980392157
v -19.782103375045619 0.67066358343112931 7.9300291567530854 0.0980392157 0.0980392157 0.0980392157
v -14.614334714018378 -11.47207280566834 -8.773584840561929 0.0980392157 0.0980392157 0.0980392157
v -13.07005108925043 -10.740263232563752 -14.833642062057445 0.0980392157 0.0980392157 0.0980392157
v -7.8932294947432879 -12.528347327182157 -7.4321532306654303 0.0980392157 0.0980392157 0.0980392157
v -6.9917358690495908 -14.508814600115635 -7.0927560441608648 0.0980392157 0.0980392157 0.0980392157
v -14.614334714018378 -11.47207280566834 -8.773584840561929 0.0980392157 0.0980392157 0.0980392157
v -7.8932294947432879 -12.528347327182157 -7.4321532306654303 0.0980392157 0.0980392157 0.0980392157
v -34.850117883281463 -11.055686205343253 -14.944763091749575 0.0980392157 0.0980392157 0.0980392157
v -35.299999237060547 3.7434260845184326 -13.198751449584961 0.0980392157 0.0980392157 0.0980392157
v -35.001299675505201 10.881998768969233 -14.864694995955933 0.0980392157 0.0980392157 0.0980392157
v -34.850117883281463 -11.055686205343253 -14.944763091749575 0.0980392157 0.0980392157 0.0980392157
v -44.707281921048917 5.1570391932303821 -9.3385123072746179 0.0980392157 0.0980392157 0.0980392157
v -42.135770140818508 14.21842038904833 -8.4284673576735969 0.0980392157 0.0980392157 0.0980392157
v -39.566914193022377 9.1678119936304228 -10.02536888640474 0.0980392157 0.0980392157 0.0980392157
v -47.362417646642385 5.2710918632480803 -5.4161763344533504 0.0980392157 0.0980392157 0.0980392157
v -42.135770140818508 14.21842038904833 -8.4284673576735969 0.0980392157 0.0980392157 0.0980392157
v -44.707281921048917 5.1570391932303821 -9.3385123072746179 0.0980392157 0.0980392157 0.0980392157
v -44.707281921048917 5.1570391932303821 -9.3385123072746179 0.0980392157 0.0980392157 0.0980392157
v -38.989271672236583 -0.26267099028453522 -10.52974701906539 0.0980392157 0.0980392157 0.0980392157
v -6.9917358690495908 -14.508814600115635 -7.0927560441608648 0.0980392157 0.0980392157 0.0980392157
v -7.2551151657003938 -14.415852965667934 5.8099020908291639 0.0980392157 0.0980392157 0.0980392157
v -14.277450391373504 -14.489192030827795 7.1561897880737613 0.0980392157 0.0980392157 0.0980392157
v -41.02932151397416 -14.494752801824477 -9.2459396121161781 0.0980392157 0.0980392157 0.0980392157
v -20.416160869614465 -14.337832759449579 -6.7716030256184006 0.0980392157 0.0980392157 0.0980392157
v -14.277450391373504 -14.489192030827795 7.1561897880737613 0.0980392157 0.0980392157 0.0980392157
v -32.15735273744518 -14.465310283421992 7.4341078114807955 0.0980392157 0.0980392157 0.0980392157
v -32.15735273744518 -14.465310283421992 7.4341078114807955 0.0980392157 0.0980392157 0.0980392157
v -40.291403525007979 -14.503157244652348 4.6961958985590009 0.0980392157 0.0980392157 0.0980392157
v -40.065764925196305 2.8405032936484673 8.963199116129509 0.0980392157 0.0980392157 0.0980392157
v -34.325749001182885 6.9078120376210208 10.047501711094892 0.0980392157 0.0980392157 0.0980392157
v -37.710350036621094 7.5655713081359863 6.3823709487915039 0.0980392157 0.0980392157 0.0980392157
v -41.729566866273736 8.9409691025928026 8.7597674117486939 0.0980392157 0.0980392157 0.0980392157
v -37.710350036621094 7.5655713081359863 6.3823709487915039 0.0980392157 0.0980392157 0.0980392157
v -34.325749001182885 6.9078120376210208 10.047501711094892 0.0980392157 0.0980392157 0.0980392157
v -20.416160869614465 -14.337832759449579 -6.7716030256184006 0.0980392157 0.0980392157 0.0980392157
v -18.835190362372259 -10.999447132392859 -14.922553086424095 0.0980392157 0.0980392157 0.0980392157
v -14.614334714018378 -11.47207280566834 -8.773584840561929 0.0980392157 0.0980392157 0.0980392157
v -6.9917358690495908 -14.508814600115635 -7.0927560441608648 0.0980392157 0.0980392157 0.0980392157
v -20.416160869614465 -14.337832759449579 -6.7716030256184006 0.0980392157 0.0980392157 0.0980392157
v -14.614334714018378 -11.47207280566834 -8.773584840561929 0.0980392157 0.0980392157 0.0980392157
v -18.835190362372259 -10.999447132392859 -14.922553086424095 0.0980392157 0.0980392157 0.0980392157
v -13.07005108925043 -10.740263232563752 -14.833642062057445 0.0980392157 0.0980392157 0.0980392157
v -36.798806868529553 -10.947700344493057 -11.712383125846577 0.0980392157 0.0980392157 0.0980392157
v -34.850117883281463 -11.055686205343253 -14.944763091749575 0.0980392157 0.0980392157 0.0980392157
v -23.967332724152449 -11.91614540174492 -7.9592273612372635 0.0980392157 0.0980392157 0.0980392157
v -41.02932151397416 -14.494752801824477 -9.2459396121161781 0.0980392157 0.0980392157 0.0980392157
v -36.798806868529553 -10.947700344493057 -11.712383125846577 0.0980392157 0.0980392157 0.0980392157
v -23.967332724152449 -11.91614540174492 -7.9592273612372635 0.0980392157 0.0980392157 0.0980392157
v -20.416160869614465 -14.337832759449579 -6.7716030256184006 0.0980392157 0.0980392157 0.0980392157
v -23.967332724152449 -11.91614540174492 -7.9592273612372635 0.0980392157 0.0980392157 0.0980392157
v -18.835190362372259 -10.999447132392859 -14.922553086424095 0.0980392157 0.0980392157 0.0980392157
v -40.065764925196305 2.8405032936484673 8.963199116129509 0.0980392157 0.0980392157 0.0980392157
v -37.710350036621094 7.5655713081359863 6.3823709487915039 0.0980392157 0.0980392157 0.0980392157
v -41.729566866273736 8.9409691025928026 8.7597674117486939 0.0980392157 0.0980392157 0.0980392157
v -46.432100710044708 5.460773148777136 4.8890506078638998 0.0980392157 0.0980392157 0.0980392157
v -41.729566866273736 8.9409691025928026 8.7597674117486939 0.0980392157 0.0980392157 0.0980392157
v -42.386346564375891 13.351037856452253 2.8075109740550479 0.0980392157 0.0980392157 0.0980392157
v -46.432100710044708 5.460773148777136 4.8890506078638998 0.0980392157 0.0980392157 0.0980392157
v -42.386346564375891 13.351037856452253 2.8075109740550479 0.0980392157 0.0980392157 0.0980392157
v -43.285877633973364 5.3420663868786402 0.44167694725764006 0.0980392157 0.0980392157 0.0980392157
v -46.181677316192122 0.22066453868453775 0.418167922066641 0.0980392157 0.0980392157 0.0980392157
v -46.181677316192122 0.22066453868453775 0.418167922066641 0.0980392157 0.0980392157 0.0980392157
v -43.285877633973364 5.3420663868786402 0.44167694725764006 0.0980392157 0.0980392157 0.0980392157
v -42.135770140818508 14.21842038904833 -8.4284673576735969 0.0980392157 0.0980392157 0.0980392157
v -47.362417646642385 5.2710918632480803 -5.4161763344533504 0.0980392157 0.0980392157 0.0980392157
v -46.181677316192122 0.22066453868453775 0.418167922066641 0.0980392157 0.0980392157 0.0980392157
v -42.135770140818508 14.21842038904833 -8.4284673576735969 0.0980392157 0.0980392157 0.0980392157
v -45.700290001921275 -0.20968581899141925 -12.632838331318265 0.0980392157 0.0980392157 0.0980392157
v -44.707281921048917 5.1570391932303821 -9.3385123072746179 0.0980392157 0.0980392157 0.0980392157
v -38.989271672236583 -0.26267099028453522 -10.52974701906539 0.0980392157 0.0980392157 0.0980392157
v -50.33633925021627 2.5343049514716993 -9.2169088701808786 0.0980392157 0.0980392157 0.0980392157
v -44.707281921048917 5.1570391932303821 -9.3385123072746179 0.0980392157 0.0980392157 0.0980392157
v -14.277450391373504 -14.489192030827795 7.1561897880737613 0.0980392157 0.0980392157 0.0980392157
v -16.829039658306648 -5.209667080714115 13.428701291045344 0.0980392157 0.0980392157 0.0980392157
v -23.216458158137534 -6.250927462489976 10.353898300431188 0.0980392157 0.0980392157 0.0980392157
v -40.065764925196305 2.8405032936484673 8.963199116129509 0.0980392157 0.0980392157 0.0980392157
v -41.729566866273736 8.9409691025928026 8.7597674117486939 0.0980392157 0.0980392157 0.0980392157
v -45.648137131389504 -0.029717509446774759 12.426781610187838 0.0980392157 0.0980392157 0.0980392157
v -45.648137131389504 -0.029717509446774759 12.426781610187838 0.0980392157 0.0980392157 0.0980392157
v -41.729566866273736 8.9409691025928026 8.7597674117486939 0.0980392157 0.0980392157 0.0980392157
v -51.540981880700073 1.9963657831507697 7.9480641113102228 0.0980392157 0.0980392157 0.0980392157
v -46.432100710044708 5.460773148777136 4.8890506078638998 0.0980392157 0.0980392157 0.0980392157
v -51.540981880700073 1.9963657831507697 7.9480641113102228 0.0980392157 0.0980392157 0.0980392157
v -45.700290001921275 -0.20968581899141925 -12.632838331318265 0.0980392157 0.0980392157 0.0980392157
v -50.33633925021627 2.5343049514716993 -9.2169088701808786 0.0980392157 0.0980392157 0.0980392157
v -44.707281921048917 5.1570391932303821 -9.3385123072746179 0.0980392157 0.0980392157 0.0980392157
v -23.216458158137534 -6.250927462489976 10.353898300431188 0.0980392157 0.0980392157 0.0980392157
v -32.15735273744518 -14.465310283421992 7.4341078114807955 0.0980392157 0.0980392157 0.0980392157
v -41.02932151397416 -14.494752801824477 -9.2459396121161781 0.0980392157 0.0980392157 0.0980392157
v -23.967332724152449 -11.91614540174492 -7.9592273612372635 0.0980392157 0.0980392157 0.0980392157
v -20.416160869614465 -14.337832759449579 -6.7716030256184006 0.0980392157 0.0980392157 0.0980392157
v -46.181677316192122 0.22066453868453775 0.418167922066641 0.0980392157 0.0980392157 0.0980392157
v -51.540981880700073 1.9963657831507697 7.9480641113102228 0.0980392157 0.0980392157 0.0980392157
v -46.432100710044708 5.460773148777136 4.8890506078638998 0.0980392157 0.0980392157 0.0980392157
v -51.177248232426777 -0.5121726436009264 -5.0688966894784926 0.0980392157 0.0980392157 0.0980392157
v -36.798806868529553 -10.947700344493057 -11.712383125846577 0.0980392157 0.0980392157 0.0980392157
v -38.989271672236583 -0.26267099028453522 -10.52974701906539 0.0980392157 0.0980392157 0.0980392157
v -34.850117883281463 -11.055686205343253 -14.944763091749575 0.0980392157 0.0980392157 0.0980392157
v -43.983338176471648 -8.3458323374807968 -8.5224109920023849 0.0980392157 0.0980392157 0.0980392157
v -45.700290001921275 -0.20968581899141925 -12.632838331318265 0.0980392157 0.0980392157 0.0980392157
v -38.989271672236583 -0.26267099028453522 -10.52974701906539 0.0980392157 0.0980392157 0.0980392157
v -51.177248232426777 -0.5121726436009264 -5.0688966894784926 0.0980392157 0.0980392157 0.0980392157
v -23.216458158137534 -6.250927462489976 10.353898300431188 0.0980392157 0.0980392157 0.0980392157
v -33.592976059093303 -10.347152890615714 10.115237648624593 0.0980392157 0.0980392157 0.0980392157
v -41.283005948449542 -9.219560714968436 8.7913375366639404 0.0980392157 0.0980392157 0.0980392157
v -40.065764925196305 2.8405032936484673 8.963199116129509 0.0980392157 0.0980392157 0.0980392157
v -45.648137131389504 -0.029717509446774759 12.426781610187838 0.0980392157 0.0980392157 0.0980392157
v -49.288051246714126 -3.4690367369855033 -9.0662293317114013 0.0980392157 0.0980392157 0.0980392157
v -45.700290001921275 -0.20968581899141925 -12.632838331318265 0.0980392157 0.0980392157 0.0980392157
v -45.700290001921275 -0.20968581899141925 -12.632838331318265 0.0980392157 0.0980392157 0.0980392157
v -50.422274056436343 -3.4466919950230652 7.295894174939324 0.0980392157 0.0980392157 0.0980392157
v -51.540981880700073 1.9963657831507697 7.9480641113102228 0.0980392157 0.0980392157 0.0980392157
v -46.181677316192122 0.22066453868453775 0.418167922066641 0.0980392157 0.0980392157 0.0980392157
v -50.422274056436343 -3.4466919950230652 7.295894174939324 0.0980392157 0.0980392157 0.0980392157
v -46.181677316192122 0.22066453868453775 0.418167922066641 0.0980392157 0.0980392157 0.0980392157
v -45.152397099035518 -6.2626096669423585 4.7048609541677067 0.0980392157 0.0980392157 0.0980392157
v -43.089426884594431 -6.3558655183211101 -0.81188169771385832 0.0980392157 0.0980392157 0.0980392157
v -45.152397099035518 -6.2626096669423585 4.7048609541677067 0.0980392157 0.0980392157 0.0980392157
v -46.181677316192122 0.22066453868453775 0.418167922066641 0.0980392157 0.0980392157 0.0980392157
v -51.177248232426777 -0.5121726436009264 -5.0688966894784926 0.0980392157 0.0980392157 0.0980392157
v -43.089426884594431 -6.3558655183211101 -0.81188169771385832 0.0980392157 0.0980392157 0.0980392157
v -46.181677316192122 0.22066453868453775 0.418167922066641 0.0980392157 0.0980392157 0.0980392157
v -41.02932151397416 -14.494752801824477 -9.2459396121161781 0.0980392157 0.0980392157 0.0980392157
v -50.33633925021627 2.5343049514716993 -9.2169088701808786 0.0980392157 0.0980392157 0.0980392157
v -49.288051246714126 -3.4690367369855033 -9.0662293317114013 0.0980392157 0.0980392157 0.0980392157
v -41.283005948449542 -9.219560714968436 8.7913375366639404 0.0980392157 0.0980392157 0.0980392157
v -37.304522393623181 -10.083889865182829 6.3890878440842114 0.0980392157 0.0980392157 0.0980392157
v -33.592976059093303 -10.347152890615714 10.115237648624593 0.0980392157 0.0980392157 0.0980392157
v -50.422274056436343 -3.4466919950230652 7.295894174939324 0.0980392157 0.0980392157 0.0980392157
v -41.283005948449542 -9.219560714968436 8.7913375366639404 0.0980392157 0.0980392157 0.0980392157
v -45.648137131389504 -0.029717509446774759 12.426781610187838 0.0980392157 0.0980392157 0.0980392157
v -43.115406411862217 -12.457612602029466 3.5521309385776898 0.0980392157 0.0980392157 0.0980392157
v -45.152397099035518 -6.2626096669423585 4.7048609541677067 0.0980392157 0.0980392157 0.0980392157
v -43.089426884594431 -6.3558655183211101 -0.81188169771385832 0.0980392157 0.0980392157 0.0980392157
v -43.983338176471648 -8.3458323374807968 -8.5224109920023849 0.0980392157 0.0980392157 0.0980392157
v -43.089426884594431 -6.3558655183211101 -0.81188169771385832 0.0980392157 0.0980392157 0.0980392157
v -49.288051246714126 -3.4690367369855033 -9.0662293317114013 0.0980392157 0.0980392157 0.0980392157
v -51.177248232426777 -0.5121726436009264 -5.0688966894784926 0.0980392157 0.0980392157 0.0980392157
v -49.288051246714126 -3.4690367369855033 -9.0662293317114013 0.0980392157 0.0980392157 0.0980392157
v -40.291403525007979 -14.503157244652348 4.6961958985590009 0.0980392157 0.0980392157 0.0980392157
v -33.592976059093303 -10.347152890615714 10.115237648624593 0.0980392157 0.0980392157 0.0980392157
v -37.304522393623181 -10.083889865182829 6.3890878440842114 0.0980392157 0.0980392157 0.0980392157
v -40.291403525007979 -14.503157244652348 4.6961958985590009 0.0980392157 0.0980392157 0.0980392157
v -32.15735273744518 -14.465310283421992 7.4341078114807955 0.0980392157 0.0980392157 0.0980392157
v -33.592976059093303 -10.347152890615714 10.115237648624593 0.0980392157 0.0980392157 0.0980392157
v -40.291403525007979 -14.503157244652348 4.6961958985590009 0.0980392157 0.0980392157 0.0980392157
v -37.304522393623181 -10.083889865182829 6.3890878440842114 0.0980392157 0.0980392157 0.0980392157
v -41.283005948449542 -9.219560714968436 8.7913375366639404 0.0980392157 0.0980392157 0.0980392157
v -41.283005948449542 -9.219560714968436 8.7913375366639404 0.0980392157 0.0980392157 0.0980392157
v -50.422274056436343 -3.4466919950230652 7.295894174939324 0.0980392157 0.0980392157 0.0980392157
v -45.152397099035518 -6.2626096669423585 4.7048609541677067 0.0980392157 0.0980392157 0.0980392157
v -50.422274056436343 -3.4466919950230652 7.295894174939324 0.0980392157 0.0980392157 0.0980392157
v -45.648137131389504 -0.029717509446774759 12.426781610187838 0.0980392157 0.0980392157 0.0980392157
v -41.283005948449542 -9.219560714968436 8.7913375366639404 0.0980392157 0.0980392157 0.0980392157
v -45.152397099035518 -6.2626096669423585 4.7048609541677067 0.0980392157 0.0980392157 0.0980392157
v -43.115406411862217 -12.457612602029466 3.5521309385776898 0.0980392157 0.0980392157 0.0980392157
v -43.983338176471648 -8.3458323374807968 -8.5224109920023849 0.0980392157 0.0980392157 0.0980392157
v -43.115406411862217 -12.457612602029466 3.5521309385776898 0.0980392157 0.0980392157 0.0980392157
v -40.291403525007979 -14.503157244652348 4.6961958985590009 0.0980392157 0.0980392157 0.0980392157
v -41.283005948449542 -9.219560714968436 8.7913375366639404 0.0980392157 0.0980392157 0.0980392157
v -29.376684413293255 14.498252705551652 -6.9891313212343507 0.0980392157 0.0980392157 0.0980392157
v -34.850117883281463 -11.055686205343253 -14.944763091749575 0.0980392157 0.0980392157 0.0980392157
v -38.989271672236583 -0.26267099028453522 -10.52974701906539 0.0980392157 0.0980392157 0.0980392157
v -41.02932151397416 -14.494752801824477 -9.2459396121161781 0.0980392157 0.0980392157 0.0980392157
v -43.983338176471648 -8.3458323374807968 -8.5224109920023849 0.0980392157 0.0980392157 0.0980392157
v 18.143956676367942 6.2861108890639832 -4.0528762059925221 0.0980392157 0.0980392157 0.0980392157
v -7.343551872436155 14.405296308125825 -7.3381138432759876 0.0980392157 0.0980392157 0.0980392157
v -43.285877633973364 5.3420663868786402 0.44167694725764006 0.0980392157 0.0980392157 0.0980392157
v -42.386346564375891 13.351037856452253 2.8075109740550479 0.0980392157 0.0980392157 0.0980392157
v -23.216458158137534 -6.250927462489976 10.353898300431188 0.0980392157 0.0980392157 0.0980392157
v -16.829039658306648 -5.209667080714115 13.428701291045344 0.0980392157 0.0980392157 0.0980392157
v -19.782103375045619 0.67066358343112931 7.9300291567530854 0.0980392157 0.0980392157 0.0980392157
v -34.944761000892683 13.083280721465862 -10.279716405310179 0.0980392157 0.0980392157 0.0980392157
vn 0.99999421834945679 4.242188879288733E-05 -0.003401799825951457
vn 0.99999773502349854 0.0014943738933652639 0.0015320616075769067
vn 0.99919885396957397 0.035914346575737 0.017656534910202026
vn 0.99439281225204468 -7.5820748861588072E-06 -0.10574913024902344
vn 0.9999731183052063 -7.4725189733726438E-06 -0.0073287603445351124
vn 0.89000141620635986 -0.4533349871635437 0.048834625631570816
vn 0.52597910165786743 -0.23436789214611053 0.81756812334060669
vn 0.82562464475631714 -0.53521615266799927 -0.17857092618942261
vn 0.99996352195739746 0.0081495475023984909 -0.0025499209295958281
vn 0.99999994039535522 -0.00010870452388189733 -0.00037939095636829734
vn 0.99999946355819702 0.00043195765465497971 0.00096665043383836746
vn 0.99996411800384521 0.0036844308488070965 0.0076298690401017666
vn 0.78023743629455566 0.48378649353981018 -0.39645951986312866
vn 0.81936252117156982 0.48202243447303772 -0.31032142043113708
vn 0.53428995609283447 0.2337011992931366 -0.81235337257385254
vn 0.52558952569961548 -0.32863757014274597 0.78469932079315186
vn 0.52558952569961548 -0.32863757014274597 0.78469932079315186
vn 0.52558952569961548 -0.32863757014274597 0.78469932079315186
vn 0.74225383996963501 -0.66748225688934326 -0.059385914355516434
vn 0.78189098834991455 -0.62195324897766113 -0.042669717222452164
vn 0.83131223917007446 -0.49923759698867798 -0.24429847300052643
vn 0.10311511158943176 0.99179762601852417 -0.075529567897319794
vn 0.069137893617153168 0.7896384596824646 0.60966473817825317
vn 0.015780847519636154 0.75196975469589233 0.6590086817741394
vn 0.011822451837360859 0.99655687808990479 -0.082064531743526459
vn 0.03919549286365509 0.81265431642532349 -0.58142644166946411
vn -0.011396336369216442 0.6778106689453125 -0.73514813184738159
vn -0.0025430801324546337 0.20891439914703369 -0.97793060541152954
vn -0.023201221600174904 0.31008780002593994 0.95042479038238525
vn 0.69018328189849854 0.69360506534576416 0.20629850029945374
vn 0.03838830441236496 -0.029849238693714142 -0.99881696701049805
vn 0.013906397856771946 -0.75331377983093262 -0.65751427412033081
vn -0.080946952104568481 0.99459743499755859 0.064988382160663605
vn 0.25160437822341919 0.95561426877975464 -0.15328612923622131
vn -0.025109291076660156 0.99966198205947876 -0.0067457123659551144
vn 0.025294994935393333 0.99887722730636597 0.040055703371763229
vn 0.064012587070465088 0.99506759643554688 -0.075781881809234619
vn -0.23266619443893433 0.97254890203475952 -0.0038856624159961939
vn -0.050622228533029556 0.29878073930740356 -0.95297819375991821
vn 0.82260823249816895 0.21385395526885986 -0.52686071395874023
vn -0.6435282826423645 0.19729398190975189 -0.73955827951431274
vn 0.99647176265716553 -0.082104891538619995 0.01740124449133873
vn 0.34021732211112976 0.9400063157081604 -0.025304142385721207
vn 0.9451286792755127 0.32479041814804077 -0.035256445407867432
vn 0.80251723527908325 0.39042314887046814 -0.45114952325820923
vn 0.80251723527908325 0.39042314887046814 -0.45114952325820923
vn 0.80251723527908325 0.39042314887046814 -0.45114952325820923
vn 0.46835631132125854 0.82449358701705933 -0.31757307052612305
vn 0.39235696196556091 0.90071040391921997 0.1864854097366333
vn 0.58680742979049683 -0.20773275196552277 -0.7826264500617981
vn 0.45287993550300598 -0.15979714691638947 -0.87713432312011719
vn 0.6717953085899353 -0.16056026518344879 -0.72312617301940918
vn 0.74847120046615601 0.46150344610214233 -0.47624093294143677
vn 0.84411704540252686 0.22845222055912018 -0.48505252599716187
vn 0.80400359630584717 0.43809351325035095 -0.40206003189086914
vn 0.41722473502159119 0.67125588655471802 -0.61264926195144653
vn 0.3839377760887146 0.65830177068710327 -0.64748018980026245
vn 0.15526305139064789 0.46454182267189026 0.87183386087417603
vn 0.041035652160644531 0.21746034920215607 0.97520619630813599
vn 0.5423545241355896 -0.057539310306310654 0.83817708492279053
vn 0.6445162296295166 0.13642841577529907 0.75232046842575073
vn 0.68980950117111206 0.22437842190265656 0.68834382295608521
vn 0.67606818675994873 -0.011286004446446896 0.73675262928009033
vn 0.35583540797233582 0.34300372004508972 -0.8693271279335022
vn 0.38268452882766724 0.43123039603233337 -0.81706357002258301
vn 0.3046947717666626 0.35157075524330139 -0.8851887583732605
vn 0.54864501953125 0.83249855041503906 -0.077037997543811798
vn 0.29613438248634338 0.95178961753845215 -0.080006279051303864
vn 0.6572495698928833 0.75009191036224365 -0.073382996022701263
vn 0.59484362602233887 0.70836001634597778 -0.37998312711715698
vn 0.59484362602233887 0.70836001634597778 -0.37998312711715698
vn 0.59484362602233887 0.70836001634597778 -0.37998312711715698
vn 0.48933470249176025 0.64861804246902466 -0.58296328783035278
vn 0.48933470249176025 0.64861804246902466 -0.58296328783035278
vn 0.48933470249176025 0.64861804246902466 -0.58296328783035278
vn -0.36906895041465759 0.66571557521820068 -0.64854520559310913
vn -0.48960244655609131 0.62236279249191284 -0.61069959402084351
vn -0.30652514100074768 0.68289643526077271 -0.66309487819671631
vn 0.3874351978302002 0.86339831352233887 -0.32316762208938599
vn 0.3874351978302002 0.86339831352233887 -0.32316762208938599
vn 0.3874351978302002 0.86339831352233887 -0.32316762208938599
vn 0.0039742114022374153 0.99996423721313477 0.0074622365646064281
vn 0.0064505911432206631 0.99997889995574951 -0.00078624545130878687
vn 0.0098871784284710884 0.99993491172790527 -0.0056908945553004742
vn 0.055727407336235046 0.12322675436735153 -0.99081259965896606
vn 0.05195753276348114 -0.037040822207927704 -0.99796211719512939
vn -0.0088628930971026421 0.088782928884029388 -0.99601155519485474
vn -0.028941527009010315 0.99957895278930664 -0.0020876012276858091
vn 0.048470295965671539 0.98542040586471558 -0.16308657824993134
vn 0.41153725981712341 0.81239098310470581 -0.41310766339302063
vn 0.55713808536529541 0.68840032815933228 -0.46443745493888855
vn 0.23853439092636108 0.81783765554428101 -0.5236821174621582
vn 0.18249955773353577 0.80223345756530762 -0.56843239068984985
vn 0.0052455281838774681 -0.96865993738174438 0.24833518266677856
vn 0.057309955358505249 -0.53693103790283203 0.84167724847793579
vn 0.034523576498031616 -0.91191190481185913 0.40893128514289856
vn -0.0063524921424686909 -0.43687903881072998 0.89949780702590942
vn 0.010368515737354755 0.15800435841083527 0.98738396167755127
vn 0.11214468628168106 -0.8869556188583374 -0.44803264737129211
vn -0.5699925422668457 0.66373169422149658 0.48432299494743347
vn 0.10365334898233414 0.48717159032821655 0.86713314056396484
vn 0.16007959842681885 0.4569602906703949 0.87496387958526611
vn 0.46868497133255005 -0.85733413696289062 -0.21286742389202118
vn 0.46868497133255005 -0.85733413696289062 -0.21286742389202118
vn 0.46868497133255005 -0.85733413696289062 -0.21286742389202118
vn -0.0040871575474739075 -0.00033123366301879287 -0.99999159574508667
vn -0.00068798335269093513 0.027508653700351715 -0.99962133169174194
vn 0.0087474007159471512 -0.046508532017469406 -0.99887961149215698
vn 0.59495836496353149 0.70220702886581421 -0.39106237888336182
vn 0.57017791271209717 0.71548622846603394 -0.40370357036590576
vn 0.6036033034324646 0.67914605140686035 -0.4176405668258667
vn -0.98130851984024048 -0.025324210524559021 -0.19076752662658691
vn -0.98130851984024048 -0.025324210524559021 -0.19076752662658691
vn -0.98130851984024048 -0.025324210524559021 -0.19076752662658691
vn 0.62694847583770752 -0.29194825887680054 -0.7222893238067627
vn 0.59541207551956177 -0.38115274906158447 -0.70725315809249878
vn 0.58136749267578125 -0.41506418585777283 -0.69980961084365845
vn 0.15941788256168365 -0.95548868179321289 0.24824842810630798
vn 0.15941788256168365 -0.95548868179321289 0.24824842810630798
vn 0.15941788256168365 -0.95548868179321289 0.24824842810630798
vn 0.0027189815882593393 0.00027646665694192052 -0.99999624490737915
vn 0.45754095911979675 0.69595980644226074 -0.5534403920173645
vn 0.27513867616653442 0.78609001636505127 -0.55349904298782349
vn 0.57367914915084839 0.61599862575531006 -0.53984987735748291
vn -0.000953871407546103 -9.6989861049223691E-05 -0.9999995231628418
vn 0.0016856581205502152 0.00017139810370281339 -0.99999856948852539
vn 0.87052947282791138 -0.37147128582000732 -0.32278093695640564
vn 0.86281251907348633 -0.40380248427391052 -0.30413508415222168
vn 0.73047548532485962 -0.67396646738052368 -0.11033923178911209
vn -0.0062545058317482471 0.015086316503584385 -0.99986660480499268
vn -0.032954491674900055 -0.023316781967878342 -0.99918484687805176
vn 0.040231615304946899 -0.031147090718150139 -0.99870479106903076
vn -0.01887761615216732 -0.11788960546255112 -0.9928472638130188
vn 0.14620392024517059 -0.13702294230461121 -0.97971892356872559
vn 0.088599711656570435 0.015707783401012421 -0.99594342708587646
vn 0.078659556806087494 0.080645658075809479 -0.99363422393798828
vn -0.33654934167861938 0.80721056461334229 0.48491817712783813
vn -0.33654934167861938 0.80721056461334229 0.48491817712783813
vn -0.33654934167861938 0.80721056461334229 0.48491817712783813
vn 0.27479299902915955 0.16574244201183319 0.94711047410964966
vn 0.39363032579421997 0.20699046552181244 0.89566183090209961
vn 0.396852046251297 0.20809005200862885 0.89398378133773804
vn 0.8854367733001709 -0.28416162729263306 0.367768794298172
vn 0.8854367733001709 -0.28416162729263306 0.367768794298172
vn 0.8854367733001709 -0.28416162729263306 0.367768794298172
vn 0.88243335485458374 0.16194473206996918 0.44168457388877869
vn 0.88089179992675781 0.23940543830394745 0.40830707550048828
vn 0.50162076950073242 -0.80841416120529175 -0.30796605348587036
vn 0.43512415885925293 -0.4574030339717865 -0.77553170919418335
vn 0.82316184043884277 -0.091598838567733765 -0.56036972999572754
vn 0.72370719909667969 -0.080531835556030273 -0.68539220094680786
vn 0.71787762641906738 -0.079883143305778503 -0.6915709376335144
vn 0.63369065523147583 0.7048831582069397 -0.31870964169502258
vn 0.76958960294723511 -0.4738008975982666 0.4280707836151123
vn 0.77242153882980347 -0.43645104765892029 0.46138426661491394
vn 0.74982345104217529 -0.57738018035888672 0.32310503721237183
vn -0.1977560818195343 0.96684950590133667 0.16153796017169952
vn -0.1977560818195343 0.96684950590133667 0.16153796017169952
vn -0.1977560818195343 0.96684950590133667 0.16153796017169952
vn 0.15858380496501923 -0.53205043077468872 0.8317292332649231
vn 0.42135408520698547 -0.83387541770935059 -0.35652843117713928
vn 0.42135408520698547 -0.83387541770935059 -0.35652843117713928
vn 0.42135408520698547 -0.83387541770935059 -0.35652843117713928
vn 0.34216210246086121 -0.25300031900405884 0.90493977069854736
vn 0.24235923588275909 -0.072043873369693756 0.96750795841217041
vn -0.26983648538589478 0.52366185188293457 0.80806344747543335
vn -0.26973995566368103 0.52492964267730713 0.80727267265319824
vn -0.2702641487121582 0.51793527603149414 0.8116036057472229
vn 0.68802791833877563 0.023764153942465782 0.72529500722885132
vn -0.12524844706058502 0.32445049285888672 0.93757385015487671
vn 0.52579319477081299 0.26731649041175842 0.80751681327819824
vn 0.58399748802185059 0.25973343849182129 0.76908093690872192
vn 0.66887509822845459 0.23750543594360352 0.70441269874572754
vn 0.59429001808166504 0.23951917886734009 0.76775646209716797
vn -0.82779264450073242 0.45047903060913086 0.33440697193145752
vn -0.82779264450073242 0.45047903060913086 0.33440697193145752
vn -0.82779264450073242 0.45047903060913086 0.33440697193145752
vn -0.25982201099395752 0.88527244329452515 0.3857269287109375
vn -0.078464187681674957 0.76127022504806519 0.64366996288299561
vn -0.02090110071003437 0.35139724612236023 0.93599313497543335
vn -0.42961177229881287 0.89912348985671997 -0.083730041980743408
vn -0.50427693128585815 0.86312204599380493 -0.026927463710308075
vn -0.42298737168312073 0.90490525960922241 -0.047202847898006439
vn 0.53732645511627197 -0.43622305989265442 0.72179621458053589
vn 0.3014875054359436 -0.51463264226913452 0.80265718698501587
vn -0.048615727573633194 -0.19788110256195068 0.97901970148086548
vn 0.80434054136276245 -0.39259761571884155 -0.44598591327667236
vn 0.84231686592102051 -0.43902122974395752 -0.31267023086547852
vn 0.59683889150619507 -0.21126720309257507 -0.77404749393463135
vn 0.60097420215606689 -0.77512794733047485 0.19495297968387604
vn 0.60097420215606689 -0.77512794733047485 0.19495297968387604
vn 0.60097420215606689 -0.77512794733047485 0.19495297968387604
vn -0.25038719177246094 -0.81157279014587402 0.52787858247756958
vn -0.25038719177246094 -0.81157279014587402 0.52787858247756958
vn -0.25038719177246094 -0.81157279014587402 0.52787858247756958
vn 0.15598402917385101 -0.019084716215729713 0.98757517337799072
vn 0.41696742177009583 -0.18027612566947937 0.89086401462554932
vn 0.48815491795539856 0.19075857102870941 0.85165482759475708
vn -0.022669816389679909 -0.024099031463265419 0.99945253133773804
vn -0.064544506371021271 -0.007903161458671093 0.99788355827331543
vn 0.0020750728435814381 -0.0530741848051548 0.9985884428024292
vn -0.096528381109237671 0.060737825930118561 0.99347531795501709
vn -0.095149911940097809 -0.01752440445125103 0.99530869722366333
vn -0.18834479153156281 0.13112807273864746 0.97330963611602783
vn -0.098915964365005493 -0.051663454622030258 0.99375373125076294
vn -0.11197153478860855 -0.10084148496389389 0.98858147859573364
vn 0.043566536158323288 0.083976030349731445 0.99551492929458618
vn 0.57423150539398193 0.74347126483917236 -0.34279534220695496
vn 0.60892730951309204 0.72105783224105835 -0.33058002591133118
vn 0.57097399234771729 0.74547135829925537 -0.34389117360115051
vn 0.62669062614440918 -0.72815805673599243 -0.27756926417350769
vn 0.53971898555755615 -0.73256772756576538 -0.41478654742240906
vn 0.57223629951477051 -0.75297343730926514 -0.32492545247077942
vn -0.48564285039901733 0.87375396490097046 -0.026551850140094757
vn 0.0709829181432724 0.09288518875837326 -0.99314337968826294
vn -0.043062042444944382 0.095877908170223236 -0.99446117877960205
vn 0.52223563194274902 0.31370547413825989 -0.79300618171691895
vn 0.7197730541229248 0.038959197700023651 0.69311541318893433
vn 0.62269735336303711 0.23142178356647491 0.74745696783065796
vn 0.72979521751403809 0.040600180625915527 0.68245917558670044
vn 0.21304674446582794 0.12151247262954712 0.96945643424987793
vn 0.22560270130634308 0.17544959485530853 0.95829057693481445
vn 0.86214488744735718 -0.50439292192459106 -0.047895245254039764
vn 0.7033088207244873 -0.55178022384643555 0.44821342825889587
vn 0.55431818962097168 -0.52024203538894653 0.64967650175094604
vn -0.57560241222381592 -0.5855066180229187 0.57084482908248901
vn -0.57560241222381592 -0.5855066180229187 0.57084482908248901
vn -0.57560241222381592 -0.5855066180229187 0.57084482908248901
vn 0.87290680408477783 -0.13570225238800049 -0.46863484382629395
vn 0.87290680408477783 -0.13570225238800049 -0.46863484382629395
vn 0.87290680408477783 -0.13570225238800049 -0.46863484382629395
vn 0.50997871160507202 -0.6398807168006897 -0.57486897706985474
vn 0.44249913096427917 -0.65842908620834351 -0.60882318019866943
vn 0.42090031504631042 -0.66340047121047974 -0.61866205930709839
vn -0.18687380850315094 0.5086628794670105 0.84044051170349121
vn -0.46209043264389038 0.74799162149429321 0.4764251708984375
vn -0.19954204559326172 0.33584639430046082 0.92053800821304321
vn -0.40916711091995239 0.69849973917007446 0.58709484338760376
vn -0.38776910305023193 0.7075725793838501 0.59074205160140991
vn -0.54783660173416138 0.62697690725326538 0.55387276411056519
vn -0.69531422853469849 0.080564931035041809 -0.71417605876922607
vn -0.6938626766204834 -0.056826043874025345 -0.71786165237426758
vn -0.82502633333206177 -0.53360730409622192 -0.18599666655063629
vn -0.53997373580932617 0.11612614244222641 -0.83363246917724609
vn 0.35080638527870178 -0.54312211275100708 0.76285862922668457
vn 0.030462019145488739 -0.54084682464599609 0.84056931734085083
vn 0.5312468409538269 0.10659556090831757 0.84048449993133545
vn 0.95472240447998047 -0.03100176528096199 0.29587844014167786
vn 0.98566156625747681 0.023160122334957123 -0.16713728010654449
vn 0.99965274333953857 -0.026281608268618584 -0.0019240893889218569
vn 0.79933691024780273 0.59358465671539307 -0.093368768692016602
vn 0.79933691024780273 0.59358465671539307 -0.093368768692016602
vn 0.79933691024780273 0.59358465671539307 -0.093368768692016602
vn 0.08081652969121933 -0.99593770503997803 -0.039709076285362244
vn -0.19702184200286865 -0.96502232551574707 -0.17295745015144348
vn -0.29389512538909912 -0.92183470726013184 -0.25267854332923889
vn -0.0051947594620287418 -0.59331762790679932 -0.80495166778564453
vn 0.015796808525919914 -0.66930216550827026 -0.74282240867614746
vn 0.0041845366358757019 -0.66957157850265503 -0.74273574352264404
vn -0.9979444146156311 -0.062051359564065933 -0.016018880531191826
vn -0.9999464750289917 -0.0077762790024280548 0.0068279528059065342
vn -0.99617183208465576 -0.00036394313792698085 0.087416157126426697
vn -0.99198925495147705 0.0061934571713209152 -0.1261705607175827
vn -0.52755582332611084 0.22333085536956787 -0.81963908672332764
vn -0.68531990051269531 0.022964812815189362 -0.72787994146347046
vn -0.30800426006317139 0.030598096549510956 -0.95089280605316162
vn -0.70198249816894531 0.38095477223396301 -0.60174250602722168
vn -0.98407047986984253 0.17690128087997437 0.017642302438616753
vn -0.8425108790397644 0.35206001996994019 -0.40771210193634033
vn 0.020021649077534676 0.081275857985019684 -0.99649053812026978
vn 0.28446376323699951 0.2657521665096283 -0.92111676931381226
vn -0.022777419537305832 -0.99881178140640259 0.043083701282739639
vn 0.0097457552328705788 -0.99911707639694214 0.040866244584321976
vn -0.058614432811737061 -0.99640536308288574 0.061161648482084274
vn -0.12733490765094757 -0.99176889657974243 -0.013428246602416039
vn 0.022297848016023636 -0.98456394672393799 -0.17359910905361176
vn 0.14004293084144592 -0.97208702564239502 0.18824127316474915
vn 0.018454268574714661 -0.99981486797332764 0.0054467623122036457
vn -0.029000796377658844 -0.99944829940795898 0.01618722639977932
vn -0.098897986114025116 -0.99412310123443604 0.044028032571077347
vn -0.34325334429740906 0.76583868265151978 0.54375380277633667
vn -0.34325334429740906 0.76583868265151978 0.54375380277633667
vn -0.34325334429740906 0.76583868265151978 0.54375380277633667
vn -0.10950926691293716 -0.99148231744766235 0.070501655340194702
vn -0.10950926691293716 -0.99148231744766235 0.070501655340194702
vn -0.10950926691293716 -0.99148231744766235 0.070501655340194702
vn 0.4198894202709198 -0.76807594299316406 -0.48347929120063782
vn 0.4198894202709198 -0.76807594299316406 -0.48347929120063782
vn 0.4198894202709198 -0.76807594299316406 -0.48347929120063782
vn 0.055556908249855042 0.1077829897403717 -0.99262088537216187
vn 0.010714448057115078 -0.096894204616546631 -0.99523699283599854
vn 0.0018302648095414042 0.016313565894961357 -0.99986523389816284
vn 0.0083894021809101105 -0.99990582466125488 -0.010861651040613651
vn -0.046294350177049637 -0.99107462167739868 -0.12501168251037598
vn -0.1894904226064682 -0.98185181617736816 0.0077730650082230568
vn -0.10097154229879379 -0.99488389492034912 -0.0032851384021341801
vn -0.0044735530391335487 -0.99954676628112793 -0.029769457876682281
vn -0.41434893012046814 -0.7518845796585083 -0.51282018423080444
vn -0.17669600248336792 -0.77696216106414795 -0.60424190759658813
vn 0.34770971536636353 -0.68007868528366089 -0.645438551902771
vn -0.6690250039100647 -0.72151583433151245 -0.17838282883167267
vn -0.81138497591018677 -0.58316981792449951 -0.039590384811162949
vn -0.34730365872383118 -0.85557395219802856 -0.38389238715171814
vn 0.92776042222976685 -0.0024704865645617247 0.37316811084747314
vn 0.74147117137908936 -0.060109004378318787 0.66828691959381104
vn 0.66959661245346069 -0.060715269297361374 0.74023920297622681
vn -0.78996050357818604 0.54633647203445435 0.27835023403167725
vn -0.75591516494750977 0.47908878326416016 0.44616836309432983
vn -0.79820084571838379 0.59803396463394165 0.072324246168136597
vn -0.77069157361984253 0.26790857315063477 -0.57815182209014893
vn -0.72782301902770996 0.055778741836547852 -0.68349277973175049
vn -0.81826752424240112 0.37903842329978943 -0.43216675519943237
vn -0.82076972723007202 0.45640727877616882 -0.34355413913726807
vn -0.79020798206329346 0.53370720148086548 0.30121088027954102
vn -0.79291874170303345 0.5594145655632019 0.24152684211730957
vn -0.74269932508468628 0.65920960903167725 -0.11764529347419739
vn -0.50518512725830078 0.81353700160980225 0.28800264000892639
vn -0.50001704692840576 0.19761933386325836 0.84316635131835938
vn -0.33974242210388184 0.93924808502197266 -0.048868801444768906
vn 0.46578598022460938 0.48702079057693481 -0.738819420337677
vn 0.086534805595874786 0.556907057762146 -0.82605463266372681
vn 0.066364385187625885 0.6027870774269104 -0.79513740539550781
vn -0.79319894313812256 0.60203564167022705 -0.091589018702507019
vn -0.32618740200996399 0.93463194370269775 -0.1416504979133606
vn -0.52311277389526367 -0.5567471981048584 0.64527946710586548
vn -0.52311277389526367 -0.5567471981048584 0.64527946710586548
vn -0.52311277389526367 -0.5567471981048584 0.64527946710586548
vn 0.24050076305866241 -0.0029515130445361137 0.97064447402954102
vn -0.11679467558860779 0.052473507821559906 0.99176889657974243
vn 0.29157313704490662 0.12116255611181259 0.94884389638900757
vn -0.03251253068447113 0.41949549317359924 0.90717500448226929
vn -0.41628438234329224 0.41099342703819275 0.81104362010955811
vn -0.47196078300476074 0.34533289074897766 0.81117087602615356
vn -0.7086825966835022 0.69538009166717529 0.11922884732484818
vn -0.32408511638641357 0.92721492052078247 0.18772661685943604
vn -0.36551111936569214 0.57192283868789673 -0.73437446355819702
vn -0.66996872425079346 0.31215545535087585 -0.67357319593429565
vn -0.20527656376361847 0.62850910425186157 -0.75022518634796143
vn -0.062903538346290588 -0.3288438618183136 0.94228702783584595
vn -0.15434204041957855 -0.64329546689987183 0.74989962577819824
vn 0.78450649976730347 -0.41523200273513794 -0.46057784557342529
vn -0.015020610764622688 -0.2394191175699234 -0.97080010175704956
vn -0.29376295208930969 -0.13798588514328003 -0.94586640596389771
vn -0.57939749956130981 0.31082326173782349 -0.75345033407211304
vn -0.28693139553070068 0.68257623910903931 -0.67213094234466553
vn -0.5663725733757019 0.40895122289657593 -0.71552848815917969
vn -0.49985131621360779 0.047296971082687378 0.86481887102127075
vn -0.67975097894668579 0.087959043681621552 -0.72814959287643433
vn -0.56795674562454224 0.2313065379858017 -0.78988760709762573
vn -0.50509548187255859 0.017350103706121445 -0.86288905143737793
vn -0.075343072414398193 -0.45462194085121155 -0.88749217987060547
vn 0.3095395565032959 -0.64320105314254761 -0.70034110546112061
vn 0.64677637815475464 -0.32211706042289734 -0.69131821393966675
vn -0.99886971712112427 -0.04497886449098587 -0.015366686508059502
vn 0.59721827507019043 -0.36409887671470642 0.7146763801574707
vn -0.24214056134223938 -0.66152709722518921 0.70975339412689209
vn 0.29614678025245667 -0.24871614575386047 0.92219161987304688
vn 0.57667809724807739 0.07166638970375061 0.81382203102111816
vn 0.58077698945999146 0.44969609379768372 0.67858052253723145
vn -0.47570556402206421 -0.47959908843040466 -0.73735266923904419
vn -0.55724126100540161 -0.15535259246826172 -0.81568849086761475
vn -0.21786551177501678 -0.73639363050460815 -0.64051467180252075
vn -0.84165471792221069 0.026372350752353668 -0.53937166929244995
vn -0.84165471792221069 0.026372350752353668 -0.53937166929244995
vn -0.84165471792221069 0.026372350752353668 -0.53937166929244995
vn -0.12523449957370758 -0.52814680337905884 -0.83986741304397583
vn -0.23377984762191772 -0.46741944551467896 -0.85256439447402954
vn -0.43815293908119202 -0.32520109415054321 -0.83801329135894775
vn -0.77863150835037231 -0.16229021549224854 -0.60613107681274414
vn -0.79374921321868896 -0.22042348980903625 -0.56690001487731934
vn -0.76814806461334229 -0.23523958027362823 -0.59549212455749512
vn -0.53273725509643555 -0.30338680744171143 0.79003006219863892
vn -0.27963092923164368 -0.71062362194061279 0.64561647176742554
vn -0.43229809403419495 -0.42099934816360474 0.79741954803466797
vn -0.55184996128082275 -0.082945786416530609 -0.82980817556381226
vn -0.99863678216934204 0.0096969027072191238 -0.051288824528455734
vn -0.9212525486946106 -0.38310396671295166 -0.067268431186676025
vn -0.17446915805339813 -0.94490951299667358 0.27695941925048828
vn -0.17446915805339813 -0.94490951299667358 0.27695941925048828
vn -0.17446915805339813 -0.94490951299667358 0.27695941925048828
vn -0.31346815824508667 -0.46444875001907349 0.82826632261276245
vn -0.31346815824508667 -0.46444875001907349 0.82826632261276245
vn -0.31346815824508667 -0.46444875001907349 0.82826632261276245
vn -0.9579702615737915 -0.28532314300537109 0.029725760221481323
vn -0.98064130544662476 0.19551660120487213 -0.010762435384094715
vn -0.99974215030670166 -0.022179702296853065 0.0048626139760017395
vn -0.68917900323867798 -0.6805802583694458 0.24868221580982208
vn -0.31787055730819702 -0.94813144207000732 0.0022547501139342785
vn -0.65899711847305298 -0.74540442228317261 0.10047385841608047
vn -0.94206595420837402 -0.33189254999160767 -0.048569846898317337
vn -0.74362558126449585 -0.66859132051467896 0.0025819647125899792
vn -0.76471364498138428 0.26613181829452515 0.58684486150741577
vn -0.76368778944015503 0.27439701557159424 0.58436912298202515
vn -0.75300568342208862 0.18732243776321411 0.63078737258911133
vn -0.31310585141181946 -0.74070751667022705 0.59440481662750244
vn -0.245067298412323 -0.52022874355316162 0.81811004877090454
vn -0.29919430613517761 -0.48472601175308228 0.82190233469009399
vn 0.39615800976753235 -0.3711344301700592 0.83983218669891357
vn 0.36709195375442505 -0.37947416305541992 0.84926015138626099
vn 0.40242794156074524 -0.36927103996276855 0.83766978979110718
vn -0.74840933084487915 -0.66323626041412354 -0.0010745300678536296
vn -0.74840933084487915 -0.66323626041412354 -0.0010745300678536296
vn -0.74840933084487915 -0.66323626041412354 -0.0010745300678536296
vn -0.35982728004455566 -0.59172350168228149 0.72137898206710815
vn -0.62981510162353516 -0.10630538314580917 0.76943624019622803
vn -0.81924629211425781 -0.46888524293899536 0.33012440800666809
vn -0.78030902147293091 -0.43892759084701538 0.44548889994621277
vn -0.75737470388412476 -0.42217761278152466 0.49814614653587341
vn -0.98500454425811768 0.17252826690673828 7.0059395511634648E-05
vn -0.58370774984359741 -0.60826253890991211 0.5378679633140564
vn -0.58370774984359741 -0.60826253890991211 0.5378679633140564
vn -0.58370774984359741 -0.60826253890991211 0.5378679633140564
vn 0.27339452505111694 0.96136707067489624 -0.032074145972728729
vn 0.089883774518966675 -0.092092283070087433 -0.99168539047241211
vn 0.010699622333049774 0.01867365650832653 -0.99976837635040283
vn -0.011430662125349045 -0.013528055511415005 -0.99984318017959595
vn 0.0079340701922774315 -0.0046939589083194733 -0.99995750188827515
vn 0.99979948997497559 -0.015937192365527153 -0.012125357054173946
vn -0.13978394865989685 0.95000159740447998 -0.27920854091644287
vn -0.99986928701400757 -0.015923287719488144 -0.0028107045218348503
vn -0.99374425411224365 0.11154916137456894 -0.0053950459696352482
vn -0.31867346167564392 0.62240278720855713 0.71488600969314575
vn -0.32250183820724487 0.61963540315628052 0.71557289361953735
vn -0.47008350491523743 0.55580908060073853 0.68563675880432129
vn 0.052348203957080841 0.99783438444137573 0.039827600121498108
usemtl vc_191919__Default
f 1//1 2//2 3//3
f 4//4 5//5 1//1
f 6//6 7//7 8//8
f 4//4 9//9 5//5
f 10//10 11//11 12//12
f 13//13 14//14 15//15
f 16//16 17//17 18//18
f 19//19 20//20 21//21
f 24//24 25//25 22//22 23//23
f 22//22 25//25 26//26
f 27//27 22//22 26//26
f 28//28 27//27 26//26
f 29//29 24//24 23//23
f 30//30 14//14 13//13
f 31//31 28//28 32//32
f 33//33 34//34 35//35
f 36//36 37//37 38//38
f 39//39 40//40 41//41
f 42//42 43//43 44//44
f 45//45 46//46 47//47
f 22//22 48//48 49//49
f 50//50 51//51 52//52
f 53//53 54//54 55//55
f 56//56 48//48 22//22
f 57//57 48//48 56//56
f 49//49 23//23 22//22
f 58//58 23//23 59//59
f 60//60 61//61 62//62
f 60//60 63//63 61//61
f 31//31 27//27 28//28
f 64//64 65//65 66//66
f 67//67 68//68 69//69
f 70//70 71//71 72//72
f 73//73 74//74 75//75
f 76//76 77//77 78//78
f 79//79 80//80 81//81
f 82//82 83//83 84//84
f 85//85 86//86 87//87
f 82//82 88//88 89//89
f 90//90 91//91 92//92
f 93//93 90//90 92//92
f 94//94 95//95 96//96
f 97//97 95//95 98//98
f 31//31 32//32 99//99
f 100//100 101//101 102//102
f 103//103 104//104 105//105
f 106//106 107//107 108//108
f 109//109 110//110 111//111
f 112//112 113//113 114//114
f 115//115 116//116 117//117
f 118//118 119//119 120//120
f 108//108 31//31 121//121
f 122//122 123//123 124//124
f 125//125 121//121 126//126
f 127//127 128//128 129//129
f 130//130 131//131 87//87
f 86//86 132//132 133//133
f 134//134 132//132 86//86
f 135//135 132//132 136//136
f 96//96 95//95 97//97
f 99//99 32//32 94//94
f 137//137 138//138 139//139
f 140//140 141//141 142//142
f 143//143 144//144 145//145
f 99//99 94//94 96//96
f 97//97 98//98 29//29
f 146//146 60//60 147//147
f 148//148 149//149 31//31
f 150//150 151//151 152//152
f 109//109 153//153 110//110
f 154//154 155//155 156//156
f 157//157 158//158 159//159
f 160//160 96//96 97//97
f 161//161 162//162 163//163
f 164//164 97//97 165//165
f 166//166 167//167 168//168
f 169//169 170//170 171//171
f 172//172 173//173 174//174
f 175//175 176//176 177//177
f 178//178 179//179 180//180
f 181//181 182//182 183//183
f 160//160 184//184 185//185
f 186//186 97//97 164//164
f 187//187 188//188 189//189
f 190//190 191//191 192//192
f 193//193 194//194 195//195
f 196//196 197//197 198//198
f 200//200 202//202 201//201 199//199
f 204//204 201//201 202//202 203//203
f 205//205 206//206 207//207
f 208//208 209//209 210//210
f 211//211 212//212 213//213
f 214//214 36//36 38//38
f 215//215 216//216 217//217
f 218//218 219//219 220//220
f 221//221 222//222 218//218
f 223//223 224//224 225//225
f 226//226 227//227 228//228
f 229//229 230//230 231//231
f 232//232 233//233 234//234
f 235//235 236//236 237//237
f 238//238 239//239 240//240
f 241//241 242//242 243//243
f 244//244 242//242 241//241
f 245//245 246//246 247//247
f 248//248 249//249 250//250
f 251//251 252//252 253//253
f 254//254 255//255 256//256
f 257//257 258//258 259//259
f 260//260 261//261 262//262
f 263//263 244//244 241//241
f 264//264 265//265 266//266
f 267//267 268//268 269//269
f 270//270 215//215 271//271
f 274//274 276//276 272//272 273//273
f 275//275 276//276 274//274
f 277//277 278//278 275//275
f 279//279 280//280 275//275
f 281//281 282//282 283//283
f 284//284 285//285 286//286
f 287//287 288//288 289//289
f 290//290 291//291 292//292
f 293//293 294//294 254//254
f 295//295 296//296 293//293
f 297//297 295//295 293//293
f 298//298 299//299 300//300
f 301//301 302//302 303//303
f 304//304 305//305 306//306
f 307//307 308//308 309//309
f 310//310 311//311 312//312
f 313//313 310//310 312//312
f 314//314 315//315 316//316
f 317//317 318//318 319//319
f 320//320 321//321 322//322
f 323//323 317//317 324//324
f 325//325 326//326 327//327
f 328//328 329//329 330//330
f 331//331 332//332 333//333
f 334//334 335//335 308//308
f 336//336 337//337 338//338
f 246//246 339//339 340//340
f 341//341 342//342 343//343
f 344//344 345//345 346//346
f 347//347 318//318 317//317
f 348//348 349//349 350//350
f 351//351 352//352 353//353
f 354//354 317//317 323//323
f 340//340 355//355 356//356
f 357//357 358//358 359//359
f 360//360 337//337 361//361
f 362//362 351//351 360//360
f 363//363 364//364 365//365
f 366//366 367//367 368//368
f 369//369 370//370 371//371
f 372//372 373//373 374//374
f 375//375 349//349 348//348
f 354//354 376//376 377//377
f 378//378 379//379 380//380
f 381//381 382//382 383//383
f 384//384 385//385 386//386
f 387//387 388//388 389//389
f 390//390 391//391 388//388
f 392//392 393//393 394//394
f 395//395 396//396 397//397
f 398//398 399//399 400//400
f 401//401 402//402 403//403
f 333//333 404//404 405//405
f 406//406 407//407 408//408
f 384//384 409//409 275//275
f 410//410 411//411 412//412
f 275//275 280//280 384//384
f 29//29 98//98 24//24
f 413//413 36//36 35//35
f 133//133 414//414 87//87
f 415//415 416//416 417//417
f 409//409 384//384 386//386
f 2//2 418//418 3//3
f 35//35 419//419 413//413
f 86//86 133//133 87//87
f 108//108 121//121 106//106
f 420//420 421//421 268//268
f 422//422 423//423 424//424
f 37//37 425//425 38//38
f 202//202 200//200 207//207
