# Dual color encoding: per-vertex RGB for Rerun, face MTL colors for legacy RViz.
mtllib sim_gene01_l_hand_thumb_3.mtl
# Rhino

g sim_gene01_l_hand_thumb_3
v -14.520313417827184 -0.14144894830630855 3.5725165117287747 0.0980392157 0.0980392157 0.0980392157
v -16.657645705163979 -0.15683650502935009 5.8967698913176383 0.0980392157 0.0980392157 0.0980392157
v -16.834951475624827 2.3390719561044127 -2.9334716568693096 0.0980392157 0.0980392157 0.0980392157
v -14.520313417827184 -0.14144894830630855 3.5725165117287747 0.0980392157 0.0980392157 0.0980392157
v -14.136653188883997 0.64950916354683486 9.7330984726171188 0.0980392157 0.0980392157 0.0980392157
v -16.657645705163979 -0.15683650502935009 5.8967698913176383 0.0980392157 0.0980392157 0.0980392157
v -21.056652580098202 24.454975856823044 6.5644047105178664 0.0980392157 0.0980392157 0.0980392157
v -20.123978194760529 23.875391714546137 -5.8972775129514785 0.0980392157 0.0980392157 0.0980392157
v -16.834951475624827 2.3390719561044127 -2.9334716568693096 0.0980392157 0.0980392157 0.0980392157
v -16.834951475624827 2.3390719561044127 -2.9334716568693096 0.0980392157 0.0980392157 0.0980392157
v -15.368341746568044 1.8778292018047988 -1.2178307961130179 0.0980392157 0.0980392157 0.0980392157
v -15.761680543024859 3.4580894307054186 3.6161870386659354 0.0980392157 0.0980392157 0.0980392157
v -14.520313417827184 -0.14144894830630855 3.5725165117287747 0.0980392157 0.0980392157 0.0980392157
v -15.368341746568044 1.8778292018047988 -1.2178307961130179 0.0980392157 0.0980392157 0.0980392157
v -10.628137049049212 2.4550758079823378 5.0193517039204423 0.0980392157 0.0980392157 0.0980392157
v -14.136653188883997 0.64950916354683486 9.7330984726171188 0.0980392157 0.0980392157 0.0980392157
v -15.761680543024859 3.4580894307054186 3.6161870386659354 0.0980392157 0.0980392157 0.0980392157
v -10.628137049049212 2.4550758079823378 5.0193517039204423 0.0980392157 0.0980392157 0.0980392157
v -6.3858342055771935 0.89165449948556308 8.0748564279743373 0.0980392157 0.0980392157 0.0980392157
v -14.136653188883997 0.64950916354683486 9.7330984726171188 0.0980392157 0.0980392157 0.0980392157
v -19.317726073259401 24.868009668966451 10.660137741826496 0.0980392157 0.0980392157 0.0980392157
v -16.657645705163979 -0.15683650502935009 5.8967698913176383 0.0980392157 0.0980392157 0.0980392157
v -14.136653188883997 0.64950916354683486 9.7330984726171188 0.0980392157 0.0980392157 0.0980392157
v -12.883316833576764 3.6486094461568266 -10.614723470932862 0.0980392157 0.0980392157 0.0980392157
v -10.369948758097602 -2.5494487404085771 -4.0724185872690866 0.0980392157 0.0980392157 0.0980392157
v -9.8411752830348131 2.8405689676872772 -4.2459256175217162 0.0980392157 0.0980392157 0.0980392157
v -15.368341746568044 1.8778292018047988 -1.2178307961130179 0.0980392157 0.0980392157 0.0980392157
v -9.8411752830348131 2.8405689676872772 -4.2459256175217162 0.0980392157 0.0980392157 0.0980392157
v -10.369948758097602 -2.5494487404085771 -4.0724185872690866 0.0980392157 0.0980392157 0.0980392157
v -10.726591278162617 -3.8073865334934482 1.2180066003356136 0.0980392157 0.0980392157 0.0980392157
v -10.369948758097602 -2.5494487404085771 -4.0724185872690866 0.0980392157 0.0980392157 0.0980392157
v -15.368341746568044 1.8778292018047988 -1.2178307961130179 0.0980392157 0.0980392157 0.0980392157
v -7.2538805671193716 -0.79570293742323295 0.85357604378130314 0.0980392157 0.0980392157 0.0980392157
v -10.369948758097602 -2.5494487404085771 -4.0724185872690866 0.0980392157 0.0980392157 0.0980392157
v -10.726591278162617 -3.8073865334934482 1.2180066003356136 0.0980392157 0.0980392157 0.0980392157
v -9.8411752830348131 2.8405689676872772 -4.2459256175217162 0.0980392157 0.0980392157 0.0980392157
v -15.368341746568044 1.8778292018047988 -1.2178307961130179 0.0980392157 0.0980392157 0.0980392157
v -10.369948758097602 -2.5494487404085771 -4.0724185872690866 0.0980392157 0.0980392157 0.0980392157
v -7.2538805671193716 -0.79570293742323295 0.85357604378130314 0.0980392157 0.0980392157 0.0980392157
v -9.8411752830348131 2.8405689676872772 -4.2459256175217162 0.0980392157 0.0980392157 0.0980392157
v -10.369948758097602 -2.5494487404085771 -4.0724185872690866 0.0980392157 0.0980392157 0.0980392157
v -15.368341746568044 1.8778292018047988 -1.2178307961130179 0.0980392157 0.0980392157 0.0980392157
v -10.369948758097602 -2.5494487404085771 -4.0724185872690866 0.0980392157 0.0980392157 0.0980392157
v -10.726591278162617 -3.8073865334934482 1.2180066003356136 0.0980392157 0.0980392157 0.0980392157
v -10.628137049049212 2.4550758079823378 5.0193517039204423 0.0980392157 0.0980392157 0.0980392157
v -10.726591278162617 -3.8073865334934482 1.2180066003356136 0.0980392157 0.0980392157 0.0980392157
v -14.520313417827184 -0.14144894830630855 3.5725165117287747 0.0980392157 0.0980392157 0.0980392157
v -5.4579892912563857 -7.5186698507160781 -2.4874734692221172 0.0980392157 0.0980392157 0.0980392157
v -10.726591278162617 -3.8073865334934482 1.2180066003356136 0.0980392157 0.0980392157 0.0980392157
v -10.369948758097602 -2.5494487404085771 -4.0724185872690866 0.0980392157 0.0980392157 0.0980392157
v -7.65848252458182 -5.5788617082597103 4.630801806443344 0.0980392157 0.0980392157 0.0980392157
v -5.4579892912563857 -7.5186698507160781 -2.4874734692221172 0.0980392157 0.0980392157 0.0980392157
v -4.9117654245676832 -2.737601739300926 5.8957464155564923 0.0980392157 0.0980392157 0.0980392157
v -7.65848252458182 -5.5788617082597103 4.630801806443344 0.0980392157 0.0980392157 0.0980392157
v -5.4579892912563857 -7.5186698507160781 -2.4874734692221172 0.0980392157 0.0980392157 0.0980392157
v -7.2538805671193716 -0.79570293742323295 0.85357604378130314 0.0980392157 0.0980392157 0.0980392157
v -10.726591278162617 -3.8073865334934482 1.2180066003356136 0.0980392157 0.0980392157 0.0980392157
v -10.628137049049212 2.4550758079823378 5.0193517039204423 0.0980392157 0.0980392157 0.0980392157
v -15.368341746568044 1.8778292018047988 -1.2178307961130179 0.0980392157 0.0980392157 0.0980392157
v -16.834951475624827 2.3390719561044127 -2.9334716568693096 0.0980392157 0.0980392157 0.0980392157
v -12.883316833576764 3.6486094461568266 -10.614723470932862 0.0980392157 0.0980392157 0.0980392157
v -15.740365028381348 4.8152565956115723 -3.0522630214691162 0.0980392157 0.0980392157 0.0980392157
v -15.368341746568044 1.8778292018047988 -1.2178307961130179 0.0980392157 0.0980392157 0.0980392157
v -12.883316833576764 3.6486094461568266 -10.614723470932862 0.0980392157 0.0980392157 0.0980392157
v -16.633160365783393 9.7317630334747651 -3.5085561934808043 0.0980392157 0.0980392157 0.0980392157
v -15.740365028381348 4.8152565956115723 -3.0522630214691162 0.0980392157 0.0980392157 0.0980392157
v -6.3858342055771935 0.89165449948556308 8.0748564279743373 0.0980392157 0.0980392157 0.0980392157
v -4.9117654245676832 -2.737601739300926 5.8957464155564923 0.0980392157 0.0980392157 0.0980392157
v -10.628137049049212 2.4550758079823378 5.0193517039204423 0.0980392157 0.0980392157 0.0980392157
v -14.520313417827184 -0.14144894830630855 3.5725165117287747 0.0980392157 0.0980392157 0.0980392157
v -6.3858342055771935 0.89165449948556308 8.0748564279743373 0.0980392157 0.0980392157 0.0980392157
v -0.31965783203042974 5.1330060042314614 12.244500578446562 0.0980392157 0.0980392157 0.0980392157
v -14.136653188883997 0.64950916354683486 9.7330984726171188 0.0980392157 0.0980392157 0.0980392157
v -6.3858342055771935 0.89165449948556308 8.0748564279743373 0.0980392157 0.0980392157 0.0980392157
v -14.27100793851978 9.4816354730358707 9.5050005910173141 0.0980392157 0.0980392157 0.0980392157
v -16.469528198242188 7.0498590469360352 4.9007587432861328 0.0980392157 0.0980392157 0.0980392157
v -9.6774255991587204 8.1837708074679085 5.0186205261713095 0.0980392157 0.0980392157 0.0980392157
v -15.761680543024859 3.4580894307054186 3.6161870386659354 0.0980392157 0.0980392157 0.0980392157
v -14.27100793851978 9.4816354730358707 9.5050005910173141 0.0980392157 0.0980392157 0.0980392157
v -9.6774255991587204 8.1837708074679085 5.0186205261713095 0.0980392157 0.0980392157 0.0980392157
v -16.469528198242188 7.0498590469360352 4.9007587432861328 0.0980392157 0.0980392157 0.0980392157
v -17.354675910249714 10.791555424951383 2.7203126808163201 0.0980392157 0.0980392157 0.0980392157
v -9.6774255991587204 8.1837708074679085 5.0186205261713095 0.0980392157 0.0980392157 0.0980392157
v -14.27100793851978 9.4816354730358707 9.5050005910173141 0.0980392157 0.0980392157 0.0980392157
v -16.469528198242188 7.0498590469360352 4.9007587432861328 0.0980392157 0.0980392157 0.0980392157
v -5.3488318007941507 -1.185981440731231 -6.3926767984611734 0.0980392157 0.0980392157 0.0980392157
v -5.4579892912563857 -7.5186698507160781 -2.4874734692221172 0.0980392157 0.0980392157 0.0980392157
v -10.369948758097602 -2.5494487404085771 -4.0724185872690866 0.0980392157 0.0980392157 0.0980392157
v -12.883316833576764 3.6486094461568266 -10.614723470932862 0.0980392157 0.0980392157 0.0980392157
v -17.115276736290014 9.7480423394642362 -6.0934939812557349 0.0980392157 0.0980392157 0.0980392157
v -12.883316833576764 3.6486094461568266 -10.614723470932862 0.0980392157 0.0980392157 0.0980392157
v -9.8411752830348131 2.8405689676872772 -4.2459256175217162 0.0980392157 0.0980392157 0.0980392157
v -15.740365028381348 4.8152565956115723 -3.0522630214691162 0.0980392157 0.0980392157 0.0980392157
v -12.883316833576764 3.6486094461568266 -10.614723470932862 0.0980392157 0.0980392157 0.0980392157
v -6.7540422953254593 5.4253925888814658 -1.051460776595035 0.0980392157 0.0980392157 0.0980392157
v -9.8411752830348131 2.8405689676872772 -4.2459256175217162 0.0980392157 0.0980392157 0.0980392157
v -7.2538805671193716 -0.79570293742323295 0.85357604378130314 0.0980392157 0.0980392157 0.0980392157
v -17.115276736290014 9.7480423394642362 -6.0934939812557349 0.0980392157 0.0980392157 0.0980392157
v -8.5896241000424158 8.0950628246995961 -5.3742769637620604 0.0980392157 0.0980392157 0.0980392157
v -17.115276736290014 9.7480423394642362 -6.0934939812557349 0.0980392157 0.0980392157 0.0980392157
v -15.740365028381348 4.8152565956115723 -3.0522630214691162 0.0980392157 0.0980392157 0.0980392157
v -6.7540422953254593 5.4253925888814658 -1.051460776595035 0.0980392157 0.0980392157 0.0980392157
v -6.7540422953254593 5.4253925888814658 -1.051460776595035 0.0980392157 0.0980392157 0.0980392157
v -15.740365028381348 4.8152565956115723 -3.0522630214691162 0.0980392157 0.0980392157 0.0980392157
v -9.8411752830348131 2.8405689676872772 -4.2459256175217162 0.0980392157 0.0980392157 0.0980392157
v -6.7540422953254593 5.4253925888814658 -1.051460776595035 0.0980392157 0.0980392157 0.0980392157
v -7.2538805671193716 -0.79570293742323295 0.85357604378130314 0.0980392157 0.0980392157 0.0980392157
v -10.628137049049212 2.4550758079823378 5.0193517039204423 0.0980392157 0.0980392157 0.0980392157
v -0.9700606656744013 1.2263054948124055 6.5108222366345929 0.0980392157 0.0980392157 0.0980392157
v -16.210140932223457 13.840633446682425 -8.8466301488156542 0.0980392157 0.0980392157 0.0980392157
v -12.930332916162255 13.276405139112605 -2.139979156273895 0.0980392157 0.0980392157 0.0980392157
v -16.633160365783393 9.7317630334747651 -3.5085561934808043 0.0980392157 0.0980392157 0.0980392157
v -17.115276736290014 9.7480423394642362 -6.0934939812557349 0.0980392157 0.0980392157 0.0980392157
v -17.365825750070702 14.788770672667805 0.38160291272654578 0.0980392157 0.0980392157 0.0980392157
v -16.633160365783393 9.7317630334747651 -3.5085561934808043 0.0980392157 0.0980392157 0.0980392157
v -12.930332916162255 13.276405139112605 -2.139979156273895 0.0980392157 0.0980392157 0.0980392157
v -9.6774255991587204 8.1837708074679085 5.0186205261713095 0.0980392157 0.0980392157 0.0980392157
v -10.628137049049212 2.4550758079823378 5.0193517039204423 0.0980392157 0.0980392157 0.0980392157
v -15.761680543024859 3.4580894307054186 3.6161870386659354 0.0980392157 0.0980392157 0.0980392157
v -9.6774255991587204 8.1837708074679085 5.0186205261713095 0.0980392157 0.0980392157 0.0980392157
v -6.7540422953254593 5.4253925888814658 -1.051460776595035 0.0980392157 0.0980392157 0.0980392157
v -10.628137049049212 2.4550758079823378 5.0193517039204423 0.0980392157 0.0980392157 0.0980392157
v -0.31965783203042974 5.1330060042314614 12.244500578446562 0.0980392157 0.0980392157 0.0980392157
v -6.3858342055771935 0.89165449948556308 8.0748564279743373 0.0980392157 0.0980392157 0.0980392157
v -9.6774255991587204 8.1837708074679085 5.0186205261713095 0.0980392157 0.0980392157 0.0980392157
v -17.354675910249714 10.791555424951383 2.7203126808163201 0.0980392157 0.0980392157 0.0980392157
v -14.27100793851978 9.4816354730358707 9.5050005910173141 0.0980392157 0.0980392157 0.0980392157
v -12.597537191402454 13.727447345345492 2.459821023152859 0.0980392157 0.0980392157 0.0980392157
v -17.354675910249714 10.791555424951383 2.7203126808163201 0.0980392157 0.0980392157 0.0980392157
v -17.365825750070702 14.788770672667805 0.38160291272654578 0.0980392157 0.0980392157 0.0980392157
v -15.447561509129802 17.629831777193306 6.0410653566538395 0.0980392157 0.0980392157 0.0980392157
v -17.897751688180843 13.718646501579732 7.0405605287816613 0.0980392157 0.0980392157 0.0980392157
v -17.354675910249714 10.791555424951383 2.7203126808163201 0.0980392157 0.0980392157 0.0980392157
v -15.447561509129802 17.629831777193306 6.0410653566538395 0.0980392157 0.0980392157 0.0980392157
v -17.354675910249714 10.791555424951383 2.7203126808163201 0.0980392157 0.0980392157 0.0980392157
v -12.597537191402454 13.727447345345492 2.459821023152859 0.0980392157 0.0980392157 0.0980392157
v -14.27100793851978 9.4816354730358707 9.5050005910173141 0.0980392157 0.0980392157 0.0980392157
v -17.354675910249714 10.791555424951383 2.7203126808163201 0.0980392157 0.0980392157 0.0980392157
v -17.897751688180843 13.718646501579732 7.0405605287816613 0.0980392157 0.0980392157 0.0980392157
v -11.13489126484993 12.938305116178931 6.5648059925251507 0.0980392157 0.0980392157 0.0980392157
v -9.6774255991587204 8.1837708074679085 5.0186205261713095 0.0980392157 0.0980392157 0.0980392157
v -14.27100793851978 9.4816354730358707 9.5050005910173141 0.0980392157 0.0980392157 0.0980392157
v -14.27100793851978 9.4816354730358707 9.5050005910173141 0.0980392157 0.0980392157 0.0980392157
v -17.897751688180843 13.718646501579732 7.0405605287816613 0.0980392157 0.0980392157 0.0980392157
v -11.13489126484993 12.938305116178931 6.5648059925251507 0.0980392157 0.0980392157 0.0980392157
v -15.447561509129802 17.629831777193306 6.0410653566538395 0.0980392157 0.0980392157 0.0980392157
v -11.13489126484993 12.938305116178931 6.5648059925251507 0.0980392157 0.0980392157 0.0980392157
v -17.897751688180843 13.718646501579732 7.0405605287816613 0.0980392157 0.0980392157 0.0980392157
v -0.31965783203042974 5.1330060042314614 12.244500578446562 0.0980392157 0.0980392157 0.0980392157
v -6.1624353062427559 24.538246397932035 14.256447819993804 0.0980392157 0.0980392157 0.0980392157
v -7.4350966435450196 5.2525186618851123 -11.619664345969042 0.0980392157 0.0980392157 0.0980392157
v -9.4986501032789317 11.518562709771356 -7.6221944539668423 0.0980392157 0.0980392157 0.0980392157
v -12.883316833576764 3.6486094461568266 -10.614723470932862 0.0980392157 0.0980392157 0.0980392157
v -5.4579892912563857 -7.5186698507160781 -2.4874734692221172 0.0980392157 0.0980392157 0.0980392157
v -5.3488318007941507 -1.185981440731231 -6.3926767984611734 0.0980392157 0.0980392157 0.0980392157
v -4.708470154137598 2.7903972627329803 0.88852321089618536 0.0980392157 0.0980392157 0.0980392157
v -9.4986501032789317 11.518562709771356 -7.6221944539668423 0.0980392157 0.0980392157 0.0980392157
v -12.883316833576764 3.6486094461568266 -10.614723470932862 0.0980392157 0.0980392157 0.0980392157
v -17.115276736290014 9.7480423394642362 -6.0934939812557349 0.0980392157 0.0980392157 0.0980392157
v -9.4986501032789317 11.518562709771356 -7.6221944539668423 0.0980392157 0.0980392157 0.0980392157
v -17.115276736290014 9.7480423394642362 -6.0934939812557349 0.0980392157 0.0980392157 0.0980392157
v -16.210140932223457 13.840633446682425 -8.8466301488156542 0.0980392157 0.0980392157 0.0980392157
v -12.930332916162255 13.276405139112605 -2.139979156273895 0.0980392157 0.0980392157 0.0980392157
v -17.115276736290014 9.7480423394642362 -6.0934939812557349 0.0980392157 0.0980392157 0.0980392157
v -8.5896241000424158 8.0950628246995961 -5.3742769637620604 0.0980392157 0.0980392157 0.0980392157
v -12.597537191402454 13.727447345345492 2.459821023152859 0.0980392157 0.0980392157 0.0980392157
v -17.365825750070702 14.788770672667805 0.38160291272654578 0.0980392157 0.0980392157 0.0980392157
v -12.930332916162255 13.276405139112605 -2.139979156273895 0.0980392157 0.0980392157 0.0980392157
v -6.7540422953254593 5.4253925888814658 -1.051460776595035 0.0980392157 0.0980392157 0.0980392157
v -9.6774255991587204 8.1837708074679085 5.0186205261713095 0.0980392157 0.0980392157 0.0980392157
v -9.2172632598228308 12.924675465358952 2.0944259467944368 0.0980392157 0.0980392157 0.0980392157
v -9.2172632598228308 12.924675465358952 2.0944259467944368 0.0980392157 0.0980392157 0.0980392157
v -9.6774255991587204 8.1837708074679085 5.0186205261713095 0.0980392157 0.0980392157 0.0980392157
v -12.597537191402454 13.727447345345492 2.459821023152859 0.0980392157 0.0980392157 0.0980392157
v -11.13489126484993 12.938305116178931 6.5648059925251507 0.0980392157 0.0980392157 0.0980392157
v -12.597537191402454 13.727447345345492 2.459821023152859 0.0980392157 0.0980392157 0.0980392157
v -9.6774255991587204 8.1837708074679085 5.0186205261713095 0.0980392157 0.0980392157 0.0980392157
v 0.99288416254812706 25.058411628010859 14.79089878158724 0.0980392157 0.0980392157 0.0980392157
v -11.13489126484993 12.938305116178931 6.5648059925251507 0.0980392157 0.0980392157 0.0980392157
v -15.447561509129802 17.629831777193306 6.0410653566538395 0.0980392157 0.0980392157 0.0980392157
v -12.597537191402454 13.727447345345492 2.459821023152859 0.0980392157 0.0980392157 0.0980392157
v -5.3488318007941507 -1.185981440731231 -6.3926767984611734 0.0980392157 0.0980392157 0.0980392157
v -0.86787358846865803 4.2847303620205892 -5.1972412390279503 0.0980392157 0.0980392157 0.0980392157
v -4.708470154137598 2.7903972627329803 0.88852321089618536 0.0980392157 0.0980392157 0.0980392157
v 0.27362928308803852 5.5326948120056727 -1.2627197069286096 0.0980392157 0.0980392157 0.0980392157
v -4.9117654245676832 -2.737601739300926 5.8957464155564923 0.0980392157 0.0980392157 0.0980392157
v -4.708470154137598 2.7903972627329803 0.88852321089618536 0.0980392157 0.0980392157 0.0980392157
v -0.9700606656744013 1.2263054948124055 6.5108222366345929 0.0980392157 0.0980392157 0.0980392157
v 0.27362928308803852 5.5326948120056727 -1.2627197069286096 0.0980392157 0.0980392157 0.0980392157
v -0.9700606656744013 1.2263054948124055 6.5108222366345929 0.0980392157 0.0980392157 0.0980392157
v -4.708470154137598 2.7903972627329803 0.88852321089618536 0.0980392157 0.0980392157 0.0980392157
v 5.6140542088783949 14.777720828453273 -6.5643425849674895 0.0980392157 0.0980392157 0.0980392157
v -9.4986501032789317 11.518562709771356 -7.6221944539668423 0.0980392157 0.0980392157 0.0980392157
v -16.210140932223457 13.840633446682425 -8.8466301488156542 0.0980392157 0.0980392157 0.0980392157
v -10.654877895094074 18.208817006995773 -10.534993045004397 0.0980392157 0.0980392157 0.0980392157
v 5.6140542088783949 14.777720828453273 -6.5643425849674895 0.0980392157 0.0980392157 0.0980392157
v -16.210140932223457 13.840633446682425 -8.8466301488156542 0.0980392157 0.0980392157 0.0980392157
v -9.2172632598228308 12.924675465358952 2.0944259467944368 0.0980392157 0.0980392157 0.0980392157
v -12.930332916162255 13.276405139112605 -2.139979156273895 0.0980392157 0.0980392157 0.0980392157
v -8.5896241000424158 8.0950628246995961 -5.3742769637620604 0.0980392157 0.0980392157 0.0980392157
v -20.123978194760529 23.875391714546137 -5.8972775129514785 0.0980392157 0.0980392157 0.0980392157
v -13.547983689259389 22.953443591799168 -9.7747091792947653 0.0980392157 0.0980392157 0.0980392157
v -14.990987159466506 27.682161115059056 6.97989814439988 0.0980392157 0.0980392157 0.0980392157
v -14.748557352378739 26.361359897102208 -7.3087943876220178 0.0980392157 0.0980392157 0.0980392157
v -20.123978194760529 23.875391714546137 -5.8972775129514785 0.0980392157 0.0980392157 0.0980392157
v -14.990987159466506 27.682161115059056 6.97989814439988 0.0980392157 0.0980392157 0.0980392157
v -20.123978194760529 23.875391714546137 -5.8972775129514785 0.0980392157 0.0980392157 0.0980392157
v -21.056652580098202 24.454975856823044 6.5644047105178664 0.0980392157 0.0980392157 0.0980392157
v -14.990987159466506 27.682161115059056 6.97989814439988 0.0980392157 0.0980392157 0.0980392157
v -21.056652580098202 24.454975856823044 6.5644047105178664 0.0980392157 0.0980392157 0.0980392157
v -19.317726073259401 24.868009668966451 10.660137741826496 0.0980392157 0.0980392157 0.0980392157
v -0.86787358846865803 4.2847303620205892 -5.1972412390279503 0.0980392157 0.0980392157 0.0980392157
v -5.3488318007941507 -1.185981440731231 -6.3926767984611734 0.0980392157 0.0980392157 0.0980392157
v -7.4350966435450196 5.2525186618851123 -11.619664345969042 0.0980392157 0.0980392157 0.0980392157
v 5.6140542088783949 14.777720828453273 -6.5643425849674895 0.0980392157 0.0980392157 0.0980392157
v -3.8210441843201792 10.272631819072206 -7.6670341322871867 0.0980392157 0.0980392157 0.0980392157
v -9.4986501032789317 11.518562709771356 -7.6221944539668423 0.0980392157 0.0980392157 0.0980392157
v -0.31965783203042974 5.1330060042314614 12.244500578446562 0.0980392157 0.0980392157 0.0980392157
v -0.9700606656744013 1.2263054948124055 6.5108222366345929 0.0980392157 0.0980392157 0.0980392157
v 4.3977548990702342 0.70726539408398403 6.2567523437868093 0.0980392157 0.0980392157 0.0980392157
v 7.8870964203272251 3.1829838826902286 11.456900071816358 0.0980392157 0.0980392157 0.0980392157
v 4.3977548990702342 0.70726539408398403 6.2567523437868093 0.0980392157 0.0980392157 0.0980392157
v 5.9374427148783528 -6.4278527377960444 3.8572060379357636 0.0980392157 0.0980392157 0.0980392157
v -14.748557352378739 26.361359897102208 -7.3087943876220178 0.0980392157 0.0980392157 0.0980392157
v -13.547983689259389 22.953443591799168 -9.7747091792947653 0.0980392157 0.0980392157 0.0980392157
v -20.123978194760529 23.875391714546137 -5.8972775129514785 0.0980392157 0.0980392157 0.0980392157
v -18.821436634827961 32.233543766611568 -0.10261098257444423 0.0980392157 0.0980392157 0.0980392157
v -14.748557352378739 26.361359897102208 -7.3087943876220178 0.0980392157 0.0980392157 0.0980392157
v -14.990987159466506 27.682161115059056 6.97989814439988 0.0980392157 0.0980392157 0.0980392157
v 10.402014814643378 -5.2529756621372137 1.2304151304617919 0.0980392157 0.0980392157 0.0980392157
v 5.9374427148783528 -6.4278527377960444 3.8572060379357636 0.0980392157 0.0980392157 0.0980392157
v 5.3566160103591773 -6.6651859621032479 -3.7273092298889821 0.0980392157 0.0980392157 0.0980392157
v -0.86787358846865803 4.2847303620205892 -5.1972412390279503 0.0980392157 0.0980392157 0.0980392157
v -7.4350966435450196 5.2525186618851123 -11.619664345969042 0.0980392157 0.0980392157 0.0980392157
v -3.8210441843201792 10.272631819072206 -7.6670341322871867 0.0980392157 0.0980392157 0.0980392157
v 5.3167654410633318 11.610755223447066 -7.9149951540484906 0.0980392157 0.0980392157 0.0980392157
v -0.86787358846865803 4.2847303620205892 -5.1972412390279503 0.0980392157 0.0980392157 0.0980392157
v 4.9437550472344896 0.64881643400545697 -7.1439512692893787 0.0980392157 0.0980392157 0.0980392157
v 0.27362928308803852 5.5326948120056727 -1.2627197069286096 0.0980392157 0.0980392157 0.0980392157
v -0.86787358846865803 4.2847303620205892 -5.1972412390279503 0.0980392157 0.0980392157 0.0980392157
v 4.9437550472344896 0.64881643400545697 -7.1439512692893787 0.0980392157 0.0980392157 0.0980392157
v -0.86787358846865803 4.2847303620205892 -5.1972412390279503 0.0980392157 0.0980392157 0.0980392157
v 5.3167654410633318 11.610755223447066 -7.9149951540484906 0.0980392157 0.0980392157 0.0980392157
v 4.3977548990702342 0.70726539408398403 6.2567523437868093 0.0980392157 0.0980392157 0.0980392157
v 4.3977548990702342 0.70726539408398403 6.2567523437868093 0.0980392157 0.0980392157 0.0980392157
v 5.3566160103591773 -6.6651859621032479 -3.7273092298889821 0.0980392157 0.0980392157 0.0980392157
v 5.9374427148783528 -6.4278527377960444 3.8572060379357636 0.0980392157 0.0980392157 0.0980392157
v 4.9437550472344896 0.64881643400545697 -7.1439512692893787 0.0980392157 0.0980392157 0.0980392157
v 10.388649277795722 -1.9900732342230749 4.6323850730718537 0.0980392157 0.0980392157 0.0980392157
v 7.8870964203272251 3.1829838826902286 11.456900071816358 0.0980392157 0.0980392157 0.0980392157
v 7.8870964203272251 3.1829838826902286 11.456900071816358 0.0980392157 0.0980392157 0.0980392157
v -0.31965783203042974 5.1330060042314614 12.244500578446562 0.0980392157 0.0980392157 0.0980392157
v 4.3977548990702342 0.70726539408398403 6.2567523437868093 0.0980392157 0.0980392157 0.0980392157
v -14.375320319429877 36.236032942404911 7.4545142805986799 0.0980392157 0.0980392157 0.0980392157
v -18.821436634827961 32.233543766611568 -0.10261098257444423 0.0980392157 0.0980392157 0.0980392157
v -14.990987159466506 27.682161115059056 6.97989814439988 0.0980392157 0.0980392157 0.0980392157
v -6.1624353062427559 24.538246397932035 14.256447819993804 0.0980392157 0.0980392157 0.0980392157
v -14.990987159466506 27.682161115059056 6.97989814439988 0.0980392157 0.0980392157 0.0980392157
v -19.317726073259401 24.868009668966451 10.660137741826496 0.0980392157 0.0980392157 0.0980392157
v 6.1016345166602832 18.900435808961532 -10.971502425814251 0.0980392157 0.0980392157 0.0980392157
v -10.654877895094074 18.208817006995773 -10.534993045004397 0.0980392157 0.0980392157 0.0980392157
v 6.1016345166602832 18.900435808961532 -10.971502425814251 0.0980392157 0.0980392157 0.0980392157
v 5.6140542088783949 14.777720828453273 -6.5643425849674895 0.0980392157 0.0980392157 0.0980392157
v -10.654877895094074 18.208817006995773 -10.534993045004397 0.0980392157 0.0980392157 0.0980392157
v -13.356022955551387 39.157923468191406 -7.5059653322415425 0.0980392157 0.0980392157 0.0980392157
v -14.748557352378739 26.361359897102208 -7.3087943876220178 0.0980392157 0.0980392157 0.0980392157
v -18.821436634827961 32.233543766611568 -0.10261098257444423 0.0980392157 0.0980392157 0.0980392157
v -2.0952132756948449 26.485523632776921 7.6391857953937459 0.0980392157 0.0980392157 0.0980392157
v -14.375320319429877 36.236032942404911 7.4545142805986799 0.0980392157 0.0980392157 0.0980392157
v -14.990987159466506 27.682161115059056 6.97989814439988 0.0980392157 0.0980392157 0.0980392157
v -2.0952132756948449 26.485523632776921 7.6391857953937459 0.0980392157 0.0980392157 0.0980392157
v 4.8314680410935527 27.365836058275903 7.5885750241544283 0.0980392157 0.0980392157 0.0980392157
v -2.0952132756948449 26.485523632776921 7.6391857953937459 0.0980392157 0.0980392157 0.0980392157
v 10.540691413360594 30.728310200386741 7.4531686415969318 0.0980392157 0.0980392157 0.0980392157
v 6.6435973384817668 39.502281278656383 7.5310690344826394 0.0980392157 0.0980392157 0.0980392157
v 6.6435973384817668 39.502281278656383 7.5310690344826394 0.0980392157 0.0980392157 0.0980392157
v 0.18036110275564399 42.911101343546555 6.2252979792344387 0.0980392157 0.0980392157 0.0980392157
v -14.375320319429877 36.236032942404911 7.4545142805986799 0.0980392157 0.0980392157 0.0980392157
v 11.752110523126554 35.495168675200105 4.785992853598211 0.0980392157 0.0980392157 0.0980392157
v 6.6435973384817668 39.502281278656383 7.5310690344826394 0.0980392157 0.0980392157 0.0980392157
v 10.540691413360594 30.728310200386741 7.4531686415969318 0.0980392157 0.0980392157 0.0980392157
v 8.9608067266969336 25.314962833846156 11.84778677522721 0.0980392157 0.0980392157 0.0980392157
v 10.540691413360594 30.728310200386741 7.4531686415969318 0.0980392157 0.0980392157 0.0980392157
v 4.8314680410935527 27.365836058275903 7.5885750241544283 0.0980392157 0.0980392157 0.0980392157
v 8.9608067266969336 25.314962833846156 11.84778677522721 0.0980392157 0.0980392157 0.0980392157
v 11.282346741448665 26.320713807510284 3.6200347465730318 0.0980392157 0.0980392157 0.0980392157
v 10.540691413360594 30.728310200386741 7.4531686415969318 0.0980392157 0.0980392157 0.0980392157
v 8.9608067266969336 25.314962833846156 11.84778677522721 0.0980392157 0.0980392157 0.0980392157
v 4.8314680410935527 27.365836058275903 7.5885750241544283 0.0980392157 0.0980392157 0.0980392157
v 7.3283749121498838 24.591852917743672 7.3290180000462053 0.0980392157 0.0980392157 0.0980392157
v 2.6974153518676758 24.091897964477539 7.5 0.0980392157 0.0980392157 0.0980392157
v 7.3283749121498838 24.591852917743672 7.3290180000462053 0.0980392157 0.0980392157 0.0980392157
v 4.4203963279724121 22.351688385009766 12.900747299194336 0.0980392157 0.0980392157 0.0980392157
v 7.3283749121498838 24.591852917743672 7.3290180000462053 0.0980392157 0.0980392157 0.0980392157
v 2.6974153518676758 24.091897964477539 7.5 0.0980392157 0.0980392157 0.0980392157
v 5.4915825803244331 25.068673861868106 14.437338659435735 0.0980392157 0.0980392157 0.0980392157
v 7.3283749121498838 24.591852917743672 7.3290180000462053 0.0980392157 0.0980392157 0.0980392157
v 4.4203963279724121 22.351688385009766 12.900747299194336 0.0980392157 0.0980392157 0.0980392157
v 8.9608067266969336 25.314962833846156 11.84778677522721 0.0980392157 0.0980392157 0.0980392157
v 7.3283749121498838 24.591852917743672 7.3290180000462053 0.0980392157 0.0980392157 0.0980392157
v 5.4915825803244331 25.068673861868106 14.437338659435735 0.0980392157 0.0980392157 0.0980392157
v 0.99288416254812706 25.058411628010859 14.79089878158724 0.0980392157 0.0980392157 0.0980392157
v 2.6974153518676758 24.091897964477539 7.5 0.0980392157 0.0980392157 0.0980392157
v 4.8314680410935527 27.365836058275903 7.5885750241544283 0.0980392157 0.0980392157 0.0980392157
v 4.4203963279724121 22.351688385009766 12.900747299194336 0.0980392157 0.0980392157 0.0980392157
v 2.6974153518676758 24.091897964477539 7.5 0.0980392157 0.0980392157 0.0980392157
v 0.99288416254812706 25.058411628010859 14.79089878158724 0.0980392157 0.0980392157 0.0980392157
v 0.99288416254812706 25.058411628010859 14.79089878158724 0.0980392157 0.0980392157 0.0980392157
v 4.8314680410935527 27.365836058275903 7.5885750241544283 0.0980392157 0.0980392157 0.0980392157
v -2.0952132756948449 26.485523632776921 7.6391857953937459 0.0980392157 0.0980392157 0.0980392157
v 0.99288416254812706 25.058411628010859 14.79089878158724 0.0980392157 0.0980392157 0.0980392157
v -2.0952132756948449 26.485523632776921 7.6391857953937459 0.0980392157 0.0980392157 0.0980392157
v -6.1624353062427559 24.538246397932035 14.256447819993804 0.0980392157 0.0980392157 0.0980392157
v -2.0952132756948449 26.485523632776921 7.6391857953937459 0.0980392157 0.0980392157 0.0980392157
v 0.99288416254812706 25.058411628010859 14.79089878158724 0.0980392157 0.0980392157 0.0980392157
v -6.1624353062427559 24.538246397932035 14.256447819993804 0.0980392157 0.0980392157 0.0980392157
v 0.99288416254812706 25.058411628010859 14.79089878158724 0.0980392157 0.0980392157 0.0980392157
v -2.0952132756948449 26.485523632776921 7.6391857953937459 0.0980392157 0.0980392157 0.0980392157
v -6.1624353062427559 24.538246397932035 14.256447819993804 0.0980392157 0.0980392157 0.0980392157
v 14.842395906679128 3.1904277939470336 -8.3900378039186219 0.0980392157 0.0980392157 0.0980392157
v 4.9437550472344896 0.64881643400545697 -7.1439512692893787 0.0980392157 0.0980392157 0.0980392157
v 14.842395906679128 3.1904277939470336 -8.3900378039186219 0.0980392157 0.0980392157 0.0980392157
v 4.9437550472344896 0.64881643400545697 -7.1439512692893787 0.0980392157 0.0980392157 0.0980392157
v 6.8702669383285215 3.2726455072085012 -11.48113469271601 0.0980392157 0.0980392157 0.0980392157
v 10.209013959145864 -2.1086584226801603 -4.3077033746461124 0.0980392157 0.0980392157 0.0980392157
v 16.581452515025305 -0.29715767878026955 6.3072926327725458 0.0980392157 0.0980392157 0.0980392157
v 10.388649277795722 -1.9900732342230749 4.6323850730718537 0.0980392157 0.0980392157 0.0980392157
v 10.014610092382936 2.4134896662147276 4.4143120436935561 0.0980392157 0.0980392157 0.0980392157
v 16.581452515025305 -0.29715767878026955 6.3072926327725458 0.0980392157 0.0980392157 0.0980392157
v 7.8870964203272251 3.1829838826902286 11.456900071816358 0.0980392157 0.0980392157 0.0980392157
v 10.388649277795722 -1.9900732342230749 4.6323850730718537 0.0980392157 0.0980392157 0.0980392157
v 15.252820706540875 0.21229148243850321 1.5093328553931378 0.0980392157 0.0980392157 0.0980392157
v 10.014610092382936 2.4134896662147276 4.4143120436935561 0.0980392157 0.0980392157 0.0980392157
v 10.388649277795722 -1.9900732342230749 4.6323850730718537 0.0980392157 0.0980392157 0.0980392157
v 15.252820706540875 0.21229148243850321 1.5093328553931378 0.0980392157 0.0980392157 0.0980392157
v 16.581452515025305 -0.29715767878026955 6.3072926327725458 0.0980392157 0.0980392157 0.0980392157
v 10.014610092382936 2.4134896662147276 4.4143120436935561 0.0980392157 0.0980392157 0.0980392157
v 16.145765591271701 8.6967563462828412 3.6810593117977644 0.0980392157 0.0980392157 0.0980392157
v 15.252820706540875 0.21229148243850321 1.5093328553931378 0.0980392157 0.0980392157 0.0980392157
v 10.014610092382936 2.4134896662147276 4.4143120436935561 0.0980392157 0.0980392157 0.0980392157
v 6.9422742276938356 1.5208177252825537 1.2900944706812791 0.0980392157 0.0980392157 0.0980392157
v 10.388649277795722 -1.9900732342230749 4.6323850730718537 0.0980392157 0.0980392157 0.0980392157
v 10.209013959145864 -2.1086584226801603 -4.3077033746461124 0.0980392157 0.0980392157 0.0980392157
v 15.252820706540875 0.21229148243850321 1.5093328553931378 0.0980392157 0.0980392157 0.0980392157
v 10.388649277795722 -1.9900732342230749 4.6323850730718537 0.0980392157 0.0980392157 0.0980392157
v 6.9422742276938356 1.5208177252825537 1.2900944706812791 0.0980392157 0.0980392157 0.0980392157
v 16.874683408245875 3.678500932949158 -3.1388329468824328 0.0980392157 0.0980392157 0.0980392157
v 10.209013959145864 -2.1086584226801603 -4.3077033746461124 0.0980392157 0.0980392157 0.0980392157
v 14.842395906679128 3.1904277939470336 -8.3900378039186219 0.0980392157 0.0980392157 0.0980392157
v 10.014610092382936 2.4134896662147276 4.4143120436935561 0.0980392157 0.0980392157 0.0980392157
v 15.252820706540875 0.21229148243850321 1.5093328553931378 0.0980392157 0.0980392157 0.0980392157
v 6.9422742276938356 1.5208177252825537 1.2900944706812791 0.0980392157 0.0980392157 0.0980392157
v 12.326140976492249 23.225655079235182 -9.9495019649441225 0.0980392157 0.0980392157 0.0980392157
v 14.593941301952821 0.57358961496881711 9.3733541137197047 0.0980392157 0.0980392157 0.0980392157
v 7.8870964203272251 3.1829838826902286 11.456900071816358 0.0980392157 0.0980392157 0.0980392157
v 10.266756183591973 27.609864765833997 -7.2785890325832856 0.0980392157 0.0980392157 0.0980392157
v -13.547983689259389 22.953443591799168 -9.7747091792947653 0.0980392157 0.0980392157 0.0980392157
v -14.748557352378739 26.361359897102208 -7.3087943876220178 0.0980392157 0.0980392157 0.0980392157
v 12.326140976492249 23.225655079235182 -9.9495019649441225 0.0980392157 0.0980392157 0.0980392157
v -13.547983689259389 22.953443591799168 -9.7747091792947653 0.0980392157 0.0980392157 0.0980392157
v 10.266756183591973 27.609864765833997 -7.2785890325832856 0.0980392157 0.0980392157 0.0980392157
v -14.748557352378739 26.361359897102208 -7.3087943876220178 0.0980392157 0.0980392157 0.0980392157
v -13.356022955551387 39.157923468191406 -7.5059653322415425 0.0980392157 0.0980392157 0.0980392157
v 10.266756183591973 27.609864765833997 -7.2785890325832856 0.0980392157 0.0980392157 0.0980392157
v 11.01000605632442 26.253856864197843 -4.90350105374797 0.0980392157 0.0980392157 0.0980392157
v 12.326140976492249 23.225655079235182 -9.9495019649441225 0.0980392157 0.0980392157 0.0980392157
v 10.266756183591973 27.609864765833997 -7.2785890325832856 0.0980392157 0.0980392157 0.0980392157
v 8.7142512576903517 40.235616545348627 -7.3214405037452392 0.0980392157 0.0980392157 0.0980392157
v 10.266756183591973 27.609864765833997 -7.2785890325832856 0.0980392157 0.0980392157 0.0980392157
v -13.356022955551387 39.157923468191406 -7.5059653322415425 0.0980392157 0.0980392157 0.0980392157
v -10.652267897398485 42.972302072003224 -1.191044321166411 0.0980392157 0.0980392157 0.0980392157
v -18.821436634827961 32.233543766611568 -0.10261098257444423 0.0980392157 0.0980392157 0.0980392157
v -14.375320319429877 36.236032942404911 7.4545142805986799 0.0980392157 0.0980392157 0.0980392157
v 6.8702669383285215 3.2726455072085012 -11.48113469271601 0.0980392157 0.0980392157 0.0980392157
v 4.9437550472344896 0.64881643400545697 -7.1439512692893787 0.0980392157 0.0980392157 0.0980392157
v 5.3167654410633318 11.610755223447066 -7.9149951540484906 0.0980392157 0.0980392157 0.0980392157
v 6.9422742276938356 1.5208177252825537 1.2900944706812791 0.0980392157 0.0980392157 0.0980392157
v 10.209013959145864 -2.1086584226801603 -4.3077033746461124 0.0980392157 0.0980392157 0.0980392157
v 8.6201013144194665 5.7548234127336908 -4.1264261639769577 0.0980392157 0.0980392157 0.0980392157
v 16.874683408245875 3.678500932949158 -3.1388329468824328 0.0980392157 0.0980392157 0.0980392157
v 8.6201013144194665 5.7548234127336908 -4.1264261639769577 0.0980392157 0.0980392157 0.0980392157
v 10.209013959145864 -2.1086584226801603 -4.3077033746461124 0.0980392157 0.0980392157 0.0980392157
v 9.1388732783917241 10.103551363128632 2.1422845450456558 0.0980392157 0.0980392157 0.0980392157
v 6.9422742276938356 1.5208177252825537 1.2900944706812791 0.0980392157 0.0980392157 0.0980392157
v 8.6201013144194665 5.7548234127336908 -4.1264261639769577 0.0980392157 0.0980392157 0.0980392157
v 10.014610092382936 2.4134896662147276 4.4143120436935561 0.0980392157 0.0980392157 0.0980392157
v 6.9422742276938356 1.5208177252825537 1.2900944706812791 0.0980392157 0.0980392157 0.0980392157
v 9.1388732783917241 10.103551363128632 2.1422845450456558 0.0980392157 0.0980392157 0.0980392157
v 14.842395906679128 3.1904277939470336 -8.3900378039186219 0.0980392157 0.0980392157 0.0980392157
v 13.510934180271772 6.279941983027336 -9.8787663818511096 0.0980392157 0.0980392157 0.0980392157
v 5.3167654410633318 11.610755223447066 -7.9149951540484906 0.0980392157 0.0980392157 0.0980392157
v 5.6140542088783949 14.777720828453273 -6.5643425849674895 0.0980392157 0.0980392157 0.0980392157
v 13.510934180271772 6.279941983027336 -9.8787663818511096 0.0980392157 0.0980392157 0.0980392157
v 8.6201013144194665 5.7548234127336908 -4.1264261639769577 0.0980392157 0.0980392157 0.0980392157
v 16.874683408245875 3.678500932949158 -3.1388329468824328 0.0980392157 0.0980392157 0.0980392157
v 13.017512019532539 5.0898534590007811 -6.6314030176869778 0.0980392157 0.0980392157 0.0980392157
v 15.971162796020508 8.2442283630371094 -1.9379271268844604 0.0980392157 0.0980392157 0.0980392157
v 8.6201013144194665 5.7548234127336908 -4.1264261639769577 0.0980392157 0.0980392157 0.0980392157
v 13.017512019532539 5.0898534590007811 -6.6314030176869778 0.0980392157 0.0980392157 0.0980392157
v 16.145765591271701 8.6967563462828412 3.6810593117977644 0.0980392157 0.0980392157 0.0980392157
v 16.874683408245875 3.678500932949158 -3.1388329468824328 0.0980392157 0.0980392157 0.0980392157
v 15.252820706540875 0.21229148243850321 1.5093328553931378 0.0980392157 0.0980392157 0.0980392157
v 12.01849308441783 13.577110793622349 0.58170715010753116 0.0980392157 0.0980392157 0.0980392157
v 12.01849308441783 13.577110793622349 0.58170715010753116 0.0980392157 0.0980392157 0.0980392157
v 8.6201013144194665 5.7548234127336908 -4.1264261639769577 0.0980392157 0.0980392157 0.0980392157
v 15.971162796020508 8.2442283630371094 -1.9379271268844604 0.0980392157 0.0980392157 0.0980392157
v 16.145765591271701 8.6967563462828412 3.6810593117977644 0.0980392157 0.0980392157 0.0980392157
v 9.7843823295347327 8.0485770185035452 5.9654658041106146 0.0980392157 0.0980392157 0.0980392157
v 9.1388732783917241 10.103551363128632 2.1422845450456558 0.0980392157 0.0980392157 0.0980392157
v 16.145765591271701 8.6967563462828412 3.6810593117977644 0.0980392157 0.0980392157 0.0980392157
v 9.1388732783917241 10.103551363128632 2.1422845450456558 0.0980392157 0.0980392157 0.0980392157
v 12.01849308441783 13.577110793622349 0.58170715010753116 0.0980392157 0.0980392157 0.0980392157
v 10.014610092382936 2.4134896662147276 4.4143120436935561 0.0980392157 0.0980392157 0.0980392157
v 9.1388732783917241 10.103551363128632 2.1422845450456558 0.0980392157 0.0980392157 0.0980392157
v 9.7843823295347327 8.0485770185035452 5.9654658041106146 0.0980392157 0.0980392157 0.0980392157
v 16.145765591271701 8.6967563462828412 3.6810593117977644 0.0980392157 0.0980392157 0.0980392157
v 10.014610092382936 2.4134896662147276 4.4143120436935561 0.0980392157 0.0980392157 0.0980392157
v 9.7843823295347327 8.0485770185035452 5.9654658041106146 0.0980392157 0.0980392157 0.0980392157
v 4.8314680410935527 27.365836058275903 7.5885750241544283 0.0980392157 0.0980392157 0.0980392157
v 5.4915825803244331 25.068673861868106 14.437338659435735 0.0980392157 0.0980392157 0.0980392157
v 0.99288416254812706 25.058411628010859 14.79089878158724 0.0980392157 0.0980392157 0.0980392157
v 4.8314680410935527 27.365836058275903 7.5885750241544283 0.0980392157 0.0980392157 0.0980392157
v 0.99288416254812706 25.058411628010859 14.79089878158724 0.0980392157 0.0980392157 0.0980392157
v 5.4915825803244331 25.068673861868106 14.437338659435735 0.0980392157 0.0980392157 0.0980392157
v 4.4203963279724121 22.351688385009766 12.900747299194336 0.0980392157 0.0980392157 0.0980392157
v 0.99288416254812706 25.058411628010859 14.79089878158724 0.0980392157 0.0980392157 0.0980392157
v 15.252820706540875 0.21229148243850321 1.5093328553931378 0.0980392157 0.0980392157 0.0980392157
v 16.874683408245875 3.678500932949158 -3.1388329468824328 0.0980392157 0.0980392157 0.0980392157
v 16.581452515025305 -0.29715767878026955 6.3072926327725458 0.0980392157 0.0980392157 0.0980392157
v 16.145765591271701 8.6967563462828412 3.6810593117977644 0.0980392157 0.0980392157 0.0980392157
v 13.017512019532539 5.0898534590007811 -6.6314030176869778 0.0980392157 0.0980392157 0.0980392157
v 16.874683408245875 3.678500932949158 -3.1388329468824328 0.0980392157 0.0980392157 0.0980392157
v 16.145765591271701 8.6967563462828412 3.6810593117977644 0.0980392157 0.0980392157 0.0980392157
v 15.971162796020508 8.2442283630371094 -1.9379271268844604 0.0980392157 0.0980392157 0.0980392157
v 13.017512019532539 5.0898534590007811 -6.6314030176869778 0.0980392157 0.0980392157 0.0980392157
v 16.145765591271701 8.6967563462828412 3.6810593117977644 0.0980392157 0.0980392157 0.0980392157
v 12.01849308441783 13.577110793622349 0.58170715010753116 0.0980392157 0.0980392157 0.0980392157
v 15.971162796020508 8.2442283630371094 -1.9379271268844604 0.0980392157 0.0980392157 0.0980392157
v 15.732954961965302 25.020533458532405 11.391318987238931 0.0980392157 0.0980392157 0.0980392157
v 7.8870964203272251 3.1829838826902286 11.456900071816358 0.0980392157 0.0980392157 0.0980392157
v 14.593941301952821 0.57358961496881711 9.3733541137197047 0.0980392157 0.0980392157 0.0980392157
v 0.18036110275564399 42.911101343546555 6.2252979792344387 0.0980392157 0.0980392157 0.0980392157
v -10.652267897398485 42.972302072003224 -1.191044321166411 0.0980392157 0.0980392157 0.0980392157
v -14.375320319429877 36.236032942404911 7.4545142805986799 0.0980392157 0.0980392157 0.0980392157
v 16.874683408245875 3.678500932949158 -3.1388329468824328 0.0980392157 0.0980392157 0.0980392157
v 14.842395906679128 3.1904277939470336 -8.3900378039186219 0.0980392157 0.0980392157 0.0980392157
v 13.510934180271772 6.279941983027336 -9.8787663818511096 0.0980392157 0.0980392157 0.0980392157
v 5.6140542088783949 14.777720828453273 -6.5643425849674895 0.0980392157 0.0980392157 0.0980392157
v 16.726663042022608 14.488159791420633 -8.4276334920986802 0.0980392157 0.0980392157 0.0980392157
v 13.510934180271772 6.279941983027336 -9.8787663818511096 0.0980392157 0.0980392157 0.0980392157
v 16.726663042022608 14.488159791420633 -8.4276334920986802 0.0980392157 0.0980392157 0.0980392157
v 16.874683408245875 3.678500932949158 -3.1388329468824328 0.0980392157 0.0980392157 0.0980392157
v 13.510934180271772 6.279941983027336 -9.8787663818511096 0.0980392157 0.0980392157 0.0980392157
v 19.029505088039731 24.987270143067917 0.24591603633916162 0.0980392157 0.0980392157 0.0980392157
v 19.038318296297867 25.053672547715497 8.2455372004704515 0.0980392157 0.0980392157 0.0980392157
v 15.732954961965302 25.020533458532405 11.391318987238931 0.0980392157 0.0980392157 0.0980392157
v 8.9608067266969336 25.314962833846156 11.84778677522721 0.0980392157 0.0980392157 0.0980392157
v 16.726663042022608 14.488159791420633 -8.4276334920986802 0.0980392157 0.0980392157 0.0980392157
v 5.6140542088783949 14.777720828453273 -6.5643425849674895 0.0980392157 0.0980392157 0.0980392157
v 6.1016345166602832 18.900435808961532 -10.971502425814251 0.0980392157 0.0980392157 0.0980392157
v -10.652267897398485 42.972302072003224 -1.191044321166411 0.0980392157 0.0980392157 0.0980392157
v 8.7142512576903517 40.235616545348627 -7.3214405037452392 0.0980392157 0.0980392157 0.0980392157
v 11.282346741448665 26.320713807510284 3.6200347465730318 0.0980392157 0.0980392157 0.0980392157
v 16.726663042022608 14.488159791420633 -8.4276334920986802 0.0980392157 0.0980392157 0.0980392157
v 15.179795743526164 31.572290462869038 1.295052184998948 0.0980392157 0.0980392157 0.0980392157
v 11.282346741448665 26.320713807510284 3.6200347465730318 0.0980392157 0.0980392157 0.0980392157
v 18.092344134362488 24.948247070399006 4.3713386199871254 0.0980392157 0.0980392157 0.0980392157
v 15.732954961965302 25.020533458532405 11.391318987238931 0.0980392157 0.0980392157 0.0980392157
v 14.811394691467285 22.841903686523438 6.0944252014160156 0.0980392157 0.0980392157 0.0980392157
v 11.282346741448665 26.320713807510284 3.6200347465730318 0.0980392157 0.0980392157 0.0980392157
v 18.092344134362488 24.948247070399006 4.3713386199871254 0.0980392157 0.0980392157 0.0980392157
v 11.282346741448665 26.320713807510284 3.6200347465730318 0.0980392157 0.0980392157 0.0980392157
v 14.811394691467285 22.841903686523438 6.0944252014160156 0.0980392157 0.0980392157 0.0980392157
v 15.732954961965302 25.020533458532405 11.391318987238931 0.0980392157 0.0980392157 0.0980392157
v 18.092344134362488 24.948247070399006 4.3713386199871254 0.0980392157 0.0980392157 0.0980392157
v 14.811394691467285 22.841903686523438 6.0944252014160156 0.0980392157 0.0980392157 0.0980392157
v 4.6246627343262583 43.101765137184323 -0.098218238413087536 0.0980392157 0.0980392157 0.0980392157
v -10.652267897398485 42.972302072003224 -1.191044321166411 0.0980392157 0.0980392157 0.0980392157
v 0.18036110275564399 42.911101343546555 6.2252979792344387 0.0980392157 0.0980392157 0.0980392157
v 8.6382161875548977 41.465177031292136 4.049624265141806 0.0980392157 0.0980392157 0.0980392157
v 18.342800315864761 23.110277662295939 -6.2293818065100854 0.0980392157 0.0980392157 0.0980392157
v 12.326140976492249 23.225655079235182 -9.9495019649441225 0.0980392157 0.0980392157 0.0980392157
v 16.726663042022608 14.488159791420633 -8.4276334920986802 0.0980392157 0.0980392157 0.0980392157
v 18.342800315864761 23.110277662295939 -6.2293818065100854 0.0980392157 0.0980392157 0.0980392157
v 18.342800315864761 23.110277662295939 -6.2293818065100854 0.0980392157 0.0980392157 0.0980392157
v 11.01000605632442 26.253856864197843 -4.90350105374797 0.0980392157 0.0980392157 0.0980392157
v 12.528907597183041 24.383884955958315 0.26063001336322239 0.0980392157 0.0980392157 0.0980392157
v 12.326140976492249 23.225655079235182 -9.9495019649441225 0.0980392157 0.0980392157 0.0980392157
v 11.01000605632442 26.253856864197843 -4.90350105374797 0.0980392157 0.0980392157 0.0980392157
v 18.342800315864761 23.110277662295939 -6.2293818065100854 0.0980392157 0.0980392157 0.0980392157
v 10.952544377826664 28.494520390040883 -1.77335632969537 0.0980392157 0.0980392157 0.0980392157
v 12.528907597183041 24.383884955958315 0.26063001336322239 0.0980392157 0.0980392157 0.0980392157
v 15.398213260264335 32.367587024761086 -1.5230813477321148 0.0980392157 0.0980392157 0.0980392157
v 10.952544377826664 28.494520390040883 -1.77335632969537 0.0980392157 0.0980392157 0.0980392157
v 11.01000605632442 26.253856864197843 -4.90350105374797 0.0980392157 0.0980392157 0.0980392157
v 19.029505088039731 24.987270143067917 0.24591603633916162 0.0980392157 0.0980392157 0.0980392157
v 18.342800315864761 23.110277662295939 -6.2293818065100854 0.0980392157 0.0980392157 0.0980392157
v 12.528907597183041 24.383884955958315 0.26063001336322239 0.0980392157 0.0980392157 0.0980392157
v 19.029505088039731 24.987270143067917 0.24591603633916162 0.0980392157 0.0980392157 0.0980392157
v 12.528907597183041 24.383884955958315 0.26063001336322239 0.0980392157 0.0980392157 0.0980392157
v 10.952544377826664 28.494520390040883 -1.77335632969537 0.0980392157 0.0980392157 0.0980392157
v 19.029505088039731 24.987270143067917 0.24591603633916162 0.0980392157 0.0980392157 0.0980392157
v 10.952544377826664 28.494520390040883 -1.77335632969537 0.0980392157 0.0980392157 0.0980392157
v 15.398213260264335 32.367587024761086 -1.5230813477321148 0.0980392157 0.0980392157 0.0980392157
v 15.179795743526164 31.572290462869038 1.295052184998948 0.0980392157 0.0980392157 0.0980392157
v 18.092344134362488 24.948247070399006 4.3713386199871254 0.0980392157 0.0980392157 0.0980392157
v 12.528907597183041 24.383884955958315 0.26063001336322239 0.0980392157 0.0980392157 0.0980392157
v 19.029505088039731 24.987270143067917 0.24591603633916162 0.0980392157 0.0980392157 0.0980392157
v 12.528907597183041 24.383884955958315 0.26063001336322239 0.0980392157 0.0980392157 0.0980392157
v 18.092344134362488 24.948247070399006 4.3713386199871254 0.0980392157 0.0980392157 0.0980392157
v 15.179795743526164 31.572290462869038 1.295052184998948 0.0980392157 0.0980392157 0.0980392157
v 12.528907597183041 24.383884955958315 0.26063001336322239 0.0980392157 0.0980392157 0.0980392157
v 19.029505088039731 24.987270143067917 0.24591603633916162 0.0980392157 0.0980392157 0.0980392157
v 19.038318296297867 25.053672547715497 8.2455372004704515 0.0980392157 0.0980392157 0.0980392157
v 11.752110523126554 35.495168675200105 4.785992853598211 0.0980392157 0.0980392157 0.0980392157
v 10.540691413360594 30.728310200386741 7.4531686415969318 0.0980392157 0.0980392157 0.0980392157
v 11.282346741448665 26.320713807510284 3.6200347465730318 0.0980392157 0.0980392157 0.0980392157
v 15.179795743526164 31.572290462869038 1.295052184998948 0.0980392157 0.0980392157 0.0980392157
v 8.7142512576903517 40.235616545348627 -7.3214405037452392 0.0980392157 0.0980392157 0.0980392157
v 15.398213260264335 32.367587024761086 -1.5230813477321148 0.0980392157 0.0980392157 0.0980392157
v 19.038318296297867 25.053672547715497 8.2455372004704515 0.0980392157 0.0980392157 0.0980392157
v 19.029505088039731 24.987270143067917 0.24591603633916162 0.0980392157 0.0980392157 0.0980392157
v 18.092344134362488 24.948247070399006 4.3713386199871254 0.0980392157 0.0980392157 0.0980392157
v 8.6382161875548977 41.465177031292136 4.049624265141806 0.0980392157 0.0980392157 0.0980392157
v 4.6246627343262583 43.101765137184323 -0.098218238413087536 0.0980392157 0.0980392157 0.0980392157
v 6.6435973384817668 39.502281278656383 7.5310690344826394 0.0980392157 0.0980392157 0.0980392157
v 11.752110523126554 35.495168675200105 4.785992853598211 0.0980392157 0.0980392157 0.0980392157
v 8.6382161875548977 41.465177031292136 4.049624265141806 0.0980392157 0.0980392157 0.0980392157
v 0.18036110275564399 42.911101343546555 6.2252979792344387 0.0980392157 0.0980392157 0.0980392157
v 6.6435973384817668 39.502281278656383 7.5310690344826394 0.0980392157 0.0980392157 0.0980392157
v 8.6382161875548977 41.465177031292136 4.049624265141806 0.0980392157 0.0980392157 0.0980392157
v 15.398213260264335 32.367587024761086 -1.5230813477321148 0.0980392157 0.0980392157 0.0980392157
v 15.179795743526164 31.572290462869038 1.295052184998948 0.0980392157 0.0980392157 0.0980392157
v 19.029505088039731 24.987270143067917 0.24591603633916162 0.0980392157 0.0980392157 0.0980392157
v 11.752110523126554 35.495168675200105 4.785992853598211 0.0980392157 0.0980392157 0.0980392157
v 15.398213260264335 32.367587024761086 -1.5230813477321148 0.0980392157 0.0980392157 0.0980392157
v 8.7142512576903517 40.235616545348627 -7.3214405037452392 0.0980392157 0.0980392157 0.0980392157
v 15.179795743526164 31.572290462869038 1.295052184998948 0.0980392157 0.0980392157 0.0980392157
v -17.354675910249714 10.791555424951383 2.7203126808163201 0.0980392157 0.0980392157 0.0980392157
v 10.209013959145864 -2.1086584226801603 -4.3077033746461124 0.0980392157 0.0980392157 0.0980392157
v 10.402014814643378 -5.2529756621372137 1.2304151304617919 0.0980392157 0.0980392157 0.0980392157
v 5.4915825803244331 25.068673861868106 14.437338659435735 0.0980392157 0.0980392157 0.0980392157
v -9.2172632598228308 12.924675465358952 2.0944259467944368 0.0980392157 0.0980392157 0.0980392157
v -12.597537191402454 13.727447345345492 2.459821023152859 0.0980392157 0.0980392157 0.0980392157
v -12.930332916162255 13.276405139112605 -2.139979156273895 0.0980392157 0.0980392157 0.0980392157
v -9.4986501032789317 11.518562709771356 -7.6221944539668423 0.0980392157 0.0980392157 0.0980392157
v -3.8210441843201792 10.272631819072206 -7.6670341322871867 0.0980392157 0.0980392157 0.0980392157
v -18.821436634827961 32.233543766611568 -0.10261098257444423 0.0980392157 0.0980392157 0.0980392157
v -10.652267897398485 42.972302072003224 -1.191044321166411 0.0980392157 0.0980392157 0.0980392157
v -13.356022955551387 39.157923468191406 -7.5059653322415425 0.0980392157 0.0980392157 0.0980392157
v 10.209013959145864 -2.1086584226801603 -4.3077033746461124 0.0980392157 0.0980392157 0.0980392157
v 10.388649277795722 -1.9900732342230749 4.6323850730718537 0.0980392157 0.0980392157 0.0980392157
v 10.402014814643378 -5.2529756621372137 1.2304151304617919 0.0980392157 0.0980392157 0.0980392157
v -17.365825750070702 14.788770672667805 0.38160291272654578 0.0980392157 0.0980392157 0.0980392157
v 10.388649277795722 -1.9900732342230749 4.6323850730718537 0.0980392157 0.0980392157 0.0980392157
v 10.402014814643378 -5.2529756621372137 1.2304151304617919 0.0980392157 0.0980392157 0.0980392157
v 8.7142512576903517 40.235616545348627 -7.3214405037452392 0.0980392157 0.0980392157 0.0980392157
v 6.8702669383285215 3.2726455072085012 -11.48113469271601 0.0980392157 0.0980392157 0.0980392157
v -10.726591278162617 -3.8073865334934482 1.2180066003356136 0.0980392157 0.0980392157 0.0980392157
v 0.27362928308803852 5.5326948120056727 -1.2627197069286096 0.0980392157 0.0980392157 0.0980392157
v 4.3977548990702342 0.70726539408398403 6.2567523437868093 0.0980392157 0.0980392157 0.0980392157
v -0.9700606656744013 1.2263054948124055 6.5108222366345929 0.0980392157 0.0980392157 0.0980392157
v 5.6140542088783949 14.777720828453273 -6.5643425849674895 0.0980392157 0.0980392157 0.0980392157
v 8.7142512576903517 40.235616545348627 -7.3214405037452392 0.0980392157 0.0980392157 0.0980392157
v 8.6382161875548977 41.465177031292136 4.049624265141806 0.0980392157 0.0980392157 0.0980392157
v -14.136653188883997 0.64950916354683486 9.7330984726171188 0.0980392157 0.0980392157 0.0980392157
v -9.2172632598228308 12.924675465358952 2.0944259467944368 0.0980392157 0.0980392157 0.0980392157
v -8.5896241000424158 8.0950628246995961 -5.3742769637620604 0.0980392157 0.0980392157 0.0980392157
v -6.7540422953254593 5.4253925888814658 -1.051460776595035 0.0980392157 0.0980392157 0.0980392157
v -4.9117654245676832 -2.737601739300926 5.8957464155564923 0.0980392157 0.0980392157 0.0980392157
vn 0.21221305429935455 -0.97713017463684082 0.013501458801329136
vn 0.12374144047498703 -0.99231445789337158 -0.00017706200014799833
vn 0.19074249267578125 -0.97316926717758179 -0.128681480884552
vn -0.15206386148929596 -0.95612138509750366 0.25041666626930237
vn -0.065900325775146484 -0.87536716461181641 0.47894617915153503
vn -0.1351262629032135 -0.94467085599899292 0.29889434576034546
vn -0.9802696704864502 -0.17921154201030731 0.083394423127174377
vn -0.91988223791122437 -0.13635778427124023 -0.36772710084915161
vn -0.97707444429397583 -0.18602100014686584 -0.10354599356651306
vn 0.091099396347999573 -0.60286915302276611 -0.79262202978134155
vn 0.18064765632152557 -0.74438583850860596 -0.64284998178482056
vn 0.98517882823944092 0.1706988662481308 -0.016870893537998199
vn 0.9897540807723999 0.14228236675262451 0.011941444128751755
vn 0.98220181465148926 0.18108700215816498 0.049871325492858887
vn 0.13698893785476685 -0.61198842525482178 -0.77891218662261963
vn 0.081460490822792053 -0.86447978019714355 -0.49602308869361877
vn 0.1477864682674408 -0.53462702035903931 -0.83206558227539062
vn -0.17004388570785522 -0.72745174169540405 -0.66475486755371094
vn -0.17004388570785522 -0.72745174169540405 -0.66475486755371094
vn -0.17004388570785522 -0.72745174169540405 -0.66475486755371094
vn -0.51119476556777954 -0.12664510309696198 0.8500828742980957
vn -0.98119902610778809 -0.17096613347530365 0.089548960328102112
vn -0.38976424932479858 -0.11558213084936142 0.91363263130187988
vn -0.76350855827331543 -0.50556522607803345 0.40181902050971985
vn -0.82987898588180542 -0.11628732830286026 0.54569047689437866
vn -0.76793241500854492 -0.49393531680107117 0.40780839323997498
vn -0.45593112707138062 0.14272201061248779 -0.87849712371826172
vn -0.45593112707138062 0.14272201061248779 -0.87849712371826172
vn -0.45593112707138062 0.14272201061248779 -0.87849712371826172
vn 0.57072174549102783 0.74335396289825439 0.34885746240615845
vn 0.57072174549102783 0.74335396289825439 0.34885746240615845
vn 0.57072174549102783 0.74335396289825439 0.34885746240615845
vn -0.26243677735328674 0.87353646755218506 0.40995237231254578
vn -0.26243677735328674 0.87353646755218506 0.40995237231254578
vn -0.26243677735328674 0.87353646755218506 0.40995237231254578
vn 0.42766031622886658 0.30873674154281616 0.84958124160766602
vn 0.41483893990516663 0.19744271039962769 0.88821452856063843
vn 0.39595973491668701 0.08213554322719574 0.91458714008331299
vn -0.63876843452453613 0.32512086629867554 0.69733160734176636
vn -0.63876843452453613 0.32512086629867554 0.69733160734176636
vn -0.63876843452453613 0.32512086629867554 0.69733160734176636
vn -0.62833321094512939 -0.77779233455657959 -0.015379724092781544
vn -0.62833321094512939 -0.77779233455657959 -0.015379724092781544
vn -0.62833321094512939 -0.77779233455657959 -0.015379723161458969
vn 0.16190871596336365 0.34058284759521484 -0.92616891860961914
vn 0.17046922445297241 0.64679050445556641 -0.74337226152420044
vn 0.16856648027896881 0.49038180708885193 -0.85505032539367676
vn -0.26254796981811523 -0.88222938776016235 -0.39081951975822449
vn -0.5252913236618042 -0.83633643388748169 0.1568768322467804
vn -0.54865932464599609 -0.57360595464706421 -0.6082344651222229
vn -0.47200164198875427 -0.66657960414886475 0.57696276903152466
vn -0.47387176752090454 -0.88038259744644165 -0.01928824745118618
vn 0.31349670886993408 -0.55773383378982544 0.76853936910629272
vn -0.04717741534113884 -0.69782799482345581 0.71470999717712402
vn 0.31622794270515442 -0.92416191101074219 -0.21430027484893799
vn -0.54874724149703979 0.48380580544471741 -0.68176859617233276
vn -0.56762456893920898 0.50387585163116455 -0.65108484029769897
vn -0.61054253578186035 0.25663748383522034 -0.74924963712692261
vn -0.14374683797359467 -0.96304315328598022 -0.22778208553791046
vn -0.14374683797359467 -0.96304315328598022 -0.22778208553791046
vn -0.14374683797359467 -0.96304315328598022 -0.22778208553791046
vn 0.73144644498825073 0.24052150547504425 0.63807171583175659
vn 0.73144644498825073 0.24052150547504425 0.63807171583175659
vn 0.73144644498825073 0.24052150547504425 0.63807171583175659
vn 0.97921663522720337 0.17383271455764771 0.10448451340198517
vn 0.98305237293243408 0.16507470607757568 0.079739637672901154
vn 0.13746340572834015 -0.36326813697814941 0.92148798704147339
vn 0.33175474405288696 -0.44003304839134216 0.83445173501968384
vn -0.49874991178512573 -0.33703652024269104 0.79853296279907227
vn -0.47011348605155945 -0.27412927150726318 0.8389555811882019
vn -0.53390264511108398 -0.31841665506362915 0.78329992294311523
vn 0.6300661563873291 -0.41144141554832458 0.65858376026153564
vn 0.15608596801757812 -0.94925141334533691 0.27305483818054199
vn 0.28168958425521851 -0.78057849407196045 0.55798578262329102
vn 0.95472812652587891 0.24626177549362183 -0.16688111424446106
vn 0.97235417366027832 0.23207496106624603 -0.02585684135556221
vn -0.41929927468299866 0.77412307262420654 -0.47425898909568787
vn -0.40114626288414001 0.84273624420166016 -0.35899487137794495
vn -0.42888039350509644 0.70249855518341064 -0.56794136762619019
vn 0.19906927645206451 -0.58524203300476074 -0.78604274988174438
vn 0.18115098774433136 -0.65803337097167969 -0.730873703956604
vn 0.21978332102298737 -0.4830230176448822 -0.84757536649703979
vn 0.18597409129142761 -0.82753467559814453 0.52971690893173218
vn 0.048948932439088821 -0.82290256023406982 0.56607013940811157
vn 0.027072574943304062 -0.82064169645309448 0.57080137729644775
vn -0.022579114884138107 -0.72358417510986328 -0.68986678123474121
vn -0.43458864092826843 -0.7495078444480896 -0.499370276927948
vn -0.24716591835021973 -0.24975651502609253 -0.93623214960098267
vn -0.03538782149553299 -0.80097818374633789 -0.59764677286148071
vn -0.92692899703979492 -0.16367380321025848 -0.33765888214111328
vn -0.83017367124557495 -0.40648680925369263 -0.38154968619346619
vn -0.27176052331924438 -0.96166020631790161 -0.036821827292442322
vn -0.27176052331924438 -0.96166020631790161 -0.036821827292442322
vn -0.27176052331924438 -0.96166020631790161 -0.036821827292442322
vn -0.86232227087020874 0.081942684948444366 0.49968564510345459
vn -0.86898303031921387 0.15231159329414368 0.47081807255744934
vn -0.83613699674606323 0.453093022108078 0.30916273593902588
vn 0.9498487114906311 0.16098284721374512 0.26808950304985046
vn -0.024128774181008339 0.77567899227142334 0.63066619634628296
vn 0.13611157238483429 0.48681941628456116 0.86283284425735474
vn -0.041657254099845886 0.79995447397232056 0.59861296415328979
vn -0.12253408879041672 0.89285683631896973 0.4333498477935791
vn -0.060341246426105499 -0.75399923324584961 0.65409791469573975
vn -0.060341246426105499 -0.75399923324584961 0.65409791469573975
vn -0.060341246426105499 -0.75399923324584961 0.65409791469573975
vn -0.76477617025375366 -0.49155330657958984 -0.41652464866638184
vn -0.76992398500442505 -0.48057714104652405 -0.41983649134635925
vn -0.76706743240356445 -0.48670917749404907 -0.41799730062484741
vn 0.39907160401344299 -0.59497767686843872 0.69766998291015625
vn -0.64275610446929932 0.0049390541389584541 -0.76605498790740967
vn 0.69960963726043701 -0.56754255294799805 -0.43409886956214905
vn 0.69960963726043701 -0.56754255294799805 -0.43409886956214905
vn 0.69960963726043701 -0.56754255294799805 -0.43409886956214905
vn 0.29282566905021667 -0.36592164635658264 0.88337671756744385
vn 0.29282566905021667 -0.36592164635658264 0.88337671756744385
vn 0.29282566905021667 -0.36592164635658264 0.88337671756744385
vn 0.35236045718193054 0.085234694182872772 -0.93197488784790039
vn 0.1417200118303299 0.26289275288581848 -0.95435988903045654
vn 0.28665435314178467 0.1998780220746994 -0.93695145845413208
vn -0.72902917861938477 0.3776710033416748 -0.57085996866226196
vn -0.72737091779708862 0.30719366669654846 -0.61364775896072388
vn -0.72763270139694214 0.31190624833106995 -0.61095434427261353
vn 0.31431290507316589 -0.77307194471359253 0.55096930265426636
vn 0.49906262755393982 -0.70757120847702026 0.50027942657470703
vn 0.20110334455966949 0.97662007808685303 -0.075964733958244324
vn 0.20110334455966949 0.97662007808685303 -0.075964733958244324
vn 0.20110334455966949 0.97662007808685303 -0.075964733958244324
vn 0.12742766737937927 -0.66898363828659058 -0.73227256536483765
vn 0.12742766737937927 -0.66898363828659058 -0.73227256536483765
vn 0.12742766737937927 -0.66898363828659058 -0.73227256536483765
vn 0.73974394798278809 -0.44518193602561951 0.50457102060317993
vn 0.73974394798278809 -0.44518193602561951 0.50457102060317993
vn 0.73974394798278809 -0.44518193602561951 0.50457102060317993
vn 0.20857712626457214 -0.35153898596763611 0.91264230012893677
vn 0.20857712626457214 -0.35153898596763611 0.91264230012893677
vn 0.20857712626457214 -0.35153898596763611 0.91264230012893677
vn 0.64497882127761841 0.6571621298789978 -0.39005157351493835
vn 0.64497882127761841 0.6571621298789978 -0.39005157351493835
vn 0.64497882127761841 0.6571621298789978 -0.39005157351493835
vn -0.52493077516555786 0.54432302713394165 -0.65433943271636963
vn -0.57685840129852295 0.72729337215423584 -0.37185844779014587
vn -0.51904869079589844 0.52922725677490234 -0.67119818925857544
vn 0.064501553773880005 -0.85475003719329834 -0.51501649618148804
vn 0.066618703305721283 -0.82136553525924683 -0.56649857759475708
vn 0.06666295975446701 -0.82058727741241455 -0.56762009859085083
vn -0.42275282740592957 0.33986407518386841 -0.8401026725769043
vn -0.42275282740592957 0.33986407518386841 -0.8401026725769043
vn -0.42275282740592957 0.33986407518386841 -0.8401026725769043
vn 0.0066462131217122078 -0.14677761495113373 0.98914718627929688
vn -0.13889339566230774 -0.12755729258060455 0.98205792903900146
vn 0.0098355449736118317 0.25700098276138306 -0.96636110544204712
vn -0.50467640161514282 0.67646598815917969 -0.5363726019859314
vn -0.30752414464950562 0.36463797092437744 -0.87890160083770752
vn 0.99563771486282349 -0.063250996172428131 -0.068591848015785217
vn 0.99426871538162231 -0.0099123353138566017 -0.10644952952861786
vn 0.99882638454437256 -0.0098899519070982933 0.047413922846317291
vn -0.22329659759998322 0.50975102186203003 -0.83083844184875488
vn -0.35674154758453369 0.24767744541168213 -0.90077263116836548
vn -0.26184156537055969 0.55007457733154297 -0.79300504922866821
vn -0.024142151698470116 -0.72281777858734131 -0.69061684608459473
vn -0.024142151698470116 -0.72281777858734131 -0.69061684608459473
vn -0.024142151698470116 -0.72281777858734131 -0.69061684608459473
vn -0.17102448642253876 -0.74099826812744141 0.64936292171478271
vn -0.17039123177528381 -0.73845136165618896 0.65242350101470947
vn -0.17056110501289368 -0.73913472890853882 0.65160477161407471
vn -0.05352112278342247 -0.99856674671173096 0
vn -0.05352112278342247 -0.99856674671173096 0
vn -0.05352112278342247 -0.99856674671173096 0
vn -0.8737913966178894 -0.34722810983657837 -0.340472012758255
vn -0.90685266256332397 -0.11070243269205093 -0.40664881467819214
vn -0.82756048440933228 0.27308690547943115 -0.49047645926475525
vn -0.20025674998760223 -0.68795222043991089 -0.69758081436157227
vn -0.19803926348686218 -0.68551772832870483 -0.70060396194458008
vn -0.19922105967998505 -0.68681633472442627 -0.69899517297744751
vn -0.76197659969329834 -0.49440595507621765 0.41827550530433655
vn -0.76386696100234985 -0.4900645911693573 0.41993331909179688
vn -0.77384966611862183 -0.46614107489585876 0.42879968881607056
vn 0.032762482762336731 -0.12728860974311829 0.99132448434829712
vn -0.70068359375 -0.70524269342422485 0.10805212706327438
vn -0.7011491060256958 -0.70350027084350586 0.11609170585870743
vn -0.694114089012146 -0.71909493207931519 0.033287432044744492
vn 0.73816674947738647 -0.52009648084640503 0.4296620786190033
vn 0.73519003391265869 -0.53477615118026733 0.41654539108276367
vn 0.71828871965408325 -0.59460705518722534 0.3612530529499054
vn 0.7369193434715271 -0.57246690988540649 0.35948783159255981
vn 0.83382171392440796 -0.20687587559223175 -0.51180434226989746
vn 0.83493280410766602 -0.19725427031517029 -0.51378786563873291
vn 0.82344263792037964 -0.20956574380397797 -0.52728015184402466
vn 0.25965246558189392 -0.90586036443710327 -0.33466035127639771
vn 0.25965246558189392 -0.90586036443710327 -0.33466035127639771
vn 0.25965246558189392 -0.90586036443710327 -0.33466035127639771
vn 0.32630091905593872 0.09426087886095047 -0.94055438041687012
vn 0.32630091905593872 0.09426087886095047 -0.94055438041687012
vn 0.32630091905593872 0.09426087886095047 -0.94055438041687012
vn 0.40466037392616272 -0.76282590627670288 -0.50432783365249634
vn 0.44272369146347046 -0.31424510478973389 -0.83978909254074097
vn 0.19755508005619049 -0.54130733013153076 -0.81728720664978027
vn -0.45454162359237671 -0.80032390356063843 0.39099043607711792
vn -0.45454162359237671 -0.80032390356063843 0.39099043607711792
vn -0.45454162359237671 -0.80032390356063843 0.39099043607711792
vn -0.68512368202209473 -0.20967574417591095 -0.69759702682495117
vn -0.14969757199287415 0.10423570871353149 -0.98322200775146484
vn -0.35099735856056213 0.71906626224517822 -0.59978711605072021
vn -0.35099735856056213 0.71906626224517822 -0.59978711605072021
vn -0.35099735856056213 0.71906626224517822 -0.59978711605072021
vn -0.29111263155937195 0.90447103977203369 0.31174609065055847
vn -0.29892072081565857 0.45064800977706909 0.84116750955581665
vn -0.26527020335197449 0.95349007844924927 0.14313754439353943
vn -0.42793393135070801 0.86806893348693848 0.25165218114852905
vn -0.42793393135070801 0.86806893348693848 0.25165218114852905
vn -0.42793393135070801 0.86806893348693848 0.25165218114852905
vn 0.67097032070159912 -0.41187626123428345 -0.61656850576400757
vn 0.67097032070159912 -0.41187626123428345 -0.61656850576400757
vn 0.67097032070159912 -0.41187626123428345 -0.61656850576400757
vn -0.26821446418762207 -0.34368962049484253 -0.89996582269668579
vn 0.046627655625343323 -0.079749159514904022 -0.99572384357452393
vn 0.31062376499176025 0.1887538880109787 -0.93160337209701538
vn 0.03403003141283989 -0.72840684652328491 0.68429923057556152
vn 0.086495593190193176 -0.71615535020828247 0.69256049394607544
vn -0.079284206032752991 -0.70486140251159668 0.70490032434463501
vn 0.18905776739120483 -0.22844086587429047 0.9550246000289917
vn -0.24352701008319855 -0.45787271857261658 0.85501295328140259
vn -0.3672296404838562 -0.50673198699951172 0.77997761964797974
vn -0.31490302085876465 0.51659446954727173 -0.79622000455856323
vn -0.17969764769077301 0.51636427640914917 -0.83730322122573853
vn -0.47653612494468689 0.51992982625961304 -0.70893323421478271
vn -0.74352431297302246 -0.58120715618133545 -0.33071109652519226
vn -0.75401359796524048 -0.6445997953414917 0.12631158530712128
vn -0.68083763122558594 -0.44660094380378723 -0.58052366971969604
vn 0.40936344861984253 -0.9023669958114624 0.13474187254905701
vn 0.25994333624839783 -0.83184313774108887 0.49037376046180725
vn 0.38073554635047913 -0.62748140096664429 -0.67919623851776123
vn 0.75161707401275635 0.024366708472371101 -0.65914946794509888
vn 0.88995546102523804 0.016544317826628685 -0.45574721693992615
vn 0.34818026423454285 0.60034471750259399 -0.7199699878692627
vn -0.11491557955741882 -0.0083240475505590439 -0.99334037303924561
vn -0.0048066824674606323 -0.28852829337120056 -0.95745933055877686
vn -0.74406594038009644 -0.56372469663619995 0.35858094692230225
vn -0.6744728684425354 -0.72610509395599365 0.13363271951675415
vn -0.65006732940673828 -0.62453711032867432 0.43285784125328064
vn -0.51853162050247192 0.11673902720212936 -0.84705191850662231
vn -0.51853162050247192 0.11673902720212936 -0.84705191850662231
vn -0.51853162050247192 0.11673902720212936 -0.84705191850662231
vn -0.65980619192123413 -0.74602657556533813 0.09000086784362793
vn -0.99909067153930664 -0.037130661308765411 0.02095491997897625
vn -0.99788784980773926 -0.061569578945636749 -0.020714186131954193
vn -0.96700763702392578 -0.23839922249317169 0.08978898823261261
vn -0.99996733665466309 0.0018500549485906959 -0.0078647565096616745
vn 0.57634419202804565 -0.44443726539611816 0.68578630685806274
vn 0.51299440860748291 0.24825052917003632 0.82171064615249634
vn -0.29096212983131409 -0.70936262607574463 0.64198577404022217
vn -0.27289140224456787 -0.91215336322784424 0.3057883083820343
vn -0.58501613140106201 -0.64620816707611084 0.49007263779640198
vn -0.80012398958206177 -0.43345245718955994 0.41463309526443481
vn -0.80012398958206177 -0.43345245718955994 0.41463309526443481
vn -0.80012398958206177 -0.43345245718955994 0.41463309526443481
vn -0.064726032316684723 0.92974370718002319 0.36247366666793823
vn -0.017997976392507553 0.88818341493606567 0.45913645625114441
vn 0.016202516853809357 0.8706238865852356 0.49168238043785095
vn 0.037972349673509598 0.19526691734790802 -0.98001474142074585
vn -0.10806480795145035 0.11989082396030426 -0.98688811063766479
vn 0.36470732092857361 -0.8312610387802124 -0.4195159375667572
vn 0.21330153942108154 -0.67484521865844727 -0.70646041631698608
vn -0.22540800273418427 -0.79311901330947876 -0.56582105159759521
vn -0.93367403745651245 -0.10329305380582809 0.34290429949760437
vn -0.47434404492378235 4.9089725507656112E-05 -0.88033956289291382
vn -0.21102365851402283 0.097296051681041718 -0.97262656688690186
vn 0.0069423839449882507 0.00024487837799824774 0.99997586011886597
vn -0.048887986689805984 0.014321343041956425 0.99870157241821289
vn -0.083540797233581543 -0.00094169413205236197 0.99650388956069946
vn 0.03806304931640625 0.93802350759506226 0.34447509050369263
vn 0.0019025801448151469 -0.00057137542171403766 0.99999803304672241
vn -0.0028880210593342781 0.00088906352175399661 0.99999541044235229
vn -0.001064900541678071 -3.1497761483478826E-06 0.99999940395355225
vn -0.00061246659606695175 -1.6154016293512541E-06 0.99999982118606567
vn 0.019766185432672501 0.72725880146026611 0.68607866764068604
vn 0.01118767261505127 0.6897544264793396 0.72395694255828857
vn -0.043558523058891296 0.58794146776199341 0.80772984027862549
vn 0.44797983765602112 0.51777118444442749 0.72885328531265259
vn 0.44898158311843872 0.50455641746520996 0.73745399713516235
vn 0.44255736470222473 0.5718037486076355 0.69078469276428223
vn 0.035016972571611404 0.72159141302108765 0.69143301248550415
vn 0.035016972571611404 0.72159141302108765 0.69143301248550415
vn 0.035016972571611404 0.72159141302108765 0.69143301248550415
vn 0.99870747327804565 -0.048727843910455704 0.014455648139119148
vn 0.99870747327804565 -0.048727843910455704 0.014455648139119148
vn 0.99870747327804565 -0.048727843910455704 0.014455648139119148
vn -0.73140770196914673 -0.68115901947021484 -0.032636132091283798
vn -0.73140770196914673 -0.68115901947021484 -0.032636132091283798
vn -0.73140770196914673 -0.68115901947021484 -0.032636132091283798
vn 0 0 1
vn 2.7561185561353341E-05 0 1
vn 0.026816077530384064 0.95393329858779907 0.2988179624080658
vn 0.026816077530384064 0.95393329858779907 0.2988179624080658
vn 0.026816077530384064 0.95393329858779907 0.2988179624080658
vn -0.89140099287033081 0.42857378721237183 -0.14740681648254395
vn -0.89140099287033081 0.42857378721237183 -0.14740681648254395
vn -0.89140099287033081 0.42857378721237183 -0.14740681648254395
vn -0.009652378037571907 0.99801194667816162 -0.062281176447868347
vn -0.053204942494630814 0.96547693014144897 -0.25499716401100159
vn 0.024584611877799034 0.98995423316955566 0.13923437893390656
vn 0.8705756664276123 -0.47250458598136902 0.13724930584430695
vn 0.8705756664276123 -0.47250458598136902 0.13724930584430695
vn 0.8705756664276123 -0.47250458598136902 0.13724930584430695
vn 0.89171051979064941 0.42824333906173706 -0.14649215340614319
vn 0.79299014806747437 0.59485679864883423 -0.13157524168491364
vn 0.61924368143081665 0.77819335460662842 -0.10465357452630997
vn 0.026964915916323662 0.95924699306488037 0.28127938508987427
vn 0.026964915916323662 0.95924699306488037 0.28127938508987427
vn 0.026964915916323662 0.95924699306488037 0.28127938508987427
vn -0.56271076202392578 0.82655447721481323 0.012818844988942146
vn -0.56271076202392578 0.82655447721481323 0.012818844988942146
vn -0.56271076202392578 0.82655447721481323 0.012818844988942146
vn 0.047161411494016647 -0.93774032592773438 -0.34412041306495667
vn 0.047161411494016647 -0.93774032592773438 -0.34412041306495667
vn 0.047161411494016647 -0.93774032592773438 -0.34412041306495667
vn 0.020824173465371132 0.99540203809738159 0.093493916094303131
vn -0.028818113729357719 0.9652448296546936 0.25975355505943298
vn -0.037756737321615219 0.95676165819168091 0.28841221332550049
vn 0.23923233151435852 -0.75989735126495361 -0.60442030429840088
vn 0.1613951176404953 -0.52641886472702026 -0.83476632833480835
vn 0.22737240791320801 -0.94061857461929321 -0.25206837058067322
vn 0.02136584185063839 -0.98938292264938354 -0.14375302195549011
vn -0.0034254805650562048 -0.57191628217697144 -0.82030481100082397
vn 0.32674258947372437 -0.72063511610031128 -0.61149352788925171
vn 0.13644550740718842 -0.63488143682479858 -0.76046574115753174
vn 0.13644550740718842 -0.63488143682479858 -0.76046574115753174
vn 0.13644550740718842 -0.63488143682479858 -0.76046574115753174
vn -0.089215502142906189 -0.98575299978256226 0.14258904755115509
vn -0.15528072416782379 -0.49269548058509827 0.85623538494110107
vn -0.035735458135604858 -0.9002225399017334 0.43396121263504028
vn 0.3339942991733551 -0.20822639763355255 0.91928756237030029
vn 0.3339942991733551 -0.20822639763355255 0.91928756237030029
vn 0.3339942991733551 -0.20822639763355255 0.91928756237030029
vn -0.31245025992393494 -0.94902020692825317 0.041659682989120483
vn -0.31245025992393494 -0.94902020692825317 0.041659682989120483
vn -0.31245025992393494 -0.94902020692825317 0.041659682989120483
vn -0.23691098392009735 0.42733114957809448 -0.87250286340713501
vn -0.23691098392009735 0.42733114957809448 -0.87250286340713501
vn -0.23691098392009735 0.42733114957809448 -0.87250286340713501
vn 0.59721976518630981 0.77169066667556763 -0.21868255734443665
vn 0.59721976518630981 0.77169066667556763 -0.21868255734443665
vn 0.59721976518630981 0.77169066667556763 -0.21868255734443665
vn -0.053059171885251999 -0.70722794532775879 -0.70499175786972046
vn -0.045367076992988586 -0.48969271779060364 -0.87071400880813599
vn -0.053979609161615372 -0.73919981718063354 -0.67131948471069336
vn 0.60152328014373779 -0.76091170310974121 -0.24327582120895386
vn 0.60152328014373779 -0.76091170310974121 -0.24327582120895386
vn 0.60152328014373779 -0.76091170310974121 -0.24327582120895386
vn -0.20537452399730682 0.78486377000808716 -0.58464533090591431
vn -0.20537452399730682 0.78486377000808716 -0.58464533090591431
vn -0.20537452399730682 0.78486377000808716 -0.58464533090591431
vn 0.11818943917751312 0.16558738052845001 -0.97908735275268555
vn -0.27106344699859619 -0.93428719043731689 0.23158606886863708
vn -0.46014958620071411 -0.88470083475112915 0.074611067771911621
vn -0.42937222123146057 0.66964006423950195 -0.60598814487457275
vn -0.42937222123146057 0.66964006423950195 -0.60598814487457275
vn -0.42937222123146057 0.66964006423950195 -0.60598814487457275
vn -0.86499524116516113 0.16479954123497009 -0.47394552826881409
vn 0.27490606904029846 0.62903571128845215 -0.72714561223983765
vn -0.81850177049636841 0.20516893267631531 -0.53661960363388062
vn -0.047399494796991348 -0.0008050057222135365 -0.99887567758560181
vn -0.046444710344076157 0.027374839410185814 -0.99854570627212524
vn -0.015375885181128979 -0.13082908093929291 -0.99128568172454834
vn 0.94746768474578857 0.0080050891265273094 -0.31975129246711731
vn 0.88699799776077271 0.45944255590438843 -0.046336501836776733
vn 0.95789986848831177 -0.05000682920217514 -0.28271389007568359
vn 0.072759702801704407 0.79353541135787964 -0.60415858030319214
vn 0.67093223333358765 -0.48830521106719971 -0.55803942680358887
vn -0.04588443785905838 0.63385212421417236 -0.77209198474884033
vn -0.78845024108886719 0.61346149444580078 0.044846285134553909
vn -0.74887484312057495 0.64118659496307373 0.16752989590167999
vn -0.80623835325241089 0.59071028232574463 -0.032265014946460724
vn -0.9131932258605957 0.013581179082393646 -0.40730053186416626
vn -0.9269108772277832 -0.10066307336091995 -0.36152896285057068
vn -0.91794091463088989 -0.0030083968304097652 -0.39670571684837341
vn 0.73722076416015625 0.64605998992919922 0.1977674663066864
vn 0.54102170467376709 0.83315044641494751 0.11469902098178864
vn 0.89125955104827881 0.36081624031066895 0.27471455931663513
vn -0.42943727970123291 0.052027110010385513 0.9015967845916748
vn -0.33603554964065552 -0.26479080319404602 0.90386170148849487
vn -0.47422626614570618 0.34031730890274048 0.81196898221969604
vn 0.78475618362426758 -0.59437274932861328 0.17572367191314697
vn 0.96496891975402832 -0.25828945636749268 0.046060707420110703
vn 0.89391523599624634 -0.44425633549690247 0.059597775340080261
vn 0.52401423454284668 -0.32198289036750793 -0.78850245475769043
vn 0.52401423454284668 -0.32198289036750793 -0.78850245475769043
vn 0.52401423454284668 -0.32198289036750793 -0.78850245475769043
vn 0.36626747250556946 -0.51648777723312378 -0.77400809526443481
vn 0.46097105741500854 -0.45313167572021484 -0.76300549507141113
vn 0.05137639120221138 0.30661958456039429 -0.95044457912445068
vn 0.010260061360895634 0.30691078305244446 -0.95168298482894897
vn 0.069416128098964691 0.26745983958244324 -0.96106535196304321
vn 0.37271183729171753 0.90951406955718994 -0.1840381920337677
vn 0.37271183729171753 0.90951406955718994 -0.1840381920337677
vn 0.37271183729171753 0.90951406955718994 -0.1840381920337677
vn 0.28984254598617554 -0.89723223447799683 0.33311498165130615
vn 0.28984254598617554 -0.89723223447799683 0.33311498165130615
vn 0.28984254598617554 -0.89723223447799683 0.33311498165130615
vn -0.9967462420463562 0.080390453338623047 -0.0058522075414657593
vn -0.99428850412368774 0.10634919255971909 -0.00895721185952425
vn -0.9946473240852356 0.1019023060798645 0.017107829451560974
vn 0.75885820388793945 -0.62713605165481567 0.17559781670570374
vn -0.04090789332985878 -0.35444775223731995 0.93418055772781372
vn -0.052114631980657578 -0.60824942588806152 0.79203325510025024
vn -0.047913156449794769 -0.5071033239364624 0.86055248975753784
vn 0.06352708488702774 -0.8031156063079834 -0.59242689609527588
vn 0.06352708488702774 -0.8031156063079834 -0.59242689609527588
vn 0.06352708488702774 -0.8031156063079834 -0.59242689609527588
vn 0.11806724220514297 -0.27793654799461365 -0.95331603288650513
vn 0.15059773623943329 -0.23781163990497589 -0.95956552028656006
vn 0.10697744786739349 -0.29135534167289734 -0.95061445236206055
vn 0.91862249374389648 0.15556629002094269 -0.36322429776191711
vn 0.91862249374389648 0.15556629002094269 -0.36322429776191711
vn 0.91862249374389648 0.15556629002094269 -0.36322429776191711
vn -0.17570027709007263 0.38757821917533875 -0.90493786334991455
vn -0.17570027709007263 0.38757821917533875 -0.90493786334991455
vn -0.17570027709007263 0.38757821917533875 -0.90493786334991455
vn -0.039930623024702072 -0.95772731304168701 -0.28489294648170471
vn -0.039930623024702072 -0.95772731304168701 -0.28489294648170471
vn -0.039930623024702072 -0.95772731304168701 -0.28489294648170471
vn 0.045014809817075729 0.96509301662445068 0.25800991058349609
vn 0.031400341540575027 0.94656091928482056 0.32099282741546631
vn -0.14125241339206696 0.10990383476018906 -0.98385411500930786
vn -0.14765895903110504 0.12242040038108826 -0.98143267631530762
vn -0.13412344455718994 0.096015311777591705 -0.98630213737487793
vn 0.9911152720451355 -0.13236498832702637 -0.013040679506957531
vn 0.99434143304824829 -0.10614120960235596 -0.0043815178796648979
vn 0.98850923776626587 -0.099409490823745728 0.11387386918067932
vn -0.77973586320877075 -0.47829118371009827 0.40404152870178223
vn -0.80468946695327759 -0.40922406315803528 0.4301285445690155
vn -0.8037983775138855 -0.40426799654960632 0.43643501400947571
vn -0.85990351438522339 0.42963871359825134 0.2756384015083313
vn -0.85990351438522339 0.42963871359825134 0.2756384015083313
vn -0.85990351438522339 0.42963871359825134 0.2756384015083313
vn -0.79678869247436523 -0.60261940956115723 0.044470909982919693
vn -0.79678869247436523 -0.60261940956115723 0.044470909982919693
vn -0.79678869247436523 -0.60261940956115723 0.044470909982919693
vn 0.44958195090293884 -0.085708446800708771 0.88911759853363037
vn 0.13528530299663544 -0.10324482619762421 0.98541277647018433
vn 0.48738071322441101 -0.088591650128364563 0.86868381500244141
vn 0.068600095808506012 0.40893334150314331 0.90998214483261108
vn -0.56984496116638184 0.81703221797943115 0.087949201464653015
vn -0.25290066003799438 0.89048463106155396 0.37825703620910645
vn 0.83391851186752319 0.38111695647239685 -0.39916136860847473
vn 0.83507364988327026 0.33316782116889954 -0.43777984380722046
vn 0.88982808589935303 0.21795283257961273 -0.40087714791297913
vn -0.14997464418411255 0.404060959815979 -0.90235376358032227
vn -0.13259097933769226 0.30636411905288696 -0.9426349401473999
vn -0.099302709102630615 0.19974009692668915 -0.97480404376983643
vn 0.47939139604568481 -0.11624870449304581 -0.86986786127090454
vn 0.64570373296737671 -0.53513777256011963 -0.54469645023345947
vn 0.58804744482040405 -0.31524249911308289 -0.74486398696899414
vn 0.99070513248443604 -0.10999249666929245 0.08003108948469162
vn 0.97595536708831787 -0.099559225142002106 0.19390495121479034
vn 0.10554270446300507 0.99255996942520142 -0.060707993805408478
vn 0.066904373466968536 0.94373613595962524 0.32386091351509094
vn -0.058344963937997818 -0.55926692485809326 -0.82693189382553101
vn -0.093989551067352295 -0.652313232421875 -0.75209933519363403
vn -0.043261073529720306 -0.51803427934646606 -0.85426515340805054
vn -0.12031169235706329 0.96799790859222412 -0.22023887932300568
vn -0.021184409037232399 0.89117598533630371 -0.45316290855407715
vn 0.22573965787887573 0.94790542125701904 0.2247597873210907
vn 0.59389281272888184 0.076158739626407623 -0.80093145370483398
vn -0.048640713095664978 0.49668413400650024 0.86656731367111206
vn -0.069693408906459808 0.4204755425453186 0.90462321043014526
vn -0.068288587033748627 0.42572396993637085 0.90227258205413818
vn 0.6857573390007019 0.60129493474960327 -0.41009911894798279
vn 0.64262866973876953 0.65551942586898804 -0.39663922786712646
vn 0.71707427501678467 0.55684971809387207 -0.41919317841529846
vn -0.28609070181846619 0.64769828319549561 0.70614379644393921
vn -0.28609070181846619 0.64769828319549561 0.70614379644393921
vn -0.28609070181846619 0.64769828319549561 0.70614379644393921
vn -0.59632420539855957 0.60179382562637329 -0.53126418590545654
vn -0.33360186219215393 0.92941182851791382 -0.15780822932720184
vn -0.5251007080078125 0.79993343353271484 -0.29047501087188721
vn 0.055164918303489685 0.9977651834487915 0.037702146917581558
vn -0.034472931176424026 0.99818158149719238 0.049448128789663315
vn 0.060467377305030823 0.99714773893356323 0.045167312026023865
vn 0.19777581095695496 0.92880451679229736 0.31337979435920715
vn 0.80455976724624634 0.048491291701793671 -0.59188860654830933
vn 0.39557909965515137 0.038182716816663742 -0.91763788461685181
vn 0.81717747449874878 -0.060198176652193069 -0.573233962059021
vn 0.92507457733154297 -0.090587928891181946 -0.3688235878944397
vn 0.072642296552658081 0.26472952961921692 0.9615827202796936
vn 0.072642296552658081 0.26472952961921692 0.9615827202796936
vn 0.072642296552658081 0.26472952961921692 0.9615827202796936
vn 0.33254781365394592 0.8155217170715332 -0.47364145517349243
vn 0.27089112997055054 0.84425264596939087 -0.46244511008262634
vn 0.26408141851425171 0.87376397848129272 -0.408408522605896
vn 0.93314290046691895 0.35310569405555725 -0.067533113062381744
vn 0.88035017251968384 0.47357329726219177 -0.026682466268539429
vn 0.39647981524467468 -0.70498752593994141 0.58804452419281006
vn 0.39647981524467468 -0.70498752593994141 0.58804452419281006
vn 0.39647981524467468 -0.70498752593994141 0.58804452419281006
vn -0.40565609931945801 0.90751701593399048 -0.10888537019491196
vn -0.40565609931945801 0.90751701593399048 -0.10888537019491196
vn -0.40565609931945801 0.90751701593399048 -0.10888537019491196
vn -0.078925639390945435 -0.5606650710105896 -0.82427263259887695
vn -0.078925639390945435 -0.5606650710105896 -0.82427263259887695
vn -0.078925639390945435 -0.5606650710105896 -0.82427263259887695
vn 0.42328542470932007 -0.60887014865875244 -0.67089986801147461
vn 0.42031210660934448 -0.6062050461769104 -0.67516899108886719
vn 0.37002474069595337 -0.54267698526382446 -0.75404471158981323
vn 0.56082075834274292 -0.068049520254135132 -0.82513594627380371
vn 0.56082075834274292 -0.068049520254135132 -0.82513594627380371
vn 0.56082075834274292 -0.068049520254135132 -0.82513594627380371
vn 0.20756419003009796 0.93257886171340942 -0.29531976580619812
vn 0.20756419003009796 0.93257886171340942 -0.29531976580619812
vn 0.20756419003009796 0.93257886171340942 -0.29531976580619812
vn 0.089613333344459534 -0.14227847754955292 0.98576176166534424
vn 0.044072292745113373 -0.16586172580718994 0.98516368865966797
vn 0.1094876304268837 -0.13314338028430939 0.98503059148788452
vn -0.4641437828540802 0.79697293043136597 -0.38652899861335754
vn 0.72790622711181641 -0.082910545170307159 0.68064552545547485
vn 0.99419808387756348 0.024288207292556763 0.10478673875331879
vn 0.96654397249221802 0.020366853103041649 0.25569114089012146
vn 0.63821381330490112 -0.19822341203689575 0.74390226602554321
vn 0.6154181957244873 -0.089811325073242188 -0.78306728601455688
vn 0.69088244438171387 -0.21848669648170471 -0.68916255235671997
vn 0.10546924918889999 0.99414676427841187 -0.023417975753545761
vn 0.097498707473278046 0.99216347932815552 -0.078138336539268494
vn 0.10747286677360535 0.99291539192199707 -0.050681348890066147
vn 0.58145380020141602 0.81349629163742065 0.011629249900579453
vn 0.38560280203819275 0.92012238502502441 -0.068449005484580994
vn 0.67107391357421875 0.52501130104064941 0.52347201108932495
vn 0.67107391357421875 0.52501130104064941 0.52347201108932495
vn 0.67107391357421875 0.52501130104064941 0.52347201108932495
vn -0.46732309460639954 0.85946738719940186 0.2071833461523056
vn 0.47226369380950928 0.63572704792022705 0.61058837175369263
vn 0.42091718316078186 0.68932640552520752 0.58962517976760864
vn 0.99516046047210693 -0.010974469594657421 -0.097648248076438904
vn 0.99767810106277466 0.066132448613643646 -0.016274716705083847
vn 0.99432694911956787 -0.074133433401584625 -0.076276727020740509
vn 0.67460083961486816 0.73382949829101562 0.080050170421600342
vn 0.54707717895507812 0.81394606828689575 -0.19544392824172974
vn 0.90662306547164917 0.40720123052597046 -0.11055200546979904
vn 0.50118249654769897 0.84474992752075195 -0.18765302002429962
vn 0.97816771268844604 0.20775803923606873 -0.0049472725950181484
vn 0.50574171543121338 -0.78397876024246216 -0.36000367999076843
vn 0.49195429682731628 -0.87061470746994019 -0.003310186555609107
vn 0.17198996245861053 -0.124484583735466 0.97720164060592651
vn 0 -1 0
vn 0 -1 0
vn 0 -1 0
vn 0.086564816534519196 0.34885388612747192 -0.93317067623138428
vn -0.00097472011111676693 0.58629316091537476 -0.81009835004806519
vn -0.56128603219985962 0.81568312644958496 -0.14006775617599487
vn -0.87974262237548828 0.47219473123550415 -0.055543124675750732
vn -0.71375429630279541 0.69899880886077881 0.044221218675374985
vn 0.95914775133132935 0.22586637735366821 -0.17035239934921265
vn 0.99860656261444092 -0.042107254266738892 0.031811479479074478
vn 0.98696786165237427 -0.12850497663021088 0.096854984760284424
vn 0.98317235708236694 0.18264266848564148 0.0037178508937358856
vn 0.52440834045410156 -0.60136634111404419 0.60278886556625366
vn 0.50298452377319336 -0.82918578386306763 0.24383898079395294
vn 0.8830946683883667 0.40316292643547058 -0.24000726640224457
vn -0.024594692513346672 0.31712064146995544 -0.94806623458862305
vn -0.59280890226364136 -0.61228621006011963 0.52314746379852295
vn -0.0082059986889362335 -0.73238223791122437 -0.68084424734115601
vn -0.0009727979195304215 -0.71015489101409912 -0.70404481887817383
vn 0.00039810844464227557 -0.70585554838180542 -0.70835572481155396
vn -0.036075443029403687 0.0085715353488922119 -0.99931228160858154
vn 0.8857082724571228 0.39295265078544617 -0.24720253050327301
vn 0.94954144954681396 0.29800838232040405 0.097785487771034241
vn 0.97444719076156616 0.15869472920894623 -0.15896119177341461
vn -0.92249929904937744 -0.38529109954833984 -0.023363478481769562
vn -0.9248003363609314 -0.32532617449760437 0.19724926352500916
vn -0.82949328422546387 -0.39644092321395874 0.39341512322425842
vn 0.99754887819290161 0.013229633681476116 0.068710751831531525
usemtl vc_191919__Default
f 1//1 2//2 3//3
f 4//4 5//5 6//6
f 7//7 8//8 9//9
f 1//1 10//10 11//11
f 12//12 13//13 14//14
f 15//15 16//16 17//17
f 18//18 19//19 20//20
f 21//21 7//7 22//22
f 23//23 21//21 22//22
f 24//24 25//25 26//26
f 27//27 28//28 29//29
f 30//30 31//31 32//32
f 33//33 34//34 35//35
f 36//36 37//37 38//38
f 39//39 40//40 41//41
f 42//42 43//43 44//44
f 45//45 46//46 47//47
f 48//48 49//49 50//50
f 51//51 49//49 52//52
f 53//53 54//54 55//55
f 56//56 57//57 58//58
f 59//59 60//60 61//61
f 62//62 63//63 64//64
f 65//65 14//14 66//66
f 67//67 54//54 68//68
f 65//65 539//539 12//12 14//14
f 69//69 70//70 71//71
f 72//72 73//73 74//74
f 75//75 12//12 76//76
f 77//77 78//78 79//79
f 80//80 81//81 82//82
f 83//83 84//84 85//85
f 86//86 87//87 88//88
f 89//89 86//86 88//88
f 90//90 91//91 9//9
f 92//92 93//93 94//94
f 95//95 96//96 97//97
f 98//98 65//65 66//66
f 99//99 100//100 101//101
f 102//102 99//99 101//101
f 103//103 104//104 105//105
f 106//106 107//107 108//108
f 109//109 67//67 68//68
f 8//8 90//90 9//9
f 110//110 90//90 8//8
f 111//111 112//112 113//113
f 114//114 115//115 116//116
f 117//117 118//118 119//119
f 120//120 121//121 122//122
f 123//123 124//124 109//109
f 125//125 126//126 127//127
f 128//128 129//129 130//130
f 131//131 132//132 133//133
f 134//134 135//135 136//136
f 137//137 138//138 139//139
f 140//140 141//141 142//142
f 143//143 144//144 145//145
f 146//146 147//147 148//148
f 23//23 149//149 150//150
f 86//86 89//89 151//151
f 152//152 151//151 153//153
f 156//156 570//570 154//154 155//155
f 157//157 158//158 159//159
f 160//160 161//161 162//162
f 163//163 164//164 165//165
f 166//166 167//167 168//168
f 169//169 170//170 171//171
f 172//172 173//173 174//174
f 175//175 176//176 177//177
f 149//149 178//178 150//150
f 179//179 180//180 181//181
f 182//182 183//183 184//184
f 185//185 184//184 183//183
f 186//186 187//187 188//188
f 189//189 190//190 191//191
f 192//192 193//193 194//194
f 195//195 196//196 197//197
f 198//198 199//199 200//200
f 201//201 202//202 110//110
f 203//203 204//204 205//205
f 206//206 207//207 208//208
f 209//209 210//210 211//211
f 212//212 213//213 214//214
f 215//215 216//216 217//217
f 218//218 219//219 220//220
f 221//221 222//222 223//223
f 224//224 225//225 226//226
f 227//227 228//228 229//229
f 230//230 231//231 232//232
f 233//233 234//234 235//235
f 216//216 236//236 237//237
f 238//238 239//239 240//240
f 241//241 242//242 243//243
f 238//238 244//244 239//239
f 245//245 246//246 247//247
f 246//246 245//245 248//248
f 249//249 250//250 231//231
f 251//251 252//252 253//253
f 254//254 255//255 256//256
f 257//257 258//258 259//259
f 202//202 260//260 261//261
f 262//262 263//263 264//264
f 265//265 266//266 267//267
f 268//268 269//269 270//270
f 257//257 271//271 258//258
f 272//272 269//269 273//273
f 274//274 275//275 272//272
f 276//276 277//277 278//278
f 279//279 280//280 281//281
f 282//282 283//283 284//284
f 285//285 286//286 287//287
f 288//288 289//289 290//290
f 272//272 291//291 292//292
f 293//293 294//294 295//295
f 296//296 297//297 298//298
f 299//299 300//300 301//301
f 302//302 303//303 304//304
f 305//305 306//306 307//307
f 308//308 309//309 310//310
f 311//311 312//312 313//313
f 314//314 315//315 316//316
f 317//317 318//318 319//319
f 320//320 232//232 321//321
f 322//322 323//323 324//324
f 320//320 325//325 232//232
f 326//326 327//327 328//328
f 329//329 330//330 331//331
f 332//332 333//333 334//334
f 335//335 336//336 337//337
f 338//338 339//339 340//340
f 341//341 342//342 343//343
f 344//344 345//345 346//346
f 347//347 348//348 349//349
f 350//350 351//351 352//352
f 202//202 353//353 260//260
f 354//354 355//355 329//329
f 356//356 357//357 358//358
f 359//359 360//360 361//361
f 362//362 363//363 364//364
f 365//365 366//366 367//367
f 368//368 369//369 370//370
f 371//371 372//372 373//373
f 374//374 375//375 376//376
f 377//377 378//378 379//379
f 380//380 381//381 382//382
f 383//383 384//384 385//385
f 386//386 387//387 388//388
f 389//389 324//324 390//390
f 391//391 392//392 393//393
f 394//394 395//395 396//396
f 397//397 398//398 399//399
f 400//400 401//401 402//402
f 403//403 383//383 385//385
f 404//404 405//405 406//406
f 407//407 408//408 409//409
f 410//410 411//411 412//412
f 413//413 414//414 415//415
f 416//416 417//417 418//418
f 419//419 420//420 421//421
f 301//301 422//422 423//423
f 424//424 425//425 426//426
f 427//427 428//428 429//429
f 430//430 431//431 432//432
f 433//433 434//434 435//435
f 436//436 437//437 438//438
f 439//439 440//440 441//441
f 442//442 443//443 444//444
f 445//445 446//446 447//447
f 448//448 449//449 450//450
f 451//451 452//452 453//453
f 454//454 455//455 428//428
f 456//456 457//457 301//301
f 458//458 459//459 460//460
f 461//461 462//462 370//370
f 456//456 463//463 457//457
f 353//353 464//464 260//260
f 465//465 466//466 467//467
f 468//468 469//469 470//470
f 471//471 472//472 473//473
f 474//474 475//475 476//476
f 477//477 368//368 461//461
f 478//478 479//479 477//477
f 480//480 477//477 479//479
f 481//481 464//464 482//482
f 428//428 483//483 484//484
f 454//454 428//428 484//484
f 485//485 486//486 487//487
f 488//488 489//489 490//490
f 491//491 492//492 365//365
f 493//493 494//494 495//495
f 496//496 497//497 498//498
f 499//499 500//500 501//501
f 502//502 503//503 504//504
f 505//505 506//506 507//507
f 508//508 509//509 510//510
f 511//511 512//512 513//513
f 474//474 514//514 475//475
f 455//455 439//439 441//441
f 515//515 516//516 517//517
f 515//515 517//517 518//518
f 365//365 519//519 520//520
f 521//521 522//522 523//523
f 524//524 368//368 525//525
f 526//526 527//527 528//528
f 529//529 530//530 531//531
f 532//532 533//533 534//534
f 535//535 536//536 537//537
f 538//538 536//536 535//535
f 539//539 76//76 12//12
f 540//540 541//541 232//232
f 439//439 542//542 440//440
f 455//455 441//441 429//429
f 71//71 70//70 51//51
f 23//23 150//150 21//21
f 261//261 110//110 202//202
f 543//543 544//544 545//545
f 151//151 546//546 547//547
f 149//149 440//440 542//542
f 548//548 549//549 550//550
f 551//551 552//552 553//553
f 455//455 429//429 428//428
f 554//554 539//539 65//65
f 555//555 231//231 556//556
f 365//365 367//367 557//557
f 391//391 393//393 558//558
f 51//51 70//70 559//559
f 560//560 561//561 562//562
f 563//563 236//236 216//216
f 535//535 564//564 565//565
f 12//12 566//566 13//13
f 149//149 542//542 178//178
f 567//567 568//568 569//569
f 7//7 9//9 22//22
f 275//275 269//269 272//272
