# Dual color encoding: per-vertex RGB for Rerun, face MTL colors for legacy RViz.
mtllib sim_gene01_r_hand_thumb_1.mtl
# Rhino

g sim_gene01_r_hand_thumb_1
v 18.077742997427301 -0.194184706214661 -4.5771602173775285 0.0980392157 0.0980392157 0.0980392157
v 17.995696328875916 1.6749132066665737 -7.3847089836696123 0.0980392157 0.0980392157 0.0980392157
v 18.139383450199894 6.6244722203598112 -3.7167530906337114 0.0980392157 0.0980392157 0.0980392157
v 18.077742997427301 -0.194184706214661 -4.5771602173775285 0.0980392157 0.0980392157 0.0980392157
v 18.613299353707642 7.1046885346280853 1.951796773477275 0.0980392157 0.0980392157 0.0980392157
v 18.32325823746428 -7.4302265564677468 0.55236881425993678 0.0980392157 0.0980392157 0.0980392157
v 18.617204159916589 2.4694297344373064 7.1949669464802319 0.0980392157 0.0980392157 0.0980392157
v 18.181812302481955 -4.6186637841480218 6.2287773070729031 0.0980392157 0.0980392157 0.0980392157
v 14.747831837914555 0.2990891233391994 -0.60725622507380828 0.0980392157 0.0980392157 0.0980392157
v 18.617204159916589 2.4694297344373064 7.1949669464802319 0.0980392157 0.0980392157 0.0980392157
v 1.9756941134090877 7.5019957191187379 -1.1386628237957011 0.0980392157 0.0980392157 0.0980392157
v 18.613299353707642 7.1046885346280853 1.951796773477275 0.0980392157 0.0980392157 0.0980392157
v 18.139383450199894 6.6244722203598112 -3.7167530906337114 0.0980392157 0.0980392157 0.0980392157
v 18.617204159916589 2.4694297344373064 7.1949669464802319 0.0980392157 0.0980392157 0.0980392157
v 2.5510431946064558 5.9111790773628359 5.11024456979787 0.0980392157 0.0980392157 0.0980392157
v 18.08726699094499 -4.8317414604987095 -5.982584085450755 0.0980392157 0.0980392157 0.0980392157
v 3.7495328952000975 5.1232353301087441 -5.460214522609669 0.0980392157 0.0980392157 0.0980392157
v 17.995696328875916 1.6749132066665737 -7.3847089836696123 0.0980392157 0.0980392157 0.0980392157
v 14.747831837914555 0.2990891233391994 -0.60725622507380828 0.0980392157 0.0980392157 0.0980392157
v 18.32325823746428 -7.4302265564677468 0.55236881425993678 0.0980392157 0.0980392157 0.0980392157
v 18.077742997427301 -0.194184706214661 -4.5771602173775285 0.0980392157 0.0980392157 0.0980392157
v 14.747831837914555 0.2990891233391994 -0.60725622507380828 0.0980392157 0.0980392157 0.0980392157
v 18.077742997427301 -0.194184706214661 -4.5771602173775285 0.0980392157 0.0980392157 0.0980392157
v 18.613299353707642 7.1046885346280853 1.951796773477275 0.0980392157 0.0980392157 0.0980392157
v 18.617204159916589 2.4694297344373064 7.1949669464802319 0.0980392157 0.0980392157 0.0980392157
v 14.747831837914555 0.2990891233391994 -0.60725622507380828 0.0980392157 0.0980392157 0.0980392157
v 18.613299353707642 7.1046885346280853 1.951796773477275 0.0980392157 0.0980392157 0.0980392157
v 18.08726699094499 -4.8317414604987095 -5.982584085450755 0.0980392157 0.0980392157 0.0980392157
v -11.069945722799851 -0.37033969918711929 -8.0918960894400502 0.0980392157 0.0980392157 0.0980392157
v -8.2194459603654479 8.9739019632390971 -6.2836342047079725 0.0980392157 0.0980392157 0.0980392157
v -13.076818542886471 7.3427685751802807 -10.046172402039661 0.0980392157 0.0980392157 0.0980392157
v -8.2190618227365277 14.465555833487683 -6.909375334377267 0.0980392157 0.0980392157 0.0980392157
v -19.059622865483 14.39215526155332 -7.0996172106913384 0.0980392157 0.0980392157 0.0980392157
v -8.2190618227365277 14.465555833487683 -6.909375334377267 0.0980392157 0.0980392157 0.0980392157
v -13.076818542886471 7.3427685751802807 -10.046172402039661 0.0980392157 0.0980392157 0.0980392157
v -8.2190618227365277 14.465555833487683 -6.909375334377267 0.0980392157 0.0980392157 0.0980392157
v -19.059622865483 14.39215526155332 -7.0996172106913384 0.0980392157 0.0980392157 0.0980392157
v -16.262079162557708 14.499144218967613 6.9735830069893447 0.0980392157 0.0980392157 0.0980392157
v -8.4027412038794882 9.5875517721499897 9.5241578500086366 0.0980392157 0.0980392157 0.0980392157
v -7.3355946066141833 14.228092691242413 7.0399007049340012 0.0980392157 0.0980392157 0.0980392157
v -16.262079162557708 14.499144218967613 6.9735830069893447 0.0980392157 0.0980392157 0.0980392157
v -35.130384730691439 14.471105525688341 -6.732764286354544 0.0980392157 0.0980392157 0.0980392157
v -34.946194624272977 14.303315325606153 7.5050554764813535 0.0980392157 0.0980392157 0.0980392157
v -41.053743905095637 14.375128525201077 -4.1727402067157957 0.0980392157 0.0980392157 0.0980392157
v -38.537993110649282 14.450836018500112 9.2664619132262107 0.0980392157 0.0980392157 0.0980392157
v -42.438344957097655 13.593882001966422 9.0747748881881645 0.0980392157 0.0980392157 0.0980392157
v -7.3355946066141833 14.228092691242413 7.0399007049340012 0.0980392157 0.0980392157 0.0980392157
v -3.971253680271865 10.331824075017703 -1.5761493452327848 0.0980392157 0.0980392157 0.0980392157
v -8.2190618227365277 14.465555833487683 -6.909375334377267 0.0980392157 0.0980392157 0.0980392157
v -6.285502206705682 2.0799844790503101 -7.2089043752641775 0.0980392157 0.0980392157 0.0980392157
v -3.971253680271865 10.331824075017703 -1.5761493452327848 0.0980392157 0.0980392157 0.0980392157
v 1.9756941134090877 7.5019957191187379 -1.1386628237957011 0.0980392157 0.0980392157 0.0980392157
v 3.7495328952000975 5.1232353301087441 -5.460214522609669 0.0980392157 0.0980392157 0.0980392157
v -3.971253680271865 10.331824075017703 -1.5761493452327848 0.0980392157 0.0980392157 0.0980392157
v -3.971253680271865 10.331824075017703 -1.5761493452327848 0.0980392157 0.0980392157 0.0980392157
v -5.0305823075484515 8.2380089990317522 6.7286929578596189 0.0980392157 0.0980392157 0.0980392157
v -3.971253680271865 10.331824075017703 -1.5761493452327848 0.0980392157 0.0980392157 0.0980392157
v -7.3355946066141833 14.228092691242413 7.0399007049340012 0.0980392157 0.0980392157 0.0980392157
v -6.285502206705682 2.0799844790503101 -7.2089043752641775 0.0980392157 0.0980392157 0.0980392157
v -8.2194459603654479 8.9739019632390971 -6.2836342047079725 0.0980392157 0.0980392157 0.0980392157
v -3.971253680271865 10.331824075017703 -1.5761493452327848 0.0980392157 0.0980392157 0.0980392157
v -5.0305823075484515 8.2380089990317522 6.7286929578596189 0.0980392157 0.0980392157 0.0980392157
v -8.4027412038794882 9.5875517721499897 9.5241578500086366 0.0980392157 0.0980392157 0.0980392157
v -5.0305823075484515 8.2380089990317522 6.7286929578596189 0.0980392157 0.0980392157 0.0980392157
v -7.3355946066141833 14.228092691242413 7.0399007049340012 0.0980392157 0.0980392157 0.0980392157
v -2.5831841040723278 5.3223013233679506 7.4010366518626265 0.0980392157 0.0980392157 0.0980392157
v 1.8820087638229097 -0.10593093176704027 7.5444819153628186 0.0980392157 0.0980392157 0.0980392157
v -2.5831841040723278 5.3223013233679506 7.4010366518626265 0.0980392157 0.0980392157 0.0980392157
v 18.181812302481955 -4.6186637841480218 6.2287773070729031 0.0980392157 0.0980392157 0.0980392157
v -16.795731813184002 6.0179257229759404 -13.886992762576703 0.0980392157 0.0980392157 0.0980392157
v -19.059622865483 14.39215526155332 -7.0996172106913384 0.0980392157 0.0980392157 0.0980392157
v -13.076818542886471 7.3427685751802807 -10.046172402039661 0.0980392157 0.0980392157 0.0980392157
v -9.7922601699829102 3.6966452598571777 -4.8499999046325684 0.0980392157 0.0980392157 0.0980392157
v -13.076818542886471 7.3427685751802807 -10.046172402039661 0.0980392157 0.0980392157 0.0980392157
v -8.2194459603654479 8.9739019632390971 -6.2836342047079725 0.0980392157 0.0980392157 0.0980392157
v -9.7922601699829102 3.6966452598571777 -4.8499999046325684 0.0980392157 0.0980392157 0.0980392157
v -11.069945722799851 -0.37033969918711929 -8.0918960894400502 0.0980392157 0.0980392157 0.0980392157
v -13.076818542886471 7.3427685751802807 -10.046172402039661 0.0980392157 0.0980392157 0.0980392157
v -9.7922601699829102 3.6966452598571777 -4.8499999046325684 0.0980392157 0.0980392157 0.0980392157
v -8.2194459603654479 8.9739019632390971 -6.2836342047079725 0.0980392157 0.0980392157 0.0980392157
v -6.285502206705682 2.0799844790503101 -7.2089043752641775 0.0980392157 0.0980392157 0.0980392157
v -13.596654153049954 10.854862773685072 14.793549275133191 0.0980392157 0.0980392157 0.0980392157
v -8.4027412038794882 9.5875517721499897 9.5241578500086366 0.0980392157 0.0980392157 0.0980392157
v -16.262079162557708 14.499144218967613 6.9735830069893447 0.0980392157 0.0980392157 0.0980392157
v -13.596654153049954 10.854862773685072 14.793549275133191 0.0980392157 0.0980392157 0.0980392157
v -16.262079162557708 14.499144218967613 6.9735830069893447 0.0980392157 0.0980392157 0.0980392157
v -17.974704631472985 11.860859497255433 9.4980277674410942 0.0980392157 0.0980392157 0.0980392157
v -6.8798189598457524 5.1872001965160877 14.763723180537042 0.0980392157 0.0980392157 0.0980392157
v -2.5831841040723278 5.3223013233679506 7.4010366518626265 0.0980392157 0.0980392157 0.0980392157
v 2.7049386000274454 -7.1240704369675969 2.4345705252853604 0.0980392157 0.0980392157 0.0980392157
v 18.32325823746428 -7.4302265564677468 0.55236881425993678 0.0980392157 0.0980392157 0.0980392157
v -0.80858230616993865 -3.7406739669199558 7.0465392106048323 0.0980392157 0.0980392157 0.0980392157
v -22.640119663039563 6.0050779089138349 -9.9384137882756551 0.0980392157 0.0980392157 0.0980392157
v -19.059622865483 14.39215526155332 -7.0996172106913384 0.0980392157 0.0980392157 0.0980392157
v -16.795731813184002 6.0179257229759404 -13.886992762576703 0.0980392157 0.0980392157 0.0980392157
v -22.640119663039563 6.0050779089138349 -9.9384137882756551 0.0980392157 0.0980392157 0.0980392157
v -33.5967198070175 10.72607043000643 -10.314187563509797 0.0980392157 0.0980392157 0.0980392157
v -19.059622865483 14.39215526155332 -7.0996172106913384 0.0980392157 0.0980392157 0.0980392157
v -16.650456277986443 0.20411795652943945 -8.9651366704870679 0.0980392157 0.0980392157 0.0980392157
v -16.795731813184002 6.0179257229759404 -13.886992762576703 0.0980392157 0.0980392157 0.0980392157
v -13.076818542886471 7.3427685751802807 -10.046172402039661 0.0980392157 0.0980392157 0.0980392157
v -11.069945722799851 -0.37033969918711929 -8.0918960894400502 0.0980392157 0.0980392157 0.0980392157
v -16.650456277986443 0.20411795652943945 -8.9651366704870679 0.0980392157 0.0980392157 0.0980392157
v -13.076818542886471 7.3427685751802807 -10.046172402039661 0.0980392157 0.0980392157 0.0980392157
v -11.069945722799851 -0.37033969918711929 -8.0918960894400502 0.0980392157 0.0980392157 0.0980392157
v -9.7922601699829102 3.6966452598571777 -4.8499999046325684 0.0980392157 0.0980392157 0.0980392157
v -6.285502206705682 2.0799844790503101 -7.2089043752641775 0.0980392157 0.0980392157 0.0980392157
v -34.946194624272977 14.303315325606153 7.5050554764813535 0.0980392157 0.0980392157 0.0980392157
v -17.974704631472985 11.860859497255433 9.4980277674410942 0.0980392157 0.0980392157 0.0980392157
v -16.262079162557708 14.499144218967613 6.9735830069893447 0.0980392157 0.0980392157 0.0980392157
v -8.4027412038794882 9.5875517721499897 9.5241578500086366 0.0980392157 0.0980392157 0.0980392157
v -12.105843295840023 3.7313691146690049 10.819226092533992 0.0980392157 0.0980392157 0.0980392157
v -8.4098739624023438 3.4158344268798828 7.4499998092651367 0.0980392157 0.0980392157 0.0980392157
v -8.4027412038794882 9.5875517721499897 9.5241578500086366 0.0980392157 0.0980392157 0.0980392157
v -6.8798189598457524 5.1872001965160877 14.763723180537042 0.0980392157 0.0980392157 0.0980392157
v -12.105843295840023 3.7313691146690049 10.819226092533992 0.0980392157 0.0980392157 0.0980392157
v -13.596654153049954 10.854862773685072 14.793549275133191 0.0980392157 0.0980392157 0.0980392157
v -17.974704631472985 11.860859497255433 9.4980277674410942 0.0980392157 0.0980392157 0.0980392157
v -34.781878262788581 10.692755033486932 14.916609374971996 0.0980392157 0.0980392157 0.0980392157
v -5.5465298393980271 1.3254006812478938 7.3610696371952571 0.0980392157 0.0980392157 0.0980392157
v -2.5831841040723278 5.3223013233679506 7.4010366518626265 0.0980392157 0.0980392157 0.0980392157
v -6.8798189598457524 5.1872001965160877 14.763723180537042 0.0980392157 0.0980392157 0.0980392157
v -6.8798189598457524 5.1872001965160877 14.763723180537042 0.0980392157 0.0980392157 0.0980392157
v -8.4027412038794882 9.5875517721499897 9.5241578500086366 0.0980392157 0.0980392157 0.0980392157
v -13.596654153049954 10.854862773685072 14.793549275133191 0.0980392157 0.0980392157 0.0980392157
v -0.80858230616993865 -3.7406739669199558 7.0465392106048323 0.0980392157 0.0980392157 0.0980392157
v -5.9417594378148131 -5.5367711193560964 14.670734251306225 0.0980392157 0.0980392157 0.0980392157
v -0.80858230616993865 -3.7406739669199558 7.0465392106048323 0.0980392157 0.0980392157 0.0980392157
v -11.775273287785742 -0.66524972320641096 9.4655945435348876 0.0980392157 0.0980392157 0.0980392157
v -6.8798189598457524 5.1872001965160877 14.763723180537042 0.0980392157 0.0980392157 0.0980392157
v -8.4098739624023438 3.4158344268798828 7.4499998092651367 0.0980392157 0.0980392157 0.0980392157
v -5.5465298393980271 1.3254006812478938 7.3610696371952571 0.0980392157 0.0980392157 0.0980392157
v -11.775273287785742 -0.66524972320641096 9.4655945435348876 0.0980392157 0.0980392157 0.0980392157
v -5.5465298393980271 1.3254006812478938 7.3610696371952571 0.0980392157 0.0980392157 0.0980392157
v -8.4098739624023438 3.4158344268798828 7.4499998092651367 0.0980392157 0.0980392157 0.0980392157
v -5.9417594378148131 -5.5367711193560964 14.670734251306225 0.0980392157 0.0980392157 0.0980392157
v -5.7636078274538534 -6.7849053915673867 8.4617071339970682 0.0980392157 0.0980392157 0.0980392157
v -0.80858230616993865 -3.7406739669199558 7.0465392106048323 0.0980392157 0.0980392157 0.0980392157
v -40.681784036655351 8.6988356460233263 -9.0156703782980117 0.0980392157 0.0980392157 0.0980392157
v -33.5967198070175 10.72607043000643 -10.314187563509797 0.0980392157 0.0980392157 0.0980392157
v -34.906612755475948 6.1232601491910543 -9.7857095105579717 0.0980392157 0.0980392157 0.0980392157
v -24.288928177119146 -3.7543653902973331 -10.079275661103669 0.0980392157 0.0980392157 0.0980392157
v -32.784470846504064 -10.528760991383411 -10.371976676498706 0.0980392157 0.0980392157 0.0980392157
v -34.906612755475948 6.1232601491910543 -9.7857095105579717 0.0980392157 0.0980392157 0.0980392157
v -42.906056572682402 -8.9316454519074675 -8.9735796077834724 0.0980392157 0.0980392157 0.0980392157
v -39.614939589065443 -0.83393315398666257 -9.0655130297129389 0.0980392157 0.0980392157 0.0980392157
v -32.784470846504064 -10.528760991383411 -10.371976676498706 0.0980392157 0.0980392157 0.0980392157
v -19.634328377260523 -11.186471311160519 -8.4322372656058953 0.0980392157 0.0980392157 0.0980392157
v -24.293270934966646 -14.458973710164823 -7.130231766457265 0.0980392157 0.0980392157 0.0980392157
v -19.634328377260523 -11.186471311160519 -8.4322372656058953 0.0980392157 0.0980392157 0.0980392157
v -15.579924220128214 -6.5596171918780275 -13.582092865825572 0.0980392157 0.0980392157 0.0980392157
v -24.288928177119146 -3.7543653902973331 -10.079275661103669 0.0980392157 0.0980392157 0.0980392157
v -18.28516173385103 -5.0495576735069427 -12.507974295833675 0.0980392157 0.0980392157 0.0980392157
v -35.130384730691439 14.471105525688341 -6.732764286354544 0.0980392157 0.0980392157 0.0980392157
v -19.059622865483 14.39215526155332 -7.0996172106913384 0.0980392157 0.0980392157 0.0980392157
v -15.579924220128214 -6.5596171918780275 -13.582092865825572 0.0980392157 0.0980392157 0.0980392157
v -16.650456277986443 0.20411795652943945 -8.9651366704870679 0.0980392157 0.0980392157 0.0980392157
v -11.069945722799851 -0.37033969918711929 -8.0918960894400502 0.0980392157 0.0980392157 0.0980392157
v 0.41288426135699896 -7.1956916966707389 -2.8413798993415877 0.0980392157 0.0980392157 0.0980392157
v -12.105843295840023 3.7313691146690049 10.819226092533992 0.0980392157 0.0980392157 0.0980392157
v -11.775273287785742 -0.66524972320641096 9.4655945435348876 0.0980392157 0.0980392157 0.0980392157
v -8.4098739624023438 3.4158344268798828 7.4499998092651367 0.0980392157 0.0980392157 0.0980392157
v -6.8798189598457524 5.1872001965160877 14.763723180537042 0.0980392157 0.0980392157 0.0980392157
v -13.596654153049954 10.854862773685072 14.793549275133191 0.0980392157 0.0980392157 0.0980392157
v -34.781878262788581 10.692755033486932 14.916609374971996 0.0980392157 0.0980392157 0.0980392157
v -34.781878262788581 10.692755033486932 14.916609374971996 0.0980392157 0.0980392157 0.0980392157
v -12.191613718394766 -0.7373772128971634 14.910267766801418 0.0980392157 0.0980392157 0.0980392157
v -34.781878262788581 10.692755033486932 14.916609374971996 0.0980392157 0.0980392157 0.0980392157
v -14.03699099312044 -11.11279490245861 14.951714135403156 0.0980392157 0.0980392157 0.0980392157
v -5.9417594378148131 -5.5367711193560964 14.670734251306225 0.0980392157 0.0980392157 0.0980392157
v -18.118734682167553 -11.186647660247827 9.7449811494893588 0.0980392157 0.0980392157 0.0980392157
v -14.03699099312044 -11.11279490245861 14.951714135403156 0.0980392157 0.0980392157 0.0980392157
v -34.597048323393054 -10.939730984596789 14.908791268184135 0.0980392157 0.0980392157 0.0980392157
v -34.781878262788581 10.692755033486932 14.916609374971996 0.0980392157 0.0980392157 0.0980392157
v -34.597048323393054 -10.939730984596789 14.908791268184135 0.0980392157 0.0980392157 0.0980392157
v -37.862242005507689 10.489597155056195 -6.6880483751177975 0.0980392157 0.0980392157 0.0980392157
v -35.130384730691439 14.471105525688341 -6.732764286354544 0.0980392157 0.0980392157 0.0980392157
v -33.5967198070175 10.72607043000643 -10.314187563509797 0.0980392157 0.0980392157 0.0980392157
v -20.826547983806925 -1.7415652422534 -8.6725598648271571 0.0980392157 0.0980392157 0.0980392157
v -16.795731813184002 6.0179257229759404 -13.886992762576703 0.0980392157 0.0980392157 0.0980392157
v -16.650456277986443 0.20411795652943945 -8.9651366704870679 0.0980392157 0.0980392157 0.0980392157
v -16.795731813184002 6.0179257229759404 -13.886992762576703 0.0980392157 0.0980392157 0.0980392157
v -16.650456277986443 0.20411795652943945 -8.9651366704870679 0.0980392157 0.0980392157 0.0980392157
v -15.579924220128214 -6.5596171918780275 -13.582092865825572 0.0980392157 0.0980392157 0.0980392157
v -18.28516173385103 -5.0495576735069427 -12.507974295833675 0.0980392157 0.0980392157 0.0980392157
v -16.650456277986443 0.20411795652943945 -8.9651366704870679 0.0980392157 0.0980392157 0.0980392157
v -16.795731813184002 6.0179257229759404 -13.886992762576703 0.0980392157 0.0980392157 0.0980392157
v -20.826547983806925 -1.7415652422534 -8.6725598648271571 0.0980392157 0.0980392157 0.0980392157
v -16.650456277986443 0.20411795652943945 -8.9651366704870679 0.0980392157 0.0980392157 0.0980392157
v -18.28516173385103 -5.0495576735069427 -12.507974295833675 0.0980392157 0.0980392157 0.0980392157
v -20.826547983806925 -1.7415652422534 -8.6725598648271571 0.0980392157 0.0980392157 0.0980392157
v -22.640119663039563 6.0050779089138349 -9.9384137882756551 0.0980392157 0.0980392157 0.0980392157
v -16.795731813184002 6.0179257229759404 -13.886992762576703 0.0980392157 0.0980392157 0.0980392157
v -11.367425930913214 -6.6816607371868431 -7.8289831693959151 0.0980392157 0.0980392157 0.0980392157
v -15.579924220128214 -6.5596171918780275 -13.582092865825572 0.0980392157 0.0980392157 0.0980392157
v 0.41288426135699896 -7.1956916966707389 -2.8413798993415877 0.0980392157 0.0980392157 0.0980392157
v -11.367425930913214 -6.6816607371868431 -7.8289831693959151 0.0980392157 0.0980392157 0.0980392157
v -6.8798189598457524 5.1872001965160877 14.763723180537042 0.0980392157 0.0980392157 0.0980392157
v -11.775273287785742 -0.66524972320641096 9.4655945435348876 0.0980392157 0.0980392157 0.0980392157
v -12.105843295840023 3.7313691146690049 10.819226092533992 0.0980392157 0.0980392157 0.0980392157
v -5.7636078274538534 -6.7849053915673867 8.4617071339970682 0.0980392157 0.0980392157 0.0980392157
v -40.681784036655351 8.6988356460233263 -9.0156703782980117 0.0980392157 0.0980392157 0.0980392157
v -33.5967198070175 10.72607043000643 -10.314187563509797 0.0980392157 0.0980392157 0.0980392157
v -37.862242005507689 10.489597155056195 -6.6880483751177975 0.0980392157 0.0980392157 0.0980392157
v -40.681784036655351 8.6988356460233263 -9.0156703782980117 0.0980392157 0.0980392157 0.0980392157
v -34.906612755475948 6.1232601491910543 -9.7857095105579717 0.0980392157 0.0980392157 0.0980392157
v -33.5967198070175 10.72607043000643 -10.314187563509797 0.0980392157 0.0980392157 0.0980392157
v -40.681784036655351 8.6988356460233263 -9.0156703782980117 0.0980392157 0.0980392157 0.0980392157
v -37.862242005507689 10.489597155056195 -6.6880483751177975 0.0980392157 0.0980392157 0.0980392157
v -33.5967198070175 10.72607043000643 -10.314187563509797 0.0980392157 0.0980392157 0.0980392157
v -40.681784036655351 8.6988356460233263 -9.0156703782980117 0.0980392157 0.0980392157 0.0980392157
v -41.053743905095637 14.375128525201077 -4.1727402067157957 0.0980392157 0.0980392157 0.0980392157
v -37.862242005507689 10.489597155056195 -6.6880483751177975 0.0980392157 0.0980392157 0.0980392157
v -37.862242005507689 10.489597155056195 -6.6880483751177975 0.0980392157 0.0980392157 0.0980392157
v -33.5967198070175 10.72607043000643 -10.314187563509797 0.0980392157 0.0980392157 0.0980392157
v -34.906612755475948 6.1232601491910543 -9.7857095105579717 0.0980392157 0.0980392157 0.0980392157
v -43.298639416562963 9.8148542156895289 -7.652417931567931 0.0980392157 0.0980392157 0.0980392157
v -41.053743905095637 14.375128525201077 -4.1727402067157957 0.0980392157 0.0980392157 0.0980392157
v -40.681784036655351 8.6988356460233263 -9.0156703782980117 0.0980392157 0.0980392157 0.0980392157
v -18.28516173385103 -5.0495576735069427 -12.507974295833675 0.0980392157 0.0980392157 0.0980392157
v -16.795731813184002 6.0179257229759404 -13.886992762576703 0.0980392157 0.0980392157 0.0980392157
v -15.579924220128214 -6.5596171918780275 -13.582092865825572 0.0980392157 0.0980392157 0.0980392157
v -4.707763515643995 -10.188807036696115 -2.2854420884106781 0.0980392157 0.0980392157 0.0980392157
v -11.367425930913214 -6.6816607371868431 -7.8289831693959151 0.0980392157 0.0980392157 0.0980392157
v 0.41288426135699896 -7.1956916966707389 -2.8413798993415877 0.0980392157 0.0980392157 0.0980392157
v -4.707763515643995 -10.188807036696115 -2.2854420884106781 0.0980392157 0.0980392157 0.0980392157
v -7.8653285845018761 -14.473860335876934 -6.7122963943835794 0.0980392157 0.0980392157 0.0980392157
v -11.367425930913214 -6.6816607371868431 -7.8289831693959151 0.0980392157 0.0980392157 0.0980392157
v -12.191613718394766 -0.7373772128971634 14.910267766801418 0.0980392157 0.0980392157 0.0980392157
v -5.9417594378148131 -5.5367711193560964 14.670734251306225 0.0980392157 0.0980392157 0.0980392157
v -11.775273287785742 -0.66524972320641096 9.4655945435348876 0.0980392157 0.0980392157 0.0980392157
v -11.775273287785742 -0.66524972320641096 9.4655945435348876 0.0980392157 0.0980392157 0.0980392157
v -6.8798189598457524 5.1872001965160877 14.763723180537042 0.0980392157 0.0980392157 0.0980392157
v -12.191613718394766 -0.7373772128971634 14.910267766801418 0.0980392157 0.0980392157 0.0980392157
v -40.681784036655351 8.6988356460233263 -9.0156703782980117 0.0980392157 0.0980392157 0.0980392157
v -37.862242005507689 10.489597155056195 -6.6880483751177975 0.0980392157 0.0980392157 0.0980392157
v -34.906612755475948 6.1232601491910543 -9.7857095105579717 0.0980392157 0.0980392157 0.0980392157
v -39.614939589065443 -0.83393315398666257 -9.0655130297129389 0.0980392157 0.0980392157 0.0980392157
v -40.681784036655351 8.6988356460233263 -9.0156703782980117 0.0980392157 0.0980392157 0.0980392157
v -34.906612755475948 6.1232601491910543 -9.7857095105579717 0.0980392157 0.0980392157 0.0980392157
v -43.298639416562963 9.8148542156895289 -7.652417931567931 0.0980392157 0.0980392157 0.0980392157
v -41.053743905095637 14.375128525201077 -4.1727402067157957 0.0980392157 0.0980392157 0.0980392157
v -20.826547983806925 -1.7415652422534 -8.6725598648271571 0.0980392157 0.0980392157 0.0980392157
v -18.28516173385103 -5.0495576735069427 -12.507974295833675 0.0980392157 0.0980392157 0.0980392157
v -24.288928177119146 -3.7543653902973331 -10.079275661103669 0.0980392157 0.0980392157 0.0980392157
v -11.829143306840185 -10.314055331513918 -8.5661299138886537 0.0980392157 0.0980392157 0.0980392157
v -15.579924220128214 -6.5596171918780275 -13.582092865825572 0.0980392157 0.0980392157 0.0980392157
v -11.367425930913214 -6.6816607371868431 -7.8289831693959151 0.0980392157 0.0980392157 0.0980392157
v -11.829143306840185 -10.314055331513918 -8.5661299138886537 0.0980392157 0.0980392157 0.0980392157
v -19.634328377260523 -11.186471311160519 -8.4322372656058953 0.0980392157 0.0980392157 0.0980392157
v -15.579924220128214 -6.5596171918780275 -13.582092865825572 0.0980392157 0.0980392157 0.0980392157
v -36.767648699984854 8.9273407080954374 11.637440741931124 0.0980392157 0.0980392157 0.0980392157
v -34.946194624272977 14.303315325606153 7.5050554764813535 0.0980392157 0.0980392157 0.0980392157
v -38.537993110649282 14.450836018500112 9.2664619132262107 0.0980392157 0.0980392157 0.0980392157
v -34.781878262788581 10.692755033486932 14.916609374971996 0.0980392157 0.0980392157 0.0980392157
v -34.946194624272977 14.303315325606153 7.5050554764813535 0.0980392157 0.0980392157 0.0980392157
v -36.767648699984854 8.9273407080954374 11.637440741931124 0.0980392157 0.0980392157 0.0980392157
v -7.8653285845018761 -14.473860335876934 -6.7122963943835794 0.0980392157 0.0980392157 0.0980392157
v -11.829143306840185 -10.314055331513918 -8.5661299138886537 0.0980392157 0.0980392157 0.0980392157
v -11.367425930913214 -6.6816607371868431 -7.8289831693959151 0.0980392157 0.0980392157 0.0980392157
v -3.4682299393132139 -9.3204211909450763 3.179929270065557 0.0980392157 0.0980392157 0.0980392157
v -7.4929339274765239 -14.380422177350004 6.4995900505095818 0.0980392157 0.0980392157 0.0980392157
v -4.707763515643995 -10.188807036696115 -2.2854420884106781 0.0980392157 0.0980392157 0.0980392157
v -3.4682299393132139 -9.3204211909450763 3.179929270065557 0.0980392157 0.0980392157 0.0980392157
v -7.8653285845018761 -14.473860335876934 -6.7122963943835794 0.0980392157 0.0980392157 0.0980392157
v -7.4929339274765239 -14.380422177350004 6.4995900505095818 0.0980392157 0.0980392157 0.0980392157
v -3.4682299393132139 -9.3204211909450763 3.179929270065557 0.0980392157 0.0980392157 0.0980392157
v -5.7636078274538534 -6.7849053915673867 8.4617071339970682 0.0980392157 0.0980392157 0.0980392157
v -10.803503813275636 -10.474604311679265 10.589961577263164 0.0980392157 0.0980392157 0.0980392157
v -10.803503813275636 -10.474604311679265 10.589961577263164 0.0980392157 0.0980392157 0.0980392157
v -5.7636078274538534 -6.7849053915673867 8.4617071339970682 0.0980392157 0.0980392157 0.0980392157
v -5.9417594378148131 -5.5367711193560964 14.670734251306225 0.0980392157 0.0980392157 0.0980392157
v -45.190263055694473 0.12511011439416897 -12.773581474023974 0.0980392157 0.0980392157 0.0980392157
v -50.140054029134554 3.2320441538209335 -8.5895361539901813 0.0980392157 0.0980392157 0.0980392157
v -40.681784036655351 8.6988356460233263 -9.0156703782980117 0.0980392157 0.0980392157 0.0980392157
v -45.190263055694473 0.12511011439416897 -12.773581474023974 0.0980392157 0.0980392157 0.0980392157
v -40.681784036655351 8.6988356460233263 -9.0156703782980117 0.0980392157 0.0980392157 0.0980392157
v -39.614939589065443 -0.83393315398666257 -9.0655130297129389 0.0980392157 0.0980392157 0.0980392157
v -43.921693573194617 7.5964745562061706 4.3540559531740319 0.0980392157 0.0980392157 0.0980392157
v -43.298639416562963 9.8148542156895289 -7.652417931567931 0.0980392157 0.0980392157 0.0980392157
v -19.634328377260523 -11.186471311160519 -8.4322372656058953 0.0980392157 0.0980392157 0.0980392157
v -24.288928177119146 -3.7543653902973331 -10.079275661103669 0.0980392157 0.0980392157 0.0980392157
v -15.579924220128214 -6.5596171918780275 -13.582092865825572 0.0980392157 0.0980392157 0.0980392157
v -7.8653285845018761 -14.473860335876934 -6.7122963943835794 0.0980392157 0.0980392157 0.0980392157
v -43.954486050068297 6.3586092533393002 8.8690850681493565 0.0980392157 0.0980392157 0.0980392157
v -38.537993110649282 14.450836018500112 9.2664619132262107 0.0980392157 0.0980392157 0.0980392157
v -42.438344957097655 13.593882001966422 9.0747748881881645 0.0980392157 0.0980392157 0.0980392157
v -36.767648699984854 8.9273407080954374 11.637440741931124 0.0980392157 0.0980392157 0.0980392157
v -38.537993110649282 14.450836018500112 9.2664619132262107 0.0980392157 0.0980392157 0.0980392157
v -43.954486050068297 6.3586092533393002 8.8690850681493565 0.0980392157 0.0980392157 0.0980392157
v -36.767648699984854 8.9273407080954374 11.637440741931124 0.0980392157 0.0980392157 0.0980392157
v -43.954486050068297 6.3586092533393002 8.8690850681493565 0.0980392157 0.0980392157 0.0980392157
v -38.404742563774342 0.018496982771726178 10.620288144772781 0.0980392157 0.0980392157 0.0980392157
v -50.140054029134554 3.2320441538209335 -8.5895361539901813 0.0980392157 0.0980392157 0.0980392157
v -43.157661888860872 5.9757036661258436 0.75777131353557214 0.0980392157 0.0980392157 0.0980392157
v -43.298639416562963 9.8148542156895289 -7.652417931567931 0.0980392157 0.0980392157 0.0980392157
v -43.921693573194617 7.5964745562061706 4.3540559531740319 0.0980392157 0.0980392157 0.0980392157
v -43.157661888860872 5.9757036661258436 0.75777131353557214 0.0980392157 0.0980392157 0.0980392157
v -46.560533572089511 -0.074173609377150049 0.49628156001923918 0.0980392157 0.0980392157 0.0980392157
v -43.954486050068297 6.3586092533393002 8.8690850681493565 0.0980392157 0.0980392157 0.0980392157
v -43.921693573194617 7.5964745562061706 4.3540559531740319 0.0980392157 0.0980392157 0.0980392157
v -7.4929339274765239 -14.380422177350004 6.4995900505095818 0.0980392157 0.0980392157 0.0980392157
v -15.46076411080136 -14.486195239892464 6.5518388043639977 0.0980392157 0.0980392157 0.0980392157
v -7.8653285845018761 -14.473860335876934 -6.7122963943835794 0.0980392157 0.0980392157 0.0980392157
v -24.293270934966646 -14.458973710164823 -7.130231766457265 0.0980392157 0.0980392157 0.0980392157
v -19.634328377260523 -11.186471311160519 -8.4322372656058953 0.0980392157 0.0980392157 0.0980392157
v -15.46076411080136 -14.486195239892464 6.5518388043639977 0.0980392157 0.0980392157 0.0980392157
v -36.777562530511666 -14.341668290434358 8.4182219157654572 0.0980392157 0.0980392157 0.0980392157
v -42.424361336723337 -13.827255531545074 8.8293225978106946 0.0980392157 0.0980392157 0.0980392157
v -39.173442844323155 -14.533343507366451 -5.7443172216826435 0.0980392157 0.0980392157 0.0980392157
v -14.03699099312044 -11.11279490245861 14.951714135403156 0.0980392157 0.0980392157 0.0980392157
v -10.803503813275636 -10.474604311679265 10.589961577263164 0.0980392157 0.0980392157 0.0980392157
v -5.9417594378148131 -5.5367711193560964 14.670734251306225 0.0980392157 0.0980392157 0.0980392157
v -46.560533572089511 -0.074173609377150049 0.49628156001923918 0.0980392157 0.0980392157 0.0980392157
v -43.157661888860872 5.9757036661258436 0.75777131353557214 0.0980392157 0.0980392157 0.0980392157
v -50.140054029134554 3.2320441538209335 -8.5895361539901813 0.0980392157 0.0980392157 0.0980392157
v -50.372403979809022 2.9301409546448198 8.821931856366291 0.0980392157 0.0980392157 0.0980392157
v -43.954486050068297 6.3586092533393002 8.8690850681493565 0.0980392157 0.0980392157 0.0980392157
v -43.921693573194617 7.5964745562061706 4.3540559531740319 0.0980392157 0.0980392157 0.0980392157
v -34.781878262788581 10.692755033486932 14.916609374971996 0.0980392157 0.0980392157 0.0980392157
v -36.767648699984854 8.9273407080954374 11.637440741931124 0.0980392157 0.0980392157 0.0980392157
v -38.404742563774342 0.018496982771726178 10.620288144772781 0.0980392157 0.0980392157 0.0980392157
v -15.46076411080136 -14.486195239892464 6.5518388043639977 0.0980392157 0.0980392157 0.0980392157
v -7.4929339274765239 -14.380422177350004 6.4995900505095818 0.0980392157 0.0980392157 0.0980392157
v -10.803503813275636 -10.474604311679265 10.589961577263164 0.0980392157 0.0980392157 0.0980392157
v -50.140054029134554 3.2320441538209335 -8.5895361539901813 0.0980392157 0.0980392157 0.0980392157
v -45.190263055694473 0.12511011439416897 -12.773581474023974 0.0980392157 0.0980392157 0.0980392157
v -51.701661222536622 -1.4282631981004899 -7.2432681221465751 0.0980392157 0.0980392157 0.0980392157
v -42.906056572682402 -8.9316454519074675 -8.9735796077834724 0.0980392157 0.0980392157 0.0980392157
v -45.190263055694473 0.12511011439416897 -12.773581474023974 0.0980392157 0.0980392157 0.0980392157
v -39.614939589065443 -0.83393315398666257 -9.0655130297129389 0.0980392157 0.0980392157 0.0980392157
v -46.560533572089511 -0.074173609377150049 0.49628156001923918 0.0980392157 0.0980392157 0.0980392157
v -50.140054029134554 3.2320441538209335 -8.5895361539901813 0.0980392157 0.0980392157 0.0980392157
v -51.701661222536622 -1.4282631981004899 -7.2432681221465751 0.0980392157 0.0980392157 0.0980392157
v -37.876761892460408 -8.0812498345765409 -6.780207163055235 0.0980392157 0.0980392157 0.0980392157
v -42.906056572682402 -8.9316454519074675 -8.9735796077834724 0.0980392157 0.0980392157 0.0980392157
v -32.784470846504064 -10.528760991383411 -10.371976676498706 0.0980392157 0.0980392157 0.0980392157
v -51.001933862269055 1.0606208134584123 4.6083945456210857 0.0980392157 0.0980392157 0.0980392157
v -43.921693573194617 7.5964745562061706 4.3540559531740319 0.0980392157 0.0980392157 0.0980392157
v -46.560533572089511 -0.074173609377150049 0.49628156001923918 0.0980392157 0.0980392157 0.0980392157
v -50.372403979809022 2.9301409546448198 8.821931856366291 0.0980392157 0.0980392157 0.0980392157
v -46.017568352411587 -0.012396194853261822 12.744679005499567 0.0980392157 0.0980392157 0.0980392157
v -43.954486050068297 6.3586092533393002 8.8690850681493565 0.0980392157 0.0980392157 0.0980392157
v -14.03699099312044 -11.11279490245861 14.951714135403156 0.0980392157 0.0980392157 0.0980392157
v -18.118734682167553 -11.186647660247827 9.7449811494893588 0.0980392157 0.0980392157 0.0980392157
v -15.46076411080136 -14.486195239892464 6.5518388043639977 0.0980392157 0.0980392157 0.0980392157
v -10.803503813275636 -10.474604311679265 10.589961577263164 0.0980392157 0.0980392157 0.0980392157
v -14.03699099312044 -11.11279490245861 14.951714135403156 0.0980392157 0.0980392157 0.0980392157
v -15.46076411080136 -14.486195239892464 6.5518388043639977 0.0980392157 0.0980392157 0.0980392157
v -36.777562530511666 -14.341668290434358 8.4182219157654572 0.0980392157 0.0980392157 0.0980392157
v -15.46076411080136 -14.486195239892464 6.5518388043639977 0.0980392157 0.0980392157 0.0980392157
v -18.118734682167553 -11.186647660247827 9.7449811494893588 0.0980392157 0.0980392157 0.0980392157
v -18.118734682167553 -11.186647660247827 9.7449811494893588 0.0980392157 0.0980392157 0.0980392157
v -34.597048323393054 -10.939730984596789 14.908791268184135 0.0980392157 0.0980392157 0.0980392157
v -36.777562530511666 -14.341668290434358 8.4182219157654572 0.0980392157 0.0980392157 0.0980392157
v -42.906056572682402 -8.9316454519074675 -8.9735796077834724 0.0980392157 0.0980392157 0.0980392157
v -51.701661222536622 -1.4282631981004899 -7.2432681221465751 0.0980392157 0.0980392157 0.0980392157
v -45.190263055694473 0.12511011439416897 -12.773581474023974 0.0980392157 0.0980392157 0.0980392157
v -43.921693573194617 7.5964745562061706 4.3540559531740319 0.0980392157 0.0980392157 0.0980392157
v -51.001933862269055 1.0606208134584123 4.6083945456210857 0.0980392157 0.0980392157 0.0980392157
v -42.731040316887132 -13.068044343446653 -3.7232867405504657 0.0980392157 0.0980392157 0.0980392157
v -42.906056572682402 -8.9316454519074675 -8.9735796077834724 0.0980392157 0.0980392157 0.0980392157
v -37.876761892460408 -8.0812498345765409 -6.780207163055235 0.0980392157 0.0980392157 0.0980392157
v -42.731040316887132 -13.068044343446653 -3.7232867405504657 0.0980392157 0.0980392157 0.0980392157
v -37.876761892460408 -8.0812498345765409 -6.780207163055235 0.0980392157 0.0980392157 0.0980392157
v -32.784470846504064 -10.528760991383411 -10.371976676498706 0.0980392157 0.0980392157 0.0980392157
v -43.203891722890667 -5.8006406879522991 -0.93786634866810215 0.0980392157 0.0980392157 0.0980392157
v -46.560533572089511 -0.074173609377150049 0.49628156001923918 0.0980392157 0.0980392157 0.0980392157
v -51.701661222536622 -1.4282631981004899 -7.2432681221465751 0.0980392157 0.0980392157 0.0980392157
v -43.652514346734485 -8.4424535309209698 3.2443704467551555 0.0980392157 0.0980392157 0.0980392157
v -51.001933862269055 1.0606208134584123 4.6083945456210857 0.0980392157 0.0980392157 0.0980392157
v -46.560533572089511 -0.074173609377150049 0.49628156001923918 0.0980392157 0.0980392157 0.0980392157
v -24.293270934966646 -14.458973710164823 -7.130231766457265 0.0980392157 0.0980392157 0.0980392157
v -39.173442844323155 -14.533343507366451 -5.7443172216826435 0.0980392157 0.0980392157 0.0980392157
v -32.784470846504064 -10.528760991383411 -10.371976676498706 0.0980392157 0.0980392157 0.0980392157
v -39.173442844323155 -14.533343507366451 -5.7443172216826435 0.0980392157 0.0980392157 0.0980392157
v -43.652514346734485 -8.4424535309209698 3.2443704467551555 0.0980392157 0.0980392157 0.0980392157
v -46.560533572089511 -0.074173609377150049 0.49628156001923918 0.0980392157 0.0980392157 0.0980392157
v -43.203891722890667 -5.8006406879522991 -0.93786634866810215 0.0980392157 0.0980392157 0.0980392157
v -46.017568352411587 -0.012396194853261822 12.744679005499567 0.0980392157 0.0980392157 0.0980392157
v -43.481372959197905 -7.1788579665295194 8.5699456894667119 0.0980392157 0.0980392157 0.0980392157
v -38.404742563774342 0.018496982771726178 10.620288144772781 0.0980392157 0.0980392157 0.0980392157
v -50.372403979809022 2.9301409546448198 8.821931856366291 0.0980392157 0.0980392157 0.0980392157
v -49.766382168142563 -3.396492290028549 8.9851831424849813 0.0980392157 0.0980392157 0.0980392157
v -38.327937698057013 -8.8946884007056539 11.147723125000519 0.0980392157 0.0980392157 0.0980392157
v -38.404742563774342 0.018496982771726178 10.620288144772781 0.0980392157 0.0980392157 0.0980392157
v -43.481372959197905 -7.1788579665295194 8.5699456894667119 0.0980392157 0.0980392157 0.0980392157
v -34.597048323393054 -10.939730984596789 14.908791268184135 0.0980392157 0.0980392157 0.0980392157
v -34.781878262788581 10.692755033486932 14.916609374971996 0.0980392157 0.0980392157 0.0980392157
v -43.203891722890667 -5.8006406879522991 -0.93786634866810215 0.0980392157 0.0980392157 0.0980392157
v -51.701661222536622 -1.4282631981004899 -7.2432681221465751 0.0980392157 0.0980392157 0.0980392157
v -42.906056572682402 -8.9316454519074675 -8.9735796077834724 0.0980392157 0.0980392157 0.0980392157
v -42.731040316887132 -13.068044343446653 -3.7232867405504657 0.0980392157 0.0980392157 0.0980392157
v -43.203891722890667 -5.8006406879522991 -0.93786634866810215 0.0980392157 0.0980392157 0.0980392157
v -42.906056572682402 -8.9316454519074675 -8.9735796077834724 0.0980392157 0.0980392157 0.0980392157
v -43.652514346734485 -8.4424535309209698 3.2443704467551555 0.0980392157 0.0980392157 0.0980392157
v -43.203891722890667 -5.8006406879522991 -0.93786634866810215 0.0980392157 0.0980392157 0.0980392157
v -49.766382168142563 -3.396492290028549 8.9851831424849813 0.0980392157 0.0980392157 0.0980392157
v -43.652514346734485 -8.4424535309209698 3.2443704467551555 0.0980392157 0.0980392157 0.0980392157
v -43.481372959197905 -7.1788579665295194 8.5699456894667119 0.0980392157 0.0980392157 0.0980392157
v -46.017568352411587 -0.012396194853261822 12.744679005499567 0.0980392157 0.0980392157 0.0980392157
v -43.481372959197905 -7.1788579665295194 8.5699456894667119 0.0980392157 0.0980392157 0.0980392157
v -42.424361336723337 -13.827255531545074 8.8293225978106946 0.0980392157 0.0980392157 0.0980392157
v -38.327937698057013 -8.8946884007056539 11.147723125000519 0.0980392157 0.0980392157 0.0980392157
v -43.481372959197905 -7.1788579665295194 8.5699456894667119 0.0980392157 0.0980392157 0.0980392157
v -34.597048323393054 -10.939730984596789 14.908791268184135 0.0980392157 0.0980392157 0.0980392157
v -38.327937698057013 -8.8946884007056539 11.147723125000519 0.0980392157 0.0980392157 0.0980392157
v -36.777562530511666 -14.341668290434358 8.4182219157654572 0.0980392157 0.0980392157 0.0980392157
v -42.424361336723337 -13.827255531545074 8.8293225978106946 0.0980392157 0.0980392157 0.0980392157
v -36.777562530511666 -14.341668290434358 8.4182219157654572 0.0980392157 0.0980392157 0.0980392157
v -38.327937698057013 -8.8946884007056539 11.147723125000519 0.0980392157 0.0980392157 0.0980392157
v -19.059622865483 14.39215526155332 -7.0996172106913384 0.0980392157 0.0980392157 0.0980392157
v -35.130384730691439 14.471105525688341 -6.732764286354544 0.0980392157 0.0980392157 0.0980392157
v -34.946194624272977 14.303315325606153 7.5050554764813535 0.0980392157 0.0980392157 0.0980392157
v -37.862242005507689 10.489597155056195 -6.6880483751177975 0.0980392157 0.0980392157 0.0980392157
v -41.053743905095637 14.375128525201077 -4.1727402067157957 0.0980392157 0.0980392157 0.0980392157
v -35.130384730691439 14.471105525688341 -6.732764286354544 0.0980392157 0.0980392157 0.0980392157
v -43.298639416562963 9.8148542156895289 -7.652417931567931 0.0980392157 0.0980392157 0.0980392157
v -40.681784036655351 8.6988356460233263 -9.0156703782980117 0.0980392157 0.0980392157 0.0980392157
v -38.404742563774342 0.018496982771726178 10.620288144772781 0.0980392157 0.0980392157 0.0980392157
v -43.954486050068297 6.3586092533393002 8.8690850681493565 0.0980392157 0.0980392157 0.0980392157
v -46.017568352411587 -0.012396194853261822 12.744679005499567 0.0980392157 0.0980392157 0.0980392157
v -35.130384730691439 14.471105525688341 -6.732764286354544 0.0980392157 0.0980392157 0.0980392157
v -3.971253680271865 10.331824075017703 -1.5761493452327848 0.0980392157 0.0980392157 0.0980392157
v -8.2194459603654479 8.9739019632390971 -6.2836342047079725 0.0980392157 0.0980392157 0.0980392157
v -43.481372959197905 -7.1788579665295194 8.5699456894667119 0.0980392157 0.0980392157 0.0980392157
v -8.4098739624023438 3.4158344268798828 7.4499998092651367 0.0980392157 0.0980392157 0.0980392157
v -6.8798189598457524 5.1872001965160877 14.763723180537042 0.0980392157 0.0980392157 0.0980392157
v -5.0305823075484515 8.2380089990317522 6.7286929578596189 0.0980392157 0.0980392157 0.0980392157
v -5.5465298393980271 1.3254006812478938 7.3610696371952571 0.0980392157 0.0980392157 0.0980392157
v -11.775273287785742 -0.66524972320641096 9.4655945435348876 0.0980392157 0.0980392157 0.0980392157
v -24.288928177119146 -3.7543653902973331 -10.079275661103669 0.0980392157 0.0980392157 0.0980392157
v -22.640119663039563 6.0050779089138349 -9.9384137882756551 0.0980392157 0.0980392157 0.0980392157
v -20.826547983806925 -1.7415652422534 -8.6725598648271571 0.0980392157 0.0980392157 0.0980392157
v -5.0305823075484515 8.2380089990317522 6.7286929578596189 0.0980392157 0.0980392157 0.0980392157
v -43.157661888860872 5.9757036661258436 0.75777131353557214 0.0980392157 0.0980392157 0.0980392157
v -43.921693573194617 7.5964745562061706 4.3540559531740319 0.0980392157 0.0980392157 0.0980392157
v 18.32325823746428 -7.4302265564677468 0.55236881425993678 0.0980392157 0.0980392157 0.0980392157
v -7.3355946066141833 14.228092691242413 7.0399007049340012 0.0980392157 0.0980392157 0.0980392157
v -22.640119663039563 6.0050779089138349 -9.9384137882756551 0.0980392157 0.0980392157 0.0980392157
vn 0.99943727254867554 0.020936610177159309 0.026207860559225082
vn 0.9996788501739502 -0.01025127898901701 -0.023176351562142372
vn 0.99366217851638794 0.045195594429969788 -0.10292120277881622
vn 0.87799680233001709 -0.39773589372634888 0.26632261276245117
vn 0.9536893367767334 -0.15707831084728241 -0.25652101635932922
vn 0.93723219633102417 -0.022912157699465752 -0.34795227646827698
vn 0.99480044841766357 -0.050297636538743973 -0.088556326925754547
vn 0.99089306592941284 -0.08415675163269043 -0.10511203855276108
vn 0.77558320760726929 0.43768197298049927 -0.45486831665039062
vn 0.80701315402984619 0.40315026044845581 -0.43150860071182251
vn 0.029866838827729225 0.98949503898620605 -0.14144812524318695
vn 0.033654078841209412 0.96684414148330688 0.25313988327980042
vn -0.022913102060556412 0.86874496936798096 -0.4947294294834137
vn -0.048971064388751984 0.31234371662139893 0.94870609045028687
vn 0.10285282880067825 0.79684919118881226 0.59535926580429077
vn 0.98760044574737549 -0.09872010350227356 -0.12206411361694336
vn -0.0001581959513714537 0.71203100681304932 -0.70214802026748657
vn 0.020813610404729843 0.23266348242759705 -0.97233456373214722
vn 0.69122934341430664 0.42146739363670349 0.58699852228164673
vn 0.59472650289535522 0.59148627519607544 0.54446703195571899
vn 0.67987877130508423 0.44528546929359436 0.58265405893325806
vn 0.72388887405395508 -0.5341874361038208 0.43661046028137207
vn 0.63389873504638672 -0.47133994102478027 0.6131974458694458
vn 0.76765626668930054 -0.59104043245315552 0.24773988127708435
vn 0.58263325691223145 -0.62247776985168457 -0.52255135774612427
vn 0.58263325691223145 -0.62247776985168457 -0.52255135774612427
vn 0.58263325691223145 -0.62247776985168457 -0.52255135774612427
vn -0.0030074245296418667 -0.63692456483840942 -0.77092021703720093
vn 0.13729725778102875 -0.1805402934551239 -0.97393769025802612
vn 0.42325317859649658 -0.21971248090267181 -0.87896710634231567
vn 0.28700682520866394 -0.20111225545406342 -0.93657940626144409
vn 0.62916475534439087 0.26080024242401123 -0.7322123646736145
vn -0.16774322092533112 0.33239224553108215 -0.92810434103012085
vn 0.083218783140182495 -0.16490252315998077 -0.98279285430908203
vn 0.16176621615886688 -0.320548415184021 -0.93331688642501831
vn 0.030299112200737 0.99888056516647339 -0.036326464265584946
vn 0.0055551216937601566 0.99998176097869873 0.0023612901568412781
vn -0.049883868545293808 0.99863272905349731 0.015629930421710014
vn 0.055751696228981018 0.2914046049118042 0.95497387647628784
vn 0.089911021292209625 0.25970971584320068 0.96149200201034546
vn 0.18210431933403015 0.17029327154159546 0.96842044591903687
vn -0.063964612782001495 0.99678522348403931 -0.048247016966342926
vn -0.022836215794086456 0.9935985803604126 0.11063606292009354
vn -0.14837227761745453 0.9793427586555481 -0.13738079369068146
vn -0.029165968298912048 0.99855595827102661 0.045115306973457336
vn -0.7699657678604126 0.63744938373565674 0.02847856841981411
vn 0.6035773754119873 0.79688012599945068 -0.026007134467363358
vn 0.86388289928436279 0.49359971284866333 -0.10032805055379868
vn 0.91957330703735352 0.36413797736167908 0.14760918915271759
vn 0.0092970021069049835 0.36366564035415649 -0.93148314952850342
vn 0.00084679765859618783 0.30451667308807373 -0.9525066614151001
vn 0.22935201227664948 0.97333061695098877 0.0050123156979680061
vn 0.39026919007301331 0.75884401798248291 -0.52138823270797729
vn 0.43431350588798523 0.8984522819519043 -0.064461633563041687
vn 0.36768618226051331 0.92569386959075928 -0.088869050145149231
vn 0.72427099943161011 0.53907543420791626 0.42991766333580017
vn 0.72427099943161011 0.53907543420791626 0.42991766333580017
vn 0.72427099943161011 0.53907543420791626 0.42991766333580017
vn 0.41245633363723755 -0.32491281628608704 -0.85106486082077026
vn 0.58353120088577271 0.03658762201666832 -0.81126612424850464
vn 0.70035088062286377 0.44594728946685791 -0.5573505163192749
vn 0.404173344373703 0.75032997131347656 0.52311456203460693
vn 0.77818596363067627 0.063838325440883636 0.62478101253509521
vn 0.50090682506561279 0.60482120513916016 0.61909902095794678
vn 0.78158724308013916 -0.19996486604213715 0.59087681770324707
vn 0.39453953504562378 0.56596672534942627 0.7238924503326416
vn 0.0041156783699989319 0.016061676666140556 0.99986255168914795
vn 0.072532609105110168 -0.031126229092478752 0.99688023328781128
vn 0.026827225461602211 -0.59239935874938965 0.80519765615463257
vn 0.7391127347946167 0.58046400547027588 -0.34172186255455017
vn 0.7391127347946167 0.58046400547027588 -0.34172186255455017
vn 0.7391127347946167 0.58046400547027588 -0.34172186255455017
vn 0.6771283745765686 -0.43650764226913452 -0.59241724014282227
vn 0.68416404724121094 -0.36759495735168457 -0.62991547584533691
vn 0.68490058183670044 -0.35627952218055725 -0.63559114933013916
vn 0.87833762168884277 0.0059104389511048794 -0.47800427675247192
vn 0.7645079493522644 0.06651807576417923 -0.64117312431335449
vn 0.62215155363082886 -0.033835031092166901 -0.78216534852981567
vn -0.50948208570480347 -0.11064384877681732 -0.85333812236785889
vn -0.50948208570480347 -0.11064384877681732 -0.85333812236785889
vn -0.50948208570480347 -0.11064384877681732 -0.85333812236785889
vn 0.29306268692016602 0.83452105522155762 0.4665713906288147
vn 0.66443479061126709 0.73203378915786743 0.15050876140594482
vn 0.34111270308494568 0.81847822666168213 0.46231538057327271
vn -0.60209530591964722 0.67333799600601196 0.4290655255317688
vn -0.60209530591964722 0.67333799600601196 0.4290655255317688
vn -0.60209530591964722 0.67333799600601196 0.4290655255317688
vn 0.49808213114738464 0.81040436029434204 0.30847844481468201
vn 0.5437811017036438 0.7902597188949585 0.28247430920600891
vn 0.15863393247127533 -0.94251120090484619 0.29412227869033813
vn 0.010564892552793026 -0.99846071004867554 0.0544479601085186
vn 0.037101160734891891 -0.51468664407730103 0.85657525062561035
vn -0.64827698469161987 0.39532089233398438 -0.65073674917221069
vn -0.54342496395111084 0.48097613453865051 -0.68800526857376099
vn -0.58661007881164551 0.46939888596534729 -0.65996462106704712
vn 0.026622114703059196 -0.13063505291938782 -0.99107301235198975
vn 0.056922521442174911 0.7823185920715332 -0.62027209997177124
vn 0.41703853011131287 0.37181803584098816 -0.82935529947280884
vn 0.59207266569137573 -0.51476943492889404 -0.62005031108856201
vn 0.55744069814682007 -0.61972558498382568 -0.55244916677474976
vn 0.7810247540473938 -0.4901123046875 -0.38702741265296936
vn 0 0 -1
vn 0 0 -1
vn 0 0 -1
vn 0.22433722019195557 0.85585623979568481 -0.46602889895439148
vn 0.22433722019195557 0.85585623979568481 -0.46602889895439148
vn 0.22433722019195557 0.85585623979568481 -0.46602889895439148
vn -0.78362202644348145 0.51524204015731812 0.34707656502723694
vn 0.19459629058837891 0.77238672971725464 0.60460817813873291
vn 0.28620216250419617 0.74140053987503052 0.60697078704833984
vn 0.5390392541885376 -0.35607361793518066 0.76331400871276855
vn 0.53101623058319092 -0.34885963797569275 0.77221673727035522
vn 0.5331001877784729 -0.34182283282279968 0.77392590045928955
vn 0.62092763185501099 -0.57593357563018799 -0.53174185752868652
vn 0.49449798464775085 -0.67732030153274536 -0.54470998048782349
vn 0.37490451335906982 -0.68291383981704712 -0.62695711851119995
vn 0.020169846713542938 0.99893540143966675 0.041488051414489746
vn 0.031207665801048279 0.99947094917297363 -0.0091622155159711838
vn -0.04955340176820755 0.99871611595153809 0.010515465401113033
vn 0.76198792457580566 -0.48777425289154053 0.42597025632858276
vn 0.76231658458709717 -0.50105631351470947 0.40965348482131958
vn 0.74884641170501709 -0.51736909151077271 0.41419598460197449
vn 0.56133490800857544 0.77528154850006104 0.2895541787147522
vn 0.57775086164474487 0.66833090782165527 0.46854856610298157
vn 0.57437354326248169 0.71353554725646973 0.40120074152946472
vn 0.015917869284749031 -0.042204570025205612 0.99898219108581543
vn 0.60252010822296143 0.55657815933227539 0.57200545072555542
vn 0.75183558464050293 0.39142405986785889 0.53059440851211548
vn 0.036513641476631165 0.84889554977416992 0.52729791402816772
vn -0.63889986276626587 -0.72889703512191772 0.24600017070770264
vn -0.63889986276626587 -0.72889703512191772 0.24600017070770264
vn -0.63889986276626587 -0.72889703512191772 0.24600017070770264
vn 0.31586045026779175 0.36035341024398804 0.87771159410476685
vn 0.31586045026779175 0.36035341024398804 0.87771159410476685
vn 0.31586045026779175 0.36035341024398804 0.87771159410476685
vn 0.74528056383132935 -0.47787255048751831 0.46496745944023132
vn 0.74528056383132935 -0.47787255048751831 0.46496745944023132
vn 0.74528056383132935 -0.47787255048751831 0.46496745944023132
vn -0.14021426439285278 0.070560432970523834 -0.98760378360748291
vn -0.054787922650575638 0.044408209621906281 -0.99751001596450806
vn -0.1483691930770874 -0.0056365891359746456 -0.98891597986221313
vn -0.033426910638809204 0.08263811469078064 -0.99601888656616211
vn 0.13386961817741394 -0.48939219117164612 -0.86172747611999512
vn -0.052970916032791138 0.032246187329292297 -0.99807530641555786
vn -0.10824312269687653 -0.064576148986816406 -0.99202489852905273
vn -0.06310107558965683 0.016800455749034882 -0.99786573648452759
vn -0.14320996403694153 0.0035059493966400623 -0.98968613147735596
vn 0.12622746825218201 -0.10763160884380341 -0.98614507913589478
vn 0.034576714038848877 -0.63322532176971436 -0.77319478988647461
vn 0.31342294812202454 -0.43305367231369019 -0.84512162208557129
vn -0.39259609580039978 -0.13431929051876068 -0.90984976291656494
vn -0.50120246410369873 -0.35332870483398438 -0.78990817070007324
vn -0.43697187304496765 -0.24549469351768494 -0.86532533168792725
vn -0.033310644328594208 0.5933418869972229 -0.80426102876663208
vn 0.017079560086131096 0.58023977279663086 -0.8142666220664978
vn -0.28864738345146179 0.79266369342803955 -0.53699809312820435
vn -0.28864738345146179 0.79266369342803955 -0.53699809312820435
vn -0.28864738345146179 0.79266369342803955 -0.53699809312820435
vn 0.081973515450954437 -0.92308056354522705 -0.37576931715011597
vn 0.66235381364822388 -0.53028297424316406 0.52923285961151123
vn 0.66235381364822388 -0.53028297424316406 0.52923285961151123
vn 0.66235381364822388 -0.53028297424316406 0.52923285961151123
vn 0.088081710040569305 -0.056738544255495071 0.99449604749679565
vn 0.0063732857815921307 0.058433659374713898 0.99827092885971069
vn -0.14441250264644623 0.082607299089431763 0.98606342077255249
vn 0.0099520133808255196 0.024120993912220001 0.99965953826904297
vn 0.10007505118846893 0.028457827866077423 0.99457281827926636
vn -0.10550843924283981 0.023927465081214905 0.99413049221038818
vn 0.055521577596664429 -0.088150843977928162 0.99455857276916504
vn 0.067443020641803741 0.016306960955262184 0.99758988618850708
vn 0.018960444256663322 -0.80300486087799072 0.59567075967788696
vn 0.00038177520036697388 -0.70918941497802734 0.70501792430877686
vn 0.00052295596105977893 -0.70995849370956421 0.70424330234527588
vn 0.041206613183021545 -0.010551118291914463 0.99909496307373047
vn -0.026412641629576683 0.0041057090274989605 0.99964267015457153
vn -0.77520585060119629 0.39679720997810364 -0.49153622984886169
vn -0.77520585060119629 0.39679720997810364 -0.49153622984886169
vn -0.77520585060119629 0.39679720997810364 -0.49153622984886169
vn 0.80388796329498291 -0.51545214653015137 -0.29677140712738037
vn 0.80388796329498291 -0.51545214653015137 -0.29677140712738037
vn 0.80388796329498291 -0.51545214653015137 -0.29677140712738037
vn 0.99119281768798828 0.11717335134744644 -0.061702638864517212
vn 0.99119281768798828 0.11717335134744644 -0.061702638864517212
vn 0.99119281768798828 0.11717335134744644 -0.061702638864517212
vn -0.95418035984039307 0.096185162663459778 0.2833518385887146
vn -0.97114032506942749 0.083861224353313446 0.2232796847820282
vn -0.96133220195770264 0.09137021005153656 0.25979194045066833
vn -0.40603891015052795 0.31490173935890198 -0.85788655281066895
vn -0.16500562429428101 0.51878607273101807 -0.83882904052734375
vn -0.49430942535400391 0.15104927122592926 -0.85606211423873901
vn -0.13411553204059601 -0.56708616018295288 -0.81266617774963379
vn -0.54157978296279907 -0.25718486309051514 -0.80034196376800537
vn -0.26587215065956116 -0.48628410696983337 -0.83236998319625854
vn 0.77743470668792725 -0.25501808524131775 -0.57494437694549561
vn 0.76590126752853394 -0.34250184893608093 -0.54413944482803345
vn 0.026065526530146599 -0.60220217704772949 -0.79791802167892456
vn 0.58612650632858276 -0.36166447401046753 -0.72502034902572632
vn 0.55983924865722656 0.5864899754524231 -0.58532857894897461
vn 0.55983924865722656 0.5864899754524231 -0.58532857894897461
vn 0.55983924865722656 0.5864899754524231 -0.58532857894897461
vn 0.43817970156669617 -0.57335907220840454 0.69228458404541016
vn 0.19216211140155792 -0.88153457641601562 0.43124294281005859
vn 0.19216211140155792 -0.88153457641601562 0.43124294281005859
vn 0.19216211140155792 -0.88153457641601562 0.43124294281005859
vn -0.075783394277095795 0.41059607267379761 0.90866261720657349
vn -0.075783394277095795 0.41059607267379761 0.90866261720657349
vn -0.075783394277095795 0.41059607267379761 0.90866261720657349
vn -0.30614572763442993 0.82067042589187622 -0.48246744275093079
vn -0.29200848937034607 0.90140873193740845 -0.31967690587043762
vn -0.33835145831108093 0.74613159894943237 -0.57341599464416504
vn 0.14229156076908112 0.65647053718566895 -0.7408100962638855
vn 0.17636029422283173 0.64343529939651489 -0.74490809440612793
vn 0.12915773689746857 0.66124117374420166 -0.73897117376327515
vn -0.59290874004364014 -0.2084193080663681 -0.77783071994781494
vn -0.59290874004364014 -0.2084193080663681 -0.77783071994781494
vn -0.59290874004364014 -0.2084193080663681 -0.77783071994781494
vn -0.4361717700958252 0.69162285327911377 -0.57568395137786865
vn -0.4836152195930481 0.7117118239402771 -0.50949245691299438
vn -0.36783179640769958 0.67366743087768555 -0.64099299907684326
vn -0.16261659562587738 0.016425345093011856 -0.98655259609222412
vn -0.16261659562587738 0.016425345093011856 -0.98655259609222412
vn -0.16261659562587738 0.016425345093011856 -0.98655259609222412
vn 0.42184609174728394 -0.8806765079498291 -0.21553364396095276
vn 0.241183802485466 -0.61553823947906494 -0.75029528141021729
vn 0.48790851235389709 -0.75369435548782349 -0.44032949209213257
vn 0.80312979221343994 -0.2546800971031189 -0.53862845897674561
vn 0.85118716955184937 -0.17281270027160645 -0.49559679627418518
vn 0.81764572858810425 0.47311049699783325 -0.32805785536766052
vn 0.60303354263305664 0.79576128721237183 -0.055807985365390778
vn 0.67425614595413208 0.64537525177001953 -0.35898393392562866
vn 0.67184710502624512 0.65869385004043579 -0.33873865008354187
vn 0.53386831283569336 -0.48814722895622253 0.69043242931365967
vn 0.53386831283569336 -0.48814722895622253 0.69043242931365967
vn 0.53386831283569336 -0.48814722895622253 0.69043242931365967
vn 0.11997231096029282 0.90774542093276978 -0.40200114250183105
vn 0.11997231096029282 0.90774542093276978 -0.40200114250183105
vn 0.11997231096029282 0.90774542093276978 -0.40200114250183105
vn 0.074861638247966766 -0.41755390167236328 -0.90556305646896362
vn 0.074861638247966766 -0.41755390167236328 -0.90556305646896362
vn 0.074861638247966766 -0.41755390167236328 -0.90556305646896362
vn -0.92507445812225342 0.37926572561264038 -0.019868724048137665
vn -0.2801591157913208 0.95993548631668091 0.0058922148309648037
vn 0.11765256524085999 0.90638679265975952 -0.40573495626449585
vn 0.11765256524085999 0.90638679265975952 -0.40573495626449585
vn 0.11765256524085999 0.90638679265975952 -0.40573495626449585
vn 0.73788648843765259 0.64134758710861206 -0.2102302610874176
vn 0.73788648843765259 0.64134758710861206 -0.2102302610874176
vn 0.73788648843765259 0.64134758710861206 -0.2102302610874176
vn 0.031357359141111374 -0.49603241682052612 -0.86773759126663208
vn -0.04435301199555397 -0.60070544481277466 -0.79823917150497437
vn -0.0091129103675484657 -0.7529221773147583 -0.65804648399353027
vn 0.033197477459907532 0.20115263760089874 0.97899723052978516
vn 0.17716681957244873 0.065329611301422119 0.98201018571853638
vn 0.071936346590518951 0.33460500836372375 0.93960875272750854
vn -0.6642792820930481 0.5646442174911499 0.48980605602264404
vn -0.69418567419052124 0.52668470144271851 0.49062150716781616
vn -0.62476235628128052 0.60703003406524658 0.49110743403434753
vn 0.59767812490463257 -0.016134463250637054 -0.80157381296157837
vn 0.60156339406967163 0.075246892869472504 -0.79527312517166138
vn 0.55193501710891724 0.054980602115392685 -0.83207261562347412
vn 0.38216316699981689 -0.8682129979133606 0.3164767324924469
vn 0.90590256452560425 -0.42196601629257202 0.035850681364536285
vn 0.7377590537071228 -0.64521497488021851 -0.1985175609588623
vn 0.74493414163589478 -0.62567830085754395 -0.23151625692844391
vn 0.60447186231613159 -0.74507147073745728 -0.28192603588104248
vn 0.81582432985305786 -0.38546127080917358 0.43110352754592896
vn 0.81509065628051758 -0.40630528330802917 0.41296884417533875
vn 0.55769366025924683 -0.10614794492721558 0.82323169708251953
vn 0.62210285663604736 -0.11478044837713242 0.77447628974914551
vn 0.69761884212493896 -0.71634787321090698 0.013177024200558662
vn 0.55558407306671143 -0.83004498481750488 0.048493590205907822
vn 0.56913179159164429 -0.81987506151199341 0.062400802969932556
vn -0.10257279127836227 0.42983347177505493 -0.89706301689147949
vn -0.10257279127836227 0.42983347177505493 -0.89706301689147949
vn -0.10257279127836227 0.42983347177505493 -0.89706301689147949
vn 0.19752582907676697 0.46860110759735107 -0.86104387044906616
vn 0.57395434379577637 -0.12868680059909821 -0.80871260166168213
vn 0.39067342877388 0.40118423104286194 -0.82850795984268188
vn -0.9823804497718811 -0.18682871758937836 0.004862484522163868
vn -0.99977344274520874 -0.02067071758210659 -0.0050824936479330063
vn -0.38730117678642273 -0.44185706973075867 -0.80917251110076904
vn -0.38730117678642273 -0.44185706973075867 -0.80917251110076904
vn -0.38730117678642273 -0.44185706973075867 -0.80917251110076904
vn 0.13778281211853027 -0.41308218240737915 -0.90021055936813354
vn -0.23390656709671021 0.043301861733198166 0.9712943434715271
vn 0.0027046138420701027 -0.014327435754239559 0.99989372491836548
vn 0.069902628660202026 -0.0022120005451142788 0.99755138158798218
vn -0.51045870780944824 0.32730522751808167 0.79517495632171631
vn -0.51045870780944824 0.32730522751808167 0.79517495632171631
vn -0.51045870780944824 0.32730522751808167 0.79517495632171631
vn -0.26667061448097229 -0.30423462390899658 0.91450977325439453
vn -0.26667061448097229 -0.30423462390899658 0.91450977325439453
vn -0.26667061448097229 -0.30423462390899658 0.91450977325439453
vn -0.79289549589157104 0.44198542833328247 0.41948258876800537
vn -0.79289549589157104 0.44198542833328247 0.41948258876800537
vn -0.79289549589157104 0.44198542833328247 0.41948258876800537
vn -0.85438865423202515 0.34218010306358337 -0.39106625318527222
vn -0.80332797765731812 0.48236930370330811 -0.34926214814186096
vn -0.66920524835586548 0.72954457998275757 -0.14117041230201721
vn -0.98829126358032227 -0.010774007998406887 0.15219829976558685
vn -0.89099234342575073 -0.4484637975692749 0.070801705121994019
vn -0.035649001598358154 -0.99932515621185303 -0.008852396160364151
vn 0.015383763238787651 -0.99908560514450073 0.039890844374895096
vn -0.025228049606084824 -0.99276101589202881 -0.11742726713418961
vn 0.0024896427057683468 -0.9984932541847229 -0.054817549884319305
vn -0.091272518038749695 -0.58898210525512695 -0.8029753565788269
vn -0.012703836895525455 -0.99986791610717773 -0.010134824551641941
vn 0.065665543079376221 -0.99725282192230225 0.034275196492671967
vn -0.6974148154258728 -0.71641051769256592 0.019199393689632416
vn -0.0026328240055590868 -0.99999052286148071 0.0034621250815689564
vn 0.53741687536239624 -0.74824953079223633 0.38898035883903503
vn 0.53741687536239624 -0.74824953079223633 0.38898035883903503
vn 0.53741687536239624 -0.74824953079223633 0.38898035883903503
vn -0.6492229700088501 0.59972661733627319 0.46780070662498474
vn -0.6492229700088501 0.59972661733627319 0.46780070662498474
vn -0.6492229700088501 0.59972661733627319 0.46780070662498474
vn -0.83820080757141113 0.54258126020431519 0.055000174790620804
vn 0.036526042968034744 0.94370061159133911 0.3287779688835144
vn 0.072133950889110565 0.99736958742141724 -0.0071148504503071308
vn -0.74045133590698242 0.12164431810379028 0.66101014614105225
vn -0.62592595815658569 0.12233605980873108 0.77022761106491089
vn -0.52221393585205078 0.29593706130981445 0.79982113838195801
vn 0.045845944434404373 -0.59154486656188965 0.80496758222579956
vn 0.09243302047252655 -0.65811121463775635 0.74722540378570557
vn 0.060153156518936157 -0.62178230285644531 0.78087669610977173
vn -0.50702083110809326 0.44618666172027588 -0.73746007680892944
vn -0.62990927696228027 -0.17473214864730835 -0.75675821304321289
vn -0.57915472984313965 -0.10535681247711182 -0.80838090181350708
vn 0.3917388916015625 -0.44456866383552551 -0.80554288625717163
vn 0.28581038117408752 -0.13044467568397522 -0.94936645030975342
vn 0.63099420070648193 -0.033683884888887405 -0.77505594491958618
vn -0.52369439601898193 0.45951834321022034 0.71734726428985596
vn -0.59197044372558594 0.39994156360626221 0.69972687959671021
vn -0.81113433837890625 0.050338257104158401 0.58268958330154419
vn -0.25884106755256653 -0.95364189147949219 0.1535203605890274
vn -0.25884106755256653 -0.95364189147949219 0.1535203605890274
vn -0.25884106755256653 -0.95364189147949219 0.1535203605890274
vn -0.60665208101272583 0.39157944917678833 -0.69183725118637085
vn -0.071907758712768555 0.75638306140899658 -0.65016454458236694
vn -0.48414123058319092 0.51053792238235474 -0.71060419082641602
vn -0.45778787136077881 0.42003622651100159 0.7835814356803894
vn -0.6248289942741394 0.083112441003322601 0.77632534503936768
vn -0.25312241911888123 0.69298791885375977 0.67505311965942383
vn -0.49551844596862793 -0.79358053207397461 0.35311666131019592
vn -0.49551844596862793 -0.79358053207397461 0.35311666131019592
vn -0.49551844596862793 -0.79358053207397461 0.35311666131019592
vn 0.38217779994010925 -0.81522136926651001 0.43514856696128845
vn 0.38308322429656982 -0.81424486637115479 0.43617945909500122
vn 0.34377020597457886 -0.85358911752700806 0.39141747355461121
vn -0.30959060788154602 -0.74497902393341064 0.59089756011962891
vn 0.73256897926330566 -0.59704864025115967 0.32691836357116699
vn 0.71114140748977661 -0.57953119277954102 0.39802205562591553
vn 0.0071055698208510876 -0.99987292289733887 0.014268869534134865
vn -0.0066924705170094967 -0.9999735951423645 -0.0028300969861447811
vn 0.016372924670577049 -0.99984848499298096 -0.0059084575623273849
vn -0.2763197124004364 -0.30615481734275818 -0.91099762916564941
vn 0.12583695352077484 -0.69640207290649414 -0.70653325319290161
vn 0.084573209285736084 -0.62258893251419067 -0.77796554565429688
vn 0.083915568888187408 0.99519842863082886 -0.050381142646074295
vn -0.97852420806884766 0.20457915961742401 0.025252843275666237
vn 0.62587916851043701 -0.58144575357437134 -0.51980382204055786
vn 0.62587916851043701 -0.58144575357437134 -0.51980382204055786
vn 0.62587916851043701 -0.58144575357437134 -0.51980382204055786
vn -0.34866270422935486 -0.14244368672370911 -0.92636066675186157
vn -0.7000841498374939 0.11297132819890976 -0.70506715774536133
vn -0.60404157638549805 -0.15414822101593018 -0.78190284967422485
vn -0.71030700206756592 -0.69905751943588257 0.082356423139572144
vn -0.47733137011528015 -0.86487418413162231 0.15539450943470001
vn -0.16819553077220917 -0.79156398773193359 0.58748340606689453
vn -0.66115432977676392 -0.33194270730018616 -0.67282164096832275
vn -0.66115432977676392 -0.33194270730018616 -0.67282164096832275
vn -0.66115432977676392 -0.33194270730018616 -0.67282164096832275
vn -0.072779543697834015 -0.55843740701675415 -0.82634788751602173
vn 0.3688850998878479 -0.7211453914642334 -0.58640700578689575
vn -0.16576807200908661 -0.59286594390869141 -0.78805512189865112
vn -0.3531021773815155 -0.02500910684466362 -0.93525046110153198
vn -0.7604638934135437 -0.15673188865184784 -0.63018238544464111
vn -0.72488230466842651 -0.29974722862243652 -0.62023961544036865
vn -0.75068694353103638 -0.20375122129917145 -0.62845414876937866
vn 0.39186137914657593 -0.54964995384216309 0.73778694868087769
vn 0.55449903011322021 -0.13840271532535553 0.82059460878372192
vn 0.35319116711616516 -0.61355596780776978 0.70626133680343628
vn -0.63663887977600098 0.22745814919471741 0.73685389757156372
vn -0.47881591320037842 -0.44313037395477295 0.75787252187728882
vn -0.5829809308052063 0.16285431385040283 0.7959972620010376
vn -0.79890817403793335 0.022194873541593552 0.60104334354400635
vn -0.39277717471122742 0.27652201056480408 0.87707561254501343
vn -0.71741265058517456 0.107598677277565 0.68828892707824707
vn -0.7905573844909668 -0.24664206802845001 0.5605236291885376
vn -0.72130286693572998 -0.49627488851547241 0.48314946889877319
vn -0.79204851388931274 -0.60284703969955444 0.096096575260162354
vn -0.73827594518661499 -0.66892164945602417 -0.086558952927589417
vn -0.88999080657958984 -0.45461198687553406 -0.035275321453809738
vn -0.99433106184005737 0.10595677047967911 0.0088825514540076256
vn -0.99619245529174805 0.086880706250667572 0.0072372006252408028
vn -0.99560099840164185 0.093690052628517151 0.00091426906874403358
vn -0.99823856353759766 0.05909140408039093 0.0052922978065907955
vn -0.69038009643554688 -0.72338330745697021 -0.0095849838107824326
vn -0.43262556195259094 -0.88640373945236206 0.16469208896160126
vn -0.16351887583732605 -0.61776459217071533 0.76917386054992676
vn -0.082070685923099518 -0.55716454982757568 0.82633650302886963
vn -0.66154581308364868 -0.74632364511489868 0.073199503123760223
vn -0.54421931505203247 -0.026587394997477531 0.83852159976959229
vn -0.54421931505203247 -0.026587394997477531 0.83852159976959229
vn -0.54421931505203247 -0.026587394997477531 0.83852159976959229
vn -0.69296807050704956 -0.49121209979057312 0.5277366042137146
vn -0.69296807050704956 -0.49121209979057312 0.5277366042137146
vn -0.69296807050704956 -0.49121209979057312 0.5277366042137146
vn 0.10670424997806549 -0.4643215537071228 0.87921535968780518
vn 0.10670424997806549 -0.4643215537071228 0.87921535968780518
vn 0.10670424997806549 -0.4643215537071228 0.87921535968780518
vn -0.40960443019866943 0.90536171197891235 -0.11200184375047684
vn 0.15570685267448425 0.98409295082092285 -0.085536248981952667
vn 0.15058122575283051 0.98814809322357178 -0.029809074476361275
vn -0.36633309721946716 -0.051503699272871017 -0.92905730009078979
vn -0.36598530411720276 0.38067340850830078 -0.84920114278793335
vn -0.39068987965583801 0.21313440799713135 -0.8955082893371582
vn -0.36187276244163513 0.26295071840286255 -0.89437407255172729
vn -0.074342504143714905 0.073141001164913177 -0.99454694986343384
vn 0.6234513521194458 0.53572982549667358 0.56947511434555054
vn 0.40013611316680908 0.57233238220214844 0.71577000617980957
vn 0.23657001554965973 0.52214944362640381 0.81938672065734863
vn 0.0020334147848188877 0.99997574090957642 0.0066607925109565258
vn 0.980377197265625 -0.19541248679161072 -0.025971364229917526
vn 0.96827387809753418 0.039921864867210388 -0.24668192863464355
vn -0.99820035696029663 0.056707173585891724 0.019501568749547005
vn -0.8319162130355835 0.53342312574386597 0.15288935601711273
vn -0.80481964349746704 0.56911718845367432 0.16843681037425995
vn -0.81698018312454224 0.54678183794021606 0.18322919309139252
vn -0.0028937929309904575 -0.0010375501587986946 0.99999529123306274
vn 0.0046581863425672054 0.004285068716853857 0.99997997283935547
vn 0.26472428441047668 0.11463827639818192 -0.9574858546257019
vn 0.12701067328453064 0.29046383500099182 -0.94841921329498291
vn 0.17009913921356201 0.038650043308734894 -0.98466873168945312
vn 0.54198402166366577 -0.35112062096595764 0.7635231614112854
vn -0.99894529581069946 -0.045883193612098694 -0.0017430844018235803
vn -0.99999791383743286 -0.0015780190005898476 0.0013148224679753184
vn 0.9999920129776001 -0.0038606747984886169 -0.001027357648126781
vn 0.0044349776580929756 0.99998992681503296 -0.00066805310780182481
vn 0.62113910913467407 -0.26700353622436523 -0.73681432008743286
usemtl vc_191919__Default
f 1//1 2//2 3//3
f 4//4 3//3 5//5
f 6//6 7//7 8//8
f 6//6 9//9 10//10
f 11//11 12//12 13//13
f 14//14 12//12 15//15
f 1//1 16//16 2//2
f 17//17 13//13 18//18
f 19//19 20//20 21//21
f 22//22 23//23 24//24
f 25//25 26//26 27//27
f 28//28 29//29 18//18
f 15//15 12//12 11//11
f 30//30 31//31 32//32
f 33//33 34//34 35//35
f 38//38 439//439 36//36 37//37
f 39//39 40//40 41//41
f 38//38 42//42 43//43
f 44//44 45//45 43//43
f 44//44 46//46 45//45
f 47//47 48//48 49//49
f 50//50 51//51 17//17
f 18//18 50//50 17//17
f 52//52 53//53 54//54
f 29//29 50//50 18//18
f 52//52 55//55 15//15
f 56//56 57//57 58//58
f 59//59 60//60 61//61
f 62//62 15//15 55//55
f 63//63 64//64 65//65
f 66//66 15//15 64//64
f 67//67 15//15 68//68
f 67//67 14//14 15//15
f 14//14 67//67 69//69
f 70//70 71//71 72//72
f 73//73 74//74 75//75
f 76//76 77//77 78//78
f 79//79 80//80 81//81
f 82//82 83//83 84//84
f 85//85 86//86 87//87
f 88//88 89//89 64//64
f 90//90 91//91 69//69
f 92//92 69//69 67//67
f 92//92 90//90 69//69
f 93//93 94//94 95//95
f 96//96 97//97 98//98
f 99//99 100//100 101//101
f 102//102 103//103 104//104
f 105//105 106//106 107//107
f 108//108 109//109 110//110
f 111//111 112//112 113//113
f 114//114 115//115 116//116
f 117//117 118//118 119//119
f 120//120 121//121 122//122
f 123//123 124//124 125//125
f 126//126 67//67 68//68
f 127//127 128//128 129//129
f 130//130 131//131 132//132
f 133//133 134//134 135//135
f 136//136 137//137 138//138
f 139//139 140//140 141//141
f 142//142 143//143 144//144
f 145//145 146//146 147//147
f 148//148 143//143 142//142
f 149//149 143//143 150//150
f 151//151 152//152 153//153
f 154//154 155//155 97//97
f 156//156 157//157 158//158
f 28//28 91//91 159//159
f 160//160 161//161 162//162
f 163//163 164//164 165//165
f 166//166 167//167 163//163
f 168//168 169//169 170//170
f 171//171 172//172 173//173
f 174//174 175//175 169//169
f 176//176 177//177 178//178
f 179//179 180//180 181//181
f 182//182 183//183 184//184
f 185//185 186//186 187//187
f 188//188 189//189 190//190
f 191//191 192//192 193//193
f 194//194 195//195 77//77
f 196//196 197//197 29//29
f 91//91 90//90 159//159
f 198//198 199//199 200//200
f 201//201 90//90 92//92
f 202//202 203//203 204//204
f 205//205 206//206 207//207
f 208//208 209//209 210//210
f 211//211 212//212 213//213
f 214//214 215//215 216//216
f 217//217 218//218 219//219
f 220//220 221//221 222//222
f 223//223 224//224 225//225
f 226//226 227//227 228//228
f 90//90 223//223 225//225
f 229//229 230//230 231//231
f 232//232 233//233 234//234
f 235//235 236//236 237//237
f 238//238 239//239 240//240
f 241//241 46//46 242//242
f 243//243 244//244 245//245
f 246//246 247//247 248//248
f 249//249 250//250 251//251
f 252//252 253//253 254//254
f 255//255 256//256 257//257
f 258//258 259//259 260//260
f 90//90 261//261 223//223
f 262//262 263//263 264//264
f 262//262 265//265 263//263
f 90//90 201//201 261//261
f 266//266 267//267 268//268
f 269//269 266//266 268//268
f 270//270 271//271 272//272
f 273//273 274//274 275//275
f 276//276 277//277 278//278
f 279//279 46//46 280//280
f 281//281 282//282 283//283
f 284//284 250//250 249//249
f 285//285 286//286 287//287
f 288//288 289//289 290//290
f 291//291 292//292 293//293
f 294//294 295//295 296//296
f 297//297 298//298 299//299
f 300//300 46//46 301//301
f 302//302 303//303 304//304
f 303//303 305//305 304//304
f 306//306 304//304 305//305
f 307//307 308//308 305//305
f 308//308 309//309 310//310
f 311//311 312//312 313//313
f 314//314 315//315 316//316
f 317//317 318//318 319//319
f 320//320 321//321 322//322
f 323//323 324//324 325//325
f 326//326 327//327 328//328
f 329//329 330//330 331//331
f 332//332 333//333 334//334
f 335//335 336//336 337//337
f 338//338 339//339 340//340
f 341//341 342//342 343//343
f 344//344 345//345 346//346
f 347//347 348//348 349//349
f 350//350 351//351 352//352
f 353//353 354//354 355//355
f 356//356 357//357 358//358
f 317//317 359//359 360//360
f 361//361 362//362 363//363
f 364//364 365//365 366//366
f 367//367 368//368 369//369
f 370//370 371//371 372//372
f 373//373 374//374 375//375
f 376//376 364//364 366//366
f 377//377 378//378 379//379
f 380//380 381//381 382//382
f 383//383 384//384 342//342
f 385//385 386//386 387//387
f 388//388 389//389 386//386
f 390//390 391//391 392//392
f 393//393 394//394 395//395
f 393//393 396//396 397//397
f 393//393 309//309 396//396
f 398//398 317//317 360//360
f 398//398 360//360 399//399
f 384//384 400//400 401//401
f 398//398 399//399 402//402
f 403//403 404//404 405//405
f 406//406 407//407 408//408
f 409//409 410//410 411//411
f 309//309 393//393 310//310
f 412//412 413//413 38//38
f 118//118 414//414 119//119
f 166//166 170//170 167//167
f 415//415 416//416 417//417
f 418//418 419//419 326//326
f 420//420 421//421 422//422
f 423//423 242//242 43//43
f 424//424 425//425 32//32
f 385//385 388//388 386//386
f 309//309 426//426 396//396
f 159//159 29//29 28//28
f 427//427 428//428 429//429
f 430//430 431//431 126//126
f 432//432 433//433 434//434
f 111//111 113//113 435//435
f 144//144 140//140 96//96
f 436//436 437//437 280//280
f 17//17 11//11 13//13
f 1//1 438//438 16//16
f 308//308 310//310 305//305
f 126//126 68//68 430//430
f 144//144 440//440 142//142
f 146//146 144//144 147//147
