# Dual color encoding: per-vertex RGB for Rerun, face MTL colors for legacy RViz.
mtllib sim_gene01_r_hand_little_1.mtl
# Rhino

g sim_gene01_r_hand_little_1
v -5.5691735028701972 9.46026861375978 3.4473263108199941 0.0980392157 0.0980392157 0.0980392157
v -4.6978239400219248 9.5504284070704095 -3.4088513102531866 0.0980392157 0.0980392157 0.0980392157
v -5.5656034196699391 9.460643862448725 -3.4302303858671137 0.0980392157 0.0980392157 0.0980392157
v -5.5889093634746203 7.6554124215228345 -3.3740850369198445 0.0980392157 0.0980392157 0.0980392157
v -5.4103406753196417 7.6644446998236688 3.4155643110993315 0.0980392157 0.0980392157 0.0980392157
v -5.5691735028701972 9.46026861375978 3.4473263108199941 0.0980392157 0.0980392157 0.0980392157
v -3.7870969470248412 10.113045068408153 -4.3356638617829963 0.0980392157 0.0980392157 0.0980392157
v -4.6978239400219248 9.5504284070704095 -3.4088513102531866 0.0980392157 0.0980392157 0.0980392157
v -3.6149470991068844 10.797125301158811 3.509267814077826 0.0980392157 0.0980392157 0.0980392157
v -3.9150316904419142 8.4349909514263075 -4.4707015161464794 0.0980392157 0.0980392157 0.0980392157
v -5.5656034196699391 9.460643862448725 -3.4302303858671137 0.0980392157 0.0980392157 0.0980392157
v -4.6978239400219248 9.5504284070704095 -3.4088513102531866 0.0980392157 0.0980392157 0.0980392157
v -4.1469424353468796 9.7483337585861403 4.2527882940939863 0.0980392157 0.0980392157 0.0980392157
v -4.6978239400219248 9.5504284070704095 -3.4088513102531866 0.0980392157 0.0980392157 0.0980392157
v -5.5691735028701972 9.46026861375978 3.4473263108199941 0.0980392157 0.0980392157 0.0980392157
v -5.5889093634746203 7.6554124215228345 -3.3740850369198445 0.0980392157 0.0980392157 0.0980392157
v -5.5656034196699391 9.460643862448725 -3.4302303858671137 0.0980392157 0.0980392157 0.0980392157
v -3.9150316904419142 8.4349909514263075 -4.4707015161464794 0.0980392157 0.0980392157 0.0980392157
v -5.4103406753196417 7.6644446998236688 3.4155643110993315 0.0980392157 0.0980392157 0.0980392157
v -4.1469424353468796 9.7483337585861403 4.2527882940939863 0.0980392157 0.0980392157 0.0980392157
v -5.5691735028701972 9.46026861375978 3.4473263108199941 0.0980392157 0.0980392157 0.0980392157
v -4.6616537974043268 7.1251240594801883 -3.7787721565911219 0.0980392157 0.0980392157 0.0980392157
v -4.5072721047113333 6.9197365302727292 2.3156158491648178 0.0980392157 0.0980392157 0.0980392157
v -5.4103406753196417 7.6644446998236688 3.4155643110993315 0.0980392157 0.0980392157 0.0980392157
v -5.5889093634746203 7.6554124215228345 -3.3740850369198445 0.0980392157 0.0980392157 0.0980392157
v -4.6616537974043268 7.1251240594801883 -3.7787721565911219 0.0980392157 0.0980392157 0.0980392157
v -4.5066962007531695 4.5095036520893341 -3.9107698721260604 0.0980392157 0.0980392157 0.0980392157
v -4.5072721047113333 6.9197365302727292 2.3156158491648178 0.0980392157 0.0980392157 0.0980392157
v -4.6616537974043268 7.1251240594801883 -3.7787721565911219 0.0980392157 0.0980392157 0.0980392157
v -4.5066962007531695 4.5095036520893341 -3.9107698721260604 0.0980392157 0.0980392157 0.0980392157
v -4.6616537974043268 7.1251240594801883 -3.7787721565911219 0.0980392157 0.0980392157 0.0980392157
v -4.3055090330410799 0.094416767778554345 -4.4994399280883721 0.0980392157 0.0980392157 0.0980392157
v -4.503871459450778 5.2579629173578546 3.9439911403284151 0.0980392157 0.0980392157 0.0980392157
v -4.5207765270328686 3.823819921217869 -0.093757861937706521 0.0980392157 0.0980392157 0.0980392157
v -4.5066962007531695 4.5095036520893341 -3.9107698721260604 0.0980392157 0.0980392157 0.0980392157
v -4.3055090330410799 0.094416767778554345 -4.4994399280883721 0.0980392157 0.0980392157 0.0980392157
v -3.9150316904419142 8.4349909514263075 -4.4707015161464794 0.0980392157 0.0980392157 0.0980392157
v -1.2540103803636811 4.9753734056588286 -4.5152501288404681 0.0980392157 0.0980392157 0.0980392157
v -4.3055090330410799 0.094416767778554345 -4.4994399280883721 0.0980392157 0.0980392157 0.0980392157
v -3.9677169840894777 7.2613123028030042 4.4743905875682382 0.0980392157 0.0980392157 0.0980392157
v -5.4103406753196417 7.6644446998236688 3.4155643110993315 0.0980392157 0.0980392157 0.0980392157
v -4.503871459450778 5.2579629173578546 3.9439911403284151 0.0980392157 0.0980392157 0.0980392157
v -5.4103406753196417 7.6644446998236688 3.4155643110993315 0.0980392157 0.0980392157 0.0980392157
v -2.0256865995491786 6.967625266117353 4.9719023950191001 0.0980392157 0.0980392157 0.0980392157
v -4.1469424353468796 9.7483337585861403 4.2527882940939863 0.0980392157 0.0980392157 0.0980392157
v -3.9677169840894777 7.2613123028030042 4.4743905875682382 0.0980392157 0.0980392157 0.0980392157
v -4.2168791312496037 -1.3190477196421284 4.4274117445165846 0.0980392157 0.0980392157 0.0980392157
v -4.2168791312496037 -1.3190477196421284 4.4274117445165846 0.0980392157 0.0980392157 0.0980392157
v -1.8802857398986816 5.2329425811767578 4.5 0.0980392157 0.0980392157 0.0980392157
v 0.99605319708917506 4.7093334098207009 4.5239639029589362 0.0980392157 0.0980392157 0.0980392157
v -4.2168791312496037 -1.3190477196421284 4.4274117445165846 0.0980392157 0.0980392157 0.0980392157
v -5.0236086913258253 -1.1996029504238455 1.0646335328275531 0.0980392157 0.0980392157 0.0980392157
v -4.2168791312496037 -1.3190477196421284 4.4274117445165846 0.0980392157 0.0980392157 0.0980392157
v -4.4873480530444043 1.3529220188739277 3.7722015328089165 0.0980392157 0.0980392157 0.0980392157
v -4.2628674206991448 -3.6327829456101091 2.789253013798668 0.0980392157 0.0980392157 0.0980392157
v -4.2711050216076645 -4.294162115084875 -1.3495231302436859 0.0980392157 0.0980392157 0.0980392157
v -4.2213788598797715 -4.468025539996356 0.59452242598077754 0.0980392157 0.0980392157 0.0980392157
v -4.2711050216076645 -4.294162115084875 -1.3495231302436859 0.0980392157 0.0980392157 0.0980392157
v -5.0236086913258253 -1.1996029504238455 1.0646335328275531 0.0980392157 0.0980392157 0.0980392157
v -5.0089969884757544 1.5367735837760832 0.38751134029905421 0.0980392157 0.0980392157 0.0980392157
v -4.9895701850367713 0.52730092238401971 1.4858030711776615 0.0980392157 0.0980392157 0.0980392157
v -5.0243854936733463 1.1070023783711278 -1.2721310405581789 0.0980392157 0.0980392157 0.0980392157
v -4.3055090330410799 0.094416767778554345 -4.4994399280883721 0.0980392157 0.0980392157 0.0980392157
v -4.9866102108258321 -0.79122592825959281 -1.3466146676436672 0.0980392157 0.0980392157 0.0980392157
v -4.24684751016843 -3.3856995776321308 -3.0070844891094421 0.0980392157 0.0980392157 0.0980392157
v -4.2836789393315966 -1.913785894838119 -4.0684737486651876 0.0980392157 0.0980392157 0.0980392157
v -4.9866102108258321 -0.79122592825959281 -1.3466146676436672 0.0980392157 0.0980392157 0.0980392157
v -4.24684751016843 -3.3856995776321308 -3.0070844891094421 0.0980392157 0.0980392157 0.0980392157
v -4.9386657736422848 -1.4540342458055462 -0.37500965668921232 0.0980392157 0.0980392157 0.0980392157
v -4.9386657736422848 -1.4540342458055462 -0.37500965668921232 0.0980392157 0.0980392157 0.0980392157
v -5.0236086913258253 -1.1996029504238455 1.0646335328275531 0.0980392157 0.0980392157 0.0980392157
v 5.0398165561888355 -1.2444697013611945 0.96316791949212432 0.0980392157 0.0980392157 0.0980392157
v 5.0398165561888355 -1.2444697013611945 0.96316791949212432 0.0980392157 0.0980392157 0.0980392157
v -5.0236086913258253 -1.1996029504238455 1.0646335328275531 0.0980392157 0.0980392157 0.0980392157
v 4.9813621653304629 0.40417906456074515 1.5619576774567669 0.0980392157 0.0980392157 0.0980392157
v 4.9400478743218557 1.4976501391334311 0.36594266094243183 0.0980392157 0.0980392157 0.0980392157
v -5.0089969884757544 1.5367735837760832 0.38751134029905421 0.0980392157 0.0980392157 0.0980392157
v -5.0243854936733463 1.1070023783711278 -1.2721310405581789 0.0980392157 0.0980392157 0.0980392157
v 5.0119553184485124 -0.40819457352359001 -1.5763179477591316 0.0980392157 0.0980392157 0.0980392157
v 5.0226934035585726 1.2549665068540323 -0.93014690772161857 0.0980392157 0.0980392157 0.0980392157
v -5.0243854936733463 1.1070023783711278 -1.2721310405581789 0.0980392157 0.0980392157 0.0980392157
v -5.0089969884757544 1.5367735837760832 0.38751134029905421 0.0980392157 0.0980392157 0.0980392157
v 4.9400478743218557 1.4976501391334311 0.36594266094243183 0.0980392157 0.0980392157 0.0980392157
v -4.9895701850367713 0.52730092238401971 1.4858030711776615 0.0980392157 0.0980392157 0.0980392157
v 5.0119553184485124 -0.40819457352359001 -1.5763179477591316 0.0980392157 0.0980392157 0.0980392157
v -4.9866102108258321 -0.79122592825959281 -1.3466146676436672 0.0980392157 0.0980392157 0.0980392157
v -4.9386657736422848 -1.4540342458055462 -0.37500965668921232 0.0980392157 0.0980392157 0.0980392157
v 4.3017405377466282 -1.7412292062096899 4.1554762493921968 0.0980392157 0.0980392157 0.0980392157
v 4.3228074577731501 -0.20753358923377618 4.4702849774633497 0.0980392157 0.0980392157 0.0980392157
v -4.2168791312496037 -1.3190477196421284 4.4274117445165846 0.0980392157 0.0980392157 0.0980392157
v 3.953087319648215 -3.3223175257797646 3.1168978868733399 0.0980392157 0.0980392157 0.0980392157
v 4.3665923848477437 -3.8816926379292278 -2.3318390676281875 0.0980392157 0.0980392157 0.0980392157
v -4.24684751016843 -3.3856995776321308 -3.0070844891094421 0.0980392157 0.0980392157 0.0980392157
v 3.99160080625323 -2.7059980611118313 -3.624070869794894 0.0980392157 0.0980392157 0.0980392157
v -4.2628674206991448 -3.6327829456101091 2.789253013798668 0.0980392157 0.0980392157 0.0980392157
v -4.2213788598797715 -4.468025539996356 0.59452242598077754 0.0980392157 0.0980392157 0.0980392157
v 4.2843059004217254 -4.223142015457265 1.5418495941725805 0.0980392157 0.0980392157 0.0980392157
v -2.591174448310289 11.72705391967928 -4.3064591695743983 0.0980392157 0.0980392157 0.0980392157
v -3.7870969470248412 10.113045068408153 -4.3356638617829963 0.0980392157 0.0980392157 0.0980392157
v -1.9706206326370455 12.037029101549864 4.2802788491464074 0.0980392157 0.0980392157 0.0980392157
v -1.9704303504518315 9.7035267211206335 -4.7742429660473773 0.0980392157 0.0980392157 0.0980392157
v -3.7870969470248412 10.113045068408153 -4.3356638617829963 0.0980392157 0.0980392157 0.0980392157
v -2.591174448310289 11.72705391967928 -4.3064591695743983 0.0980392157 0.0980392157 0.0980392157
v 2.1848506211641658 5.714306278794183 -4.5808366383907151 0.0980392157 0.0980392157 0.0980392157
v 4.3271939465679345 -0.59640459650010058 -4.4646883179142689 0.0980392157 0.0980392157 0.0980392157
v 4.470996847304133 5.8110271024111828 -4.3235577342902554 0.0980392157 0.0980392157 0.0980392157
v 2.0158672895338299 9.3579406913628258 -4.9504862139405361 0.0980392157 0.0980392157 0.0980392157
v 4.470996847304133 5.8110271024111828 -4.3235577342902554 0.0980392157 0.0980392157 0.0980392157
v 2.1848506211641658 5.714306278794183 -4.5808366383907151 0.0980392157 0.0980392157 0.0980392157
v -1.7885729957970167 6.9125209516756314 -5.1971112877223602 0.0980392157 0.0980392157 0.0980392157
v -3.7870969470248412 10.113045068408153 -4.3356638617829963 0.0980392157 0.0980392157 0.0980392157
v -4.1469424353468796 9.7483337585861403 4.2527882940939863 0.0980392157 0.0980392157 0.0980392157
v -1.9706206326370455 12.037029101549864 4.2802788491464074 0.0980392157 0.0980392157 0.0980392157
v -3.6149470991068844 10.797125301158811 3.509267814077826 0.0980392157 0.0980392157 0.0980392157
v -2.0256865995491786 6.967625266117353 4.9719023950191001 0.0980392157 0.0980392157 0.0980392157
v -1.8822148549959259 9.9640147039376803 4.7202457009676966 0.0980392157 0.0980392157 0.0980392157
v -4.1469424353468796 9.7483337585861403 4.2527882940939863 0.0980392157 0.0980392157 0.0980392157
v -2.0256865995491786 6.967625266117353 4.9719023950191001 0.0980392157 0.0980392157 0.0980392157
v 0.58084996591457871 6.3701700951053315 5.3479890628691793 0.0980392157 0.0980392157 0.0980392157
v -2.0256865995491786 6.967625266117353 4.9719023950191001 0.0980392157 0.0980392157 0.0980392157
v 0.58084996591457871 6.3701700951053315 5.3479890628691793 0.0980392157 0.0980392157 0.0980392157
v 3.8116150475099069 7.4024172032950171 4.5164747362970488 0.0980392157 0.0980392157 0.0980392157
v 4.5051499779133852 5.5186809461785487 4.0149908289170293 0.0980392157 0.0980392157 0.0980392157
v 3.8116150475099069 7.4024172032950171 4.5164747362970488 0.0980392157 0.0980392157 0.0980392157
v 4.3228074577731501 -0.20753358923377618 4.4702849774633497 0.0980392157 0.0980392157 0.0980392157
v -4.2836789393315966 -1.913785894838119 -4.0684737486651876 0.0980392157 0.0980392157 0.0980392157
v 4.3665923848477437 -3.8816926379292278 -2.3318390676281875 0.0980392157 0.0980392157 0.0980392157
v 4.2843059004217254 -4.223142015457265 1.5418495941725805 0.0980392157 0.0980392157 0.0980392157
v 3.9710460193126074 -4.5262900441986647 -0.32705973901456104 0.0980392157 0.0980392157 0.0980392157
v -1.8822148549959259 9.9640147039376803 4.7202457009676966 0.0980392157 0.0980392157 0.0980392157
v -1.9706206326370455 12.037029101549864 4.2802788491464074 0.0980392157 0.0980392157 0.0980392157
v -4.1469424353468796 9.7483337585861403 4.2527882940939863 0.0980392157 0.0980392157 0.0980392157
v 0.021261158861261453 12.559929389154027 4.1331621657562776 0.0980392157 0.0980392157 0.0980392157
v -0.36622541799251868 12.528828052022751 -3.987420740120136 0.0980392157 0.0980392157 0.0980392157
v 0.0050852998077663969 9.7720512855174455 -5.1846993715176319 0.0980392157 0.0980392157 0.0980392157
v -1.9704303504518315 9.7035267211206335 -4.7742429660473773 0.0980392157 0.0980392157 0.0980392157
v -2.591174448310289 11.72705391967928 -4.3064591695743983 0.0980392157 0.0980392157 0.0980392157
v -1.9706206326370455 12.037029101549864 4.2802788491464074 0.0980392157 0.0980392157 0.0980392157
v 2.0438716581354437 12.001673397762605 4.2679261687443173 0.0980392157 0.0980392157 0.0980392157
v 0.021261158861261453 12.559929389154027 4.1331621657562776 0.0980392157 0.0980392157 0.0980392157
v 1.3775505314525505 9.7876466455577003 5.1011649558200238 0.0980392157 0.0980392157 0.0980392157
v -1.8822148549959259 9.9640147039376803 4.7202457009676966 0.0980392157 0.0980392157 0.0980392157
v 0.12704500036487543 9.5195424308378982 -6.2053281290343643 0.0980392157 0.0980392157 0.0980392157
v -1.9704303504518315 9.7035267211206335 -4.7742429660473773 0.0980392157 0.0980392157 0.0980392157
v 0.0050852998077663969 9.7720512855174455 -5.1846993715176319 0.0980392157 0.0980392157 0.0980392157
v 0.12704500036487543 9.5195424308378982 -6.2053281290343643 0.0980392157 0.0980392157 0.0980392157
v -1.3236274698985961 8.6825939817827749 -5.9631003892567316 0.0980392157 0.0980392157 0.0980392157
v -1.9704303504518315 9.7035267211206335 -4.7742429660473773 0.0980392157 0.0980392157 0.0980392157
v -1.3236274698985961 8.6825939817827749 -5.9631003892567316 0.0980392157 0.0980392157 0.0980392157
v 0.12704500036487543 9.5195424308378982 -6.2053281290343643 0.0980392157 0.0980392157 0.0980392157
v -1.5775430585267494 9.7103083502575238 -7.7689760119671636 0.0980392157 0.0980392157 0.0980392157
v -1.5775430585267494 9.7103083502575238 -7.7689760119671636 0.0980392157 0.0980392157 0.0980392157
v -2.0208911135488044 7.2894742501454761 -7.7290726673087464 0.0980392157 0.0980392157 0.0980392157
v -1.3236274698985961 8.6825939817827749 -5.9631003892567316 0.0980392157 0.0980392157 0.0980392157
v -0.64926334236407435 6.6013699371811967 -9.3687759585300459 0.0980392157 0.0980392157 0.0980392157
v -2.0208911135488044 7.2894742501454761 -7.7290726673087464 0.0980392157 0.0980392157 0.0980392157
v -1.0139720590815928 9.2657423978189914 -9.418450513815511 0.0980392157 0.0980392157 0.0980392157
v -2.0256865995491786 6.967625266117353 4.9719023950191001 0.0980392157 0.0980392157 0.0980392157
v -0.83680610201939931 9.2195553447243164 6.0955307954741125 0.0980392157 0.0980392157 0.0980392157
v -1.8822148549959259 9.9640147039376803 4.7202457009676966 0.0980392157 0.0980392157 0.0980392157
v -0.98733476668411746 6.7803581880655521 -6.2957305525971945 0.0980392157 0.0980392157 0.0980392157
v -1.7885729957970167 6.9125209516756314 -5.1971112877223602 0.0980392157 0.0980392157 0.0980392157
v -1.3236274698985961 8.6825939817827749 -5.9631003892567316 0.0980392157 0.0980392157 0.0980392157
v -0.83680610201939931 9.2195553447243164 6.0955307954741125 0.0980392157 0.0980392157 0.0980392157
v -1.3648116390778731 8.225258215026134 6.3075607951672072 0.0980392157 0.0980392157 0.0980392157
v -1.9278111154349915 9.0800533837209425 7.791017679660138 0.0980392157 0.0980392157 0.0980392157
v -0.72401640082610186 9.4413347763830906 9.4149348665341339 0.0980392157 0.0980392157 0.0980392157
v -1.9278111154349915 9.0800533837209425 7.791017679660138 0.0980392157 0.0980392157 0.0980392157
v -1.9550999540221856 6.7473875529629153 7.8130142871470865 0.0980392157 0.0980392157 0.0980392157
v -0.998663801839339 6.9295206131890517 9.5793415461297506 0.0980392157 0.0980392157 0.0980392157
v -0.72401640082610186 9.4413347763830906 9.4149348665341339 0.0980392157 0.0980392157 0.0980392157
v -1.9550999540221856 6.7473875529629153 7.8130142871470865 0.0980392157 0.0980392157 0.0980392157
v -1.3648116390778731 8.225258215026134 6.3075607951672072 0.0980392157 0.0980392157 0.0980392157
v -0.83680610201939931 9.2195553447243164 6.0955307954741125 0.0980392157 0.0980392157 0.0980392157
v -2.0256865995491786 6.967625266117353 4.9719023950191001 0.0980392157 0.0980392157 0.0980392157
v -0.65785237859063872 6.691419129311031 6.3874602123554363 0.0980392157 0.0980392157 0.0980392157
v -1.9550999540221856 6.7473875529629153 7.8130142871470865 0.0980392157 0.0980392157 0.0980392157
v -1.3648116390778731 8.225258215026134 6.3075607951672072 0.0980392157 0.0980392157 0.0980392157
v -0.65785237859063872 6.691419129311031 6.3874602123554363 0.0980392157 0.0980392157 0.0980392157
v 0.58084996591457871 6.3701700951053315 5.3479890628691793 0.0980392157 0.0980392157 0.0980392157
v -0.65785237859063872 6.691419129311031 6.3874602123554363 0.0980392157 0.0980392157 0.0980392157
v -2.0256865995491786 6.967625266117353 4.9719023950191001 0.0980392157 0.0980392157 0.0980392157
v -0.36622541799251868 12.528828052022751 -3.987420740120136 0.0980392157 0.0980392157 0.0980392157
v 1.4541010575378606 12.243944734261611 -4.3577257451799669 0.0980392157 0.0980392157 0.0980392157
v -2.591174448310289 11.72705391967928 -4.3064591695743983 0.0980392157 0.0980392157 0.0980392157
v 1.1945250157944391 8.7288118919996744 -9.4607817853704166 0.0980392157 0.0980392157 0.0980392157
v -1.5775430585267494 9.7103083502575238 -7.7689760119671636 0.0980392157 0.0980392157 0.0980392157
v 0.28846814346478733 10.219736209481622 -7.8413446493083905 0.0980392157 0.0980392157 0.0980392157
v -1.0139720590815928 9.2657423978189914 -9.418450513815511 0.0980392157 0.0980392157 0.0980392157
v -1.5775430585267494 9.7103083502575238 -7.7689760119671636 0.0980392157 0.0980392157 0.0980392157
v 1.1945250157944391 8.7288118919996744 -9.4607817853704166 0.0980392157 0.0980392157 0.0980392157
v 1.0878643889130299 7.1103965439398156 -9.4848398316794462 0.0980392157 0.0980392157 0.0980392157
v -0.64926334236407435 6.6013699371811967 -9.3687759585300459 0.0980392157 0.0980392157 0.0980392157
v -1.0139720590815928 9.2657423978189914 -9.418450513815511 0.0980392157 0.0980392157 0.0980392157
v 1.0826929826087488 9.3307130309309212 6.1715719036934873 0.0980392157 0.0980392157 0.0980392157
v -0.83680610201939931 9.2195553447243164 6.0955307954741125 0.0980392157 0.0980392157 0.0980392157
v 1.0826929826087488 9.3307130309309212 6.1715719036934873 0.0980392157 0.0980392157 0.0980392157
v -1.8822148549959259 9.9640147039376803 4.7202457009676966 0.0980392157 0.0980392157 0.0980392157
v -2.0208911135488044 7.2894742501454761 -7.7290726673087464 0.0980392157 0.0980392157 0.0980392157
v -0.98733476668411746 6.7803581880655521 -6.2957305525971945 0.0980392157 0.0980392157 0.0980392157
v -1.3236274698985961 8.6825939817827749 -5.9631003892567316 0.0980392157 0.0980392157 0.0980392157
v 1.1731600433148484 6.8241393393310146 -5.8933867700631737 0.0980392157 0.0980392157 0.0980392157
v -1.7885729957970167 6.9125209516756314 -5.1971112877223602 0.0980392157 0.0980392157 0.0980392157
v -0.98733476668411746 6.7803581880655521 -6.2957305525971945 0.0980392157 0.0980392157 0.0980392157
v -1.7885729957970167 6.9125209516756314 -5.1971112877223602 0.0980392157 0.0980392157 0.0980392157
v 1.1731600433148484 6.8241393393310146 -5.8933867700631737 0.0980392157 0.0980392157 0.0980392157
v -0.65785237859063872 6.691419129311031 6.3874602123554363 0.0980392157 0.0980392157 0.0980392157
v 0.29163479748433652 5.7108858027253646 7.6686446179351444 0.0980392157 0.0980392157 0.0980392157
v -1.9550999540221856 6.7473875529629153 7.8130142871470865 0.0980392157 0.0980392157 0.0980392157
v 1.4541010575378606 12.243944734261611 -4.3577257451799669 0.0980392157 0.0980392157 0.0980392157
v 2.9231043550124456 11.446720734459639 -4.2422223572325279 0.0980392157 0.0980392157 0.0980392157
v -2.591174448310289 11.72705391967928 -4.3064591695743983 0.0980392157 0.0980392157 0.0980392157
v 0.0050852998077663969 9.7720512855174455 -5.1846993715176319 0.0980392157 0.0980392157 0.0980392157
v 2.9231043550124456 11.446720734459639 -4.2422223572325279 0.0980392157 0.0980392157 0.0980392157
v 2.0158672895338299 9.3579406913628258 -4.9504862139405361 0.0980392157 0.0980392157 0.0980392157
v 0.0050852998077663969 9.7720512855174455 -5.1846993715176319 0.0980392157 0.0980392157 0.0980392157
v 0.12704500036487543 9.5195424308378982 -6.2053281290343643 0.0980392157 0.0980392157 0.0980392157
v 0.28846814346478733 10.219736209481622 -7.8413446493083905 0.0980392157 0.0980392157 0.0980392157
v -1.5775430585267494 9.7103083502575238 -7.7689760119671636 0.0980392157 0.0980392157 0.0980392157
v 0.91467158167291895 6.9575408082455041 9.4674892207657493 0.0980392157 0.0980392157 0.0980392157
v 1.3218042670732579 8.5926295372529786 9.3773008124259061 0.0980392157 0.0980392157 0.0980392157
v -0.72401640082610186 9.4413347763830906 9.4149348665341339 0.0980392157 0.0980392157 0.0980392157
v -0.64926334236407435 6.6013699371811967 -9.3687759585300459 0.0980392157 0.0980392157 0.0980392157
v 1.9460753748496049 6.5327756170851883 -7.5850033096453524 0.0980392157 0.0980392157 0.0980392157
v -0.98733476668411746 6.7803581880655521 -6.2957305525971945 0.0980392157 0.0980392157 0.0980392157
v 2.1848506211641658 5.714306278794183 -4.5808366383907151 0.0980392157 0.0980392157 0.0980392157
v 1.4541010575378606 12.243944734261611 -4.3577257451799669 0.0980392157 0.0980392157 0.0980392157
v 0.28846814346478733 10.219736209481622 -7.8413446493083905 0.0980392157 0.0980392157 0.0980392157
v 0.12704500036487543 9.5195424308378982 -6.2053281290343643 0.0980392157 0.0980392157 0.0980392157
v 1.8230837596186957 9.2800375684400898 -7.7875559371153322 0.0980392157 0.0980392157 0.0980392157
v 1.8230837596186957 9.2800375684400898 -7.7875559371153322 0.0980392157 0.0980392157 0.0980392157
v 1.8995909368928459 9.1653529180463629 7.7547699083606867 0.0980392157 0.0980392157 0.0980392157
v 1.0826929826087488 9.3307130309309212 6.1715719036934873 0.0980392157 0.0980392157 0.0980392157
v -0.72401640082610186 9.4413347763830906 9.4149348665341339 0.0980392157 0.0980392157 0.0980392157
v 1.0878643889130299 7.1103965439398156 -9.4848398316794462 0.0980392157 0.0980392157 0.0980392157
v 0.58084996591457871 6.3701700951053315 5.3479890628691793 0.0980392157 0.0980392157 0.0980392157
v 1.1781080284206851 7.0679853064266052 6.3158579150948038 0.0980392157 0.0980392157 0.0980392157
v -0.65785237859063872 6.691419129311031 6.3874602123554363 0.0980392157 0.0980392157 0.0980392157
v 2.0438716581354437 12.001673397762605 4.2679261687443173 0.0980392157 0.0980392157 0.0980392157
v 1.1885797105028071 8.8299591584455293 -6.1035843404269121 0.0980392157 0.0980392157 0.0980392157
v 0.0050852998077663969 9.7720512855174455 -5.1846993715176319 0.0980392157 0.0980392157 0.0980392157
v 2.0158672895338299 9.3579406913628258 -4.9504862139405361 0.0980392157 0.0980392157 0.0980392157
v 1.1885797105028071 8.8299591584455293 -6.1035843404269121 0.0980392157 0.0980392157 0.0980392157
v 0.12704500036487543 9.5195424308378982 -6.2053281290343643 0.0980392157 0.0980392157 0.0980392157
v 0.0050852998077663969 9.7720512855174455 -5.1846993715176319 0.0980392157 0.0980392157 0.0980392157
v 1.1885797105028071 8.8299591584455293 -6.1035843404269121 0.0980392157 0.0980392157 0.0980392157
v 1.8230837596186957 9.2800375684400898 -7.7875559371153322 0.0980392157 0.0980392157 0.0980392157
v 0.12704500036487543 9.5195424308378982 -6.2053281290343643 0.0980392157 0.0980392157 0.0980392157
v 3.8116150475099069 7.4024172032950171 4.5164747362970488 0.0980392157 0.0980392157 0.0980392157
v 2.0438716581354437 12.001673397762605 4.2679261687443173 0.0980392157 0.0980392157 0.0980392157
v 1.3775505314525505 9.7876466455577003 5.1011649558200238 0.0980392157 0.0980392157 0.0980392157
v 1.3218042670732579 8.5926295372529786 9.3773008124259061 0.0980392157 0.0980392157 0.0980392157
v 1.8995909368928459 9.1653529180463629 7.7547699083606867 0.0980392157 0.0980392157 0.0980392157
v -0.72401640082610186 9.4413347763830906 9.4149348665341339 0.0980392157 0.0980392157 0.0980392157
v 2.0107026148500604 6.8857040455389926 7.6082730297558561 0.0980392157 0.0980392157 0.0980392157
v -0.65785237859063872 6.691419129311031 6.3874602123554363 0.0980392157 0.0980392157 0.0980392157
v 1.1781080284206851 7.0679853064266052 6.3158579150948038 0.0980392157 0.0980392157 0.0980392157
v 2.0107026148500604 6.8857040455389926 7.6082730297558561 0.0980392157 0.0980392157 0.0980392157
v 2.0143780994667413 7.1876986256874913 4.9378580739634703 0.0980392157 0.0980392157 0.0980392157
v 1.1781080284206851 7.0679853064266052 6.3158579150948038 0.0980392157 0.0980392157 0.0980392157
v 0.58084996591457871 6.3701700951053315 5.3479890628691793 0.0980392157 0.0980392157 0.0980392157
v 0.29163479748433652 5.7108858027253646 7.6686446179351444 0.0980392157 0.0980392157 0.0980392157
v 2.0107026148500604 6.8857040455389926 7.6082730297558561 0.0980392157 0.0980392157 0.0980392157
v 0.91467158167291895 6.9575408082455041 9.4674892207657493 0.0980392157 0.0980392157 0.0980392157
v 2.9231043550124456 11.446720734459639 -4.2422223572325279 0.0980392157 0.0980392157 0.0980392157
v 1.9460753748496049 6.5327756170851883 -7.5850033096453524 0.0980392157 0.0980392157 0.0980392157
v 1.8230837596186957 9.2800375684400898 -7.7875559371153322 0.0980392157 0.0980392157 0.0980392157
v 1.1885797105028071 8.8299591584455293 -6.1035843404269121 0.0980392157 0.0980392157 0.0980392157
v 1.1731600433148484 6.8241393393310146 -5.8933867700631737 0.0980392157 0.0980392157 0.0980392157
v 1.9460753748496049 6.5327756170851883 -7.5850033096453524 0.0980392157 0.0980392157 0.0980392157
v 1.0878643889130299 7.1103965439398156 -9.4848398316794462 0.0980392157 0.0980392157 0.0980392157
v 1.1945250157944391 8.7288118919996744 -9.4607817853704166 0.0980392157 0.0980392157 0.0980392157
v 1.1731600433148484 6.8241393393310146 -5.8933867700631737 0.0980392157 0.0980392157 0.0980392157
v 2.0158672895338299 9.3579406913628258 -4.9504862139405361 0.0980392157 0.0980392157 0.0980392157
v 2.0107026148500604 6.8857040455389926 7.6082730297558561 0.0980392157 0.0980392157 0.0980392157
v 1.1781080284206851 7.0679853064266052 6.3158579150948038 0.0980392157 0.0980392157 0.0980392157
v 1.0826929826087488 9.3307130309309212 6.1715719036934873 0.0980392157 0.0980392157 0.0980392157
v 2.0143780994667413 7.1876986256874913 4.9378580739634703 0.0980392157 0.0980392157 0.0980392157
v 1.3775505314525505 9.7876466455577003 5.1011649558200238 0.0980392157 0.0980392157 0.0980392157
v 1.0826929826087488 9.3307130309309212 6.1715719036934873 0.0980392157 0.0980392157 0.0980392157
v 2.0143780994667413 7.1876986256874913 4.9378580739634703 0.0980392157 0.0980392157 0.0980392157
v 3.8116150475099069 7.4024172032950171 4.5164747362970488 0.0980392157 0.0980392157 0.0980392157
v 1.3775505314525505 9.7876466455577003 5.1011649558200238 0.0980392157 0.0980392157 0.0980392157
v 1.3218042670732579 8.5926295372529786 9.3773008124259061 0.0980392157 0.0980392157 0.0980392157
v 2.0107026148500604 6.8857040455389926 7.6082730297558561 0.0980392157 0.0980392157 0.0980392157
v 1.8995909368928459 9.1653529180463629 7.7547699083606867 0.0980392157 0.0980392157 0.0980392157
v 0.91467158167291895 6.9575408082455041 9.4674892207657493 0.0980392157 0.0980392157 0.0980392157
v 3.8116150475099069 7.4024172032950171 4.5164747362970488 0.0980392157 0.0980392157 0.0980392157
v 0.58084996591457871 6.3701700951053315 5.3479890628691793 0.0980392157 0.0980392157 0.0980392157
v 2.0438716581354437 12.001673397762605 4.2679261687443173 0.0980392157 0.0980392157 0.0980392157
v 3.3955306859097245 10.9922447122402 4.0041802528052672 0.0980392157 0.0980392157 0.0980392157
v 2.9231043550124456 11.446720734459639 -4.2422223572325279 0.0980392157 0.0980392157 0.0980392157
v 4.4199722922764808 9.2758739555810639 -4.1657659279349222 0.0980392157 0.0980392157 0.0980392157
v 4.4011574595380738 9.0748702348160339 4.3213851166517916 0.0980392157 0.0980392157 0.0980392157
v 3.3955306859097245 10.9922447122402 4.0041802528052672 0.0980392157 0.0980392157 0.0980392157
v 2.0438716581354437 12.001673397762605 4.2679261687443173 0.0980392157 0.0980392157 0.0980392157
v 4.4011574595380738 9.0748702348160339 4.3213851166517916 0.0980392157 0.0980392157 0.0980392157
v 4.4199722922764808 9.2758739555810639 -4.1657659279349222 0.0980392157 0.0980392157 0.0980392157
v 4.4011574595380738 9.0748702348160339 4.3213851166517916 0.0980392157 0.0980392157 0.0980392157
v 4.5092733084704291 3.173889043285365 2.0678050917704169 0.0980392157 0.0980392157 0.0980392157
v 4.470996847304133 5.8110271024111828 -4.3235577342902554 0.0980392157 0.0980392157 0.0980392157
v 4.5051499779133852 5.5186809461785487 4.0149908289170293 0.0980392157 0.0980392157 0.0980392157
v 4.4981483471516377 3.752988024235425 -0.79353672015983101 0.0980392157 0.0980392157 0.0980392157
v 4.3271939465679345 -0.59640459650010058 -4.4646883179142689 0.0980392157 0.0980392157 0.0980392157
v 4.6941853101342197 1.4832114237364307 -2.3456654961490471 0.0980392157 0.0980392157 0.0980392157
v 4.470996847304133 5.8110271024111828 -4.3235577342902554 0.0980392157 0.0980392157 0.0980392157
v 4.4199722922764808 9.2758739555810639 -4.1657659279349222 0.0980392157 0.0980392157 0.0980392157
v 4.3271939465679345 -0.59640459650010058 -4.4646883179142689 0.0980392157 0.0980392157 0.0980392157
v 3.99160080625323 -2.7059980611118313 -3.624070869794894 0.0980392157 0.0980392157 0.0980392157
v 5.0119553184485124 -0.40819457352359001 -1.5763179477591316 0.0980392157 0.0980392157 0.0980392157
v 4.3665923848477437 -3.8816926379292278 -2.3318390676281875 0.0980392157 0.0980392157 0.0980392157
v 4.3271939465679345 -0.59640459650010058 -4.4646883179142689 0.0980392157 0.0980392157 0.0980392157
v 5.0226934035585726 1.2549665068540323 -0.93014690772161857 0.0980392157 0.0980392157 0.0980392157
v 4.9400478743218557 1.4976501391334311 0.36594266094243183 0.0980392157 0.0980392157 0.0980392157
v 4.9400478743218557 1.4976501391334311 0.36594266094243183 0.0980392157 0.0980392157 0.0980392157
v 4.9813621653304629 0.40417906456074515 1.5619576774567669 0.0980392157 0.0980392157 0.0980392157
v 4.3228074577731501 -0.20753358923377618 4.4702849774633497 0.0980392157 0.0980392157 0.0980392157
v 4.3228074577731501 -0.20753358923377618 4.4702849774633497 0.0980392157 0.0980392157 0.0980392157
v 4.3017405377466282 -1.7412292062096899 4.1554762493921968 0.0980392157 0.0980392157 0.0980392157
v 4.9813621653304629 0.40417906456074515 1.5619576774567669 0.0980392157 0.0980392157 0.0980392157
v 5.0398165561888355 -1.2444697013611945 0.96316791949212432 0.0980392157 0.0980392157 0.0980392157
v 4.2843059004217254 -4.223142015457265 1.5418495941725805 0.0980392157 0.0980392157 0.0980392157
v 5.0398165561888355 -1.2444697013611945 0.96316791949212432 0.0980392157 0.0980392157 0.0980392157
v 4.9913401942593945 -1.4594025179218375 -0.35282278202851247 0.0980392157 0.0980392157 0.0980392157
v 4.3665923848477437 -3.8816926379292278 -2.3318390676281875 0.0980392157 0.0980392157 0.0980392157
v 4.9913401942593945 -1.4594025179218375 -0.35282278202851247 0.0980392157 0.0980392157 0.0980392157
v 3.953087319648215 -3.3223175257797646 3.1168978868733399 0.0980392157 0.0980392157 0.0980392157
v 4.3017405377466282 -1.7412292062096899 4.1554762493921968 0.0980392157 0.0980392157 0.0980392157
v -4.2711050216076645 -4.294162115084875 -1.3495231302436859 0.0980392157 0.0980392157 0.0980392157
v -0.83680610201939931 9.2195553447243164 6.0955307954741125 0.0980392157 0.0980392157 0.0980392157
v -1.9278111154349915 9.0800533837209425 7.791017679660138 0.0980392157 0.0980392157 0.0980392157
v -1.3236274698985961 8.6825939817827749 -5.9631003892567316 0.0980392157 0.0980392157 0.0980392157
v -1.7885729957970167 6.9125209516756314 -5.1971112877223602 0.0980392157 0.0980392157 0.0980392157
v -1.9704303504518315 9.7035267211206335 -4.7742429660473773 0.0980392157 0.0980392157 0.0980392157
v -1.0139720590815928 9.2657423978189914 -9.418450513815511 0.0980392157 0.0980392157 0.0980392157
v -2.0208911135488044 7.2894742501454761 -7.7290726673087464 0.0980392157 0.0980392157 0.0980392157
v -1.5775430585267494 9.7103083502575238 -7.7689760119671636 0.0980392157 0.0980392157 0.0980392157
v -1.9550999540221856 6.7473875529629153 7.8130142871470865 0.0980392157 0.0980392157 0.0980392157
v -0.998663801839339 6.9295206131890517 9.5793415461297506 0.0980392157 0.0980392157 0.0980392157
v -1.9550999540221856 6.7473875529629153 7.8130142871470865 0.0980392157 0.0980392157 0.0980392157
v 0.29163479748433652 5.7108858027253646 7.6686446179351444 0.0980392157 0.0980392157 0.0980392157
v -0.83680610201939931 9.2195553447243164 6.0955307954741125 0.0980392157 0.0980392157 0.0980392157
v 1.9460753748496049 6.5327756170851883 -7.5850033096453524 0.0980392157 0.0980392157 0.0980392157
v 1.1945250157944391 8.7288118919996744 -9.4607817853704166 0.0980392157 0.0980392157 0.0980392157
v 1.8230837596186957 9.2800375684400898 -7.7875559371153322 0.0980392157 0.0980392157 0.0980392157
v 1.8995909368928459 9.1653529180463629 7.7547699083606867 0.0980392157 0.0980392157 0.0980392157
v 4.3271939465679345 -0.59640459650010058 -4.4646883179142689 0.0980392157 0.0980392157 0.0980392157
v 3.9710460193126074 -4.5262900441986647 -0.32705973901456104 0.0980392157 0.0980392157 0.0980392157
v -3.9150316904419142 8.4349909514263075 -4.4707015161464794 0.0980392157 0.0980392157 0.0980392157
v -1.7885729957970167 6.9125209516756314 -5.1971112877223602 0.0980392157 0.0980392157 0.0980392157
v -4.6978239400219248 9.5504284070704095 -3.4088513102531866 0.0980392157 0.0980392157 0.0980392157
v -4.1469424353468796 9.7483337585861403 4.2527882940939863 0.0980392157 0.0980392157 0.0980392157
v -4.2711050216076645 -4.294162115084875 -1.3495231302436859 0.0980392157 0.0980392157 0.0980392157
v 4.4011574595380738 9.0748702348160339 4.3213851166517916 0.0980392157 0.0980392157 0.0980392157
v -2.0208911135488044 7.2894742501454761 -7.7290726673087464 0.0980392157 0.0980392157 0.0980392157
v 0.91467158167291895 6.9575408082455041 9.4674892207657493 0.0980392157 0.0980392157 0.0980392157
v -0.998663801839339 6.9295206131890517 9.5793415461297506 0.0980392157 0.0980392157 0.0980392157
v 0.91467158167291895 6.9575408082455041 9.4674892207657493 0.0980392157 0.0980392157 0.0980392157
v 2.0158672895338299 9.3579406913628258 -4.9504862139405361 0.0980392157 0.0980392157 0.0980392157
v 1.1731600433148484 6.8241393393310146 -5.8933867700631737 0.0980392157 0.0980392157 0.0980392157
v 1.1885797105028071 8.8299591584455293 -6.1035843404269121 0.0980392157 0.0980392157 0.0980392157
v -3.7870969470248412 10.113045068408153 -4.3356638617829963 0.0980392157 0.0980392157 0.0980392157
v -4.6978239400219248 9.5504284070704095 -3.4088513102531866 0.0980392157 0.0980392157 0.0980392157
v -4.4873480530444043 1.3529220188739277 3.7722015328089165 0.0980392157 0.0980392157 0.0980392157
v 3.8116150475099069 7.4024172032950171 4.5164747362970488 0.0980392157 0.0980392157 0.0980392157
v 5.0119553184485124 -0.40819457352359001 -1.5763179477591316 0.0980392157 0.0980392157 0.0980392157
v -5.0243854936733463 1.1070023783711278 -1.2721310405581789 0.0980392157 0.0980392157 0.0980392157
v -4.9866102108258321 -0.79122592825959281 -1.3466146676436672 0.0980392157 0.0980392157 0.0980392157
v 1.1781080284206851 7.0679853064266052 6.3158579150948038 0.0980392157 0.0980392157 0.0980392157
v 5.0119553184485124 -0.40819457352359001 -1.5763179477591316 0.0980392157 0.0980392157 0.0980392157
v 4.9913401942593945 -1.4594025179218375 -0.35282278202851247 0.0980392157 0.0980392157 0.0980392157
v -4.9895701850367713 0.52730092238401971 1.4858030711776615 0.0980392157 0.0980392157 0.0980392157
v 4.9813621653304629 0.40417906456074515 1.5619576774567669 0.0980392157 0.0980392157 0.0980392157
v 1.1731600433148484 6.8241393393310146 -5.8933867700631737 0.0980392157 0.0980392157 0.0980392157
v -5.5656034196699391 9.460643862448725 -3.4302303858671137 0.0980392157 0.0980392157 0.0980392157
v 4.9913401942593945 -1.4594025179218375 -0.35282278202851247 0.0980392157 0.0980392157 0.0980392157
v 5.0226934035585726 1.2549665068540323 -0.93014690772161857 0.0980392157 0.0980392157 0.0980392157
v 4.9913401942593945 -1.4594025179218375 -0.35282278202851247 0.0980392157 0.0980392157 0.0980392157
v 1.1945250157944391 8.7288118919996744 -9.4607817853704166 0.0980392157 0.0980392157 0.0980392157
vn 0.0083775771781802177 0.99750411510467529 0.07010979950428009
vn -0.20666831731796265 0.97556507587432861 -0.074572101235389709
vn -0.1961996853351593 0.97664499282836914 -0.087579637765884399
vn -0.98185944557189941 -0.18960754573345184 0.0010051437420770526
vn -0.99566537141799927 -0.092906482517719269 -0.0043462151661515236
vn -0.8598560094833374 0.50951415300369263 -0.032295748591423035
vn -0.4062848687171936 0.91131103038787842 -0.066669732332229614
vn -0.34278842806816101 0.93912374973297119 -0.023294804617762566
vn -0.8056710958480835 0.59218549728393555 0.014506054110825062
vn 0 0.90262579917907715 -0.43042618036270142
vn 0 0.90262579917907715 -0.43042618036270142
vn 0 0.90262579917907715 -0.43042618036270142
vn 0.024158846586942673 0.9995153546333313 0.019631624221801758
vn -0.068574495613574982 0.9969794750213623 -0.036461055278778076
vn -0.041263297200202942 0.99913233518600464 -0.0056533217430114746
vn -0.41849687695503235 -0.028779076412320137 -0.90776216983795166
vn -0.4085458517074585 0.045489668846130371 -0.91160351037979126
vn -0.69297319650650024 0.050865400582551956 -0.71916675567626953
vn -0.27680423855781555 -0.069330774247646332 0.95842194557189941
vn -0.65737760066986084 0.23518921434879303 0.71591949462890625
vn -0.44809579849243164 0.061188105493783951 0.89188909530639648
vn -0.44730982184410095 -0.024712113663554192 -0.89403760433197021
vn -0.54559516906738281 -0.83648198843002319 0.051223538815975189
vn -0.70273482799530029 -0.71143782138824463 -0.0044644428417086601
vn -0.64417171478271484 -0.75584101676940918 0.11724831163883209
vn -0.7393983006477356 -0.62479454278945923 0.25084242224693298
vn -0.99896901845932007 -0.017750440165400505 -0.041783545166254044
vn -0.9951748251914978 -0.096872515976428986 -0.015579937025904655
vn -0.90275156497955322 0.27420136332511902 0.33144113421440125
vn -0.74412161111831665 0.0016472548013553023 -0.66804212331771851
vn -0.7398374080657959 -0.0071102101355791092 -0.6727481484413147
vn -0.72570747137069702 -0.011340482160449028 -0.68790990114212036
vn -0.99997872114181519 -0.0041322489269077778 0.0050507532432675362
vn -0.99324291944503784 0.11536533385515213 -0.012624958530068398
vn -0.99532824754714966 -0.096342265605926514 0.0063151069916784763
vn -0.99938690662384033 -0.033142715692520142 0.011283685453236103
vn -0.057434126734733582 0.029466673731803894 -0.99791431427001953
vn -0.051685843616724014 -0.096891798079013824 -0.99395197629928589
vn -0.013119767419993877 -0.012203443795442581 -0.99983948469161987
vn -0.71378761529922485 0.01029838714748621 0.70028644800186157
vn -0.66415506601333618 -0.039776861667633057 0.74653589725494385
vn -0.83425432443618774 0.009940367192029953 0.55129021406173706
vn -0.98693233728408813 -0.035302277654409409 -0.15722072124481201
vn 0.037766139954328537 -0.11560460180044174 0.99257707595825195
vn -0.0079222293570637703 0.062799714505672455 0.99799472093582153
vn -0.018975721672177315 0.045325547456741333 0.99879205226898193
vn -0.68676573038101196 -0.038544677197933197 0.72585618495941162
vn 0.021525351330637932 -0.012532568536698818 0.99968975782394409
vn -0.093346685171127319 -0.18765066564083099 0.97779017686843872
vn 0.036134306341409683 -0.092707119882106781 0.99503755569458008
vn 0.031013850122690201 0.034586578607559204 0.99892038106918335
vn -0.97093689441680908 0.0039947978220880032 -0.23930233716964722
vn -0.99937933683395386 -0.012679033912718296 0.032866451889276505
vn -0.99253034591674805 0.0062218867242336273 0.12183930724859238
vn -0.99440193176269531 0.10400568693876266 -0.018643245100975037
vn -0.99818027019500732 0.057881280779838562 -0.016907947137951851
vn -0.99150103330612183 0.12391266971826553 -0.039639972150325775
vn -0.78937077522277832 -0.61013996601104736 -0.067992798984050751
vn -0.97449398040771484 -0.15237501263618469 0.16475234925746918
vn -0.97664123773574829 0.20281791687011719 0.070970088243484497
vn -0.99584341049194336 0.080841653048992157 0.041959043592214584
vn -0.96187889575958252 0.19316698610782623 -0.19358585774898529
vn -0.99817126989364624 -0.035866130143404007 -0.048659078776836395
vn -0.98388659954071045 -0.094670690596103668 -0.15167289972305298
vn -0.62033969163894653 -0.52386665344238281 -0.58373147249221802
vn -0.99619418382644653 -0.07600528746843338 -0.042665857821702957
vn -0.86522758007049561 -0.4846746027469635 0.12834236025810242
vn -0.85056847333908081 -0.48775672912597656 0.19653663039207458
vn -0.99959272146224976 -0.0048392973840236664 -0.028124742209911346
vn 5.1516508392523974E-07 0.99375283718109131 -0.11160307377576828
vn -1.8957209135805897E-07 0.99375361204147339 -0.11159651726484299
vn 2.1558501828167209E-07 0.99375313520431519 -0.11160049587488174
vn 0 0.29727193713188171 -0.95479285717010498
vn 0 0.29727193713188171 -0.95479285717010498
vn 0 0.29727193713188171 -0.95479285717010498
vn 0 -0.97575938701629639 0.21884609758853912
vn 0 -0.97575938701629639 0.21884609758853912
vn 0 -0.97575938701629639 0.21884609758853912
vn 0 -0.44882157444953918 0.89362138509750366
vn 0 -0.44882157444953918 0.89362138509750366
vn 0 -0.44882157444953918 0.89362138509750366
vn -2.3151734751536424E-07 -0.79957199096679688 -0.60057026147842407
vn 4.191015818832966E-07 -0.79957491159439087 -0.60056638717651367
vn -3.4293744732849518E-08 -0.79957288503646851 -0.60056906938552856
vn -2.1305730513176968E-07 0.83672690391540527 0.54762035608291626
vn 2.3384220071420714E-07 0.83672970533370972 0.54761606454849243
vn -1.262452116179702E-07 0.83672839403152466 0.54761809110641479
vn 0.0015670619904994965 -0.37932923436164856 0.92526042461395264
vn 0.017004847526550293 -0.0067298873327672482 0.99983274936676025
vn -0.0034339041449129581 -0.32846894860267639 0.94450855255126953
vn 0.0085271093994379044 -0.71016520261764526 0.70398342609405518
vn -0.0032592425122857094 -0.86664736270904541 -0.49891054630279541
vn -0.0015346981817856431 -0.73063808679580688 -0.68276321887969971
vn 0.041654009371995926 -0.60984289646148682 -0.7914268970489502
vn -0.00026447963318787515 -0.80824571847915649 0.58884531259536743
vn -9.2935351858614013E-07 -0.99443888664245605 0.10531517863273621
vn -8.993710798677057E-05 -0.93011099100112915 0.36727848649024963
vn -0.56829214096069336 0.82279115915298462 -0.0076625151559710503
vn -0.85026991367340088 0.52634680271148682 0.00038521617534570396
vn -0.43077924847602844 0.90245258808135986 0.0029288548976182938
vn -0.22845768928527832 0.10817142575979233 -0.96752572059631348
vn -0.051786575466394424 0.097136497497558594 -0.9939228892326355
vn -0.15962670743465424 0.63011318445205688 -0.75991886854171753
vn 0.1469443142414093 -0.12952524423599243 -0.98062765598297119
vn 0.062892884016036987 0.024999748915433884 -0.99770712852478027
vn -0.041523423045873642 0.034526273608207703 -0.99854081869125366
vn 0.28372979164123535 0.061356641352176666 -0.95693928003311157
vn 0.01904524490237236 -0.10040003061294556 -0.99476486444473267
vn -0.11483211070299149 -0.12204247713088989 -0.98585963249206543
vn -0.46794438362121582 -0.10031438618898392 -0.87804615497589111
vn -0.045747388154268265 0.093250878155231476 -0.9945911169052124
vn -0.18397164344787598 0.49855044484138489 0.84711384773254395
vn -0.64345723390579224 0.36321216821670532 0.67382466793060303
vn -0.49885392189025879 0.51574027538299561 0.69653189182281494
vn -0.30648055672645569 -0.026475889608263969 0.95150864124298096
vn 0.08594965934753418 0.1693129688501358 0.9818074107170105
vn -0.44323986768722534 0.13092973828315735 0.88678961992263794
vn -0.37003403902053833 -0.36309662461280823 0.85512316226959229
vn -0.02909461036324501 -0.47094988822937012 0.88168007135391235
vn -0.42412015795707703 -0.59409588575363159 0.68349993228912354
vn 0.17545311152935028 -0.2644881010055542 0.94829440116882324
vn 0.11002395302057266 0.052748221904039383 0.99252825975418091
vn 0.76799637079238892 0.0054680639877915382 0.64043080806732178
vn 0.69377106428146362 0.0093129528686404228 0.7201353907585144
vn 0.73118120431900024 -0.00062837888253852725 0.68218302726745605
vn -0.0019263750873506069 -0.42073503136634827 -0.90718156099319458
vn 0.70262396335601807 -0.62144023180007935 -0.34660014510154724
vn 0.69668644666671753 -0.67340028285980225 0.24730564653873444
vn 0.70192652940750122 -0.70916211605072021 -0.066243499517440796
vn 0.011321559548377991 0.36464899778366089 0.93107622861862183
vn -0.073655992746353149 -0.09016263484954834 0.99319964647293091
vn 0.0386466383934021 0.41832807660102844 0.90747344493865967
vn 0.008688049390912056 0.999958336353302 0.0028097261674702168
vn -0.085493139922618866 0.99633610248565674 0.0023024368565529585
vn -0.7828986644744873 0 -0.62214922904968262
vn -0.7828986644744873 0 -0.62214922904968262
vn -0.7828986644744873 0 -0.62214922904968262
vn -0.044099144637584686 0.10708098858594894 0.99327182769775391
vn 0.056420877575874329 -0.021830365061759949 0.99816840887069702
vn 0.066191241145133972 -0.31395086646080017 0.94712913036346436
vn 0.11132270097732544 0.53458034992218018 0.83775359392166138
vn -0.24138401448726654 0.38914123177528381 0.88898980617523193
vn 0 0.93698543310165405 -0.34936836361885071
vn 0 0.93698543310165405 -0.34936836361885071
vn 0 0.93698543310165405 -0.34936836361885071
vn -0.52179735898971558 0.53151947259902954 -0.66724401712417603
vn -0.52179735898971558 0.53151947259902954 -0.66724401712417603
vn -0.52179735898971558 0.53151947259902954 -0.66724401712417603
vn -0.16280844807624817 0.9536774754524231 0.25296765565872192
vn -0.16280844807624817 0.9536774754524231 0.25296765565872192
vn -0.16280844807624817 0.9536774754524231 0.25296765565872192
vn -0.88440227508544922 0.18553267419338226 0.42826420068740845
vn -0.90091907978057861 -0.04896887019276619 0.43121549487113953
vn -0.92209261655807495 0.070446409285068512 0.38050293922424316
vn -0.92220848798751831 -0.03268040344119072 -0.3853096067905426
vn -0.92220848798751831 -0.03268040344119072 -0.3853096067905426
vn -0.92220848798751831 -0.03268040344119072 -0.3853096067905426
vn -0.77645516395568848 0 0.6301724910736084
vn -0.77645516395568848 0 0.6301724910736084
vn -0.77645516395568848 0 0.6301724910736084
vn -0.88178682327270508 0.12199439853429794 -0.45559781789779663
vn -0.88178682327270508 0.12199439853429794 -0.45559781789779663
vn -0.88178682327270508 0.12199439853429794 -0.45559781789779663
vn -0.6212923526763916 0.66323524713516235 -0.41727069020271301
vn -0.87535065412521362 0.16918939352035522 -0.45291957259178162
vn -0.84364265203475952 0.26734659075737 -0.46561026573181152
vn -0.81896519660949707 0 0.57384318113327026
vn -0.81896519660949707 0 0.57384318113327026
vn -0.81896519660949707 0 0.57384318113327026
vn -0.85925495624542236 -0.45295393466949463 0.23772604763507843
vn -0.70581269264221191 0.70138078927993774 -0.099466025829315186
vn -0.83554273843765259 -0.29373982548713684 0.46431156992912292
vn -0.98613399267196655 0.07751736044883728 0.14673396944999695
vn -0.96736288070678711 0.12350432574748993 0.22125953435897827
vn -0.91864854097366333 -0.044399630278348923 0.39257296919822693
vn -0.93302512168884277 -0.05106193944811821 -0.35616958141326904
vn -0.93302512168884277 -0.05106193944811821 -0.35616958141326904
vn -0.93302512168884277 -0.05106193944811821 -0.35616958141326904
vn -0.57380646467208862 -0.39387422800064087 0.71805936098098755
vn 0.19802139699459076 -0.90236711502075195 0.3827807605266571
vn 0.19802139699459076 -0.90236711502075195 0.3827807605266571
vn 0.19802139699459076 -0.90236711502075195 0.3827807605266571
vn -0.036554459482431412 0.71042329072952271 -0.70282465219497681
vn 0.22786596417427063 0.67822670936584473 -0.69863122701644897
vn -0.40025821328163147 0.58913314342498779 -0.70193696022033691
vn 0.1220957413315773 0.53724008798599243 -0.83454525470733643
vn -0.32218700647354126 0.39532124996185303 -0.86018407344818115
vn 0.08476228266954422 0.53551024198532104 -0.84026432037353516
vn 0.31944331526756287 0.94740599393844604 -0.019438579678535461
vn 0.42100429534912109 0.90677660703659058 -0.022618513554334641
vn -0.19872567057609558 0.98005479574203491 0.00080740486737340689
vn 0.010001028887927532 -0.021858034655451775 -0.99971103668212891
vn -0.011462141759693623 -0.064956717193126678 -0.99782222509384155
vn -0.038542039692401886 0.10510284453630447 -0.99371421337127686
vn 0.12282033264636993 0.58779257535934448 0.79963433742523193
vn 0.26714101433753967 0.89860057830810547 0.34806996583938599
vn 0.26714101433753967 0.89860057830810547 0.34806996583938599
vn 0.26714101433753967 0.89860057830810547 0.34806996583938599
vn -0.84610509872436523 -0.4053676426410675 0.34609714150428772
vn -0.84403020143508911 -0.49880984425544739 0.19698157906532288
vn -0.92155915498733521 -0.38795095682144165 0.01492492388933897
vn -0.42300322651863098 -0.90550911426544189 -0.03348986804485321
vn -0.39212468266487122 -0.91965371370315552 0.02180170826613903
vn -0.51753026247024536 -0.85551726818084717 0.015896135941147804
vn -0.37764966487884521 -0.41897821426391602 -0.82573479413986206
vn 0.18493169546127319 -0.63419139385223389 -0.75073403120040894
vn -0.051513724029064178 -0.68449777364730835 -0.72719264030456543
vn 0.045587744563817978 -0.68546086549758911 -0.7266809344291687
vn -0.50174981355667114 -0.51288378238677979 -0.69656109809875488
vn 0.012320287525653839 0.019165286794304848 -0.99974042177200317
vn 0.018726296722888947 0.056024223566055298 -0.99825376272201538
vn -0.12449291348457336 0.20559677481651306 -0.97068607807159424
vn -0.084684252738952637 0.3966958224773407 -0.91403555870056152
vn 0.30959731340408325 0.58052223920822144 -0.75308924913406372
vn 0.24926811456680298 0.33222025632858276 -0.90966755151748657
vn 0.0013986608246341348 0.058250501751899719 -0.99830102920532227
vn -0.069544732570648193 0.70775467157363892 0.70302695035934448
vn 0.043783336877822876 0.72510349750518799 0.68724662065505981
vn -0.42355269193649292 0.56964284181594849 0.70435088872909546
vn 0.012895259074866772 -0.0074754580855369568 0.99988889694213867
vn 0.021358726546168327 -0.017009411007165909 0.99962717294692993
vn -0.079317547380924225 0.074256286025047302 0.9940798282623291
vn -0.083377018570899963 -0.99569046497344971 -0.040604598820209503
vn -0.18070906400680542 -0.98319506645202637 -0.025917164981365204
vn 0.092293582856655121 -0.99570226669311523 0.0076762298122048378
vn 0.25137242674827576 -0.32343977689743042 -0.91224920749664307
vn 0.32542130351066589 0.94556564092636108 0.002567181596532464
vn 0.10737569630146027 0.91264408826828003 0.39439985156059265
vn 0.18027940392494202 0.89068430662155151 0.41734972596168518
vn 0.48905155062675476 0.78633767366409302 0.37749385833740234
vn 0.3109096884727478 0.48699551820755005 -0.81619268655776978
vn 0.24897263944149017 0.96839672327041626 -0.014844328165054321
vn 0.34416896104812622 0.93888598680496216 -0.0063888225704431534
vn -0.29537677764892578 0.95521193742752075 0.017963076010346413
vn -0.038350962102413177 -0.93738609552383423 -0.34617418050765991
vn 0.35165432095527649 -0.79415124654769897 0.49564406275749207
vn 0.35165432095527649 -0.79415124654769897 0.49564406275749207
vn 0.35165432095527649 -0.79415124654769897 0.49564406275749207
vn 0.46272698044776917 0.8863910436630249 -0.013951370492577553
vn 0.017893305048346519 0.83564066886901855 -0.54898494482040405
vn 0.017893305048346519 0.83564066886901855 -0.54898494482040405
vn 0.017893305048346519 0.83564066886901855 -0.54898494482040405
vn 0.65684854984283447 0.6370883584022522 -0.40332165360450745
vn 0.65684854984283447 0.6370883584022522 -0.40332165360450745
vn 0.65684854984283447 0.6370883584022522 -0.40332165360450745
vn 0.66837823390960693 0.64827120304107666 0.36471223831176758
vn 0.66837823390960693 0.64827120304107666 0.36471223831176758
vn 0.66837823390960693 0.64827120304107666 0.36471223831176758
vn 0.74621099233627319 -0.022959602996706963 0.66531342267990112
vn 0.63225787878036499 0.022234978154301643 0.77443885803222656
vn 0.60709488391876221 0.03131982684135437 0.79401189088821411
vn 0.57421433925628662 0.53950017690658569 0.61580634117126465
vn 0.6236189603805542 0.49663305282592773 0.60370111465454102
vn 0.30556309223175049 0.70916491746902466 0.63538676500320435
vn 0.024396158754825592 -0.96959114074707031 -0.24351151287555695
vn 0.024396158754825592 -0.96959114074707031 -0.24351151287555695
vn 0.024396158754825592 -0.96959114074707031 -0.24351151287555695
vn 0.55519270896911621 -0.41214516758918762 -0.72242468595504761
vn -0.076578721404075623 -0.9928429126739502 0.091644197702407837
vn -0.076578721404075623 -0.9928429126739502 0.091644197702407837
vn -0.076578721404075623 -0.9928429126739502 0.091644197702407837
vn 0.25279167294502258 -0.55467355251312256 0.79273802042007446
vn 0.45926788449287415 -0.3568384051322937 0.81347364187240601
vn 0.3936258852481842 -0.42713665962219238 0.8140103816986084
vn 0.63305991888046265 0.77398413419723511 -0.013551454991102219
vn 0.86467212438583374 -0.11251359432935715 0.48957410454750061
vn 0.88904982805252075 0.15259766578674316 0.43162989616394043
vn 0.91720205545425415 0.11101014912128448 0.38264495134353638
vn 0.88152092695236206 -0.2115100771188736 0.42211881279945374
vn 0.92084401845932007 -0.0094198370352387428 -0.38981735706329346
vn 0.92084401845932007 -0.0094198370352387428 -0.38981735706329346
vn 0.92084401845932007 -0.0094198370352387428 -0.38981735706329346
vn 0.3236425518989563 -0.31703275442123413 -0.89148509502410889
vn 0.86421078443527222 -0.11550302803516388 -0.48969250917434692
vn 0.88004153966903687 -0.00022291061759460717 -0.47489666938781738
vn 0.8799293041229248 4.2137857235502452E-05 -0.4751046895980835
vn 0.87973570823669434 0.00049861695151776075 -0.47546276450157166
vn 0.90211963653564453 -0.0090115293860435486 0.43139183521270752
vn 0.88476711511611938 -0.032914895564317703 0.46486964821815491
vn 0.85917425155639648 -0.061260540038347244 0.50800275802612305
vn 0.1023605614900589 -0.07829497754573822 0.99166131019592285
vn 0.24997076392173767 0.038469418883323669 0.96748888492584229
vn 0.31146293878555298 0.078080110251903534 0.94704502820968628
vn 0.97337925434112549 0.21564890444278717 0.077642939984798431
vn 0.83684676885604858 -0.22135430574417114 0.50068926811218262
vn 0.74819064140319824 0.53276097774505615 0.39544463157653809
vn 0.67735958099365234 -0.65171986818313599 0.34124064445495605
vn -0.10207191854715347 -0.22757270932197571 0.96839660406112671
vn 0.47961446642875671 0.014245976693928242 0.87736368179321289
vn 0.47222769260406494 0.88141477108001709 -0.010438449680805206
vn 0.75799351930618286 0.65224194526672363 0.0051248492673039436
vn -0.0055124112404882908 0.030540851876139641 -0.99951833486557007
vn -0.069539353251457214 -0.025394203141331673 -0.99725592136383057
vn 0.54929494857788086 0.34128853678703308 0.76275634765625
vn 0.46427810192108154 0.4176468551158905 0.78103584051132202
vn 0.34122440218925476 0.60879731178283691 0.71619254350662231
vn 0.98083990812301636 0.19480924308300018 -0.0015456287655979395
vn 0.96017670631408691 0.27933681011199951 0.0056245881132781506
vn 0.70535033941268921 0.073948487639427185 0.70499110221862793
vn 0.99423396587371826 0.094614282250404358 0.050466932356357574
vn 0.99923330545425415 -0.028772458434104919 -0.026549810543656349
vn 0.9990498423576355 -0.038954462856054306 0.019543323665857315
vn 0.99097609519958496 0.12411747127771378 -0.050609041005373001
vn 0.99513369798660278 0.040284093469381332 -0.0899229496717453
vn 0.92376255989074707 0.19876016676425934 -0.32734864950180054
vn 0.99990236759185791 -0.013970897532999516 -0.0002113103837473318
vn 0.99189412593841553 0.12698403000831604 -0.0045900396071374416
vn 0.68587088584899902 -0.032762575894594193 -0.7269853949546814
vn 0.69918882846832275 -0.44581252336502075 -0.55891513824462891
vn 0.97564631700515747 -0.055546198040246964 -0.21220012009143829
vn 0.98015004396438599 -0.15878725051879883 -0.11871203035116196
vn 0.99883800745010376 -0.014393306337296963 0.045994624495506287
vn 0.9912261962890625 0.13207235932350159 -0.0052502802573144436
vn 0.96554923057556152 0.19929906725883484 0.16731581091880798
vn 0.91880106925964355 0.39056390523910522 0.057135451585054398
vn 0.97894704341888428 0.062679894268512726 0.19425222277641296
vn 0.99876499176025391 -0.030591730028390884 -0.039148591458797455
vn 0.91992896795272827 -0.00892613735049963 0.39198341965675354
vn 0.99911212921142578 0.035876993089914322 -0.022085322067141533
vn 0.99558699131011963 -0.0048065739683806896 0.093719810247421265
vn 0.97503697872161865 -0.12375280261039734 0.18435876071453094
vn 0.99631190299987793 -0.085550092160701752 -0.0066117299720644951
vn 0.98157483339309692 -0.15985457599163055 0.10467714816331863
vn 0.81031429767608643 -0.56725150346755981 0.14702557027339935
vn 0.99655091762542725 -0.076867692172527313 -0.03126651793718338
vn 0.96525126695632935 0.25985798239707947 -0.027636229991912842
vn 0.70476698875427246 -0.52479487657546997 0.47738221287727356
vn 0.70405954122543335 -0.28274554014205933 0.65142548084259033
vn -0.97106260061264038 -0.088317804038524628 -0.22189505398273468
vn 0.013876307755708694 0.99825102090835571 -0.057466559112071991
vn -0.070691905915737152 0.99596112966537476 -0.05535445362329483
vn -0.82994920015335083 0.12642800807952881 -0.54332339763641357
vn -0.92739695310592651 -0.031630810350179672 -0.37273907661437988
vn -0.8587607741355896 0.076881334185600281 -0.50657594203948975
vn -0.84608513116836548 0.173410564661026 -0.50405234098434448
vn -0.92618119716644287 0.018328625708818436 -0.37663310766220093
vn -0.87621968984603882 0.12434682250022888 -0.46559309959411621
vn -0.8888811469078064 -0.32503184676170349 -0.32286927103996277
vn -0.33056241273880005 -0.70478105545043945 0.62770390510559082
vn -0.49051430821418762 -0.75898188352584839 0.42818477749824524
vn 0.019869979470968246 -0.95249754190444946 0.3038974404335022
vn -0.52888745069503784 0.84839159250259399 0.022578014060854912
vn 0.86340081691741943 0.13725174963474274 -0.48549041152000427
vn 0.86747932434082031 0.13019068539142609 -0.48013541102409363
vn 0.86637639999389648 0.13211561739444733 -0.48159879446029663
vn 0.87987351417541504 0.00017371907597407699 -0.47520795464515686
vn -0.0098881116136908531 -0.16737380623817444 -0.98584389686584473
vn 2.8784679528826018E-08 -0.99899381399154663 -0.044848829507827759
vn -0.28694751858711243 0.095793828368186951 -0.9531446099281311
vn -0.012554950080811977 -0.013713380321860313 -0.99982714653015137
vn -0.91090101003646851 0.41223084926605225 -0.018028834834694862
vn -0.87644833326339722 0.48145005106925964 -0.0066450298763811588
vn -0.00034227545256726444 -0.94915294647216797 -0.31481516361236572
vn 0.40401539206504822 0.19650062918663025 0.89339745044708252
vn -0.28637567162513733 -0.95698374509811401 0.046595357358455658
vn 0.15744395554065704 -0.26536515355110168 0.95120590925216675
vn 0.00085363024845719337 -0.014815899543464184 0.99988985061645508
vn 0.4329240620136261 -0.68499946594238281 0.58596289157867432
vn 0.80839627981185913 0.12538595497608185 -0.57512938976287842
vn 0.93592959642410278 -0.17328014969825745 -0.30661013722419739
vn 0.75568133592605591 0.19566541910171509 -0.62502861022949219
vn -0.62670063972473145 0.17282943427562714 -0.7598528265953064
vn -0.63371884822845459 0.03634236752986908 -0.77270931005477905
vn -0.69731640815734863 -0.002769773593172431 0.71675807237625122
vn -0.0050109010189771652 -0.0020962152630090714 0.99998527765274048
vn 0 0.059108030050992966 0.99825161695480347
vn 0 0.059108030050992966 0.99825161695480347
vn 0 0.059108030050992966 0.99825161695480347
vn 0.98308134078979492 0.14984121918678284 -0.10535028576850891
vn 0.99712145328521729 -0.066165372729301453 -0.037025708705186844
vn 0.93862104415893555 -0.043127298355102539 -0.342243492603302
vn 0 0.29727193713188171 -0.95479285717010498
vn -1.8931750389583613E-07 -0.79957079887390137 -0.60057187080383301
vn -0.091256320476531982 -0.99579304456710815 0.0082753067836165428
vn -0.99929255247116089 -0.034467890858650208 0.015043764375150204
vn -3.2986218201358497E-08 0.99375337362289429 -0.11159864813089371
vn 0 -0.97575938701629639 0.21884609758853912
vn 5.5114759334173868E-07 0.83673107624053955 0.54761397838592529
vn 0.00093404058134183288 0.020053910091519356 -0.9997984766960144
usemtl vc_191919__Default
f 1//1 2//2 3//3
f 4//4 5//5 6//6
f 7//7 8//8 9//9
f 10//10 11//11 12//12
f 13//13 14//14 15//15
f 16//16 17//17 18//18
f 19//19 20//20 21//21
f 22//22 16//16 18//18
f 23//23 24//24 25//25
f 26//26 23//23 25//25
f 27//27 28//28 29//29
f 18//18 30//30 31//31
f 18//18 32//32 30//30
f 28//28 27//27 33//33
f 34//34 33//33 35//35
f 36//36 34//34 35//35
f 37//37 38//38 39//39
f 40//40 20//20 41//41
f 42//42 40//40 41//41
f 28//28 42//42 43//43
f 44//44 45//45 46//46
f 40//40 42//42 47//47
f 48//48 49//49 46//46
f 50//50 49//49 51//51
f 52//52 53//53 54//54
f 34//34 54//54 33//33
f 55//55 56//56 57//57
f 58//58 55//55 59//59
f 60//60 54//54 34//34
f 61//61 54//54 60//60
f 62//62 34//34 63//63
f 62//62 63//63 64//64
f 65//65 64//64 66//66
f 68//68 329//329 69//69 67//67
f 72//72 376//376 70//70 71//71
f 73//73 74//74 75//75
f 78//78 377//377 76//76 77//77
f 79//79 80//80 81//81
f 83//83 373//373 84//84 82//82
f 85//85 86//86 87//87
f 88//88 89//89 90//90
f 88//88 90//90 91//91
f 92//92 93//93 94//94
f 95//95 96//96 97//97
f 9//9 98//98 99//99
f 9//9 100//100 98//98
f 101//101 102//102 103//103
f 38//38 104//104 105//105
f 104//104 106//106 105//105
f 107//107 108//108 109//109
f 111//111 101//101 110//110 37//37
f 112//112 113//113 114//114
f 115//115 116//116 117//117
f 118//118 46//46 49//49
f 119//119 49//49 50//50
f 119//119 120//120 49//49
f 121//121 50//50 122//122
f 123//123 124//124 125//125
f 94//94 93//93 126//126
f 127//127 128//128 129//129
f 130//130 131//131 132//132
f 133//133 134//134 100//100
f 135//135 136//136 137//137
f 138//138 139//139 140//140
f 141//141 139//139 138//138
f 141//141 138//138 142//142
f 143//143 144//144 145//145
f 146//146 147//147 148//148
f 149//149 150//150 151//151
f 152//152 153//153 154//154
f 155//155 156//156 157//157
f 158//158 159//159 160//160
f 161//161 162//162 163//163
f 164//164 165//165 166//166
f 167//167 168//168 169//169
f 170//170 171//171 172//172
f 173//173 174//174 175//175
f 176//176 177//177 178//178
f 179//179 173//173 175//175
f 180//180 181//181 182//182
f 183//183 184//184 185//185
f 186//186 187//187 188//188
f 189//189 190//190 191//191
f 194//194 379//379 192//192 193//193
f 195//195 141//141 142//142
f 196//196 197//197 198//198
f 199//199 200//200 201//201
f 202//202 203//203 204//204
f 38//38 205//205 206//206
f 207//207 208//208 209//209
f 210//210 211//211 212//212
f 213//213 212//212 214//214
f 215//215 216//216 214//214
f 217//217 218//218 219//219
f 220//220 221//221 222//222
f 223//223 224//224 225//225
f 226//226 38//38 206//206
f 227//227 134//134 133//133
f 228//228 229//229 230//230
f 231//231 186//186 188//188
f 232//232 233//233 234//234
f 235//235 224//224 223//223
f 236//236 237//237 238//238
f 239//239 227//227 133//133
f 240//240 241//241 242//242
f 243//243 244//244 245//245
f 246//246 247//247 248//248
f 249//249 250//250 251//251
f 252//252 253//253 254//254
f 255//255 256//256 257//257
f 208//208 207//207 258//258
f 259//259 260//260 261//261
f 262//262 263//263 264//264
f 265//265 227//227 239//239
f 268//268 269//269 266//266 267//267
f 270//270 271//271 272//272
f 226//226 273//273 274//274
f 275//275 276//276 277//277
f 278//278 279//279 280//280
f 281//281 282//282 283//283
f 284//284 285//285 286//286
f 284//284 287//287 285//285
f 288//288 281//281 289//289
f 265//265 290//290 291//291
f 107//107 292//292 293//293
f 294//294 295//295 296//296
f 297//297 298//298 291//291
f 299//299 124//124 123//123
f 300//300 301//301 302//302
f 303//303 304//304 301//301
f 303//303 305//305 304//304
f 300//300 303//303 301//301
f 307//307 297//297 302//302 306//306
f 308//308 127//127 309//309
f 310//310 311//311 312//312
f 310//310 312//312 305//305
f 305//305 303//303 313//313
f 314//314 303//303 300//300
f 313//313 303//303 315//315
f 315//315 300//300 316//316
f 302//302 317//317 300//300
f 316//316 300//300 318//318
f 319//319 321//321 320//320 317//317
f 321//321 319//319 322//322
f 323//323 322//322 324//324
f 322//322 325//325 326//326
f 310//310 305//305 313//313
f 327//327 128//128 328//328
f 39//39 38//38 105//105
f 69//69 329//329 59//59
f 234//234 330//330 331//331
f 61//61 59//59 54//54
f 91//91 95//95 97//97
f 332//332 333//333 334//334
f 335//335 336//336 337//337
f 165//165 338//338 166//166
f 339//339 340//340 341//341
f 233//233 342//342 234//234
f 343//343 344//344 345//345
f 275//275 277//277 346//346
f 291//291 298//298 265//265
f 94//94 126//126 347//347
f 96//96 348//348 97//97
f 38//38 349//349 350//350
f 351//351 352//352 9//9
f 348//348 96//96 353//353
f 348//348 353//353 92//92
f 354//354 139//139 282//282
f 223//223 204//204 355//355
f 356//356 222//222 357//357
f 358//358 339//339 341//341
f 359//359 360//360 361//361
f 362//362 18//18 363//363
f 42//42 364//364 47//47
f 89//89 365//365 50//50
f 366//366 367//367 368//368
f 39//39 347//347 126//126
f 278//278 280//280 369//369
f 311//311 370//370 371//371
f 51//51 89//89 50//50
f 93//93 92//92 353//353
f 134//134 98//98 100//100
f 55//55 53//53 59//59
f 74//74 372//372 75//75
f 34//34 62//62 60//60
f 224//224 374//374 225//225
f 107//107 293//293 108//108
f 4//4 6//6 375//375
f 63//63 66//66 64//64
f 85//85 87//87 378//378
f 90//90 95//95 91//91
