# Dual color encoding: per-vertex RGB for Rerun, face MTL colors for legacy RViz.
mtllib sim_gene01_l_hand_little_4.mtl
# Rhino

g sim_gene01_l_hand_little_4
v 2.3130750425422075 28.227102166272104 -9.5381890180917868 0.0980392157 0.0980392157 0.0980392157
v 5.040880282116798 30.885619413618841 -6.5239458327157225 0.0980392157 0.0980392157 0.0980392157
v 9.3926408962964185 25.240580814433645 -6.6234089105571536 0.0980392157 0.0980392157 0.0980392157
v 4.5466985902227188 13.469651174955345 -10.567031892927689 0.0980392157 0.0980392157 0.0980392157
v 12.473766259369324 15.649677715962618 -7.4459997755442862 0.0980392157 0.0980392157 0.0980392157
v 13.218076729394195 -0.61131025089707569 -7.8261773364663423 0.0980392157 0.0980392157 0.0980392157
v 7.5993433747655699 -0.85768284066758427 -5.2100807849444575 0.0980392157 0.0980392157 0.0980392157
v 7.7488723459631155 -0.71545971952515908 -8.8410701966873617 0.0980392157 0.0980392157 0.0980392157
v 13.218076729394195 -0.61131025089707569 -7.8261773364663423 0.0980392157 0.0980392157 0.0980392157
v 0.6044970821084803 -0.73046540824376005 -11.44683224661479 0.0980392157 0.0980392157 0.0980392157
v 0.6044970821084803 -0.73046540824376005 -11.44683224661479 0.0980392157 0.0980392157 0.0980392157
v -5.0452228548082969 31.233497737518046 -7.4253207584451797 0.0980392157 0.0980392157 0.0980392157
v -6.9524683170800508 18.263325091771407 -10.223131700076467 0.0980392157 0.0980392157 0.0980392157
v 4.3311413377161365 18.155791392405362 -5.3272039442958237 0.0980392157 0.0980392157 0.0980392157
v -5.1371638972059337 15.707659456518948 -5.2900181598869729 0.0980392157 0.0980392157 0.0980392157
v 4.4253467210440585 18.046086775190535 -9.0950590310090895 0.0980392157 0.0980392157 0.0980392157
v -0.13518757796003911 -0.72900057827698106 -10.055935105462597 0.0980392157 0.0980392157 0.0980392157
v 7.7488723459631155 -0.71545971952515908 -8.8410701966873617 0.0980392157 0.0980392157 0.0980392157
v 4.4253467210440585 18.046086775190535 -9.0950590310090895 0.0980392157 0.0980392157 0.0980392157
v 7.7488723459631155 -0.71545971952515908 -8.8410701966873617 0.0980392157 0.0980392157 0.0980392157
v 7.5993433747655699 -0.85768284066758427 -5.2100807849444575 0.0980392157 0.0980392157 0.0980392157
v 4.3311413377161365 18.155791392405362 -5.3272039442958237 0.0980392157 0.0980392157 0.0980392157
v -0.13518757796003911 -0.72900057827698106 -10.055935105462597 0.0980392157 0.0980392157 0.0980392157
v -5.451569086513981 4.6699479503423289 -9.3894873226278754 0.0980392157 0.0980392157 0.0980392157
v -6.5937995873891939 15.26344048043658 -9.2335839288115551 0.0980392157 0.0980392157 0.0980392157
v -5.4502821204063281 6.7364399643652844 -4.9877265419889163 0.0980392157 0.0980392157 0.0980392157
v -5.451569086513981 4.6699479503423289 -9.3894873226278754 0.0980392157 0.0980392157 0.0980392157
v -6.5937995873891939 15.26344048043658 -9.2335839288115551 0.0980392157 0.0980392157 0.0980392157
v -5.1371638972059337 15.707659456518948 -5.2900181598869729 0.0980392157 0.0980392157 0.0980392157
v -7.5529308219521454 -0.72215630970098021 -10.088321906948035 0.0980392157 0.0980392157 0.0980392157
v -5.451569086513981 4.6699479503423289 -9.3894873226278754 0.0980392157 0.0980392157 0.0980392157
v -8.562557885185262 3.6714375241554782 -7.5262155782638294 0.0980392157 0.0980392157 0.0980392157
v -8.562557885185262 3.6714375241554782 -7.5262155782638294 0.0980392157 0.0980392157 0.0980392157
v -5.451569086513981 4.6699479503423289 -9.3894873226278754 0.0980392157 0.0980392157 0.0980392157
v -5.4502821204063281 6.7364399643652844 -4.9877265419889163 0.0980392157 0.0980392157 0.0980392157
v -7.5529308219521454 -0.72215630970098021 -10.088321906948035 0.0980392157 0.0980392157 0.0980392157
v -13.972689581724335 -0.017559055939246504 -7.1381376695489616 0.0980392157 0.0980392157 0.0980392157
v -9.1364983247426377 -4.9397312559684234 -1.0393902656042815 0.0980392157 0.0980392157 0.0980392157
v -7.5529308219521454 -0.72215630970098021 -10.088321906948035 0.0980392157 0.0980392157 0.0980392157
v -8.562557885185262 3.6714375241554782 -7.5262155782638294 0.0980392157 0.0980392157 0.0980392157
v -11.631560238085889 21.740114707648058 -7.0644955833915191 0.0980392157 0.0980392157 0.0980392157
v -13.972689581724335 -0.017559055939246504 -7.1381376695489616 0.0980392157 0.0980392157 0.0980392157
v -13.972689581724335 -0.017559055939246504 -7.1381376695489616 0.0980392157 0.0980392157 0.0980392157
v -7.5529308219521454 -0.72215630970098021 -10.088321906948035 0.0980392157 0.0980392157 0.0980392157
v -9.1364983247426377 -4.9397312559684234 -1.0393902656042815 0.0980392157 0.0980392157 0.0980392157
v 6.2920258330537271 30.058298649060269 -0.21378655986871234 0.0980392157 0.0980392157 0.0980392157
v 9.3926408962964185 25.240580814433645 -6.6234089105571536 0.0980392157 0.0980392157 0.0980392157
v 12.473766259369324 15.649677715962618 -7.4459997755442862 0.0980392157 0.0980392157 0.0980392157
v 13.374109061523175 3.9512643709356916 3.8677808014453117 0.0980392157 0.0980392157 0.0980392157
v 13.218076729394195 -0.61131025089707569 -7.8261773364663423 0.0980392157 0.0980392157 0.0980392157
v 6.3313166698704446 -3.8760729098308655 -3.9516102729031708 0.0980392157 0.0980392157 0.0980392157
v 7.5993433747655699 -0.85768284066758427 -5.2100807849444575 0.0980392157 0.0980392157 0.0980392157
v 13.218076729394195 -0.61131025089707569 -7.8261773364663423 0.0980392157 0.0980392157 0.0980392157
v 7.1866847207365376 -6.3838222652153505 3.5086777551850417 0.0980392157 0.0980392157 0.0980392157
v 6.3313166698704446 -3.8760729098308655 -3.9516102729031708 0.0980392157 0.0980392157 0.0980392157
v 13.218076729394195 -0.61131025089707569 -7.8261773364663423 0.0980392157 0.0980392157 0.0980392157
v -5.0452228548082969 31.233497737518046 -7.4253207584451797 0.0980392157 0.0980392157 0.0980392157
v -2.9512896759313594 31.103311754941934 -0.32350488512923697 0.0980392157 0.0980392157 0.0980392157
v 7.5993433747655699 -0.85768284066758427 -5.2100807849444575 0.0980392157 0.0980392157 0.0980392157
v 3.0061110090575616 8.0204522777144582 -5.1991637469419754 0.0980392157 0.0980392157 0.0980392157
v 4.3311413377161365 18.155791392405362 -5.3272039442958237 0.0980392157 0.0980392157 0.0980392157
v -5.0452228548082969 31.233497737518046 -7.4253207584451797 0.0980392157 0.0980392157 0.0980392157
v -11.631560238085889 21.740114707648058 -7.0644955833915191 0.0980392157 0.0980392157 0.0980392157
v -9.4711606327422775 26.177986195387692 3.3921803543181146 0.0980392157 0.0980392157 0.0980392157
v -13.413889473995235 15.255386728611366 0.37601739658637806 0.0980392157 0.0980392157 0.0980392157
v -13.972689581724335 -0.017559055939246504 -7.1381376695489616 0.0980392157 0.0980392157 0.0980392157
v -14.07680040493551 2.6867061949407676 3.3310797196301909 0.0980392157 0.0980392157 0.0980392157
v -13.972689581724335 -0.017559055939246504 -7.1381376695489616 0.0980392157 0.0980392157 0.0980392157
v -9.1364983247426377 -4.9397312559684234 -1.0393902656042815 0.0980392157 0.0980392157 0.0980392157
v 7.1866847207365376 -6.3838222652153505 3.5086777551850417 0.0980392157 0.0980392157 0.0980392157
v 13.218076729394195 -0.61131025089707569 -7.8261773364663423 0.0980392157 0.0980392157 0.0980392157
v 13.374109061523175 3.9512643709356916 3.8677808014453117 0.0980392157 0.0980392157 0.0980392157
v 5.5748794069636229 5.8338840731359678 -0.12856026137948939 0.0980392157 0.0980392157 0.0980392157
v 3.0061110090575616 8.0204522777144582 -5.1991637469419754 0.0980392157 0.0980392157 0.0980392157
v 7.5993433747655699 -0.85768284066758427 -5.2100807849444575 0.0980392157 0.0980392157 0.0980392157
v 5.5748794069636229 5.8338840731359678 -0.12856026137948939 0.0980392157 0.0980392157 0.0980392157
v 7.5993433747655699 -0.85768284066758427 -5.2100807849444575 0.0980392157 0.0980392157 0.0980392157
v 6.3313166698704446 -3.8760729098308655 -3.9516102729031708 0.0980392157 0.0980392157 0.0980392157
v 2.6260517335884694 8.0132685528687411 5.0302237041332631 0.0980392157 0.0980392157 0.0980392157
v 3.0061110090575616 8.0204522777144582 -5.1991637469419754 0.0980392157 0.0980392157 0.0980392157
v 5.5748794069636229 5.8338840731359678 -0.12856026137948939 0.0980392157 0.0980392157 0.0980392157
v -6.1386328023536452 9.091975136169232 0.93770538609973619 0.0980392157 0.0980392157 0.0980392157
v -5.4502821204063281 6.7364399643652844 -4.9877265419889163 0.0980392157 0.0980392157 0.0980392157
v 3.0061110090575616 8.0204522777144582 -5.1991637469419754 0.0980392157 0.0980392157 0.0980392157
v 2.6260517335884694 8.0132685528687411 5.0302237041332631 0.0980392157 0.0980392157 0.0980392157
v 3.0061110090575616 8.0204522777144582 -5.1991637469419754 0.0980392157 0.0980392157 0.0980392157
v -8.562557885185262 3.6714375241554782 -7.5262155782638294 0.0980392157 0.0980392157 0.0980392157
v -5.4502821204063281 6.7364399643652844 -4.9877265419889163 0.0980392157 0.0980392157 0.0980392157
v -6.1386328023536452 9.091975136169232 0.93770538609973619 0.0980392157 0.0980392157 0.0980392157
v 2.6260517335884694 8.0132685528687411 5.0302237041332631 0.0980392157 0.0980392157 0.0980392157
v 5.5748794069636229 5.8338840731359678 -0.12856026137948939 0.0980392157 0.0980392157 0.0980392157
v 6.7156977990979492 3.282210937598343 5.0862652580339383 0.0980392157 0.0980392157 0.0980392157
v 7.1866847207365376 -6.3838222652153505 3.5086777551850417 0.0980392157 0.0980392157 0.0980392157
v 6.7156977990979492 3.282210937598343 5.0862652580339383 0.0980392157 0.0980392157 0.0980392157
v -8.6086151423715904 5.8217685368075323 4.9904352857065692 0.0980392157 0.0980392157 0.0980392157
v -8.562557885185262 3.6714375241554782 -7.5262155782638294 0.0980392157 0.0980392157 0.0980392157
v -6.1386328023536452 9.091975136169232 0.93770538609973619 0.0980392157 0.0980392157 0.0980392157
v -8.6086151423715904 5.8217685368075323 4.9904352857065692 0.0980392157 0.0980392157 0.0980392157
v -9.0544808754960808 -4.2431442665218588 4.6472606091345341 0.0980392157 0.0980392157 0.0980392157
v -14.07680040493551 2.6867061949407676 3.3310797196301909 0.0980392157 0.0980392157 0.0980392157
v -9.1364983247426377 -4.9397312559684234 -1.0393902656042815 0.0980392157 0.0980392157 0.0980392157
v 3.9853421207018176 25.414025132550496 6.3318046202437941 0.0980392157 0.0980392157 0.0980392157
v -8.6086151423715904 5.8217685368075323 4.9904352857065692 0.0980392157 0.0980392157 0.0980392157
v -6.1386328023536452 9.091975136169232 0.93770538609973619 0.0980392157 0.0980392157 0.0980392157
v 2.6260517335884694 8.0132685528687411 5.0302237041332631 0.0980392157 0.0980392157 0.0980392157
v -11.939346381727859 10.933182676206703 7.5865696597472008 0.0980392157 0.0980392157 0.0980392157
v 6.7156977990979492 3.282210937598343 5.0862652580339383 0.0980392157 0.0980392157 0.0980392157
v 7.1866847207365376 -6.3838222652153505 3.5086777551850417 0.0980392157 0.0980392157 0.0980392157
v 13.374109061523175 3.9512643709356916 3.8677808014453117 0.0980392157 0.0980392157 0.0980392157
v 10.334897115077787 11.266122071579435 7.7859245215040689 0.0980392157 0.0980392157 0.0980392157
v 5.6431794359922636 12.072322659496537 5.2282612043660004 0.0980392157 0.0980392157 0.0980392157
v 6.7156977990979492 3.282210937598343 5.0862652580339383 0.0980392157 0.0980392157 0.0980392157
v 5.6431794359922636 12.072322659496537 5.2282612043660004 0.0980392157 0.0980392157 0.0980392157
v 2.6260517335884694 8.0132685528687411 5.0302237041332631 0.0980392157 0.0980392157 0.0980392157
v 5.6431794359922636 12.072322659496537 5.2282612043660004 0.0980392157 0.0980392157 0.0980392157
v -9.216026221428125 9.7969539521517994 5.251863969367804 0.0980392157 0.0980392157 0.0980392157
v -11.939346381727859 10.933182676206703 7.5865696597472008 0.0980392157 0.0980392157 0.0980392157
v -8.6086151423715904 5.8217685368075323 4.9904352857065692 0.0980392157 0.0980392157 0.0980392157
v -9.216026221428125 9.7969539521517994 5.251863969367804 0.0980392157 0.0980392157 0.0980392157
v -1.6106629822897958 13.525498112409437 8.5197206995152843 0.0980392157 0.0980392157 0.0980392157
v -9.216026221428125 9.7969539521517994 5.251863969367804 0.0980392157 0.0980392157 0.0980392157
v 5.6431794359922636 12.072322659496537 5.2282612043660004 0.0980392157 0.0980392157 0.0980392157
v -11.939346381727859 10.933182676206703 7.5865696597472008 0.0980392157 0.0980392157 0.0980392157
v -1.6106629822897958 13.525498112409437 8.5197206995152843 0.0980392157 0.0980392157 0.0980392157
v 5.6431794359922636 12.072322659496537 5.2282612043660004 0.0980392157 0.0980392157 0.0980392157
v 10.334897115077787 11.266122071579435 7.7859245215040689 0.0980392157 0.0980392157 0.0980392157
v -9.0544808754960808 -4.2431442665218588 4.6472606091345341 0.0980392157 0.0980392157 0.0980392157
v -8.6086151423715904 5.8217685368075323 4.9904352857065692 0.0980392157 0.0980392157 0.0980392157
v -14.07680040493551 2.6867061949407676 3.3310797196301909 0.0980392157 0.0980392157 0.0980392157
v -14.07680040493551 2.6867061949407676 3.3310797196301909 0.0980392157 0.0980392157 0.0980392157
v -8.6086151423715904 5.8217685368075323 4.9904352857065692 0.0980392157 0.0980392157 0.0980392157
v -11.939346381727859 10.933182676206703 7.5865696597472008 0.0980392157 0.0980392157 0.0980392157
v 6.7156977990979492 3.282210937598343 5.0862652580339383 0.0980392157 0.0980392157 0.0980392157
v 13.374109061523175 3.9512643709356916 3.8677808014453117 0.0980392157 0.0980392157 0.0980392157
v 10.334897115077787 11.266122071579435 7.7859245215040689 0.0980392157 0.0980392157 0.0980392157
v -4.2882352288467471 24.907518106270363 6.4087825067774062 0.0980392157 0.0980392157 0.0980392157
v -1.6106629822897958 13.525498112409437 8.5197206995152843 0.0980392157 0.0980392157 0.0980392157
v -11.939346381727859 10.933182676206703 7.5865696597472008 0.0980392157 0.0980392157 0.0980392157
v 3.9853421207018176 25.414025132550496 6.3318046202437941 0.0980392157 0.0980392157 0.0980392157
v 11.178250799301466 20.263983917223396 4.5670323233335539 0.0980392157 0.0980392157 0.0980392157
v 10.334897115077787 11.266122071579435 7.7859245215040689 0.0980392157 0.0980392157 0.0980392157
v 11.178250799301466 20.263983917223396 4.5670323233335539 0.0980392157 0.0980392157 0.0980392157
v -5.1371638972059337 15.707659456518948 -5.2900181598869729 0.0980392157 0.0980392157 0.0980392157
v -14.07680040493551 2.6867061949407676 3.3310797196301909 0.0980392157 0.0980392157 0.0980392157
v -11.631560238085889 21.740114707648058 -7.0644955833915191 0.0980392157 0.0980392157 0.0980392157
v -6.5937995873891939 15.26344048043658 -9.2335839288115551 0.0980392157 0.0980392157 0.0980392157
v 4.4253467210440585 18.046086775190535 -9.0950590310090895 0.0980392157 0.0980392157 0.0980392157
v -9.0544808754960808 -4.2431442665218588 4.6472606091345341 0.0980392157 0.0980392157 0.0980392157
v -5.4502821204063281 6.7364399643652844 -4.9877265419889163 0.0980392157 0.0980392157 0.0980392157
vn 0.15856777131557465 0.23373140394687653 -0.95928406715393066
vn 0.49443882703781128 0.82273519039154053 -0.28042304515838623
vn 0.55830329656600952 0.36765918135643005 -0.74372315406799316
vn 0.17030377686023712 0.040584612637758255 -0.98455548286437988
vn 0.61090183258056641 0.093815445899963379 -0.78612822294235229
vn 0.61424320936203003 0.0085039651021361351 -0.78907096385955811
vn 0.097775228321552277 -0.98424077033996582 -0.14734332263469696
vn -0.0011771322460845113 -0.99896389245986938 -0.045495066791772842
vn 0.045343909412622452 -0.99885386228561401 -0.015327050350606441
vn 0.031240247189998627 0.015426871366798878 -0.99939286708831787
vn -0.004900782834738493 -0.99995660781860352 -0.007924940437078476
vn -0.37372073531150818 0.602977454662323 -0.70480567216873169
vn -0.24718144536018372 0.044342037290334702 -0.96795409917831421
vn 0.28014487028121948 -0.95575791597366333 0.089697293937206268
vn 0.15099026262760162 -0.98805564641952515 -0.030789941549301147
vn 0.24423815310001373 -0.96802228689193726 0.057276420295238495
vn -0.0068719186820089817 -0.018222209066152573 0.99981033802032471
vn -0.26018950343132019 -0.0063402443192899227 0.96553677320480347
vn -0.14772963523864746 -0.042849592864513397 0.98809909820556641
vn -0.97914832830429077 -0.20105157792568207 -0.029099171981215477
vn -0.98145931959152222 -0.19047366082668304 -0.021386327221989632
vn -0.98668491840362549 -0.16121014952659607 -0.021544110029935837
vn -0.006600863765925169 -0.99996429681777954 -0.0052778176032006741
vn 0.12946376204490662 -0.01268068328499794 0.99150305986404419
vn 0.21490275859832764 -0.052122268825769424 0.97524356842041016
vn 0.9869384765625 0.15701618790626526 -0.036033026874065399
vn 0.9889981746673584 0.12740734219551086 -0.075166173279285431
vn 0.97626638412475586 0.21280813217163086 0.040207073092460632
vn 0.95755583047866821 0.27295148372650146 0.092651568353176117
vn 0.20396071672439575 -0.015265078283846378 0.97886008024215698
vn 0.19552674889564514 -0.01805540919303894 0.98053216934204102
vn 0.24188442528247833 -0.022439774125814438 0.97004556655883789
vn 0.62985444068908691 -0.66004806756973267 0.409414142370224
vn 0.62985444068908691 -0.66004806756973267 0.409414142370224
vn 0.62985444068908691 -0.66004806756973267 0.409414142370224
vn -0.23344933986663818 0.0094360960647463799 -0.97232317924499512
vn -0.70365661382675171 0.0068585737608373165 -0.7105070948600769
vn 0.99984282255172729 -0.0060536391101777554 -0.016663547605276108
vn 0.90427297353744507 0.19175636768341064 0.38147073984146118
vn 0.99350732564926147 0.03601369634270668 0.10791735351085663
vn -0.76782822608947754 0.18016162514686584 -0.61480212211608887
vn -0.63059711456298828 -0.0060798204503953457 -0.77608650922775269
vn -0.37897494435310364 -0.89008277654647827 -0.25324028730392456
vn 0.049946308135986328 -0.99841618537902832 -0.025893468409776688
vn 0.25919944047927856 -0.93774992227554321 -0.23117254674434662
vn 0.54366034269332886 0.80554372072219849 0.23565387725830078
vn 0.84822714328765869 0.40683895349502563 -0.33910584449768066
vn 0.97821366786956787 0.12756478786468506 -0.1637842059135437
vn 0.99712085723876953 0.073727168142795563 0.017730114981532097
vn 0.95654118061065674 0.00412007886916399 -0.29156821966171265
vn -0.0088573545217514038 -0.5007706880569458 -0.86553466320037842
vn -0.019915251061320305 -0.50916057825088501 -0.86044108867645264
vn -0.15437774360179901 -0.49505949020385742 -0.85503429174423218
vn 0.45798122882843018 -0.7235105037689209 -0.51651304960250854
vn 0.093034259974956512 -0.75396311283111572 -0.65029555559158325
vn 0.2891024649143219 -0.80822902917861938 -0.51301616430282593
vn -0.2308068722486496 0.9298667311668396 -0.28648924827575684
vn -0.098112203180789948 0.92493307590484619 0.36725032329559326
vn -0.0055997660383582115 -0.045488372445106506 -0.99894917011260986
vn -0.0055407858453691006 0.001877522561699152 -0.99998289346694946
vn -0.027778597548604012 -0.033113580197095871 -0.99906545877456665
vn -0.52450823783874512 0.81267565488815308 -0.25386890769004822
vn -0.93514037132263184 0.28855592012405396 -0.20554307103157043
vn -0.75989502668380737 0.48928385972976685 0.4279729425907135
vn -0.98522472381591797 0.14995495975017548 0.082738891243934631
vn -0.94594764709472656 -0.035572312772274017 -0.32236263155937195
vn -0.65374124050140381 -0.60812479257583618 0.45034053921699524
vn -0.60627096891403198 -0.76952570676803589 -0.2006630152463913
vn -0.69849646091461182 -0.71045404672622681 0.085777617990970612
vn 0.83559221029281616 -0.52993881702423096 0.14474286139011383
vn 0.76336735486984253 -0.64204609394073486 0.071042858064174652
vn 0.87697327136993408 -0.37196570634841919 0.30423569679260254
vn -0.79002773761749268 -0.57007765769958496 -0.22553867101669312
vn -0.79002773761749268 -0.57007765769958496 -0.22553867101669312
vn -0.79002773761749268 -0.57007765769958496 -0.22553867101669312
vn -0.99169719219207764 0.12737265229225159 0.017689421772956848
vn -0.99127066135406494 -0.059514574706554413 -0.11764546483755112
vn -0.99172782897949219 -0.083572164177894592 -0.097424834966659546
vn -0.43350297212600708 -0.87098938226699829 -0.23119820654392242
vn -0.44029968976974487 -0.88917899131774902 -0.12448646873235703
vn -0.43749943375587463 -0.88125872611999512 -0.178821861743927
vn 0.064029760658740997 -0.99794435501098633 -0.0026934379711747169
vn 0.05648939311504364 -0.9471358060836792 0.31582066416740417
vn -0.12506355345249176 -0.98612934350967407 0.10912392288446426
vn 0.068411722779273987 -0.91179591417312622 -0.4049050509929657
vn -0.2317814975976944 -0.90942686796188354 0.34528264403343201
vn 0.22948664426803589 -0.86025667190551758 0.45529589056968689
vn 0.38725191354751587 -0.77977383136749268 0.49192354083061218
vn 0.70821428298950195 -0.51251029968261719 0.48555713891983032
vn -0.80637198686599731 -0.53902184963226318 -0.2433507889509201
vn -0.83192533254623413 -0.43139925599098206 -0.34899136424064636
vn -0.83652603626251221 -0.5277867317199707 -0.14719146490097046
vn -0.98176252841949463 -0.16575402021408081 0.093101553618907928
vn -0.98846584558486938 0.096322208642959595 0.11686461418867111
vn 0.81380271911621094 -0.57135283946990967 -0.10621210932731628
vn 0.7984277606010437 -0.58501046895980835 0.14239342510700226
vn 0.82214438915252686 -0.56846499443054199 -0.030432451516389847
vn 0.99998575448989868 -0.001970561919733882 -0.0049619274213910103
vn -0.83107668161392212 -0.44828101992607117 0.32917428016662598
vn -0.84836685657501221 -0.27545404434204102 0.45210477709770203
vn -0.68816137313842773 -0.67368710041046143 -0.2694060206413269
vn 0.11761991679668427 0.39165398478507996 0.91256380081176758
vn -0.066901631653308868 0.14280553162097931 -0.9874870777130127
vn -0.066901631653308868 0.14280553162097931 -0.9874870777130127
vn -0.066901631653308868 0.14280553162097931 -0.9874870777130127
vn -0.82486814260482788 0.19313390552997589 0.53131139278411865
vn 0.025482257828116417 -0.0063474918715655804 0.99965512752532959
vn 0.21194306015968323 -0.091777361929416656 0.97296303510665894
vn 0.14346210658550262 -0.084249444305896759 0.98606318235397339
vn -0.96567434072494507 -0.10705274343490601 0.23667015135288239
vn -0.96567434072494507 -0.10705274343490601 0.23667015135288239
vn -0.96567434072494507 -0.10705274343490601 0.23667015135288239
vn -0.0058887777850031853 0.0025686032604426146 0.99997937679290771
vn -0.0017045980785042048 0.00073961622547358274 0.99999827146530151
vn -1.3113385648466647E-05 1.6093074464151869E-06 1
vn -3.1405393201566767E-06 4.1209904111383366E-07 1
vn 0.97512561082839966 0.17194077372550964 0.13988019526004791
vn 0.97512561082839966 0.17194077372550964 0.13988019526004791
vn 0.97512561082839966 0.17194077372550964 0.13988019526004791
vn 0.070545919239521027 -0.84214127063751221 0.53462260961532593
vn 0.19117149710655212 -0.77093768119812012 0.60754305124282837
vn 0.085080176591873169 -0.91528552770614624 0.39371788501739502
vn 0.23014937341213226 -0.75611776113510132 0.61263138055801392
vn -0.051116101443767548 -0.99153101444244385 0.11938752233982086
vn -0.22687286138534546 -0.96616601943969727 0.12268608063459396
vn -0.3490871787071228 -0.92902678251266479 0.12266772985458374
vn -0.68506932258605957 -0.19684585928916931 0.7013784646987915
vn -0.037396710366010666 0.004972582682967186 0.99928814172744751
vn -0.42820721864700317 -0.15420562028884888 0.8904263973236084
vn 0.34830659627914429 -0.58613061904907227 0.73152810335159302
vn 0.34126639366149902 -0.57783949375152588 0.74137628078460693
vn 0.32864680886268616 -0.55682188272476196 0.76285034418106079
vn 0.22469146549701691 -0.4407767653465271 0.86903947591781616
vn 0.27613347768783569 -0.50876283645629883 0.81542056798934937
vn 0.15955190360546112 -0.35274305939674377 0.92201709747314453
vn -0.11540266126394272 0.39889362454414368 0.90970659255981445
vn -0.016447722911834717 0.073219411075115204 0.99718022346496582
vn -0.43963178992271423 0.1342521458864212 0.88808798789978027
vn 0.32812407612800598 0.44544559717178345 0.83301430940628052
vn 0.90104174613952637 0.25585684180259705 0.35023003816604614
vn 0.47721508145332336 0.16638475656509399 0.8628915548324585
vn 0.85091149806976318 0.26544573903083801 0.45330807566642761
vn 0.055855084210634232 -0.038464870303869247 -0.99769771099090576
vn -0.99912071228027344 0.036990322172641754 0.019736418500542641
vn -0.69724768400192261 0.21575659513473511 -0.68358957767486572
vn 0.10370686650276184 -0.99203276634216309 -0.071525640785694122
vn -0.98631370067596436 -0.16357880830764771 -0.020670928061008453
vn 0.99999666213989258 0.00023958789824973792 -0.0025641182437539101
vn -0.0058756754733622074 0.0039996807463467121 -0.99997472763061523
usemtl vc_191919__Default
f 1//1 2//2 3//3
f 4//4 1//1 5//5
f 6//6 4//4 5//5
f 7//7 8//8 9//9
f 10//10 4//4 6//6
f 8//8 11//11 9//9
f 12//12 2//2 1//1
f 13//13 1//1 4//4
f 14//14 15//15 16//16
f 17//17 18//18 19//19
f 10//10 13//13 4//4
f 22//22 147//147 20//20 21//21
f 23//23 11//11 8//8
f 24//24 17//17 25//25
f 26//26 27//27 28//28
f 26//26 28//28 29//29
f 30//30 17//17 31//31
f 32//32 30//30 31//31
f 33//33 34//34 35//35
f 36//36 37//37 13//13
f 38//38 39//39 40//40
f 41//41 13//13 42//42
f 43//43 44//44 45//45
f 2//2 46//46 47//47
f 48//48 49//49 50//50
f 51//51 52//52 53//53
f 54//54 55//55 56//56
f 57//57 58//58 2//2
f 59//59 60//60 61//61
f 62//62 63//63 64//64
f 65//65 63//63 66//66
f 67//67 68//68 69//69
f 70//70 71//71 72//72
f 73//73 74//74 75//75
f 76//76 77//77 78//78
f 79//79 80//80 81//81
f 82//82 83//83 84//84
f 85//85 82//82 86//86
f 87//87 88//88 89//89
f 90//90 91//91 92//92
f 93//93 94//94 76//76
f 95//95 96//96 97//97
f 38//38 40//40 98//98
f 99//99 100//100 101//101
f 58//58 102//102 46//46
f 103//103 104//104 105//105
f 64//64 65//65 106//106
f 107//107 108//108 109//109
f 110//110 111//111 112//112
f 113//113 114//114 107//107
f 115//115 116//116 114//114
f 117//117 118//118 119//119
f 120//120 121//121 122//122
f 123//123 121//121 120//120
f 124//124 125//125 126//126
f 127//127 128//128 129//129
f 130//130 131//131 132//132
f 133//133 134//134 135//135
f 102//102 136//136 137//137
f 64//64 138//138 136//136
f 12//12 1//1 13//13
f 139//139 140//140 46//46
f 102//102 141//141 142//142
f 142//142 48//48 47//47
f 60//60 149//149 143//143 61//61
f 58//58 62//62 64//64
f 58//58 64//64 136//136
f 136//136 102//102 58//58
f 138//138 137//137 136//136
f 10//10 36//36 13//13
f 106//106 65//65 144//144
f 17//17 19//19 25//25
f 144//144 65//65 66//66
f 49//49 48//48 142//142
f 141//141 49//49 142//142
f 12//12 13//13 145//145
f 142//142 47//47 46//46
f 11//11 23//23 44//44
f 102//102 137//137 141//141
f 1//1 3//3 5//5
f 93//93 76//76 78//78
f 116//116 128//128 114//114
f 15//15 146//146 16//16
f 58//58 46//46 2//2
f 38//38 98//98 148//148
f 64//64 63//63 65//65
