# Dual color encoding: per-vertex RGB for Rerun, face MTL colors for legacy RViz.
mtllib sim_gene01_r_hand_index_4.mtl
# Rhino

g sim_gene01_r_hand_index_4
v -4.9424015011006475 29.481567380834868 -8.4662616426949935 0.0980392157 0.0980392157 0.0980392157
v 3.0624096236804688 31.774980904871207 -6.8612765507594213 0.0980392157 0.0980392157 0.0980392157
v -1.0804114983551489 24.72919301062295 -10.584098684925916 0.0980392157 0.0980392157 0.0980392157
v -9.835616256155328 25.85202880395769 -6.571384718176736 0.0980392157 0.0980392157 0.0980392157
v -5.3322007106476041 31.227430858756978 -3.5959289598256214 0.0980392157 0.0980392157 0.0980392157
v 6.6062722207144748 8.743068191240468 -10.30985342895457 0.0980392157 0.0980392157 0.0980392157
v 8.9110854783117368 26.160697383090088 -7.7261782398240655 0.0980392157 0.0980392157 0.0980392157
v 12.831856935559598 13.141345995556847 -7.2498309541047465 0.0980392157 0.0980392157 0.0980392157
v 2.9975652694702148 16.678966522216797 -5.25 0.0980392157 0.0980392157 0.0980392157
v -5.6082295174576116 15.925985116655685 -5.2500030314668846 0.0980392157 0.0980392157 0.0980392157
v -5.6913852225832322 15.939506679823131 -8.9653822678029744 0.0980392157 0.0980392157 0.0980392157
v -5.6913852225832322 15.939506679823131 -8.9653822678029744 0.0980392157 0.0980392157 0.0980392157
v -7.1850424669203612 10.276108824200202 -9.0756752798365845 0.0980392157 0.0980392157 0.0980392157
v 2.9242910434222469 16.715191124128427 -9.6276708723875757 0.0980392157 0.0980392157 0.0980392157
v -5.4899534343127687 10.371410361210348 -5.5719222403752466 0.0980392157 0.0980392157 0.0980392157
v -7.1850424669203612 10.276108824200202 -9.0756752798365845 0.0980392157 0.0980392157 0.0980392157
v -5.6913852225832322 15.939506679823131 -8.9653822678029744 0.0980392157 0.0980392157 0.0980392157
v 2.9975652694702148 16.678966522216797 -5.25 0.0980392157 0.0980392157 0.0980392157
v 2.9242910434222469 16.715191124128427 -9.6276708723875757 0.0980392157 0.0980392157 0.0980392157
v 4.9336018891506335 11.042286796015381 -9.1774458238902383 0.0980392157 0.0980392157 0.0980392157
v -9.4461544514864428 -0.7358279477459394 -9.9359293337940002 0.0980392157 0.0980392157 0.0980392157
v -12.202491245565852 14.222073151356028 -8.2664332073933693 0.0980392157 0.0980392157 0.0980392157
v 0.18510544610029012 -0.72674331852703244 -10.048381792165822 0.0980392157 0.0980392157 0.0980392157
v -8.164437280529226 -1.5073706638982478 -8.5209722384890636 0.0980392157 0.0980392157 0.0980392157
v -8.6144230044075414 7.1847604643794316 -3.7632372876273172 0.0980392157 0.0980392157 0.0980392157
v -7.1850424669203612 10.276108824200202 -9.0756752798365845 0.0980392157 0.0980392157 0.0980392157
v -5.4899534343127687 10.371410361210348 -5.5719222403752466 0.0980392157 0.0980392157 0.0980392157
v 4.9336018891506335 11.042286796015381 -9.1774458238902383 0.0980392157 0.0980392157 0.0980392157
v 4.9336018891506335 11.042286796015381 -9.1774458238902383 0.0980392157 0.0980392157 0.0980392157
v 7.4786015442521983 -0.7033841015407174 -8.8319113369825857 0.0980392157 0.0980392157 0.0980392157
v 6.3699886278870368 11.119204698356398 -5.223854726767617 0.0980392157 0.0980392157 0.0980392157
v -13.66798463889347 -0.43411767602525797 -6.6418738981582113 0.0980392157 0.0980392157 0.0980392157
v -8.164437280529226 -1.5073706638982478 -8.5209722384890636 0.0980392157 0.0980392157 0.0980392157
v -7.1850424669203612 10.276108824200202 -9.0756752798365845 0.0980392157 0.0980392157 0.0980392157
v -8.6144230044075414 7.1847604643794316 -3.7632372876273172 0.0980392157 0.0980392157 0.0980392157
v 13.044317979331247 -0.83485077986626521 -7.7414218012031242 0.0980392157 0.0980392157 0.0980392157
v 2.1358551191911204 -0.74116334294209674 -11.338255395230913 0.0980392157 0.0980392157 0.0980392157
v -8.164437280529226 -1.5073706638982478 -8.5209722384890636 0.0980392157 0.0980392157 0.0980392157
v -13.66798463889347 -0.43411767602525797 -6.6418738981582113 0.0980392157 0.0980392157 0.0980392157
v -9.4461544514864428 -0.7358279477459394 -9.9359293337940002 0.0980392157 0.0980392157 0.0980392157
v 0.18510544610029012 -0.72674331852703244 -10.048381792165822 0.0980392157 0.0980392157 0.0980392157
v 2.1358551191911204 -0.74116334294209674 -11.338255395230913 0.0980392157 0.0980392157 0.0980392157
v 13.044317979331247 -0.83485077986626521 -7.7414218012031242 0.0980392157 0.0980392157 0.0980392157
v 7.4786015442521983 -0.7033841015407174 -8.8319113369825857 0.0980392157 0.0980392157 0.0980392157
v 13.044317979331247 -0.83485077986626521 -7.7414218012031242 0.0980392157 0.0980392157 0.0980392157
v 7.2291396538106136 -1.9904760336827696 -5.2202127168789723 0.0980392157 0.0980392157 0.0980392157
v 3.0624096236804688 31.774980904871207 -6.8612765507594213 0.0980392157 0.0980392157 0.0980392157
v -13.7184258762064 11.877051326957186 -5.4154467050184918 0.0980392157 0.0980392157 0.0980392157
v -14.145807546122509 4.3282871043140698 4.4614735246083663 0.0980392157 0.0980392157 0.0980392157
v -10.932359707934008 23.533362668046255 3.9684876878099087 0.0980392157 0.0980392157 0.0980392157
v 2.9658097300841093 8.1336379962917249 -5.2213672300050273 0.0980392157 0.0980392157 0.0980392157
v -5.4899534343127687 10.371410361210348 -5.5719222403752466 0.0980392157 0.0980392157 0.0980392157
v -5.6082295174576116 15.925985116655685 -5.2500030314668846 0.0980392157 0.0980392157 0.0980392157
v -12.202491245565852 14.222073151356028 -8.2664332073933693 0.0980392157 0.0980392157 0.0980392157
v -13.66798463889347 -0.43411767602525797 -6.6418738981582113 0.0980392157 0.0980392157 0.0980392157
v 7.2291396538106136 -1.9904760336827696 -5.2202127168789723 0.0980392157 0.0980392157 0.0980392157
v 6.3699886278870368 11.119204698356398 -5.223854726767617 0.0980392157 0.0980392157 0.0980392157
v -8.2449279299796849 7.5541458665544869 4.8517432736518451 0.0980392157 0.0980392157 0.0980392157
v -9.3582537055010206 -4.8570685500529782 3.8157444460311472 0.0980392157 0.0980392157 0.0980392157
v -13.66798463889347 -0.43411767602525797 -6.6418738981582113 0.0980392157 0.0980392157 0.0980392157
v -8.164437280529226 -1.5073706638982478 -8.5209722384890636 0.0980392157 0.0980392157 0.0980392157
v 0.80666158664887599 31.03162781406305 0.39298780326473737 0.0980392157 0.0980392157 0.0980392157
v 7.7327816161043597 27.768033856299354 1.5815118342588066 0.0980392157 0.0980392157 0.0980392157
v 8.9110854783117368 26.160697383090088 -7.7261782398240655 0.0980392157 0.0980392157 0.0980392157
v 10.761027349475576 21.642953930136706 4.1465649549305077 0.0980392157 0.0980392157 0.0980392157
v 13.752139572382422 3.2353951194711787 3.9793242698521638 0.0980392157 0.0980392157 0.0980392157
v 12.831856935559598 13.141345995556847 -7.2498309541047465 0.0980392157 0.0980392157 0.0980392157
v 4.6990991199921517 8.6690673849955502 -1.2675002031293889 0.0980392157 0.0980392157 0.0980392157
v 2.9658097300841093 8.1336379962917249 -5.2213672300050273 0.0980392157 0.0980392157 0.0980392157
v 7.2291396538106136 -1.9904760336827696 -5.2202127168789723 0.0980392157 0.0980392157 0.0980392157
v -4.7941707510619187 8.9980174757174289 0.098002593115945599 0.0980392157 0.0980392157 0.0980392157
v -8.6144230044075414 7.1847604643794316 -3.7632372876273172 0.0980392157 0.0980392157 0.0980392157
v 2.9658097300841093 8.1336379962917249 -5.2213672300050273 0.0980392157 0.0980392157 0.0980392157
v 4.6990991199921517 8.6690673849955502 -1.2675002031293889 0.0980392157 0.0980392157 0.0980392157
v -14.145807546122509 4.3282871043140698 4.4614735246083663 0.0980392157 0.0980392157 0.0980392157
v -13.66798463889347 -0.43411767602525797 -6.6418738981582113 0.0980392157 0.0980392157 0.0980392157
v -9.3582537055010206 -4.8570685500529782 3.8157444460311472 0.0980392157 0.0980392157 0.0980392157
v 6.5603925579628495 -5.9014854311872931 1.419976426669967 0.0980392157 0.0980392157 0.0980392157
v 4.6990991199921517 8.6690673849955502 -1.2675002031293889 0.0980392157 0.0980392157 0.0980392157
v 7.2291396538106136 -1.9904760336827696 -5.2202127168789723 0.0980392157 0.0980392157 0.0980392157
v -5.120334172684343 27.797695954710363 4.2606914293422466 0.0980392157 0.0980392157 0.0980392157
v -10.932359707934008 23.533362668046255 3.9684876878099087 0.0980392157 0.0980392157 0.0980392157
v -8.2449279299796849 7.5541458665544869 4.8517432736518451 0.0980392157 0.0980392157 0.0980392157
v 4.9796321842778424 7.4747223594553542 4.8533335338913881 0.0980392157 0.0980392157 0.0980392157
v 7.1692799205053488 -3.2260541477016202 4.7964276859586414 0.0980392157 0.0980392157 0.0980392157
v 7.1692799205053488 -3.2260541477016202 4.7964276859586414 0.0980392157 0.0980392157 0.0980392157
v 6.5603925579628495 -5.9014854311872931 1.419976426669967 0.0980392157 0.0980392157 0.0980392157
v 13.752139572382422 3.2353951194711787 3.9793242698521638 0.0980392157 0.0980392157 0.0980392157
v 5.4556212347584587 24.556023709625538 6.268739206574331 0.0980392157 0.0980392157 0.0980392157
v 4.9796321842778424 7.4747223594553542 4.8533335338913881 0.0980392157 0.0980392157 0.0980392157
v 5.4556212347584587 24.556023709625538 6.268739206574331 0.0980392157 0.0980392157 0.0980392157
v -9.2612529653346964 12.617643574273226 8.2404413712094637 0.0980392157 0.0980392157 0.0980392157
v 9.24439001018564 12.14854868397253 8.1606500831473863 0.0980392157 0.0980392157 0.0980392157
v -9.2612529653346964 12.617643574273226 8.2404413712094637 0.0980392157 0.0980392157 0.0980392157
v -14.145807546122509 4.3282871043140698 4.4614735246083663 0.0980392157 0.0980392157 0.0980392157
v -8.2449279299796849 7.5541458665544869 4.8517432736518451 0.0980392157 0.0980392157 0.0980392157
v -9.2612529653346964 12.617643574273226 8.2404413712094637 0.0980392157 0.0980392157 0.0980392157
v -8.2449279299796849 7.5541458665544869 4.8517432736518451 0.0980392157 0.0980392157 0.0980392157
v 6.1755429050719206 10.780393278459783 5.5710779027134256 0.0980392157 0.0980392157 0.0980392157
v -8.2449279299796849 7.5541458665544869 4.8517432736518451 0.0980392157 0.0980392157 0.0980392157
v 4.9796321842778424 7.4747223594553542 4.8533335338913881 0.0980392157 0.0980392157 0.0980392157
v 6.1755429050719206 10.780393278459783 5.5710779027134256 0.0980392157 0.0980392157 0.0980392157
v 7.1692799205053488 -3.2260541477016202 4.7964276859586414 0.0980392157 0.0980392157 0.0980392157
v -9.3582537055010206 -4.8570685500529782 3.8157444460311472 0.0980392157 0.0980392157 0.0980392157
v -14.145807546122509 4.3282871043140698 4.4614735246083663 0.0980392157 0.0980392157 0.0980392157
v 7.1692799205053488 -3.2260541477016202 4.7964276859586414 0.0980392157 0.0980392157 0.0980392157
v 13.752139572382422 3.2353951194711787 3.9793242698521638 0.0980392157 0.0980392157 0.0980392157
v -4.3335309983866281 22.469469711626481 7.1529627461344516 0.0980392157 0.0980392157 0.0980392157
v -10.932359707934008 23.533362668046255 3.9684876878099087 0.0980392157 0.0980392157 0.0980392157
v 9.24439001018564 12.14854868397253 8.1606500831473863 0.0980392157 0.0980392157 0.0980392157
v 6.1755429050719206 10.780393278459783 5.5710779027134256 0.0980392157 0.0980392157 0.0980392157
v 13.752139572382422 3.2353951194711787 3.9793242698521638 0.0980392157 0.0980392157 0.0980392157
v 9.24439001018564 12.14854868397253 8.1606500831473863 0.0980392157 0.0980392157 0.0980392157
v -9.835616256155328 25.85202880395769 -6.571384718176736 0.0980392157 0.0980392157 0.0980392157
v 6.5603925579628495 -5.9014854311872931 1.419976426669967 0.0980392157 0.0980392157 0.0980392157
v 13.044317979331247 -0.83485077986626521 -7.7414218012031242 0.0980392157 0.0980392157 0.0980392157
v 13.752139572382422 3.2353951194711787 3.9793242698521638 0.0980392157 0.0980392157 0.0980392157
v -5.3322007106476041 31.227430858756978 -3.5959289598256214 0.0980392157 0.0980392157 0.0980392157
v 9.24439001018564 12.14854868397253 8.1606500831473863 0.0980392157 0.0980392157 0.0980392157
v 7.2291396538106136 -1.9904760336827696 -5.2202127168789723 0.0980392157 0.0980392157 0.0980392157
v -8.6144230044075414 7.1847604643794316 -3.7632372876273172 0.0980392157 0.0980392157 0.0980392157
v -5.6082295174576116 15.925985116655685 -5.2500030314668846 0.0980392157 0.0980392157 0.0980392157
v 2.9658097300841093 8.1336379962917249 -5.2213672300050273 0.0980392157 0.0980392157 0.0980392157
v 2.9658097300841093 8.1336379962917249 -5.2213672300050273 0.0980392157 0.0980392157 0.0980392157
v 4.9336018891506335 11.042286796015381 -9.1774458238902383 0.0980392157 0.0980392157 0.0980392157
v 6.3699886278870368 11.119204698356398 -5.223854726767617 0.0980392157 0.0980392157 0.0980392157
v 6.5603925579628495 -5.9014854311872931 1.419976426669967 0.0980392157 0.0980392157 0.0980392157
v -8.2449279299796849 7.5541458665544869 4.8517432736518451 0.0980392157 0.0980392157 0.0980392157
v -9.3582537055010206 -4.8570685500529782 3.8157444460311472 0.0980392157 0.0980392157 0.0980392157
v 2.9975652694702148 16.678966522216797 -5.25 0.0980392157 0.0980392157 0.0980392157
v 13.044317979331247 -0.83485077986626521 -7.7414218012031242 0.0980392157 0.0980392157 0.0980392157
v 2.9242910434222469 16.715191124128427 -9.6276708723875757 0.0980392157 0.0980392157 0.0980392157
v 7.4786015442521983 -0.7033841015407174 -8.8319113369825857 0.0980392157 0.0980392157 0.0980392157
vn -0.33631384372711182 0.41051203012466431 -0.8475688099861145
vn 0.27460777759552002 0.69646948575973511 -0.66296368837356567
vn -0.023303352296352386 0.10595452040433884 -0.99409788846969604
vn -0.87969028949737549 0.42876023054122925 -0.20569312572479248
vn -0.44410073757171631 0.89512676000595093 0.039020072668790817
vn 0.23088198900222778 0.024311209097504616 -0.97267800569534302
vn 0.5459519624710083 0.23441995680332184 -0.80435299873352051
vn 0.69201982021331787 0.085271216928958893 -0.71682447195053101
vn 0.085484810173511505 -0.99631226062774658 -0.007363426499068737
vn 0.089412398636341095 -0.99595290422439575 -0.0091237854212522507
vn 0.089916959404945374 -0.99591398239135742 -0.0083830850198864937
vn 0.14274720847606659 -0.046253573149442673 0.98867779970169067
vn 0.22153113782405853 -0.028976503759622574 0.97472268342971802
vn -0.097263231873512268 -0.036234598606824875 0.9945988655090332
vn 0.99610364437103271 0.084661304950714111 -0.024698866531252861
vn 0.99623668193817139 0.082617193460464478 -0.026208372786641121
vn 0.99599975347518921 0.086584798991680145 -0.02208181656897068
vn -0.9959108829498291 -0.087130971252918243 -0.023868698626756668
vn -0.99594426155090332 -0.086805768311023712 -0.023660857230424881
vn -0.99459034204483032 -0.098729468882083893 -0.03228871151804924
vn -0.35851144790649414 0.015181165188550949 -0.93340188264846802
vn -0.58362919092178345 0.075222812592983246 -0.8085286021232605
vn -0.020605335012078285 -0.011397704482078552 0.99972271919250488
vn 0.25836184620857239 -0.017084825783967972 0.96589714288711548
vn 0.94656801223754883 -0.32232317328453064 -0.010805630125105381
vn 0.94656801223754883 -0.32232317328453064 -0.010805630125105381
vn 0.94656801223754883 -0.32232317328453064 -0.010805630125105381
vn -0.1739143431186676 -0.027801511809229851 0.98436826467514038
vn -0.99584943056106567 -0.08916754275560379 -0.018251344561576843
vn -0.98973715305328369 -0.13744543492794037 -0.039103865623474121
vn -0.99582433700561523 -0.089449942111968994 -0.018235901370644569
vn -0.73538112640380859 0.0044796941801905632 -0.6776389479637146
vn 0.97068196535110474 0.040917310863733292 0.23685914278030396
vn 0.9567340612411499 0.027508310973644257 0.28966051340103149
vn 0.99864870309829712 -0.0063206050544977188 0.051582712680101395
vn 0.63250666856765747 0.012788748368620872 -0.77444934844970703
vn 0.082138799130916595 0.0082345372065901756 -0.99658685922622681
vn 0.0076496489346027374 -0.99477273225784302 -0.1018265038728714
vn -0.076200187206268311 -0.99495911598205566 0.065191209316253662
vn -0.0072964867576956749 -0.99770957231521606 -0.067249007523059845
vn -0.006468246690928936 -0.99995279312133789 0.0072493301704525948
vn -0.0045362375676631927 -0.99998903274536133 0.001174353645183146
vn 0.015875963494181633 -0.99805730581283569 -0.060245834290981293
vn 0.036999005824327469 -0.98965603113174438 -0.13860753178596497
vn 0.22515600919723511 -0.9291454553604126 -0.29324644804000854
vn 0.16330103576183319 -0.92424225807189941 -0.34512180089950562
vn 0.28223532438278198 0.93355739116668701 -0.22093842923641205
vn -0.98569667339324951 0.10633973777294159 -0.13074374198913574
vn -0.99201953411102295 0.051126807928085327 0.11525332182645798
vn -0.86569821834564209 0.36116483807563782 0.34659269452095032
vn 0.00012868456542491913 0.0034649595618247986 -0.99999397993087769
vn -6.1119283145671943E-07 -7.370090315816924E-07 -1
vn 0 0 -1
vn -0.90534788370132446 0.051413018256425858 -0.42154699563980103
vn -0.9781498908996582 -0.00029371349955908954 -0.20790070295333862
vn 0.0057434611953794956 -0.21286076307296753 -0.97706568241119385
vn 0.015151713043451309 0.020946098491549492 -0.99966579675674438
vn 0.99673652648925781 -0.058087386190891266 -0.056054577231407166
vn -0.47921589016914368 -0.8146788477897644 -0.32657390832901001
vn -0.33273157477378845 -0.75221598148345947 -0.56873613595962524
vn -0.28962820768356323 -0.68475526571273804 -0.66874939203262329
vn 0.025374015793204308 0.89336520433425903 0.44861432909965515
vn 0.66195416450500488 0.69227129220962524 0.28736239671707153
vn 0.85558730363845825 0.43686589598655701 -0.27770230174064636
vn 0.86893022060394287 0.3180193305015564 0.37924128770828247
vn 0.99671739339828491 0.027835797518491745 0.07602374255657196
vn 0.97421121597290039 0.11644849181175232 -0.19326740503311157
vn -0.89222395420074463 -0.42836076021194458 -0.14298053085803986
vn -0.89222395420074463 -0.42836076021194458 -0.14298053085803986
vn -0.89222395420074463 -0.42836076021194458 -0.14298053085803986
vn 0.10204289853572845 -0.99396729469299316 -0.040202256292104721
vn 0.31228494644165039 -0.9402003288269043 0.13602007925510406
vn -0.11699766665697098 -0.79224175214767456 0.59888607263565063
vn -0.014585152268409729 -0.99587917327880859 0.089509718120098114
vn -0.77998149394989014 -0.30795985460281372 0.54478394985198975
vn -0.44764837622642517 -0.89342188835144043 -0.037526160478591919
vn -0.69190526008605957 -0.69840466976165771 0.18302468955516815
vn -0.9911540150642395 -0.1326436847448349 0.0043981294147670269
vn -0.9910845160484314 0.13225056231021881 0.016163021326065063
vn -0.99705219268798828 -0.018318627029657364 -0.074507653713226318
vn -0.19368995726108551 0.69054490327835083 0.6968730092048645
vn -0.45130875706672668 0.61772054433822632 0.6440044641494751
vn 0.39842239022254944 -0.91664606332778931 0.031930733472108841
vn -0.045233506709337234 -0.90829533338546753 -0.41587677597999573
vn -0.99694317579269409 -0.042810201644897461 0.065357431769371033
vn 0.7910006046295166 -0.6093791127204895 -0.054545115679502487
vn 0.86648750305175781 -0.48432725667953491 0.12094011902809143
vn 0.5797385573387146 -0.76347553730010986 -0.28461956977844238
vn 0.24151316285133362 0.35410541296005249 0.90348255634307861
vn -0.9861454963684082 0.059415262192487717 0.15487715601921082
vn 0.16615165770053864 0.48639169335365295 0.85779762268066406
vn -0.28044807910919189 0.14695215225219727 0.94855362176895142
vn 0.507987380027771 0.28545409440994263 0.81268984079360962
vn 0.49706682562828064 -0.69030356407165527 0.52574288845062256
vn 0.079972334206104279 -0.42443916201591492 0.90191787481307983
vn 0.049937289208173752 -0.51941728591918945 0.85306030511856079
vn 0.13352912664413452 -0.67394208908081055 0.72661685943603516
vn 0.13966402411460876 -0.80178582668304443 0.58106237649917603
vn -0.035792544484138489 -0.86493992805480957 0.50059747695922852
vn 0.037238828837871552 0.043748445808887482 0.99834829568862915
vn -0.0018787444569170475 -0.0038444416131824255 0.99999082088470459
vn 0.0016742529114708304 0.045682169497013092 0.99895459413528442
vn 0.056025750935077667 -0.27811124920845032 0.95891356468200684
vn -0.18818630278110504 -0.32152947783470154 0.92801117897033691
vn -0.38407513499259949 -0.18904899060726166 0.90374040603637695
vn 0.29828569293022156 -0.15761196613311768 0.94137352705001831
vn 0.30538874864578247 -0.088337235152721405 0.94812142848968506
vn -0.13352662324905396 0.22790555655956268 0.96448415517807007
vn -0.34702417254447937 0.2712496817111969 0.89777380228042603
vn 0.25406700372695923 0.16987594962120056 0.95215129852294922
vn 0.020363597199320793 -0.44724357128143311 0.89418035745620728
vn -0.0080918660387396812 -0.4633660614490509 0.88613003492355347
vn -0.058082859963178635 -0.49042859673500061 0.86954367160797119
vn -0.62858831882476807 0.33278495073318481 -0.70294439792633057
vn 0.76563102006912231 -0.62956357002258301 0.13213200867176056
vn 0.63828498125076294 -0.73836922645568848 0.21772274374961853
vn 0.59795022010803223 -0.78327733278274536 0.17009469866752625
vn -0.24338923394680023 0.94352376461029053 0.22477683424949646
vn -0.097644448280334473 -0.87921369075775146 0.46631413698196411
vn -0.99298214912414551 -0.11523927748203278 -0.026577252894639969
vn 7.7434259537767502E-07 9.3374370635501691E-07 -1
vn 0.99593454599380493 0.087614871561527252 -0.020927367731928825
vn -0.99524110555648804 -0.093187354505062103 -0.028481682762503624
vn 0.027050083503127098 -0.9996301531791687 0.0027949840296059847
vn 0.078188776969909668 -0.99647694826126099 -0.03033466637134552
vn 0.065550193190574646 -0.9976036548614502 -0.022139851003885269
vn 0.11931049078702927 -0.92372500896453857 -0.36400148272514343
vn 0.073493555188179016 -0.84624141454696655 -0.52770650386810303
vn 0.99987369775772095 0.014418465085327625 0.0066836699843406677
vn 0 0 -1
vn 0.98229694366455078 -0.0040298197418451309 -0.18728706240653992
vn 0.083699673414230347 -0.99646317958831787 -0.0074464329518377781
vn -0.22743599116802216 -0.0071736839599907398 0.97376662492752075
usemtl vc_191919__Default
f 1//1 2//2 3//3
f 4//4 5//5 1//1
f 6//6 3//3 7//7
f 8//8 6//6 7//7
f 11//11 132//132 9//9 10//10
f 12//12 13//13 14//14
f 15//15 16//16 17//17
f 18//18 19//19 20//20
f 3//3 21//21 22//22
f 23//23 14//14 13//13
f 23//23 13//13 24//24
f 25//25 26//26 27//27
f 14//14 23//23 28//28
f 29//29 30//30 31//31
f 32//32 22//22 21//21
f 33//33 34//34 35//35
f 6//6 36//36 37//37
f 38//38 39//39 40//40
f 41//41 38//38 40//40
f 42//42 43//43 44//44
f 44//44 45//45 46//46
f 1//1 5//5 47//47
f 48//48 4//4 22//22
f 48//48 49//49 50//50
f 53//53 130//130 51//51 52//52
f 48//48 54//54 55//55
f 56//56 51//51 57//57
f 35//35 58//58 33//33
f 59//59 60//60 61//61
f 62//62 47//47 5//5
f 63//63 47//47 62//62
f 63//63 64//64 47//47
f 65//65 66//66 67//67
f 68//68 69//69 70//70
f 49//49 48//48 55//55
f 71//71 72//72 73//73
f 71//71 73//73 74//74
f 75//75 76//76 77//77
f 78//78 79//79 80//80
f 81//81 5//5 82//82
f 83//83 72//72 71//71
f 71//71 74//74 84//84
f 78//78 85//85 79//79
f 86//86 87//87 88//88
f 62//62 81//81 89//89
f 85//85 90//90 79//79
f 63//63 91//91 65//65
f 92//92 50//50 49//49
f 93//93 66//66 65//65
f 94//94 95//95 96//96
f 97//97 98//98 99//99
f 100//100 101//101 102//102
f 102//102 101//101 103//103
f 104//104 100//100 105//105
f 106//106 107//107 102//102
f 92//92 108//108 109//109
f 110//110 89//89 108//108
f 110//110 65//65 89//89
f 111//111 112//112 113//113
f 36//36 6//6 8//8
f 42//42 44//44 41//41
f 50//50 108//108 81//81
f 114//114 1//1 22//22
f 7//7 3//3 2//2
f 22//22 1//1 3//3
f 37//37 3//3 6//6
f 41//41 40//40 42//42
f 115//115 116//116 117//117
f 62//62 118//118 81//81
f 97//97 99//99 119//119
f 81//81 108//108 89//89
f 37//37 21//21 3//3
f 5//5 4//4 50//50
f 63//63 62//62 91//91
f 30//30 120//120 31//31
f 48//48 50//50 4//4
f 51//51 121//121 52//52
f 15//15 17//17 122//122
f 18//18 20//20 123//123
f 124//124 125//125 126//126
f 45//45 127//127 46//46
f 64//64 63//63 65//65
f 65//65 67//67 64//64
f 71//71 84//84 128//128
f 33//33 58//58 129//129
f 110//110 108//108 92//92
f 131//131 67//67 66//66
f 133//133 28//28 23//23
