# Dual color encoding: per-vertex RGB for Rerun, face MTL colors for legacy RViz.
mtllib sim_gene01_l_hand_index_4.mtl
# Rhino

g sim_gene01_l_hand_index_4
v 9.7844162825270793 24.728360951666929 -6.5549728961720621 0.0980392157 0.0980392157 0.0980392157
v 13.078523847012857 11.77385585497165 -6.521381365232962 0.0980392157 0.0980392157 0.0980392157
v 10.036988440141229 11.448924669211465 -9.1939036549505389 0.0980392157 0.0980392157 0.0980392157
v 5.5033516226490704 28.867455581187713 -8.4912083634476598 0.0980392157 0.0980392157 0.0980392157
v 5.5685969589148892 -0.49465123939997524 -9.8075101479616471 0.0980392157 0.0980392157 0.0980392157
v 1.7763726771167399 -0.7215404238359453 -11.320238938244806 0.0980392157 0.0980392157 0.0980392157
v 12.754233406477745 -0.99429846885830764 -7.8934420203856845 0.0980392157 0.0980392157 0.0980392157
v -0.87784487037414216 22.485590352762813 -10.727425398288643 0.0980392157 0.0980392157 0.0980392157
v 1.7763726771167399 -0.7215404238359453 -11.320238938244806 0.0980392157 0.0980392157 0.0980392157
v 5.5685969589148892 -0.49465123939997524 -9.8075101479616471 0.0980392157 0.0980392157 0.0980392157
v 4.0713750256936532 18.020347245596938 -8.8995283849277449 0.0980392157 0.0980392157 0.0980392157
v -4.5657932269066812 18.13068515321369 -9.1984836721915268 0.0980392157 0.0980392157 0.0980392157
v 4.0713750256936532 18.020347245596938 -8.8995283849277449 0.0980392157 0.0980392157 0.0980392157
v 5.5685969589148892 -0.49465123939997524 -9.8075101479616471 0.0980392157 0.0980392157 0.0980392157
v 5.8035190095559566 7.6557038129108506 -5.0964938134222599 0.0980392157 0.0980392157 0.0980392157
v 6.293132778956811 -5.2115052216807962 0.82422251064731056 0.0980392157 0.0980392157 0.0980392157
v 6.3950736433475015 -1.1963061890925388 5.3188231803930606 0.0980392157 0.0980392157 0.0980392157
v -4.5856925521204221 31.455279905683895 -8.067498498034368 0.0980392157 0.0980392157 0.0980392157
v -4.5856925521204221 31.455279905683895 -8.067498498034368 0.0980392157 0.0980392157 0.0980392157
v 4.9597392562450482 31.15419127343689 -1.297737715692177 0.0980392157 0.0980392157 0.0980392157
v 5.5033516226490704 28.867455581187713 -8.4912083634476598 0.0980392157 0.0980392157 0.0980392157
v -4.5455678013227656 18.525713352501679 -5.4221747981786867 0.0980392157 0.0980392157 0.0980392157
v 4.0713750256936532 18.020347245596938 -8.8995283849277449 0.0980392157 0.0980392157 0.0980392157
v 3.8920363203991322 17.459412881640468 -5.2080176550826911 0.0980392157 0.0980392157 0.0980392157
v -6.0818054609611991 -0.76527663117422551 -10.512331673816721 0.0980392157 0.0980392157 0.0980392157
v -4.5657932269066812 18.13068515321369 -9.1984836721915268 0.0980392157 0.0980392157 0.0980392157
v -6.0818054609611991 -0.76527663117422551 -10.512331673816721 0.0980392157 0.0980392157 0.0980392157
v -5.7405355286250179 7.0129762089162861 -9.2453616517366459 0.0980392157 0.0980392157 0.0980392157
v -4.5657932269066812 18.13068515321369 -9.1984836721915268 0.0980392157 0.0980392157 0.0980392157
v -4.5455678013227656 18.525713352501679 -5.4221747981786867 0.0980392157 0.0980392157 0.0980392157
v -5.6257530949049652 8.2227839197782622 -4.8610120213883548 0.0980392157 0.0980392157 0.0980392157
v -8.7116019366352724 4.0283722825377257 -5.1381530894074814 0.0980392157 0.0980392157 0.0980392157
v -5.7405355286250179 7.0129762089162861 -9.2453616517366459 0.0980392157 0.0980392157 0.0980392157
v -5.6257530949049652 8.2227839197782622 -4.8610120213883548 0.0980392157 0.0980392157 0.0980392157
v -8.7116019366352724 4.0283722825377257 -5.1381530894074814 0.0980392157 0.0980392157 0.0980392157
v -9.2670770299988146 -3.2838850741428685 -2.6011169089360155 0.0980392157 0.0980392157 0.0980392157
v -6.0818054609611991 -0.76527663117422551 -10.512331673816721 0.0980392157 0.0980392157 0.0980392157
v -13.501773484039965 11.770742363343629 -7.8109257470148616 0.0980392157 0.0980392157 0.0980392157
v -6.0818054609611991 -0.76527663117422551 -10.512331673816721 0.0980392157 0.0980392157 0.0980392157
v -13.433340442651136 -0.0073057828941363034 -7.4378756497457212 0.0980392157 0.0980392157 0.0980392157
v -13.433340442651136 -0.0073057828941363034 -7.4378756497457212 0.0980392157 0.0980392157 0.0980392157
v -9.2670770299988146 -3.2838850741428685 -2.6011169089360155 0.0980392157 0.0980392157 0.0980392157
v -10.773322171396448 23.723278992320278 -6.7115143576800458 0.0980392157 0.0980392157 0.0980392157
v 10.373905843836539 23.466568210289154 4.3398506136743338 0.0980392157 0.0980392157 0.0980392157
v 13.078523847012857 11.77385585497165 -6.521381365232962 0.0980392157 0.0980392157 0.0980392157
v -4.5455678013227656 18.525713352501679 -5.4221747981786867 0.0980392157 0.0980392157 0.0980392157
v 3.8920363203991322 17.459412881640468 -5.2080176550826911 0.0980392157 0.0980392157 0.0980392157
v 5.8035190095559566 7.6557038129108506 -5.0964938134222599 0.0980392157 0.0980392157 0.0980392157
v 13.430782393834535 1.0983797924485379 1.2376838048340422 0.0980392157 0.0980392157 0.0980392157
v 12.754233406477745 -0.99429846885830764 -7.8934420203856845 0.0980392157 0.0980392157 0.0980392157
v -5.6257530949049652 8.2227839197782622 -4.8610120213883548 0.0980392157 0.0980392157 0.0980392157
v 5.8035190095559566 7.6557038129108506 -5.0964938134222599 0.0980392157 0.0980392157 0.0980392157
v 3.005305290222168 8.9940423965454102 0.17013207077980042 0.0980392157 0.0980392157 0.0980392157
v -6.251875848896276 30.224754444029521 0.2833394666405461 0.0980392157 0.0980392157 0.0980392157
v -8.9915331922388457 3.2981389481378454 5.3104660811238107 0.0980392157 0.0980392157 0.0980392157
v -9.2670770299988146 -3.2838850741428685 -2.6011169089360155 0.0980392157 0.0980392157 0.0980392157
v -8.7116019366352724 4.0283722825377257 -5.1381530894074814 0.0980392157 0.0980392157 0.0980392157
v -8.9915331922388457 3.2981389481378454 5.3104660811238107 0.0980392157 0.0980392157 0.0980392157
v -10.773322171396448 23.723278992320278 -6.7115143576800458 0.0980392157 0.0980392157 0.0980392157
v -11.557252801064712 22.7405990914589 1.2749139461443013 0.0980392157 0.0980392157 0.0980392157
v -9.7994307712306963 -3.3640267278513609 4.1082852251657833 0.0980392157 0.0980392157 0.0980392157
v -13.433340442651136 -0.0073057828941363034 -7.4378756497457212 0.0980392157 0.0980392157 0.0980392157
v -9.2670770299988146 -3.2838850741428685 -2.6011169089360155 0.0980392157 0.0980392157 0.0980392157
v -14.277089136445458 1.4720661923162544 1.5054543305830337 0.0980392157 0.0980392157 0.0980392157
v -13.433340442651136 -0.0073057828941363034 -7.4378756497457212 0.0980392157 0.0980392157 0.0980392157
v -9.7994307712306963 -3.3640267278513609 4.1082852251657833 0.0980392157 0.0980392157 0.0980392157
v -14.277089136445458 1.4720661923162544 1.5054543305830337 0.0980392157 0.0980392157 0.0980392157
v -13.501773484039965 11.770742363343629 -7.8109257470148616 0.0980392157 0.0980392157 0.0980392157
v -13.433340442651136 -0.0073057828941363034 -7.4378756497457212 0.0980392157 0.0980392157 0.0980392157
v 9.7078549613939273 -3.7027422589215369 3.6299959714006471 0.0980392157 0.0980392157 0.0980392157
v 12.754233406477745 -0.99429846885830764 -7.8934420203856845 0.0980392157 0.0980392157 0.0980392157
v 13.430782393834535 1.0983797924485379 1.2376838048340422 0.0980392157 0.0980392157 0.0980392157
v 6.293132778956811 -5.2115052216807962 0.82422251064731056 0.0980392157 0.0980392157 0.0980392157
v 12.754233406477745 -0.99429846885830764 -7.8934420203856845 0.0980392157 0.0980392157 0.0980392157
v 9.7078549613939273 -3.7027422589215369 3.6299959714006471 0.0980392157 0.0980392157 0.0980392157
v 5.7557747156961527 7.0601291265591808 5.0929600374051338 0.0980392157 0.0980392157 0.0980392157
v 3.005305290222168 8.9940423965454102 0.17013207077980042 0.0980392157 0.0980392157 0.0980392157
v 5.8035190095559566 7.6557038129108506 -5.0964938134222599 0.0980392157 0.0980392157 0.0980392157
v 3.005305290222168 8.9940423965454102 0.17013207077980042 0.0980392157 0.0980392157 0.0980392157
v 5.7557747156961527 7.0601291265591808 5.0929600374051338 0.0980392157 0.0980392157 0.0980392157
v -5.60948271097954 7.9538803968424023 4.8904327953773228 0.0980392157 0.0980392157 0.0980392157
v -5.6257530949049652 8.2227839197782622 -4.8610120213883548 0.0980392157 0.0980392157 0.0980392157
v -5.60948271097954 7.9538803968424023 4.8904327953773228 0.0980392157 0.0980392157 0.0980392157
v -8.861798257459979 24.59759389043154 5.157198190372311 0.0980392157 0.0980392157 0.0980392157
v 9.7078549613939273 -3.7027422589215369 3.6299959714006471 0.0980392157 0.0980392157 0.0980392157
v 13.430782393834535 1.0983797924485379 1.2376838048340422 0.0980392157 0.0980392157 0.0980392157
v 6.3950736433475015 -1.1963061890925388 5.3188231803930606 0.0980392157 0.0980392157 0.0980392157
v 9.7078549613939273 -3.7027422589215369 3.6299959714006471 0.0980392157 0.0980392157 0.0980392157
v 6.3950736433475015 -1.1963061890925388 5.3188231803930606 0.0980392157 0.0980392157 0.0980392157
v 6.293132778956811 -5.2115052216807962 0.82422251064731056 0.0980392157 0.0980392157 0.0980392157
v 0.45803890592502694 25.523140631904326 6.644648073892041 0.0980392157 0.0980392157 0.0980392157
v 10.373905843836539 23.466568210289154 4.3398506136743338 0.0980392157 0.0980392157 0.0980392157
v -14.277089136445458 1.4720661923162544 1.5054543305830337 0.0980392157 0.0980392157 0.0980392157
v -9.7994307712306963 -3.3640267278513609 4.1082852251657833 0.0980392157 0.0980392157 0.0980392157
v -8.9915331922388457 3.2981389481378454 5.3104660811238107 0.0980392157 0.0980392157 0.0980392157
v -12.940895121141935 8.9506644919216036 6.4139362149315424 0.0980392157 0.0980392157 0.0980392157
v 7.8580115474690118 12.810063350193809 8.3593689101666602 0.0980392157 0.0980392157 0.0980392157
v 13.028630816623455 6.5594207534413451 5.1922329602373321 0.0980392157 0.0980392157 0.0980392157
v 13.430782393834535 1.0983797924485379 1.2376838048340422 0.0980392157 0.0980392157 0.0980392157
v 13.028630816623455 6.5594207534413451 5.1922329602373321 0.0980392157 0.0980392157 0.0980392157
v 6.3950736433475015 -1.1963061890925388 5.3188231803930606 0.0980392157 0.0980392157 0.0980392157
v 5.7557747156961527 7.0601291265591808 5.0929600374051338 0.0980392157 0.0980392157 0.0980392157
v 13.028630816623455 6.5594207534413451 5.1922329602373321 0.0980392157 0.0980392157 0.0980392157
v 13.028630816623455 6.5594207534413451 5.1922329602373321 0.0980392157 0.0980392157 0.0980392157
v 7.8580115474690118 12.810063350193809 8.3593689101666602 0.0980392157 0.0980392157 0.0980392157
v 5.7557747156961527 7.0601291265591808 5.0929600374051338 0.0980392157 0.0980392157 0.0980392157
v 6.3058152026062659 11.594945816231878 5.1621365851792858 0.0980392157 0.0980392157 0.0980392157
v -5.0239047234272132 12.513215055546318 5.2514897545335604 0.0980392157 0.0980392157 0.0980392157
v -12.940895121141935 8.9506644919216036 6.4139362149315424 0.0980392157 0.0980392157 0.0980392157
v -8.9915331922388457 3.2981389481378454 5.3104660811238107 0.0980392157 0.0980392157 0.0980392157
v -5.60948271097954 7.9538803968424023 4.8904327953773228 0.0980392157 0.0980392157 0.0980392157
v -12.940895121141935 8.9506644919216036 6.4139362149315424 0.0980392157 0.0980392157 0.0980392157
v -5.60948271097954 7.9538803968424023 4.8904327953773228 0.0980392157 0.0980392157 0.0980392157
v -7.4198950617656578 12.732992052574566 8.4174154088148825 0.0980392157 0.0980392157 0.0980392157
v -7.4198950617656578 12.732992052574566 8.4174154088148825 0.0980392157 0.0980392157 0.0980392157
v -5.60948271097954 7.9538803968424023 4.8904327953773228 0.0980392157 0.0980392157 0.0980392157
v -5.0239047234272132 12.513215055546318 5.2514897545335604 0.0980392157 0.0980392157 0.0980392157
v 7.8580115474690118 12.810063350193809 8.3593689101666602 0.0980392157 0.0980392157 0.0980392157
v -5.0239047234272132 12.513215055546318 5.2514897545335604 0.0980392157 0.0980392157 0.0980392157
v 6.3058152026062659 11.594945816231878 5.1621365851792858 0.0980392157 0.0980392157 0.0980392157
v -7.4198950617656578 12.732992052574566 8.4174154088148825 0.0980392157 0.0980392157 0.0980392157
v 7.8580115474690118 12.810063350193809 8.3593689101666602 0.0980392157 0.0980392157 0.0980392157
v 6.3058152026062659 11.594945816231878 5.1621365851792858 0.0980392157 0.0980392157 0.0980392157
v 5.7557747156961527 7.0601291265591808 5.0929600374051338 0.0980392157 0.0980392157 0.0980392157
v 7.8580115474690118 12.810063350193809 8.3593689101666602 0.0980392157 0.0980392157 0.0980392157
v -7.4198950617656578 12.732992052574566 8.4174154088148825 0.0980392157 0.0980392157 0.0980392157
v -7.4198950617656578 12.732992052574566 8.4174154088148825 0.0980392157 0.0980392157 0.0980392157
v -8.9915331922388457 3.2981389481378454 5.3104660811238107 0.0980392157 0.0980392157 0.0980392157
v -12.940895121141935 8.9506644919216036 6.4139362149315424 0.0980392157 0.0980392157 0.0980392157
v -14.277089136445458 1.4720661923162544 1.5054543305830337 0.0980392157 0.0980392157 0.0980392157
v -5.7405355286250179 7.0129762089162861 -9.2453616517366459 0.0980392157 0.0980392157 0.0980392157
v 13.028630816623455 6.5594207534413451 5.1922329602373321 0.0980392157 0.0980392157 0.0980392157
v 5.7557747156961527 7.0601291265591808 5.0929600374051338 0.0980392157 0.0980392157 0.0980392157
v 6.293132778956811 -5.2115052216807962 0.82422251064731056 0.0980392157 0.0980392157 0.0980392157
v -5.6257530949049652 8.2227839197782622 -4.8610120213883548 0.0980392157 0.0980392157 0.0980392157
v 12.754233406477745 -0.99429846885830764 -7.8934420203856845 0.0980392157 0.0980392157 0.0980392157
v 3.8920363203991322 17.459412881640468 -5.2080176550826911 0.0980392157 0.0980392157 0.0980392157
v 4.0713750256936532 18.020347245596938 -8.8995283849277449 0.0980392157 0.0980392157 0.0980392157
v 5.8035190095559566 7.6557038129108506 -5.0964938134222599 0.0980392157 0.0980392157 0.0980392157
v -9.7994307712306963 -3.3640267278513609 4.1082852251657833 0.0980392157 0.0980392157 0.0980392157
v -5.7405355286250179 7.0129762089162861 -9.2453616517366459 0.0980392157 0.0980392157 0.0980392157
v -5.6257530949049652 8.2227839197782622 -4.8610120213883548 0.0980392157 0.0980392157 0.0980392157
v -5.60948271097954 7.9538803968424023 4.8904327953773228 0.0980392157 0.0980392157 0.0980392157
vn 0.8814082145690918 0.37196391820907593 -0.29113990068435669
vn 0.75344192981719971 0.079883873462677002 -0.65264368057250977
vn 0.39024412631988525 0.042168445885181427 -0.91974526643753052
vn 0.38959419727325439 0.32915902137756348 -0.86015737056732178
vn 0.013058212585747242 -0.99779248237609863 -0.065112181007862091
vn -0.0031946387607604265 -0.99999356269836426 0.0016300026327371597
vn 0.13008001446723938 -0.98136413097381592 -0.14143402874469757
vn -0.023617936298251152 0.079576782882213593 -0.99654889106750488
vn 0.083810575306415558 0.019399078562855721 -0.99629288911819458
vn -0.18143658339977264 -0.0090664224699139595 0.98336082696914673
vn -0.08106500655412674 -0.11593023687601089 0.9899437427520752
vn 0.10669588297605515 -0.13191735744476318 0.98550182580947876
vn -0.98347461223602295 0.12625877559185028 -0.12975500524044037
vn -0.9842107892036438 0.064852908253669739 0.16469128429889679
vn -0.9991835355758667 0.031477786600589752 -0.025325760245323181
vn -0.99360620975494385 -0.095573656260967255 -0.060103092342615128
vn -0.98651963472366333 0.0061468230560421944 0.16352759301662445
vn -0.33448949456214905 0.43415382504463196 -0.83643722534179688
vn -0.37175232172012329 0.88884323835372925 -0.26787656545639038
vn 0.42552429437637329 0.87418824434280396 0.23393149673938751
vn 0.44778463244438171 0.75368857383728027 -0.4810846745967865
vn 0.0074871852993965149 -0.99994510412216187 -0.0073296618647873402
vn -0.19157426059246063 -0.97422659397125244 -0.11908748000860214
vn -0.20200389623641968 -0.97403597831726074 -0.10221724957227707
vn -0.0055815009400248528 -0.99981653690338135 -0.018323345109820366
vn -0.0052690533921122551 -0.99998587369918823 0.00070945732295513153
vn 0.18269592523574829 -0.0098253330215811729 0.9831203818321228
vn 0.14325280487537384 -0.020835060626268387 0.98946678638458252
vn 0.99591356515884399 -0.088597394526004791 -0.017512165009975433
vn 0.99624335765838623 -0.085485517978668213 -0.0138338478282094
vn 0.9950639009475708 -0.095990821719169617 -0.025170570239424706
vn 0.72131931781768799 -0.68939340114593506 0.066596806049346924
vn 0.71114957332611084 -0.70252400636672974 0.026950310915708542
vn 0.77826184034347534 -0.614707350730896 0.12823167443275452
vn 0.82828378677368164 -0.036090310662984848 0.55914527177810669
vn 0.86980634927749634 0.0029823945369571447 0.49338421225547791
vn 0.88366895914077759 -0.064786650240421295 0.46360746026039124
vn -0.56055104732513428 0.060572896152734756 -0.82590162754058838
vn -0.19060207903385162 0.0062758317217230797 -0.9816473126411438
vn -0.59095335006713867 0.0038031444419175386 -0.80669677257537842
vn -0.014850031584501266 -0.9997212290763855 0.018355339765548706
vn -0.11409585922956467 -0.97462397813796997 -0.19258822500705719
vn -0.70754003524780273 0.30161410570144653 -0.63907432556152344
vn 0.83428239822387695 0.36863705515861511 0.40997517108917236
vn 0.98326593637466431 0.082002498209476471 -0.16267658770084381
vn 0.0058241547085344791 -0.10166899859905243 -0.99480122327804565
vn 0.0061749983578920364 0.0055155912414193153 -0.99996572732925415
vn 0.0014196296688169241 0.031856175512075424 -0.99949145317077637
vn 0.99977785348892212 0.0091392612084746361 0.018991146236658096
vn 0.95333677530288696 0.027582595124840736 -0.30064621567726135
vn 0.0034610291477292776 -0.92282754182815552 0.38519775867462158
vn -0.015060774981975555 -0.98272430896759033 0.18446165323257446
vn -0.0016884556971490383 -0.97904276847839355 0.20364768803119659
vn -0.43734517693519592 0.82823216915130615 0.35037216544151306
vn 0.83317989110946655 -0.55180394649505615 -0.036382783204317093
vn 0.99999994039535522 0.00024841219419613481 0.00032215967075899243
vn 0.99999982118606567 -0.00039666352677159011 0.0005044191493652761
vn 0.9999997615814209 -0.00041996318032033741 -0.00057388475397601724
vn -0.90459626913070679 0.35690978169441223 -0.23306861519813538
vn -0.94747138023376465 0.3113921582698822 0.073026575148105621
vn -0.99854457378387451 0.038308445364236832 -0.037962656468153
vn -0.99537003040313721 0.075446717441082001 0.059550788253545761
vn -0.99546992778778076 0.087662339210510254 0.036809273064136505
vn -0.63169997930526733 -0.74661886692047119 -0.20860344171524048
vn -0.63169997930526733 -0.74661886692047119 -0.20860344171524048
vn -0.63169997930526733 -0.74661886692047119 -0.20860344171524048
vn -0.99876755475997925 0.022745860740542412 -0.044113807380199432
vn -0.95852863788604736 0.081027552485466003 -0.27323508262634277
vn -0.9606480598449707 0.0094637395814061165 -0.27760720252990723
vn 0.60100317001342773 -0.74010974168777466 -0.30171635746955872
vn 0.60100317001342773 -0.74010974168777466 -0.30171635746955872
vn 0.60100317001342773 -0.74010974168777466 -0.30171635746955872
vn 0.041832882910966873 -0.9599340558052063 0.27708598971366882
vn 0.45044413208961487 -0.86218339204788208 0.23181872069835663
vn 0.12841300666332245 -0.98349857330322266 0.12743882834911346
vn -0.5361141562461853 -0.84095793962478638 -0.073289796710014343
vn -0.64404141902923584 -0.76498895883560181 -0.0016035657608881593
vn -0.6502951979637146 -0.7568848729133606 0.065126225352287292
vn -0.0064581688493490219 -0.97455936670303345 -0.22403658926486969
vn -0.0018893316155299544 -0.86527758836746216 -0.5012894868850708
vn -0.00020223986939527094 -0.92009174823760986 -0.39170289039611816
vn 0.86979788541793823 -0.49278193712234497 -0.02485170029103756
vn 0.79024356603622437 -0.60922491550445557 -0.066031120717525482
vn -0.45202517509460449 0.40337207913398743 0.79559046030044556
vn 0.75190013647079468 -0.011581307277083397 0.65917527675628662
vn 0.75190013647079468 -0.011581307277083397 0.65917527675628662
vn 0.75190013647079468 -0.011581307277083397 0.65917527675628662
vn 0.17066560685634613 -0.40393552184104919 0.89872652292251587
vn 0.068448811769485474 -0.15927594900131226 0.98485833406448364
vn 0.035551343113183975 -0.84043782949447632 0.54074054956436157
vn -0.012482526712119579 0.39508971571922302 0.91855770349502563
vn 0.34621840715408325 0.65998244285583496 0.66675037145614624
vn -0.54146969318389893 0.095552079379558563 0.83527261018753052
vn -0.54146969318389893 0.095552079379558563 0.83527261018753052
vn -0.54146969318389893 0.095552079379558563 0.83527261018753052
vn -0.84618717432022095 0.1271834522485733 0.51748591661453247
vn 0.56395614147186279 0.17398889362812042 0.80726784467697144
vn 0.92879855632781982 0.021404130384325981 0.36996632814407349
vn 0.4671911895275116 -0.61657035350799561 0.6336982250213623
vn 0.42926403880119324 -0.47050401568412781 0.77094638347625732
vn 0.4553450345993042 -0.56516540050506592 0.68793094158172607
vn -0.020582567900419235 0.016542918980121613 0.99965131282806396
vn 0.30252364277839661 -0.15972708165645599 0.9396631121635437
vn 0.11454932391643524 -0.66901522874832153 0.73436850309371948
vn -0.18259717524051666 -0.17244437336921692 0.96794688701629639
vn -0.012277984991669655 -0.36287477612495422 0.93175703287124634
vn 0.029055938124656677 0.013665145263075829 0.9994843602180481
vn -0.0029665541369467974 0.00093613722128793597 0.99999517202377319
vn 0.07390613853931427 -0.27380180358886719 0.95894235372543335
vn -0.12828043103218079 0.043231729418039322 0.99079519510269165
vn -0.19272871315479279 -0.041360002011060715 0.98037999868392944
vn 0.00087025662651285529 -0.61799895763397217 0.78617841005325317
vn 0.03179694339632988 -0.59239059686660767 0.805023193359375
vn 0.11279216408729553 -0.44855093955993652 0.88661152124404907
vn 0.9508783221244812 -0.082689307630062103 0.2983168363571167
vn 0.9508783221244812 -0.082689307630062103 0.2983168363571167
vn 0.9508783221244812 -0.082689307630062103 0.2983168363571167
vn -0.23362104594707489 -0.83991497755050659 0.48986122012138367
vn 0.063193023204803467 -0.9944186806678772 0.084487736225128174
vn -0.16180580854415894 -0.91483640670776367 0.36999091506004333
vn 0.24251455068588257 -0.96965217590332031 -0.031006224453449249
vn -0.99484491348266602 0.097850307822227478 0.026626385748386383
vn -0.99484491348266602 0.097850307822227478 0.026626385748386383
vn -0.99484491348266602 0.097850307822227478 0.026626385748386383
vn 0.24417528510093689 0.13860553503036499 0.9597744345664978
vn -0.12592706084251404 0.091865837574005127 0.98777681589126587
vn -0.11166633665561676 0.20595762133598328 0.97216874361038208
vn -0.19918926060199738 -0.41049280762672424 0.88984227180480957
vn -0.19918926060199738 -0.41049280762672424 0.88984227180480957
vn -0.19918926060199738 -0.41049280762672424 0.88984227180480957
vn 0.81884616613388062 -0.065942466259002686 0.570212721824646
vn 0.98134160041809082 0.10071974247694016 0.16378101706504822
vn -0.99185466766357422 -0.088091619312763214 -0.092000991106033325
vn 0.1139473170042038 -0.83565378189086914 -0.53730696439743042
vn 0.0026055681519210339 -0.99999350309371948 -0.002484599594026804
vn 0.60148274898529053 0.017109537497162819 -0.79870253801345825
vn -0.99602663516998291 0.08668818324804306 -0.020399844273924828
vn -0.99617618322372437 0.084480501711368561 -0.022272499278187752
vn -0.99626696109771729 0.079987898468971252 -0.032466080039739609
vn 0.99999982118606567 0.00027585969655774534 -0.00050150591414421797
vn 0.99494767189025879 -0.096924424171447754 -0.026168948039412498
vn 0.00045916723320260644 -0.0085388906300067902 -0.99996346235275269
vn 0.0067062643356621265 -9.5068069640547037E-05 0.99997752904891968
usemtl vc_191919__Default
f 1//1 2//2 3//3
f 1//1 3//3 4//4
f 5//5 6//6 7//7
f 8//8 4//4 3//3
f 9//9 8//8 3//3
f 10//10 11//11 12//12
f 13//13 14//14 15//15
f 15//15 14//14 16//16 17//17
f 18//18 4//4 8//8
f 19//19 20//20 21//21
f 22//22 23//23 24//24
f 5//5 25//25 6//6
f 23//23 22//22 26//26
f 27//27 10//10 28//28
f 29//29 30//30 31//31
f 32//32 33//33 34//34
f 35//35 36//36 37//37
f 38//38 18//18 8//8
f 38//38 8//8 39//39
f 40//40 38//38 39//39
f 41//41 25//25 42//42
f 38//38 43//43 18//18
f 44//44 45//45 1//1
f 20//20 1//1 21//21
f 48//48 142//142 46//46 47//47
f 49//49 50//50 45//45
f 51//51 52//52 53//53
f 20//20 19//19 54//54
f 55//55 32//32 34//34
f 56//56 57//57 58//58
f 59//59 60//60 19//19
f 61//61 62//62 63//63
f 64//64 65//65 66//66
f 67//67 68//68 69//69
f 70//70 71//71 72//72
f 73//73 74//74 75//75
f 76//76 77//77 78//78
f 79//79 80//80 81//81
f 55//55 82//82 83//83
f 84//84 54//54 60//60
f 85//85 86//86 87//87
f 88//88 89//89 90//90
f 91//91 92//92 20//20
f 54//54 91//91 20//20
f 93//93 94//94 95//95
f 96//96 84//84 60//60
f 60//60 68//68 96//96
f 97//97 98//98 44//44
f 99//99 100//100 101//101
f 102//102 89//89 103//103
f 104//104 105//105 106//106
f 108//108 143//143 102//102 107//107
f 109//109 110//110 111//111
f 112//112 113//113 114//114
f 115//115 116//116 117//117
f 118//118 119//119 120//120
f 121//121 119//119 118//118
f 122//122 123//123 124//124
f 125//125 44//44 91//91
f 91//91 126//126 125//125
f 127//127 91//91 84//84
f 96//96 127//127 84//84
f 128//128 129//129 130//130
f 35//35 37//37 131//131
f 44//44 132//132 45//45
f 1//1 20//20 44//44
f 59//59 68//68 60//60
f 133//133 15//15 17//17
f 91//91 54//54 84//84
f 7//7 134//134 5//5
f 10//10 12//12 28//28
f 8//8 9//9 39//39
f 79//79 81//81 135//135
f 9//9 3//3 136//136
f 49//49 45//45 132//132
f 136//136 3//3 2//2
f 137//137 138//138 139//139
f 56//56 58//58 140//140
f 60//60 54//54 19//19
f 68//68 67//67 96//96
f 29//29 31//31 141//141
