# Dual color encoding: per-vertex RGB for Rerun, face MTL colors for legacy RViz.
mtllib sim_gene01_r_ankle_2.mtl
# Rhino

g sim_gene01_r_ankle_2
v 26.752196701431238 12.141641446993628 -6.0663546456626731 0.901960784 0.901960784 0.901960784
v 10.832183822752917 21.215289023286129 -18.543566788636696 0.901960784 0.901960784 0.901960784
v 24.30341322363385 -12.614387571945594 -6.2071448669472229 0.901960784 0.901960784 0.901960784
v -44.382436280568278 1.6982414508153867 -17.036491852132066 0.901960784 0.901960784 0.901960784
v -37.431367981588807 -21.621082284130047 -24.653618954900423 0.901960784 0.901960784 0.901960784
v -45.398057578433786 -11.993698887032462 11.378551084654154 0.901960784 0.901960784 0.901960784
v -37.962127037816103 21.921627607768286 -23.564130271150365 0.901960784 0.901960784 0.901960784
v -24.521397510820137 -20.562709064447791 -14.872972948092384 0.901960784 0.901960784 0.901960784
v -35.824305762636193 -22.365722740595995 7.4996595772214691 0.901960784 0.901960784 0.901960784
v 11.854256110874358 -19.889089239170318 -17.124440968571879 0.901960784 0.901960784 0.901960784
v -30.571001330930727 -11.568722668223922 20.224330400588698 0.901960784 0.901960784 0.901960784
v -32.587505311963355 -0.081193417860399048 -4.8350926447542131 0.901960784 0.901960784 0.901960784
v -30.626623601197053 21.470498193214162 8.4827120830930038 0.901960784 0.901960784 0.901960784
v -44.040907656642823 14.748399538125982 9.3700662941295594 0.901960784 0.901960784 0.901960784
v -20.842130783809736 20.61323507569282 -16.113523530524986 0.901960784 0.901960784 0.901960784
v -37.680554863325895 10.071075430775352 21.186928461154004 0.901960784 0.901960784 0.901960784
v 54.512757292951676 -22.481941874920594 -22.431346262971768 0.901960784 0.901960784 0.901960784
v 53.581379441918052 -8.8593063599590458 -8.18934727327124 0.901960784 0.901960784 0.901960784
v 43.157085019862762 -9.3342106724062575 25.060670319888953 0.901960784 0.901960784 0.901960784
v 25.18154115091567 -8.7618857859448607 7.9535904566097013 0.901960784 0.901960784 0.901960784
v 25.460540408974968 7.5004596352702047 11.085974830241247 0.901960784 0.901960784 0.901960784
v 53.060213832985461 22.578726368703187 -23.339724806571049 0.901960784 0.901960784 0.901960784
v 54.481533052414449 8.874300088745148 -8.425805439734388 0.901960784 0.901960784 0.901960784
v 55.636155853167146 -7.6578741819485687 12.277670401029004 0.901960784 0.901960784 0.901960784
v 49.953572839497831 8.7402461442436881 25.491034596516439 0.901960784 0.901960784 0.901960784
vn -0.43403744697570801 0.80969697237014771 0.39497131109237671
vn -0.13428090512752533 0.56958013772964478 0.81089276075363159
vn -0.53962880373001099 -0.6662023663520813 0.51475739479064941
vn -0.97318917512893677 0.034777786582708359 -0.22736160457134247
vn -0.20921969413757324 -0.37992003560066223 -0.90104818344116211
vn -0.96173381805419922 -0.20296181738376617 0.1840502917766571
vn -0.30925622582435608 0.51762902736663818 -0.79775983095169067
vn 0.59910601377487183 -0.35904568433761597 0.71565228700637817
vn -0.066242441534996033 -0.95122349262237549 0.30130684375762939
vn -0.14652684330940247 -0.48204156756401062 0.86380892992019653
vn 0.84910660982131958 -0.23030079901218414 0.47537299990653992
vn 0.99242651462554932 0.028656050562858582 0.11945049464702606
vn 0.78621780872344971 0.58823966979980469 0.18930315971374512
vn -0.90836507081985474 0.35338297486305237 0.22359192371368408
vn 0.33474552631378174 0.33534252643585205 0.8806195855140686
vn -0.3338431715965271 0.41085255146026611 0.84838014841079712
vn 0.39985966682434082 -0.64909571409225464 -0.64713758230209351
vn 0.66119307279586792 -0.7314072847366333 0.16693456470966339
vn -0.13807074725627899 -0.80398863554000854 0.57839328050613403
vn -0.74206364154815674 -0.58002209663391113 0.33602961897850037
vn -0.75232130289077759 0.4535711407661438 0.47779271006584167
vn 0.30256840586662292 0.51121145486831665 -0.80443471670150757
vn 0.76371431350708008 0.6165880560874939 0.19120563566684723
vn 0.80184954404830933 -0.59560555219650269 0.047867733985185623
vn 0.29744285345077515 0.81435638666152954 0.49834871292114258
usemtl vc_E6E6E6__Default
f 1//1 2//2 3//3
f 4//4 5//5 6//6
f 4//4 7//7 5//5
f 5//5 8//8 9//9
f 10//10 8//8 5//5
f 11//11 9//9 8//8
f 12//12 11//11 8//8
f 13//13 7//7 14//14
f 15//15 2//2 7//7
f 4//4 6//6 14//14
f 16//16 14//14 6//6
f 13//13 16//16 11//11
f 3//3 17//17 18//18
f 19//19 20//20 3//3
f 19//19 21//21 20//20
f 22//22 2//2 1//1
f 22//22 23//23 17//17
f 24//24 18//18 23//23
f 23//23 25//25 24//24
f 6//6 5//5 9//9
f 12//12 8//8 15//15
f 10//10 5//5 17//17
f 6//6 9//9 11//11
f 13//13 12//12 15//15
f 13//13 15//15 7//7
f 2//2 22//22 7//7
f 16//16 6//6 11//11
f 13//13 14//14 16//16
f 3//3 10//10 17//17
f 1//1 3//3 20//20
f 19//19 3//3 18//18
f 25//25 19//19 24//24
f 2//2 10//10 3//3
f 23//23 18//18 17//17
f 21//21 1//1 20//20
f 25//25 23//23 1//1
f 15//15 8//8 10//10 2//2
f 4//4 14//14 7//7
f 19//19 25//25 21//21
f 5//5 7//7 22//22 17//17
f 18//18 24//24 19//19
f 23//23 22//22 1//1
f 21//21 25//25 1//1
f 12//12 13//13 11//11
