# Dual color encoding: per-vertex RGB for Rerun, face MTL colors for legacy RViz.
mtllib sim_gene01_r_hand_index_1.mtl
# Rhino

g sim_gene01_r_hand_index_1
v -3.8560835844777355 9.264908282988733 4.5209542849376705 0.0980392157 0.0980392157 0.0980392157
v -4.2944935475511068 9.6914483251868582 3.3173729306370299 0.0980392157 0.0980392157 0.0980392157
v -5.5397998733345357 9.3979103284308714 3.3101273139390859 0.0980392157 0.0980392157 0.0980392157
v -3.8560835844777355 9.264908282988733 4.5209542849376705 0.0980392157 0.0980392157 0.0980392157
v -5.5397998733345357 9.3979103284308714 3.3101273139390859 0.0980392157 0.0980392157 0.0980392157
v -5.4674339107737007 7.5972691656564963 3.2190622700113356 0.0980392157 0.0980392157 0.0980392157
v -4.5134160225350621 6.7179367706161708 3.923196300333704 0.0980392157 0.0980392157 0.0980392157
v -5.511935620922106 9.4061653262093721 -3.2731789937167663 0.0980392157 0.0980392157 0.0980392157
v -5.6223045813802877 7.5943653311268191 -3.4491618467563567 0.0980392157 0.0980392157 0.0980392157
v -5.4674339107737007 7.5972691656564963 3.2190622700113356 0.0980392157 0.0980392157 0.0980392157
v -3.9399824978521281 10.047172210959522 -4.3528473714645051 0.0980392157 0.0980392157 0.0980392157
v -5.511935620922106 9.4061653262093721 -3.2731789937167663 0.0980392157 0.0980392157 0.0980392157
v -4.2944935475511068 9.6914483251868582 3.3173729306370299 0.0980392157 0.0980392157 0.0980392157
v -3.9927651421970651 7.2549371172840225 -4.4598093317164276 0.0980392157 0.0980392157 0.0980392157
v -4.56406796628315 7.0948491041125967 -3.7444287327834482 0.0980392157 0.0980392157 0.0980392157
v -5.511935620922106 9.4061653262093721 -3.2731789937167663 0.0980392157 0.0980392157 0.0980392157
v -4.56406796628315 7.0948491041125967 -3.7444287327834482 0.0980392157 0.0980392157 0.0980392157
v -5.4674339107737007 7.5972691656564963 3.2190622700113356 0.0980392157 0.0980392157 0.0980392157
v -5.6223045813802877 7.5943653311268191 -3.4491618467563567 0.0980392157 0.0980392157 0.0980392157
v -3.9399824978521281 10.047172210959522 -4.3528473714645051 0.0980392157 0.0980392157 0.0980392157
v -4.4974801918372664 3.782540950350608 4.0306417020573866 0.0980392157 0.0980392157 0.0980392157
v -4.0076242616816025 -0.3789962139360199 4.4923179832831988 0.0980392157 0.0980392157 0.0980392157
v -2.4806183204256591 6.8930085458912611 4.5530402153371901 0.0980392157 0.0980392157 0.0980392157
v -3.8560835844777355 9.264908282988733 4.5209542849376705 0.0980392157 0.0980392157 0.0980392157
v -4.0076242616816025 -0.3789962139360199 4.4923179832831988 0.0980392157 0.0980392157 0.0980392157
v -1.315782222930121 5.2102210101788486 4.5176472406064381 0.0980392157 0.0980392157 0.0980392157
v -4.4974801918372664 3.782540950350608 4.0306417020573866 0.0980392157 0.0980392157 0.0980392157
v -4.6920495685649843 1.4890117813016432 3.3286059122738885 0.0980392157 0.0980392157 0.0980392157
v 4.2948414030534412 -0.44536073226520045 4.483402748570116 0.0980392157 0.0980392157 0.0980392157
v 1.831809262788056 4.9605047187142191 4.5079705073914793 0.0980392157 0.0980392157 0.0980392157
v -4.8084502362536563 1.8660152737200695 -2.1515034001123783 0.0980392157 0.0980392157 0.0980392157
v -4.6920495685649843 1.4890117813016432 3.3286059122738885 0.0980392157 0.0980392157 0.0980392157
v -4.4974801918372664 3.782540950350608 4.0306417020573866 0.0980392157 0.0980392157 0.0980392157
v -4.5035547823623254 3.0150483757239304 -1.6382170658515289 0.0980392157 0.0980392157 0.0980392157
v -4.56406796628315 7.0948491041125967 -3.7444287327834482 0.0980392157 0.0980392157 0.0980392157
v -4.56406796628315 7.0948491041125967 -3.7444287327834482 0.0980392157 0.0980392157 0.0980392157
v -4.3222311444794759 -0.17313559630797215 -4.4798792693986869 0.0980392157 0.0980392157 0.0980392157
v -4.8084502362536563 1.8660152737200695 -2.1515034001123783 0.0980392157 0.0980392157 0.0980392157
v -4.3222311444794759 -0.17313559630797215 -4.4798792693986869 0.0980392157 0.0980392157 0.0980392157
v -1.8378194267740611 5.4179117327745558 -4.5070195261295432 0.0980392157 0.0980392157 0.0980392157
v 4.4655596242205258 4.4367523726288027 -4.4036791907960016 0.0980392157 0.0980392157 0.0980392157
v 4.3297727708213545 -0.50173702941343379 -4.4652821792861568 0.0980392157 0.0980392157 0.0980392157
v -4.8880227503528015 1.522876411341336 -0.36852954274969191 0.0980392157 0.0980392157 0.0980392157
v -4.8977897389939322 0.93307869030036572 1.3668381961123186 0.0980392157 0.0980392157 0.0980392157
v -4.8977897389939322 0.93307869030036572 1.3668381961123186 0.0980392157 0.0980392157 0.0980392157
v -4.8999941834749245 -0.81998599237619363 1.2542479472013672 0.0980392157 0.0980392157 0.0980392157
v -4.8999941834749245 -0.81998599237619363 1.2542479472013672 0.0980392157 0.0980392157 0.0980392157
v -4.6295236449453485 -2.8230196681366522 1.7918900366706914 0.0980392157 0.0980392157 0.0980392157
v -4.8883676475591491 -1.4979293998389103 0.36464588677178456 0.0980392157 0.0980392157 0.0980392157
v -5.0532653964819465 -1.2103203539355643 -0.89479777652845527 0.0980392157 0.0980392157 0.0980392157
v -4.2435327465939547 -2.0456294460668296 -4.0560193182659861 0.0980392157 0.0980392157 0.0980392157
v -4.9593290676556085 -0.47781148020550168 -1.4753120553698991 0.0980392157 0.0980392157 0.0980392157
v -4.897170025819257 0.63551943189114923 -1.4084717520759888 0.0980392157 0.0980392157 0.0980392157
v -4.8999941834749245 -0.81998599237619363 1.2542479472013672 0.0980392157 0.0980392157 0.0980392157
v 4.9000000953674316 -0.81765311848620392 1.2546334710847677 0.0980392157 0.0980392157 0.0980392157
v -4.8883676475591491 -1.4979293998389103 0.36464588677178456 0.0980392157 0.0980392157 0.0980392157
v 4.9000000953674316 -0.81765311848620392 1.2546334710847677 0.0980392157 0.0980392157 0.0980392157
v -4.8999941834749245 -0.81998599237619363 1.2542479472013672 0.0980392157 0.0980392157 0.0980392157
v -4.8977897389939322 0.93307869030036572 1.3668381961123186 0.0980392157 0.0980392157 0.0980392157
v -4.8880227503528015 1.522876411341336 -0.36852954274969191 0.0980392157 0.0980392157 0.0980392157
v -4.897170025819257 0.63551943189114923 -1.4084717520759888 0.0980392157 0.0980392157 0.0980392157
v 4.8269231442384104 0.69284899520718812 -1.4031946639618758 0.0980392157 0.0980392157 0.0980392157
v -5.0532653964819465 -1.2103203539355643 -0.89479777652845527 0.0980392157 0.0980392157 0.0980392157
v 5.0499551913973066 -1.2672101627604344 -0.83728298395033007 0.0980392157 0.0980392157 0.0980392157
v -4.9593290676556085 -0.47781148020550168 -1.4753120553698991 0.0980392157 0.0980392157 0.0980392157
v -5.0532653964819465 -1.2103203539355643 -0.89479777652845527 0.0980392157 0.0980392157 0.0980392157
v -4.8883676475591491 -1.4979293998389103 0.36464588677178456 0.0980392157 0.0980392157 0.0980392157
v 5.0499551913973066 -1.2672101627604344 -0.83728298395033007 0.0980392157 0.0980392157 0.0980392157
v -4.3125514466174995 -2.0937401374426372 4.0034171672818823 0.0980392157 0.0980392157 0.0980392157
v -4.6295236449453485 -2.8230196681366522 1.7918900366706914 0.0980392157 0.0980392157 0.0980392157
v -4.3238544853030803 -4.341247446666312 1.2697547268767937 0.0980392157 0.0980392157 0.0980392157
v -4.3125514466174995 -2.0937401374426372 4.0034171672818823 0.0980392157 0.0980392157 0.0980392157
v -4.0046457423267894 -3.5361868544877337 2.8191287819207833 0.0980392157 0.0980392157 0.0980392157
v -4.3238544853030803 -4.341247446666312 1.2697547268767937 0.0980392157 0.0980392157 0.0980392157
v -4.3400412175490963 -3.7029731346557595 -2.6789561386846827 0.0980392157 0.0980392157 0.0980392157
v -5.0532653964819465 -1.2103203539355643 -0.89479777652845527 0.0980392157 0.0980392157 0.0980392157
v -4.3400412175490963 -3.7029731346557595 -2.6789561386846827 0.0980392157 0.0980392157 0.0980392157
v 4.8847328995740824 1.5335036312009274 -0.20627260604573128 0.0980392157 0.0980392157 0.0980392157
v 4.9867657040621687 0.87684399497259591 1.3163648593264599 0.0980392157 0.0980392157 0.0980392157
v -4.8977897389939322 0.93307869030036572 1.3668381961123186 0.0980392157 0.0980392157 0.0980392157
v 5.0159682946459085 -0.43996827329362387 -1.4881143442798048 0.0980392157 0.0980392157 0.0980392157
v 4.7279849093566257 -1.0101871609064268 2.5076889596537222 0.0980392157 0.0980392157 0.0980392157
v 4.9000000953674316 -0.81765311848620392 1.2546334710847677 0.0980392157 0.0980392157 0.0980392157
v 4.9867657040621687 0.87684399497259591 1.3163648593264599 0.0980392157 0.0980392157 0.0980392157
v 5.0072908302202448 -1.5480328936335541 0.26104066466120135 0.0980392157 0.0980392157 0.0980392157
v 4.2760794239751627 -2.5343983068619531 3.7473224945053047 0.0980392157 0.0980392157 0.0980392157
v -4.3125514466174995 -2.0937401374426372 4.0034171672818823 0.0980392157 0.0980392157 0.0980392157
v -4.0046457423267894 -3.5361868544877337 2.8191287819207833 0.0980392157 0.0980392157 0.0980392157
v -5.0532653964819465 -1.2103203539355643 -0.89479777652845527 0.0980392157 0.0980392157 0.0980392157
v -4.2435327465939547 -2.0456294460668296 -4.0560193182659861 0.0980392157 0.0980392157 0.0980392157
v 4.3199667035268128 -4.0498068236909353 2.0327316663800352 0.0980392157 0.0980392157 0.0980392157
v -4.2435327465939547 -2.0456294460668296 -4.0560193182659861 0.0980392157 0.0980392157 0.0980392157
v 3.9997609439159714 -1.9676980163622133 -4.0812977858178634 0.0980392157 0.0980392157 0.0980392157
v -4.3400412175490963 -3.7029731346557595 -2.6789561386846827 0.0980392157 0.0980392157 0.0980392157
v -4.0046457423267894 -3.5361868544877337 2.8191287819207833 0.0980392157 0.0980392157 0.0980392157
v -4.3238544853030803 -4.341247446666312 1.2697547268767937 0.0980392157 0.0980392157 0.0980392157
v -3.9996220697000879 -4.466852734183349 -0.69955819123505836 0.0980392157 0.0980392157 0.0980392157
v -4.3238544853030803 -4.341247446666312 1.2697547268767937 0.0980392157 0.0980392157 0.0980392157
v -4.3400412175490963 -3.7029731346557595 -2.6789561386846827 0.0980392157 0.0980392157 0.0980392157
v -3.3182032604496432 10.990249226281392 4.258086600106874 0.0980392157 0.0980392157 0.0980392157
v -4.2944935475511068 9.6914483251868582 3.3173729306370299 0.0980392157 0.0980392157 0.0980392157
v -3.3570051480198497 11.04588755146276 -4.0035214698906874 0.0980392157 0.0980392157 0.0980392157
v -3.3182032604496432 10.990249226281392 4.258086600106874 0.0980392157 0.0980392157 0.0980392157
v -1.7628719359092351 8.9689516131732763 5.0443238975220703 0.0980392157 0.0980392157 0.0980392157
v -2.4806183204256591 6.8930085458912611 4.5530402153371901 0.0980392157 0.0980392157 0.0980392157
v -0.32470635754473764 6.5862184277377889 5.6949023832805379 0.0980392157 0.0980392157 0.0980392157
v 1.913184632103107 7.3999821096303195 5.045154364581534 0.0980392157 0.0980392157 0.0980392157
v 4.4799761531577174 8.2231124479410553 4.3297346010576883 0.0980392157 0.0980392157 0.0980392157
v 3.0403595840825268 11.339732555367631 4.3102426969716703 0.0980392157 0.0980392157 0.0980392157
v 2.3155039739319712 8.7526856682966709 4.7914490383096995 0.0980392157 0.0980392157 0.0980392157
v 4.088311668290701 9.9061054578412211 3.9571548276158439 0.0980392157 0.0980392157 0.0980392157
v 3.0403595840825268 11.339732555367631 4.3102426969716703 0.0980392157 0.0980392157 0.0980392157
v 4.4799761531577174 8.2231124479410553 4.3297346010576883 0.0980392157 0.0980392157 0.0980392157
v 4.4799761531577174 8.2231124479410553 4.3297346010576883 0.0980392157 0.0980392157 0.0980392157
v 4.4985638218084976 2.923763687862921 3.9820772514774174 0.0980392157 0.0980392157 0.0980392157
v 4.2948414030534412 -0.44536073226520045 4.483402748570116 0.0980392157 0.0980392157 0.0980392157
v 2.3951800910989096 9.3467269714393062 -4.676158789823373 0.0980392157 0.0980392157 0.0980392157
v 2.1823195688937957 11.962939389780205 -4.2963428222675875 0.0980392157 0.0980392157 0.0980392157
v 4.4623924804643558 8.6022327366893414 -4.3161251055323087 0.0980392157 0.0980392157 0.0980392157
v 3.6869717898571341 10.616325693835988 -4.0433005093840455 0.0980392157 0.0980392157 0.0980392157
v 4.4623924804643558 8.6022327366893414 -4.3161251055323087 0.0980392157 0.0980392157 0.0980392157
v 2.1823195688937957 11.962939389780205 -4.2963428222675875 0.0980392157 0.0980392157 0.0980392157
v 0.38488905113347482 12.480408695891004 -4.1631027388109496 0.0980392157 0.0980392157 0.0980392157
v 2.1823195688937957 11.962939389780205 -4.2963428222675875 0.0980392157 0.0980392157 0.0980392157
v 0.32011020199303974 11.144397733908647 -4.5369341555284715 0.0980392157 0.0980392157 0.0980392157
v -1.6075332676684062 12.233893633116365 -4.2371490550171371 0.0980392157 0.0980392157 0.0980392157
v 1.3828336744443135 5.9228674854013104 -4.9184596441790074 0.0980392157 0.0980392157 0.0980392157
v 4.4623924804643558 8.6022327366893414 -4.3161251055323087 0.0980392157 0.0980392157 0.0980392157
v 1.3828336744443135 5.9228674854013104 -4.9184596441790074 0.0980392157 0.0980392157 0.0980392157
v -1.7070670210616323 7.4199633064200299 -5.0061185792045322 0.0980392157 0.0980392157 0.0980392157
v -3.9927651421970651 7.2549371172840225 -4.4598093317164276 0.0980392157 0.0980392157 0.0980392157
v -2.0190669248526802 9.24911199687158 -4.893723185379578 0.0980392157 0.0980392157 0.0980392157
v 4.2760794239751627 -2.5343983068619531 3.7473224945053047 0.0980392157 0.0980392157 0.0980392157
v 4.3297727708213545 -0.50173702941343379 -4.4652821792861568 0.0980392157 0.0980392157 0.0980392157
v -4.3222311444794759 -0.17313559630797215 -4.4798792693986869 0.0980392157 0.0980392157 0.0980392157
v -1.5317558749868416 12.353148667302909 4.2886195332039359 0.0980392157 0.0980392157 0.0980392157
v -1.6075332676684062 12.233893633116365 -4.2371490550171371 0.0980392157 0.0980392157 0.0980392157
v -1.4779924722526845 7.7024028031779075 6.4749538398762922 0.0980392157 0.0980392157 0.0980392157
v -1.7628719359092351 8.9689516131732763 5.0443238975220703 0.0980392157 0.0980392157 0.0980392157
v -2.4806183204256591 6.8930085458912611 4.5530402153371901 0.0980392157 0.0980392157 0.0980392157
v -1.1262895102141615 9.0768269277647278 9.4536132765604428 0.0980392157 0.0980392157 0.0980392157
v -0.55850751560034184 9.3856262710401914 6.1089895212865528 0.0980392157 0.0980392157 0.0980392157
v -1.9428850030392821 8.9950380924812858 7.7439309406226373 0.0980392157 0.0980392157 0.0980392157
v -2.1700458306615462 7.3411405020110543 7.776313459207346 0.0980392157 0.0980392157 0.0980392157
v -1.1262895102141615 9.0768269277647278 9.4536132765604428 0.0980392157 0.0980392157 0.0980392157
v -1.9428850030392821 8.9950380924812858 7.7439309406226373 0.0980392157 0.0980392157 0.0980392157
v -0.55850751560034184 9.3856262710401914 6.1089895212865528 0.0980392157 0.0980392157 0.0980392157
v -1.4779924722526845 7.7024028031779075 6.4749538398762922 0.0980392157 0.0980392157 0.0980392157
v -1.9428850030392821 8.9950380924812858 7.7439309406226373 0.0980392157 0.0980392157 0.0980392157
v -2.1700458306615462 7.3411405020110543 7.776313459207346 0.0980392157 0.0980392157 0.0980392157
v -1.1860218958058197 7.1417813987715757 9.3036631888445118 0.0980392157 0.0980392157 0.0980392157
v -1.1262895102141615 9.0768269277647278 9.4536132765604428 0.0980392157 0.0980392157 0.0980392157
v -1.4779924722526845 7.7024028031779075 6.4749538398762922 0.0980392157 0.0980392157 0.0980392157
v -2.1700458306615462 7.3411405020110543 7.776313459207346 0.0980392157 0.0980392157 0.0980392157
v -1.9428850030392821 8.9950380924812858 7.7439309406226373 0.0980392157 0.0980392157 0.0980392157
v 0.35967203371871204 6.5166420851447189 9.4800630542533941 0.0980392157 0.0980392157 0.0980392157
v -1.1262895102141615 9.0768269277647278 9.4536132765604428 0.0980392157 0.0980392157 0.0980392157
v -1.1860218958058197 7.1417813987715757 9.3036631888445118 0.0980392157 0.0980392157 0.0980392157
v -0.8422332928653532 9.0472165851535244 -6.1507688000438634 0.0980392157 0.0980392157 0.0980392157
v -0.96742787139819431 10.049279902575973 -7.6708983824214121 0.0980392157 0.0980392157 0.0980392157
v -2.1109228236663604 8.8109484388062622 -7.7687204582034042 0.0980392157 0.0980392157 0.0980392157
v -1.405014744787805 7.7893925012178933 -6.2704762368810059 0.0980392157 0.0980392157 0.0980392157
v -0.8422332928653532 9.0472165851535244 -6.1507688000438634 0.0980392157 0.0980392157 0.0980392157
v -2.1109228236663604 8.8109484388062622 -7.7687204582034042 0.0980392157 0.0980392157 0.0980392157
v -0.50067435561552642 9.3490552066763364 -9.5076257333998218 0.0980392157 0.0980392157 0.0980392157
v -1.1622476635286887 6.9116411380363854 -9.5241940278959909 0.0980392157 0.0980392157 0.0980392157
v -2.1109228236663604 8.8109484388062622 -7.7687204582034042 0.0980392157 0.0980392157 0.0980392157
v -0.50067435561552642 9.3490552066763364 -9.5076257333998218 0.0980392157 0.0980392157 0.0980392157
v -2.1109228236663604 8.8109484388062622 -7.7687204582034042 0.0980392157 0.0980392157 0.0980392157
v -0.96742787139819431 10.049279902575973 -7.6708983824214121 0.0980392157 0.0980392157 0.0980392157
v -1.3759764275951551 6.2395233740528795 7.8143576176435596 0.0980392157 0.0980392157 0.0980392157
v -1.1860218958058197 7.1417813987715757 9.3036631888445118 0.0980392157 0.0980392157 0.0980392157
v -2.1700458306615462 7.3411405020110543 7.776313459207346 0.0980392157 0.0980392157 0.0980392157
v -1.3759764275951551 6.2395233740528795 7.8143576176435596 0.0980392157 0.0980392157 0.0980392157
v -2.1700458306615462 7.3411405020110543 7.776313459207346 0.0980392157 0.0980392157 0.0980392157
v -1.4779924722526845 7.7024028031779075 6.4749538398762922 0.0980392157 0.0980392157 0.0980392157
v -0.32470635754473764 6.5862184277377889 5.6949023832805379 0.0980392157 0.0980392157 0.0980392157
v -1.4779924722526845 7.7024028031779075 6.4749538398762922 0.0980392157 0.0980392157 0.0980392157
v -2.4806183204256591 6.8930085458912611 4.5530402153371901 0.0980392157 0.0980392157 0.0980392157
v -0.8422332928653532 9.0472165851535244 -6.1507688000438634 0.0980392157 0.0980392157 0.0980392157
v -1.405014744787805 7.7893925012178933 -6.2704762368810059 0.0980392157 0.0980392157 0.0980392157
v -2.0190669248526802 9.24911199687158 -4.893723185379578 0.0980392157 0.0980392157 0.0980392157
v -1.9833125506325564 7.3121733996075573 -7.7194606826402605 0.0980392157 0.0980392157 0.0980392157
v -1.1622476635286887 6.9116411380363854 -9.5241940278959909 0.0980392157 0.0980392157 0.0980392157
v -1.9833125506325564 7.3121733996075573 -7.7194606826402605 0.0980392157 0.0980392157 0.0980392157
v -2.1109228236663604 8.8109484388062622 -7.7687204582034042 0.0980392157 0.0980392157 0.0980392157
v -0.32470635754473764 6.5862184277377889 5.6949023832805379 0.0980392157 0.0980392157 0.0980392157
v -1.3759764275951551 6.2395233740528795 7.8143576176435596 0.0980392157 0.0980392157 0.0980392157
v -1.4779924722526845 7.7024028031779075 6.4749538398762922 0.0980392157 0.0980392157 0.0980392157
v 1.3835118985720687 6.9990056055357286 6.492635840880336 0.0980392157 0.0980392157 0.0980392157
v -1.3759764275951551 6.2395233740528795 7.8143576176435596 0.0980392157 0.0980392157 0.0980392157
v -0.32470635754473764 6.5862184277377889 5.6949023832805379 0.0980392157 0.0980392157 0.0980392157
v 0.097380558590274502 5.7986590584583864 7.7889479644930644 0.0980392157 0.0980392157 0.0980392157
v -1.3759764275951551 6.2395233740528795 7.8143576176435596 0.0980392157 0.0980392157 0.0980392157
v 1.3835118985720687 6.9990056055357286 6.492635840880336 0.0980392157 0.0980392157 0.0980392157
v -0.85204040483219257 6.729464594616049 -6.1019212888684011 0.0980392157 0.0980392157 0.0980392157
v -1.7070670210616323 7.4199633064200299 -5.0061185792045322 0.0980392157 0.0980392157 0.0980392157
v -1.405014744787805 7.7893925012178933 -6.2704762368810059 0.0980392157 0.0980392157 0.0980392157
v -0.85204040483219257 6.729464594616049 -6.1019212888684011 0.0980392157 0.0980392157 0.0980392157
v -1.8378194267740611 5.4179117327745558 -4.5070195261295432 0.0980392157 0.0980392157 0.0980392157
v -1.7070670210616323 7.4199633064200299 -5.0061185792045322 0.0980392157 0.0980392157 0.0980392157
v -1.315782222930121 5.2102210101788486 4.5176472406064381 0.0980392157 0.0980392157 0.0980392157
v -0.32470635754473764 6.5862184277377889 5.6949023832805379 0.0980392157 0.0980392157 0.0980392157
v -2.4806183204256591 6.8930085458912611 4.5530402153371901 0.0980392157 0.0980392157 0.0980392157
v -0.85204040483219257 6.729464594616049 -6.1019212888684011 0.0980392157 0.0980392157 0.0980392157
v 0.083772503650659025 6.5219598895759239 -6.3930319399328681 0.0980392157 0.0980392157 0.0980392157
v 1.3828336744443135 5.9228674854013104 -4.9184596441790074 0.0980392157 0.0980392157 0.0980392157
v -0.85204040483219257 6.729464594616049 -6.1019212888684011 0.0980392157 0.0980392157 0.0980392157
v -1.405014744787805 7.7893925012178933 -6.2704762368810059 0.0980392157 0.0980392157 0.0980392157
v -1.9833125506325564 7.3121733996075573 -7.7194606826402605 0.0980392157 0.0980392157 0.0980392157
v 0.63116383926494901 10.700039573373235 4.6014325239996268 0.0980392157 0.0980392157 0.0980392157
v -3.3182032604496432 10.990249226281392 4.258086600106874 0.0980392157 0.0980392157 0.0980392157
v -1.7628719359092351 8.9689516131732763 5.0443238975220703 0.0980392157 0.0980392157 0.0980392157
v 0.63116383926494901 10.700039573373235 4.6014325239996268 0.0980392157 0.0980392157 0.0980392157
v -1.7628719359092351 8.9689516131732763 5.0443238975220703 0.0980392157 0.0980392157 0.0980392157
v -0.55850751560034184 9.3856262710401914 6.1089895212865528 0.0980392157 0.0980392157 0.0980392157
v 0.32011020199303974 11.144397733908647 -4.5369341555284715 0.0980392157 0.0980392157 0.0980392157
v -2.0190669248526802 9.24911199687158 -4.893723185379578 0.0980392157 0.0980392157 0.0980392157
v -1.6075332676684062 12.233893633116365 -4.2371490550171371 0.0980392157 0.0980392157 0.0980392157
v 0.10408880783051577 9.5275636659224681 9.4184789520956986 0.0980392157 0.0980392157 0.0980392157
v 0.99327420086970708 9.4125438526801535 5.0266516499200158 0.0980392157 0.0980392157 0.0980392157
v -0.8422332928653532 9.0472165851535244 -6.1507688000438634 0.0980392157 0.0980392157 0.0980392157
v -2.0190669248526802 9.24911199687158 -4.893723185379578 0.0980392157 0.0980392157 0.0980392157
v 0.32011020199303974 11.144397733908647 -4.5369341555284715 0.0980392157 0.0980392157 0.0980392157
v 0.10408880783051577 9.5275636659224681 9.4184789520956986 0.0980392157 0.0980392157 0.0980392157
v 1.5272467821549895 8.2899289952937352 9.4243198043082863 0.0980392157 0.0980392157 0.0980392157
v -0.50067435561552642 9.3490552066763364 -9.5076257333998218 0.0980392157 0.0980392157 0.0980392157
v 1.417068412537736 8.110309196510288 -9.5436977215521761 0.0980392157 0.0980392157 0.0980392157
v -1.1622476635286887 6.9116411380363854 -9.5241940278959909 0.0980392157 0.0980392157 0.0980392157
v -1.1622476635286887 6.9116411380363854 -9.5241940278959909 0.0980392157 0.0980392157 0.0980392157
v 1.417068412537736 8.110309196510288 -9.5436977215521761 0.0980392157 0.0980392157 0.0980392157
v 0.45018308413632235 6.5513095248522593 -9.2300213049635627 0.0980392157 0.0980392157 0.0980392157
v 0.083772503650659025 6.5219598895759239 -6.3930319399328681 0.0980392157 0.0980392157 0.0980392157
v -0.85204040483219257 6.729464594616049 -6.1019212888684011 0.0980392157 0.0980392157 0.0980392157
v -1.1622476635286887 6.9116411380363854 -9.5241940278959909 0.0980392157 0.0980392157 0.0980392157
v 0.45018308413632235 6.5513095248522593 -9.2300213049635627 0.0980392157 0.0980392157 0.0980392157
v 1.1590239666081519 7.1968251351113146 -6.2218172261366158 0.0980392157 0.0980392157 0.0980392157
v 1.3828336744443135 5.9228674854013104 -4.9184596441790074 0.0980392157 0.0980392157 0.0980392157
v 0.083772503650659025 6.5219598895759239 -6.3930319399328681 0.0980392157 0.0980392157 0.0980392157
v 1.1550457628363981 12.348513085353817 4.3152976711899846 0.0980392157 0.0980392157 0.0980392157
v 0.38488905113347482 12.480408695891004 -4.1631027388109496 0.0980392157 0.0980392157 0.0980392157
v 1.0784399630208039 8.902962128507582 6.2714778500113955 0.0980392157 0.0980392157 0.0980392157
v 0.99327420086970708 9.4125438526801535 5.0266516499200158 0.0980392157 0.0980392157 0.0980392157
v 1.3350446806197152 9.8149304424597457 -7.7239135800086833 0.0980392157 0.0980392157 0.0980392157
v -0.96742787139819431 10.049279902575973 -7.6708983824214121 0.0980392157 0.0980392157 0.0980392157
v -0.8422332928653532 9.0472165851535244 -6.1507688000438634 0.0980392157 0.0980392157 0.0980392157
v 1.3350446806197152 9.8149304424597457 -7.7239135800086833 0.0980392157 0.0980392157 0.0980392157
v -0.50067435561552642 9.3490552066763364 -9.5076257333998218 0.0980392157 0.0980392157 0.0980392157
v -0.96742787139819431 10.049279902575973 -7.6708983824214121 0.0980392157 0.0980392157 0.0980392157
v 1.3835118985720687 6.9990056055357286 6.492635840880336 0.0980392157 0.0980392157 0.0980392157
v 1.6637545232269531 6.3712382505350043 7.687836642340641 0.0980392157 0.0980392157 0.0980392157
v 1.8043930088937343 6.7913982255854615 -7.5434888048803304 0.0980392157 0.0980392157 0.0980392157
v 3.0403595840825268 11.339732555367631 4.3102426969716703 0.0980392157 0.0980392157 0.0980392157
v 1.1550457628363981 12.348513085353817 4.3152976711899846 0.0980392157 0.0980392157 0.0980392157
v 0.63116383926494901 10.700039573373235 4.6014325239996268 0.0980392157 0.0980392157 0.0980392157
v 0.99327420086970708 9.4125438526801535 5.0266516499200158 0.0980392157 0.0980392157 0.0980392157
v 3.0403595840825268 11.339732555367631 4.3102426969716703 0.0980392157 0.0980392157 0.0980392157
v 0.63116383926494901 10.700039573373235 4.6014325239996268 0.0980392157 0.0980392157 0.0980392157
v 2.025771503516562 8.9818786200878762 7.644133682606931 0.0980392157 0.0980392157 0.0980392157
v 0.80246916592265261 9.2056711436765681 -5.7322750096193946 0.0980392157 0.0980392157 0.0980392157
v 2.3951800910989096 9.3467269714393062 -4.676158789823373 0.0980392157 0.0980392157 0.0980392157
v 1.3350446806197152 9.8149304424597457 -7.7239135800086833 0.0980392157 0.0980392157 0.0980392157
v -0.8422332928653532 9.0472165851535244 -6.1507688000438634 0.0980392157 0.0980392157 0.0980392157
v 0.80246916592265261 9.2056711436765681 -5.7322750096193946 0.0980392157 0.0980392157 0.0980392157
v -0.50067435561552642 9.3490552066763364 -9.5076257333998218 0.0980392157 0.0980392157 0.0980392157
v 1.3350446806197152 9.8149304424597457 -7.7239135800086833 0.0980392157 0.0980392157 0.0980392157
v 1.417068412537736 8.110309196510288 -9.5436977215521761 0.0980392157 0.0980392157 0.0980392157
v 2.1375267404978482 8.816477514100594 -7.8161425775587565 0.0980392157 0.0980392157 0.0980392157
v 1.417068412537736 8.110309196510288 -9.5436977215521761 0.0980392157 0.0980392157 0.0980392157
v 1.3350446806197152 9.8149304424597457 -7.7239135800086833 0.0980392157 0.0980392157 0.0980392157
v 1.6637545232269531 6.3712382505350043 7.687836642340641 0.0980392157 0.0980392157 0.0980392157
v 0.35967203371871204 6.5166420851447189 9.4800630542533941 0.0980392157 0.0980392157 0.0980392157
v -1.1860218958058197 7.1417813987715757 9.3036631888445118 0.0980392157 0.0980392157 0.0980392157
v 1.6637545232269531 6.3712382505350043 7.687836642340641 0.0980392157 0.0980392157 0.0980392157
v -1.1860218958058197 7.1417813987715757 9.3036631888445118 0.0980392157 0.0980392157 0.0980392157
v 0.097380558590274502 5.7986590584583864 7.7889479644930644 0.0980392157 0.0980392157 0.0980392157
v 1.831809262788056 4.9605047187142191 4.5079705073914793 0.0980392157 0.0980392157 0.0980392157
v 1.913184632103107 7.3999821096303195 5.045154364581534 0.0980392157 0.0980392157 0.0980392157
v 2.025771503516562 8.9818786200878762 7.644133682606931 0.0980392157 0.0980392157 0.0980392157
v 1.5272467821549895 8.2899289952937352 9.4243198043082863 0.0980392157 0.0980392157 0.0980392157
v 0.99327420086970708 9.4125438526801535 5.0266516499200158 0.0980392157 0.0980392157 0.0980392157
v 1.0784399630208039 8.902962128507582 6.2714778500113955 0.0980392157 0.0980392157 0.0980392157
v 2.3155039739319712 8.7526856682966709 4.7914490383096995 0.0980392157 0.0980392157 0.0980392157
v 1.3916683823836071 8.5501883328540274 -6.6748763568824465 0.0980392157 0.0980392157 0.0980392157
v 1.3350446806197152 9.8149304424597457 -7.7239135800086833 0.0980392157 0.0980392157 0.0980392157
v 0.80246916592265261 9.2056711436765681 -5.7322750096193946 0.0980392157 0.0980392157 0.0980392157
v 2.1375267404978482 8.816477514100594 -7.8161425775587565 0.0980392157 0.0980392157 0.0980392157
v 1.3350446806197152 9.8149304424597457 -7.7239135800086833 0.0980392157 0.0980392157 0.0980392157
v 1.3916683823836071 8.5501883328540274 -6.6748763568824465 0.0980392157 0.0980392157 0.0980392157
v 1.3916683823836071 8.5501883328540274 -6.6748763568824465 0.0980392157 0.0980392157 0.0980392157
v 0.80246916592265261 9.2056711436765681 -5.7322750096193946 0.0980392157 0.0980392157 0.0980392157
v 2.3951800910989096 9.3467269714393062 -4.676158789823373 0.0980392157 0.0980392157 0.0980392157
v 1.8043930088937343 6.7913982255854615 -7.5434888048803304 0.0980392157 0.0980392157 0.0980392157
v 1.1590239666081519 7.1968251351113146 -6.2218172261366158 0.0980392157 0.0980392157 0.0980392157
v 0.083772503650659025 6.5219598895759239 -6.3930319399328681 0.0980392157 0.0980392157 0.0980392157
v 1.8043930088937343 6.7913982255854615 -7.5434888048803304 0.0980392157 0.0980392157 0.0980392157
v 0.45018308413632235 6.5513095248522593 -9.2300213049635627 0.0980392157 0.0980392157 0.0980392157
v 1.417068412537736 8.110309196510288 -9.5436977215521761 0.0980392157 0.0980392157 0.0980392157
v 1.3835118985720687 6.9990056055357286 6.492635840880336 0.0980392157 0.0980392157 0.0980392157
v 2.025771503516562 8.9818786200878762 7.644133682606931 0.0980392157 0.0980392157 0.0980392157
v 1.6637545232269531 6.3712382505350043 7.687836642340641 0.0980392157 0.0980392157 0.0980392157
v 1.0784399630208039 8.902962128507582 6.2714778500113955 0.0980392157 0.0980392157 0.0980392157
v 1.6637545232269531 6.3712382505350043 7.687836642340641 0.0980392157 0.0980392157 0.0980392157
v 2.025771503516562 8.9818786200878762 7.644133682606931 0.0980392157 0.0980392157 0.0980392157
v 1.5272467821549895 8.2899289952937352 9.4243198043082863 0.0980392157 0.0980392157 0.0980392157
v 0.35967203371871204 6.5166420851447189 9.4800630542533941 0.0980392157 0.0980392157 0.0980392157
v 1.6637545232269531 6.3712382505350043 7.687836642340641 0.0980392157 0.0980392157 0.0980392157
v 1.913184632103107 7.3999821096303195 5.045154364581534 0.0980392157 0.0980392157 0.0980392157
v 1.0784399630208039 8.902962128507582 6.2714778500113955 0.0980392157 0.0980392157 0.0980392157
v 1.3835118985720687 6.9990056055357286 6.492635840880336 0.0980392157 0.0980392157 0.0980392157
v 1.913184632103107 7.3999821096303195 5.045154364581534 0.0980392157 0.0980392157 0.0980392157
v 2.3155039739319712 8.7526856682966709 4.7914490383096995 0.0980392157 0.0980392157 0.0980392157
v 1.0784399630208039 8.902962128507582 6.2714778500113955 0.0980392157 0.0980392157 0.0980392157
v 1.3916683823836071 8.5501883328540274 -6.6748763568824465 0.0980392157 0.0980392157 0.0980392157
v 2.3951800910989096 9.3467269714393062 -4.676158789823373 0.0980392157 0.0980392157 0.0980392157
v 1.1590239666081519 7.1968251351113146 -6.2218172261366158 0.0980392157 0.0980392157 0.0980392157
v 1.3916683823836071 8.5501883328540274 -6.6748763568824465 0.0980392157 0.0980392157 0.0980392157
v 1.1590239666081519 7.1968251351113146 -6.2218172261366158 0.0980392157 0.0980392157 0.0980392157
v 1.8043930088937343 6.7913982255854615 -7.5434888048803304 0.0980392157 0.0980392157 0.0980392157
v 1.8043930088937343 6.7913982255854615 -7.5434888048803304 0.0980392157 0.0980392157 0.0980392157
v 1.417068412537736 8.110309196510288 -9.5436977215521761 0.0980392157 0.0980392157 0.0980392157
v 2.1375267404978482 8.816477514100594 -7.8161425775587565 0.0980392157 0.0980392157 0.0980392157
v 3.6869717898571341 10.616325693835988 -4.0433005093840455 0.0980392157 0.0980392157 0.0980392157
v 2.1823195688937957 11.962939389780205 -4.2963428222675875 0.0980392157 0.0980392157 0.0980392157
v 3.0403595840825268 11.339732555367631 4.3102426969716703 0.0980392157 0.0980392157 0.0980392157
v 4.088311668290701 9.9061054578412211 3.9571548276158439 0.0980392157 0.0980392157 0.0980392157
v 4.4799761531577174 8.2231124479410553 4.3297346010576883 0.0980392157 0.0980392157 0.0980392157
v 4.4985638218084976 2.923763687862921 3.9820772514774174 0.0980392157 0.0980392157 0.0980392157
v 4.4655596242205258 4.4367523726288027 -4.4036791907960016 0.0980392157 0.0980392157 0.0980392157
v 4.8269231442384104 0.69284899520718812 -1.4031946639618758 0.0980392157 0.0980392157 0.0980392157
v 4.3297727708213545 -0.50173702941343379 -4.4652821792861568 0.0980392157 0.0980392157 0.0980392157
v 4.65023309523857 2.7288268650189078 1.1414577026709776 0.0980392157 0.0980392157 0.0980392157
v 4.4985638218084976 2.923763687862921 3.9820772514774174 0.0980392157 0.0980392157 0.0980392157
v 4.3043019548177357 -3.6374881792710427 -2.66865082422972 0.0980392157 0.0980392157 0.0980392157
v 5.0159682946459085 -0.43996827329362387 -1.4881143442798048 0.0980392157 0.0980392157 0.0980392157
v 4.2948414030534412 -0.44536073226520045 4.483402748570116 0.0980392157 0.0980392157 0.0980392157
v 4.9867657040621687 0.87684399497259591 1.3163648593264599 0.0980392157 0.0980392157 0.0980392157
v 4.8847328995740824 1.5335036312009274 -0.20627260604573128 0.0980392157 0.0980392157 0.0980392157
v 4.65023309523857 2.7288268650189078 1.1414577026709776 0.0980392157 0.0980392157 0.0980392157
v 4.9867657040621687 0.87684399497259591 1.3163648593264599 0.0980392157 0.0980392157 0.0980392157
v 4.8269231442384104 0.69284899520718812 -1.4031946639618758 0.0980392157 0.0980392157 0.0980392157
v 4.3043019548177357 -3.6374881792710427 -2.66865082422972 0.0980392157 0.0980392157 0.0980392157
v 5.0499551913973066 -1.2672101627604344 -0.83728298395033007 0.0980392157 0.0980392157 0.0980392157
v 4.2760794239751627 -2.5343983068619531 3.7473224945053047 0.0980392157 0.0980392157 0.0980392157
v 4.3199667035268128 -4.0498068236909353 2.0327316663800352 0.0980392157 0.0980392157 0.0980392157
v 5.0499551913973066 -1.2672101627604344 -0.83728298395033007 0.0980392157 0.0980392157 0.0980392157
v 5.0072908302202448 -1.5480328936335541 0.26104066466120135 0.0980392157 0.0980392157 0.0980392157
v 4.1461889833754384 -4.5452121839615129 -0.60072820915938985 0.0980392157 0.0980392157 0.0980392157
v 4.3297727708213545 -0.50173702941343379 -4.4652821792861568 0.0980392157 0.0980392157 0.0980392157
v 4.3043019548177357 -3.6374881792710427 -2.66865082422972 0.0980392157 0.0980392157 0.0980392157
v 3.9997609439159714 -1.9676980163622133 -4.0812977858178634 0.0980392157 0.0980392157 0.0980392157
v -5.511935620922106 9.4061653262093721 -3.2731789937167663 0.0980392157 0.0980392157 0.0980392157
v -4.56406796628315 7.0948491041125967 -3.7444287327834482 0.0980392157 0.0980392157 0.0980392157
v -5.6223045813802877 7.5943653311268191 -3.4491618467563567 0.0980392157 0.0980392157 0.0980392157
v 4.3043019548177357 -3.6374881792710427 -2.66865082422972 0.0980392157 0.0980392157 0.0980392157
v 4.1461889833754384 -4.5452121839615129 -0.60072820915938985 0.0980392157 0.0980392157 0.0980392157
v -4.5134160225350621 6.7179367706161708 3.923196300333704 0.0980392157 0.0980392157 0.0980392157
v -3.9399824978521281 10.047172210959522 -4.3528473714645051 0.0980392157 0.0980392157 0.0980392157
v -3.3570051480198497 11.04588755146276 -4.0035214698906874 0.0980392157 0.0980392157 0.0980392157
v -1.6075332676684062 12.233893633116365 -4.2371490550171371 0.0980392157 0.0980392157 0.0980392157
v -3.9399824978521281 10.047172210959522 -4.3528473714645051 0.0980392157 0.0980392157 0.0980392157
v -4.0076242616816025 -0.3789962139360199 4.4923179832831988 0.0980392157 0.0980392157 0.0980392157
v -2.0190669248526802 9.24911199687158 -4.893723185379578 0.0980392157 0.0980392157 0.0980392157
v -3.9399824978521281 10.047172210959522 -4.3528473714645051 0.0980392157 0.0980392157 0.0980392157
v -1.6075332676684062 12.233893633116365 -4.2371490550171371 0.0980392157 0.0980392157 0.0980392157
v -1.7628719359092351 8.9689516131732763 5.0443238975220703 0.0980392157 0.0980392157 0.0980392157
v -1.4779924722526845 7.7024028031779075 6.4749538398762922 0.0980392157 0.0980392157 0.0980392157
v -1.9833125506325564 7.3121733996075573 -7.7194606826402605 0.0980392157 0.0980392157 0.0980392157
v 1.1590239666081519 7.1968251351113146 -6.2218172261366158 0.0980392157 0.0980392157 0.0980392157
v 2.3951800910989096 9.3467269714393062 -4.676158789823373 0.0980392157 0.0980392157 0.0980392157
v 1.3828336744443135 5.9228674854013104 -4.9184596441790074 0.0980392157 0.0980392157 0.0980392157
v 4.8269231442384104 0.69284899520718812 -1.4031946639618758 0.0980392157 0.0980392157 0.0980392157
v -1.5317558749868416 12.353148667302909 4.2886195332039359 0.0980392157 0.0980392157 0.0980392157
v 4.4623924804643558 8.6022327366893414 -4.3161251055323087 0.0980392157 0.0980392157 0.0980392157
v -1.405014744787805 7.7893925012178933 -6.2704762368810059 0.0980392157 0.0980392157 0.0980392157
v -1.7070670210616323 7.4199633064200299 -5.0061185792045322 0.0980392157 0.0980392157 0.0980392157
v -2.0190669248526802 9.24911199687158 -4.893723185379578 0.0980392157 0.0980392157 0.0980392157
v -3.3182032604496432 10.990249226281392 4.258086600106874 0.0980392157 0.0980392157 0.0980392157
v -1.3759764275951551 6.2395233740528795 7.8143576176435596 0.0980392157 0.0980392157 0.0980392157
v 1.913184632103107 7.3999821096303195 5.045154364581534 0.0980392157 0.0980392157 0.0980392157
v 1.3835118985720687 6.9990056055357286 6.492635840880336 0.0980392157 0.0980392157 0.0980392157
v -0.32470635754473764 6.5862184277377889 5.6949023832805379 0.0980392157 0.0980392157 0.0980392157
v -3.9996220697000879 -4.466852734183349 -0.69955819123505836 0.0980392157 0.0980392157 0.0980392157
v -1.8378194267740611 5.4179117327745558 -4.5070195261295432 0.0980392157 0.0980392157 0.0980392157
v -3.9399824978521281 10.047172210959522 -4.3528473714645051 0.0980392157 0.0980392157 0.0980392157
v -4.56406796628315 7.0948491041125967 -3.7444287327834482 0.0980392157 0.0980392157 0.0980392157
v -4.5134160225350621 6.7179367706161708 3.923196300333704 0.0980392157 0.0980392157 0.0980392157
v 5.0072908302202448 -1.5480328936335541 0.26104066466120135 0.0980392157 0.0980392157 0.0980392157
v 4.3043019548177357 -3.6374881792710427 -2.66865082422972 0.0980392157 0.0980392157 0.0980392157
v -4.8880227503528015 1.522876411341336 -0.36852954274969191 0.0980392157 0.0980392157 0.0980392157
v -3.3182032604496432 10.990249226281392 4.258086600106874 0.0980392157 0.0980392157 0.0980392157
v -3.8560835844777355 9.264908282988733 4.5209542849376705 0.0980392157 0.0980392157 0.0980392157
v 5.0072908302202448 -1.5480328936335541 0.26104066466120135 0.0980392157 0.0980392157 0.0980392157
v -5.5397998733345357 9.3979103284308714 3.3101273139390859 0.0980392157 0.0980392157 0.0980392157
v -4.2435327465939547 -2.0456294460668296 -4.0560193182659861 0.0980392157 0.0980392157 0.0980392157
v 4.8847328995740824 1.5335036312009274 -0.20627260604573128 0.0980392157 0.0980392157 0.0980392157
v 2.1375267404978482 8.816477514100594 -7.8161425775587565 0.0980392157 0.0980392157 0.0980392157
v -5.5397998733345357 9.3979103284308714 3.3101273139390859 0.0980392157 0.0980392157 0.0980392157
v 4.9867657040621687 0.87684399497259591 1.3163648593264599 0.0980392157 0.0980392157 0.0980392157
v 5.0159682946459085 -0.43996827329362387 -1.4881143442798048 0.0980392157 0.0980392157 0.0980392157
v 5.0072908302202448 -1.5480328936335541 0.26104066466120135 0.0980392157 0.0980392157 0.0980392157
vn -0.19960644841194153 0.76499783992767334 0.61231982707977295
vn -0.19960644841194153 0.76499783992767334 0.61231982707977295
vn -0.19960644841194153 0.76499783992767334 0.61231982707977295
vn -0.69649457931518555 0.12681120634078979 0.7062678337097168
vn -0.56787776947021484 -0.025938065722584724 0.82270413637161255
vn -0.69685834646224976 -0.050804011523723602 0.71540719270706177
vn -0.70977801084518433 -0.0070653189904987812 0.70438998937606812
vn -0.89684402942657471 0.44186148047447205 0.020718500018119812
vn -0.99466300010681152 -0.10315445065498352 -0.0021669389680027962
vn -0.99432355165481567 -0.10590695589780807 0.010218510404229164
vn -0.5586356520652771 0.82914525270462036 0.021079400554299355
vn -0.068994633853435516 0.9975593090057373 -0.010732724331319332
vn -0.13688530027866364 0.9903455376625061 0.021865688264369965
vn -0.70353037118911743 -0.00083388877101242542 -0.71066468954086304
vn -0.72857648134231567 -0.0066428999416530132 -0.68493223190307617
vn -0.71226543188095093 0.065621517598628998 -0.69883602857589722
vn -0.40999853610992432 -0.90617740154266357 -0.10365177690982819
vn -0.62488865852355957 -0.78017079830169678 -0.029115466400980949
vn -0.56201046705245972 -0.82550984621047974 -0.051746949553489685
vn -0.55073243379592896 0.27764704823493958 -0.78715050220489502
vn -0.76617062091827393 -0.010856947861611843 0.64254546165466309
vn -0.7315826416015625 -0.027843371033668518 0.68118393421173096
vn 0.0064769606105983257 0.0022600491065531969 0.99997645616531372
vn -0.064632587134838104 0.0060046510770916939 0.99789106845855713
vn -0.0083846971392631531 -0.0057785315439105034 0.99994814395904541
vn -0.018071148544549942 -0.011533579789102077 0.99977016448974609
vn -0.70855236053466797 -0.0021324979607015848 0.70565503835678101
vn -0.6799997091293335 0.02710280753672123 0.73271125555038452
vn 0.026957832276821136 -0.036805517971515656 0.9989587664604187
vn 0.031065098941326141 -0.057979870587587357 0.99783432483673096
vn -0.98024380207061768 -0.062044501304626465 0.187810018658638
vn -0.97384864091873169 0.074981935322284698 0.21446794271469116
vn -0.99925005435943604 -0.0014158317353576422 -0.038695637136697769
vn -0.98038136959075928 0.15439344942569733 -0.12253598123788834
vn -0.81537717580795288 -0.47440525889396667 0.33181279897689819
vn -0.99827337265014648 0.012920643202960491 0.057300791144371033
vn -0.99946022033691406 -0.032631445676088333 -0.0037953171413391829
vn -0.96219325065612793 0.15433225035667419 -0.22442315518856049
vn -0.70370924472808838 -0.011094118468463421 -0.71040147542953491
vn -0.088533781468868256 -0.015442333184182644 -0.99595344066619873
vn 0.018799310550093651 0.016185777261853218 -0.99969226121902466
vn 0.002821499016135931 -0.0028976218309253454 -0.99999183416366577
vn -0.99935317039489746 0.018878772854804993 -0.030607927590608597
vn -0.99989849328994751 -0.0032388749532401562 0.013876667246222496
vn -0.99995088577270508 -0.0032710288651287556 -0.0093559976667165756
vn -1 0 0
vn -0.9997897744178772 -0.0028897391166538 -0.020298505201935768
vn -0.99875479936599731 -0.047435857355594635 -0.015448076650500298
vn -0.99982517957687378 0.015430731698870659 0.010556970722973347
vn -0.99257737398147583 -0.08722136914730072 -0.084750354290008545
vn -0.99744093418121338 -0.017087481915950775 -0.069423668086528778
vn -0.96789079904556274 -0.082089550793170929 -0.23758931457996368
vn -0.99993479251861572 0.0083133978769183159 0.0078269476071000099
vn 0 0.73858296871185303 -0.67416262626647949
vn 0 0.73858296871185303 -0.67416262626647949
vn 0 0.73858296871185303 -0.67416262626647949
vn 0 0.11115008592605591 -0.99380362033843994
vn -1.391049164745084E-09 0.11115008592605591 -0.99380362033843994
vn -3.232548451137518E-09 0.11115008592605591 -0.99380362033843994
vn 0 -0.81391870975494385 0.58097875118255615
vn 0 -0.31246080994606018 0.94993066787719727
vn 0 -0.5264548659324646 0.85020309686660767
vn 0 0.61542761325836182 0.78819340467453003
vn 0 0.63111597299575806 0.77568846940994263
vn 0 0.34354311227798462 0.93913692235946655
vn 0 0.93507903814315796 0.35443919897079468
vn 0 0.93507903814315796 0.35443919897079468
vn 0 0.93507903814315796 0.35443919897079468
vn -0.70074754953384399 -0.36724984645843506 0.61162108182907104
vn -0.96122992038726807 -0.21887153387069702 0.16772668063640594
vn -0.99076229333877563 0.12244561314582825 -0.058285042643547058
vn -0.99749833345413208 0.015072409063577652 -0.06906484067440033
vn -0.68474680185317993 -0.55603820085525513 0.47110858559608459
vn -0.74670404195785522 -0.57195228338241577 0.33956390619277954
vn -0.99979037046432495 0.019827434793114662 -0.0051043974235653877
vn -0.6566317081451416 0.75144869089126587 0.064495816826820374
vn -0.99646174907684326 -0.070975720882415771 -0.045015916228294373
vn -8.4941360611878736E-09 -0.92662549018859863 -0.37598562240600586
vn -9.1344247721281135E-08 -0.92662537097930908 -0.37598589062690735
vn 3.6959612259579444E-08 -0.92662549018859863 -0.37598559260368347
vn 0 0.15928713977336884 0.9872322678565979
vn 0.93296581506729126 -0.15717490017414093 0.32383760809898376
vn 0.99980670213699341 -0.012550464831292629 0.015132964588701725
vn 0.99398922920227051 0.048343513160943985 -0.098225623369216919
vn 0.99163222312927246 0.057731922715902328 -0.11546667665243149
vn -0.0077795763500034809 -0.54137682914733887 0.84074407815933228
vn -0.011435479857027531 -0.48536098003387451 0.87423908710479736
vn 0.0033001040574163198 -0.7827756404876709 0.62229526042938232
vn -0.97358280420303345 -0.15826764702796936 -0.16458381712436676
vn -0.98544985055923462 -0.16348282992839813 -0.046497251838445663
vn 0.033705420792102814 -0.89061844348907471 0.45350056886672974
vn -0.017257962375879288 -0.43956783413887024 -0.89804357290267944
vn 0.041780572384595871 -0.44962170720100403 -0.89224135875701904
vn -0.031231453642249107 -0.79644203186035156 -0.60390782356262207
vn -0.018980184569954872 -0.82457417249679565 0.56543534994125366
vn -0.017089894041419029 -0.96609139442443848 0.25763413310050964
vn -0.70610666275024414 -0.70203328132629395 -0.092534609138965607
vn -0.70590686798095703 -0.68359512090682983 0.18545418977737427
vn -0.68202435970306396 -0.61320579051971436 -0.39852404594421387
vn -0.43260759115219116 0.52613371610641479 0.73214346170425415
vn -0.89465212821960449 0.44662719964981079 0.011034592986106873
vn -0.74733847379684448 0.66444152593612671 -0.0016355474945157766
vn -0.74573838710784912 0.66623878479003906 -0.00043397399713285267
vn -0.26900011301040649 0.076145492494106293 0.9601253867149353
vn -0.31829452514648438 -0.1552739292383194 0.93518906831741333
vn 0.39613232016563416 -0.12255322188138962 0.90997797250747681
vn 0.40613013505935669 -0.10793808102607727 0.90741813182830811
vn -0.02159588597714901 0.029106033965945244 0.99934303760528564
vn -0.055316276848316193 -0.13721401989459991 0.98899567127227783
vn 0.31644684076309204 0.12907755374908447 0.93978738784790039
vn 0.65311932563781738 0.26082843542098999 0.71091753244400024
vn 0.5086250901222229 0.47456753253936768 0.71839135885238647
vn 0.7046855092048645 0.026887714862823486 0.70901012420654297
vn -0.0053947665728628635 0.010543291456997395 0.99992984533309937
vn 0.71545654535293579 -0.0038561169058084488 0.69864660501480103
vn 0.71312117576599121 -0.042895868420600891 0.69972717761993408
vn 0.2250635027885437 0.11076987534761429 -0.96802711486816406
vn -0.082616284489631653 0.015167613513767719 -0.99646598100662231
vn 0.70353460311889648 0.21100893616676331 -0.67861199378967285
vn 0.59829306602478027 0.41370466351509094 -0.68621706962585449
vn 0.55137121677398682 0.24848723411560059 -0.79639428853988647
vn 0.36018252372741699 0.64351415634155273 -0.67539477348327637
vn 0.05476095899939537 0.72178190946578979 -0.68995082378387451
vn 0.24753409624099731 0.83242309093475342 -0.49578085541725159
vn 0.012068573385477066 -0.029879523441195488 -0.99948066473007202
vn -0.16339515149593353 0.73904633522033691 -0.65353846549987793
vn 0.36871138215065002 -0.16863444447517395 -0.9141194224357605
vn -0.048542752861976624 0.034816913306713104 -0.99821412563323975
vn 0.042919863015413284 -0.056054987013339996 -0.99750477075576782
vn -0.51748496294021606 -0.21897545456886292 -0.82719951868057251
vn -0.065866686403751373 -0.014190343208611012 -0.99772751331329346
vn -0.31128457188606262 0.1483316570520401 -0.93866908550262451
vn 0.027932586148381233 -0.55552470684051514 0.83103072643280029
vn 0.00083424360491335392 -0.14624841511249542 -0.98924756050109863
vn -0.0015501206507906318 -0.013411756604909897 -0.99990886449813843
vn -0.32638823986053467 0.94523555040359497 0.00068688380997627974
vn -0.35079172253608704 0.93645346164703369 -0.00022522111248690635
vn -0.79915076494216919 0.006247413344681263 0.60109817981719971
vn -0.79642248153686523 0.00056064169621095061 0.60474038124084473
vn -0.7993810772895813 0.00035984630812890828 0.60082423686981201
vn -0.35654103755950928 0.9334113597869873 0.040270701050758362
vn -0.2696986198425293 0.96280127763748169 -0.016622701659798622
vn -0.1788092702627182 0.98374372720718384 0.016599856317043304
vn -0.78438955545425415 -0.11585965752601624 0.6093517541885376
vn -0.71810603141784668 0.25317010283470154 0.64825040102005005
vn -0.73389852046966553 0.20252859592437744 0.64836341142654419
vn -0.76063060760498047 0.52502864599227905 -0.38181930780410767
vn -0.76063060760498047 0.52502864599227905 -0.38181930780410767
vn -0.76063060760498047 0.52502864599227905 -0.38181930780410767
vn -0.94394433498382568 -0.32317295670509338 0.067292720079421997
vn -0.84114563465118408 -0.38564559817314148 0.37914568185806274
vn -0.49294838309288025 0.40128999948501587 0.77198976278305054
vn -0.85724902153015137 -0.067613609135150909 -0.51044338941574097
vn -0.84230941534042358 -0.24487340450286865 -0.48015815019607544
vn -0.79459244012832642 0.32702520489692688 -0.51154410839080811
vn 0.046170841902494431 -0.0022498632315546274 0.99893105030059814
vn 0.0074827815406024456 0.013127317652106285 0.99988585710525513
vn -0.20729753375053406 -0.16925069689750671 0.96352577209472656
vn -0.3625819981098175 0.36799702048301697 0.85621988773345947
vn -0.31955313682556152 0.40597277879714966 0.85619616508483887
vn -0.46897056698799133 0.26343825459480286 0.84301060438156128
vn -0.83322679996490479 -0.16626709699630737 0.52734076976776123
vn -0.80434161424636841 0.37456196546554565 0.46123522520065308
vn -0.83885794878005981 0.26937291026115417 0.47302815318107605
vn -0.61126011610031128 0.64061295986175537 -0.46473225951194763
vn -0.9948122501373291 0.0095619820058345795 -0.10127769410610199
vn -0.85734230279922485 0.30454081296920776 -0.41499286890029907
vn -0.41919106245040894 0.53091055154800415 -0.73648679256439209
vn -0.59752994775772095 0.34948259592056274 -0.72167855501174927
vn -0.40676584839820862 0.54142087697982788 -0.7358022928237915
vn -0.53852242231369019 -0.44329103827476501 0.7165798544883728
vn -0.53852242231369019 -0.44329103827476501 0.7165798544883728
vn -0.53852242231369019 -0.44329103827476501 0.7165798544883728
vn -0.4563395082950592 -0.34556028246879578 -0.81996482610702515
vn -0.4563395082950592 -0.34556028246879578 -0.81996482610702515
vn -0.4563395082950592 -0.34556028246879578 -0.81996482610702515
vn 0.086434528231620789 -0.99620413780212402 0.010315566323697567
vn -0.12698064744472504 -0.96339094638824463 0.23612233996391296
vn 0.020661618560552597 -0.99650114774703979 0.080985262989997864
vn -0.75839686393737793 0.4535510241985321 -0.46810862421989441
vn -0.84183716773986816 0.25598374009132385 -0.47516581416130066
vn -0.7776903510093689 0.41611135005950928 -0.47122085094451904
vn -0.80371755361557007 -0.29090192914009094 0.51905125379562378
vn -0.70547682046890259 -0.30299031734466553 -0.64070224761962891
vn -0.73997032642364502 -0.18640919029712677 -0.64629369974136353
vn -0.77700287103652954 0.157851442694664 -0.60938453674316406
vn -0.47692754864692688 -0.74855029582977295 -0.46066537499427795
vn -0.47692754864692688 -0.74855029582977295 -0.46066537499427795
vn -0.47692754864692688 -0.74855029582977295 -0.46066537499427795
vn 0.26492193341255188 -0.96402394771575928 -0.021775152534246445
vn 0.26492193341255188 -0.96402394771575928 -0.021775152534246445
vn 0.26492193341255188 -0.96402394771575928 -0.021775152534246445
vn -0.054639246314764023 -0.57287979125976562 -0.81781619787216187
vn -0.25628122687339783 -0.55657434463500977 -0.79028153419494629
vn -0.21131493151187897 -0.56215429306030273 -0.79958021640777588
vn -0.60135751962661743 -0.79897975921630859 0.00065099773928523064
vn -0.89625710248947144 -0.44325602054595947 -0.015726728364825249
vn -0.97969555854797363 -0.20048752427101135 0.0011611622758209705
vn -0.95433950424194336 -0.020708994939923286 -0.29800546169281006
vn -0.95433950424194336 -0.020708994939923286 -0.29800546169281006
vn -0.95433950424194336 -0.020708994939923286 -0.29800546169281006
vn -0.24613867700099945 -0.50363248586654663 0.82811236381530762
vn -0.11202065646648407 -0.61309647560119629 0.78202563524246216
vn -0.50316852331161499 -0.36553841829299927 0.78307288885116577
vn -0.10952720791101456 -0.82313388586044312 -0.55718433856964111
vn 0.039028942584991455 -0.86211615800857544 -0.50520539283752441
vn 0.075779631733894348 -0.87881582975387573 -0.47110524773597717
vn -0.78465992212295532 -0.56308996677398682 0.25930383801460266
vn -0.78465992212295532 -0.56308996677398682 0.25930383801460266
vn -0.78465992212295532 -0.56308996677398682 0.25930383801460266
vn 0.015558116137981415 0.67871111631393433 0.73424053192138672
vn -0.041017055511474609 0.13541398942470551 0.98993974924087524
vn -0.3356248140335083 0.65790075063705444 0.6741829514503479
vn 0.022970687597990036 0.84067231416702271 0.54105669260025024
vn -0.030210243538022041 0.80853360891342163 0.58767402172088623
vn -0.077048361301422119 0.83610224723815918 0.5431358814239502
vn 0.11452038586139679 0.73546469211578369 -0.66781491041183472
vn -0.23764768242835999 0.23287108540534973 -0.94302421808242798
vn 0.083632759749889374 0.65110176801681519 -0.75436866283416748
vn 0.12229590862989426 0.9923740029335022 0.015411208383738995
vn 0.15105754137039185 0.81275123357772827 0.56268733739852905
vn -0.24143415689468384 0.59250187873840332 -0.76853823661804199
vn -0.36696749925613403 0.27910488843917847 -0.88737553358078003
vn 0.071313440799713135 0.58112114667892456 -0.81068652868270874
vn 0.0017371781868860126 0.0040611382573843002 0.99999022483825684
vn -0.0037616461049765348 -0.022647097706794739 0.99973642826080322
vn -0.032888073474168777 0.014385093003511429 -0.9993554949760437
vn 0.049759630113840103 -0.050852213054895401 -0.99746578931808472
vn 0.0076425247825682163 0.00032599808764643967 -0.99997073411941528
vn -0.5187792181968689 -0.62162888050079346 -0.5868949294090271
vn 0.46810728311538696 -0.59461092948913574 -0.65369212627410889
vn 0.26088672876358032 -0.66147136688232422 -0.70313137769699097
vn -0.038130275905132294 -0.99926853179931641 0.0029025168623775244
vn -0.48469176888465881 -0.87388104200363159 0.037494320422410965
vn -0.51719814538955688 -0.85584890842437744 -0.0053566168062388897
vn 0.15037114918231964 -0.98773902654647827 -0.041953947395086288
vn 0.12215893715620041 -0.77749305963516235 -0.6169130802154541
vn 0.018608151003718376 -0.77583795785903931 -0.63065773248672485
vn 0.59332931041717529 -0.66376698017120361 -0.45538309216499329
vn 0.25691905617713928 0.9664265513420105 -0.0035177175886929035
vn 0.082587607204914093 0.99658381938934326 0.00013412162661552429
vn 0.10598409175872803 0.96751934289932251 -0.2295074462890625
vn 0.24963729083538055 0.96607869863510132 -0.066130228340625763
vn 0.3320242166519165 0.5195763111114502 0.78727400302886963
vn -0.20479936897754669 0.55090296268463135 0.80905073881149292
vn -0.26954206824302673 0.56282216310501099 0.7813950777053833
vn 0.32405152916908264 0.59411507844924927 -0.73621863126754761
vn -0.042988147586584091 0.63225167989730835 -0.77356952428817749
vn -0.11919759213924408 0.62928080558776855 -0.76798278093338013
vn 0.49259790778160095 -0.44977810978889465 -0.7450147271156311
vn 0.44217810034751892 -0.47549200057983398 -0.76051688194274902
vn -0.1655285507440567 -0.9828106164932251 -0.08175349235534668
vn 0.086316816508769989 0.13082617521286011 0.98764055967330933
vn 0.15147137641906738 0.57543885707855225 0.80369555950164795
vn 0.018648000434041023 -0.00065984349930658937 0.99982589483261108
vn 0.024085277691483498 0.054796576499938965 0.99820703268051147
vn 0.0923728346824646 0.085698239505290985 0.99202978610992432
vn 0.029385719448328018 0.051031578332185745 0.9982646107673645
vn 0.22474910318851471 0.97440916299819946 0.0038216672837734222
vn 0.24118253588676453 0.5528455376625061 -0.79761695861816406
vn 0.43920019268989563 0.40558308362960815 -0.80162680149078369
vn -0.28140005469322205 0.95933288335800171 0.022235579788684845
vn -0.28140005469322205 0.95933288335800171 0.022235579788684845
vn -0.28140005469322205 0.95933288335800171 0.022235579788684845
vn 0.11713378131389618 0.9905935525894165 -0.070739790797233582
vn 0.41910514235496521 0.79717779159545898 -0.43457847833633423
vn 0.67284053564071655 0.15455447137355804 -0.72346287965774536
vn 0.53923130035400391 0.4581044614315033 -0.70666110515594482
vn 0.53923130035400391 0.4581044614315033 -0.70666110515594482
vn 0.53923130035400391 0.4581044614315033 -0.70666110515594482
vn -0.32993188500404358 -0.94390600919723511 -0.013651767745614052
vn -0.32993188500404358 -0.94390600919723511 -0.013651767745614052
vn -0.32993188500404358 -0.94390600919723511 -0.013651767745614052
vn 0.44403895735740662 -0.46051511168479919 0.76860606670379639
vn -0.23827922344207764 -0.60648506879806519 0.75855052471160889
vn 0.0077183726243674755 -0.62329822778701782 0.78194612264633179
vn 0.26293578743934631 -0.33580458164215088 0.90448886156082153
vn 0.52479958534240723 -0.61314433813095093 0.59045690298080444
vn 0.73398667573928833 0.67916232347488403 -0.0014465696876868606
vn 0.8562590479850769 0.51630061864852905 0.015943005681037903
vn -0.0356944240629673 0.99731415510177612 0.063956193625926971
vn -0.0356944240629673 0.99731415510177612 0.063956193625926971
vn -0.0356944240629673 0.99731415510177612 0.063956193625926971
vn 0.95409291982650757 -0.0032919941004365683 0.29949274659156799
vn 0.95409291982650757 -0.0032919941004365683 0.29949274659156799
vn 0.95409291982650757 -0.0032919941004365683 0.29949274659156799
vn 0.43991836905479431 0.34230601787567139 0.83023995161056519
vn 0.43991836905479431 0.34230601787567139 0.83023995161056519
vn 0.43991836905479431 0.34230601787567139 0.83023995161056519
vn 0.11113482713699341 0.96258759498596191 -0.24713180959224701
vn -0.054431501775979996 0.99607002735137939 -0.069868862628936768
vn -0.034079570323228836 0.99516856670379639 -0.092076718807220459
vn 0.51699322462081909 -0.65458357334136963 0.55157804489135742
vn 0.51323044300079346 -0.65804523229598999 0.55097275972366333
vn 0.34796887636184692 -0.78424918651580811 0.51368361711502075
vn 0.81586247682571411 -0.52144593000411987 -0.24992504715919495
vn 0.29950788617134094 -0.95397657155990601 -0.014959008432924747
vn 0.97394561767578125 -0.21396496891975403 0.075159519910812378
vn 0.85260218381881714 -0.21533893048763275 -0.47612884640693665
vn 0.83256739377975464 0.21104618906974792 -0.51214355230331421
vn 0.81390118598937988 -0.38488537073135376 -0.43523338437080383
vn 0.78400415182113647 0.31604596972465515 -0.53427743911743164
vn 0.73983782529830933 -0.67267739772796631 -0.012047943659126759
vn 0.94802975654602051 0.3027484118938446 0.09789295494556427
vn 0.78411215543746948 0.14431723952293396 0.60360634326934814
vn 0.59115689992904663 -0.78379446268081665 0.1902623325586319
vn 0.68939733505249023 -0.6696895956993103 0.27612888813018799
vn 0.74977970123291016 0.66168737411499023 0.00047870379057712853
vn 0.74977970123291016 0.66168737411499023 0.00047870379057712853
vn 0.74977970123291016 0.66168737411499023 0.00047870379057712853
vn 0.78901344537734985 0.015772789716720581 0.61417341232299805
vn 0.76930713653564453 0.10314132273197174 0.63049852848052979
vn 0.77157038450241089 0.10083698481321335 0.62810111045837402
vn 0.79542267322540283 -0.60325855016708374 -0.058154623955488205
vn 0.79542267322540283 -0.60325855016708374 -0.058154609054327011
vn 0.79542267322540283 -0.60325855016708374 -0.058154627680778503
vn 0.84513664245605469 0.17669996619224548 0.50450092554092407
vn 0.77880072593688965 -0.34149301052093506 0.52616721391677856
vn 0.7695963978767395 -0.38439714908599854 0.50986289978027344
vn 0.72108781337738037 -0.25954177975654602 -0.6423943042755127
vn 0.76998478174209595 -0.010975752957165241 -0.63796782493591309
vn 0.77510255575180054 0.15839868783950806 -0.61165833473205566
vn 0.81838715076446533 0.57465589046478271 -0.0036135341506451368
vn 0.4608769416809082 0.88746380805969238 0.00066355965100228786
vn 0.67120033502578735 0.74127435684204102 0.0015562524786219001
vn 0.91026365756988525 0.4139244556427002 0.0093064391985535622
vn 0.99957877397537231 0.027920607477426529 0.0079206777736544609
vn 0.99999517202377319 -0.0026426264084875584 -0.0016240378608927131
vn 0.99748766422271729 -0.0075866724364459515 -0.070432998239994049
vn 0.99893087148666382 0.0069679194130003452 0.045701354742050171
vn 0.99730479717254639 -0.0057511753402650356 -0.073143884539604187
vn 0.97054374217987061 0.24022158980369568 -0.018395150080323219
vn 0.98800373077392578 -0.0042213667184114456 0.15437227487564087
vn 0.63789761066436768 -0.14008334279060364 -0.75727361440658569
vn 0.97889411449432373 -0.078336849808692932 -0.18875820934772491
vn 0.99890369176864624 0.022186430171132088 -0.041220419108867645
vn 0.91680610179901123 0.39469432830810547 -0.060687679797410965
vn 0.99983036518096924 -0.014858541078865528 -0.0108849061653018
vn 0.99633461236953735 0.064170002937316895 0.056564345955848694
vn 0.92167121171951294 0.15503562986850739 0.35564887523651123
vn 0.99974179267883301 -0.021374911069869995 -0.0077095348387956619
vn 0.99328207969665527 -0.089772403240203857 -0.073017731308937073
vn 0.99439436197280884 -0.090915970504283905 -0.053982902318239212
vn 0.99188655614852905 0.051795601844787598 -0.11609616130590439
vn 0.99759131669998169 -0.011908921413123608 -0.068335928022861481
vn 0.9682503342628479 0.18353369832038879 0.16972525417804718
vn 0.9889674186706543 0.11368882656097412 0.094964601099491119
vn 0.9960283637046814 0.05293789878487587 0.071589551866054535
vn 0.69324731826782227 -0.055083118379116058 -0.71859169006347656
vn 0.72867834568023682 -0.56126582622528076 -0.39243924617767334
vn 0.69996970891952515 -0.30464476346969604 -0.64593648910522461
vn 0 0 -1
vn 0 0 -1
vn 0 0 -1
vn 0.10057998448610306 -0.79610395431518555 -0.59674292802810669
vn -0.0026878844946622849 -0.99468338489532471 -0.10294540971517563
vn -0.68601226806640625 -0.72397506237030029 -0.072438381612300873
vn -0.61597967147827148 0.3405836820602417 -0.71033215522766113
vn -0.51391142606735229 0.49348044395446777 -0.70169234275817871
vn -0.26113948225975037 0.71155178546905518 -0.65230375528335571
vn -0.088496401906013489 0.090872429311275482 -0.99192267656326294
vn 0.00186052022036165 -0.16976717114448547 0.98548245429992676
vn -0.12543284893035889 0 -0.99210208654403687
vn 0.28714993596076965 0 -0.95788562297821045
vn -0.35311737656593323 0 -0.93557906150817871
vn -0.929543137550354 0.36847680807113647 -0.013204878196120262
vn -0.99922192096710205 0.028275381773710251 0.027495475485920906
vn -0.40114670991897583 -0.91567367315292358 0.02495991438627243
vn 0.79678511619567871 0.0033726666588336229 -0.60425329208374023
vn 0.79508763551712036 0.00070046586915850639 -0.60649412870407104
vn 0.79875820875167847 -5.2486066124401987E-05 -0.60165214538574219
vn 0.99024516344070435 0.038028355687856674 -0.13404612243175507
vn -0.12337527424097061 0.18891425430774689 0.97421246767044067
vn 0.99423372745513916 0.10672127455472946 0.010483497753739357
vn -0.79391849040985107 -0.060188829898834229 -0.60503774881362915
vn -0.78322070837020874 -0.11732205748558044 -0.61057418584823608
vn -0.81086701154708862 0.087767332792282104 -0.57861173152923584
vn -0.089707113802433014 -0.074463009834289551 0.99318069219589233
vn -0.35213413834571838 -0.55371648073196411 0.75458568334579468
vn 0.9000585675239563 -0.4355088472366333 -0.015053285285830498
vn 0.75557756423950195 -0.65504997968673706 -0.0034806861076503992
vn 0.11450360715389252 -0.99341011047363281 0.0050300564616918564
vn -0.0028871987015008926 -0.98778945207595825 -0.15576785802841187
vn 0.018191935494542122 -0.84655648469924927 -0.53198790550231934
vn -0.86536133289337158 0.5011218786239624 0.0051628886722028255
vn -0.99819439649581909 -0.059366852045059204 -0.0091392332687973976
vn -0.99998366832733154 0.0052572758868336678 0.002246723510324955
vn 0 0.73858296871185303 -0.67416262626647949
vn -0.019396411255002022 -0.81842458248138428 -0.57428646087646484
vn -1.1646426045786029E-08 -0.92662537097930908 -0.37598586082458496
vn 0.17344576120376587 -0.13296888768672943 0.9758257269859314
vn -0.19955559074878693 0.14759936928749084 0.96870636940002441
vn 0.85258692502975464 -0.020251331850886345 0.52219289541244507
vn -0.083923265337944031 0.99634307622909546 0.016041738912463188
vn -0.9705653190612793 -0.14485518634319305 -0.19240571558475494
vn 0 -0.81514507532119751 0.57925683259963989
vn 0.82260149717330933 0.31564843654632568 0.47296175360679626
vn -0.99626708030700684 0.086258828639984131 -0.0033626619260758162
vn 5.2703963415723365E-10 0.11115008592605591 -0.99380362033843994
vn 0 0.40268129110336304 0.91534024477005005
vn 0 0.93507903814315796 0.35443919897079468
usemtl vc_191919__Default
f 1//1 2//2 3//3
f 4//4 5//5 6//6
f 6//6 7//7 4//4
f 8//8 9//9 10//10
f 11//11 12//12 13//13
f 14//14 15//15 16//16
f 17//17 18//18 19//19
f 14//14 16//16 20//20
f 21//21 22//22 7//7
f 22//22 4//4 7//7
f 23//23 24//24 25//25
f 26//26 23//23 25//25
f 27//27 28//28 22//22
f 29//29 30//30 25//25
f 31//31 32//32 33//33
f 34//34 31//31 33//33
f 35//35 34//34 33//33
f 36//36 37//37 34//34
f 38//38 34//34 37//37
f 14//14 39//39 15//15
f 40//40 41//41 42//42
f 43//43 32//32 38//38
f 43//43 44//44 32//32
f 45//45 46//46 32//32
f 47//47 48//48 32//32
f 49//49 50//50 48//48
f 47//47 49//49 48//48
f 51//51 50//50 52//52
f 53//53 38//38 52//52
f 38//38 37//37 52//52
f 53//53 43//43 38//38
f 54//54 55//55 56//56
f 59//59 399//399 57//57 58//58
f 60//60 61//61 62//62
f 63//63 64//64 65//65
f 66//66 67//67 68//68
f 22//22 28//28 69//69
f 70//70 71//71 72//72
f 73//73 69//69 74//74
f 70//70 75//75 71//71
f 70//70 76//76 77//77
f 32//32 70//70 72//72
f 80//80 390//390 78//78 79//79
f 81//81 62//62 61//61
f 82//82 83//83 84//84
f 83//83 82//82 85//85
f 86//86 87//87 88//88
f 77//77 89//89 90//90
f 91//91 86//86 88//88
f 92//92 93//93 94//94
f 95//95 96//96 91//91
f 97//97 98//98 99//99
f 4//4 100//100 101//101
f 102//102 101//101 103//103
f 104//104 24//24 105//105
f 25//25 30//30 26//26
f 106//106 26//26 30//30
f 107//107 30//30 108//108
f 108//108 109//109 110//110
f 111//111 112//112 113//113
f 30//30 29//29 114//114
f 115//115 113//113 116//116
f 117//117 118//118 119//119
f 120//120 121//121 122//122
f 123//123 124//124 125//125
f 123//123 125//125 126//126
f 127//127 128//128 41//41
f 40//40 129//129 41//41
f 130//130 40//40 131//131
f 131//131 361//361 132//132 130//130
f 29//29 362//362 87//87 133//133
f 134//134 93//93 135//135
f 102//102 103//103 136//136 137//137
f 138//138 139//139 140//140
f 141//141 142//142 143//143
f 144//144 145//145 146//146
f 147//147 148//148 149//149
f 150//150 151//151 152//152
f 153//153 154//154 155//155
f 156//156 157//157 158//158
f 159//159 160//160 161//161
f 162//162 163//163 164//164
f 165//165 166//166 167//167
f 168//168 169//169 170//170
f 171//171 172//172 173//173
f 174//174 175//175 176//176
f 177//177 178//178 179//179
f 180//180 181//181 182//182
f 183//183 162//162 164//164
f 184//184 185//185 186//186
f 187//187 188//188 189//189
f 190//190 191//191 192//192
f 193//193 194//194 195//195
f 196//196 197//197 198//198
f 199//199 200//200 201//201
f 202//202 203//203 204//204
f 205//205 206//206 207//207
f 208//208 209//209 210//210
f 211//211 212//212 213//213
f 214//214 215//215 216//216
f 217//217 218//218 219//219
f 141//141 220//220 142//142
f 221//221 214//214 216//216
f 222//222 223//223 224//224
f 225//225 157//157 226//226
f 227//227 228//228 229//229
f 230//230 231//231 232//232
f 233//233 234//234 235//235
f 236//236 233//233 235//235
f 237//237 238//238 239//239
f 136//136 240//240 241//241
f 242//242 243//243 220//220
f 244//244 245//245 246//246
f 247//247 248//248 249//249
f 250//250 251//251 193//193
f 236//236 252//252 233//233
f 253//253 254//254 255//255
f 256//256 257//257 258//258
f 259//259 242//242 220//220
f 260//260 224//224 261//261
f 262//262 263//263 264//264
f 265//265 266//266 267//267
f 268//268 269//269 270//270
f 271//271 272//272 273//273
f 274//274 275//275 276//276
f 277//277 278//278 203//203
f 110//110 257//257 256//256
f 279//279 220//220 280//280
f 281//281 282//282 283//283
f 284//284 285//285 286//286
f 287//287 288//288 289//289
f 290//290 291//291 292//292
f 293//293 294//294 295//295
f 296//296 297//297 298//298
f 299//299 300//300 301//301
f 302//302 300//300 299//299
f 303//303 304//304 305//305
f 306//306 307//307 305//305
f 308//308 309//309 310//310
f 311//311 312//312 313//313
f 314//314 315//315 316//316
f 317//317 318//318 319//319
f 320//320 321//321 322//322
f 323//323 324//324 325//325
f 323//323 325//325 326//326
f 329//329 374//374 327//327 328//328
f 330//330 331//331 329//329
f 332//332 330//330 329//329
f 333//333 332//332 329//329
f 334//334 331//331 335//335
f 336//336 337//337 332//332
f 338//338 339//339 340//340
f 341//341 339//339 338//338
f 342//342 335//335 343//343
f 82//82 336//336 344//344
f 82//82 344//344 345//345
f 345//345 346//346 347//347
f 345//345 348//348 342//342 346//346
f 349//349 350//350 351//351
f 352//352 353//353 354//354
f 356//356 383//383 94//94 355//355
f 117//117 125//125 118//118
f 220//220 243//243 142//142
f 333//333 336//336 332//332
f 357//357 18//18 17//17
f 358//358 359//359 360//360
f 117//117 128//128 127//127
f 363//363 364//364 365//365
f 366//366 367//367 142//142
f 368//368 235//235 234//234
f 369//369 370//370 371//371
f 331//331 372//372 335//335
f 340//340 336//336 82//82
f 135//135 131//131 40//40
f 254//254 373//373 255//255
f 374//374 323//323 326//326
f 375//375 376//376 377//377
f 373//373 378//378 255//255
f 276//276 275//275 379//379
f 136//136 241//241 137//137
f 380//380 381//381 382//382
f 383//383 356//356 96//96
f 205//205 207//207 384//384
f 240//240 324//324 241//241
f 102//102 385//385 101//101
f 386//386 33//33 387//387
f 107//107 108//108 110//110
f 224//224 260//260 222//222
f 55//55 388//388 56//56
f 93//93 389//389 94//94
f 96//96 356//356 91//91
f 93//93 92//92 135//135
f 104//104 391//391 392//392
f 324//324 240//240 325//325
f 82//82 345//345 393//393
f 12//12 394//394 13//13
f 37//37 395//395 52//52
f 60//60 62//62 396//396
f 81//81 61//61 65//65
f 317//317 319//319 397//397
f 326//326 327//327 374//374
f 8//8 10//10 398//398
f 40//40 42//42 135//135
f 64//64 400//400 65//65
f 67//67 401//401 68//68
f 157//157 156//156 226//226
