# Dual color encoding: per-vertex RGB for Rerun, face MTL colors for legacy RViz.
mtllib sim_gene01_l_hand_index_3.mtl
# Rhino

g sim_gene01_l_hand_index_3
v 10.851202292576781 4.3236717501593409 -9.0192457659745031 0.0980392157 0.0980392157 0.0980392157
v 11.591656948555261 -3.8554563795643286 -10.858078199304483 0.0980392157 0.0980392157 0.0980392157
v 12.040486786001868 12.173704138609169 -8.9221038777046022 0.0980392157 0.0980392157 0.0980392157
v -0.98853370189730327 -5.5611893259579386 -12.720400322563959 0.0980392157 0.0980392157 0.0980392157
v -2.4922368059370541 31.761583412010591 -11.915225663986494 0.0980392157 0.0980392157 0.0980392157
v 11.591656948555261 -3.8554563795643286 -10.858078199304483 0.0980392157 0.0980392157 0.0980392157
v 7.8976136985760297 31.340363688545299 -9.0008315068384395 0.0980392157 0.0980392157 0.0980392157
v 13.146374550838818 32.264709909009113 -7.3122238801761972 0.0980392157 0.0980392157 0.0980392157
v 7.0823013694406072 31.860386028597095 -10.985570226227169 0.0980392157 0.0980392157 0.0980392157
v 13.146374550838818 32.264709909009113 -7.3122238801761972 0.0980392157 0.0980392157 0.0980392157
v 7.0823013694406072 31.860386028597095 -10.985570226227169 0.0980392157 0.0980392157 0.0980392157
v -1.3829671304242765 -5.7205508043568472 -11.201022839836911 0.0980392157 0.0980392157 0.0980392157
v 11.591656948555261 -3.8554563795643286 -10.858078199304483 0.0980392157 0.0980392157 0.0980392157
v 4.9850833782542594 -2.1045397550831701 -10.496540356421848 0.0980392157 0.0980392157 0.0980392157
v -2.4922368059370541 31.761583412010591 -11.915225663986494 0.0980392157 0.0980392157 0.0980392157
v -1.5092651099795731 32.092268685932595 -10.474600255709984 0.0980392157 0.0980392157 0.0980392157
v 7.0823013694406072 31.860386028597095 -10.985570226227169 0.0980392157 0.0980392157 0.0980392157
v -1.3829671304242765 -5.7205508043568472 -11.201022839836911 0.0980392157 0.0980392157 0.0980392157
v -0.98853370189730327 -5.5611893259579386 -12.720400322563959 0.0980392157 0.0980392157 0.0980392157
v 11.591656948555261 -3.8554563795643286 -10.858078199304483 0.0980392157 0.0980392157 0.0980392157
v 2.3575461271966631 13.983225434432171 -10.881410237140321 0.0980392157 0.0980392157 0.0980392157
v -12.19914958315738 3.6304803538550319 -9.0698141963647245 0.0980392157 0.0980392157 0.0980392157
v -11.587329009611656 -4.6664275882036224 -10.493887915900693 0.0980392157 0.0980392157 0.0980392157
v -13.446869674890872 32.651814882669719 -6.5525322354616522 0.0980392157 0.0980392157 0.0980392157
v -1.5092651099795731 32.092268685932595 -10.474600255709984 0.0980392157 0.0980392157 0.0980392157
v -2.4922368059370541 31.761583412010591 -11.915225663986494 0.0980392157 0.0980392157 0.0980392157
v -13.006357545516529 13.496480950269124 -9.9151065482735596 0.0980392157 0.0980392157 0.0980392157
v -11.587329009611656 -4.6664275882036224 -10.493887915900693 0.0980392157 0.0980392157 0.0980392157
v -12.19914958315738 3.6304803538550319 -9.0698141963647245 0.0980392157 0.0980392157 0.0980392157
v -13.006357545516529 13.496480950269124 -9.9151065482735596 0.0980392157 0.0980392157 0.0980392157
v 13.146374550838818 32.264709909009113 -7.3122238801761972 0.0980392157 0.0980392157 0.0980392157
v 12.040486786001868 12.173704138609169 -8.9221038777046022 0.0980392157 0.0980392157 0.0980392157
v 13.146374550838818 32.264709909009113 -7.3122238801761972 0.0980392157 0.0980392157 0.0980392157
v 12.979273701159075 13.346550597147774 -3.3105978112155192 0.0980392157 0.0980392157 0.0980392157
v 11.687471992068877 -3.6574849921898083 -4.0668113114062594 0.0980392157 0.0980392157 0.0980392157
v 5.9597076501547459 34.858217339293937 -5.269346393494998 0.0980392157 0.0980392157 0.0980392157
v 7.8976136985760297 31.340363688545299 -9.0008315068384395 0.0980392157 0.0980392157 0.0980392157
v 4.9850833782542594 -2.1045397550831701 -10.496540356421848 0.0980392157 0.0980392157 0.0980392157
v 11.591656948555261 -3.8554563795643286 -10.858078199304483 0.0980392157 0.0980392157 0.0980392157
v 8.3288539588414068 -2.5075036401621498 -6.1714686174393538 0.0980392157 0.0980392157 0.0980392157
v 5.9597076501547459 34.858217339293937 -5.269346393494998 0.0980392157 0.0980392157 0.0980392157
v 7.8976136985760297 31.340363688545299 -9.0008315068384395 0.0980392157 0.0980392157 0.0980392157
v 7.772881999067085 29.652353570862623 -4.8143796593917667 0.0980392157 0.0980392157 0.0980392157
v 7.8976136985760297 31.340363688545299 -9.0008315068384395 0.0980392157 0.0980392157 0.0980392157
v 6.8510624412117025 23.719271255026108 -9.9426505857573115 0.0980392157 0.0980392157 0.0980392157
v 11.712835100875811 25.28670872765041 -6.612879350327086 0.0980392157 0.0980392157 0.0980392157
v 7.772881999067085 29.652353570862623 -4.8143796593917667 0.0980392157 0.0980392157 0.0980392157
v 7.8976136985760297 31.340363688545299 -9.0008315068384395 0.0980392157 0.0980392157 0.0980392157
v 11.712835100875811 25.28670872765041 -6.612879350327086 0.0980392157 0.0980392157 0.0980392157
v 7.2011585235595703 23.207786560058594 -5.25 0.0980392157 0.0980392157 0.0980392157
v 11.712835100875811 25.28670872765041 -6.612879350327086 0.0980392157 0.0980392157 0.0980392157
v 6.8510624412117025 23.719271255026108 -9.9426505857573115 0.0980392157 0.0980392157 0.0980392157
v 7.7167985938225794 12.797104734084593 -5.3043824865359968 0.0980392157 0.0980392157 0.0980392157
v 6.8510624412117025 23.719271255026108 -9.9426505857573115 0.0980392157 0.0980392157 0.0980392157
v 8.4400831873622923 16.323105269131137 -7.6234448740915717 0.0980392157 0.0980392157 0.0980392157
v 7.2011585235595703 23.207786560058594 -5.25 0.0980392157 0.0980392157 0.0980392157
v 12.040486786001868 12.173704138609169 -8.9221038777046022 0.0980392157 0.0980392157 0.0980392157
v 8.3288539588414068 -2.5075036401621498 -6.1714686174393538 0.0980392157 0.0980392157 0.0980392157
v 10.851202292576781 4.3236717501593409 -9.0192457659745031 0.0980392157 0.0980392157 0.0980392157
v 4.9850833782542594 -2.1045397550831701 -10.496540356421848 0.0980392157 0.0980392157 0.0980392157
v -0.063726418775183147 16.780767379884715 -7.7969575856538835 0.0980392157 0.0980392157 0.0980392157
v 6.8510624412117025 23.719271255026108 -9.9426505857573115 0.0980392157 0.0980392157 0.0980392157
v 2.1519111674917033 24.311502134231699 -10.37696419028331 0.0980392157 0.0980392157 0.0980392157
v 2.3575461271966631 13.983225434432171 -10.881410237140321 0.0980392157 0.0980392157 0.0980392157
v 8.4400831873622923 16.323105269131137 -7.6234448740915717 0.0980392157 0.0980392157 0.0980392157
v 6.8510624412117025 23.719271255026108 -9.9426505857573115 0.0980392157 0.0980392157 0.0980392157
v 1.6218307798340388 22.599429059842414 -5.4057873395116802 0.0980392157 0.0980392157 0.0980392157
v -0.063726418775183147 16.780767379884715 -7.7969575856538835 0.0980392157 0.0980392157 0.0980392157
v 2.1519111674917033 24.311502134231699 -10.37696419028331 0.0980392157 0.0980392157 0.0980392157
v 1.0292175636360574 16.105951572268602 -5.3348707367321078 0.0980392157 0.0980392157 0.0980392157
v -0.063726418775183147 16.780767379884715 -7.7969575856538835 0.0980392157 0.0980392157 0.0980392157
v 1.6218307798340388 22.599429059842414 -5.4057873395116802 0.0980392157 0.0980392157 0.0980392157
v -9.5325955662887765 22.308870309944496 -9.304814788725233 0.0980392157 0.0980392157 0.0980392157
v 2.1519111674917033 24.311502134231699 -10.37696419028331 0.0980392157 0.0980392157 0.0980392157
v -1.5092651099795731 32.092268685932595 -10.474600255709984 0.0980392157 0.0980392157 0.0980392157
v -9.5325955662887765 22.308870309944496 -9.304814788725233 0.0980392157 0.0980392157 0.0980392157
v 1.6218307798340388 22.599429059842414 -5.4057873395116802 0.0980392157 0.0980392157 0.0980392157
v 2.1519111674917033 24.311502134231699 -10.37696419028331 0.0980392157 0.0980392157 0.0980392157
v -13.780612739954876 13.391426873271788 -5.3094573430893099 0.0980392157 0.0980392157 0.0980392157
v -0.063726418775183147 16.780767379884715 -7.7969575856538835 0.0980392157 0.0980392157 0.0980392157
v 1.0292175636360574 16.105951572268602 -5.3348707367321078 0.0980392157 0.0980392157 0.0980392157
v -13.006357545516529 13.496480950269124 -9.9151065482735596 0.0980392157 0.0980392157 0.0980392157
v 2.3575461271966631 13.983225434432171 -10.881410237140321 0.0980392157 0.0980392157 0.0980392157
v -0.063726418775183147 16.780767379884715 -7.7969575856538835 0.0980392157 0.0980392157 0.0980392157
v -9.5325955662887765 22.308870309944496 -9.304814788725233 0.0980392157 0.0980392157 0.0980392157
v -12.036928463372735 21.572380155829418 -5.6941626614011183 0.0980392157 0.0980392157 0.0980392157
v 1.6218307798340388 22.599429059842414 -5.4057873395116802 0.0980392157 0.0980392157 0.0980392157
v -11.587329009611656 -4.6664275882036224 -10.493887915900693 0.0980392157 0.0980392157 0.0980392157
v -11.36523725697082 7.8214827762385024 -5.0385032130312393 0.0980392157 0.0980392157 0.0980392157
v -11.587329009611656 -4.6664275882036224 -10.493887915900693 0.0980392157 0.0980392157 0.0980392157
v -12.19914958315738 3.6304803538550319 -9.0698141963647245 0.0980392157 0.0980392157 0.0980392157
v -12.205011157145188 -3.0078206028639607 4.3622434471053682 0.0980392157 0.0980392157 0.0980392157
v -13.769687526950861 -2.5667242731733899 -5.2026894641783317 0.0980392157 0.0980392157 0.0980392157
v -11.587329009611656 -4.6664275882036224 -10.493887915900693 0.0980392157 0.0980392157 0.0980392157
v -12.205011157145188 -3.0078206028639607 4.3622434471053682 0.0980392157 0.0980392157 0.0980392157
v -12.036928463372735 21.572380155829418 -5.6941626614011183 0.0980392157 0.0980392157 0.0980392157
v -9.5325955662887765 22.308870309944496 -9.304814788725233 0.0980392157 0.0980392157 0.0980392157
v -13.446869674890872 32.651814882669719 -6.5525322354616522 0.0980392157 0.0980392157 0.0980392157
v -13.769687526950861 -2.5667242731733899 -5.2026894641783317 0.0980392157 0.0980392157 0.0980392157
v -12.19914958315738 3.6304803538550319 -9.0698141963647245 0.0980392157 0.0980392157 0.0980392157
v -11.587329009611656 -4.6664275882036224 -10.493887915900693 0.0980392157 0.0980392157 0.0980392157
v -11.36523725697082 7.8214827762385024 -5.0385032130312393 0.0980392157 0.0980392157 0.0980392157
v -12.566329264800803 32.121140493766319 -8.8710270013709138 0.0980392157 0.0980392157 0.0980392157
v -13.006357545516529 13.496480950269124 -9.9151065482735596 0.0980392157 0.0980392157 0.0980392157
v -13.780612739954876 13.391426873271788 -5.3094573430893099 0.0980392157 0.0980392157 0.0980392157
v 14.672533958809979 -0.23926804213152442 0.2934792338523684 0.0980392157 0.0980392157 0.0980392157
v 11.687471992068877 -3.6574849921898083 -4.0668113114062594 0.0980392157 0.0980392157 0.0980392157
v 11.523817354902873 4.0827074811921378 -4.7389859247296071 0.0980392157 0.0980392157 0.0980392157
v 7.9548133929926053 -6.0806319610795763 0.76508666183004326 0.0980392157 0.0980392157 0.0980392157
v 8.3288539588414068 -2.5075036401621498 -6.1714686174393538 0.0980392157 0.0980392157 0.0980392157
v 11.687471992068877 -3.6574849921898083 -4.0668113114062594 0.0980392157 0.0980392157 0.0980392157
v 5.9597076501547459 34.858217339293937 -5.269346393494998 0.0980392157 0.0980392157 0.0980392157
v 7.772881999067085 29.652353570862623 -4.8143796593917667 0.0980392157 0.0980392157 0.0980392157
v 13.146374550838818 32.264709909009113 -7.3122238801761972 0.0980392157 0.0980392157 0.0980392157
v 7.7167985938225794 12.797104734084593 -5.3043824865359968 0.0980392157 0.0980392157 0.0980392157
v 5.7116656516807396 8.0965674730060329 -5.2482548692407631 0.0980392157 0.0980392157 0.0980392157
v 1.0292175636360574 16.105951572268602 -5.3348707367321078 0.0980392157 0.0980392157 0.0980392157
v 12.979273701159075 13.346550597147774 -3.3105978112155192 0.0980392157 0.0980392157 0.0980392157
v 11.523817354902873 4.0827074811921378 -4.7389859247296071 0.0980392157 0.0980392157 0.0980392157
v 8.1534510063878649 4.2132251315614937 -5.4049899286704655 0.0980392157 0.0980392157 0.0980392157
v 7.772881999067085 29.652353570862623 -4.8143796593917667 0.0980392157 0.0980392157 0.0980392157
v 11.992848075125265 31.068237326891825 -3.3601828139106193 0.0980392157 0.0980392157 0.0980392157
v 13.146374550838818 32.264709909009113 -7.3122238801761972 0.0980392157 0.0980392157 0.0980392157
v -8.361321869028508 37.854800933637172 -5.2171503379499757 0.0980392157 0.0980392157 0.0980392157
v 7.2011585235595703 23.207786560058594 -5.25 0.0980392157 0.0980392157 0.0980392157
v 1.6218307798340388 22.599429059842414 -5.4057873395116802 0.0980392157 0.0980392157 0.0980392157
v -11.36523725697082 7.8214827762385024 -5.0385032130312393 0.0980392157 0.0980392157 0.0980392157
v -13.780612739954876 13.391426873271788 -5.3094573430893099 0.0980392157 0.0980392157 0.0980392157
v -12.036928463372735 21.572380155829418 -5.6941626614011183 0.0980392157 0.0980392157 0.0980392157
v -13.446869674890872 32.651814882669719 -6.5525322354616522 0.0980392157 0.0980392157 0.0980392157
v 13.179283411181762 29.341315697295876 1.5622033613515292 0.0980392157 0.0980392157 0.0980392157
v 9.0833588947762784 34.862719709456684 -0.40279239056455612 0.0980392157 0.0980392157 0.0980392157
v 13.146374550838818 32.264709909009113 -7.3122238801761972 0.0980392157 0.0980392157 0.0980392157
v 11.992848075125265 31.068237326891825 -3.3601828139106193 0.0980392157 0.0980392157 0.0980392157
v 9.0833588947762784 34.862719709456684 -0.40279239056455612 0.0980392157 0.0980392157 0.0980392157
v 13.179283411181762 29.341315697295876 1.5622033613515292 0.0980392157 0.0980392157 0.0980392157
v 13.146374550838818 32.264709909009113 -7.3122238801761972 0.0980392157 0.0980392157 0.0980392157
v 11.687471992068877 -3.6574849921898083 -4.0668113114062594 0.0980392157 0.0980392157 0.0980392157
v 9.7296966699516059 -4.185746724467446 5.5213201374044347 0.0980392157 0.0980392157 0.0980392157
v 7.9548133929926053 -6.0806319610795763 0.76508666183004326 0.0980392157 0.0980392157 0.0980392157
v 11.037436740767589 21.456158564485598 -3.2967455514801376 0.0980392157 0.0980392157 0.0980392157
v 11.992848075125265 31.068237326891825 -3.3601828139106193 0.0980392157 0.0980392157 0.0980392157
v 7.772881999067085 29.652353570862623 -4.8143796593917667 0.0980392157 0.0980392157 0.0980392157
v 7.8566544545772459 32.412662515848538 0.70382354202793285 0.0980392157 0.0980392157 0.0980392157
v 7.772881999067085 29.652353570862623 -4.8143796593917667 0.0980392157 0.0980392157 0.0980392157
v 11.992848075125265 31.068237326891825 -3.3601828139106193 0.0980392157 0.0980392157 0.0980392157
v 11.992848075125265 31.068237326891825 -3.3601828139106193 0.0980392157 0.0980392157 0.0980392157
v 11.037436740767589 21.456158564485598 -3.2967455514801376 0.0980392157 0.0980392157 0.0980392157
v 13.179283411181762 29.341315697295876 1.5622033613515292 0.0980392157 0.0980392157 0.0980392157
v 7.8566544545772459 32.412662515848538 0.70382354202793285 0.0980392157 0.0980392157 0.0980392157
v 11.992848075125265 31.068237326891825 -3.3601828139106193 0.0980392157 0.0980392157 0.0980392157
v 13.179283411181762 29.341315697295876 1.5622033613515292 0.0980392157 0.0980392157 0.0980392157
v 9.0833588947762784 34.862719709456684 -0.40279239056455612 0.0980392157 0.0980392157 0.0980392157
v 11.992848075125265 31.068237326891825 -3.3601828139106193 0.0980392157 0.0980392157 0.0980392157
v 7.772881999067085 29.652353570862623 -4.8143796593917667 0.0980392157 0.0980392157 0.0980392157
v 9.0833588947762784 34.862719709456684 -0.40279239056455612 0.0980392157 0.0980392157 0.0980392157
v 7.772881999067085 29.652353570862623 -4.8143796593917667 0.0980392157 0.0980392157 0.0980392157
v 5.9597076501547459 34.858217339293937 -5.269346393494998 0.0980392157 0.0980392157 0.0980392157
v 5.387158300208597 28.510408995474251 1.3662569944243872 0.0980392157 0.0980392157 0.0980392157
v 7.772881999067085 29.652353570862623 -4.8143796593917667 0.0980392157 0.0980392157 0.0980392157
v 7.8566544545772459 32.412662515848538 0.70382354202793285 0.0980392157 0.0980392157 0.0980392157
v 6.3468156565900333 23.357517484674332 -2.7557472093741135 0.0980392157 0.0980392157 0.0980392157
v 5.387158300208597 28.510408995474251 1.3662569944243872 0.0980392157 0.0980392157 0.0980392157
v 6.3468156565900333 23.357517484674332 -2.7557472093741135 0.0980392157 0.0980392157 0.0980392157
v 7.772881999067085 29.652353570862623 -4.8143796593917667 0.0980392157 0.0980392157 0.0980392157
v 8.8844732761201541 20.661262557311243 1.4876130581622213 0.0980392157 0.0980392157 0.0980392157
v 6.3468156565900333 23.357517484674332 -2.7557472093741135 0.0980392157 0.0980392157 0.0980392157
v 8.8844732761201541 20.661262557311243 1.4876130581622213 0.0980392157 0.0980392157 0.0980392157
v 11.037436740767589 21.456158564485598 -3.2967455514801376 0.0980392157 0.0980392157 0.0980392157
v 4.9639094792775396 36.723003367945402 4.9939836095671524 0.0980392157 0.0980392157 0.0980392157
v 9.0833588947762784 34.862719709456684 -0.40279239056455612 0.0980392157 0.0980392157 0.0980392157
v 5.9597076501547459 34.858217339293937 -5.269346393494998 0.0980392157 0.0980392157 0.0980392157
v 3.8294388772483847 41.517232245914606 -4.8352778474696532 0.0980392157 0.0980392157 0.0980392157
v 5.9597076501547459 34.858217339293937 -5.269346393494998 0.0980392157 0.0980392157 0.0980392157
v 4.9639094792775396 36.723003367945402 4.9939836095671524 0.0980392157 0.0980392157 0.0980392157
v 5.9597076501547459 34.858217339293937 -5.269346393494998 0.0980392157 0.0980392157 0.0980392157
v 3.8294388772483847 41.517232245914606 -4.8352778474696532 0.0980392157 0.0980392157 0.0980392157
v -7.4185474677043635 42.55331597479703 -0.044693768067152063 0.0980392157 0.0980392157 0.0980392157
v 3.8294388772483847 41.517232245914606 -4.8352778474696532 0.0980392157 0.0980392157 0.0980392157
v -8.361321869028508 37.854800933637172 -5.2171503379499757 0.0980392157 0.0980392157 0.0980392157
v 7.9548133929926053 -6.0806319610795763 0.76508666183004326 0.0980392157 0.0980392157 0.0980392157
v 5.7116656516807396 8.0965674730060329 -5.2482548692407631 0.0980392157 0.0980392157 0.0980392157
v 8.1534510063878649 4.2132251315614937 -5.4049899286704655 0.0980392157 0.0980392157 0.0980392157
v 7.9548133929926053 -6.0806319610795763 0.76508666183004326 0.0980392157 0.0980392157 0.0980392157
v 9.7296966699516059 -4.185746724467446 5.5213201374044347 0.0980392157 0.0980392157 0.0980392157
v 5.7116656516807396 8.0965674730060329 -5.2482548692407631 0.0980392157 0.0980392157 0.0980392157
v 5.8318254948689399 8.4854467603564689 4.7919445131251699 0.0980392157 0.0980392157 0.0980392157
v 2.7521346998791452 10.122049562767105 0.71175456810746873 0.0980392157 0.0980392157 0.0980392157
v 5.7116656516807396 8.0965674730060329 -5.2482548692407631 0.0980392157 0.0980392157 0.0980392157
v 5.8318254948689399 8.4854467603564689 4.7919445131251699 0.0980392157 0.0980392157 0.0980392157
v 5.7116656516807396 8.0965674730060329 -5.2482548692407631 0.0980392157 0.0980392157 0.0980392157
v 8.1534510063878649 4.2132251315614937 -5.4049899286704655 0.0980392157 0.0980392157 0.0980392157
v 8.3288539588414068 -2.5075036401621498 -6.1714686174393538 0.0980392157 0.0980392157 0.0980392157
v -9.8084212168108227 9.7328997601427858 -1.3885783790995476 0.0980392157 0.0980392157 0.0980392157
v -11.36523725697082 7.8214827762385024 -5.0385032130312393 0.0980392157 0.0980392157 0.0980392157
v 2.7521346998791452 10.122049562767105 0.71175456810746873 0.0980392157 0.0980392157 0.0980392157
v -13.857883737953609 31.172298682722836 0.3791332094157101 0.0980392157 0.0980392157 0.0980392157
v -7.6715856890288432 39.388367853334564 5.1870084154323024 0.0980392157 0.0980392157 0.0980392157
v -8.361321869028508 37.854800933637172 -5.2171503379499757 0.0980392157 0.0980392157 0.0980392157
v -14.195593275915586 0.22132636484294677 3.8391071077272776 0.0980392157 0.0980392157 0.0980392157
v -12.205011157145188 -3.0078206028639607 4.3622434471053682 0.0980392157 0.0980392157 0.0980392157
v -11.309318538428652 7.602154289872515 5.3309752040582277 0.0980392157 0.0980392157 0.0980392157
v -13.512378075573871 11.350821740879852 4.8691494329220566 0.0980392157 0.0980392157 0.0980392157
v -13.780612739954876 13.391426873271788 -5.3094573430893099 0.0980392157 0.0980392157 0.0980392157
v -14.195593275915586 0.22132636484294677 3.8391071077272776 0.0980392157 0.0980392157 0.0980392157
v -14.195593275915586 0.22132636484294677 3.8391071077272776 0.0980392157 0.0980392157 0.0980392157
v -13.769687526950861 -2.5667242731733899 -5.2026894641783317 0.0980392157 0.0980392157 0.0980392157
v 14.672533958809979 -0.23926804213152442 0.2934792338523684 0.0980392157 0.0980392157 0.0980392157
v 9.7296966699516059 -4.185746724467446 5.5213201374044347 0.0980392157 0.0980392157 0.0980392157
v 11.687471992068877 -3.6574849921898083 -4.0668113114062594 0.0980392157 0.0980392157 0.0980392157
v -13.857883737953609 31.172298682722836 0.3791332094157101 0.0980392157 0.0980392157 0.0980392157
v -8.361321869028508 37.854800933637172 -5.2171503379499757 0.0980392157 0.0980392157 0.0980392157
v -13.512378075573871 11.350821740879852 4.8691494329220566 0.0980392157 0.0980392157 0.0980392157
v -13.857883737953609 31.172298682722836 0.3791332094157101 0.0980392157 0.0980392157 0.0980392157
v 13.099449076167121 25.797174842319613 5.4482538976845607 0.0980392157 0.0980392157 0.0980392157
v 6.892366851677683 28.238812230304042 5.108130413890561 0.0980392157 0.0980392157 0.0980392157
v 7.8566544545772459 32.412662515848538 0.70382354202793285 0.0980392157 0.0980392157 0.0980392157
v 13.179283411181762 29.341315697295876 1.5622033613515292 0.0980392157 0.0980392157 0.0980392157
v 6.892366851677683 28.238812230304042 5.108130413890561 0.0980392157 0.0980392157 0.0980392157
v 13.179283411181762 29.341315697295876 1.5622033613515292 0.0980392157 0.0980392157 0.0980392157
v 5.387158300208597 28.510408995474251 1.3662569944243872 0.0980392157 0.0980392157 0.0980392157
v 6.892366851677683 28.238812230304042 5.108130413890561 0.0980392157 0.0980392157 0.0980392157
v 5.387158300208597 28.510408995474251 1.3662569944243872 0.0980392157 0.0980392157 0.0980392157
v 7.8566544545772459 32.412662515848538 0.70382354202793285 0.0980392157 0.0980392157 0.0980392157
v 4.5811342960397692 40.930460721301571 4.7875738795135154 0.0980392157 0.0980392157 0.0980392157
v 4.9639094792775396 36.723003367945402 4.9939836095671524 0.0980392157 0.0980392157 0.0980392157
v 3.8294388772483847 41.517232245914606 -4.8352778474696532 0.0980392157 0.0980392157 0.0980392157
v 4.5811342960397692 40.930460721301571 4.7875738795135154 0.0980392157 0.0980392157 0.0980392157
v 3.8294388772483847 41.517232245914606 -4.8352778474696532 0.0980392157 0.0980392157 0.0980392157
v -11.309318538428652 7.602154289872515 5.3309752040582277 0.0980392157 0.0980392157 0.0980392157
v 2.7521346998791452 10.122049562767105 0.71175456810746873 0.0980392157 0.0980392157 0.0980392157
v 14.672533958809979 -0.23926804213152442 0.2934792338523684 0.0980392157 0.0980392157 0.0980392157
v 11.906537233025876 4.0881221932685463 3.9878551169427645 0.0980392157 0.0980392157 0.0980392157
v 9.7296966699516059 -4.185746724467446 5.5213201374044347 0.0980392157 0.0980392157 0.0980392157
v 13.099449076167121 25.797174842319613 5.4482538976845607 0.0980392157 0.0980392157 0.0980392157
v 6.892366851677683 28.238812230304042 5.108130413890561 0.0980392157 0.0980392157 0.0980392157
v 9.0833588947762784 34.862719709456684 -0.40279239056455612 0.0980392157 0.0980392157 0.0980392157
v 4.9639094792775396 36.723003367945402 4.9939836095671524 0.0980392157 0.0980392157 0.0980392157
v 13.179283411181762 29.341315697295876 1.5622033613515292 0.0980392157 0.0980392157 0.0980392157
v 9.0833588947762784 34.862719709456684 -0.40279239056455612 0.0980392157 0.0980392157 0.0980392157
v 6.892366851677683 28.238812230304042 5.108130413890561 0.0980392157 0.0980392157 0.0980392157
v 5.8318254948689399 8.4854467603564689 4.7919445131251699 0.0980392157 0.0980392157 0.0980392157
v -7.6715856890288432 39.388367853334564 5.1870084154323024 0.0980392157 0.0980392157 0.0980392157
v -13.857883737953609 31.172298682722836 0.3791332094157101 0.0980392157 0.0980392157 0.0980392157
v -8.2275710790349521 28.541384283232695 5.1563011466837638 0.0980392157 0.0980392157 0.0980392157
v -7.6715856890288432 39.388367853334564 5.1870084154323024 0.0980392157 0.0980392157 0.0980392157
v -8.2275710790349521 28.541384283232695 5.1563011466837638 0.0980392157 0.0980392157 0.0980392157
v 6.892366851677683 28.238812230304042 5.108130413890561 0.0980392157 0.0980392157 0.0980392157
v 4.9639094792775396 36.723003367945402 4.9939836095671524 0.0980392157 0.0980392157 0.0980392157
v -10.750074290289355 13.682710306458207 8.0646959431746783 0.0980392157 0.0980392157 0.0980392157
v -12.790566623400569 24.473841805884327 6.1561081209551318 0.0980392157 0.0980392157 0.0980392157
v 12.402248444750832 13.765328055457225 5.0606627285914545 0.0980392157 0.0980392157 0.0980392157
v 13.099449076167121 25.797174842319613 5.4482538976845607 0.0980392157 0.0980392157 0.0980392157
v 7.6294321833807572 14.239317951137107 8.1453661793545908 0.0980392157 0.0980392157 0.0980392157
v 6.892366851677683 28.238812230304042 5.108130413890561 0.0980392157 0.0980392157 0.0980392157
v 6.5710608746013008 22.627707039555681 8.0280997491862003 0.0980392157 0.0980392157 0.0980392157
v 13.099449076167121 25.797174842319613 5.4482538976845607 0.0980392157 0.0980392157 0.0980392157
v 5.8318254948689399 8.4854467603564689 4.7919445131251699 0.0980392157 0.0980392157 0.0980392157
v 7.6294321833807572 14.239317951137107 8.1453661793545908 0.0980392157 0.0980392157 0.0980392157
v -13.512378075573871 11.350821740879852 4.8691494329220566 0.0980392157 0.0980392157 0.0980392157
v 7.6294321833807572 14.239317951137107 8.1453661793545908 0.0980392157 0.0980392157 0.0980392157
v 5.8318254948689399 8.4854467603564689 4.7919445131251699 0.0980392157 0.0980392157 0.0980392157
v 12.402248444750832 13.765328055457225 5.0606627285914545 0.0980392157 0.0980392157 0.0980392157
v 4.5811342960397692 40.930460721301571 4.7875738795135154 0.0980392157 0.0980392157 0.0980392157
v -7.6715856890288432 39.388367853334564 5.1870084154323024 0.0980392157 0.0980392157 0.0980392157
v 6.5710608746013008 22.627707039555681 8.0280997491862003 0.0980392157 0.0980392157 0.0980392157
v 6.892366851677683 28.238812230304042 5.108130413890561 0.0980392157 0.0980392157 0.0980392157
v -0.75283367225415532 23.940659352288108 5.2403496101162848 0.0980392157 0.0980392157 0.0980392157
v -6.1593912120054028 22.764823278768354 8.5205591892255228 0.0980392157 0.0980392157 0.0980392157
v 6.5710608746013008 22.627707039555681 8.0280997491862003 0.0980392157 0.0980392157 0.0980392157
v -0.75283367225415532 23.940659352288108 5.2403496101162848 0.0980392157 0.0980392157 0.0980392157
v -12.790566623400569 24.473841805884327 6.1561081209551318 0.0980392157 0.0980392157 0.0980392157
v -12.790566623400569 24.473841805884327 6.1561081209551318 0.0980392157 0.0980392157 0.0980392157
v -8.2275710790349521 28.541384283232695 5.1563011466837638 0.0980392157 0.0980392157 0.0980392157
v -13.857883737953609 31.172298682722836 0.3791332094157101 0.0980392157 0.0980392157 0.0980392157
v -10.750074290289355 13.682710306458207 8.0646959431746783 0.0980392157 0.0980392157 0.0980392157
v -13.512378075573871 11.350821740879852 4.8691494329220566 0.0980392157 0.0980392157 0.0980392157
v 7.6294321833807572 14.239317951137107 8.1453661793545908 0.0980392157 0.0980392157 0.0980392157
v 6.5710608746013008 22.627707039555681 8.0280997491862003 0.0980392157 0.0980392157 0.0980392157
v 7.6294321833807572 14.239317951137107 8.1453661793545908 0.0980392157 0.0980392157 0.0980392157
v -6.1593912120054028 22.764823278768354 8.5205591892255228 0.0980392157 0.0980392157 0.0980392157
v -12.790566623400569 24.473841805884327 6.1561081209551318 0.0980392157 0.0980392157 0.0980392157
v -10.750074290289355 13.682710306458207 8.0646959431746783 0.0980392157 0.0980392157 0.0980392157
v -12.566329264800803 32.121140493766319 -8.8710270013709138 0.0980392157 0.0980392157 0.0980392157
v 10.851202292576781 4.3236717501593409 -9.0192457659745031 0.0980392157 0.0980392157 0.0980392157
v 8.1534510063878649 4.2132251315614937 -5.4049899286704655 0.0980392157 0.0980392157 0.0980392157
v 10.851202292576781 4.3236717501593409 -9.0192457659745031 0.0980392157 0.0980392157 0.0980392157
v 8.3288539588414068 -2.5075036401621498 -6.1714686174393538 0.0980392157 0.0980392157 0.0980392157
v 12.402248444750832 13.765328055457225 5.0606627285914545 0.0980392157 0.0980392157 0.0980392157
v 11.906537233025876 4.0881221932685463 3.9878551169427645 0.0980392157 0.0980392157 0.0980392157
v 5.8318254948689399 8.4854467603564689 4.7919445131251699 0.0980392157 0.0980392157 0.0980392157
v 9.7296966699516059 -4.185746724467446 5.5213201374044347 0.0980392157 0.0980392157 0.0980392157
v 12.402248444750832 13.765328055457225 5.0606627285914545 0.0980392157 0.0980392157 0.0980392157
v 7.7167985938225794 12.797104734084593 -5.3043824865359968 0.0980392157 0.0980392157 0.0980392157
v 12.040486786001868 12.173704138609169 -8.9221038777046022 0.0980392157 0.0980392157 0.0980392157
v 12.979273701159075 13.346550597147774 -3.3105978112155192 0.0980392157 0.0980392157 0.0980392157
v 8.4400831873622923 16.323105269131137 -7.6234448740915717 0.0980392157 0.0980392157 0.0980392157
v -13.006357545516529 13.496480950269124 -9.9151065482735596 0.0980392157 0.0980392157 0.0980392157
v 7.772881999067085 29.652353570862623 -4.8143796593917667 0.0980392157 0.0980392157 0.0980392157
v -13.769687526950861 -2.5667242731733899 -5.2026894641783317 0.0980392157 0.0980392157 0.0980392157
v -13.780612739954876 13.391426873271788 -5.3094573430893099 0.0980392157 0.0980392157 0.0980392157
v -13.446869674890872 32.651814882669719 -6.5525322354616522 0.0980392157 0.0980392157 0.0980392157
v -13.780612739954876 13.391426873271788 -5.3094573430893099 0.0980392157 0.0980392157 0.0980392157
v -8.361321869028508 37.854800933637172 -5.2171503379499757 0.0980392157 0.0980392157 0.0980392157
v -7.6715856890288432 39.388367853334564 5.1870084154323024 0.0980392157 0.0980392157 0.0980392157
v -7.4185474677043635 42.55331597479703 -0.044693768067152063 0.0980392157 0.0980392157 0.0980392157
v -13.512378075573871 11.350821740879852 4.8691494329220566 0.0980392157 0.0980392157 0.0980392157
v -12.205011157145188 -3.0078206028639607 4.3622434471053682 0.0980392157 0.0980392157 0.0980392157
v 14.672533958809979 -0.23926804213152442 0.2934792338523684 0.0980392157 0.0980392157 0.0980392157
v 11.523817354902873 4.0827074811921378 -4.7389859247296071 0.0980392157 0.0980392157 0.0980392157
v 11.906537233025876 4.0881221932685463 3.9878551169427645 0.0980392157 0.0980392157 0.0980392157
v 9.7296966699516059 -4.185746724467446 5.5213201374044347 0.0980392157 0.0980392157 0.0980392157
v 11.906537233025876 4.0881221932685463 3.9878551169427645 0.0980392157 0.0980392157 0.0980392157
v -12.566329264800803 32.121140493766319 -8.8710270013709138 0.0980392157 0.0980392157 0.0980392157
v -8.2275710790349521 28.541384283232695 5.1563011466837638 0.0980392157 0.0980392157 0.0980392157
v -12.790566623400569 24.473841805884327 6.1561081209551318 0.0980392157 0.0980392157 0.0980392157
v -0.75283367225415532 23.940659352288108 5.2403496101162848 0.0980392157 0.0980392157 0.0980392157
v 10.851202292576781 4.3236717501593409 -9.0192457659745031 0.0980392157 0.0980392157 0.0980392157
v 8.1534510063878649 4.2132251315614937 -5.4049899286704655 0.0980392157 0.0980392157 0.0980392157
v 11.523817354902873 4.0827074811921378 -4.7389859247296071 0.0980392157 0.0980392157 0.0980392157
v 8.3288539588414068 -2.5075036401621498 -6.1714686174393538 0.0980392157 0.0980392157 0.0980392157
v 11.591656948555261 -3.8554563795643286 -10.858078199304483 0.0980392157 0.0980392157 0.0980392157
v 11.687471992068877 -3.6574849921898083 -4.0668113114062594 0.0980392157 0.0980392157 0.0980392157
v -13.446869674890872 32.651814882669719 -6.5525322354616522 0.0980392157 0.0980392157 0.0980392157
v 5.387158300208597 28.510408995474251 1.3662569944243872 0.0980392157 0.0980392157 0.0980392157
v 13.179283411181762 29.341315697295876 1.5622033613515292 0.0980392157 0.0980392157 0.0980392157
v 8.8844732761201541 20.661262557311243 1.4876130581622213 0.0980392157 0.0980392157 0.0980392157
v 7.7167985938225794 12.797104734084593 -5.3043824865359968 0.0980392157 0.0980392157 0.0980392157
v 8.4400831873622923 16.323105269131137 -7.6234448740915717 0.0980392157 0.0980392157 0.0980392157
v 12.040486786001868 12.173704138609169 -8.9221038777046022 0.0980392157 0.0980392157 0.0980392157
v 5.387158300208597 28.510408995474251 1.3662569944243872 0.0980392157 0.0980392157 0.0980392157
v 8.8844732761201541 20.661262557311243 1.4876130581622213 0.0980392157 0.0980392157 0.0980392157
v 6.3468156565900333 23.357517484674332 -2.7557472093741135 0.0980392157 0.0980392157 0.0980392157
v -9.8084212168108227 9.7328997601427858 -1.3885783790995476 0.0980392157 0.0980392157 0.0980392157
v -11.309318538428652 7.602154289872515 5.3309752040582277 0.0980392157 0.0980392157 0.0980392157
v -11.36523725697082 7.8214827762385024 -5.0385032130312393 0.0980392157 0.0980392157 0.0980392157
v -11.309318538428652 7.602154289872515 5.3309752040582277 0.0980392157 0.0980392157 0.0980392157
v -13.512378075573871 11.350821740879852 4.8691494329220566 0.0980392157 0.0980392157 0.0980392157
v -11.309318538428652 7.602154289872515 5.3309752040582277 0.0980392157 0.0980392157 0.0980392157
v 2.3575461271966631 13.983225434432171 -10.881410237140321 0.0980392157 0.0980392157 0.0980392157
v 6.8510624412117025 23.719271255026108 -9.9426505857573115 0.0980392157 0.0980392157 0.0980392157
v -0.063726418775183147 16.780767379884715 -7.7969575856538835 0.0980392157 0.0980392157 0.0980392157
v 7.8976136985760297 31.340363688545299 -9.0008315068384395 0.0980392157 0.0980392157 0.0980392157
v 11.712835100875811 25.28670872765041 -6.612879350327086 0.0980392157 0.0980392157 0.0980392157
v 7.2011585235595703 23.207786560058594 -5.25 0.0980392157 0.0980392157 0.0980392157
v 5.7116656516807396 8.0965674730060329 -5.2482548692407631 0.0980392157 0.0980392157 0.0980392157
v -11.587329009611656 -4.6664275882036224 -10.493887915900693 0.0980392157 0.0980392157 0.0980392157
v 11.523817354902873 4.0827074811921378 -4.7389859247296071 0.0980392157 0.0980392157 0.0980392157
v -13.780612739954876 13.391426873271788 -5.3094573430893099 0.0980392157 0.0980392157 0.0980392157
vn 0.97667181491851807 -0.0079871295019984245 0.21458877623081207
vn 0.95403826236724854 -0.24903430044651031 0.16671206057071686
vn 0.93004822731018066 -0.093484692275524139 0.35534623265266418
vn -0.024406978860497475 0.018028480932116508 -0.99953955411911011
vn -0.11461277306079865 0.025671603158116341 -0.99307847023010254
vn 0.25235176086425781 0.051165662705898285 -0.96628189086914062
vn -0.019215742126107216 0.99838143587112427 0.053527899086475372
vn 0.030921168625354767 0.99843859672546387 0.046520896255970001
vn -0.031860776245594025 0.99712133407592773 0.068803697824478149
vn 0.81787359714508057 0.040476486086845398 -0.57397246360778809
vn 0.23737846314907074 0.035895675420761108 -0.97075378894805908
vn 0.042474653571844101 -0.019467752426862717 0.99890786409378052
vn -0.26894509792327881 -0.049768697470426559 0.96186882257461548
vn -0.14467565715312958 -0.034894652664661407 0.98886364698410034
vn 0.25695598125457764 0.84818118810653687 -0.46320867538452148
vn 0.24207814037799835 0.86140942573547363 -0.446510910987854
vn -0.060711920261383057 0.93528425693511963 -0.34865081310272217
vn 0.020087806507945061 -0.99876654148101807 -0.045408453792333603
vn -0.0010267815086990595 -0.99942994117736816 -0.033745851367712021
vn 0.23061832785606384 -0.97303831577301025 0.0034028466325253248
vn -0.059836734086275101 -0.0059724664315581322 0.99819028377532959
vn 0.25175014138221741 -0.035297155380249023 0.96714836359024048
vn -0.1203685849905014 -0.99208390712738037 0.035790115594863892
vn 0.022798208519816399 0.99965965747833252 -0.012679663486778736
vn 0.0082461601123213768 0.99844056367874146 0.055212907493114471
vn 0.010442184284329414 0.99857014417648315 0.052426859736442566
vn -0.3681178092956543 0.039720285683870316 -0.92893034219741821
vn -0.94468134641647339 -0.23942722380161285 0.224169060587883
vn -0.9659658670425415 -0.032467104494571686 0.25662386417388916
vn -0.90924835205078125 -0.12257079780101776 0.39779874682426453
vn 0.99640804529190063 0.0054916869848966599 -0.084503814578056335
vn 0.87361061573028564 0.064482033252716064 -0.48233449459075928
vn 0.98079854249954224 0.0059536718763411045 -0.19493289291858673
vn 0.99717837572097778 -0.039574243128299713 -0.063790030777454376
vn 0.9980088472366333 -0.062857605516910553 -0.0052230502478778362
vn 0.1745610237121582 0.95951610803604126 -0.22103674709796906
vn 0.097249984741210938 0.89751052856445312 -0.43013635277748108
vn -0.16968375444412231 -0.80248653888702393 0.57203388214111328
vn -0.16968375444412231 -0.80248653888702393 0.57203388214111328
vn -0.16968375444412231 -0.80248653888702393 0.57203388214111328
vn -0.77363771200180054 -0.54356157779693604 -0.32561555504798889
vn -0.77363771200180054 -0.54356157779693604 -0.32561555504798889
vn -0.77363771200180054 -0.54356157779693604 -0.32561555504798889
vn -0.27242660522460938 -0.057241726666688919 0.96047234535217285
vn -0.23612788319587708 -0.053223550319671631 0.97026330232620239
vn -0.35679188370704651 -0.069952771067619324 0.9315611720085144
vn -0.074110738933086395 -0.99724727869033813 0.0023465726990252733
vn -0.10736340284347534 -0.99380570650100708 -0.02869388647377491
vn -0.03844660148024559 -0.9986308217048645 0.035473845899105072
vn 0.093070454895496368 0.99529498815536499 0.026939742267131805
vn 0.093070454895496368 0.99529498815536499 0.026939742267131805
vn 0.093070454895496368 0.99529498815536499 0.026939742267131805
vn -0.91091865301132202 0.1639879047870636 -0.37859627604484558
vn -0.98098433017730713 -0.095271140336990356 -0.16909509897232056
vn -0.91602259874343872 0.16322736442089081 -0.36641430854797363
vn -0.99315732717514038 0.086366012692451477 -0.078609675168991089
vn -0.27417987585067749 -0.043623842298984528 0.96068847179412842
vn -0.6346704363822937 0.63158196210861206 0.4453062117099762
vn -0.6346704363822937 0.63158196210861206 0.4453062117099762
vn -0.6346704363822937 0.63158196210861206 0.4453062117099762
vn -0.067320354282855988 0.60989302396774292 0.78961920738220215
vn -0.067320354282855988 0.60989302396774292 0.78961920738220215
vn -0.067320354282855988 0.60989302396774292 0.78961920738220215
vn -0.60962283611297607 -0.0017508598975837231 0.79268968105316162
vn -0.61438316106796265 0.019852941855788231 0.78875797986984253
vn -0.47945135831832886 0.27735060453414917 0.83258813619613647
vn 0.80303037166595459 -0.55614668130874634 -0.21410998702049255
vn 0.80303037166595459 -0.55614668130874634 -0.21410998702049255
vn 0.80303037166595459 -0.55614668130874634 -0.21410998702049255
vn 0.97028321027755737 -0.075254194438457489 -0.22997234761714935
vn 0.98540037870407104 0.021655850112438202 -0.16887012124061584
vn 0.91682088375091553 0.0033054454252123833 -0.39928510785102844
vn 0.29862713813781738 -0.0019046235829591751 0.95436793565750122
vn -0.1440502405166626 -0.029441272839903831 0.9891323447227478
vn 0.075612299144268036 -0.040937162935733795 0.99629658460617065
vn -0.55841213464736938 0.44429519772529602 0.70055526494979858
vn -0.016928941011428833 0.46360433101654053 0.88588058948516846
vn -0.041447129100561142 0.46601763367652893 0.8838040828704834
vn -0.098697863519191742 -0.96183180809020996 -0.25522217154502869
vn -0.10480950027704239 -0.99140465259552002 -0.078306034207344055
vn 0.047248993068933487 -0.99273842573165894 0.1106254830956459
vn -0.084235921502113342 -0.45442044734954834 0.88679558038711548
vn 0.12237298488616943 -0.77348220348358154 0.62189239263534546
vn 0.13718131184577942 -0.67844033241271973 0.72173404693603516
vn 0.10766738653182983 0.99405437707901001 0.016236850991845131
vn 0.10864687711000443 0.99390041828155518 0.018914779648184776
vn 0.087890319526195526 0.99607688188552856 -0.010302482172846794
vn 0.2010374516248703 -0.044341258704662323 0.97857946157455444
vn 0.99113041162490845 -0.018071781843900681 0.13165837526321411
vn 0.99415284395217896 -0.079148396849632263 0.073455281555652618
vn 0.97933042049407959 -0.045559991151094437 0.19706906378269196
vn 0.99864649772644043 0.022333435714244843 -0.046972021460533142
vn -0.28105977177619934 -0.9559972882270813 0.084110751748085022
vn -0.28105977177619934 -0.9559972882270813 0.084110751748085022
vn -0.28105977177619934 -0.9559972882270813 0.084110751748085022
vn 0.92726784944534302 -0.071310557425022125 0.36754482984542847
vn 0.93252331018447876 -0.13481110334396362 0.33500188589096069
vn 0.74871349334716797 0.010826535522937775 0.66280531883239746
vn -0.95807182788848877 -0.15660446882247925 -0.2399446964263916
vn -0.99107116460800171 0.077502235770225525 -0.10849581658840179
vn -0.87507688999176025 -0.40667462348937988 -0.26240471005439758
vn -0.91579133272171021 0.38577917218208313 0.11180650442838669
vn -0.7790336012840271 0.0082309124991297722 -0.62692809104919434
vn -0.87228256464004517 0.23015697300434113 -0.43145209550857544
vn -0.99426001310348511 -0.067228727042675018 -0.083230204880237579
vn 0.77566343545913696 0.17380934953689575 -0.60674256086349487
vn 0.87090587615966797 -0.28959009051322937 -0.39706486463546753
vn 0.94070959091186523 0.096500575542449951 -0.32519698143005371
vn -0.069700010120868683 -0.92883753776550293 -0.36387190222740173
vn 0.0992283895611763 -0.56462252140045166 -0.81936264038085938
vn -0.017994582653045654 -0.62347853183746338 -0.78163337707519531
vn 0.12194566428661346 0.12729901075363159 0.98433947563171387
vn 0.15604466199874878 0.029336230829358101 0.98731428384780884
vn 0.1573428213596344 0.025502342730760574 0.98721468448638916
vn 0.026865124702453613 -0.018160399049520493 -0.99947410821914673
vn 0.034684788435697556 -0.0012114810524508357 -0.99939757585525513
vn 0.021170422434806824 -0.04320773109793663 -0.99884176254272461
vn 0.54918146133422852 -0.048976875841617584 -0.83426672220230103
vn 0.46381646394729614 0.10165129601955414 -0.88008028268814087
vn 0.11401611566543579 0.052840936928987503 -0.99207264184951782
vn -0.1872180700302124 0.982158362865448 0.017730267718434334
vn -0.1872180700302124 0.982158362865448 0.017730267718434334
vn -0.1872180700302124 0.982158362865448 0.017730267718434334
vn 0.062199555337429047 -0.0046397051773965359 -0.99805295467376709
vn 0 0 -1
vn -0.075836092233657837 0.056972656399011612 -0.99549132585525513
vn -0.14422263205051422 0.060418650507926941 -0.98769903182983398
vn -0.011930545791983604 0.0092099960893392563 -0.99988639354705811
vn 0.10687518864870071 -0.013946649618446827 -0.99417459964752197
vn 0.17500810325145721 -0.0016963048838078976 -0.98456555604934692
vn 0.9970090389251709 -0.013825571164488792 0.076038271188735962
vn 0.018576512113213539 0.86781960725784302 -0.49653199315071106
vn 0.018576512113213539 0.86781960725784302 -0.49653199315071106
vn 0.018576512113213539 0.86781960725784302 -0.49653199315071106
vn 0.39505225419998169 0.91337782144546509 0.098359875380992889
vn 0.54650032520294189 0.79052531719207764 0.27641844749450684
vn 0.28458023071289062 0.9514806866645813 0.11704075336456299
vn 0.39549586176872253 -0.79551005363464355 -0.45907163619995117
vn 0.40088033676147461 -0.60787582397460938 0.6854063868522644
vn 0.52298921346664429 -0.85229307413101196 -0.0088780876249074936
vn -0.051587678492069244 -0.091761164367198944 0.99444389343261719
vn -0.1106458306312561 0.0017236801795661449 0.99385839700698853
vn -0.12470129877328873 0.03285488486289978 0.99165022373199463
vn 0.047450538724660873 -0.88290148973464966 0.46715459227561951
vn 0.047450538724660873 -0.88290148973464966 0.46715459227561951
vn 0.047450538724660873 -0.88290148973464966 0.46715459227561951
vn -0.99999988079071045 0.00039269047556445003 0.00024054465757217258
vn -0.97934544086456299 0.19973444938659668 0.031442724168300629
vn -0.99951422214508057 -0.021140653640031815 -0.022899536415934563
vn -0.26843759417533875 -0.95792043209075928 0.1016354039311409
vn -0.27556866407394409 -0.96126866340637207 -0.0049425163306295872
vn -0.26751267910003662 -0.95693618059158325 0.11273924261331558
vn -0.070407241582870483 0.49016532301902771 -0.86878120899200439
vn -0.059878572821617126 0.50624138116836548 -0.86031055450439453
vn -0.049672588706016541 0.52157402038574219 -0.85175889730453491
vn 0.69010263681411743 0.089749805629253387 -0.7181248664855957
vn 0.77505195140838623 0.29936826229095459 -0.55648279190063477
vn 0.79386711120605469 0.096700027585029602 -0.60035330057144165
vn 0.85710328817367554 -0.5130123496055603 0.046821586787700653
vn 0.81016582250595093 -0.51689618825912476 0.27649539709091187
vn 0.86299902200698853 -0.50084179639816284 0.066258795559406281
vn -0.069676719605922699 -0.060798574239015579 0.99571514129638672
vn 0.8123207688331604 0.054344408214092255 0.5806734561920166
vn 0.88031470775604248 -0.054633438587188721 0.47123369574546814
vn 0.83636027574539185 0.036472637206315994 0.54696547985076904
vn -0.9237060546875 0.37863060832023621 0.058360550552606583
vn 0.33763107657432556 0.93801558017730713 -0.078307218849658966
vn 0.33763107657432556 0.93801558017730713 -0.078307218849658966
vn 0.33763107657432556 0.93801558017730713 -0.078307218849658966
vn 0.45802882313728333 0.88751959800720215 -0.050185099244117737
vn 0.45629125833511353 0.88865238428115845 -0.045773416757583618
vn 0.45544886589050293 0.88919150829315186 -0.043643973767757416
vn 0.057435084134340286 -0.0055074351839721203 -0.99833405017852783
vn -0.0095150573179125786 0.0001098509892472066 -0.9999547004699707
vn 0.94374954700469971 -0.23042093217372894 -0.23715615272521973
vn 0.98757201433181763 0.079312443733215332 0.13568726181983948
vn 0.98129093647003174 -0.053847033530473709 -0.18484753370285034
vn -0.074237719178199768 0.99267631769180298 -0.095301970839500427
vn -0.6867033839225769 0.64817380905151367 -0.32910364866256714
vn 0.10209492594003677 0.59752070903778076 -0.79532736539840698
vn -0.83529573678970337 -0.37616777420043945 -0.4009723961353302
vn -0.83529573678970337 -0.37616777420043945 -0.4009723961353302
vn -0.83529573678970337 -0.37616777420043945 -0.4009723961353302
vn -0.98092365264892578 -0.19356174767017365 -0.017961015924811363
vn -0.97783058881759644 -0.14364418387413025 -0.15236036479473114
vn -0.74958199262619019 0.31593596935272217 0.58164536952972412
vn -0.37865802645683289 -0.87171655893325806 -0.31101185083389282
vn -0.41779133677482605 -0.90798282623291016 -0.031899750232696533
vn -0.43022337555885315 -0.88407593965530396 0.18253099918365479
vn -0.96205377578735352 -0.23900377750396729 -0.13164222240447998
vn -0.95444411039352417 -0.2627093493938446 0.14149284362792969
vn -0.96866446733474731 0.18911035358905792 -0.16101683676242828
vn -0.82955968379974365 -0.25405162572860718 -0.49728113412857056
vn 0.083072587847709656 -0.99000072479248047 0.11400653421878815
vn 0.081496715545654297 -0.86874395608901978 0.48851019144058228
vn 0.048189043998718262 -0.97827959060668945 0.20161068439483643
vn -0.69226294755935669 0.67970764636993408 -0.24242429435253143
vn -0.15607842803001404 0.62950730323791504 0.76115703582763672
vn -0.74089646339416504 0.48027753829956055 -0.46947404742240906
vn -0.38363564014434814 0.20364049077033997 0.90075206756591797
vn -0.38250696659088135 -0.43123224377632141 0.81714576482772827
vn -0.52362740039825439 0.034077189862728119 0.851265549659729
vn -0.99948090314865112 0.031648017466068268 -0.006023121066391468
vn -0.92043769359588623 0.39055636525154114 -0.016129074618220329
vn -0.99587470293045044 -0.090737581253051758 0.00051713408902287483
vn -0.99526834487915039 -0.096594087779521942 0.01050960086286068
vn -0.9999011754989624 -0.013976733200252056 0.0015178624307736754
vn 0.80726128816604614 -0.58996784687042236 0.016343915835022926
vn 0.62075918912887573 -0.74071389436721802 0.25690659880638123
vn 0.74254119396209717 -0.61578941345214844 -0.2635071873664856
vn -0.0044605485163629055 0.89727979898452759 0.44143971800804138
vn 0.0045458236709237099 0.9996759295463562 -0.025047836825251579
vn -0.97395145893096924 -0.080207914113998413 0.21209721267223358
vn -0.99926495552062988 7.501103391405195E-05 0.03833475336432457
vn 0.91255390644073486 -0.01799752376973629 0.40856021642684937
vn -0.3635636568069458 -0.60081022977828979 -0.7119329571723938
vn -0.38952508568763733 -0.82996749877929688 -0.39927956461906433
vn -0.39587453007698059 -0.72785264253616333 -0.55992311239242554
vn 0.07735443115234375 0.9788435697555542 0.18942436575889587
vn 0.12769724428653717 0.91461926698684692 0.38362091779708862
vn 0.032323073595762253 0.98135977983474731 0.18944181501865387
vn 0.62084287405014038 -0.47296711802482605 -0.62518495321273804
vn 0.62084287405014038 -0.47296711802482605 -0.62518495321273804
vn 0.62084287405014038 -0.47296711802482605 -0.62518495321273804
vn 0.99773913621902466 -0.067206054925918579 4.4496650843939278E-06
vn 0.99773186445236206 -0.067313708364963531 -6.5765249019023031E-05
vn 0.99773061275482178 -0.067332401871681213 -7.7960939961485565E-05
vn 0.12047345191240311 0.86741983890533447 0.48277214169502258
vn 0.22911453247070312 0.97311985492706299 -0.023330636322498322
vn 0.012657376937568188 -0.88461649417877197 -0.46614748239517212
vn 0.0014482801780104637 -0.97679096460342407 -0.21418978273868561
vn 0.74551171064376831 0.073562882840633392 0.66242039203643799
vn 0.73935157060623169 0.035588100552558899 0.67237842082977295
vn 0.69743245840072632 -0.14607630670070648 0.70160508155822754
vn -0.22935977578163147 0.73340433835983276 -0.63993138074874878
vn 0.79791027307510376 -0.12711764872074127 0.58922010660171509
vn 0.61940896511077881 -0.026493735611438751 0.78462129831314087
vn 0.74447423219680786 0.18543188273906708 0.64138376712799072
vn 0.36507892608642578 0.31839531660079956 0.87483817338943481
vn 0.31603884696960449 0.23430328071117401 0.91935926675796509
vn 0.35604012012481689 0.40557500720024109 0.8418695330619812
vn -1.0556688721408136E-05 -0.870464026927948 -0.49223199486732483
vn -0.16615740954875946 0.60834485292434692 0.77608519792556763
vn -0.63042724132537842 0.02676614373922348 0.77578675746917725
vn -0.60260289907455444 -0.041958838701248169 0.79693740606307983
vn -0.64149183034896851 0.056979808956384659 0.76501083374023438
vn 0.00068279402330517769 -0.00062542123487219214 0.99999958276748657
vn 0.001388209406286478 0.0024786684662103653 0.99999594688415527
vn 0.0012303508119657636 0.013836877420544624 0.99990350008010864
vn -0.54730761051177979 0.023004934191703796 0.83661526441574097
vn -0.98935836553573608 -0.00069962564157322049 0.1454976350069046
vn 0.1286521852016449 -0.036539513617753983 0.99101638793945312
vn 0.12547940015792847 -0.03312278538942337 0.99154311418533325
vn 0.12694083154201508 -0.034696284681558609 0.99130326509475708
vn 0.038933373987674713 0.46675875782966614 0.88352727890014648
vn 0.022552844136953354 0.4797176718711853 0.87713301181793213
vn 0.030251462012529373 0.49707186222076416 0.86718189716339111
vn -0.040383975952863693 -0.46295720338821411 0.88546019792556763
vn 0.010252354666590691 -0.48943108320236206 0.87198173999786377
vn -0.083558380603790283 -0.62596404552459717 0.77536249160766602
vn 0.40169140696525574 -0.47671854496002197 0.78191012144088745
vn 0.40169140696525574 -0.47671854496002197 0.78191012144088745
vn 0.40169140696525574 -0.47671854496002197 0.78191012144088745
vn 0.01634087972342968 0.078491218388080597 0.9967808723449707
vn 0.00010051999561255798 0.0042067216709256172 0.99999111890792847
vn -0.36991289258003235 0.43900483846664429 0.81880354881286621
vn -0.36991289258003235 0.43900483846664429 0.81880354881286621
vn -0.36991289258003235 0.43900483846664429 0.81880354881286621
vn 0.016223978251218796 0.89870327711105347 0.43825697898864746
vn 0.31892171502113342 0.91053605079650879 0.26308378577232361
vn 0.060666199773550034 0.92721331119537354 0.36958768963813782
vn 0.20700809359550476 0.86839985847473145 0.45058780908584595
vn -0.30050799250602722 0.57587248086929321 0.76030641794204712
vn -0.30050799250602722 0.57587248086929321 0.76030641794204712
vn -0.30050799250602722 0.57587248086929321 0.76030641794204712
vn -0.030194316059350967 -0.99953633546829224 0.0039277542382478714
vn -0.056285157799720764 -0.99831557273864746 -0.01407186035066843
vn 0.019315656274557114 -0.99963873624801636 0.018690207973122597
vn 0.11141938716173172 0.033995989710092545 0.99319183826446533
vn 0.14110462367534637 0.026385432109236717 0.98964303731918335
vn -0.095189549028873444 0.020716637372970581 0.99524354934692383
vn -0.34842720627784729 0.0035438863560557365 0.93732917308807373
vn -0.26275727152824402 0.04549996554851532 0.96378856897354126
vn 0.015418760478496552 0.99898064136505127 0.042425364255905151
vn -0.2253439873456955 -0.022278157994151115 0.97402453422546387
vn -0.98525947332382202 0.018402989953756332 -0.17007370293140411
vn -0.99615156650543213 0.0387226901948452 -0.078629247844219208
vn -0.99765843152999878 0.01754830963909626 0.06610405445098877
vn 0.97743695974349976 -0.16214224696159363 0.13537661731243134
vn 0.99985343217849731 -0.0022734974045306444 0.016968797892332077
vn 0.021243654191493988 -0.0078875329345464706 0.99974322319030762
vn -0.29426014423370361 0.11271058768033981 0.94905602931976318
vn 0.33517563343048096 -0.1246655061841011 0.93387138843536377
vn -0.078009761869907379 -0.99672913551330566 -0.021105984225869179
vn -0.098076462745666504 -0.99420344829559326 -0.044050879776477814
vn -0.13882765173912048 -0.98675292730331421 -0.083937652409076691
vn -0.16811244189739227 0.027180604636669159 0.98539304733276367
vn 0.34163707494735718 -0.045562922954559326 0.93872684240341187
vn -0.023164762184023857 -0.00021020903659518808 -0.99973165988922119
vn -0.51767027378082275 -0.19244959950447083 -0.83365499973297119
vn -0.57063621282577515 0.024578865617513657 -0.82083505392074585
vn -0.97097384929656982 0.012616926804184914 -0.2388526052236557
vn -0.99928021430969238 -0.029384519904851913 0.02399057149887085
vn -0.97930008172988892 0.16015124320983887 -0.12378578633069992
vn -0.9952053427696228 0.055763751268386841 0.080353960394859314
vn -0.99791544675827026 0.052774697542190552 0.03714212030172348
vn -0.55502539873123169 -0.05354444682598114 0.83010828495025635
vn -0.99979889392852783 0.019645117223262787 0.0040236026979982853
vn 0.8666042685508728 0.48976197838783264 0.095552526414394379
vn 0.83341819047927856 0.52872765064239502 -0.16081430017948151
vn 0.77547365427017212 0.62914949655532837 0.053023405373096466
vn 0.26435905694961548 -0.17297680675983429 0.94878518581390381
vn 0.48876720666885376 0.17189675569534302 0.85531169176101685
vn -0.46430346369743347 0.059266429394483566 -0.88369101285934448
vn 0.02293781191110611 -0.0013092003064230084 0.99973601102828979
vn 0.28475576639175415 -0.0064710355363786221 0.95857828855514526
vn -0.041300445795059204 0.00092736416263505816 0.99914634227752686
vn 0.10624123364686966 0.99364179372787476 0.037266794592142105
vn 0.10609538108110428 0.99366146326065063 0.037156924605369568
vn 0.13313257694244385 0.98942607641220093 0.05754799023270607
vn -0.064565032720565796 -0.99721485376358032 0.037334676831960678
vn 0.17164082825183868 -0.98258107900619507 0.07123120129108429
vn 0.23539286851882935 -0.96943849325180054 0.069132134318351746
vn 0.41157522797584534 -0.081555843353271484 0.90771937370300293
vn 0.0017971425550058484 -0.0010718068806454539 -0.99999779462814331
vn -0.0073843109421432018 0.019245928153395653 -0.99978750944137573
vn 0.017468076199293137 -0.03558160737156868 -0.99921411275863647
vn -0.99380916357040405 0.080765038728713989 -0.076291441917419434
vn -0.99382311105728149 0.082152105867862701 -0.074609950184822083
vn -0.99362903833389282 0.072523444890975952 -0.086265482008457184
vn 1 0 0
vn 1 0 0
vn 1 0 0
vn 0.91276651620864868 -0.40555822849273682 0.04878326877951622
vn 0.93312716484069824 -0.34682852029800415 -0.094781965017318726
vn 0.87152338027954102 -0.47959110140800476 0.10217335075139999
vn 0.99191868305206299 -0.052706781774759293 -0.11540915817022324
vn -0.00064027815824374557 -2.4255177777376957E-05 0.99999982118606567
vn -0.0036841696128249168 0.0013728543417528272 0.9999922513961792
vn 0.47225004434585571 -0.076340891420841217 0.87815260887145996
vn 0.49359458684921265 -0.051939330995082855 0.86813980340957642
vn 0.48036646842956543 -0.089691996574401855 0.87246972322463989
vn -0.094754412770271301 0.93906033039093018 -0.33043497800827026
vn -0.13476629555225372 0.0039247325621545315 -0.99086964130401611
vn -0.1282183825969696 0.0013747047632932663 -0.9917449951171875
vn -0.24882157146930695 -0.78710794448852539 0.56440138816833496
vn -0.18947450816631317 0.040474459528923035 -0.98105108737945557
vn 0.99357074499130249 0.037420835345983505 0.10684949159622192
vn -0.168389692902565 -0.39614394307136536 0.90261560678482056
usemtl vc_191919__Default
f 1//1 2//2 3//3
f 5//5 11//11 6//6 4//4
f 7//7 8//8 9//9
f 10//10 6//6 11//11
f 12//12 13//13 14//14
f 15//15 16//16 17//17
f 18//18 19//19 20//20
f 12//12 14//14 21//21
f 21//21 22//22 12//12
f 23//23 19//19 18//18
f 24//24 25//25 26//26
f 5//5 4//4 27//27
f 28//28 29//29 30//30
f 31//31 32//32 6//6
f 32//32 33//33 34//34
f 35//35 2//2 1//1
f 36//36 8//8 37//37
f 38//38 39//39 40//40
f 41//41 42//42 43//43
f 44//44 45//45 46//46
f 47//47 48//48 49//49
f 50//50 51//51 52//52
f 53//53 54//54 55//55
f 56//56 54//54 53//53
f 57//57 21//21 14//14
f 58//58 59//59 60//60
f 61//61 62//62 63//63
f 64//64 65//65 66//66
f 67//67 68//68 69//69
f 70//70 71//71 72//72
f 73//73 74//74 75//75
f 76//76 77//77 78//78
f 79//79 80//80 81//81
f 82//82 83//83 84//84
f 85//85 86//86 87//87
f 88//88 12//12 22//22
f 89//89 90//90 91//91
f 92//92 90//90 89//89
f 93//93 94//94 95//95
f 96//96 97//97 98//98
f 99//99 100//100 101//101
f 102//102 100//100 99//99
f 103//103 104//104 105//105
f 106//106 107//107 108//108
f 109//109 110//110 111//111
f 112//112 113//113 114//114
f 115//115 116//116 117//117
f 115//115 118//118 119//119
f 116//116 115//115 120//120
f 121//121 122//122 123//123
f 124//124 125//125 126//126
f 128//128 117//117 116//116 127//127
f 129//129 130//130 124//124
f 131//131 34//34 33//33
f 132//132 133//133 134//134
f 135//135 136//136 137//137
f 138//138 139//139 140//140
f 141//141 142//142 143//143
f 144//144 145//145 146//146
f 147//147 148//148 149//149
f 150//150 151//151 152//152
f 153//153 154//154 155//155
f 156//156 157//157 158//158
f 159//159 160//160 161//161
f 162//162 141//141 143//143
f 163//163 164//164 165//165
f 166//166 149//149 148//148
f 167//167 168//168 169//169
f 170//170 171//171 172//172
f 124//124 173//173 174//174
f 175//175 176//176 177//177
f 178//178 179//179 180//180
f 181//181 182//182 183//183
f 184//184 185//185 186//186
f 187//187 188//188 189//189
f 190//190 191//191 185//185
f 184//184 192//192 193//193
f 194//194 195//195 196//196
f 197//197 198//198 199//199
f 200//200 201//201 202//202
f 203//203 204//204 205//205
f 206//206 204//204 207//207
f 208//208 209//209 210//210
f 211//211 212//212 24//24
f 213//213 214//214 105//105
f 34//34 131//131 215//215
f 216//216 217//217 218//218
f 219//219 220//220 221//221
f 222//222 223//223 224//224
f 225//225 226//226 227//227
f 178//178 228//228 229//229
f 230//230 194//194 231//231
f 232//232 233//233 234//234
f 219//219 235//235 220//220
f 236//236 237//237 238//238
f 239//239 240//240 241//241
f 230//230 231//231 242//242
f 228//228 178//178 243//243
f 244//244 245//245 246//246
f 249//249 265//265 247//247 248//248
f 250//250 251//251 213//213
f 252//252 253//253 254//254
f 255//255 256//256 257//257
f 258//258 259//259 260//260
f 261//261 262//262 263//263
f 249//249 264//264 265//265
f 266//266 267//267 268//268
f 269//269 270//270 271//271
f 271//271 272//272 269//269
f 273//273 274//274 275//275
f 276//276 277//277 278//278
f 215//215 279//279 280//280
f 280//280 279//279 281//281
f 281//281 282//282 283//283
f 24//24 26//26 284//284
f 57//57 14//14 285//285
f 286//286 287//287 288//288
f 124//124 126//126 129//129
f 34//34 289//289 290//290
f 291//291 292//292 293//293
f 294//294 295//295 296//296
f 21//21 57//57 297//297
f 22//22 21//21 298//298
f 115//115 119//119 120//120
f 124//124 299//299 125//125
f 127//127 300//300 301//301
f 302//302 103//103 303//303
f 304//304 305//305 306//306
f 200//200 202//202 307//307
f 206//206 207//207 308//308
f 309//309 310//310 311//311
f 34//34 215//215 289//289
f 293//293 312//312 313//313
f 5//5 27//27 314//314
f 214//214 302//302 105//105
f 251//251 214//214 213//213
f 315//315 316//316 317//317
f 318//318 319//319 320//320
f 321//321 322//322 323//323
f 74//74 45//45 44//44
f 73//73 75//75 324//324
f 325//325 326//326 327//327
f 328//328 329//329 330//330
f 126//126 125//125 117//117
f 331//331 332//332 333//333
f 334//334 335//335 336//336
f 337//337 92//92 89//89
f 291//291 338//338 339//339
f 340//340 341//341 342//342
f 248//248 315//315 317//317
f 16//16 343//343 17//17
f 344//344 345//345 299//299
f 124//124 174//174 299//299
f 195//195 346//346 196//196
f 280//280 281//281 283//283
f 4//4 347//347 27//27
f 74//74 44//44 75//75
f 125//125 115//115 117//117
f 35//35 1//1 348//348
f 82//82 84//84 349//349
f 34//34 290//290 108//108
