# Dual color encoding: per-vertex RGB for Rerun, face MTL colors for legacy RViz.
mtllib sim_gene01_l_ankle_1.mtl
# Rhino

g sim_gene01_l_ankle_1
v -30.961852804662968 -11.746248035042509 -24.295742549695252 0.901960784 0.901960784 0.901960784
v -53.612866793472364 -1.2204202381237383 -25.72229031226092 0.901960784 0.901960784 0.901960784
v -49.931041526491889 -22.525126729543366 -35.706323559826338 0.901960784 0.901960784 0.901960784
v -50.77112537902039 -23.595604469291224 -49.103811989240533 0.901960784 0.901960784 0.901960784
v 77.359418316899777 25.049716817781054 -48.878760611815871 0.901960784 0.901960784 0.901960784
v 78.823582795744159 -24.825720945830973 -49.034212837301851 0.901960784 0.901960784 0.901960784
v 48.989663564145083 -32.194700651663396 -35.355916215000086 0.901960784 0.901960784 0.901960784
v 82.402168893824012 -21.679350282887341 -36.654591064055822 0.901960784 0.901960784 0.901960784
v 80.017597801940425 0.67305125234586161 -23.854867759138678 0.901960784 0.901960784 0.901960784
v -27.329954197304584 -32.825314924804125 -48.380654603131283 0.901960784 0.901960784 0.901960784
v -28.053873261984315 -32.730948969968317 -35.806543761257799 0.901960784 0.901960784 0.901960784
v 46.922840115721513 -33.449573542061671 -48.433431085852327 0.901960784 0.901960784 0.901960784
v -24.291796280713243 4.4815140223991339 1.935348177527745 0.901960784 0.901960784 0.901960784
v -5.4931067573035328 -8.8085573973766493 20.743668516896197 0.901960784 0.901960784 0.901960784
v 16.040194129055564 -15.051859869285584 -27.367041935583003 0.901960784 0.901960784 0.901960784
v 13.633088290097255 -8.9669157810278044 -8.791590185249742 0.901960784 0.901960784 0.901960784
v -52.135422861971918 23.013553250159646 -47.841781006053708 0.901960784 0.901960784 0.901960784
v -29.331526685814296 10.905234617026977 -20.545428476647508 0.901960784 0.901960784 0.901960784
v -30.245371781837761 17.696153417592839 -28.866519667016661 0.901960784 0.901960784 0.901960784
v -28.295272623341013 32.210415052525718 -35.478201674006378 0.901960784 0.901960784 0.901960784
v -26.953105026545934 33.204938606654281 -49.057715692160798 0.901960784 0.901960784 0.901960784
v 17.124889619840033 16.060342225894395 -28.138458910314846 0.901960784 0.901960784 0.901960784
v 48.112518164501566 32.741381747960894 -35.647456854753479 0.901960784 0.901960784 0.901960784
v 1.1888448385505548 9.0850486846663117 21.951156940272288 0.901960784 0.901960784 0.901960784
v 13.412509559723146 -7.2443965505387826 14.745198785549741 0.901960784 0.901960784 0.901960784
v 14.141538350359097 7.8495690317187501 -1.2643266074593948 0.901960784 0.901960784 0.901960784
v 20.226831480184838 0.44178156862587414 -22.940300674417706 0.901960784 0.901960784 0.901960784
v 47.368838120258211 32.96113831016455 -48.116794606254075 0.901960784 0.901960784 0.901960784
v 81.013477963517971 22.645019007627553 -36.424478768013884 0.901960784 0.901960784 0.901960784
v -49.008647735946859 23.037818824070822 -35.024868336691895 0.901960784 0.901960784 0.901960784
vn -0.31819331645965576 -0.76771563291549683 0.55620658397674561
vn -0.65363287925720215 -0.080090180039405823 0.75256204605102539
vn -0.60597610473632812 -0.56827932596206665 0.55664312839508057
vn -0.15367902815341949 -0.051930110901594162 -0.98675531148910522
vn 0.22156155109405518 0.19583712518215179 -0.95527917146682739
vn 0.21780960261821747 -0.21550635993480682 -0.95190125703811646
vn 0.032859720289707184 -0.65305554866790771 0.75659680366516113
vn 0.8518567681312561 -0.461973637342453 0.24682050943374634
vn 0.21939480304718018 0.0080242520198225975 0.97560316324234009
vn -0.061091631650924683 -0.77486616373062134 -0.62916630506515503
vn -0.053606245666742325 -0.76110965013504028 0.64640426635742188
vn 0.030168034136295319 -0.82182633876800537 -0.56893879175186157
vn -0.8010791540145874 0.40681126713752747 0.43906354904174805
vn -0.31545132398605347 -0.78128325939178467 0.53859716653823853
vn 0.14643847942352295 -0.53027302026748657 0.83508461713790894
vn 0.57968336343765259 -0.81408751010894775 0.035053905099630356
vn -0.67899829149246216 0.30619502067565918 -0.66723752021789551
vn -0.4373728334903717 0.81428861618041992 0.38162690401077271
vn -0.14439606666564941 0.65058207511901855 0.74558216333389282
vn -0.045081119984388351 0.70846158266067505 0.70430809259414673
vn -0.012671902775764465 0.28646013140678406 -0.95800834894180298
vn 0.13211823999881744 0.5747826099395752 0.80757027864456177
vn 0.040636349469423294 0.73763042688369751 0.67398077249526978
vn -0.018230661749839783 0.82721167802810669 0.56159454584121704
vn 0.73977357149124146 -0.57312393188476562 0.35251104831695557
vn 0.62404656410217285 0.77880162000656128 -0.063513047993183136
vn 0.2263549417257309 -0.035020593553781509 0.97341513633728027
vn 0.021675035357475281 0.80496150255203247 -0.59293103218078613
vn 0.70035451650619507 0.52348768711090088 0.48524656891822815
vn -0.48957273364067078 0.59716826677322388 0.63538068532943726
usemtl vc_E6E6E6__Default
f 1//1 2//2 3//3
f 4//4 21//21 5//5 6//6
f 7//7 8//8 9//9
f 4//4 10//10 11//11
f 7//7 11//11 12//12
f 13//13 1//1 14//14
f 15//15 16//16 1//1
f 4//4 2//2 17//17
f 2//2 1//1 18//18
f 19//19 2//2 18//18
f 17//17 30//30 20//20 21//21
f 22//22 19//19 18//18
f 20//20 23//23 21//21
f 23//23 20//20 22//22
f 13//13 18//18 1//1
f 13//13 24//24 18//18
f 24//24 14//14 25//25
f 18//18 26//26 22//22
f 26//26 24//24 25//25
f 12//12 10//10 4//4
f 7//7 12//12 6//6
f 5//5 8//8 6//6
f 27//27 16//16 15//15
f 5//5 21//21 28//28
f 22//22 27//27 23//23
f 23//23 29//29 28//28
f 26//26 25//25 16//16
f 1//1 11//11 15//15
f 15//15 11//11 7//7
f 14//14 16//16 25//25
f 30//30 17//17 2//2
f 30//30 2//2 19//19
f 26//26 18//18 24//24
f 13//13 14//14 24//24
f 29//29 9//9 8//8
f 22//22 26//26 27//27
f 21//21 4//4 17//17
f 4//4 3//3 2//2
f 9//9 27//27 7//7
f 12//12 4//4 6//6
f 1//1 16//16 14//14
f 3//3 11//11 1//1
f 11//11 10//10 12//12
f 9//9 29//29 23//23
f 8//8 5//5 29//29
f 4//4 11//11 3//3
f 20//20 30//30 19//19
f 20//20 19//19 22//22
f 16//16 27//27 26//26
f 23//23 28//28 21//21
f 27//27 9//9 23//23
f 7//7 6//6 8//8
f 29//29 5//5 28//28
f 27//27 15//15 7//7
