# Dual color encoding: per-vertex RGB for Rerun, face MTL colors for legacy RViz.
mtllib sim_gene01_l_hand_ring_4.mtl
# Rhino

g sim_gene01_l_hand_ring_4
v 13.089156017934473 12.00578317876249 -6.2815189520996668 0.0980392157 0.0980392157 0.0980392157
v 7.6673597561273183 21.781373885496141 -9.4584002278091663 0.0980392157 0.0980392157 0.0980392157
v 10.45889411466031 22.504200740313486 -6.8330345393379295 0.0980392157 0.0980392157 0.0980392157
v 12.895875521669 -0.80691923737927129 -8.0860571722232049 0.0980392157 0.0980392157 0.0980392157
v 5.7980284776287396 30.464840183634692 -6.7887071704003343 0.0980392157 0.0980392157 0.0980392157
v 0.16168614543618887 -0.75531049122142413 -11.563895012546032 0.0980392157 0.0980392157 0.0980392157
v -0.4102725693888587 -0.72369509700133672 -10.042583212399467 0.0980392157 0.0980392157 0.0980392157
v 0.16168614543618887 -0.75531049122142413 -11.563895012546032 0.0980392157 0.0980392157 0.0980392157
v 7.6358507211907849 -0.63617106351964914 -8.4622674580622075 0.0980392157 0.0980392157 0.0980392157
v -3.6824214810261022 32.047718460260597 -5.3481390760002014 0.0980392157 0.0980392157 0.0980392157
v -1.5854606543223824 28.694664668609647 -9.7128094857987683 0.0980392157 0.0980392157 0.0980392157
v -0.4102725693888587 -0.72369509700133672 -10.042583212399467 0.0980392157 0.0980392157 0.0980392157
v 7.6358507211907849 -0.63617106351964914 -8.4622674580622075 0.0980392157 0.0980392157 0.0980392157
v 3.1119071959688687 16.602689736408578 -9.5851821694626924 0.0980392157 0.0980392157 0.0980392157
v 3.1119071959688687 16.602689736408578 -9.5851821694626924 0.0980392157 0.0980392157 0.0980392157
v 7.6358507211907849 -0.63617106351964914 -8.4622674580622075 0.0980392157 0.0980392157 0.0980392157
v 4.1551052035001739 16.443870170263029 -5.3430926011858917 0.0980392157 0.0980392157 0.0980392157
v -8.627964668031435 27.518482074362424 -7.143930117399413 0.0980392157 0.0980392157 0.0980392157
v -5.6902189254760742 15.941596984863281 -8.9223928451538086 0.0980392157 0.0980392157 0.0980392157
v -7.1872218864836475 10.326455039256247 -9.0519397626157705 0.0980392157 0.0980392157 0.0980392157
v 4.1551052035001739 16.443870170263029 -5.3430926011858917 0.0980392157 0.0980392157 0.0980392157
v -5.6085786331307137 15.929762633765668 -5.2499986340217006 0.0980392157 0.0980392157 0.0980392157
v -5.6902189254760742 15.941596984863281 -8.9223928451538086 0.0980392157 0.0980392157 0.0980392157
v -7.1872218864836475 10.326455039256247 -9.0519397626157705 0.0980392157 0.0980392157 0.0980392157
v -10.125215874886514 15.428179186229798 -9.0836749441660984 0.0980392157 0.0980392157 0.0980392157
v -5.7500370756942853 8.5053652491999756 -4.9305627580408657 0.0980392157 0.0980392157 0.0980392157
v -7.1872218864836475 10.326455039256247 -9.0519397626157705 0.0980392157 0.0980392157 0.0980392157
v -5.6902189254760742 15.941596984863281 -8.9223928451538086 0.0980392157 0.0980392157 0.0980392157
v -10.668903358415822 -0.55160317924767299 -9.4678040359046687 0.0980392157 0.0980392157 0.0980392157
v -2.4940133593568383 15.910398428129724 -10.908617624682424 0.0980392157 0.0980392157 0.0980392157
v -10.668903358415822 -0.55160317924767299 -9.4678040359046687 0.0980392157 0.0980392157 0.0980392157
v -7.8288674242979752 -0.36593420209407723 -8.4074933790070165 0.0980392157 0.0980392157 0.0980392157
v -13.500847459629934 14.687120807512759 -6.6083697047620644 0.0980392157 0.0980392157 0.0980392157
v -8.6530498203325017 6.3021447862386903 -3.7325670112115654 0.0980392157 0.0980392157 0.0980392157
v -7.1872218864836475 10.326455039256247 -9.0519397626157705 0.0980392157 0.0980392157 0.0980392157
v -5.7500370756942853 8.5053652491999756 -4.9305627580408657 0.0980392157 0.0980392157 0.0980392157
v -13.917770814006831 -0.50560783355885319 -6.2810829096901557 0.0980392157 0.0980392157 0.0980392157
v -13.500847459629934 14.687120807512759 -6.6083697047620644 0.0980392157 0.0980392157 0.0980392157
v -13.917770814006831 -0.50560783355885319 -6.2810829096901557 0.0980392157 0.0980392157 0.0980392157
v 10.45889411466031 22.504200740313486 -6.8330345393379295 0.0980392157 0.0980392157 0.0980392157
v 8.6251961332059928 26.893927794085229 1.6816165435418284 0.0980392157 0.0980392157 0.0980392157
v 12.169845188084851 17.102531384988339 2.1273532117818212 0.0980392157 0.0980392157 0.0980392157
v 13.521828006887095 3.8667750153109606 4.5070891174564851 0.0980392157 0.0980392157 0.0980392157
v 12.895875521669 -0.80691923737927129 -8.0860571722232049 0.0980392157 0.0980392157 0.0980392157
v 13.089156017934473 12.00578317876249 -6.2815189520996668 0.0980392157 0.0980392157 0.0980392157
v 7.6358507211907849 -0.63617106351964914 -8.4622674580622075 0.0980392157 0.0980392157 0.0980392157
v 5.0467679601550488 7.4210440821201651 -4.8414739483375815 0.0980392157 0.0980392157 0.0980392157
v 4.1551052035001739 16.443870170263029 -5.3430926011858917 0.0980392157 0.0980392157 0.0980392157
v -5.7500370756942853 8.5053652491999756 -4.9305627580408657 0.0980392157 0.0980392157 0.0980392157
v -9.0112434987636973 -5.5715837152257759 -0.86992959316580154 0.0980392157 0.0980392157 0.0980392157
v -7.8288674242979752 -0.36593420209407723 -8.4074933790070165 0.0980392157 0.0980392157 0.0980392157
v -8.6530498203325017 6.3021447862386903 -3.7325670112115654 0.0980392157 0.0980392157 0.0980392157
v -9.0112434987636973 -5.5715837152257759 -0.86992959316580154 0.0980392157 0.0980392157 0.0980392157
v -13.917770814006831 -0.50560783355885319 -6.2810829096901557 0.0980392157 0.0980392157 0.0980392157
v -7.8288674242979752 -0.36593420209407723 -8.4074933790070165 0.0980392157 0.0980392157 0.0980392157
v -9.201446456189073 -4.1393538519744766 4.7325709033734107 0.0980392157 0.0980392157 0.0980392157
v -13.917770814006831 -0.50560783355885319 -6.2810829096901557 0.0980392157 0.0980392157 0.0980392157
v -9.0112434987636973 -5.5715837152257759 -0.86992959316580154 0.0980392157 0.0980392157 0.0980392157
v 3.1473947453492195 30.794491590219856 0.19098625775891062 0.0980392157 0.0980392157 0.0980392157
v 6.3270891613829381 -5.6653438698620269 0.87412185149529265 0.0980392157 0.0980392157 0.0980392157
v 5.0467679601550488 7.4210440821201651 -4.8414739483375815 0.0980392157 0.0980392157 0.0980392157
v 7.6358507211907849 -0.63617106351964914 -8.4622674580622075 0.0980392157 0.0980392157 0.0980392157
v 5.0467679601550488 7.4210440821201651 -4.8414739483375815 0.0980392157 0.0980392157 0.0980392157
v 4.59457356573109 8.3169998121440756 4.7871444106240109 0.0980392157 0.0980392157 0.0980392157
v -5.7500370756942853 8.5053652491999756 -4.9305627580408657 0.0980392157 0.0980392157 0.0980392157
v -9.6338169740407622 26.099239250102787 2.8906165346024317 0.0980392157 0.0980392157 0.0980392157
v -4.8403065860954415 28.744678481200808 3.4800288568613578 0.0980392157 0.0980392157 0.0980392157
v -8.3536338456921513 7.2028369665515024 5.1629727539186998 0.0980392157 0.0980392157 0.0980392157
v -13.844828396646578 4.1020369725339236 3.7474726686728563 0.0980392157 0.0980392157 0.0980392157
v -12.654014008723461 15.940897807507433 4.4208722989753273 0.0980392157 0.0980392157 0.0980392157
v 10.391075983872517 -2.002455306640055 4.1304090784886158 0.0980392157 0.0980392157 0.0980392157
v 12.895875521669 -0.80691923737927129 -8.0860571722232049 0.0980392157 0.0980392157 0.0980392157
v 13.521828006887095 3.8667750153109606 4.5070891174564851 0.0980392157 0.0980392157 0.0980392157
v -8.3536338456921513 7.2028369665515024 5.1629727539186998 0.0980392157 0.0980392157 0.0980392157
v -8.6530498203325017 6.3021447862386903 -3.7325670112115654 0.0980392157 0.0980392157 0.0980392157
v -8.627964668031435 27.518482074362424 -7.143930117399413 0.0980392157 0.0980392157 0.0980392157
v -13.844828396646578 4.1020369725339236 3.7474726686728563 0.0980392157 0.0980392157 0.0980392157
v -13.917770814006831 -0.50560783355885319 -6.2810829096901557 0.0980392157 0.0980392157 0.0980392157
v -9.201446456189073 -4.1393538519744766 4.7325709033734107 0.0980392157 0.0980392157 0.0980392157
v 13.521828006887095 3.8667750153109606 4.5070891174564851 0.0980392157 0.0980392157 0.0980392157
v 7.9947056725599444 23.73688095320221 6.302488900468469 0.0980392157 0.0980392157 0.0980392157
v 10.391075983872517 -2.002455306640055 4.1304090784886158 0.0980392157 0.0980392157 0.0980392157
v 6.3270891613829381 -5.6653438698620269 0.87412185149529265 0.0980392157 0.0980392157 0.0980392157
v 12.895875521669 -0.80691923737927129 -8.0860571722232049 0.0980392157 0.0980392157 0.0980392157
v 6.3726617636024443 -0.78981243068311979 5.3908170016601549 0.0980392157 0.0980392157 0.0980392157
v 4.59457356573109 8.3169998121440756 4.7871444106240109 0.0980392157 0.0980392157 0.0980392157
v -11.141126663087803 10.986188958051738 7.6538763758360808 0.0980392157 0.0980392157 0.0980392157
v 10.089609836111789 11.301636373175869 7.7696631306083281 0.0980392157 0.0980392157 0.0980392157
v 10.391075983872517 -2.002455306640055 4.1304090784886158 0.0980392157 0.0980392157 0.0980392157
v 10.089609836111789 11.301636373175869 7.7696631306083281 0.0980392157 0.0980392157 0.0980392157
v 6.2180821966918378 10.916178400392358 5.2726584645093935 0.0980392157 0.0980392157 0.0980392157
v 6.2180821966918378 10.916178400392358 5.2726584645093935 0.0980392157 0.0980392157 0.0980392157
v 4.59457356573109 8.3169998121440756 4.7871444106240109 0.0980392157 0.0980392157 0.0980392157
v 10.391075983872517 -2.002455306640055 4.1304090784886158 0.0980392157 0.0980392157 0.0980392157
v -7.9278500990252754 9.9257140512802913 5.2517871859869736 0.0980392157 0.0980392157 0.0980392157
v -13.844828396646578 4.1020369725339236 3.7474726686728563 0.0980392157 0.0980392157 0.0980392157
v -9.201446456189073 -4.1393538519744766 4.7325709033734107 0.0980392157 0.0980392157 0.0980392157
v -8.3536338456921513 7.2028369665515024 5.1629727539186998 0.0980392157 0.0980392157 0.0980392157
v -11.141126663087803 10.986188958051738 7.6538763758360808 0.0980392157 0.0980392157 0.0980392157
v -8.3536338456921513 7.2028369665515024 5.1629727539186998 0.0980392157 0.0980392157 0.0980392157
v -7.9278500990252754 9.9257140512802913 5.2517871859869736 0.0980392157 0.0980392157 0.0980392157
v 6.2180821966918378 10.916178400392358 5.2726584645093935 0.0980392157 0.0980392157 0.0980392157
v -0.76275861325018468 13.571243369708247 8.5234869201291836 0.0980392157 0.0980392157 0.0980392157
v -7.9278500990252754 9.9257140512802913 5.2517871859869736 0.0980392157 0.0980392157 0.0980392157
v -11.141126663087803 10.986188958051738 7.6538763758360808 0.0980392157 0.0980392157 0.0980392157
v -0.76275861325018468 13.571243369708247 8.5234869201291836 0.0980392157 0.0980392157 0.0980392157
v 6.3726617636024443 -0.78981243068311979 5.3908170016601549 0.0980392157 0.0980392157 0.0980392157
v 10.391075983872517 -2.002455306640055 4.1304090784886158 0.0980392157 0.0980392157 0.0980392157
v 10.089609836111789 11.301636373175869 7.7696631306083281 0.0980392157 0.0980392157 0.0980392157
v -7.0729789384142148 21.244087073083421 7.1538635824931642 0.0980392157 0.0980392157 0.0980392157
v -11.141126663087803 10.986188958051738 7.6538763758360808 0.0980392157 0.0980392157 0.0980392157
v -13.844828396646578 4.1020369725339236 3.7474726686728563 0.0980392157 0.0980392157 0.0980392157
v -8.3536338456921513 7.2028369665515024 5.1629727539186998 0.0980392157 0.0980392157 0.0980392157
v -11.141126663087803 10.986188958051738 7.6538763758360808 0.0980392157 0.0980392157 0.0980392157
v 10.391075983872517 -2.002455306640055 4.1304090784886158 0.0980392157 0.0980392157 0.0980392157
v 13.521828006887095 3.8667750153109606 4.5070891174564851 0.0980392157 0.0980392157 0.0980392157
v 10.089609836111789 11.301636373175869 7.7696631306083281 0.0980392157 0.0980392157 0.0980392157
v -0.76275861325018468 13.571243369708247 8.5234869201291836 0.0980392157 0.0980392157 0.0980392157
v 10.089609836111789 11.301636373175869 7.7696631306083281 0.0980392157 0.0980392157 0.0980392157
v -7.1872218864836475 10.326455039256247 -9.0519397626157705 0.0980392157 0.0980392157 0.0980392157
v 7.6358507211907849 -0.63617106351964914 -8.4622674580622075 0.0980392157 0.0980392157 0.0980392157
v 12.895875521669 -0.80691923737927129 -8.0860571722232049 0.0980392157 0.0980392157 0.0980392157
v 6.3270891613829381 -5.6653438698620269 0.87412185149529265 0.0980392157 0.0980392157 0.0980392157
v 12.895875521669 -0.80691923737927129 -8.0860571722232049 0.0980392157 0.0980392157 0.0980392157
v -8.3536338456921513 7.2028369665515024 5.1629727539186998 0.0980392157 0.0980392157 0.0980392157
v -9.6338169740407622 26.099239250102787 2.8906165346024317 0.0980392157 0.0980392157 0.0980392157
v -7.8288674242979752 -0.36593420209407723 -8.4074933790070165 0.0980392157 0.0980392157 0.0980392157
v -11.141126663087803 10.986188958051738 7.6538763758360808 0.0980392157 0.0980392157 0.0980392157
v 6.3726617636024443 -0.78981243068311979 5.3908170016601549 0.0980392157 0.0980392157 0.0980392157
v -5.6085786331307137 15.929762633765668 -5.2499986340217006 0.0980392157 0.0980392157 0.0980392157
v -9.201446456189073 -4.1393538519744766 4.7325709033734107 0.0980392157 0.0980392157 0.0980392157
v -13.917770814006831 -0.50560783355885319 -6.2810829096901557 0.0980392157 0.0980392157 0.0980392157
v 3.1119071959688687 16.602689736408578 -9.5851821694626924 0.0980392157 0.0980392157 0.0980392157
v -5.6085786331307137 15.929762633765668 -5.2499986340217006 0.0980392157 0.0980392157 0.0980392157
v -5.7500370756942853 8.5053652491999756 -4.9305627580408657 0.0980392157 0.0980392157 0.0980392157
vn 0.80298548936843872 0.075937442481517792 -0.59114110469818115
vn 0.31082531809806824 0.088885173201560974 -0.94630175828933716
vn 0.64351022243499756 0.25251126289367676 -0.7225874662399292
vn 0.57881885766983032 0.0026415425818413496 -0.81545186042785645
vn 0.58737659454345703 0.73686391115188599 -0.33469429612159729
vn 0.020168319344520569 0.015351979061961174 -0.99967873096466064
vn -0.0040723276324570179 -0.99998462200164795 0.0037709702737629414
vn -0.0068739713169634342 -0.99997556209564209 -0.0012932586250826716
vn 0.0042812046594917774 -0.99401575326919556 -0.10915268957614899
vn -0.27806088328361511 0.94366687536239624 -0.17937378585338593
vn -0.084761239588260651 0.2750975489616394 -0.95767265558242798
vn -0.0032861556392163038 -0.015027373097836971 0.99988168478012085
vn -0.24216175079345703 -0.007370001170784235 0.97020792961120605
vn -0.10326854139566422 -0.035829257220029831 0.99400800466537476
vn -0.99769264459609985 -0.067393563687801361 -0.0082173943519592285
vn -0.99009180068969727 -0.13515192270278931 -0.03810780867934227
vn -0.99759197235107422 -0.068822450935840607 -0.0085845319554209709
vn -0.58781933784484863 0.39017331600189209 -0.70868414640426636
vn 0.16543695330619812 -0.054071493446826935 0.98473697900772095
vn 0.19013375043869019 -0.037270680069923401 0.98105049133300781
vn 0.086466461420059204 -0.99623614549636841 -0.0060930289328098297
vn 0.088141888380050659 -0.99606037139892578 -0.0097348792478442192
vn 0.093368090689182281 -0.99561178684234619 -0.0062950318679213524
vn 0.23684875667095184 -0.027942400425672531 0.97114461660385132
vn -0.38660478591918945 0.062014773488044739 -0.92015808820724487
vn 0.99613779783248901 0.083963662385940552 -0.025682324543595314
vn 0.99618875980377197 0.08329155296087265 -0.025894008576869965
vn 0.99602681398391724 0.086244493722915649 -0.02219284325838089
vn -0.37175735831260681 0.0097987763583660126 -0.92827820777893066
vn -0.083171814680099487 0.039167836308479309 -0.99576520919799805
vn -0.032655306160449982 -0.99936676025390625 -0.014132444746792316
vn 0.033331140875816345 -0.99716925621032715 -0.067398034036159515
vn -0.48681932687759399 -0.17558301985263824 -0.85567373037338257
vn 0.94656801223754883 -0.32232317328453064 -0.010805630125105381
vn 0.94656801223754883 -0.32232317328453064 -0.010805630125105381
vn 0.94656801223754883 -0.32232317328453064 -0.010805630125105381
vn -0.12469237297773361 -0.99115937948226929 -0.045331332832574844
vn -0.96401602029800415 0.12133955955505371 -0.23653708398342133
vn -0.78541761636734009 -0.0035305656492710114 -0.61895614862442017
vn 0.91240638494491577 0.32958880066871643 -0.24266403913497925
vn 0.79294246435165405 0.56913036108016968 0.21756106615066528
vn 0.97043710947036743 0.20084173977375031 0.13384461402893066
vn 0.99115264415740967 0.049348607659339905 0.12321197986602783
vn 0.93254870176315308 0.014632128179073334 -0.36074751615524292
vn 0.98752230405807495 0.086976401507854462 -0.13128143548965454
vn 0.0047507467679679394 -0.093279160559177399 -0.99562865495681763
vn 0.0022960298229008913 0.00052079127635806799 -0.99999725818634033
vn 0.0069151096977293491 0.0060585169121623039 -0.99995774030685425
vn -0.0054328078404068947 -0.019018126651644707 -0.99980437755584717
vn 0.99968963861465454 -0.00059340131701901555 -0.024904459714889526
vn 0.94021368026733398 0.054748307913541794 0.33615601062774658
vn 0.99917024374008179 -0.0055617149919271469 0.04034680500626564
vn 0.033845890313386917 -0.64067459106445312 -0.76706618070602417
vn 0.033845890313386917 -0.64067459106445312 -0.76706618070602417
vn 0.033845890313386917 -0.64067459106445312 -0.76706618070602417
vn -0.85867291688919067 0.1661306619644165 0.48485195636749268
vn -0.85867291688919067 0.1661306619644165 0.48485195636749268
vn -0.85867291688919067 0.1661306619644165 0.48485195636749268
vn 0.1741534024477005 0.8910331130027771 0.4192022979259491
vn -0.99078553915023804 -0.13521069288253784 -0.0078806523233652115
vn -0.99058753252029419 0.12818875908851624 -0.047999650239944458
vn -0.99377930164337158 0.036395542323589325 -0.10525211691856384
vn -0.03957873210310936 -0.95038300752639771 0.30855420231819153
vn -0.0058429324999451637 -0.90329420566558838 -0.42898184061050415
vn 0.08879215270280838 -0.92280101776123047 0.37490558624267578
vn -0.821205735206604 0.50517868995666504 0.2653595507144928
vn -0.19218169152736664 0.71984082460403442 0.66700476408004761
vn 0.9999890923500061 -0.0046542179770767689 0.00030771561432629824
vn -0.99741238355636597 0.053878173232078552 0.047599390149116516
vn -0.92377889156341553 0.18729253113269806 0.33399718999862671
vn 0.70881074666976929 -0.69640028476715088 -0.11231192201375961
vn 0.70881074666976929 -0.69640028476715088 -0.11231192201375961
vn 0.70881074666976929 -0.69640028476715088 -0.11231192201375961
vn 0.36505216360092163 -0.91100519895553589 -0.1918502002954483
vn 0.36813950538635254 -0.92891901731491089 0.039784006774425507
vn -0.82459771633148193 0.5178675651550293 -0.22770999372005463
vn -0.88779789209365845 -0.052386444061994553 0.45724233984947205
vn -0.88779789209365845 -0.052386444061994553 0.45724233984947205
vn -0.88779789209365845 -0.052386444061994553 0.45724233984947205
vn 0.98964923620223999 0.053051810711622238 0.13334120810031891
vn 0.39550945162773132 0.31843769550323486 0.86149275302886963
vn 0.16136984527111053 -0.8648151159286499 0.4754520058631897
vn -0.00079580617602914572 -0.91910552978515625 0.39401069283485413
vn 0.31349998712539673 -0.4861559271812439 0.81570225954055786
vn -0.9955783486366272 -0.0057612922973930836 0.093757711350917816
vn -0.98522716760635376 0.062346816062927246 0.1595001220703125
vn -0.79096978902816772 0.23103377223014832 0.56655991077423096
vn 0.63410639762878418 0.18168656527996063 0.75159764289855957
vn -0.85074609518051147 0 0.5255768895149231
vn -0.85074609518051147 0 0.5255768895149231
vn -0.85074609518051147 0 0.5255768895149231
vn 0.0037981986533850431 0.0090979961678385735 0.99995142221450806
vn 0.0044059576466679573 0.0044093956239521503 0.99998056888580322
vn 0.056521516293287277 -0.082715071737766266 0.99496912956237793
vn -0.0019248812459409237 0.00061084202025085688 0.99999797344207764
vn -0.40298676490783691 0.057680666446685791 0.91338634490966797
vn -0.51612550020217896 -0.50334268808364868 0.69300836324691772
vn -0.018962744623422623 0.022016845643520355 0.99957776069641113
vn 0.98035305738449097 0.085769794881343842 0.17762717604637146
vn 0.98035305738449097 0.085769794881343842 0.17762717604637146
vn 0.98035305738449097 0.085769794881343842 0.17762717604637146
vn -0.035915479063987732 -0.83300459384918213 0.55209910869598389
vn 0.027850765734910965 -0.77193063497543335 0.63509637117385864
vn 0.11423976719379425 -0.78643137216567993 0.60702139139175415
vn 0.15294612944126129 -0.80869954824447632 0.56798988580703735
vn 0.095397539436817169 -0.60289555788040161 0.79209613800048828
vn 0.04950476810336113 -0.48684856295585632 0.8720824122428894
vn 0.038064748048782349 -0.34330999851226807 0.93845051527023315
vn -0.24182599782943726 -0.9187588095664978 0.31209370493888855
vn -0.22894400358200073 0.27436494827270508 0.93397456407546997
vn 0.11338379234075546 -0.51489698886871338 0.84972065687179565
vn 0.18476992845535278 -0.62347030639648438 0.7597004771232605
vn 0.048284713178873062 -0.4856242835521698 0.87283313274383545
vn -0.65175670385360718 0.096555985510349274 0.75225669145584106
vn 0.067858286201953888 -0.57087421417236328 0.81822854280471802
vn -0.0057318927720189095 -0.5726921558380127 0.81975048780441284
vn 0.00057798565831035376 -0.41657900810241699 0.90909934043884277
vn -0.043291855603456497 0.08793177455663681 0.99518531560897827
vn 0.38011249899864197 0.18256230652332306 0.90674442052841187
vn 0.95712685585021973 0.035433005541563034 0.28749370574951172
vn 0.088935911655426025 -0.33451035618782043 -0.93818610906600952
vn 0.36601969599723816 -0.62129557132720947 -0.69283574819564819
vn -0.018374292179942131 -0.95603567361831665 -0.29267418384552002
vn 0.12075591832399368 -0.98343551158905029 -0.13517627120018005
vn -0.0099859600886702538 -0.87960237264633179 -0.47560480237007141
vn -0.34597229957580566 0.42915451526641846 0.83434379100799561
vn 0.22619785368442535 -0.015586338005959988 0.9739566445350647
vn -0.35340192914009094 0.15765124559402466 0.92209172248840332
vn 0.026136713102459908 -0.091958582401275635 0.99541974067687988
vn 0.99593448638916016 0.087616719305515289 -0.020924890413880348
vn 0.99998879432678223 0.0027483722660690546 -0.0038475275505334139
vn -0.98608952760696411 -0.0026270390953868628 -0.16619430482387543
vn 0.083676844835281372 -0.99645346403121948 -0.0088687147945165634
vn 0 0 -1
vn -0.002183644101023674 -0.00019119636272080243 -0.99999761581420898
usemtl vc_191919__Default
f 1//1 2//2 3//3
f 1//1 4//4 2//2
f 3//3 2//2 5//5
f 2//2 4//4 6//6
f 7//7 8//8 9//9
f 10//10 5//5 11//11
f 12//12 13//13 14//14
f 15//15 16//16 17//17
f 10//10 11//11 18//18
f 19//19 20//20 14//14
f 23//23 133//133 21//21 22//22
f 24//24 12//12 14//14
f 25//25 18//18 11//11
f 26//26 27//27 28//28
f 29//29 25//25 30//30 6//6
f 31//31 8//8 32//32
f 33//33 18//18 25//25
f 34//34 35//35 36//36
f 37//37 31//31 32//32
f 25//25 29//29 38//38
f 39//39 38//38 29//29
f 40//40 41//41 42//42
f 43//43 44//44 45//45
f 41//41 40//40 5//5
f 46//46 47//47 48//48
f 49//49 48//48 47//47
f 50//50 51//51 52//52
f 53//53 54//54 55//55
f 56//56 57//57 58//58
f 45//45 42//42 43//43
f 59//59 41//41 5//5
f 60//60 61//61 62//62
f 63//63 64//64 65//65
f 66//66 67//67 10//10
f 52//52 68//68 50//50
f 69//69 70//70 38//38
f 71//71 72//72 73//73
f 74//74 75//75 65//65
f 66//66 76//76 38//38
f 77//77 78//78 79//79
f 80//80 42//42 81//81
f 82//82 83//83 84//84
f 85//85 86//86 61//61
f 87//87 70//70 69//69
f 88//88 80//80 81//81
f 67//67 81//81 59//59
f 89//89 90//90 91//91
f 92//92 93//93 94//94
f 92//92 95//95 93//93
f 96//96 97//97 98//98
f 99//99 100//100 101//101
f 102//102 103//103 104//104
f 105//105 104//104 106//106
f 107//107 83//83 108//108
f 103//103 102//102 109//109
f 70//70 110//110 66//66
f 111//111 112//112 113//113
f 114//114 110//110 70//70
f 115//115 116//116 117//117
f 118//118 119//119 81//81
f 81//81 110//110 118//118
f 25//25 11//11 30//30
f 11//11 2//2 30//30
f 51//51 120//120 52//52
f 10//10 76//76 66//66
f 121//121 122//122 123//123
f 59//59 10//10 67//67
f 81//81 42//42 41//41
f 2//2 11//11 5//5
f 5//5 10//10 59//59
f 70//70 66//66 38//38
f 81//81 41//41 59//59
f 8//8 124//124 9//9
f 40//40 42//42 45//45
f 65//65 64//64 125//125
f 126//126 110//110 67//67
f 67//67 110//110 81//81
f 127//127 12//12 24//24
f 8//8 7//7 32//32
f 85//85 61//61 60//60
f 110//110 128//128 118//118
f 93//93 129//129 94//94
f 26//26 28//28 130//130
f 68//68 131//131 50//50
f 69//69 38//38 132//132
f 2//2 6//6 30//30
f 95//95 98//98 93//93
f 134//134 48//48 135//135
