# Dual color encoding: per-vertex RGB for Rerun, face MTL colors for legacy RViz.
mtllib sim_gene01_l_hand_ring_3.mtl
# Rhino

g sim_gene01_l_hand_ring_3
v 0.091805759150975774 32.263637496730446 -12.04485495710245 0.0980392157 0.0980392157 0.0980392157
v 10.800586363956175 31.871586138170542 -9.2096922104603021 0.0980392157 0.0980392157 0.0980392157
v 11.802778306145541 -3.5603372987140975 -10.723504210846045 0.0980392157 0.0980392157 0.0980392157
v 12.328062141651335 12.915160170265249 -8.7557508168645555 0.0980392157 0.0980392157 0.0980392157
v 10.800586363956175 31.871586138170542 -9.2096922104603021 0.0980392157 0.0980392157 0.0980392157
v -0.88166095647487097 32.106485537376841 -10.53106343114265 0.0980392157 0.0980392157 0.0980392157
v 10.800586363956175 31.871586138170542 -9.2096922104603021 0.0980392157 0.0980392157 0.0980392157
v 0.091805759150975774 32.263637496730446 -12.04485495710245 0.0980392157 0.0980392157 0.0980392157
v -1.1058843815627313 -5.6253237282203497 -11.146433882563334 0.0980392157 0.0980392157 0.0980392157
v 0.25300571053611431 -5.806275421725398 -12.870026405229231 0.0980392157 0.0980392157 0.0980392157
v 11.802778306145541 -3.5603372987140975 -10.723504210846045 0.0980392157 0.0980392157 0.0980392157
v -12.35097307336607 -1.3073477295980638 -10.976137500071758 0.0980392157 0.0980392157 0.0980392157
v 0.25300571053611431 -5.806275421725398 -12.870026405229231 0.0980392157 0.0980392157 0.0980392157
v 4.0711642566027741 14.434490255779565 -10.514987193681366 0.0980392157 0.0980392157 0.0980392157
v 0.38688642513596005 16.607038508016981 -6.1711679507679715 0.0980392157 0.0980392157 0.0980392157
v -5.9868430278620508 14.203946609067902 -10.227544011336164 0.0980392157 0.0980392157 0.0980392157
v -11.120721024690932 32.135936855137444 -9.2293183708920807 0.0980392157 0.0980392157 0.0980392157
v -11.120721024690932 32.135936855137444 -9.2293183708920807 0.0980392157 0.0980392157 0.0980392157
v -10.424712580672482 -5.266487238055837 -10.148722788867182 0.0980392157 0.0980392157 0.0980392157
v -13.592739734028912 14.325815427618435 -8.6265874514080281 0.0980392157 0.0980392157 0.0980392157
v -13.772652604568233 32.102733378276881 -6.9018578070255501 0.0980392157 0.0980392157 0.0980392157
v -11.608355065516196 3.0485182712548484 -9.2169888112107454 0.0980392157 0.0980392157 0.0980392157
v -13.592739734028912 14.325815427618435 -8.6265874514080281 0.0980392157 0.0980392157 0.0980392157
v -12.35097307336607 -1.3073477295980638 -10.976137500071758 0.0980392157 0.0980392157 0.0980392157
v 7.5791637042443556 31.257118926023885 -5.1201306941382008 0.0980392157 0.0980392157 0.0980392157
v 13.00842743106047 31.88085717303791 -6.0146630441358582 0.0980392157 0.0980392157 0.0980392157
v 13.00842743106047 31.88085717303791 -6.0146630441358582 0.0980392157 0.0980392157 0.0980392157
v 10.800586363956175 31.871586138170542 -9.2096922104603021 0.0980392157 0.0980392157 0.0980392157
v 12.807736051098543 15.043874087591526 -3.8244830573082802 0.0980392157 0.0980392157 0.0980392157
v 9.2263140003268802 13.4016999994549 -5.2820816743138508 0.0980392157 0.0980392157 0.0980392157
v 12.328062141651335 12.915160170265249 -8.7557508168645555 0.0980392157 0.0980392157 0.0980392157
v 9.2263140003268802 13.4016999994549 -5.2820816743138508 0.0980392157 0.0980392157 0.0980392157
v 8.0752832906456185 17.677247279740129 -7.7749802821627751 0.0980392157 0.0980392157 0.0980392157
v 12.328062141651335 12.915160170265249 -8.7557508168645555 0.0980392157 0.0980392157 0.0980392157
v 6.0700546941729456 -1.3663415824419962 -10.307405660836146 0.0980392157 0.0980392157 0.0980392157
v 10.794244170301058 5.1239042839575246 -9.146184524934057 0.0980392157 0.0980392157 0.0980392157
v 12.328062141651335 12.915160170265249 -8.7557508168645555 0.0980392157 0.0980392157 0.0980392157
v 11.802778306145541 -3.5603372987140975 -10.723504210846045 0.0980392157 0.0980392157 0.0980392157
v 11.154373083893349 -2.2634638861009124 -5.5367537444172434 0.0980392157 0.0980392157 0.0980392157
v 11.802778306145541 -3.5603372987140975 -10.723504210846045 0.0980392157 0.0980392157 0.0980392157
v 10.794244170301058 5.1239042839575246 -9.146184524934057 0.0980392157 0.0980392157 0.0980392157
v 7.6440995636112916 6.8305558822508452 -5.2147979124072066 0.0980392157 0.0980392157 0.0980392157
v 11.446647600055805 5.6548944344815615 -4.3874455552691654 0.0980392157 0.0980392157 0.0980392157
v 10.794244170301058 5.1239042839575246 -9.146184524934057 0.0980392157 0.0980392157 0.0980392157
v 8.2895777350357971 -3.0910382626988842 -5.4533078665752761 0.0980392157 0.0980392157 0.0980392157
v 11.802778306145541 -3.5603372987140975 -10.723504210846045 0.0980392157 0.0980392157 0.0980392157
v 11.154373083893349 -2.2634638861009124 -5.5367537444172434 0.0980392157 0.0980392157 0.0980392157
v -0.88166095647487097 32.106485537376841 -10.53106343114265 0.0980392157 0.0980392157 0.0980392157
v 5.1680191395219701 24.605665377419434 -10.088396288665445 0.0980392157 0.0980392157 0.0980392157
v 10.800586363956175 31.871586138170542 -9.2096922104603021 0.0980392157 0.0980392157 0.0980392157
v 7.5791637042443556 31.257118926023885 -5.1201306941382008 0.0980392157 0.0980392157 0.0980392157
v 10.800586363956175 31.871586138170542 -9.2096922104603021 0.0980392157 0.0980392157 0.0980392157
v 9.123769637951515 23.683961242469607 -9.0809602760160359 0.0980392157 0.0980392157 0.0980392157
v 7.2153817140990126 23.571895486542452 -5.1369087760877488 0.0980392157 0.0980392157 0.0980392157
v 7.2153817140990126 23.571895486542452 -5.1369087760877488 0.0980392157 0.0980392157 0.0980392157
v 5.1680191395219701 24.605665377419434 -10.088396288665445 0.0980392157 0.0980392157 0.0980392157
v 8.0752832906456185 17.677247279740129 -7.7749802821627751 0.0980392157 0.0980392157 0.0980392157
v 4.0711642566027741 14.434490255779565 -10.514987193681366 0.0980392157 0.0980392157 0.0980392157
v 12.328062141651335 12.915160170265249 -8.7557508168645555 0.0980392157 0.0980392157 0.0980392157
v 8.0752832906456185 17.677247279740129 -7.7749802821627751 0.0980392157 0.0980392157 0.0980392157
v 4.0711642566027741 14.434490255779565 -10.514987193681366 0.0980392157 0.0980392157 0.0980392157
v 6.0700546941729456 -1.3663415824419962 -10.307405660836146 0.0980392157 0.0980392157 0.0980392157
v -1.1058843815627313 -5.6253237282203497 -11.146433882563334 0.0980392157 0.0980392157 0.0980392157
v 11.802778306145541 -3.5603372987140975 -10.723504210846045 0.0980392157 0.0980392157 0.0980392157
v 8.2895777350357971 -3.0910382626988842 -5.4533078665752761 0.0980392157 0.0980392157 0.0980392157
v 6.0700546941729456 -1.3663415824419962 -10.307405660836146 0.0980392157 0.0980392157 0.0980392157
v 11.802778306145541 -3.5603372987140975 -10.723504210846045 0.0980392157 0.0980392157 0.0980392157
v -9.2795992685381048 22.298269014806152 -9.484264940531796 0.0980392157 0.0980392157 0.0980392157
v 0.31647218057805793 21.23885516185009 -7.9565421791621436 0.0980392157 0.0980392157 0.0980392157
v 5.1680191395219701 24.605665377419434 -10.088396288665445 0.0980392157 0.0980392157 0.0980392157
v -9.2795992685381048 22.298269014806152 -9.484264940531796 0.0980392157 0.0980392157 0.0980392157
v 4.0711642566027741 14.434490255779565 -10.514987193681366 0.0980392157 0.0980392157 0.0980392157
v 8.0752832906456185 17.677247279740129 -7.7749802821627751 0.0980392157 0.0980392157 0.0980392157
v 5.1680191395219701 24.605665377419434 -10.088396288665445 0.0980392157 0.0980392157 0.0980392157
v 0.38688642513596005 16.607038508016981 -6.1711679507679715 0.0980392157 0.0980392157 0.0980392157
v 4.0711642566027741 14.434490255779565 -10.514987193681366 0.0980392157 0.0980392157 0.0980392157
v 0.31647218057805793 21.23885516185009 -7.9565421791621436 0.0980392157 0.0980392157 0.0980392157
v 9.2263140003268802 13.4016999994549 -5.2820816743138508 0.0980392157 0.0980392157 0.0980392157
v 7.2153817140990126 23.571895486542452 -5.1369087760877488 0.0980392157 0.0980392157 0.0980392157
v 8.0752832906456185 17.677247279740129 -7.7749802821627751 0.0980392157 0.0980392157 0.0980392157
v 0.38688642513596005 16.607038508016981 -6.1711679507679715 0.0980392157 0.0980392157 0.0980392157
v 0.31647218057805793 21.23885516185009 -7.9565421791621436 0.0980392157 0.0980392157 0.0980392157
v 0.79766280467269224 22.746417795628332 -5.2652601109439745 0.0980392157 0.0980392157 0.0980392157
v 8.2895777350357971 -3.0910382626988842 -5.4533078665752761 0.0980392157 0.0980392157 0.0980392157
v 7.6440995636112916 6.8305558822508452 -5.2147979124072066 0.0980392157 0.0980392157 0.0980392157
v 6.0700546941729456 -1.3663415824419962 -10.307405660836146 0.0980392157 0.0980392157 0.0980392157
v -8.5615325750321301 21.959551200505899 -5.3333197627030922 0.0980392157 0.0980392157 0.0980392157
v 0.31647218057805793 21.23885516185009 -7.9565421791621436 0.0980392157 0.0980392157 0.0980392157
v -9.2795992685381048 22.298269014806152 -9.484264940531796 0.0980392157 0.0980392157 0.0980392157
v -8.5615325750321301 21.959551200505899 -5.3333197627030922 0.0980392157 0.0980392157 0.0980392157
v 0.79766280467269224 22.746417795628332 -5.2652601109439745 0.0980392157 0.0980392157 0.0980392157
v 0.31647218057805793 21.23885516185009 -7.9565421791621436 0.0980392157 0.0980392157 0.0980392157
v -12.334314749887664 13.12023079193561 -5.1970410144838777 0.0980392157 0.0980392157 0.0980392157
v -5.9868430278620508 14.203946609067902 -10.227544011336164 0.0980392157 0.0980392157 0.0980392157
v 0.38688642513596005 16.607038508016981 -6.1711679507679715 0.0980392157 0.0980392157 0.0980392157
v -12.334314749887664 13.12023079193561 -5.1970410144838777 0.0980392157 0.0980392157 0.0980392157
v -13.592739734028912 14.325815427618435 -8.6265874514080281 0.0980392157 0.0980392157 0.0980392157
v -5.9868430278620508 14.203946609067902 -10.227544011336164 0.0980392157 0.0980392157 0.0980392157
v -8.3995834032529402 32.501670815340809 -5.2209281206550573 0.0980392157 0.0980392157 0.0980392157
v -8.5615325750321301 21.959551200505899 -5.3333197627030922 0.0980392157 0.0980392157 0.0980392157
v -11.120721024690932 32.135936855137444 -9.2293183708920807 0.0980392157 0.0980392157 0.0980392157
v -13.772652604568233 32.102733378276881 -6.9018578070255501 0.0980392157 0.0980392157 0.0980392157
v -8.3995834032529402 32.501670815340809 -5.2209281206550573 0.0980392157 0.0980392157 0.0980392157
v -9.2795992685381048 22.298269014806152 -9.484264940531796 0.0980392157 0.0980392157 0.0980392157
v -5.9868430278620508 14.203946609067902 -10.227544011336164 0.0980392157 0.0980392157 0.0980392157
v -11.608355065516196 3.0485182712548484 -9.2169888112107454 0.0980392157 0.0980392157 0.0980392157
v -10.424712580672482 -5.266487238055837 -10.148722788867182 0.0980392157 0.0980392157 0.0980392157
v -13.592739734028912 14.325815427618435 -8.6265874514080281 0.0980392157 0.0980392157 0.0980392157
v -14.273590893394633 6.3450392778328055 -3.9207493594527696 0.0980392157 0.0980392157 0.0980392157
v -11.663094382066562 5.6540764202508846 -5.2516165814613984 0.0980392157 0.0980392157 0.0980392157
v -11.608355065516196 3.0485182712548484 -9.2169888112107454 0.0980392157 0.0980392157 0.0980392157
v -11.608355065516196 3.0485182712548484 -9.2169888112107454 0.0980392157 0.0980392157 0.0980392157
v -12.259504999833299 -5.915817923523381 3.845933932604316 0.0980392157 0.0980392157 0.0980392157
v -10.424712580672482 -5.266487238055837 -10.148722788867182 0.0980392157 0.0980392157 0.0980392157
v -14.327003685966693 -2.8575552676236642 -4.3413145251577854 0.0980392157 0.0980392157 0.0980392157
v -12.35097307336607 -1.3073477295980638 -10.976137500071758 0.0980392157 0.0980392157 0.0980392157
v -12.259504999833299 -5.915817923523381 3.845933932604316 0.0980392157 0.0980392157 0.0980392157
v 7.3274760926253046 36.386235695230809 0.97434542009233249 0.0980392157 0.0980392157 0.0980392157
v 13.00842743106047 31.88085717303791 -6.0146630441358582 0.0980392157 0.0980392157 0.0980392157
v 11.229219286660097 32.9310656853295 -0.59638067900383207 0.0980392157 0.0980392157 0.0980392157
v 12.807736051098543 15.043874087591526 -3.8244830573082802 0.0980392157 0.0980392157 0.0980392157
v 13.73476103259326 30.311735711272647 2.1057958958468865 0.0980392157 0.0980392157 0.0980392157
v 11.446647600055805 5.6548944344815615 -4.3874455552691654 0.0980392157 0.0980392157 0.0980392157
v 9.2263140003268802 13.4016999994549 -5.2820816743138508 0.0980392157 0.0980392157 0.0980392157
v 12.807736051098543 15.043874087591526 -3.8244830573082802 0.0980392157 0.0980392157 0.0980392157
v 12.151869507704541 23.90371596066738 -5.0289203807386977 0.0980392157 0.0980392157 0.0980392157
v 13.00842743106047 31.88085717303791 -6.0146630441358582 0.0980392157 0.0980392157 0.0980392157
v 7.5791637042443556 31.257118926023885 -5.1201306941382008 0.0980392157 0.0980392157 0.0980392157
v 7.2153817140990126 23.571895486542452 -5.1369087760877488 0.0980392157 0.0980392157 0.0980392157
v -8.3995834032529402 32.501670815340809 -5.2209281206550573 0.0980392157 0.0980392157 0.0980392157
v 7.5791637042443556 31.257118926023885 -5.1201306941382008 0.0980392157 0.0980392157 0.0980392157
v 0.79766280467269224 22.746417795628332 -5.2652601109439745 0.0980392157 0.0980392157 0.0980392157
v 7.2153817140990126 23.571895486542452 -5.1369087760877488 0.0980392157 0.0980392157 0.0980392157
v 0.38688642513596005 16.607038508016981 -6.1711679507679715 0.0980392157 0.0980392157 0.0980392157
v 11.154373083893349 -2.2634638861009124 -5.5367537444172434 0.0980392157 0.0980392157 0.0980392157
v 9.5964082801113282 -7.077192674898436 -0.38079158130888396 0.0980392157 0.0980392157 0.0980392157
v 8.2895777350357971 -3.0910382626988842 -5.4533078665752761 0.0980392157 0.0980392157 0.0980392157
v 9.5964082801113282 -7.077192674898436 -0.38079158130888396 0.0980392157 0.0980392157 0.0980392157
v 6.0721089582101264 7.5867805463307922 5.0098958695034375 0.0980392157 0.0980392157 0.0980392157
v 8.2895777350357971 -3.0910382626988842 -5.4533078665752761 0.0980392157 0.0980392157 0.0980392157
v 9.2263140003268802 13.4016999994549 -5.2820816743138508 0.0980392157 0.0980392157 0.0980392157
v -12.334314749887664 13.12023079193561 -5.1970410144838777 0.0980392157 0.0980392157 0.0980392157
v 7.6440995636112916 6.8305558822508452 -5.2147979124072066 0.0980392157 0.0980392157 0.0980392157
v -14.223431138079791 31.14298287364657 1.1175736111776027 0.0980392157 0.0980392157 0.0980392157
v -11.403855285885797 34.937339849929025 0.81052731027162861 0.0980392157 0.0980392157 0.0980392157
v -8.0663922563772221 39.775642907011083 -5.1126187524260436 0.0980392157 0.0980392157 0.0980392157
v -8.3995834032529402 32.501670815340809 -5.2209281206550573 0.0980392157 0.0980392157 0.0980392157
v -14.223431138079791 31.14298287364657 1.1175736111776027 0.0980392157 0.0980392157 0.0980392157
v -11.403855285885797 34.937339849929025 0.81052731027162861 0.0980392157 0.0980392157 0.0980392157
v -8.3995834032529402 32.501670815340809 -5.2209281206550573 0.0980392157 0.0980392157 0.0980392157
v -14.223431138079791 31.14298287364657 1.1175736111776027 0.0980392157 0.0980392157 0.0980392157
v -11.663094382066562 5.6540764202508846 -5.2516165814613984 0.0980392157 0.0980392157 0.0980392157
v -11.2398372184763 7.6741331668568105 5.2463298986612275 0.0980392157 0.0980392157 0.0980392157
v -14.327003685966693 -2.8575552676236642 -4.3413145251577854 0.0980392157 0.0980392157 0.0980392157
v -11.608355065516196 3.0485182712548484 -9.2169888112107454 0.0980392157 0.0980392157 0.0980392157
v -12.35097307336607 -1.3073477295980638 -10.976137500071758 0.0980392157 0.0980392157 0.0980392157
v -14.273590893394633 6.3450392778328055 -3.9207493594527696 0.0980392157 0.0980392157 0.0980392157
v -14.327003685966693 -2.8575552676236642 -4.3413145251577854 0.0980392157 0.0980392157 0.0980392157
v 7.3274760926253046 36.386235695230809 0.97434542009233249 0.0980392157 0.0980392157 0.0980392157
v 13.73476103259326 30.311735711272647 2.1057958958468865 0.0980392157 0.0980392157 0.0980392157
v 13.00842743106047 31.88085717303791 -6.0146630441358582 0.0980392157 0.0980392157 0.0980392157
v 7.5791637042443556 31.257118926023885 -5.1201306941382008 0.0980392157 0.0980392157 0.0980392157
v 7.3274760926253046 36.386235695230809 0.97434542009233249 0.0980392157 0.0980392157 0.0980392157
v 11.229219286660097 32.9310656853295 -0.59638067900383207 0.0980392157 0.0980392157 0.0980392157
v 7.3303523561512289 20.803040731861476 1.4083384262275958 0.0980392157 0.0980392157 0.0980392157
v 12.151869507704541 23.90371596066738 -5.0289203807386977 0.0980392157 0.0980392157 0.0980392157
v 7.2153817140990126 23.571895486542452 -5.1369087760877488 0.0980392157 0.0980392157 0.0980392157
v 11.446647600055805 5.6548944344815615 -4.3874455552691654 0.0980392157 0.0980392157 0.0980392157
v 11.744969067675134 4.2086492868405374 4.0750463265856025 0.0980392157 0.0980392157 0.0980392157
v 12.807736051098543 15.043874087591526 -3.8244830573082802 0.0980392157 0.0980392157 0.0980392157
v 14.615030990906135 0.12726841441227857 0.12732052893813078 0.0980392157 0.0980392157 0.0980392157
v 11.446647600055805 5.6548944344815615 -4.3874455552691654 0.0980392157 0.0980392157 0.0980392157
v 14.615030990906135 0.12726841441227857 0.12732052893813078 0.0980392157 0.0980392157 0.0980392157
v 11.154373083893349 -2.2634638861009124 -5.5367537444172434 0.0980392157 0.0980392157 0.0980392157
v 9.5964082801113282 -7.077192674898436 -0.38079158130888396 0.0980392157 0.0980392157 0.0980392157
v 7.3274760926253046 36.386235695230809 0.97434542009233249 0.0980392157 0.0980392157 0.0980392157
v 7.5791637042443556 31.257118926023885 -5.1201306941382008 0.0980392157 0.0980392157 0.0980392157
v 3.6082958033696806 41.378662271898285 -5.4880177747792835 0.0980392157 0.0980392157 0.0980392157
v 2.0329268621909637 37.750484966820629 0.6032831648882836 0.0980392157 0.0980392157 0.0980392157
v 7.3274760926253046 36.386235695230809 0.97434542009233249 0.0980392157 0.0980392157 0.0980392157
v 3.6082958033696806 41.378662271898285 -5.4880177747792835 0.0980392157 0.0980392157 0.0980392157
v -0.36467915877563678 42.286447491812936 -0.35714246319153359 0.0980392157 0.0980392157 0.0980392157
v 2.0329268621909637 37.750484966820629 0.6032831648882836 0.0980392157 0.0980392157 0.0980392157
v 3.6082958033696806 41.378662271898285 -5.4880177747792835 0.0980392157 0.0980392157 0.0980392157
v -8.3995834032529402 32.501670815340809 -5.2209281206550573 0.0980392157 0.0980392157 0.0980392157
v -8.0663922563772221 39.775642907011083 -5.1126187524260436 0.0980392157 0.0980392157 0.0980392157
v -14.273590893394633 6.3450392778328055 -3.9207493594527696 0.0980392157 0.0980392157 0.0980392157
v -11.663094382066562 5.6540764202508846 -5.2516165814613984 0.0980392157 0.0980392157 0.0980392157
v 7.6440995636112916 6.8305558822508452 -5.2147979124072066 0.0980392157 0.0980392157 0.0980392157
v -7.5884394930491421 9.5378026650205534 -3.5625941703067117 0.0980392157 0.0980392157 0.0980392157
v -11.2398372184763 7.6741331668568105 5.2463298986612275 0.0980392157 0.0980392157 0.0980392157
v -11.663094382066562 5.6540764202508846 -5.2516165814613984 0.0980392157 0.0980392157 0.0980392157
v -7.5884394930491421 9.5378026650205534 -3.5625941703067117 0.0980392157 0.0980392157 0.0980392157
v 5.1487080978908564 28.410530503563908 -0.82031364522032502 0.0980392157 0.0980392157 0.0980392157
v 7.5791637042443556 31.257118926023885 -5.1201306941382008 0.0980392157 0.0980392157 0.0980392157
v 11.229219286660097 32.9310656853295 -0.59638067900383207 0.0980392157 0.0980392157 0.0980392157
v 7.2153817140990126 23.571895486542452 -5.1369087760877488 0.0980392157 0.0980392157 0.0980392157
v 7.5791637042443556 31.257118926023885 -5.1201306941382008 0.0980392157 0.0980392157 0.0980392157
v 5.1487080978908564 28.410530503563908 -0.82031364522032502 0.0980392157 0.0980392157 0.0980392157
v 7.3303523561512289 20.803040731861476 1.4083384262275958 0.0980392157 0.0980392157 0.0980392157
v 7.2153817140990126 23.571895486542452 -5.1369087760877488 0.0980392157 0.0980392157 0.0980392157
v 5.1487080978908564 28.410530503563908 -0.82031364522032502 0.0980392157 0.0980392157 0.0980392157
v -0.36467915877563678 42.286447491812936 -0.35714246319153359 0.0980392157 0.0980392157 0.0980392157
v 3.6082958033696806 41.378662271898285 -5.4880177747792835 0.0980392157 0.0980392157 0.0980392157
v -7.2556001819926541 42.326173758327087 0.24526348041517032 0.0980392157 0.0980392157 0.0980392157
v -7.2556001819926541 42.326173758327087 0.24526348041517032 0.0980392157 0.0980392157 0.0980392157
v 3.6082958033696806 41.378662271898285 -5.4880177747792835 0.0980392157 0.0980392157 0.0980392157
v -8.0663922563772221 39.775642907011083 -5.1126187524260436 0.0980392157 0.0980392157 0.0980392157
v -7.2556001819926541 42.326173758327087 0.24526348041517032 0.0980392157 0.0980392157 0.0980392157
v -8.0663922563772221 39.775642907011083 -5.1126187524260436 0.0980392157 0.0980392157 0.0980392157
v -11.403855285885797 34.937339849929025 0.81052731027162861 0.0980392157 0.0980392157 0.0980392157
v -13.435578799222846 11.965039936075389 5.1654371228855229 0.0980392157 0.0980392157 0.0980392157
v -12.334314749887664 13.12023079193561 -5.1970410144838777 0.0980392157 0.0980392157 0.0980392157
v -13.435578799222846 11.965039936075389 5.1654371228855229 0.0980392157 0.0980392157 0.0980392157
v -14.298353237726927 -3.6106612151143045 4.561356288197973 0.0980392157 0.0980392157 0.0980392157
v -11.2398372184763 7.6741331668568105 5.2463298986612275 0.0980392157 0.0980392157 0.0980392157
v -12.259504999833299 -5.915817923523381 3.845933932604316 0.0980392157 0.0980392157 0.0980392157
v -14.298353237726927 -3.6106612151143045 4.561356288197973 0.0980392157 0.0980392157 0.0980392157
v -14.298353237726927 -3.6106612151143045 4.561356288197973 0.0980392157 0.0980392157 0.0980392157
v -14.298353237726927 -3.6106612151143045 4.561356288197973 0.0980392157 0.0980392157 0.0980392157
v -14.327003685966693 -2.8575552676236642 -4.3413145251577854 0.0980392157 0.0980392157 0.0980392157
v 7.3274760926253046 36.386235695230809 0.97434542009233249 0.0980392157 0.0980392157 0.0980392157
v 11.229219286660097 32.9310656853295 -0.59638067900383207 0.0980392157 0.0980392157 0.0980392157
v 13.73476103259326 30.311735711272647 2.1057958958468865 0.0980392157 0.0980392157 0.0980392157
v 12.151869507704541 23.90371596066738 -5.0289203807386977 0.0980392157 0.0980392157 0.0980392157
v 11.362873429989223 24.109487371000569 6.7816195044438548 0.0980392157 0.0980392157 0.0980392157
v 11.229219286660097 32.9310656853295 -0.59638067900383207 0.0980392157 0.0980392157 0.0980392157
v 7.8042081274172901 25.58946645026327 5.1892870616464792 0.0980392157 0.0980392157 0.0980392157
v 11.362873429989223 24.109487371000569 6.7816195044438548 0.0980392157 0.0980392157 0.0980392157
v 12.151869507704541 23.90371596066738 -5.0289203807386977 0.0980392157 0.0980392157 0.0980392157
v 7.8042081274172901 25.58946645026327 5.1892870616464792 0.0980392157 0.0980392157 0.0980392157
v 12.151869507704541 23.90371596066738 -5.0289203807386977 0.0980392157 0.0980392157 0.0980392157
v 7.3303523561512289 20.803040731861476 1.4083384262275958 0.0980392157 0.0980392157 0.0980392157
v 7.8042081274172901 25.58946645026327 5.1892870616464792 0.0980392157 0.0980392157 0.0980392157
v 5.1487080978908564 28.410530503563908 -0.82031364522032502 0.0980392157 0.0980392157 0.0980392157
v 11.229219286660097 32.9310656853295 -0.59638067900383207 0.0980392157 0.0980392157 0.0980392157
v 12.649429551936459 14.520458698986602 5.4252301898983113 0.0980392157 0.0980392157 0.0980392157
v 9.0871627004081947 -3.5203171108379614 6.3844143859113789 0.0980392157 0.0980392157 0.0980392157
v 7.8042081274172901 25.58946645026327 5.1892870616464792 0.0980392157 0.0980392157 0.0980392157
v 7.3303523561512289 20.803040731861476 1.4083384262275958 0.0980392157 0.0980392157 0.0980392157
v 5.1487080978908564 28.410530503563908 -0.82031364522032502 0.0980392157 0.0980392157 0.0980392157
v 9.5964082801113282 -7.077192674898436 -0.38079158130888396 0.0980392157 0.0980392157 0.0980392157
v 9.0871627004081947 -3.5203171108379614 6.3844143859113789 0.0980392157 0.0980392157 0.0980392157
v 6.0721089582101264 7.5867805463307922 5.0098958695034375 0.0980392157 0.0980392157 0.0980392157
v 5.0636283104121063 40.843271747699355 5.027616348694508 0.0980392157 0.0980392157 0.0980392157
v 2.0329268621909637 37.750484966820629 0.6032831648882836 0.0980392157 0.0980392157 0.0980392157
v -0.36467915877563678 42.286447491812936 -0.35714246319153359 0.0980392157 0.0980392157 0.0980392157
v 9.0871627004081947 -3.5203171108379614 6.3844143859113789 0.0980392157 0.0980392157 0.0980392157
v 9.5964082801113282 -7.077192674898436 -0.38079158130888396 0.0980392157 0.0980392157 0.0980392157
v 14.615030990906135 0.12726841441227857 0.12732052893813078 0.0980392157 0.0980392157 0.0980392157
v 5.0636283104121063 40.843271747699355 5.027616348694508 0.0980392157 0.0980392157 0.0980392157
v 7.3274760926253046 36.386235695230809 0.97434542009233249 0.0980392157 0.0980392157 0.0980392157
v 2.0329268621909637 37.750484966820629 0.6032831648882836 0.0980392157 0.0980392157 0.0980392157
v 7.6440995636112916 6.8305558822508452 -5.2147979124072066 0.0980392157 0.0980392157 0.0980392157
v 6.0721089582101264 7.5867805463307922 5.0098958695034375 0.0980392157 0.0980392157 0.0980392157
v 3.1210221509766529 10.03991649061104 -0.046304350547651293 0.0980392157 0.0980392157 0.0980392157
v -7.7023304652687914 40.000543998069389 5.2291892881131492 0.0980392157 0.0980392157 0.0980392157
v 11.362873429989223 24.109487371000569 6.7816195044438548 0.0980392157 0.0980392157 0.0980392157
v 11.229219286660097 32.9310656853295 -0.59638067900383207 0.0980392157 0.0980392157 0.0980392157
v 7.8042081274172901 25.58946645026327 5.1892870616464792 0.0980392157 0.0980392157 0.0980392157
v 7.3274760926253046 36.386235695230809 0.97434542009233249 0.0980392157 0.0980392157 0.0980392157
v 5.0636283104121063 40.843271747699355 5.027616348694508 0.0980392157 0.0980392157 0.0980392157
v 11.229219286660097 32.9310656853295 -0.59638067900383207 0.0980392157 0.0980392157 0.0980392157
v 7.3274760926253046 36.386235695230809 0.97434542009233249 0.0980392157 0.0980392157 0.0980392157
v 7.8042081274172901 25.58946645026327 5.1892870616464792 0.0980392157 0.0980392157 0.0980392157
v -7.7023304652687914 40.000543998069389 5.2291892881131492 0.0980392157 0.0980392157 0.0980392157
v 5.0636283104121063 40.843271747699355 5.027616348694508 0.0980392157 0.0980392157 0.0980392157
v -11.2398372184763 7.6741331668568105 5.2463298986612275 0.0980392157 0.0980392157 0.0980392157
v -7.5884394930491421 9.5378026650205534 -3.5625941703067117 0.0980392157 0.0980392157 0.0980392157
v 6.0721089582101264 7.5867805463307922 5.0098958695034375 0.0980392157 0.0980392157 0.0980392157
v 4.3860510218313635 12.421784363506283 5.2408053451236469 0.0980392157 0.0980392157 0.0980392157
v -8.1908400304539768 25.399245635775408 5.2193534390098932 0.0980392157 0.0980392157 0.0980392157
v -11.403855285885797 34.937339849929025 0.81052731027162861 0.0980392157 0.0980392157 0.0980392157
v -14.223431138079791 31.14298287364657 1.1175736111776027 0.0980392157 0.0980392157 0.0980392157
v -7.7023304652687914 40.000543998069389 5.2291892881131492 0.0980392157 0.0980392157 0.0980392157
v -11.403855285885797 34.937339849929025 0.81052731027162861 0.0980392157 0.0980392157 0.0980392157
v -8.1908400304539768 25.399245635775408 5.2193534390098932 0.0980392157 0.0980392157 0.0980392157
v -11.832145440148015 23.68776726404954 7.2749948068415105 0.0980392157 0.0980392157 0.0980392157
v -8.1908400304539768 25.399245635775408 5.2193534390098932 0.0980392157 0.0980392157 0.0980392157
v -14.223431138079791 31.14298287364657 1.1175736111776027 0.0980392157 0.0980392157 0.0980392157
v 11.362873429989223 24.109487371000569 6.7816195044438548 0.0980392157 0.0980392157 0.0980392157
v 12.649429551936459 14.520458698986602 5.4252301898983113 0.0980392157 0.0980392157 0.0980392157
v 11.744969067675134 4.2086492868405374 4.0750463265856025 0.0980392157 0.0980392157 0.0980392157
v 12.649429551936459 14.520458698986602 5.4252301898983113 0.0980392157 0.0980392157 0.0980392157
v 9.0871627004081947 -3.5203171108379614 6.3844143859113789 0.0980392157 0.0980392157 0.0980392157
v -8.1908400304539768 25.399245635775408 5.2193534390098932 0.0980392157 0.0980392157 0.0980392157
v 11.362873429989223 24.109487371000569 6.7816195044438548 0.0980392157 0.0980392157 0.0980392157
v 7.8042081274172901 25.58946645026327 5.1892870616464792 0.0980392157 0.0980392157 0.0980392157
v 11.362873429989223 24.109487371000569 6.7816195044438548 0.0980392157 0.0980392157 0.0980392157
v -8.1908400304539768 25.399245635775408 5.2193534390098932 0.0980392157 0.0980392157 0.0980392157
v -11.832145440148015 23.68776726404954 7.2749948068415105 0.0980392157 0.0980392157 0.0980392157
v 6.0721089582101264 7.5867805463307922 5.0098958695034375 0.0980392157 0.0980392157 0.0980392157
v 12.649429551936459 14.520458698986602 5.4252301898983113 0.0980392157 0.0980392157 0.0980392157
v 7.800169259650346 14.246469522770367 8.1878814862804514 0.0980392157 0.0980392157 0.0980392157
v 6.0721089582101264 7.5867805463307922 5.0098958695034375 0.0980392157 0.0980392157 0.0980392157
v 7.800169259650346 14.246469522770367 8.1878814862804514 0.0980392157 0.0980392157 0.0980392157
v 4.3860510218313635 12.421784363506283 5.2408053451236469 0.0980392157 0.0980392157 0.0980392157
v -8.4041441024445902 13.577408745406601 8.4106914177438465 0.0980392157 0.0980392157 0.0980392157
v -13.435578799222846 11.965039936075389 5.1654371228855229 0.0980392157 0.0980392157 0.0980392157
v 4.3860510218313635 12.421784363506283 5.2408053451236469 0.0980392157 0.0980392157 0.0980392157
v 7.800169259650346 14.246469522770367 8.1878814862804514 0.0980392157 0.0980392157 0.0980392157
v 7.800169259650346 14.246469522770367 8.1878814862804514 0.0980392157 0.0980392157 0.0980392157
v 11.362873429989223 24.109487371000569 6.7816195044438548 0.0980392157 0.0980392157 0.0980392157
v -8.4041441024445902 13.577408745406601 8.4106914177438465 0.0980392157 0.0980392157 0.0980392157
v 1.0019132639007688 22.730161924543847 8.4563649127924592 0.0980392157 0.0980392157 0.0980392157
v -11.832145440148015 23.68776726404954 7.2749948068415105 0.0980392157 0.0980392157 0.0980392157
v -12.259504999833299 -5.915817923523381 3.845933932604316 0.0980392157 0.0980392157 0.0980392157
v -10.424712580672482 -5.266487238055837 -10.148722788867182 0.0980392157 0.0980392157 0.0980392157
v 5.0636283104121063 40.843271747699355 5.027616348694508 0.0980392157 0.0980392157 0.0980392157
v -7.7023304652687914 40.000543998069389 5.2291892881131492 0.0980392157 0.0980392157 0.0980392157
v 1.0019132639007688 22.730161924543847 8.4563649127924592 0.0980392157 0.0980392157 0.0980392157
v -13.435578799222846 11.965039936075389 5.1654371228855229 0.0980392157 0.0980392157 0.0980392157
v -10.424712580672482 -5.266487238055837 -10.148722788867182 0.0980392157 0.0980392157 0.0980392157
v 5.1680191395219701 24.605665377419434 -10.088396288665445 0.0980392157 0.0980392157 0.0980392157
v 7.6440995636112916 6.8305558822508452 -5.2147979124072066 0.0980392157 0.0980392157 0.0980392157
v 6.0700546941729456 -1.3663415824419962 -10.307405660836146 0.0980392157 0.0980392157 0.0980392157
v 9.123769637951515 23.683961242469607 -9.0809602760160359 0.0980392157 0.0980392157 0.0980392157
v 5.1680191395219701 24.605665377419434 -10.088396288665445 0.0980392157 0.0980392157 0.0980392157
v 7.2153817140990126 23.571895486542452 -5.1369087760877488 0.0980392157 0.0980392157 0.0980392157
v 9.123769637951515 23.683961242469607 -9.0809602760160359 0.0980392157 0.0980392157 0.0980392157
v 7.6440995636112916 6.8305558822508452 -5.2147979124072066 0.0980392157 0.0980392157 0.0980392157
v -13.435578799222846 11.965039936075389 5.1654371228855229 0.0980392157 0.0980392157 0.0980392157
v -12.334314749887664 13.12023079193561 -5.1970410144838777 0.0980392157 0.0980392157 0.0980392157
v -8.5615325750321301 21.959551200505899 -5.3333197627030922 0.0980392157 0.0980392157 0.0980392157
v 11.446647600055805 5.6548944344815615 -4.3874455552691654 0.0980392157 0.0980392157 0.0980392157
v 13.00842743106047 31.88085717303791 -6.0146630441358582 0.0980392157 0.0980392157 0.0980392157
v -11.120721024690932 32.135936855137444 -9.2293183708920807 0.0980392157 0.0980392157 0.0980392157
v -13.435578799222846 11.965039936075389 5.1654371228855229 0.0980392157 0.0980392157 0.0980392157
v 3.6082958033696806 41.378662271898285 -5.4880177747792835 0.0980392157 0.0980392157 0.0980392157
v -8.1908400304539768 25.399245635775408 5.2193534390098932 0.0980392157 0.0980392157 0.0980392157
vn 0.022474788129329681 0.038570046424865723 -0.99900311231613159
vn 0.36078691482543945 0.047067396342754364 -0.93145984411239624
vn 0.31466758251190186 0.037330407649278641 -0.94846755266189575
vn 0.9021446704864502 0.050454944372177124 -0.42847323417663574
vn 0.40752401947975159 0.052698086947202682 -0.91167271137237549
vn 0.0025870152749121189 0.99874067306518555 0.05010392889380455
vn 0.017825353890657425 0.99819815158843994 -0.057294756174087524
vn 0.0011002145474776626 0.99855238199234009 0.053777080029249191
vn -0.072563581168651581 -0.99624729156494141 -0.047178782522678375
vn -0.035537455230951309 -0.99806469678878784 -0.051029019057750702
vn 0.40550646185874939 -0.91300183534622192 0.044633354991674423
vn -0.31147772073745728 0.020802577957510948 -0.95002573728561401
vn 0.0060891718603670597 0.0068220542743802071 -0.99995821714401245
vn -0.00079066382022574544 -0.90337139368057251 0.42885836958885193
vn -0.020036123692989349 -0.90048885345458984 0.43441727757453918
vn 0.14170257747173309 -0.80361032485961914 0.5780404806137085
vn -0.42240872979164124 0.04279964417219162 -0.90539443492889404
vn 0.0088515691459178925 0.99962526559829712 0.025902967900037766
vn -0.078884832561016083 -0.99675732851028442 0.015873918309807777
vn -0.95262187719345093 -0.022456387057900429 -0.3033270537853241
vn -0.96185070276260376 0.018075330182909966 -0.27297717332839966
vn -0.96598237752914429 -0.034882139414548874 0.25624454021453857
vn -0.88300538063049316 -0.073617614805698395 0.46355363726615906
vn -0.97568577527999878 -0.10954906046390533 0.18983235955238342
vn 0.15232662856578827 0.96741098165512085 -0.20226861536502838
vn 0.040761221200227737 0.99906659126281738 0.014298136346042156
vn 0.98310303688049316 0.013563645072281361 -0.18254993855953217
vn 0.94310498237609863 0.05745832622051239 -0.32749274373054504
vn 0.7157135009765625 -0.68180173635482788 0.1513291597366333
vn 0.74492132663726807 -0.62371140718460083 0.23680438101291656
vn 0.78020107746124268 -0.52240616083145142 0.3440612256526947
vn -0.99657642841339111 -0.064219310879707336 -0.052070189267396927
vn -0.99965792894363403 -0.023181242868304253 -0.012108961120247841
vn -0.97296547889709473 -0.17052723467350006 -0.15575192868709564
vn -0.1626589298248291 -0.023637337610125542 0.98639917373657227
vn -0.2248867005109787 -0.024863846600055695 0.97406762838363647
vn -0.30100616812705994 -0.042251616716384888 0.95268571376800537
vn -0.22109854221343994 -0.039152402430772781 0.97446525096893311
vn 0.99540090560913086 0.039128758013248444 0.087441496551036835
vn 0.99459576606750488 0.044827785342931747 0.093646660447120667
vn 0.98638725280761719 0.104648157954216 0.12684226036071777
vn -0.086608618497848511 0.99624180793762207 0.0010980813531205058
vn -0.088623709976673126 0.99606513977050781 -0.00024588443920947611
vn -0.086093492805957794 0.99628603458404541 0.0014415787300094962
vn 0.12699210643768311 -0.9912758469581604 0.035286560654640198
vn 0.11499236524105072 -0.99302315711975098 0.02610970102250576
vn 0.17378893494606018 -0.98220473527908325 0.071212857961654663
vn 0.032993271946907043 -0.030905112624168396 0.9989776611328125
vn -0.20205536484718323 -0.05147901177406311 0.97802019119262695
vn -0.30919992923736572 -0.064625486731529236 0.94879871606826782
vn -0.95624583959579468 -0.20462502539157867 -0.20909927785396576
vn -0.92057472467422485 -0.30156353116035461 -0.24819676578044891
vn -0.93731588125228882 0.01568923331797123 -0.3481275737285614
vn -0.94347304105758667 -0.041554547846317291 -0.32883411645889282
vn -0.84561461210250854 -0.44552519917488098 -0.29401224851608276
vn -0.84561461210250854 -0.44552519917488098 -0.29401224851608276
vn -0.84561461210250854 -0.44552519917488098 -0.29401224851608276
vn -0.13090118765830994 -0.38941237330436707 0.91171425580978394
vn -0.23755018413066864 -0.39875426888465881 0.8857567310333252
vn -0.18622499704360962 -0.38223382830619812 0.90510636568069458
vn -0.13901175558567047 -0.008041059598326683 0.99025809764862061
vn -0.14820808172225952 -0.035468969494104385 0.98831993341445923
vn 0.020580625161528587 -0.022182291373610497 0.99954205751419067
vn -0.23485584557056427 -0.050727136433124542 0.97070568799972534
vn 0.092640601098537445 -0.99532133340835571 -0.027444707229733467
vn 0.092640601098537445 -0.99532133340835571 -0.027444707229733467
vn 0.092640601098537445 -0.99532133340835571 -0.027444707229733467
vn 0.26513069868087769 0.023281790316104889 0.9639313817024231
vn -0.18099924921989441 0.5274055004119873 0.83011007308959961
vn -0.12415833026170731 0.52046257257461548 0.84480971097946167
vn -0.32931354641914368 0.5368693470954895 0.77673929929733276
vn -0.56396961212158203 -0.12463437020778656 0.81633609533309937
vn -0.56205886602401733 -0.015124678611755371 0.82695895433425903
vn -0.46549582481384277 0.25216898322105408 0.84836572408676147
vn 0.47333472967147827 -0.38680297136306763 0.79141497611999512
vn 0.45894578099250793 -0.50139397382736206 0.73346632719039917
vn 0.45874059200286865 0.2091994434595108 0.86359286308288574
vn -0.97536766529083252 -0.084472402930259705 -0.20377020537853241
vn -0.87780410051345825 0.040846928954124451 -0.47727510333061218
vn -0.96461498737335205 0.043631646782159805 -0.26002725958824158
vn 0.96289592981338501 0.062575303018093109 -0.26251816749572754
vn 0.97243624925613403 0.022771202027797699 -0.23205427825450897
vn 0.98273533582687378 0.047219492495059967 -0.17888987064361572
vn -0.91824543476104736 -0.032548580318689346 0.39467194676399231
vn -0.84705018997192383 0.033776801079511642 0.53043860197067261
vn -0.91821420192718506 -0.064117595553398132 0.39086011052131653
vn 0.22688551247119904 0.97392112016677856 -0.00079974462278187275
vn 0.22688551247119904 0.97392112016677856 -0.00079974462278187275
vn 0.22688551247119904 0.97392112016677856 -0.00079974462278187275
vn -0.070089817047119141 0.92158776521682739 -0.38178977370262146
vn -0.14019235968589783 0.96203017234802246 -0.23418806493282318
vn -0.18247903883457184 0.93507331609725952 -0.30387380719184875
vn 0.49601113796234131 -0.86740005016326904 -0.039876274764537811
vn 0.49601113796234131 -0.86740005016326904 -0.039876274764537811
vn 0.49601113796234131 -0.86740005016326904 -0.039876274764537811
vn 0.060224972665309906 -0.99767917394638062 -0.031767789274454117
vn 0.029002431780099869 -0.99841213226318359 -0.048291195183992386
vn 0.097294047474861145 -0.99517405033111572 -0.012748257257044315
vn 0.81441551446914673 -0.00032353846472688019 -0.58028203248977661
vn 0.917560875415802 0.07466762512922287 -0.39052119851112366
vn 0.84176731109619141 0.058439578860998154 -0.53666800260543823
vn -0.048153042793273926 0.99881726503372192 -0.0067343045957386494
vn -0.083670169115066528 0.99648380279541016 -0.0044002598151564598
vn 0.92649435997009277 0.11782864481210709 -0.35738572478294373
vn 0.19580401480197906 -0.005988734308630228 0.9806247353553772
vn 0.2229384183883667 -0.034804970026016235 0.97421097755432129
vn 0.20382343232631683 -0.040909033268690109 0.9781525731086731
vn 0.22484764456748962 -0.037281624972820282 0.97368043661117554
vn -0.31929689645767212 0.94508248567581177 -0.069775477051734924
vn -0.29661718010902405 0.95151013135910034 -0.081527486443519592
vn -0.1963714212179184 0.98049640655517578 0.008068818598985672
vn 0.96818780899047852 0.032316692173480988 0.24812896549701691
vn 0.99865663051605225 0.01048777811229229 -0.050743669271469116
vn 0.95426863431930542 0.068425245583057404 0.29101437330245972
vn -0.14608529210090637 -0.98771661520004272 -0.055452741682529449
vn -0.14608529210090637 -0.98771661520004272 -0.055452741682529449
vn -0.14608529210090637 -0.98771661520004272 -0.055452741682529449
vn -0.6169513463973999 -0.78380507230758667 -0.07085602730512619
vn -0.6169513463973999 -0.78380507230758667 -0.07085602730512619
vn -0.6169513463973999 -0.78380507230758667 -0.07085602730512619
vn 0.99958860874176025 -0.0048211240209639072 -0.028273381292819977
vn 0.99789559841156006 -0.0017812778241932392 0.064816318452358246
vn 0.96763718128204346 0.084525249898433685 -0.23776836693286896
vn 0.93224334716796875 0.18469642102718353 -0.31114229559898376
vn 0.89128953218460083 0.20726627111434937 -0.40329107642173767
vn 0.079033099114894867 -0.0052461223676800728 0.99685817956924438
vn 0.13019418716430664 0.12788856029510498 0.98320597410202026
vn 0.15032367408275604 0.047647938132286072 0.98748797178268433
vn 0.09621737152338028 0.013203581795096397 0.99527275562286377
vn 0.002035229466855526 0.00056671933270990849 -0.99999779462814331
vn 0.010638550855219364 0.0017524829600006342 -0.99994188547134399
vn -0.0064313528127968311 -0.00058936426648870111 -0.99997913837432861
vn 0.0014162053121253848 0.00054021540563553572 -0.99999886751174927
vn 0.0079256687313318253 0.0072271116077899933 -0.99994248151779175
vn 0.40357473492622375 -0.37630242109298706 -0.8339807391166687
vn 0.18300217390060425 -0.97986429929733276 -0.079850673675537109
vn 0.080349847674369812 -0.6168704628944397 -0.78295254707336426
vn -0.99680233001708984 -0.078364335000514984 -0.015623608604073524
vn -0.97273987531661987 0.0012977910228073597 -0.23189538717269897
vn -0.98929762840270996 -0.066114731132984161 -0.13007320463657379
vn -0.014837035909295082 -0.029516564682126045 -0.99945414066314697
vn -0.050450399518013 0.0050796382129192352 -0.99871367216110229
vn 0.035230942070484161 0.0037304863799363375 -0.99937224388122559
vn 0.021160850301384926 0.92484128475189209 0.37976419925689697
vn -0.81599664688110352 -0.13174645602703094 -0.56284314393997192
vn -0.81030845642089844 -0.046314779669046402 -0.58417046070098877
vn -0.86749476194381714 -0.00044870175770483911 -0.49744614958763123
vn -0.24327902495861053 0.91934961080551147 -0.30921119451522827
vn -0.24327902495861053 0.91934961080551147 -0.30921119451522827
vn -0.24327902495861053 0.91934961080551147 -0.30921119451522827
vn -0.99918293952941895 -0.0019579371437430382 0.040368352085351944
vn 0.99802380800247192 -0.028213838115334511 0.056146837770938873
vn 0.99671322107315063 -0.042466200888156891 -0.068988487124443054
vn -0.90906333923339844 -0.10551825910806656 -0.40307539701461792
vn -0.92962902784347534 0.021263282746076584 -0.36788275837898254
vn -0.91897445917129517 -0.084739640355110168 -0.38510403037071228
vn -0.99823105335235596 0.059338219463825226 -0.0037054310087114573
vn -0.99984920024871826 0.010917896404862404 -0.013506862334907055
vn 0.49036863446235657 0.87129276990890503 -0.019686523824930191
vn -0.042088102549314499 0.79481381177902222 0.60539215803146362
vn 0.35807821154594421 0.93244022130966187 -0.048324394971132278
vn 0.18537938594818115 0.55528140068054199 -0.81073856353759766
vn 0.43012738227844238 0.2260783463716507 -0.87400174140930176
vn 0.19316448271274567 0.48198065161705017 -0.85462397336959839
vn -0.11646527051925659 0.73136639595031738 0.671966552734375
vn -0.11646527051925659 0.73136639595031738 0.671966552734375
vn -0.11646527051925659 0.73136639595031738 0.671966552734375
vn 0.40379083156585693 0.036782503128051758 -0.91411161422729492
vn 0.97760719060897827 0.073935322463512421 0.1970222145318985
vn 0.99872291088104248 0.023534452542662621 -0.044706951826810837
vn 0.79851841926574707 0.40881946682929993 0.44185405969619751
vn 0.90896761417388916 0.41679477691650391 0.0077437381260097027
vn 0.81559348106384277 -0.011206043884158134 -0.57851684093475342
vn 0.8350445032119751 -0.24758927524089813 -0.49132496118545532
vn 0.78530263900756836 -0.61186766624450684 -0.094433821737766266
vn 0.70567923784255981 -0.19709143042564392 -0.68056726455688477
vn 0.70567923784255981 -0.19709143042564392 -0.68056726455688477
vn 0.70567923784255981 -0.19709143042564392 -0.68056726455688477
vn -0.028627503663301468 0.93810522556304932 0.3451651930809021
vn -0.080697864294052124 0.90857189893722534 0.40985968708992004
vn -0.10399778932332993 0.94474369287490845 0.31087586283683777
vn 0.76144027709960938 0.42817181348800659 0.48670071363449097
vn 0.75178819894790649 0.43341442942619324 0.49695718288421631
vn 0.68351006507873535 0.54325509071350098 0.48753249645233154
vn -0.0047408384270966053 -0.010772554203867912 -0.999930739402771
vn -0.01508224755525589 0.0089244646951556206 -0.99984639883041382
vn -0.56622022390365601 0.032084543257951736 -0.82362931966781616
vn -0.22452348470687866 0.041866779327392578 -0.97356891632080078
vn 0.054821450263261795 0.010847488418221474 -0.99843722581863403
vn 0.058297600597143173 -0.018221503123641014 -0.99813294410705566
vn 0.5247538685798645 -0.84996116161346436 -0.046898305416107178
vn 0.5247538685798645 -0.84996116161346436 -0.046898305416107178
vn 0.5247538685798645 -0.84996116161346436 -0.046898305416107178
vn 0.77550113201141357 -0.60794645547866821 0.17029128968715668
vn 0.77550113201141357 -0.60794645547866821 0.17029128968715668
vn 0.77550113201141357 -0.60794645547866821 0.17029128968715668
vn 0.090323425829410553 -0.07320278137922287 0.99321854114532471
vn 0.3348386287689209 -0.0046609877608716488 0.94226396083831787
vn 0.36408382654190063 0.011270296759903431 0.93129795789718628
vn 0.99752253293991089 0.04437502846121788 0.054586004465818405
vn 0.943511962890625 0.21495690941810608 0.25214812159538269
vn 0.99941843748092651 -0.01988619938492775 -0.027701662853360176
vn -0.0063572060316801071 0.99980425834655762 -0.018734904006123543
vn 0.020089318975806236 0.9978100061416626 -0.063020899891853333
vn -0.077265962958335876 0.99681740999221802 -0.019621128216385841
vn -0.20562754571437836 0.95513242483139038 -0.21316507458686829
vn -0.30336928367614746 0.82065731287002563 -0.48424029350280762
vn -0.22843305766582489 0.77914178371429443 -0.58374345302581787
vn -0.95224040746688843 0.29467809200286865 0.080019183456897736
vn -0.88159936666488647 0.41535049676895142 -0.2242019921541214
vn -0.85520583391189575 0.51150882244110107 0.083556614816188812
vn -0.88779056072235107 0.45974671840667725 0.021468881517648697
vn -0.91110265254974365 0.41217952966690063 0.00022226131113711745
vn -0.2530161440372467 -0.016950339078903198 0.96731352806091309
vn -0.54625743627548218 0.27360174059867859 0.7916722297668457
vn -0.083677381277084351 0.031153004616498947 0.9960058331489563
vn -0.53441041707992554 -0.63292622566223145 0.56018745899200439
vn -0.57619392871856689 -0.31297478079795837 0.75501483678817749
vn -0.99997913837432861 0.0030551913660019636 0.0056883636862039566
vn -0.48453497886657715 -0.79488366842269897 0.36522021889686584
vn -0.50934576988220215 -0.77028346061706543 -0.38370591402053833
vn 0.37086233496665955 0.39400830864906311 0.84096288681030273
vn 0.37086233496665955 0.39400830864906311 0.84096288681030273
vn 0.37086233496665955 0.39400830864906311 0.84096288681030273
vn -0.99896329641342163 -0.0068384665064513683 0.045006360858678818
vn -0.99226003885269165 0.037788301706314087 -0.11828804761171341
vn -0.99980926513671875 0.010409359820187092 0.016524948179721832
vn -0.05561118945479393 0.99845010042190552 -0.0022008409723639488
vn -0.059052057564258575 0.99822086095809937 -0.008242839016020298
vn -0.05146496370434761 0.99866175651550293 0.0051100971177220345
vn -0.68743443489074707 0.34461134672164917 -0.63927841186523438
vn -0.68743443489074707 0.34461134672164917 -0.63927841186523438
vn -0.68743443489074707 0.34461134672164917 -0.63927841186523438
vn 0.71502125263214111 -0.52782899141311646 -0.4584115743637085
vn 0.71502125263214111 -0.52782899141311646 -0.4584115743637085
vn 0.71502125263214111 -0.52782899141311646 -0.4584115743637085
vn 0.99803483486175537 0.020463166758418083 0.059225596487522125
vn 0.82359755039215088 -0.20644333958625793 0.52826905250549316
vn 0.68727117776870728 0.0041721882298588753 -0.72638899087905884
vn 0.6866600513458252 0.00095931463874876499 -0.72697806358337402
vn 0.69244825839996338 0.0039270911365747452 -0.72145682573318481
vn -0.99726712703704834 -0.07378290593624115 0.0037912135012447834
vn -0.95814341306686401 -0.15730838477611542 0.23919723927974701
vn -0.94591414928436279 0.22602520883083344 0.23272091150283813
vn 0.89808595180511475 0.2494511604309082 -0.36223712563514709
vn 0.92177510261535645 0.11193251609802246 -0.37121656537055969
vn 0.81874799728393555 0.46899616718292236 -0.33120131492614746
vn 0.70742088556289673 -0.46411222219467163 0.53306245803833008
vn 0.79575240612030029 -0.59473973512649536 0.11429225653409958
vn 0.95021438598632812 -0.30129924416542053 -0.079444423317909241
vn 0.33971971273422241 0.54055178165435791 -0.76967149972915649
vn 0.38629311323165894 0.55466407537460327 -0.73697042465209961
vn 0.13609561324119568 0.54449385404586792 -0.82764995098114014
vn -0.54158848524093628 -0.84059691429138184 0.0088775288313627243
vn -0.20776599645614624 -0.85334771871566772 -0.47815370559692383
vn -0.042410019785165787 -0.98516935110092163 -0.16626106202602386
vn -0.80881363153457642 0.46161791682243347 0.36432045698165894
vn -0.42816099524497986 0.74944800138473511 0.50498110055923462
vn 0.12039050459861755 0.84013009071350098 0.52885490655899048
vn 0.85704129934310913 -0.37159520387649536 -0.35692745447158813
vn 0.96047753095626831 -0.12758974730968475 -0.24739404022693634
vn 0.88107359409332275 0.35741657018661499 0.30977857112884521
vn 0.60301131010055542 0.49514672160148621 0.62546545267105103
vn 0.49997186660766602 0.44908586144447327 0.74050658941268921
vn 0.41901388764381409 0.21927809715270996 0.88110411167144775
vn -0.12965300679206848 0.74345922470092773 0.65609335899353027
vn 0.061305735260248184 0.80033165216445923 0.59641504287719727
vn 0.037354122847318649 -0.92162549495697021 -0.38627851009368896
vn 0.0285055972635746 -0.95610505342483521 0.29163432121276855
vn 0.01143299974501133 0.043851606547832489 0.99897265434265137
vn 0.00011089083272963762 2.0085344658582471E-05 1
vn -0.25615227222442627 4.7521083615720272E-05 0.96663641929626465
vn -0.25615227222442627 4.7521083615720272E-05 0.96663641929626465
vn -0.25615227222442627 4.7521083615720272E-05 0.96663641929626465
vn -0.96371406316757202 0.2117592990398407 0.16252133250236511
vn -0.88048762083053589 -0.37775024771690369 -0.28643718361854553
vn -0.99978029727935791 0.016862083226442337 0.012449091300368309
vn -0.054023493081331253 0.78403753042221069 0.61835801601409912
vn -0.054023493081331253 0.78403753042221069 0.61835801601409912
vn -0.054023493081331253 0.78403753042221069 0.61835801601409912
vn 0.84353089332580566 -0.18569236993789673 0.50395828485488892
vn 0.87362152338027954 0.042563598603010178 0.48474094271659851
vn 0.45585772395133972 0.15696290135383606 0.8761029839515686
vn 0.56199401617050171 -0.089222326874732971 0.82231509685516357
vn 0.15197986364364624 -0.34394264221191406 0.92660975456237793
vn 0.14134868979454041 0.013700314797461033 0.98986506462097168
vn -0.34789687395095825 -0.047805428504943848 0.9363132119178772
vn -0.023252574726939201 -0.00072254700353369117 0.99972933530807495
vn 0.055233240127563477 0.61822468042373657 0.7840583324432373
vn -0.079205155372619629 0.86710339784622192 0.49179083108901978
vn -0.097746275365352631 0.88526809215545654 0.45469334721565247
vn 0.044570092111825943 -0.37243273854255676 0.92698830366134644
vn 0.22736608982086182 -0.3525734543800354 0.90774261951446533
vn 0.12468868494033813 -0.42977496981620789 0.89428532123565674
vn -0.54090029001235962 -0.04732266440987587 0.83975440263748169
vn -0.54090029001235962 -0.04732266440987587 0.83975440263748169
vn -0.54090029001235962 -0.04732266440987587 0.83975440263748169
vn -0.060999158769845963 -0.80881756544113159 0.58488732576370239
vn -0.041997026652097702 -0.65784311294555664 0.7519831657409668
vn 0.090032905340194702 -0.92804300785064697 0.36142814159393311
vn 0.19868470728397369 -0.93103080987930298 0.30611434578895569
vn 0.13872809708118439 0.028037829324603081 0.9899335503578186
vn 0.43115803599357605 0.013744041323661804 0.90217173099517822
vn -0.13234159350395203 0.020666833966970444 0.99098867177963257
vn 0.01033835019916296 0.016210466623306274 0.99981516599655151
vn -0.43653383851051331 0.0065594739280641079 0.89966392517089844
vn -0.81694042682647705 -0.33807060122489929 -0.46724364161491394
vn -0.74717253446578979 -0.65097016096115112 0.13405601680278778
vn -0.0013814534759148955 -0.00010642643610481173 0.99999904632568359
vn -0.015126108191907406 0.0049174479208886623 0.99987351894378662
vn 0.0060461768880486488 0.7551237940788269 0.65555435419082642
vn -0.9499470591545105 -0.019510624930262566 0.31180110573768616
vn -0.17847217619419098 0.045012861490249634 -0.98291480541229248
vn 0.4863455593585968 0.092890806496143341 0.86881488561630249
vn -0.90603166818618774 0.11230464279651642 -0.40803706645965576
vn -0.082218348979949951 0.99660623073577881 0.0040249046869575977
vn -0.23950269818305969 -0.060480620712041855 0.9690101146697998
vn -0.065593160688877106 0.99750912189483643 0.025942923501133919
vn -0.14225089550018311 0.98924654722213745 -0.033999968320131302
vn -0.11489513516426086 0.99329864978790283 -0.01252416055649519
vn -0.64941263198852539 -0.67261666059494019 0.3547535240650177
vn -0.81106525659561157 -0.58391278982162476 0.034913867712020874
vn -0.94271272420883179 -0.33320936560630798 0.016255270689725876
vn 0.026162119582295418 0.021038701757788658 -0.99943631887435913
vn 0.97802472114562988 0.14517898857593536 0.14963513612747192
vn -0.99754351377487183 -0.023075854405760765 0.066139794886112213
vn 0.31597104668617249 -0.10235409438610077 0.94323164224624634
vn -0.99991148710250854 -0.013301189057528973 -0.00030885342857800424
vn 0.062250964343547821 0.054820716381072998 -0.99655383825302124
vn 0.0024357808288186789 -0.00074768508784472942 0.99999678134918213
usemtl vc_191919__Default
f 1//1 2//2 3//3
f 4//4 3//3 5//5
f 6//6 7//7 8//8
f 9//9 10//10 11//11
f 12//12 1//1 13//13
f 14//14 15//15 16//16
f 1//1 12//12 17//17
f 18//18 6//6 8//8
f 19//19 10//10 9//9
f 20//20 17//17 12//12
f 20//20 21//21 17//17
f 22//22 23//23 24//24
f 25//25 26//26 7//7
f 27//27 4//4 28//28
f 29//29 30//30 31//31
f 32//32 33//33 34//34
f 35//35 36//36 37//37
f 38//38 37//37 36//36
f 39//39 40//40 41//41
f 42//42 43//43 44//44
f 45//45 46//46 47//47
f 48//48 49//49 50//50
f 51//51 52//52 53//53
f 54//54 51//51 53//53
f 55//55 56//56 57//57
f 58//58 59//59 60//60
f 61//61 35//35 37//37
f 62//62 63//63 64//64
f 65//65 66//66 67//67
f 68//68 49//49 48//48
f 69//69 70//70 71//71
f 72//72 73//73 74//74
f 75//75 76//76 77//77
f 78//78 79//79 80//80
f 81//81 82//82 83//83
f 84//84 85//85 86//86
f 87//87 88//88 89//89
f 90//90 91//91 92//92
f 93//93 94//94 95//95
f 96//96 97//97 98//98
f 99//99 100//100 101//101
f 102//102 103//103 18//18
f 100//100 104//104 101//101
f 63//63 105//105 106//106
f 63//63 106//106 107//107
f 106//106 105//105 108//108
f 109//109 110//110 111//111
f 112//112 113//113 114//114
f 115//115 116//116 117//117
f 118//118 119//119 120//120
f 121//121 27//27 122//122
f 123//123 124//124 125//125
f 126//126 127//127 128//128
f 129//129 126//126 128//128
f 130//130 131//131 132//132
f 132//132 133//133 134//134
f 135//135 136//136 137//137
f 138//138 139//139 140//140
f 141//141 142//142 134//134
f 141//141 143//143 142//142
f 144//144 103//103 102//102
f 145//145 146//146 147//147
f 148//148 149//149 150//150
f 151//151 21//21 20//20
f 152//152 153//153 113//113
f 154//154 155//155 156//156
f 157//157 155//155 158//158
f 159//159 160//160 161//161
f 162//162 163//163 164//164
f 165//165 166//166 167//167
f 168//168 143//143 141//141
f 169//169 123//123 170//170
f 169//169 171//171 172//172
f 173//173 174//174 123//123
f 175//175 174//174 173//173
f 176//176 177//177 178//178
f 179//179 180//180 181//181
f 182//182 183//183 184//184
f 186//186 329//329 131//131 185//185
f 187//187 142//142 188//188
f 189//189 190//190 188//188
f 191//191 192//192 193//193
f 194//194 195//195 196//196
f 197//197 198//198 199//199
f 200//200 201//201 202//202
f 203//203 204//204 205//205
f 206//206 207//207 208//208
f 209//209 210//210 211//211
f 212//212 213//213 157//157
f 214//214 215//215 216//216
f 217//217 216//216 218//218
f 219//219 157//157 158//158
f 220//220 221//221 217//217
f 222//222 223//223 224//224
f 225//225 226//226 227//227
f 228//228 229//229 230//230
f 231//231 232//232 233//233
f 234//234 235//235 236//236
f 169//169 170//170 237//237
f 238//238 171//171 169//169
f 239//239 240//240 241//241
f 242//242 243//243 244//244
f 245//245 246//246 247//247
f 248//248 249//249 250//250
f 251//251 252//252 253//253
f 254//254 255//255 256//256
f 257//257 209//209 211//211
f 258//258 160//160 259//259
f 260//260 261//261 262//262
f 263//263 264//264 265//265
f 266//266 267//267 205//205
f 268//268 269//269 256//256
f 270//270 271//271 216//216
f 272//272 273//273 274//274
f 275//275 276//276 277//277
f 278//278 279//279 280//280
f 281//281 282//282 122//122
f 270//270 283//283 284//284
f 285//285 283//283 270//270
f 286//286 287//287 288//288
f 289//289 290//290 291//291
f 292//292 293//293 294//294
f 295//295 296//296 297//297
f 298//298 299//299 300//300
f 301//301 298//298 300//300
f 302//302 282//282 303//303
f 304//304 305//305 306//306
f 27//27 121//121 4//4
f 307//307 24//24 308//308
f 267//267 203//203 205//205
f 61//61 105//105 63//63
f 113//113 112//112 152//152
f 310//310 330//330 288//288 309//309
f 289//289 291//291 311//311
f 305//305 302//302 303//303
f 62//62 61//61 63//63
f 306//306 151//151 312//312
f 1//1 3//3 13//13
f 12//12 13//13 313//313
f 77//77 76//76 314//314
f 315//315 140//140 139//139
f 42//42 44//44 316//316
f 49//49 317//317 50//50
f 318//318 319//319 320//320
f 143//143 188//188 142//142
f 256//256 269//269 321//321
f 322//322 20//20 323//323
f 268//268 256//256 255//255
f 305//305 304//304 302//302
f 271//271 214//214 216//216
f 312//312 304//304 306//306
f 132//132 324//324 130//130
f 39//39 41//41 325//325
f 225//225 227//227 326//326
f 327//327 68//68 48//48
f 121//121 122//122 282//282
f 131//131 133//133 132//132
f 157//157 219//219 328//328
f 133//133 141//141 134//134
f 151//151 20//20 312//312
