# Dual color encoding: per-vertex RGB for Rerun, face MTL colors for legacy RViz.
mtllib sim_gene01_r_hand_middle_1.mtl
# Rhino

g sim_gene01_r_hand_middle_1
v -3.9199491343848436 10.1836625709083 -4.1604049541274186 0.0980392157 0.0980392157 0.0980392157
v -5.5644979859739543 9.3745377403572832 -3.3262278770994378 0.0980392157 0.0980392157 0.0980392157
v -5.5151523898289483 9.3675217276544966 3.3643107975770197 0.0980392157 0.0980392157 0.0980392157
v -4.058574831217002 9.9661624561650157 4.4039627987941419 0.0980392157 0.0980392157 0.0980392157
v -4.058574831217002 9.9661624561650157 4.4039627987941419 0.0980392157 0.0980392157 0.0980392157
v -5.5151523898289483 9.3675217276544966 3.3643107975770197 0.0980392157 0.0980392157 0.0980392157
v -5.5042260623881374 7.6707226459886986 3.2695808224677974 0.0980392157 0.0980392157 0.0980392157
v -4.5092708836110651 6.7344862804755747 3.9457876843820565 0.0980392157 0.0980392157 0.0980392157
v -5.5042260623881374 7.6707226459886986 3.2695808224677974 0.0980392157 0.0980392157 0.0980392157
v -4.5092708836110651 6.7344862804755747 3.9457876843820565 0.0980392157 0.0980392157 0.0980392157
v -5.5042260623881374 7.6707226459886986 3.2695808224677974 0.0980392157 0.0980392157 0.0980392157
v -5.4062751386585033 7.7346617113451721 -3.3028188042862099 0.0980392157 0.0980392157 0.0980392157
v -5.5042260623881374 7.6707226459886986 3.2695808224677974 0.0980392157 0.0980392157 0.0980392157
v -5.5151523898289483 9.3675217276544966 3.3643107975770197 0.0980392157 0.0980392157 0.0980392157
v -5.5644979859739543 9.3745377403572832 -3.3262278770994378 0.0980392157 0.0980392157 0.0980392157
v -4.0184583681545831 7.959503680966888 -4.5005169450137368 0.0980392157 0.0980392157 0.0980392157
v -5.4062751386585033 7.7346617113451721 -3.3028188042862099 0.0980392157 0.0980392157 0.0980392157
v -5.5644979859739543 9.3745377403572832 -3.3262278770994378 0.0980392157 0.0980392157 0.0980392157
v -4.5 6.6680002212524414 -4 0.0980392157 0.0980392157 0.0980392157
v -4.5 6.6680002212524414 -4 0.0980392157 0.0980392157 0.0980392157
v -3.9199491343848436 10.1836625709083 -4.1604049541274186 0.0980392157 0.0980392157 0.0980392157
v -3.9957116637387089 -0.61015906032897504 -4.4945250942472246 0.0980392157 0.0980392157 0.0980392157
v -4.5002268065252178 1.8474713882982581 -3.1581968797608377 0.0980392157 0.0980392157 0.0980392157
v -4.5 6.6680002212524414 -4 0.0980392157 0.0980392157 0.0980392157
v -4.4405420607977746 -2.1875588353771809 -3.9277607371804937 0.0980392157 0.0980392157 0.0980392157
v -3.9957116637387089 -0.61015906032897504 -4.4945250942472246 0.0980392157 0.0980392157 0.0980392157
v -4.4405420607977746 -2.1875588353771809 -3.9277607371804937 0.0980392157 0.0980392157 0.0980392157
v -4.5520991817358691 3.6612852734120072 0.32053356116807485 0.0980392157 0.0980392157 0.0980392157
v -4.3803067718882467 -0.90318476791389912 4.4500888379687886 0.0980392157 0.0980392157 0.0980392157
v -4.5092708836110651 6.7344862804755747 3.9457876843820565 0.0980392157 0.0980392157 0.0980392157
v -1.9432581128804283 5.8713930505480647 4.5926510350818592 0.0980392157 0.0980392157 0.0980392157
v -4.058574831217002 9.9661624561650157 4.4039627987941419 0.0980392157 0.0980392157 0.0980392157
v -4.3803067718882467 -0.90318476791389912 4.4500888379687886 0.0980392157 0.0980392157 0.0980392157
v 0.25981223823665167 5.4814110728305678 4.5961881975183783 0.0980392157 0.0980392157 0.0980392157
v 4.3397024365744032 -0.63557374145469225 4.4605089176611852 0.0980392157 0.0980392157 0.0980392157
v -4.0184583681545831 7.959503680966888 -4.5005169450137368 0.0980392157 0.0980392157 0.0980392157
v 0.41881195428940288 4.2535678460816655 -4.5061609528506681 0.0980392157 0.0980392157 0.0980392157
v -3.9957116637387089 -0.61015906032897504 -4.4945250942472246 0.0980392157 0.0980392157 0.0980392157
v -4.9692996292392095 -0.341672976144487 1.5072970773931169 0.0980392157 0.0980392157 0.0980392157
v -4.3468528596766056 -3.0140019412221681 3.3393416471909236 0.0980392157 0.0980392157 0.0980392157
v -3.9720637481998176 -4.1847241060386144 1.8192798531973802 0.0980392157 0.0980392157 0.0980392157
v -4.3468528596766056 -3.0140019412221681 3.3393416471909236 0.0980392157 0.0980392157 0.0980392157
v -4.3867103571051045 -4.4730442442131144 -0.30837961625631127 0.0980392157 0.0980392157 0.0980392157
v -4.3867103571051045 -4.4730442442131144 -0.30837961625631127 0.0980392157 0.0980392157 0.0980392157
v -4.9692996292392095 -0.341672976144487 1.5072970773931169 0.0980392157 0.0980392157 0.0980392157
v -5.0514308449000076 1.3520527351783769 0.85911148647036339 0.0980392157 0.0980392157 0.0980392157
v -5.0514308449000076 1.3520527351783769 0.85911148647036339 0.0980392157 0.0980392157 0.0980392157
v -5.0189723822999621 1.3217570431006243 -0.90126682036100292 0.0980392157 0.0980392157 0.0980392157
v -4.5002268065252178 1.8474713882982581 -3.1581968797608377 0.0980392157 0.0980392157 0.0980392157
v -5.0189723822999621 1.3217570431006243 -0.90126682036100292 0.0980392157 0.0980392157 0.0980392157
v -5.0514308449000076 1.3520527351783769 0.85911148647036339 0.0980392157 0.0980392157 0.0980392157
v -4.8940408570843639 -0.34317167322955333 -1.5070147155191342 0.0980392157 0.0980392157 0.0980392157
v -4.4405420607977746 -2.1875588353771809 -3.9277607371804937 0.0980392157 0.0980392157 0.0980392157
v -4.9692996292392095 -0.341672976144487 1.5072970773931169 0.0980392157 0.0980392157 0.0980392157
v -4.8878767827426008 -1.4433841883765102 0.6123740792836746 0.0980392157 0.0980392157 0.0980392157
v -4.3867103571051045 -4.4730442442131144 -0.30837961625631127 0.0980392157 0.0980392157 0.0980392157
v -4.8857507737209378 -1.3998288322184382 -0.618705549743921 0.0980392157 0.0980392157 0.0980392157
v -4.8878767827426008 -1.4433841883765102 0.6123740792836746 0.0980392157 0.0980392157 0.0980392157
v -4.9692996292392095 -0.341672976144487 1.5072970773931169 0.0980392157 0.0980392157 0.0980392157
v 4.8926984464082688 -0.48850728711897506 1.4862632597697274 0.0980392157 0.0980392157 0.0980392157
v 5.0160365037729546 1.3351522941098386 1.0107920473767524 0.0980392157 0.0980392157 0.0980392157
v 4.8926984464082688 -0.48850728711897506 1.4862632597697274 0.0980392157 0.0980392157 0.0980392157
v -4.9692996292392095 -0.341672976144487 1.5072970773931169 0.0980392157 0.0980392157 0.0980392157
v -5.0189723822999621 1.3217570431006243 -0.90126682036100292 0.0980392157 0.0980392157 0.0980392157
v 4.7122124899727451 1.3303715897225217 -1.007425457697076 0.0980392157 0.0980392157 0.0980392157
v -5.0514308449000076 1.3520527351783769 0.85911148647036339 0.0980392157 0.0980392157 0.0980392157
v -5.0189723822999621 1.3217570431006243 -0.90126682036100292 0.0980392157 0.0980392157 0.0980392157
v -4.8940408570843639 -0.34317167322955333 -1.5070147155191342 0.0980392157 0.0980392157 0.0980392157
v 4.7122124899727451 1.3303715897225217 -1.007425457697076 0.0980392157 0.0980392157 0.0980392157
v 4.9291778519476113 -0.47784171936387398 -1.4910964581244512 0.0980392157 0.0980392157 0.0980392157
v -4.8940408570843639 -0.34317167322955333 -1.5070147155191342 0.0980392157 0.0980392157 0.0980392157
v -4.8857507737209378 -1.3998288322184382 -0.618705549743921 0.0980392157 0.0980392157 0.0980392157
v 5.0160365037729546 1.3351522941098386 1.0107920473767524 0.0980392157 0.0980392157 0.0980392157
v 4.4481913501741701 -2.7250501566904326 3.5922960555166865 0.0980392157 0.0980392157 0.0980392157
v 4.8926984464082688 -0.48850728711897506 1.4862632597697274 0.0980392157 0.0980392157 0.0980392157
v 4.4795970076487013 -2.6145781773410341 -3.7242884496170321 0.0980392157 0.0980392157 0.0980392157
v 4.7122124899727451 1.3303715897225217 -1.007425457697076 0.0980392157 0.0980392157 0.0980392157
v 4.9291778519476113 -0.47784171936387398 -1.4910964581244512 0.0980392157 0.0980392157 0.0980392157
v 4.9741885355808986 -1.6113534592857024 -0.11487112876402615 0.0980392157 0.0980392157 0.0980392157
v 4.9741885355808986 -1.6113534592857024 -0.11487112876402615 0.0980392157 0.0980392157 0.0980392157
v -4.0359079363050236 -3.921818178867329 -2.3167235840434794 0.0980392157 0.0980392157 0.0980392157
v -4.3867103571051045 -4.4730442442131144 -0.30837961625631127 0.0980392157 0.0980392157 0.0980392157
v 4.259328987509984 -4.0146146600274371 2.0941800973378912 0.0980392157 0.0980392157 0.0980392157
v 4.4481913501741701 -2.7250501566904326 3.5922960555166865 0.0980392157 0.0980392157 0.0980392157
v -3.9720637481998176 -4.1847241060386144 1.8192798531973802 0.0980392157 0.0980392157 0.0980392157
v 4.2131425016588144 -4.5040620115976431 0.12758588870348639 0.0980392157 0.0980392157 0.0980392157
v -3.9199491343848436 10.1836625709083 -4.1604049541274186 0.0980392157 0.0980392157 0.0980392157
v -4.058574831217002 9.9661624561650157 4.4039627987941419 0.0980392157 0.0980392157 0.0980392157
v -2.5033386071710026 11.772297078930167 4.2516225758042703 0.0980392157 0.0980392157 0.0980392157
v -1.2935561417409036 9.9457740673584105 -4.8094286827988881 0.0980392157 0.0980392157 0.0980392157
v -3.9199491343848436 10.1836625709083 -4.1604049541274186 0.0980392157 0.0980392157 0.0980392157
v -1.9432581128804283 5.8713930505480647 4.5926510350818592 0.0980392157 0.0980392157 0.0980392157
v -1.3421054329776785 8.9854818857371495 5.1142285604097593 0.0980392157 0.0980392157 0.0980392157
v 4.3397024365744032 -0.63557374145469225 4.4605089176611852 0.0980392157 0.0980392157 0.0980392157
v 4.4670802023498135 8.8068773296053333 4.3521298168985281 0.0980392157 0.0980392157 0.0980392157
v 1.9193287372938741 5.6502927446254141 4.5594070758166891 0.0980392157 0.0980392157 0.0980392157
v 1.417425235438476 8.8338438175238565 5.0777953985703324 0.0980392157 0.0980392157 0.0980392157
v 1.417425235438476 8.8338438175238565 5.0777953985703324 0.0980392157 0.0980392157 0.0980392157
v 3.3636993857366391 11.048364568164104 4.2707812517246824 0.0980392157 0.0980392157 0.0980392157
v 1.7619961287474344 12.13129392336986 4.3519859777352607 0.0980392157 0.0980392157 0.0980392157
v 0.26323946231856427 9.6890072807775773 5.0693956926062613 0.0980392157 0.0980392157 0.0980392157
v -2.5033386071710026 11.772297078930167 4.2516225758042703 0.0980392157 0.0980392157 0.0980392157
v 0.26323946231856427 9.6890072807775773 5.0693956926062613 0.0980392157 0.0980392157 0.0980392157
v 3.6662209737561113 7.2880631065317889 -4.5248763232422693 0.0980392157 0.0980392157 0.0980392157
v 3.8393221517319511 10.401335466382093 -4.4618894413964796 0.0980392157 0.0980392157 0.0980392157
v 3.9703122493323577 -0.52408888982258617 -4.5199433870733783 0.0980392157 0.0980392157 0.0980392157
v 4.4795970076487013 -2.6145781773410341 -3.7242884496170321 0.0980392157 0.0980392157 0.0980392157
v 3.9703122493323577 -0.52408888982258617 -4.5199433870733783 0.0980392157 0.0980392157 0.0980392157
v 4.5103351398819633 8.075000000969812 -4.0031427350359596 0.0980392157 0.0980392157 0.0980392157
v -1.9420601425479598 12.097347095859956 -4.3173783079983634 0.0980392157 0.0980392157 0.0980392157
v 1.5019690077849941 12.394951195659747 -4.1516726075601342 0.0980392157 0.0980392157 0.0980392157
v 1.1683913890008846 9.935807824356985 -4.9138944880592543 0.0980392157 0.0980392157 0.0980392157
v -1.9420601425479598 12.097347095859956 -4.3173783079983634 0.0980392157 0.0980392157 0.0980392157
v -1.2935561417409036 9.9457740673584105 -4.8094286827988881 0.0980392157 0.0980392157 0.0980392157
v 1.1683913890008846 9.935807824356985 -4.9138944880592543 0.0980392157 0.0980392157 0.0980392157
v 1.1683913890008846 9.935807824356985 -4.9138944880592543 0.0980392157 0.0980392157 0.0980392157
v 0.0806122668949949 6.4937985406421879 -5.3984747667133242 0.0980392157 0.0980392157 0.0980392157
v 3.6662209737561113 7.2880631065317889 -4.5248763232422693 0.0980392157 0.0980392157 0.0980392157
v 0.41881195428940288 4.2535678460816655 -4.5061609528506681 0.0980392157 0.0980392157 0.0980392157
v 0.0806122668949949 6.4937985406421879 -5.3984747667133242 0.0980392157 0.0980392157 0.0980392157
v -1.2841600104990389 7.135912583591848 -5.4325970673494952 0.0980392157 0.0980392157 0.0980392157
v -1.2841600104990389 7.135912583591848 -5.4325970673494952 0.0980392157 0.0980392157 0.0980392157
v -1.2935561417409036 9.9457740673584105 -4.8094286827988881 0.0980392157 0.0980392157 0.0980392157
v -1.2841600104990389 7.135912583591848 -5.4325970673494952 0.0980392157 0.0980392157 0.0980392157
v 4.4481913501741701 -2.7250501566904326 3.5922960555166865 0.0980392157 0.0980392157 0.0980392157
v -4.3803067718882467 -0.90318476791389912 4.4500888379687886 0.0980392157 0.0980392157 0.0980392157
v 4.4795970076487013 -2.6145781773410341 -3.7242884496170321 0.0980392157 0.0980392157 0.0980392157
v -4.4405420607977746 -2.1875588353771809 -3.9277607371804937 0.0980392157 0.0980392157 0.0980392157
v -4.3468528596766056 -3.0140019412221681 3.3393416471909236 0.0980392157 0.0980392157 0.0980392157
v 4.285124491189908 -4.1514226326102577 -1.7599439368753007 0.0980392157 0.0980392157 0.0980392157
v -4.0359079363050236 -3.921818178867329 -2.3167235840434794 0.0980392157 0.0980392157 0.0980392157
v 4.4795970076487013 -2.6145781773410341 -3.7242884496170321 0.0980392157 0.0980392157 0.0980392157
v 4.285124491189908 -4.1514226326102577 -1.7599439368753007 0.0980392157 0.0980392157 0.0980392157
v -1.2935561417409036 9.9457740673584105 -4.8094286827988881 0.0980392157 0.0980392157 0.0980392157
v -3.9199491343848436 10.1836625709083 -4.1604049541274186 0.0980392157 0.0980392157 0.0980392157
v -1.1699234904569313 8.8160949407409532 -6.3069910926699606 0.0980392157 0.0980392157 0.0980392157
v -1.5915459554334879 9.6232255266859212 -7.6873847361529943 0.0980392157 0.0980392157 0.0980392157
v -2.1241768702519184 7.439609176446071 -7.8931015299573621 0.0980392157 0.0980392157 0.0980392157
v -0.88175068210867269 6.6616833425052251 -9.2545989221467657 0.0980392157 0.0980392157 0.0980392157
v -2.1241768702519184 7.439609176446071 -7.8931015299573621 0.0980392157 0.0980392157 0.0980392157
v -1.5915459554334879 9.6232255266859212 -7.6873847361529943 0.0980392157 0.0980392157 0.0980392157
v -1.3823459409828696 8.4242816110827405 -9.455289360010168 0.0980392157 0.0980392157 0.0980392157
v -0.88175068210867269 6.6616833425052251 -9.2545989221467657 0.0980392157 0.0980392157 0.0980392157
v -1.5915459554334879 9.6232255266859212 -7.6873847361529943 0.0980392157 0.0980392157 0.0980392157
v -1.1067054972417059 7.0508793898603557 6.135975592166611 0.0980392157 0.0980392157 0.0980392157
v -1.3421054329776785 8.9854818857371495 5.1142285604097593 0.0980392157 0.0980392157 0.0980392157
v -1.9432581128804283 5.8713930505480647 4.5926510350818592 0.0980392157 0.0980392157 0.0980392157
v -1.6066207871202691 6.3042210309212035 7.7500048192268904 0.0980392157 0.0980392157 0.0980392157
v -1.7302754543610408 8.9246486492926973 8.7536427800768628 0.0980392157 0.0980392157 0.0980392157
v -1.3421054329776785 8.9854818857371495 5.1142285604097593 0.0980392157 0.0980392157 0.0980392157
v -1.1067054972417059 7.0508793898603557 6.135975592166611 0.0980392157 0.0980392157 0.0980392157
v -1.6066207871202691 6.3042210309212035 7.7500048192268904 0.0980392157 0.0980392157 0.0980392157
v -1.3421054329776785 8.9854818857371495 5.1142285604097593 0.0980392157 0.0980392157 0.0980392157
v -1.2841600104990389 7.135912583591848 -5.4325970673494952 0.0980392157 0.0980392157 0.0980392157
v -1.1699234904569313 8.8160949407409532 -6.3069910926699606 0.0980392157 0.0980392157 0.0980392157
v -2.1241768702519184 7.439609176446071 -7.8931015299573621 0.0980392157 0.0980392157 0.0980392157
v -0.90885831350697344 6.8317488777198694 9.4618259015347626 0.0980392157 0.0980392157 0.0980392157
v -1.7302754543610408 8.9246486492926973 8.7536427800768628 0.0980392157 0.0980392157 0.0980392157
v -1.6066207871202691 6.3042210309212035 7.7500048192268904 0.0980392157 0.0980392157 0.0980392157
v -0.88175068210867269 6.6616833425052251 -9.2545989221467657 0.0980392157 0.0980392157 0.0980392157
v -1.2841600104990389 7.135912583591848 -5.4325970673494952 0.0980392157 0.0980392157 0.0980392157
v -2.1241768702519184 7.439609176446071 -7.8931015299573621 0.0980392157 0.0980392157 0.0980392157
v 0.26323946231856427 9.6890072807775773 5.0693956926062613 0.0980392157 0.0980392157 0.0980392157
v -1.3421054329776785 8.9854818857371495 5.1142285604097593 0.0980392157 0.0980392157 0.0980392157
v -1.2935561417409036 9.9457740673584105 -4.8094286827988881 0.0980392157 0.0980392157 0.0980392157
v 0.96319115374669817 9.1564513825125093 -6.1128776658016122 0.0980392157 0.0980392157 0.0980392157
v -1.1699234904569313 8.8160949407409532 -6.3069910926699606 0.0980392157 0.0980392157 0.0980392157
v 0.26522008039482736 9.3595880196802241 -9.5102022777318673 0.0980392157 0.0980392157 0.0980392157
v -1.5915459554334879 9.6232255266859212 -7.6873847361529943 0.0980392157 0.0980392157 0.0980392157
v 0.020566585481596844 10.159724607386119 -7.7757579355455553 0.0980392157 0.0980392157 0.0980392157
v -1.1699234904569313 8.8160949407409532 -6.3069910926699606 0.0980392157 0.0980392157 0.0980392157
v 0.96319115374669817 9.1564513825125093 -6.1128776658016122 0.0980392157 0.0980392157 0.0980392157
v 0.020566585481596844 10.159724607386119 -7.7757579355455553 0.0980392157 0.0980392157 0.0980392157
v -0.016692195320836101 9.4642557707060089 9.5218103320350274 0.0980392157 0.0980392157 0.0980392157
v -1.7302754543610408 8.9246486492926973 8.7536427800768628 0.0980392157 0.0980392157 0.0980392157
v 0.26522008039482736 9.3595880196802241 -9.5102022777318673 0.0980392157 0.0980392157 0.0980392157
v -1.3823459409828696 8.4242816110827405 -9.455289360010168 0.0980392157 0.0980392157 0.0980392157
v -0.016692195320836101 9.4642557707060089 9.5218103320350274 0.0980392157 0.0980392157 0.0980392157
v -1.7302754543610408 8.9246486492926973 8.7536427800768628 0.0980392157 0.0980392157 0.0980392157
v -0.90885831350697344 6.8317488777198694 9.4618259015347626 0.0980392157 0.0980392157 0.0980392157
v -0.88175068210867269 6.6616833425052251 -9.2545989221467657 0.0980392157 0.0980392157 0.0980392157
v -1.3823459409828696 8.4242816110827405 -9.455289360010168 0.0980392157 0.0980392157 0.0980392157
v 0.26522008039482736 9.3595880196802241 -9.5102022777318673 0.0980392157 0.0980392157 0.0980392157
v 0.0806122668949949 6.4937985406421879 -5.3984747667133242 0.0980392157 0.0980392157 0.0980392157
v -1.1067054972417059 7.0508793898603557 6.135975592166611 0.0980392157 0.0980392157 0.0980392157
v -1.9432581128804283 5.8713930505480647 4.5926510350818592 0.0980392157 0.0980392157 0.0980392157
v 0.25981223823665167 5.4814110728305678 4.5961881975183783 0.0980392157 0.0980392157 0.0980392157
v 1.9062279289833621 9.2721931249060159 -7.5929827985727583 0.0980392157 0.0980392157 0.0980392157
v 1.9062279289833621 9.2721931249060159 -7.5929827985727583 0.0980392157 0.0980392157 0.0980392157
v 0.26323946231856427 9.6890072807775773 5.0693956926062613 0.0980392157 0.0980392157 0.0980392157
v 1.7853784118263798 8.9547042264622068 7.9055687488160293 0.0980392157 0.0980392157 0.0980392157
v 1.410399072337885 7.4598572876604372 9.4530171102789868 0.0980392157 0.0980392157 0.0980392157
v 1.7853784118263798 8.9547042264622068 7.9055687488160293 0.0980392157 0.0980392157 0.0980392157
v -0.90885831350697344 6.8317488777198694 9.4618259015347626 0.0980392157 0.0980392157 0.0980392157
v -1.6066207871202691 6.3042210309212035 7.7500048192268904 0.0980392157 0.0980392157 0.0980392157
v 1.5826431892322759 6.0784158951465246 7.7322211728761063 0.0980392157 0.0980392157 0.0980392157
v 1.5826431892322759 6.0784158951465246 7.7322211728761063 0.0980392157 0.0980392157 0.0980392157
v -1.6066207871202691 6.3042210309212035 7.7500048192268904 0.0980392157 0.0980392157 0.0980392157
v 0.86511189037297576 6.7462836474734313 5.9812739726835895 0.0980392157 0.0980392157 0.0980392157
v 1.5019690077849941 12.394951195659747 -4.1516726075601342 0.0980392157 0.0980392157 0.0980392157
v -0.53389085333228903 12.516259241131124 3.8745036353547224 0.0980392157 0.0980392157 0.0980392157
v 1.7619961287474344 12.13129392336986 4.3519859777352607 0.0980392157 0.0980392157 0.0980392157
v 1.1683913890008846 9.935807824356985 -4.9138944880592543 0.0980392157 0.0980392157 0.0980392157
v 1.9193287372938741 5.6502927446254141 4.5594070758166891 0.0980392157 0.0980392157 0.0980392157
v 0.86511189037297576 6.7462836474734313 5.9812739726835895 0.0980392157 0.0980392157 0.0980392157
v 1.6395771679596289 6.5128439902200235 -7.981802767389544 0.0980392157 0.0980392157 0.0980392157
v 1.417425235438476 8.8338438175238565 5.0777953985703324 0.0980392157 0.0980392157 0.0980392157
v 1.6395771679596289 6.5128439902200235 -7.981802767389544 0.0980392157 0.0980392157 0.0980392157
v 1.4620343834039491 7.6388118121790765 -5.1596460485376179 0.0980392157 0.0980392157 0.0980392157
v 0.0806122668949949 6.4937985406421879 -5.3984747667133242 0.0980392157 0.0980392157 0.0980392157
v 1.6395771679596289 6.5128439902200235 -7.981802767389544 0.0980392157 0.0980392157 0.0980392157
v -0.88175068210867269 6.6616833425052251 -9.2545989221467657 0.0980392157 0.0980392157 0.0980392157
v 1.3104210034634911 7.4424848712672329 -9.5272661116187951 0.0980392157 0.0980392157 0.0980392157
v 0.86511189037297576 6.7462836474734313 5.9812739726835895 0.0980392157 0.0980392157 0.0980392157
v 1.417425235438476 8.8338438175238565 5.0777953985703324 0.0980392157 0.0980392157 0.0980392157
v 1.7853784118263798 8.9547042264622068 7.9055687488160293 0.0980392157 0.0980392157 0.0980392157
v 1.4620343834039491 7.6388118121790765 -5.1596460485376179 0.0980392157 0.0980392157 0.0980392157
v 0.96319115374669817 9.1564513825125093 -6.1128776658016122 0.0980392157 0.0980392157 0.0980392157
v 1.1683913890008846 9.935807824356985 -4.9138944880592543 0.0980392157 0.0980392157 0.0980392157
v 1.6395771679596289 6.5128439902200235 -7.981802767389544 0.0980392157 0.0980392157 0.0980392157
v 1.3104210034634911 7.4424848712672329 -9.5272661116187951 0.0980392157 0.0980392157 0.0980392157
v 1.9062279289833621 9.2721931249060159 -7.5929827985727583 0.0980392157 0.0980392157 0.0980392157
v 0.26522008039482736 9.3595880196802241 -9.5102022777318673 0.0980392157 0.0980392157 0.0980392157
v 1.9062279289833621 9.2721931249060159 -7.5929827985727583 0.0980392157 0.0980392157 0.0980392157
v 1.3104210034634911 7.4424848712672329 -9.5272661116187951 0.0980392157 0.0980392157 0.0980392157
v 1.9193287372938741 5.6502927446254141 4.5594070758166891 0.0980392157 0.0980392157 0.0980392157
v 1.417425235438476 8.8338438175238565 5.0777953985703324 0.0980392157 0.0980392157 0.0980392157
v 0.86511189037297576 6.7462836474734313 5.9812739726835895 0.0980392157 0.0980392157 0.0980392157
v 1.4620343834039491 7.6388118121790765 -5.1596460485376179 0.0980392157 0.0980392157 0.0980392157
v 1.1683913890008846 9.935807824356985 -4.9138944880592543 0.0980392157 0.0980392157 0.0980392157
v 1.5826431892322759 6.0784158951465246 7.7322211728761063 0.0980392157 0.0980392157 0.0980392157
v 1.7853784118263798 8.9547042264622068 7.9055687488160293 0.0980392157 0.0980392157 0.0980392157
v 1.410399072337885 7.4598572876604372 9.4530171102789868 0.0980392157 0.0980392157 0.0980392157
v 1.5826431892322759 6.0784158951465246 7.7322211728761063 0.0980392157 0.0980392157 0.0980392157
v 0.86511189037297576 6.7462836474734313 5.9812739726835895 0.0980392157 0.0980392157 0.0980392157
v 1.7853784118263798 8.9547042264622068 7.9055687488160293 0.0980392157 0.0980392157 0.0980392157
v 1.6395771679596289 6.5128439902200235 -7.981802767389544 0.0980392157 0.0980392157 0.0980392157
v 0.96319115374669817 9.1564513825125093 -6.1128776658016122 0.0980392157 0.0980392157 0.0980392157
v 1.4620343834039491 7.6388118121790765 -5.1596460485376179 0.0980392157 0.0980392157 0.0980392157
v 1.9062279289833621 9.2721931249060159 -7.5929827985727583 0.0980392157 0.0980392157 0.0980392157
v 0.96319115374669817 9.1564513825125093 -6.1128776658016122 0.0980392157 0.0980392157 0.0980392157
v 1.6395771679596289 6.5128439902200235 -7.981802767389544 0.0980392157 0.0980392157 0.0980392157
v 3.3636993857366391 11.048364568164104 4.2707812517246824 0.0980392157 0.0980392157 0.0980392157
v 4.4670802023498135 8.8068773296053333 4.3521298168985281 0.0980392157 0.0980392157 0.0980392157
v 3.8393221517319511 10.401335466382093 -4.4618894413964796 0.0980392157 0.0980392157 0.0980392157
v 4.5103351398819633 8.075000000969812 -4.0031427350359596 0.0980392157 0.0980392157 0.0980392157
v 4.7122124899727451 1.3303715897225217 -1.007425457697076 0.0980392157 0.0980392157 0.0980392157
v 4.4795970076487013 -2.6145781773410341 -3.7242884496170321 0.0980392157 0.0980392157 0.0980392157
v 4.5046369102603414 3.1107401760031568 1.7609797972865482 0.0980392157 0.0980392157 0.0980392157
v 4.3397024365744032 -0.63557374145469225 4.4605089176611852 0.0980392157 0.0980392157 0.0980392157
v 5.0160365037729546 1.3351522941098386 1.0107920473767524 0.0980392157 0.0980392157 0.0980392157
v 4.3397024365744032 -0.63557374145469225 4.4605089176611852 0.0980392157 0.0980392157 0.0980392157
v 4.4481913501741701 -2.7250501566904326 3.5922960555166865 0.0980392157 0.0980392157 0.0980392157
v 4.259328987509984 -4.0146146600274371 2.0941800973378912 0.0980392157 0.0980392157 0.0980392157
v 4.285124491189908 -4.1514226326102577 -1.7599439368753007 0.0980392157 0.0980392157 0.0980392157
v 4.4481913501741701 -2.7250501566904326 3.5922960555166865 0.0980392157 0.0980392157 0.0980392157
v 4.2131425016588144 -4.5040620115976431 0.12758588870348639 0.0980392157 0.0980392157 0.0980392157
v 4.285124491189908 -4.1514226326102577 -1.7599439368753007 0.0980392157 0.0980392157 0.0980392157
v 4.4795970076487013 -2.6145781773410341 -3.7242884496170321 0.0980392157 0.0980392157 0.0980392157
v 4.9741885355808986 -1.6113534592857024 -0.11487112876402615 0.0980392157 0.0980392157 0.0980392157
v -4.3803067718882467 -0.90318476791389912 4.4500888379687886 0.0980392157 0.0980392157 0.0980392157
v -4.5092708836110651 6.7344862804755747 3.9457876843820565 0.0980392157 0.0980392157 0.0980392157
v 3.8393221517319511 10.401335466382093 -4.4618894413964796 0.0980392157 0.0980392157 0.0980392157
v 4.4795970076487013 -2.6145781773410341 -3.7242884496170321 0.0980392157 0.0980392157 0.0980392157
v -2.5033386071710026 11.772297078930167 4.2516225758042703 0.0980392157 0.0980392157 0.0980392157
v -1.9420601425479598 12.097347095859956 -4.3173783079983634 0.0980392157 0.0980392157 0.0980392157
v -0.53389085333228903 12.516259241131124 3.8745036353547224 0.0980392157 0.0980392157 0.0980392157
v -2.5033386071710026 11.772297078930167 4.2516225758042703 0.0980392157 0.0980392157 0.0980392157
v 1.7619961287474344 12.13129392336986 4.3519859777352607 0.0980392157 0.0980392157 0.0980392157
v -1.1067054972417059 7.0508793898603557 6.135975592166611 0.0980392157 0.0980392157 0.0980392157
v 3.8393221517319511 10.401335466382093 -4.4618894413964796 0.0980392157 0.0980392157 0.0980392157
v -1.9420601425479598 12.097347095859956 -4.3173783079983634 0.0980392157 0.0980392157 0.0980392157
v -1.3421054329776785 8.9854818857371495 5.1142285604097593 0.0980392157 0.0980392157 0.0980392157
v -4.058574831217002 9.9661624561650157 4.4039627987941419 0.0980392157 0.0980392157 0.0980392157
v -5.0514308449000076 1.3520527351783769 0.85911148647036339 0.0980392157 0.0980392157 0.0980392157
v -1.2935561417409036 9.9457740673584105 -4.8094286827988881 0.0980392157 0.0980392157 0.0980392157
v -1.1699234904569313 8.8160949407409532 -6.3069910926699606 0.0980392157 0.0980392157 0.0980392157
v 1.410399072337885 7.4598572876604372 9.4530171102789868 0.0980392157 0.0980392157 0.0980392157
v -5.0189723822999621 1.3217570431006243 -0.90126682036100292 0.0980392157 0.0980392157 0.0980392157
v -4.4405420607977746 -2.1875588353771809 -3.9277607371804937 0.0980392157 0.0980392157 0.0980392157
v 4.9291778519476113 -0.47784171936387398 -1.4910964581244512 0.0980392157 0.0980392157 0.0980392157
v -3.9957116637387089 -0.61015906032897504 -4.4945250942472246 0.0980392157 0.0980392157 0.0980392157
v -5.4062751386585033 7.7346617113451721 -3.3028188042862099 0.0980392157 0.0980392157 0.0980392157
v 1.3104210034634911 7.4424848712672329 -9.5272661116187951 0.0980392157 0.0980392157 0.0980392157
v -4.3867103571051045 -4.4730442442131144 -0.30837961625631127 0.0980392157 0.0980392157 0.0980392157
v -1.5915459554334879 9.6232255266859212 -7.6873847361529943 0.0980392157 0.0980392157 0.0980392157
v 4.9741885355808986 -1.6113534592857024 -0.11487112876402615 0.0980392157 0.0980392157 0.0980392157
v 5.0160365037729546 1.3351522941098386 1.0107920473767524 0.0980392157 0.0980392157 0.0980392157
v 1.410399072337885 7.4598572876604372 9.4530171102789868 0.0980392157 0.0980392157 0.0980392157
vn -0.40151786804199219 0.91585040092468262 0.0012075826525688171
vn -0.041019987314939499 0.99915826320648193 0.00026636107941158116
vn -0.16239665448665619 0.98672544956207275 -0.00041137155494652689
vn -0.37166661024093628 0.92836356163024902 -0.0022464406210929155
vn -0.66836559772491455 0.17068204283714294 0.72398555278778076
vn -0.54630196094512939 -0.085555672645568848 0.83320730924606323
vn -0.63970202207565308 -0.04245472326874733 0.76744961738586426
vn -0.7004438042640686 -0.21138909459114075 0.68168401718139648
vn -0.68103349208831787 -0.072099097073078156 0.72869408130645752
vn -0.84042274951934814 -0.5419313907623291 0
vn -0.84042274951934814 -0.5419313907623291 0
vn -0.84042274951934814 -0.5419313907623291 0
vn -0.99483543634414673 -0.10150124132633209 0
vn -0.99986553192138672 0.016400177031755447 0
vn -0.99879497289657593 0.049078110605478287 0
vn -0.68478959798812866 0.040427006781101227 -0.72761863470077515
vn -0.67020994424819946 -0.006889998447149992 -0.74213957786560059
vn -0.60773158073425293 0.0034053800627589226 -0.79413521289825439
vn -0.70085740089416504 0 -0.71330142021179199
vn -0.84042274951934814 -0.5419313907623291 0
vn -0.57583111524581909 0.16551768779754639 -0.80063879489898682
vn -0.70970427989959717 -0.0052109472453594208 -0.70448040962219238
vn -0.99846011400222778 0.046431809663772583 -0.030355190858244896
vn -1 0 0
vn -0.99993783235549927 0.0057734651491045952 -0.009541952982544899
vn -0.71192419528961182 -0.046739216893911362 -0.70069921016693115
vn -0.68934351205825806 -0.21187835931777954 -0.69275754690170288
vn -0.97965562343597412 0.19822709262371063 0.031318500638008118
vn -0.99966669082641602 -0.0032367387320846319 0.025612369179725647
vn -0.99999713897705078 -0.0008248351514339447 0.0022450601682066917
vn -0.13173387944698334 -0.1723594069480896 0.97618561983108521
vn -0.044893696904182434 0.047637887299060822 0.99785530567169189
vn 0.0033591818064451218 0.00064405536977574229 0.99999415874481201
vn -0.01168693695217371 0.048632998019456863 0.99874836206436157
vn 0.037079542875289917 -0.081600837409496307 0.9959750771522522
vn -0.090173192322254181 0.013187138363718987 -0.99583876132965088
vn -0.022599397227168083 -0.14234162867069244 -0.9895595908164978
vn 0.0043208524584770203 -0.031606465578079224 -0.99949103593826294
vn -0.97011429071426392 -0.13289652764797211 0.20301914215087891
vn -0.99998670816421509 -0.00026880402583628893 -0.0051519586704671383
vn -0.69478327035903931 -0.65915393829345703 0.28773653507232666
vn -0.69404882192611694 -0.52327710390090942 0.49444642663002014
vn -0.79745280742645264 -0.59401655197143555 0.1058930829167366
vn -0.99696391820907593 0.024909336119890213 -0.073772706091403961
vn -0.858481764793396 -0.005745492409914732 0.51281189918518066
vn -0.61665493249893188 0.10845482349395752 0.77972704172134399
vn -0.96101009845733643 0.16828811168670654 0.21940530836582184
vn -0.91244632005691528 0.34652376174926758 -0.21763031184673309
vn -0.68885833024978638 0.4609714150428772 -0.55944573879241943
vn -0.99982726573944092 -0.01716185174882412 -0.007133010309189558
vn -0.98255664110183716 0.18596231937408447 -0.00070528703508898616
vn -0.9999966025352478 0.0019044961081817746 0.0017913148039951921
vn -0.99420380592346191 -0.092293523252010345 0.055142208933830261
vn -0.99924629926681519 0.038806043565273285 0.00099158415105193853
vn -0.99991518259048462 -0.012417353689670563 -0.003924085758626461
vn -0.93062025308609009 -0.35172781348228455 -0.10116066783666611
vn -0.99992501735687256 0.0039222156628966331 -0.011600416153669357
vn 7.067429663720759E-08 0.90290719270706177 -0.42983561754226685
vn 0 0.69141185283660889 -0.72246080636978149
vn -1.4482496979439929E-08 0.67848432064056396 -0.73461490869522095
vn 0 -0.27947607636451721 -0.96015262603759766
vn 0 -0.27947607636451721 -0.96015262603759766
vn 0 -0.27947607636451721 -0.96015262603759766
vn 0 -0.80968517065048218 0.58686447143554688
vn 0 -0.87016767263412476 0.49275574088096619
vn 0 -0.91663706302642822 -0.39972048997879028
vn 0 -0.27947607636451721 0.96015262603759766
vn 0 -0.27947607636451721 0.96015262603759766
vn 0 -0.27947607636451721 0.96015262603759766
vn -2.7948729552917939E-08 0.65700620412826538 0.75388514995574951
vn -5.2308042342019689E-08 0.60293853282928467 0.79778766632080078
vn 9.0784119777254091E-08 0.92943984270095825 0.36897376179695129
vn 0.9983983039855957 0.055617786943912506 0.010367000475525856
vn 0.96466231346130371 -0.19910703599452972 0.17257764935493469
vn 0.99991804361343384 -0.011697533540427685 -0.0051982710137963295
vn 0.99824786186218262 0.043844878673553467 -0.039734650403261185
vn 0.99763500690460205 0.06126876175403595 -0.031152881681919098
vn 0.99981534481048584 -0.017858106642961502 0.0071006277576088905
vn 0.99687093496322632 -0.063539579510688782 -0.047021321952342987
vn -7.0041792810116021E-08 0.98784440755844116 0.15544599294662476
vn -0.696216881275177 -0.61786335706710815 -0.36541333794593811
vn -0.63914573192596436 -0.76264864206314087 -0.099296174943447113
vn 0.023871477693319321 -0.89526808261871338 0.44488781690597534
vn -0.041545823216438293 -0.55315721035003662 0.83204030990600586
vn -0.049707986414432526 -0.93481242656707764 0.35164597630500793
vn 0.10203979909420013 -0.99389982223510742 0.041844993829727173
vn -0.79813218116760254 0.59550172090530396 -0.09144805371761322
vn -0.7608446478843689 0.6106608510017395 0.21956488490104675
vn -0.92196476459503174 0.36964711546897888 0.11550752073526382
vn -0.033106241375207901 0.11251053214073181 -0.99309885501861572
vn 0.041330147534608841 -0.020495373755693436 -0.99893534183502197
vn -0.27370601892471313 -0.16698141396045685 0.94720757007598877
vn -0.36698856949806213 0.019746262580156326 0.93001586198806763
vn -0.0094023831188678741 0.025635629892349243 0.99962711334228516
vn -0.003261595731601119 0.041597433388233185 0.99912911653518677
vn 0.13980136811733246 -0.18640346825122833 0.97247588634490967
vn 0.60795187950134277 0.096867039799690247 0.78804266452789307
vn 0.18327502906322479 0.18989616632461548 0.96454638242721558
vn -0.035019449889659882 -0.028495041653513908 0.99898034334182739
vn 0.010454382747411728 0.0083082020282745361 0.99991083145141602
vn 0.03841954842209816 0.1323593407869339 0.99045693874359131
vn -0.09246247261762619 0.042829956859350204 0.99479460716247559
vn 0.15406332910060883 -0.32779526710510254 0.93210232257843018
vn 0.108644038438797 -0.028326546773314476 -0.99367707967758179
vn 0.035425223410129547 0.009022069163620472 -0.99933159351348877
vn -0.0076378807425498962 -0.067779764533042908 -0.99767106771469116
vn 0.70733547210693359 -0.061902265995740891 -0.7041623592376709
vn 0.70969641208648682 -0.049705997109413147 -0.70275193452835083
vn 0.70509082078933716 0.035493314266204834 -0.70822817087173462
vn -0.0015624533407390118 -0.006829842459410429 -0.99997544288635254
vn 0.0078519927337765694 0.0057854447513818741 -0.99995243549346924
vn 0.049181576818227768 -0.86304515600204468 -0.50272679328918457
vn -0.032765805721282959 0.2390294224023819 -0.97045934200286865
vn -0.22858604788780212 0.019268536940217018 -0.97333300113677979
vn 0.12728039920330048 0.32461199164390564 -0.9372442364692688
vn 0.2071366161108017 0.13322579860687256 -0.96919828653335571
vn 0.1148972362279892 -0.217776820063591 -0.96921199560165405
vn -0.0085174916312098503 -0.029530538246035576 -0.99952757358551025
vn 0.20952780544757843 -0.7035868763923645 -0.67901664972305298
vn 0.014609756879508495 -0.26329562067985535 -0.96460455656051636
vn -0.13667738437652588 -0.33135226368904114 -0.933555006980896
vn -0.36660712957382202 -0.31609618663787842 -0.87503278255462646
vn -0.84474897384643555 0.11306504160165787 -0.5230826735496521
vn -0.27351126074790955 -0.13898982107639313 -0.95177382230758667
vn 0.066233351826667786 -0.56942206621170044 0.81937271356582642
vn -0.086139179766178131 -0.21435555815696716 0.9729500412940979
vn 0.06511484831571579 -0.53046870231628418 -0.84520000219345093
vn -0.10077285021543503 -0.46278867125511169 -0.88072210550308228
vn -0.019056044518947601 -0.68433082103729248 0.72892260551452637
vn 0.092703200876712799 -0.84566432237625122 -0.52560251951217651
vn -0.038028299808502197 -0.86686182022094727 -0.49709600210189819
vn 0.16522184014320374 -0.91229236125946045 -0.3747323751449585
vn 0.021661212667822838 -0.94031089544296265 -0.33962652087211609
vn 0.0173163041472435 0.18434906005859375 -0.98270827531814575
vn -0.030029423534870148 -0.15418793261051178 -0.98758506774902344
vn -0.56269991397857666 0.2597179114818573 0.78480279445648193
vn -0.4594670832157135 0.43470335006713867 0.77454698085784912
vn -0.62829577922821045 -0.12789766490459442 0.76738947629928589
vn -0.51877230405807495 -0.10120517760515213 -0.84890091419219971
vn -0.51289558410644531 -0.085429802536964417 -0.85418963432312012
vn -0.37561297416687012 0.34078115224838257 -0.86184865236282349
vn -0.94941985607147217 -0.31400835514068604 0.00084925547707825899
vn -0.94941985607147217 -0.31400835514068604 0.00084925547707825899
vn -0.94941985607147217 -0.31400835514068604 0.00084925547707825899
vn -0.83620882034301758 -0.54612147808074951 0.050060909241437912
vn -0.89006364345550537 0.43975019454956055 0.12002704292535782
vn -0.88686954975128174 0.1121518686413765 0.44820120930671692
vn -0.55357056856155396 -0.35661709308624268 -0.75258481502532959
vn -0.52932822704315186 0.22896517813205719 -0.81693732738494873
vn -0.64215326309204102 0.2078380286693573 -0.73786348104476929
vn -0.93090653419494629 0.0926046222448349 -0.35332337021827698
vn -0.93090653419494629 0.0926046222448349 -0.35332337021827698
vn -0.93090653419494629 0.0926046222448349 -0.35332337021827698
vn -0.86003762483596802 0.51023060083389282 0
vn -0.86003762483596802 0.51023060083389282 0
vn -0.86003762483596802 0.51023060083389282 0
vn -0.7441943883895874 -0.43486732244491577 0.50701594352722168
vn -0.7441943883895874 -0.43486732244491577 0.50701594352722168
vn -0.7441943883895874 -0.43486732244491577 0.50701594352722168
vn -0.27895322442054749 -0.95994848012924194 -0.026153603568673134
vn -0.93134677410125732 -0.358946293592453 -0.061243142932653427
vn -0.33321604132652283 -0.94282591342926025 -0.0068123135715723038
vn 0.035583037883043289 0.27589553594589233 0.96052873134613037
vn -0.049833480268716812 0.73347067832946777 0.67789191007614136
vn -0.18580064177513123 0.76452034711837769 -0.6172412633895874
vn 0.15131622552871704 0.79480886459350586 -0.58769232034683228
vn -0.61732137203216553 0.34971413016319275 -0.70470869541168213
vn 0.12240864336490631 0.8930327296257019 -0.43302273750305176
vn -0.51297485828399658 0.66297060251235962 -0.54527682065963745
vn 0.039348330348730087 0.88535624742507935 -0.46324509382247925
vn -0.4214290976524353 0.80351847410202026 0.42042315006256104
vn 0.32315078377723694 0.83804351091384888 0.43960961699485779
vn -0.061416119337081909 0.9058762788772583 0.41906589269638062
vn -0.029615607112646103 0.99944084882736206 -0.015520760789513588
vn -0.26645612716674805 0.96356105804443359 0.023477951064705849
vn -0.29252704977989197 0.95374602079391479 -0.069256603717803955
vn -0.78972494602203369 0.44758749008178711 -0.41952350735664368
vn 0.12452126294374466 0.15358877182006836 0.98025757074356079
vn -0.11784952878952026 0.08320319652557373 0.98953962326049805
vn -0.39499524235725403 -0.26471707224845886 0.87971794605255127
vn -0.29977819323539734 -0.19159740209579468 -0.93457126617431641
vn 0.0068065212108194828 0.060730867087841034 -0.99813097715377808
vn 0.056070268154144287 0.13376812636852264 -0.9894251823425293
vn -0.053902179002761841 -0.99832195043563843 -0.021162062883377075
vn -0.15870261192321777 -0.75818151235580444 0.632435142993927
vn 0.066547051072120667 -0.70893353223800659 0.70212870836257935
vn -0.046935319900512695 -0.84247946739196777 0.53668004274368286
vn 0.53709638118743896 0.71621811389923096 0.44559970498085022
vn 0.55732047557830811 0.63491654396057129 -0.53504663705825806
vn 0.090120770037174225 0.99587774276733398 0.010285346768796444
vn 0.86719238758087158 0.49701023101806641 0.030954442918300629
vn 0.19849070906639099 -0.1387195885181427 0.97023624181747437
vn 0.7381594181060791 0.60639870166778564 0.29563698172569275
vn -0.2982407808303833 -0.86115777492523193 0.41165488958358765
vn -0.51133817434310913 -0.72721356153488159 0.45792326331138611
vn 0.40896245837211609 -0.79383063316345215 0.45009177923202515
vn 0.39866665005683899 -0.82537621259689331 -0.39977365732192993
vn -0.39878392219543457 -0.81875914335250854 -0.41304340958595276
vn 0.16613596677780151 -0.89423102140426636 -0.41563165187835693
vn 0.28550434112548828 0.95511025190353394 -0.079067401587963104
vn -0.094176337122917175 0.99250638484954834 0.077857978641986847
vn 0.44604781270027161 0.89206212759017944 0.072570428252220154
vn 0.0094258934259414673 0.75963997840881348 -0.65027546882629395
vn 0.45580053329467773 -0.53413218259811401 0.71200329065322876
vn 0.2721499502658844 -0.72103780508041382 0.63721179962158203
vn 0.033009152859449387 -0.9994550347328186 -0.00011106979218311608
vn 0.9284864068031311 0.36485859751701355 0.069218508899211884
vn 0.66871064901351929 -0.5795024037361145 0.4658358097076416
vn 0.80600506067276001 -0.3805677592754364 0.4533475935459137
vn 0.46527662873268127 -0.76408779621124268 0.44686406850814819
vn 0.03624739870429039 -0.92920011281967163 -0.36779510974884033
vn 0.03624739870429039 -0.92920011281967163 -0.36779510974884033
vn 0.03624739870429039 -0.92920011281967163 -0.36779510974884033
vn 0.94993799924850464 -0.31243845820426941 0
vn 0.94993799924850464 -0.31243845820426941 0
vn 0.94993799924850464 -0.31243845820426941 0
vn 0.96575081348419189 -0.1795952171087265 -0.18727225065231323
vn 0.9426695704460144 0.29465484619140625 -0.15669281780719757
vn 0.93300515413284302 0.077224761247634888 -0.35147932171821594
vn 0.95270723104476929 -0.3038804829120636 0.0023609520867466927
vn 0.95270723104476929 -0.3038804829120636 0.0023609520867466927
vn 0.95270723104476929 -0.3038804829120636 0.0023609520867466927
vn 0.63397324085235596 0.73029738664627075 0.25444775819778442
vn 0.69568425416946411 0.32839730381965637 -0.63888859748840332
vn 0.83274924755096436 0.3368416428565979 -0.43939316272735596
vn 0.17986585199832916 -0.4130917489528656 0.89275050163269043
vn -0.046675488352775574 0.10753035545349121 0.99310553073883057
vn -0.29497984051704407 0.36915409564971924 0.88131272792816162
vn 0.010683560743927956 -0.047353513538837433 -0.99882107973098755
vn 0.032040469348430634 0.029518308117985725 -0.99905061721801758
vn 0.95214718580245972 0.30563896894454956 -0.00075413676677271724
vn 0.95214718580245972 0.30563896894454956 -0.00075413676677271724
vn 0.95214718580245972 0.30563896894454956 -0.00075413676677271724
vn 0.44490566849708557 -0.46905973553657532 -0.76291674375534058
vn 0.53969013690948486 -0.37960243225097656 -0.75142300128936768
vn 0.60094964504241943 0.27042803168296814 -0.75214904546737671
vn 0.95178103446960449 0.30677813291549683 0
vn 0.95178103446960449 0.30677813291549683 0
vn 0.95178103446960449 0.30677813291549683 0
vn 0.60258322954177856 0.27884757518768311 0.74775493144989014
vn 0.63505083322525024 0.21782226860523224 0.74112337827682495
vn 0.47964787483215332 -0.38882401585578918 0.78660905361175537
vn 0.75183969736099243 0.65453791618347168 0.079480566084384918
vn 0.99636375904083252 0.083222568035125732 0.018257075920701027
vn 0.84791260957717896 0.52240997552871704 -0.090177975594997406
vn 0.99972236156463623 0.023500509560108185 0.0017112201312556863
vn 0.99438869953155518 0.071694068610668182 -0.077788330614566803
vn 0.98735707998275757 -0.06839548796415329 -0.14299656450748444
vn 0.99378305673599243 0.080479174852371216 0.076931022107601166
vn 0.99973851442337036 -0.016523320227861404 -0.015808656811714172
vn 0.77779817581176758 0.062672093510627747 0.62538164854049683
vn 0.99683749675750732 -0.034934055060148239 -0.071376338601112366
vn 0.96314722299575806 -0.17119677364826202 0.20745854079723358
vn 0.99986851215362549 -0.0001789786183508113 0.016214944422245026
vn 0.97922670841217041 -0.2025667279958725 -0.0090439179912209511
vn 0.81539428234100342 0.57679635286331177 0.049377471208572388
vn 0.99319499731063843 0.11473372578620911 0.019996985793113708
vn 0.89530229568481445 -0.018803810700774193 -0.44506198167800903
vn 0.89266937971115112 -0.036638941615819931 -0.4492204487323761
vn 0.89099633693695068 -0.047012392431497574 -0.45156988501548767
vn -0.71260958909988403 -0.089188680052757263 0.69586849212646484
vn -0.70720428228378296 -0.005433269776403904 0.70698839426040649
vn 0.70702588558197021 0.0071163307875394821 -0.70715183019638062
vn 0.03827473521232605 -0.57036495208740234 -0.82049918174743652
vn -0.57009732723236084 0.81836915016174316 0.072532683610916138
vn -0.50315505266189575 0.8525511622428894 -0.141391322016716
vn -0.10490013659000397 0.70833736658096313 0.69803589582443237
vn -0.40418565273284912 0.59005135297775269 0.69890868663787842
vn 0.28226229548454285 0.66185051202774048 0.69446516036987305
vn -0.43903070688247681 -0.76834982633590698 -0.46571514010429382
vn 0.84095883369445801 0.53548151254653931 0.077767439186573029
vn -0.41084229946136475 0.91110599040985107 -0.033083699643611908
vn -0.072088293731212616 0.466715008020401 0.88146489858627319
vn -0.15236879885196686 0.14135769009590149 0.97816240787506104
vn 0 -0.27947607636451721 -0.96015262603759766
vn -0.78060340881347656 0.54638135433197021 -0.30352219939231873
vn -0.89094597101211548 0.44960910081863403 -0.063772484660148621
vn 0.49875673651695251 -0.69049239158630371 0.5238911509513855
vn -0.9480629563331604 0.26899325847625732 -0.16976240277290344
vn -0.99020677804946899 -0.055683575570583344 -0.12802287936210632
vn 0 -0.27947607636451721 0.96015262603759766
vn -0.16540911793708801 -0.17837750911712646 -0.96995943784713745
vn -0.98819339275360107 -0.15321169793605804 0
vn 0.19392251968383789 -0.089811205863952637 -0.97689712047576904
vn -0.13092939555644989 -0.98822569847106934 -0.079167142510414124
vn -0.32304346561431885 0.82677733898162842 0.46052372455596924
vn 1.1828981882899825E-07 0.98296105861663818 -0.18381398916244507
vn 0 -0.80161076784133911 -0.59784632921218872
vn -0.027283510193228722 -0.073546193540096283 0.99691855907440186
usemtl vc_191919__Default
f 1//1 2//2 3//3
f 1//1 3//3 4//4
f 5//5 6//6 7//7
f 8//8 5//5 9//9
f 10//10 11//11 12//12
f 13//13 14//14 15//15
f 16//16 17//17 18//18
f 19//19 17//17 16//16
f 10//10 12//12 20//20
f 21//21 16//16 18//18
f 22//22 19//19 16//16
f 23//23 24//24 25//25
f 26//26 27//27 19//19
f 28//28 29//29 30//30
f 31//31 32//32 33//33
f 34//34 31//31 33//33
f 33//33 35//35 34//34
f 36//36 37//37 38//38
f 23//23 28//28 30//30
f 39//39 40//40 29//29
f 41//41 42//42 43//43
f 40//40 39//39 44//44
f 45//45 29//29 46//46
f 47//47 29//29 28//28
f 48//48 28//28 49//49
f 50//50 51//51 28//28
f 52//52 50//50 53//53
f 54//54 55//55 56//56
f 56//56 55//55 57//57
f 57//57 52//52 53//53
f 58//58 59//59 60//60
f 61//61 62//62 63//63
f 64//64 65//65 66//66
f 67//67 68//68 69//69
f 70//70 71//71 72//72
f 73//73 74//74 75//75
f 76//76 77//77 78//78
f 74//74 79//79 75//75
f 80//80 72//72 58//58
f 81//81 82//82 27//27
f 83//83 84//84 85//85
f 86//86 83//83 85//85
f 87//87 88//88 89//89
f 90//90 36//36 91//91
f 92//92 93//93 32//32
f 94//94 95//95 96//96
f 96//96 95//95 97//97
f 98//98 95//95 99//99
f 98//98 99//99 100//100 101//101
f 100//100 102//102 103//103
f 104//104 105//105 106//106
f 37//37 104//104 106//106
f 107//107 108//108 109//109
f 110//110 111//111 105//105
f 105//105 112//112 113//113
f 114//114 113//113 115//115
f 116//116 105//105 104//104
f 117//117 118//118 119//119
f 120//120 37//37 121//121
f 122//122 37//37 36//36
f 123//123 124//124 36//36
f 125//125 35//35 126//126
f 127//127 128//128 106//106
f 125//125 126//126 129//129
f 130//130 131//131 132//132
f 86//86 285//285 131//131 133//133
f 134//134 135//135 113//113
f 136//136 137//137 138//138
f 139//139 140//140 141//141
f 142//142 143//143 144//144
f 145//145 146//146 147//147
f 148//148 149//149 150//150
f 151//151 152//152 153//153
f 154//154 155//155 156//156
f 157//157 158//158 159//159
f 160//160 161//161 162//162
f 163//163 102//102 164//164
f 165//165 166//166 167//167
f 168//168 169//169 170//170
f 173//173 286//286 171//171 172//172
f 174//174 146//146 175//175
f 176//176 177//177 169//169
f 178//178 179//179 180//180
f 181//181 182//182 183//183
f 160//160 184//184 161//161
f 185//185 186//186 187//187
f 172//172 188//188 173//173
f 170//170 189//189 168//168
f 190//190 146//146 174//174
f 174//174 191//191 190//190
f 192//192 193//193 178//178
f 194//194 195//195 196//196
f 197//197 198//198 199//199
f 200//200 201//201 202//202
f 166//166 165//165 203//203
f 204//204 205//205 187//187
f 206//206 184//184 160//160
f 191//191 207//207 190//190
f 208//208 209//209 210//210
f 211//211 212//212 213//213
f 214//214 215//215 216//216
f 217//217 218//218 219//219
f 220//220 221//221 222//222
f 223//223 224//224 225//225
f 226//226 227//227 228//228
f 118//118 117//117 229//229
f 230//230 118//118 229//229
f 231//231 232//232 233//233
f 234//234 235//235 236//236
f 237//237 238//238 239//239
f 240//240 241//241 242//242
f 200//200 202//202 243//243
f 244//244 245//245 243//243
f 246//246 245//245 244//244
f 247//247 248//248 246//246
f 249//249 247//247 246//246
f 249//249 244//244 250//250
f 73//73 77//77 249//249
f 251//251 249//249 252//252
f 251//251 252//252 253//253
f 254//254 255//255 256//256
f 79//79 74//74 255//255
f 254//254 257//257 255//255
f 258//258 259//259 260//260
f 261//261 5//5 262//262
f 37//37 106//106 38//38
f 108//108 263//263 109//109
f 264//264 131//131 128//128
f 265//265 266//266 87//87
f 249//249 246//246 244//244
f 79//79 76//76 78//78
f 267//267 268//268 269//269
f 198//198 270//270 199//199
f 200//200 243//243 271//271
f 23//23 30//30 24//24
f 201//201 200//200 272//272
f 273//273 102//102 274//274
f 61//61 63//63 275//275
f 161//161 276//276 277//277
f 278//278 194//194 196//196
f 279//279 23//23 280//280
f 57//57 53//53 56//56
f 68//68 281//281 69//69
f 84//84 129//129 85//85
f 128//128 282//282 106//106
f 265//265 201//201 272//272
f 13//13 15//15 283//283
f 181//181 183//183 284//284
f 35//35 96//96 34//34
f 86//86 85//85 285//285
f 58//58 60//60 287//287
f 65//65 288//288 66//66
f 70//70 72//72 80//80
f 178//178 180//180 289//289
f 185//185 187//187 205//205
