# Dual color encoding: per-vertex RGB for Rerun, face MTL colors for legacy RViz.
mtllib sim_gene01_l_hip_1.mtl
# Rhino

g sim_gene01_l_hip_1
v -139.51669903146845 -32.942371920141142 -53.403638578088533 0.0980392157 0.0980392157 0.0980392157
v -139.604406168396 64.341247228176798 -69.774102222545352 0.0980392157 0.0980392157 0.0980392157
v -136.38508399682337 3.6489227079403648 -113.85498918363882 0.0980392157 0.0980392157 0.0980392157
v -51.5537985533227 81.08946275062172 12.137964012799715 0.0980392157 0.0980392157 0.0980392157
v -41.930695785525586 69.700103754162598 97.094529700756425 0.0980392157 0.0980392157 0.0980392157
v -19.416304644434394 76.94057560052471 32.212647344267545 0.0980392157 0.0980392157 0.0980392157
v 57.868079375761717 -61.434299054317819 -43.57277656991316 0.0980392157 0.0980392157 0.0980392157
v 58.7077028260967 -31.881039366933084 -102.65807760598146 0.0980392157 0.0980392157 0.0980392157
v 76.627409613823232 -9.7426597948995308 -84.811317927013278 0.0980392157 0.0980392157 0.0980392157
v -91.473117923092602 -53.0443927856439 -110.88201708167544 0.0980392157 0.0980392157 0.0980392157
v -126.22691464687314 -41.335918904412424 -95.24256987075556 0.0980392157 0.0980392157 0.0980392157
v -120.05155844770185 -36.736199941545834 -132.94174138861058 0.0980392157 0.0980392157 0.0980392157
v -56.009268163347144 -69.413828949579866 -80.820427721584011 0.0980392157 0.0980392157 0.0980392157
v 43.703651679203055 -69.765530251392505 -39.732915902480457 0.0980392157 0.0980392157 0.0980392157
v -126.65108905234541 -69.846287729044931 19.987533583109801 0.0980392157 0.0980392157 0.0980392157
v -130.58692986576551 -61.95806980961455 48.718129887535838 0.0980392157 0.0980392157 0.0980392157
v -130.41238768992784 59.405462952109595 20.417090128064018 0.0980392157 0.0980392157 0.0980392157
v -137.28728792820118 62.133427969010079 -22.480728745255817 0.0980392157 0.0980392157 0.0980392157
v -119.6316452377086 62.12323894356112 47.923656545682846 0.0980392157 0.0980392157 0.0980392157
v -130.58692986576551 -61.95806980961455 48.718129887535838 0.0980392157 0.0980392157 0.0980392157
v -108.95455709753972 55.204446133758751 67.249024858614931 0.0980392157 0.0980392157 0.0980392157
v -23.835347126176202 -69.441079519880958 96.825867147648495 0.0980392157 0.0980392157 0.0980392157
v -25.401352616023814 -56.392968604001396 103.15148234252055 0.0980392157 0.0980392157 0.0980392157
v -59.056931257294991 -61.877624037241446 102.42946066089962 0.0980392157 0.0980392157 0.0980392157
v -126.65108905234541 -69.846287729044931 19.987533583109801 0.0980392157 0.0980392157 0.0980392157
v 12.419922942115932 -69.715232890946609 84.92605564523933 0.0980392157 0.0980392157 0.0980392157
v -23.835347126176202 -69.441079519880958 96.825867147648495 0.0980392157 0.0980392157 0.0980392157
v -126.65108905234541 -69.846287729044931 19.987533583109801 0.0980392157 0.0980392157 0.0980392157
v -115.97237225445951 -68.773864949160625 -65.662253258890601 0.0980392157 0.0980392157 0.0980392157
v -56.009268163347144 -69.413828949579866 -80.820427721584011 0.0980392157 0.0980392157 0.0980392157
v 12.419922942115932 -69.715232890946609 84.92605564523933 0.0980392157 0.0980392157 0.0980392157
v 53.065430905155331 -68.809003349273468 6.9954245961810475 0.0980392157 0.0980392157 0.0980392157
v 36.464058751639044 -68.601559190536989 62.03150452278858 0.0980392157 0.0980392157 0.0980392157
v 36.464058751639044 -68.601559190536989 62.03150452278858 0.0980392157 0.0980392157 0.0980392157
v 53.065430905155331 -68.809003349273468 6.9954245961810475 0.0980392157 0.0980392157 0.0980392157
v 49.679776193327925 -59.04412407917669 46.809068240678435 0.0980392157 0.0980392157 0.0980392157
v 59.402577791346289 -58.915958738588657 4.10197950211679 0.0980392157 0.0980392157 0.0980392157
v 34.919153702732068 -57.786353411728797 77.223044952359984 0.0980392157 0.0980392157 0.0980392157
v 12.419922942115932 -69.715232890946609 84.92605564523933 0.0980392157 0.0980392157 0.0980392157
v 36.464058751639044 -68.601559190536989 62.03150452278858 0.0980392157 0.0980392157 0.0980392157
v 34.919153702732068 -57.786353411728797 77.223044952359984 0.0980392157 0.0980392157 0.0980392157
v 7.3573117504137997 -56.311330656393416 96.030950224177786 0.0980392157 0.0980392157 0.0980392157
v 12.419922942115932 -69.715232890946609 84.92605564523933 0.0980392157 0.0980392157 0.0980392157
v -15.354808626161002 52.86919527561119 99.810807800949334 0.0980392157 0.0980392157 0.0980392157
v -38.011646047256562 54.033898525672839 103.76321561969719 0.0980392157 0.0980392157 0.0980392157
v -25.401352616023814 -56.392968604001396 103.15148234252055 0.0980392157 0.0980392157 0.0980392157
v -59.056931257294991 -61.877624037241446 102.42946066089962 0.0980392157 0.0980392157 0.0980392157
v -97.775060617004556 -63.559601728125791 89.660181313886085 0.0980392157 0.0980392157 0.0980392157
v -59.056931257294991 -61.877624037241446 102.42946066089962 0.0980392157 0.0980392157 0.0980392157
v -68.157003816506347 58.570984874847831 98.934931581595421 0.0980392157 0.0980392157 0.0980392157
v -93.077902383889636 57.545502956522121 84.136848024361484 0.0980392157 0.0980392157 0.0980392157
v -97.775060617004556 -63.559601728125791 89.660181313886085 0.0980392157 0.0980392157 0.0980392157
v -68.157003816506347 58.570984874847831 98.934931581595421 0.0980392157 0.0980392157 0.0980392157
v -108.95455709753972 55.204446133758751 67.249024858614931 0.0980392157 0.0980392157 0.0980392157
v -118.39462526638425 -59.217576345605075 71.734700524257491 0.0980392157 0.0980392157 0.0980392157
v -130.41238768992784 59.405462952109595 20.417090128064018 0.0980392157 0.0980392157 0.0980392157
v -130.58692986576551 -61.95806980961455 48.718129887535838 0.0980392157 0.0980392157 0.0980392157
v -119.6316452377086 62.12323894356112 47.923656545682846 0.0980392157 0.0980392157 0.0980392157
v -137.28728792820118 62.133427969010079 -22.480728745255817 0.0980392157 0.0980392157 0.0980392157
v -130.02225410456793 74.232907073569251 -2.4742830337017261 0.0980392157 0.0980392157 0.0980392157
v -139.604406168396 64.341247228176798 -69.774102222545352 0.0980392157 0.0980392157 0.0980392157
v -132.03104505797992 32.768481459618158 -139.91638853376764 0.0980392157 0.0980392157 0.0980392157
v -132.2831297169526 -21.074118670708174 -127.78546297271191 0.0980392157 0.0980392157 0.0980392157
v -136.38508399682337 3.6489227079403648 -113.85498918363882 0.0980392157 0.0980392157 0.0980392157
v -132.2831297169526 -21.074118670708174 -127.78546297271191 0.0980392157 0.0980392157 0.0980392157
v -139.51669903146845 -32.942371920141142 -53.403638578088533 0.0980392157 0.0980392157 0.0980392157
v -136.38508399682337 3.6489227079403648 -113.85498918363882 0.0980392157 0.0980392157 0.0980392157
v -120.05155844770185 -36.736199941545834 -132.94174138861058 0.0980392157 0.0980392157 0.0980392157
v -132.2831297169526 -21.074118670708174 -127.78546297271191 0.0980392157 0.0980392157 0.0980392157
v -104.94287337485787 -17.481407804772743 -160.92589490812171 0.0980392157 0.0980392157 0.0980392157
v -85.443486823138272 -44.388059804101132 -147.62715686183549 0.0980392157 0.0980392157 0.0980392157
v -52.609684281524075 -58.899509023929802 -120.68014887041809 0.0980392157 0.0980392157 0.0980392157
v -115.97237225445951 -68.773864949160625 -65.662253258890601 0.0980392157 0.0980392157 0.0980392157
v -91.473117923092602 -53.0443927856439 -110.88201708167544 0.0980392157 0.0980392157 0.0980392157
v 18.698401010360385 -68.100107233485431 -74.968196627896745 0.0980392157 0.0980392157 0.0980392157
v -56.009268163347144 -69.413828949579866 -80.820427721584011 0.0980392157 0.0980392157 0.0980392157
v -52.609684281524075 -58.899509023929802 -120.68014887041809 0.0980392157 0.0980392157 0.0980392157
v 3.504777976622222 -52.889843592698782 -122.19781681594934 0.0980392157 0.0980392157 0.0980392157
v 40.546290940441189 -64.100182404504238 -70.181071425011837 0.0980392157 0.0980392157 0.0980392157
v 18.698401010360385 -68.100107233485431 -74.968196627896745 0.0980392157 0.0980392157 0.0980392157
v 59.402577791346289 -58.915958738588657 4.10197950211679 0.0980392157 0.0980392157 0.0980392157
v 57.868079375761717 -61.434299054317819 -43.57277656991316 0.0980392157 0.0980392157 0.0980392157
v 66.826645437459575 -33.701782977546259 -39.69302904337605 0.0980392157 0.0980392157 0.0980392157
v 65.244516329158742 -8.7542023146157657 -18.323299159070242 0.0980392157 0.0980392157 0.0980392157
v 55.1568890113031 -1.7473613593611521 13.825098549347199 0.0980392157 0.0980392157 0.0980392157
v 59.402577791346289 -58.915958738588657 4.10197950211679 0.0980392157 0.0980392157 0.0980392157
v 42.771599874431431 43.914321150738914 32.341899016651283 0.0980392157 0.0980392157 0.0980392157
v 22.615813350929727 48.983925224216868 68.875086024043938 0.0980392157 0.0980392157 0.0980392157
v 34.919153702732068 -57.786353411728797 77.223044952359984 0.0980392157 0.0980392157 0.0980392157
v 7.3005686050829866 57.599609581415621 86.509390257792575 0.0980392157 0.0980392157 0.0980392157
v 34.919153702732068 -57.786353411728797 77.223044952359984 0.0980392157 0.0980392157 0.0980392157
v 49.679776193327925 -59.04412407917669 46.809068240678435 0.0980392157 0.0980392157 0.0980392157
v 42.771599874431431 43.914321150738914 32.341899016651283 0.0980392157 0.0980392157 0.0980392157
v -93.077902383889636 57.545502956522121 84.136848024361484 0.0980392157 0.0980392157 0.0980392157
v -77.694264478958459 69.931766009195883 86.595207385221045 0.0980392157 0.0980392157 0.0980392157
v -108.95455709753972 55.204446133758751 67.249024858614931 0.0980392157 0.0980392157 0.0980392157
v -41.930695785525586 69.700103754162598 97.094529700756425 0.0980392157 0.0980392157 0.0980392157
v -51.5537985533227 81.08946275062172 12.137964012799715 0.0980392157 0.0980392157 0.0980392157
v -103.33510231872685 74.069942016806635 29.26850026267536 0.0980392157 0.0980392157 0.0980392157
v -103.33510231872685 74.069942016806635 29.26850026267536 0.0980392157 0.0980392157 0.0980392157
v -130.02225410456793 74.232907073569251 -2.4742830337017261 0.0980392157 0.0980392157 0.0980392157
v -77.694264478958459 69.931766009195883 86.595207385221045 0.0980392157 0.0980392157 0.0980392157
v -103.33510231872685 74.069942016806635 29.26850026267536 0.0980392157 0.0980392157 0.0980392157
v -116.24956423525154 86.816368482640002 -44.445627175122041 0.0980392157 0.0980392157 0.0980392157
v -130.02225410456793 74.232907073569251 -2.4742830337017261 0.0980392157 0.0980392157 0.0980392157
v -116.24956423525154 86.816368482640002 -44.445627175122041 0.0980392157 0.0980392157 0.0980392157
v -63.398695464509373 99.214310784183738 -107.57736515494005 0.0980392157 0.0980392157 0.0980392157
v -116.98295605387912 87.58106404780078 -69.973618649212611 0.0980392157 0.0980392157 0.0980392157
v -119.02382134532584 73.975289710728532 -135.51762297894595 0.0980392157 0.0980392157 0.0980392157
v -133.58273578047815 77.340398285232467 -64.961428449390965 0.0980392157 0.0980392157 0.0980392157
v -116.98295605387912 87.58106404780078 -69.973618649212611 0.0980392157 0.0980392157 0.0980392157
v -114.26783666450442 55.362272641200434 -159.46843910095325 0.0980392157 0.0980392157 0.0980392157
v -116.20312257636827 13.553841044494916 -162.38851204008037 0.0980392157 0.0980392157 0.0980392157
v -132.03104505797992 32.768481459618158 -139.91638853376764 0.0980392157 0.0980392157 0.0980392157
v -52.609684281524075 -58.899509023929802 -120.68014887041809 0.0980392157 0.0980392157 0.0980392157
v -85.443486823138272 -44.388059804101132 -147.62715686183549 0.0980392157 0.0980392157 0.0980392157
v -55.147788960641378 -45.930347408007904 -148.03613912786065 0.0980392157 0.0980392157 0.0980392157
v 18.698401010360385 -68.100107233485431 -74.968196627896745 0.0980392157 0.0980392157 0.0980392157
v -52.609684281524075 -58.899509023929802 -120.68014887041809 0.0980392157 0.0980392157 0.0980392157
v 3.504777976622222 -52.889843592698782 -122.19781681594934 0.0980392157 0.0980392157 0.0980392157
v 30.093004203104385 -42.111318203168899 -120.39390342401576 0.0980392157 0.0980392157 0.0980392157
v 40.546290940441189 -64.100182404504238 -70.181071425011837 0.0980392157 0.0980392157 0.0980392157
v 3.504777976622222 -52.889843592698782 -122.19781681594934 0.0980392157 0.0980392157 0.0980392157
v 66.299375994225301 -8.9241736595816974 -103.79212689218677 0.0980392157 0.0980392157 0.0980392157
v 58.7077028260967 -31.881039366933084 -102.65807760598146 0.0980392157 0.0980392157 0.0980392157
v 30.093004203104385 -42.111318203168899 -120.39390342401576 0.0980392157 0.0980392157 0.0980392157
v 66.299375994225301 -8.9241736595816974 -103.79212689218677 0.0980392157 0.0980392157 0.0980392157
v 76.70903063489672 24.94196256917127 -94.458980523376439 0.0980392157 0.0980392157 0.0980392157
v 76.627409613823232 -9.7426597948995308 -84.811317927013278 0.0980392157 0.0980392157 0.0980392157
v 76.70903063489672 24.94196256917127 -94.458980523376439 0.0980392157 0.0980392157 0.0980392157
v 82.403349874579931 49.975051043404534 -72.445325023691879 0.0980392157 0.0980392157 0.0980392157
v 82.632515452312774 11.314960937552248 -74.976291178976695 0.0980392157 0.0980392157 0.0980392157
v 65.244516329158742 -8.7542023146157657 -18.323299159070242 0.0980392157 0.0980392157 0.0980392157
v 82.632515452312774 11.314960937552248 -74.976291178976695 0.0980392157 0.0980392157 0.0980392157
v 82.403349874579931 49.975051043404534 -72.445325023691879 0.0980392157 0.0980392157 0.0980392157
v 66.826645437459575 -33.701782977546259 -39.69302904337605 0.0980392157 0.0980392157 0.0980392157
v 82.632515452312774 11.314960937552248 -74.976291178976695 0.0980392157 0.0980392157 0.0980392157
v 65.244516329158742 -8.7542023146157657 -18.323299159070242 0.0980392157 0.0980392157 0.0980392157
v 55.1568890113031 -1.7473613593611521 13.825098549347199 0.0980392157 0.0980392157 0.0980392157
v 65.244516329158742 -8.7542023146157657 -18.323299159070242 0.0980392157 0.0980392157 0.0980392157
v 59.89469686163568 58.885213026152009 -7.4874288884636107 0.0980392157 0.0980392157 0.0980392157
v 22.105958159709008 72.218293389771603 43.508321705005216 0.0980392157 0.0980392157 0.0980392157
v -19.416304644434394 76.94057560052471 32.212647344267545 0.0980392157 0.0980392157 0.0980392157
v -19.248152061700836 69.144402961029868 94.19159812732849 0.0980392157 0.0980392157 0.0980392157
v 67.828955972089858 83.436986696119931 -86.742003906733487 0.0980392157 0.0980392157 0.0980392157
v 45.943826430120311 102.3502232272571 -93.3313073695913 0.0980392157 0.0980392157 0.0980392157
v 62.925521440201834 78.789931328032083 -36.210424126154805 0.0980392157 0.0980392157 0.0980392157
v 67.828955972089858 83.436986696119931 -86.742003906733487 0.0980392157 0.0980392157 0.0980392157
v 82.403349874579931 49.975051043404534 -72.445325023691879 0.0980392157 0.0980392157 0.0980392157
v 67.704893886438526 63.941777209472889 -102.18879571656318 0.0980392157 0.0980392157 0.0980392157
v 67.704893886438526 63.941777209472889 -102.18879571656318 0.0980392157 0.0980392157 0.0980392157
v 66.299375994225301 -8.9241736595816974 -103.79212689218677 0.0980392157 0.0980392157 0.0980392157
v 14.459703722096833 99.69404118516735 -124.94652657749872 0.0980392157 0.0980392157 0.0980392157
v 14.459703722096833 99.69404118516735 -124.94652657749872 0.0980392157 0.0980392157 0.0980392157
v 66.299375994225301 -8.9241736595816974 -103.79212689218677 0.0980392157 0.0980392157 0.0980392157
v -25.500398338300499 46.608623300333107 -137.39603518791236 0.0980392157 0.0980392157 0.0980392157
v -32.360417106498574 97.14697253885538 -141.42637524190249 0.0980392157 0.0980392157 0.0980392157
v -81.348011929661766 90.619760627846233 -154.65345653006165 0.0980392157 0.0980392157 0.0980392157
v -30.890557850491234 107.33771485003606 -132.03230411036367 0.0980392157 0.0980392157 0.0980392157
v -81.348011929661766 90.619760627846233 -154.65345653006165 0.0980392157 0.0980392157 0.0980392157
v -104.94287337485787 -17.481407804772743 -160.92589490812171 0.0980392157 0.0980392157 0.0980392157
v -116.20312257636827 13.553841044494916 -162.38851204008037 0.0980392157 0.0980392157 0.0980392157
v -55.147788960641378 -45.930347408007904 -148.03613912786065 0.0980392157 0.0980392157 0.0980392157
v 30.093004203104385 -42.111318203168899 -120.39390342401576 0.0980392157 0.0980392157 0.0980392157
v 3.504777976622222 -52.889843592698782 -122.19781681594934 0.0980392157 0.0980392157 0.0980392157
v 30.093004203104385 -42.111318203168899 -120.39390342401576 0.0980392157 0.0980392157 0.0980392157
v -55.147788960641378 -45.930347408007904 -148.03613912786065 0.0980392157 0.0980392157 0.0980392157
v -25.500398338300499 46.608623300333107 -137.39603518791236 0.0980392157 0.0980392157 0.0980392157
v -25.500398338300499 46.608623300333107 -137.39603518791236 0.0980392157 0.0980392157 0.0980392157
v -55.147788960641378 -45.930347408007904 -148.03613912786065 0.0980392157 0.0980392157 0.0980392157
v -104.94287337485787 -17.481407804772743 -160.92589490812171 0.0980392157 0.0980392157 0.0980392157
v -32.360417106498574 97.14697253885538 -141.42637524190249 0.0980392157 0.0980392157 0.0980392157
v -25.500398338300499 46.608623300333107 -137.39603518791236 0.0980392157 0.0980392157 0.0980392157
v -81.348011929661766 90.619760627846233 -154.65345653006165 0.0980392157 0.0980392157 0.0980392157
v -100.28369990150657 85.13883212996079 -152.47563138739767 0.0980392157 0.0980392157 0.0980392157
v -96.771568579286978 94.546716361603828 -137.7646349955252 0.0980392157 0.0980392157 0.0980392157
v -63.781428064860904 107.95753205845438 -130.2840036363267 0.0980392157 0.0980392157 0.0980392157
v -30.890557850491234 107.33771485003606 -132.03230411036367 0.0980392157 0.0980392157 0.0980392157
v -63.781428064860904 107.95753205845438 -130.2840036363267 0.0980392157 0.0980392157 0.0980392157
v 11.9007112436922 109.87498985474437 -105.46357142352272 0.0980392157 0.0980392157 0.0980392157
v -32.360417106498574 97.14697253885538 -141.42637524190249 0.0980392157 0.0980392157 0.0980392157
v -30.890557850491234 107.33771485003606 -132.03230411036367 0.0980392157 0.0980392157 0.0980392157
v 14.459703722096833 99.69404118516735 -124.94652657749872 0.0980392157 0.0980392157 0.0980392157
v 49.521390954684421 88.662227549038676 -109.47989195469796 0.0980392157 0.0980392157 0.0980392157
v 67.704893886438526 63.941777209472889 -102.18879571656318 0.0980392157 0.0980392157 0.0980392157
v 14.459703722096833 99.69404118516735 -124.94652657749872 0.0980392157 0.0980392157 0.0980392157
v 45.943826430120311 102.3502232272571 -93.3313073695913 0.0980392157 0.0980392157 0.0980392157
v 14.459703722096833 99.69404118516735 -124.94652657749872 0.0980392157 0.0980392157 0.0980392157
v 11.9007112436922 109.87498985474437 -105.46357142352272 0.0980392157 0.0980392157 0.0980392157
v 11.9007112436922 109.87498985474437 -105.46357142352272 0.0980392157 0.0980392157 0.0980392157
v -19.416304644434394 76.94057560052471 32.212647344267545 0.0980392157 0.0980392157 0.0980392157
v 48.588238180348561 85.01503279660777 -7.4895687944066145 0.0980392157 0.0980392157 0.0980392157
v -63.781428064860904 107.95753205845438 -130.2840036363267 0.0980392157 0.0980392157 0.0980392157
v -15.471416826525235 103.82275299690032 -87.929024900651413 0.0980392157 0.0980392157 0.0980392157
v 11.9007112436922 109.87498985474437 -105.46357142352272 0.0980392157 0.0980392157 0.0980392157
v -63.398695464509373 99.214310784183738 -107.57736515494005 0.0980392157 0.0980392157 0.0980392157
v 48.588238180348561 85.01503279660777 -7.4895687944066145 0.0980392157 0.0980392157 0.0980392157
v 45.943826430120311 102.3502232272571 -93.3313073695913 0.0980392157 0.0980392157 0.0980392157
v 11.9007112436922 109.87498985474437 -105.46357142352272 0.0980392157 0.0980392157 0.0980392157
v 11.9007112436922 109.87498985474437 -105.46357142352272 0.0980392157 0.0980392157 0.0980392157
v -15.471416826525235 103.82275299690032 -87.929024900651413 0.0980392157 0.0980392157 0.0980392157
v -19.416304644434394 76.94057560052471 32.212647344267545 0.0980392157 0.0980392157 0.0980392157
v -19.416304644434394 76.94057560052471 32.212647344267545 0.0980392157 0.0980392157 0.0980392157
v -15.471416826525235 103.82275299690032 -87.929024900651413 0.0980392157 0.0980392157 0.0980392157
v -51.5537985533227 81.08946275062172 12.137964012799715 0.0980392157 0.0980392157 0.0980392157
v -63.398695464509373 99.214310784183738 -107.57736515494005 0.0980392157 0.0980392157 0.0980392157
v -63.781428064860904 107.95753205845438 -130.2840036363267 0.0980392157 0.0980392157 0.0980392157
v -103.22106030078733 85.21121195900362 -122.60396264250282 0.0980392157 0.0980392157 0.0980392157
v 59.89469686163568 58.885213026152009 -7.4874288884636107 0.0980392157 0.0980392157 0.0980392157
v 48.588238180348561 85.01503279660777 -7.4895687944066145 0.0980392157 0.0980392157 0.0980392157
v 22.615813350929727 48.983925224216868 68.875086024043938 0.0980392157 0.0980392157 0.0980392157
v -116.24956423525154 86.816368482640002 -44.445627175122041 0.0980392157 0.0980392157 0.0980392157
v -51.5537985533227 81.08946275062172 12.137964012799715 0.0980392157 0.0980392157 0.0980392157
v -15.471416826525235 103.82275299690032 -87.929024900651413 0.0980392157 0.0980392157 0.0980392157
v 40.546290940441189 -64.100182404504238 -70.181071425011837 0.0980392157 0.0980392157 0.0980392157
v 57.868079375761717 -61.434299054317819 -43.57277656991316 0.0980392157 0.0980392157 0.0980392157
v 43.703651679203055 -69.765530251392505 -39.732915902480457 0.0980392157 0.0980392157 0.0980392157
v 58.7077028260967 -31.881039366933084 -102.65807760598146 0.0980392157 0.0980392157 0.0980392157
v -115.97237225445951 -68.773864949160625 -65.662253258890601 0.0980392157 0.0980392157 0.0980392157
v -126.65108905234541 -69.846287729044931 19.987533583109801 0.0980392157 0.0980392157 0.0980392157
v -132.66715207685604 -64.797920425152867 -27.054550725597878 0.0980392157 0.0980392157 0.0980392157
v -115.97237225445951 -68.773864949160625 -65.662253258890601 0.0980392157 0.0980392157 0.0980392157
v -132.66715207685604 -64.797920425152867 -27.054550725597878 0.0980392157 0.0980392157 0.0980392157
v -132.54401058345451 -50.249056693891774 -65.662694618986123 0.0980392157 0.0980392157 0.0980392157
v -115.97237225445951 -68.773864949160625 -65.662253258890601 0.0980392157 0.0980392157 0.0980392157
v -132.54401058345451 -50.249056693891774 -65.662694618986123 0.0980392157 0.0980392157 0.0980392157
v -126.22691464687314 -41.335918904412424 -95.24256987075556 0.0980392157 0.0980392157 0.0980392157
v -132.66715207685604 -64.797920425152867 -27.054550725597878 0.0980392157 0.0980392157 0.0980392157
v -136.19273974697484 -61.167696593274194 11.55212126064057 0.0980392157 0.0980392157 0.0980392157
v -139.51669903146845 -32.942371920141142 -53.403638578088533 0.0980392157 0.0980392157 0.0980392157
v -130.58692986576551 -61.95806980961455 48.718129887535838 0.0980392157 0.0980392157 0.0980392157
v -136.19273974697484 -61.167696593274194 11.55212126064057 0.0980392157 0.0980392157 0.0980392157
v -126.65108905234541 -69.846287729044931 19.987533583109801 0.0980392157 0.0980392157 0.0980392157
v -132.66715207685604 -64.797920425152867 -27.054550725597878 0.0980392157 0.0980392157 0.0980392157
v -109.10092372723604 -69.092566847464298 68.21193388442245 0.0980392157 0.0980392157 0.0980392157
v -118.39462526638425 -59.217576345605075 71.734700524257491 0.0980392157 0.0980392157 0.0980392157
v -130.58692986576551 -61.95806980961455 48.718129887535838 0.0980392157 0.0980392157 0.0980392157
v -126.65108905234541 -69.846287729044931 19.987533583109801 0.0980392157 0.0980392157 0.0980392157
v -132.2831297169526 -21.074118670708174 -127.78546297271191 0.0980392157 0.0980392157 0.0980392157
v -120.05155844770185 -36.736199941545834 -132.94174138861058 0.0980392157 0.0980392157 0.0980392157
v -126.22691464687314 -41.335918904412424 -95.24256987075556 0.0980392157 0.0980392157 0.0980392157
v -139.51669903146845 -32.942371920141142 -53.403638578088533 0.0980392157 0.0980392157 0.0980392157
v -139.51669903146845 -32.942371920141142 -53.403638578088533 0.0980392157 0.0980392157 0.0980392157
v -126.22691464687314 -41.335918904412424 -95.24256987075556 0.0980392157 0.0980392157 0.0980392157
v -132.54401058345451 -50.249056693891774 -65.662694618986123 0.0980392157 0.0980392157 0.0980392157
v 76.627409613823232 -9.7426597948995308 -84.811317927013278 0.0980392157 0.0980392157 0.0980392157
v 66.826645437459575 -33.701782977546259 -39.69302904337605 0.0980392157 0.0980392157 0.0980392157
v 57.868079375761717 -61.434299054317819 -43.57277656991316 0.0980392157 0.0980392157 0.0980392157
v -115.97237225445951 -68.773864949160625 -65.662253258890601 0.0980392157 0.0980392157 0.0980392157
v -126.22691464687314 -41.335918904412424 -95.24256987075556 0.0980392157 0.0980392157 0.0980392157
v -91.473117923092602 -53.0443927856439 -110.88201708167544 0.0980392157 0.0980392157 0.0980392157
v 7.3573117504137997 -56.311330656393416 96.030950224177786 0.0980392157 0.0980392157 0.0980392157
v -59.056931257294991 -61.877624037241446 102.42946066089962 0.0980392157 0.0980392157 0.0980392157
v -97.775060617004556 -63.559601728125791 89.660181313886085 0.0980392157 0.0980392157 0.0980392157
v -23.835347126176202 -69.441079519880958 96.825867147648495 0.0980392157 0.0980392157 0.0980392157
v -23.835347126176202 -69.441079519880958 96.825867147648495 0.0980392157 0.0980392157 0.0980392157
v -97.775060617004556 -63.559601728125791 89.660181313886085 0.0980392157 0.0980392157 0.0980392157
v -109.10092372723604 -69.092566847464298 68.21193388442245 0.0980392157 0.0980392157 0.0980392157
v -23.835347126176202 -69.441079519880958 96.825867147648495 0.0980392157 0.0980392157 0.0980392157
v -132.2831297169526 -21.074118670708174 -127.78546297271191 0.0980392157 0.0980392157 0.0980392157
v -132.03104505797992 32.768481459618158 -139.91638853376764 0.0980392157 0.0980392157 0.0980392157
v -116.20312257636827 13.553841044494916 -162.38851204008037 0.0980392157 0.0980392157 0.0980392157
v -85.443486823138272 -44.388059804101132 -147.62715686183549 0.0980392157 0.0980392157 0.0980392157
v -91.473117923092602 -53.0443927856439 -110.88201708167544 0.0980392157 0.0980392157 0.0980392157
v -120.05155844770185 -36.736199941545834 -132.94174138861058 0.0980392157 0.0980392157 0.0980392157
v -85.443486823138272 -44.388059804101132 -147.62715686183549 0.0980392157 0.0980392157 0.0980392157
v -52.609684281524075 -58.899509023929802 -120.68014887041809 0.0980392157 0.0980392157 0.0980392157
v -91.473117923092602 -53.0443927856439 -110.88201708167544 0.0980392157 0.0980392157 0.0980392157
v -52.609684281524075 -58.899509023929802 -120.68014887041809 0.0980392157 0.0980392157 0.0980392157
v -56.009268163347144 -69.413828949579866 -80.820427721584011 0.0980392157 0.0980392157 0.0980392157
v -115.97237225445951 -68.773864949160625 -65.662253258890601 0.0980392157 0.0980392157 0.0980392157
v 57.868079375761717 -61.434299054317819 -43.57277656991316 0.0980392157 0.0980392157 0.0980392157
v 59.402577791346289 -58.915958738588657 4.10197950211679 0.0980392157 0.0980392157 0.0980392157
v 53.065430905155331 -68.809003349273468 6.9954245961810475 0.0980392157 0.0980392157 0.0980392157
v -41.930695785525586 69.700103754162598 97.094529700756425 0.0980392157 0.0980392157 0.0980392157
v -77.694264478958459 69.931766009195883 86.595207385221045 0.0980392157 0.0980392157 0.0980392157
v -68.157003816506347 58.570984874847831 98.934931581595421 0.0980392157 0.0980392157 0.0980392157
v -68.157003816506347 58.570984874847831 98.934931581595421 0.0980392157 0.0980392157 0.0980392157
v -103.22106030078733 85.21121195900362 -122.60396264250282 0.0980392157 0.0980392157 0.0980392157
v -96.771568579286978 94.546716361603828 -137.7646349955252 0.0980392157 0.0980392157 0.0980392157
v -119.02382134532584 73.975289710728532 -135.51762297894595 0.0980392157 0.0980392157 0.0980392157
v 58.7077028260967 -31.881039366933084 -102.65807760598146 0.0980392157 0.0980392157 0.0980392157
v 66.299375994225301 -8.9241736595816974 -103.79212689218677 0.0980392157 0.0980392157 0.0980392157
v 76.627409613823232 -9.7426597948995308 -84.811317927013278 0.0980392157 0.0980392157 0.0980392157
v 58.7077028260967 -31.881039366933084 -102.65807760598146 0.0980392157 0.0980392157 0.0980392157
v 82.632515452312774 11.314960937552248 -74.976291178976695 0.0980392157 0.0980392157 0.0980392157
v 76.627409613823232 -9.7426597948995308 -84.811317927013278 0.0980392157 0.0980392157 0.0980392157
v 22.615813350929727 48.983925224216868 68.875086024043938 0.0980392157 0.0980392157 0.0980392157
v 48.588238180348561 85.01503279660777 -7.4895687944066145 0.0980392157 0.0980392157 0.0980392157
v 22.105958159709008 72.218293389771603 43.508321705005216 0.0980392157 0.0980392157 0.0980392157
v 22.615813350929727 48.983925224216868 68.875086024043938 0.0980392157 0.0980392157 0.0980392157
v 22.105958159709008 72.218293389771603 43.508321705005216 0.0980392157 0.0980392157 0.0980392157
v 7.3005686050829866 57.599609581415621 86.509390257792575 0.0980392157 0.0980392157 0.0980392157
v -19.248152061700836 69.144402961029868 94.19159812732849 0.0980392157 0.0980392157 0.0980392157
v 7.3005686050829866 57.599609581415621 86.509390257792575 0.0980392157 0.0980392157 0.0980392157
v 22.105958159709008 72.218293389771603 43.508321705005216 0.0980392157 0.0980392157 0.0980392157
v 48.588238180348561 85.01503279660777 -7.4895687944066145 0.0980392157 0.0980392157 0.0980392157
v 62.925521440201834 78.789931328032083 -36.210424126154805 0.0980392157 0.0980392157 0.0980392157
v 45.943826430120311 102.3502232272571 -93.3313073695913 0.0980392157 0.0980392157 0.0980392157
v 76.70903063489672 24.94196256917127 -94.458980523376439 0.0980392157 0.0980392157 0.0980392157
v 66.299375994225301 -8.9241736595816974 -103.79212689218677 0.0980392157 0.0980392157 0.0980392157
v 67.704893886438526 63.941777209472889 -102.18879571656318 0.0980392157 0.0980392157 0.0980392157
v 14.459703722096833 99.69404118516735 -124.94652657749872 0.0980392157 0.0980392157 0.0980392157
v 45.943826430120311 102.3502232272571 -93.3313073695913 0.0980392157 0.0980392157 0.0980392157
v 49.521390954684421 88.662227549038676 -109.47989195469796 0.0980392157 0.0980392157 0.0980392157
v 45.943826430120311 102.3502232272571 -93.3313073695913 0.0980392157 0.0980392157 0.0980392157
v 67.828955972089858 83.436986696119931 -86.742003906733487 0.0980392157 0.0980392157 0.0980392157
v 49.521390954684421 88.662227549038676 -109.47989195469796 0.0980392157 0.0980392157 0.0980392157
v 67.704893886438526 63.941777209472889 -102.18879571656318 0.0980392157 0.0980392157 0.0980392157
v -132.54401058345451 -50.249056693891774 -65.662694618986123 0.0980392157 0.0980392157 0.0980392157
v -93.077902383889636 57.545502956522121 84.136848024361484 0.0980392157 0.0980392157 0.0980392157
v -118.39462526638425 -59.217576345605075 71.734700524257491 0.0980392157 0.0980392157 0.0980392157
v -97.775060617004556 -63.559601728125791 89.660181313886085 0.0980392157 0.0980392157 0.0980392157
v -126.65108905234541 -69.846287729044931 19.987533583109801 0.0980392157 0.0980392157 0.0980392157
v -23.835347126176202 -69.441079519880958 96.825867147648495 0.0980392157 0.0980392157 0.0980392157
v -109.10092372723604 -69.092566847464298 68.21193388442245 0.0980392157 0.0980392157 0.0980392157
v 12.419922942115932 -69.715232890946609 84.92605564523933 0.0980392157 0.0980392157 0.0980392157
v -126.65108905234541 -69.846287729044931 19.987533583109801 0.0980392157 0.0980392157 0.0980392157
v 43.703651679203055 -69.765530251392505 -39.732915902480457 0.0980392157 0.0980392157 0.0980392157
v 7.3573117504137997 -56.311330656393416 96.030950224177786 0.0980392157 0.0980392157 0.0980392157
v -127.02735053001702 60.008796546847478 -139.18381319204957 0.0980392157 0.0980392157 0.0980392157
v -119.02382134532584 73.975289710728532 -135.51762297894595 0.0980392157 0.0980392157 0.0980392157
v -100.28369990150657 85.13883212996079 -152.47563138739767 0.0980392157 0.0980392157 0.0980392157
v -100.28369990150657 85.13883212996079 -152.47563138739767 0.0980392157 0.0980392157 0.0980392157
v -114.26783666450442 55.362272641200434 -159.46843910095325 0.0980392157 0.0980392157 0.0980392157
v -127.02735053001702 60.008796546847478 -139.18381319204957 0.0980392157 0.0980392157 0.0980392157
v -32.360417106498574 97.14697253885538 -141.42637524190249 0.0980392157 0.0980392157 0.0980392157
v 14.459703722096833 99.69404118516735 -124.94652657749872 0.0980392157 0.0980392157 0.0980392157
v -25.500398338300499 46.608623300333107 -137.39603518791236 0.0980392157 0.0980392157 0.0980392157
v -139.51669903146845 -32.942371920141142 -53.403638578088533 0.0980392157 0.0980392157 0.0980392157
v -136.19273974697484 -61.167696593274194 11.55212126064057 0.0980392157 0.0980392157 0.0980392157
v -137.28728792820118 62.133427969010079 -22.480728745255817 0.0980392157 0.0980392157 0.0980392157
v -132.03104505797992 32.768481459618158 -139.91638853376764 0.0980392157 0.0980392157 0.0980392157
v -139.604406168396 64.341247228176798 -69.774102222545352 0.0980392157 0.0980392157 0.0980392157
v -127.02735053001702 60.008796546847478 -139.18381319204957 0.0980392157 0.0980392157 0.0980392157
v 18.698401010360385 -68.100107233485431 -74.968196627896745 0.0980392157 0.0980392157 0.0980392157
v 43.703651679203055 -69.765530251392505 -39.732915902480457 0.0980392157 0.0980392157 0.0980392157
v -56.009268163347144 -69.413828949579866 -80.820427721584011 0.0980392157 0.0980392157 0.0980392157
v 7.3005686050829866 57.599609581415621 86.509390257792575 0.0980392157 0.0980392157 0.0980392157
v 7.3573117504137997 -56.311330656393416 96.030950224177786 0.0980392157 0.0980392157 0.0980392157
v 34.919153702732068 -57.786353411728797 77.223044952359984 0.0980392157 0.0980392157 0.0980392157
v -15.354808626161002 52.86919527561119 99.810807800949334 0.0980392157 0.0980392157 0.0980392157
v -103.33510231872685 74.069942016806635 29.26850026267536 0.0980392157 0.0980392157 0.0980392157
v -51.5537985533227 81.08946275062172 12.137964012799715 0.0980392157 0.0980392157 0.0980392157
v -116.24956423525154 86.816368482640002 -44.445627175122041 0.0980392157 0.0980392157 0.0980392157
v 42.771599874431431 43.914321150738914 32.341899016651283 0.0980392157 0.0980392157 0.0980392157
v 59.89469686163568 58.885213026152009 -7.4874288884636107 0.0980392157 0.0980392157 0.0980392157
v 22.615813350929727 48.983925224216868 68.875086024043938 0.0980392157 0.0980392157 0.0980392157
v -41.930695785525586 69.700103754162598 97.094529700756425 0.0980392157 0.0980392157 0.0980392157
v 82.403349874579931 49.975051043404534 -72.445325023691879 0.0980392157 0.0980392157 0.0980392157
v 67.828955972089858 83.436986696119931 -86.742003906733487 0.0980392157 0.0980392157 0.0980392157
v 62.925521440201834 78.789931328032083 -36.210424126154805 0.0980392157 0.0980392157 0.0980392157
v -114.26783666450442 55.362272641200434 -159.46843910095325 0.0980392157 0.0980392157 0.0980392157
v -81.348011929661766 90.619760627846233 -154.65345653006165 0.0980392157 0.0980392157 0.0980392157
v -116.20312257636827 13.553841044494916 -162.38851204008037 0.0980392157 0.0980392157 0.0980392157
v -81.348011929661766 90.619760627846233 -154.65345653006165 0.0980392157 0.0980392157 0.0980392157
v -114.26783666450442 55.362272641200434 -159.46843910095325 0.0980392157 0.0980392157 0.0980392157
v -100.28369990150657 85.13883212996079 -152.47563138739767 0.0980392157 0.0980392157 0.0980392157
v -104.94287337485787 -17.481407804772743 -160.92589490812171 0.0980392157 0.0980392157 0.0980392157
v -81.348011929661766 90.619760627846233 -154.65345653006165 0.0980392157 0.0980392157 0.0980392157
v -25.500398338300499 46.608623300333107 -137.39603518791236 0.0980392157 0.0980392157 0.0980392157
v 11.9007112436922 109.87498985474437 -105.46357142352272 0.0980392157 0.0980392157 0.0980392157
v 14.459703722096833 99.69404118516735 -124.94652657749872 0.0980392157 0.0980392157 0.0980392157
v -30.890557850491234 107.33771485003606 -132.03230411036367 0.0980392157 0.0980392157 0.0980392157
v -15.471416826525235 103.82275299690032 -87.929024900651413 0.0980392157 0.0980392157 0.0980392157
v -63.398695464509373 99.214310784183738 -107.57736515494005 0.0980392157 0.0980392157 0.0980392157
v -116.24956423525154 86.816368482640002 -44.445627175122041 0.0980392157 0.0980392157 0.0980392157
v 62.925521440201834 78.789931328032083 -36.210424126154805 0.0980392157 0.0980392157 0.0980392157
v 59.89469686163568 58.885213026152009 -7.4874288884636107 0.0980392157 0.0980392157 0.0980392157
v 82.403349874579931 49.975051043404534 -72.445325023691879 0.0980392157 0.0980392157 0.0980392157
v -139.51669903146845 -32.942371920141142 -53.403638578088533 0.0980392157 0.0980392157 0.0980392157
v -137.28728792820118 62.133427969010079 -22.480728745255817 0.0980392157 0.0980392157 0.0980392157
v -139.604406168396 64.341247228176798 -69.774102222545352 0.0980392157 0.0980392157 0.0980392157
v -130.58692986576551 -61.95806980961455 48.718129887535838 0.0980392157 0.0980392157 0.0980392157
v -137.28728792820118 62.133427969010079 -22.480728745255817 0.0980392157 0.0980392157 0.0980392157
v -136.19273974697484 -61.167696593274194 11.55212126064057 0.0980392157 0.0980392157 0.0980392157
v 53.065430905155331 -68.809003349273468 6.9954245961810475 0.0980392157 0.0980392157 0.0980392157
v 12.419922942115932 -69.715232890946609 84.92605564523933 0.0980392157 0.0980392157 0.0980392157
v 43.703651679203055 -69.765530251392505 -39.732915902480457 0.0980392157 0.0980392157 0.0980392157
v 49.679776193327925 -59.04412407917669 46.809068240678435 0.0980392157 0.0980392157 0.0980392157
v -77.694264478958459 69.931766009195883 86.595207385221045 0.0980392157 0.0980392157 0.0980392157
v -130.02225410456793 74.232907073569251 -2.4742830337017261 0.0980392157 0.0980392157 0.0980392157
v -119.6316452377086 62.12323894356112 47.923656545682846 0.0980392157 0.0980392157 0.0980392157
v -130.02225410456793 74.232907073569251 -2.4742830337017261 0.0980392157 0.0980392157 0.0980392157
v -130.41238768992784 59.405462952109595 20.417090128064018 0.0980392157 0.0980392157 0.0980392157
v -119.6316452377086 62.12323894356112 47.923656545682846 0.0980392157 0.0980392157 0.0980392157
v -137.28728792820118 62.133427969010079 -22.480728745255817 0.0980392157 0.0980392157 0.0980392157
v -130.41238768992784 59.405462952109595 20.417090128064018 0.0980392157 0.0980392157 0.0980392157
v -130.02225410456793 74.232907073569251 -2.4742830337017261 0.0980392157 0.0980392157 0.0980392157
v -116.24956423525154 86.816368482640002 -44.445627175122041 0.0980392157 0.0980392157 0.0980392157
v -116.98295605387912 87.58106404780078 -69.973618649212611 0.0980392157 0.0980392157 0.0980392157
v -133.58273578047815 77.340398285232467 -64.961428449390965 0.0980392157 0.0980392157 0.0980392157
v -119.02382134532584 73.975289710728532 -135.51762297894595 0.0980392157 0.0980392157 0.0980392157
v -133.58273578047815 77.340398285232467 -64.961428449390965 0.0980392157 0.0980392157 0.0980392157
v -139.604406168396 64.341247228176798 -69.774102222545352 0.0980392157 0.0980392157 0.0980392157
v -132.03104505797992 32.768481459618158 -139.91638853376764 0.0980392157 0.0980392157 0.0980392157
v -136.38508399682337 3.6489227079403648 -113.85498918363882 0.0980392157 0.0980392157 0.0980392157
v 40.546290940441189 -64.100182404504238 -70.181071425011837 0.0980392157 0.0980392157 0.0980392157
v 43.703651679203055 -69.765530251392505 -39.732915902480457 0.0980392157 0.0980392157 0.0980392157
v 18.698401010360385 -68.100107233485431 -74.968196627896745 0.0980392157 0.0980392157 0.0980392157
v 43.703651679203055 -69.765530251392505 -39.732915902480457 0.0980392157 0.0980392157 0.0980392157
v 57.868079375761717 -61.434299054317819 -43.57277656991316 0.0980392157 0.0980392157 0.0980392157
v 53.065430905155331 -68.809003349273468 6.9954245961810475 0.0980392157 0.0980392157 0.0980392157
v 66.826645437459575 -33.701782977546259 -39.69302904337605 0.0980392157 0.0980392157 0.0980392157
v -68.157003816506347 58.570984874847831 98.934931581595421 0.0980392157 0.0980392157 0.0980392157
v -38.011646047256562 54.033898525672839 103.76321561969719 0.0980392157 0.0980392157 0.0980392157
v -41.930695785525586 69.700103754162598 97.094529700756425 0.0980392157 0.0980392157 0.0980392157
v -103.22106030078733 85.21121195900362 -122.60396264250282 0.0980392157 0.0980392157 0.0980392157
v -55.147788960641378 -45.930347408007904 -148.03613912786065 0.0980392157 0.0980392157 0.0980392157
v -85.443486823138272 -44.388059804101132 -147.62715686183549 0.0980392157 0.0980392157 0.0980392157
v -104.94287337485787 -17.481407804772743 -160.92589490812171 0.0980392157 0.0980392157 0.0980392157
v 59.89469686163568 58.885213026152009 -7.4874288884636107 0.0980392157 0.0980392157 0.0980392157
v 62.925521440201834 78.789931328032083 -36.210424126154805 0.0980392157 0.0980392157 0.0980392157
v 48.588238180348561 85.01503279660777 -7.4895687944066145 0.0980392157 0.0980392157 0.0980392157
v -63.781428064860904 107.95753205845438 -130.2840036363267 0.0980392157 0.0980392157 0.0980392157
v -81.348011929661766 90.619760627846233 -154.65345653006165 0.0980392157 0.0980392157 0.0980392157
v -100.28369990150657 85.13883212996079 -152.47563138739767 0.0980392157 0.0980392157 0.0980392157
v -30.890557850491234 107.33771485003606 -132.03230411036367 0.0980392157 0.0980392157 0.0980392157
v -25.500398338300499 46.608623300333107 -137.39603518791236 0.0980392157 0.0980392157 0.0980392157
v 66.299375994225301 -8.9241736595816974 -103.79212689218677 0.0980392157 0.0980392157 0.0980392157
v 30.093004203104385 -42.111318203168899 -120.39390342401576 0.0980392157 0.0980392157 0.0980392157
v -116.24956423525154 86.816368482640002 -44.445627175122041 0.0980392157 0.0980392157 0.0980392157
v -133.58273578047815 77.340398285232467 -64.961428449390965 0.0980392157 0.0980392157 0.0980392157
v -130.02225410456793 74.232907073569251 -2.4742830337017261 0.0980392157 0.0980392157 0.0980392157
v -104.94287337485787 -17.481407804772743 -160.92589490812171 0.0980392157 0.0980392157 0.0980392157
v 42.771599874431431 43.914321150738914 32.341899016651283 0.0980392157 0.0980392157 0.0980392157
v 49.679776193327925 -59.04412407917669 46.809068240678435 0.0980392157 0.0980392157 0.0980392157
v 55.1568890113031 -1.7473613593611521 13.825098549347199 0.0980392157 0.0980392157 0.0980392157
v -19.248152061700836 69.144402961029868 94.19159812732849 0.0980392157 0.0980392157 0.0980392157
v -41.930695785525586 69.700103754162598 97.094529700756425 0.0980392157 0.0980392157 0.0980392157
v -38.011646047256562 54.033898525672839 103.76321561969719 0.0980392157 0.0980392157 0.0980392157
v 82.403349874579931 49.975051043404534 -72.445325023691879 0.0980392157 0.0980392157 0.0980392157
v 76.70903063489672 24.94196256917127 -94.458980523376439 0.0980392157 0.0980392157 0.0980392157
v 67.704893886438526 63.941777209472889 -102.18879571656318 0.0980392157 0.0980392157 0.0980392157
v -109.10092372723604 -69.092566847464298 68.21193388442245 0.0980392157 0.0980392157 0.0980392157
v -97.775060617004556 -63.559601728125791 89.660181313886085 0.0980392157 0.0980392157 0.0980392157
v -118.39462526638425 -59.217576345605075 71.734700524257491 0.0980392157 0.0980392157 0.0980392157
v -118.39462526638425 -59.217576345605075 71.734700524257491 0.0980392157 0.0980392157 0.0980392157
v -38.011646047256562 54.033898525672839 103.76321561969719 0.0980392157 0.0980392157 0.0980392157
v -133.58273578047815 77.340398285232467 -64.961428449390965 0.0980392157 0.0980392157 0.0980392157
v 49.679776193327925 -59.04412407917669 46.809068240678435 0.0980392157 0.0980392157 0.0980392157
v -15.354808626161002 52.86919527561119 99.810807800949334 0.0980392157 0.0980392157 0.0980392157
v 7.3005686050829866 57.599609581415621 86.509390257792575 0.0980392157 0.0980392157 0.0980392157
v -19.248152061700836 69.144402961029868 94.19159812732849 0.0980392157 0.0980392157 0.0980392157
v -119.6316452377086 62.12323894356112 47.923656545682846 0.0980392157 0.0980392157 0.0980392157
v -119.02382134532584 73.975289710728532 -135.51762297894595 0.0980392157 0.0980392157 0.0980392157
v -96.771568579286978 94.546716361603828 -137.7646349955252 0.0980392157 0.0980392157 0.0980392157
v -100.28369990150657 85.13883212996079 -152.47563138739767 0.0980392157 0.0980392157 0.0980392157
v -52.609684281524075 -58.899509023929802 -120.68014887041809 0.0980392157 0.0980392157 0.0980392157
v -55.147788960641378 -45.930347408007904 -148.03613912786065 0.0980392157 0.0980392157 0.0980392157
v 3.504777976622222 -52.889843592698782 -122.19781681594934 0.0980392157 0.0980392157 0.0980392157
v 59.89469686163568 58.885213026152009 -7.4874288884636107 0.0980392157 0.0980392157 0.0980392157
v 42.771599874431431 43.914321150738914 32.341899016651283 0.0980392157 0.0980392157 0.0980392157
v 55.1568890113031 -1.7473613593611521 13.825098549347199 0.0980392157 0.0980392157 0.0980392157
v -19.416304644434394 76.94057560052471 32.212647344267545 0.0980392157 0.0980392157 0.0980392157
v 22.105958159709008 72.218293389771603 43.508321705005216 0.0980392157 0.0980392157 0.0980392157
v 48.588238180348561 85.01503279660777 -7.4895687944066145 0.0980392157 0.0980392157 0.0980392157
v -77.694264478958459 69.931766009195883 86.595207385221045 0.0980392157 0.0980392157 0.0980392157
v -103.22106030078733 85.21121195900362 -122.60396264250282 0.0980392157 0.0980392157 0.0980392157
v -116.98295605387912 87.58106404780078 -69.973618649212611 0.0980392157 0.0980392157 0.0980392157
v -63.398695464509373 99.214310784183738 -107.57736515494005 0.0980392157 0.0980392157 0.0980392157
v -127.02735053001702 60.008796546847478 -139.18381319204957 0.0980392157 0.0980392157 0.0980392157
v 59.89469686163568 58.885213026152009 -7.4874288884636107 0.0980392157 0.0980392157 0.0980392157
v -96.771568579286978 94.546716361603828 -137.7646349955252 0.0980392157 0.0980392157 0.0980392157
v -15.354808626161002 52.86919527561119 99.810807800949334 0.0980392157 0.0980392157 0.0980392157
vn -0.99827837944030762 -0.043700490146875381 -0.039122492074966431
vn -0.99973511695861816 0.018938628956675529 -0.013075706548988819
vn -0.99163830280303955 -0.044477969408035278 -0.12114106118679047
vn -0.012470709159970284 0.98253494501113892 0.18565978109836578
vn 0.018463747575879097 0.99497777223587036 0.098378755152225494
vn 0.018409430980682373 0.98496437072753906 0.17177379131317139
vn 0.76406586170196533 -0.63536536693572998 -0.11186674237251282
vn 0.75138401985168457 -0.59811526536941528 -0.27871158719062805
vn 0.88600099086761475 -0.43600335717201233 -0.15780778229236603
vn -0.36557957530021667 -0.9231300950050354 -0.11908964812755585
vn -0.44261431694030762 -0.89490312337875366 -0.056929372251033783
vn -0.42973035573959351 -0.87513989210128784 -0.22240056097507477
vn 0.00010488044063095003 -0.99999898672103882 -0.0014115966623649001
vn 0.0012601000489667058 -0.99999868869781494 -0.0010028494289144874
vn -0.001076126703992486 -0.99999940395355225 0.00029834697488695383
vn -0.9758877158164978 0.013383270241320133 0.21786253154277802
vn -0.97279864549636841 0.059195868670940399 0.22396117448806763
vn -0.99173319339752197 0.034285549074411392 0.12365200370550156
vn -0.90180617570877075 0.07892947643995285 0.42487150430679321
vn -0.9263606071472168 0.085888996720314026 0.3667140007019043
vn -0.86032825708389282 0.088134519755840302 0.50206339359283447
vn 0.083278529345989227 -0.54174453020095825 0.83640754222869873
vn 0.09274166077375412 -0.18859495222568512 0.97766607999801636
vn -0.031138652935624123 -0.32833006978034973 0.9440496563911438
vn -0.0020687535870820284 -0.99999654293060303 -0.0016349760117009282
vn 0.00092572101857513189 -0.99996644258499146 0.0081385066732764244
vn 0.00019107059051748365 -0.99994879961013794 0.01011566910892725
vn -0.0099144140258431435 -0.9999505877494812 -0.0007015261217020452
vn -0.013102179393172264 -0.99986547231674194 -0.0098659340292215347
vn -0.0023673742543905973 -0.9999658465385437 -0.0079187406226992607
vn 0.0276467464864254 -0.99947816133499146 0.016704944893717766
vn 0.049128156155347824 -0.9987303614616394 0.011140319518744946
vn 0.048654381185770035 -0.99862617254257202 0.019454047083854675
vn 0.61695826053619385 -0.74734026193618774 0.24666786193847656
vn 0.68439632654190063 -0.71584290266036987 0.13845789432525635
vn 0.89865642786026001 -0.32282382249832153 0.29698726534843445
vn 0.91816765069961548 -0.34659871459007263 0.19193103909492493
vn 0.77462595701217651 -0.23904293775558472 0.58550238609313965
vn 0.45179462432861328 -0.75617289543151855 0.47337526082992554
vn 0.61929136514663696 -0.68425071239471436 0.38507026433944702
vn 0.56158977746963501 -0.24472199380397797 0.79039740562438965
vn 0.39527660608291626 -0.19588632881641388 0.89743244647979736
vn 0.34743151068687439 -0.64767134189605713 0.67809528112411499
vn 0.19770112633705139 0.0072757164016366005 0.98023533821105957
vn 0.073804743587970734 -0.00067058904096484184 0.99727249145507812
vn 0.099124334752559662 0.0043847444467246532 0.99506539106369019
vn -0.047608576714992523 -0.0057068783789873123 0.99884974956512451
vn -0.36739099025726318 0.025598339736461639 0.92971426248550415
vn -0.19380588829517365 0.0069723259657621384 0.98101514577865601
vn -0.29045253992080688 0.01320903655141592 0.95679819583892822
vn -0.63254523277282715 0.064553156495094299 0.77182865142822266
vn -0.55087357759475708 0.062566421926021576 0.83224022388458252
vn -0.49912503361701965 0.04229128360748291 0.86549735069274902
vn -0.7281336784362793 0.081376440823078156 0.68058741092681885
vn -0.69650059938430786 0.087450206279754639 0.7122073769569397
vn -0.9387858510017395 0.088586680591106415 0.33291670680046082
vn -0.92815113067626953 0.02502279169857502 0.37136140465736389
vn -0.89185333251953125 0.1027657762169838 0.44049611687660217
vn -0.98196554183959961 0.16608120501041412 0.090336613357067108
vn -0.93162995576858521 0.341554194688797 0.12412238121032715
vn -0.98288959264755249 0.18270978331565857 0.023348130285739899
vn -0.96193832159042358 -0.015246186405420303 -0.27284091711044312
vn -0.94789427518844604 -0.084107339382171631 -0.30728229880332947
vn -0.97869575023651123 -0.021016992628574371 -0.2042374312877655
vn -0.99091720581054688 -0.071997717022895813 -0.11357565969228745
vn -0.99409955739974976 -0.1075374111533165 -0.014205706305801868
vn -0.99377542734146118 -0.03041369840502739 -0.10717017948627472
vn -0.44279098510742188 -0.45679327845573425 -0.77154135704040527
vn -0.48947590589523315 -0.30530554056167603 -0.81682425737380981
vn -0.70966976881027222 -0.60151934623718262 -0.36680138111114502
vn -0.47999584674835205 -0.74948018789291382 -0.45594233274459839
vn -0.12482250481843948 -0.91507446765899658 -0.38348153233528137
vn -0.21903851628303528 -0.87178081274032593 -0.43820130825042725
vn -0.24984830617904663 -0.86691653728485107 -0.43131378293037415
vn 0.052557691931724548 -0.97648853063583374 -0.20906418561935425
vn -0.0018489961512386799 -0.98621052503585815 -0.16548523306846619
vn 0.029450617730617523 -0.94558095932006836 -0.32405146956443787
vn 0.21598382294178009 -0.88024425506591797 -0.42251753807067871
vn 0.24541689455509186 -0.90065151453018188 -0.35860481858253479
vn 0.1451297253370285 -0.94547057151794434 -0.29158657789230347
vn 0.97477376461029053 -0.21659356355667114 0.05388253927230835
vn 0.90432620048522949 -0.41568401455879211 -0.096958428621292114
vn 0.98722541332244873 -0.15885011851787567 0.012355947867035866
vn 0.97583770751953125 -0.0055541903711855412 0.21842601895332336
vn 0.96193695068359375 0.049501679837703705 0.26875060796737671
vn 0.98650044202804565 -0.0055816951207816601 0.16366332769393921
vn 0.92638760805130005 0.14967399835586548 0.34554833173751831
vn 0.83256864547729492 0.13361142575740814 0.53756618499755859
vn 0.79934900999069214 0.13227082788944244 0.5861276388168335
vn 0.77303022146224976 0.12113101035356522 0.62269699573516846
vn 0.80343174934387207 0.10112781077623367 0.58674579858779907
vn 0.90651655197143555 0.11178600043058395 0.40710145235061646
vn 0.92798292636871338 0.18052317202091217 0.3259739875793457
vn -0.61136096715927124 0.42231279611587524 0.66924560070037842
vn -0.37263542413711548 0.81154972314834595 0.45003315806388855
vn -0.69493895769119263 0.38160061836242676 0.60945940017700195
vn -0.0058811320923268795 0.9980507493019104 0.062129862606525421
vn -0.027900638058781624 0.98478639125823975 0.17151464521884918
vn -0.08224940299987793 0.98543107509613037 0.14886441826820374
vn -0.15162816643714905 0.97380077838897705 0.1694725900888443
vn -0.21458724141120911 0.95402193069458008 0.20927123725414276
vn -0.16838946938514709 0.97371453046798706 0.15337863564491272
vn -0.13347451388835907 0.97279107570648193 0.18937276303768158
vn -0.12323520332574844 0.97361135482788086 0.19207805395126343
vn -0.27597466111183167 0.9371303915977478 0.21359929442405701
vn -0.079391181468963623 0.99663513898849487 0.020381078124046326
vn -0.17432999610900879 0.9843711256980896 0.024951301515102386
vn -0.12404414266347885 0.99212014675140381 -0.017624126747250557
vn -0.52445900440216064 0.83459609746932983 -0.16849972307682037
vn -0.56609010696411133 0.79476165771484375 -0.21885120868682861
vn -0.42894202470779419 0.88155108690261841 -0.19717113673686981
vn -0.76567035913467407 0.15540878474712372 -0.62417709827423096
vn -0.76448452472686768 -0.0098770363256335258 -0.64456641674041748
vn -0.87913143634796143 0.06286197155714035 -0.47241535782814026
vn -0.064220547676086426 -0.98380434513092041 -0.16734606027603149
vn -0.06437152624130249 -0.86385661363601685 -0.49960795044898987
vn 0.066355869174003601 -0.76408618688583374 -0.64169245958328247
vn 0.099930673837661743 -0.94516986608505249 -0.31091448664665222
vn 0.035019304603338242 -0.95311260223388672 -0.30058273673057556
vn 0.13533508777618408 -0.92277044057846069 -0.36080345511436462
vn 0.46826717257499695 -0.76191389560699463 -0.44745174050331116
vn 0.44409534335136414 -0.7845262885093689 -0.4327792227268219
vn 0.31055352091789246 -0.84570044279098511 -0.43398997187614441
vn 0.59276121854782104 -0.059029292315244675 -0.80321210622787476
vn 0.69501781463623047 -0.3582930862903595 -0.62335890531539917
vn 0.44583401083946228 -0.16748997569084167 -0.87930607795715332
vn 0.82200098037719727 -0.1566472053527832 -0.54751807451248169
vn 0.86991316080093384 -0.033046159893274307 -0.49209657311439514
vn 0.93340408802032471 -0.24968913197517395 -0.25770556926727295
vn 0.89402115345001221 -0.0055098189041018486 -0.44799083471298218
vn 0.99172645807266235 0.057054825127124786 -0.11499300599098206
vn 0.98759621381759644 -0.066739045083522797 -0.14212527871131897
vn 0.93288010358810425 -0.083442479372024536 0.35038837790489197
vn 0.94392699003219604 -0.054462973028421402 0.32563108205795288
vn 0.94204246997833252 0.057641927152872086 0.33050474524497986
vn 0.96185696125030518 -0.19934564828872681 0.18732985854148865
vn 0.95169001817703247 -0.19317895174026489 0.2386796623468399
vn 0.9500764012336731 -0.070030994713306427 0.30405676364898682
vn 0.95396554470062256 0.0028031188994646072 0.29990315437316895
vn 0.95559805631637573 -0.019963761791586876 0.29399633407592773
vn 0.94245231151580811 0.053964164108037949 0.32995685935020447
vn 0.099313132464885712 0.98154371976852417 0.16342850029468536
vn 0.043028857558965683 0.98555314540863037 0.16380923986434937
vn 0.06452072411775589 0.99603533744812012 0.061242733150720596
vn 0.69888591766357422 0.71096992492675781 0.07797616720199585
vn 0.48176109790802002 0.86808890104293823 0.11969932168722153
vn 0.58345723152160645 0.76753276586532593 0.26546388864517212
vn 0.86145293712615967 0.45460769534111023 -0.22634205222129822
vn 0.95308351516723633 0.27732834219932556 -0.12132911384105682
vn 0.81327295303344727 0.24140433967113495 -0.52944409847259521
vn 0.36704030632972717 -0.025059046223759651 -0.9298674464225769
vn 0.36458179354667664 0.021288556978106499 -0.93092799186706543
vn 0.35115787386894226 -0.050364717841148376 -0.93496072292327881
vn 0.34085571765899658 -0.051630515605211258 -0.93869680166244507
vn 0.36231207847595215 0.016810495406389236 -0.93190521001815796
vn 0.32348668575286865 -0.01954345591366291 -0.94603085517883301
vn 0.22054818272590637 0.46184429526329041 -0.85910320281982422
vn 0.12468785792589188 0.47530195116996765 -0.87094259262084961
vn 0.1008472666144371 0.82583826780319214 -0.55481618642807007
vn 0.26245889067649841 -0.010397071950137615 -0.96488714218139648
vn 0.3021540641784668 -0.014485141262412071 -0.95314902067184448
vn 0.22940471768379211 0.0054713054560124874 -0.97331571578979492
vn 0.1959538608789444 -0.54153203964233398 -0.8175237774848938
vn 0.3208901584148407 -0.42645758390426636 -0.84567338228225708
vn 0.20093637704849243 -0.79902654886245728 -0.56672847270965576
vn 0.32539248466491699 0.070292755961418152 -0.94296270608901978
vn 0.28587958216667175 0.057789769023656845 -0.95652139186859131
vn 0.31540906429290771 0.036705378443002701 -0.94824564456939697
vn 0.28897219896316528 0.0029884623363614082 -0.95733284950256348
vn 0.27704182267189026 0.03662596270442009 -0.9601595401763916
vn 0.27331647276878357 0.022395845502614975 -0.96166342496871948
vn 0.28197741508483887 -0.034721542149782181 -0.95879256725311279
vn 0.33137652277946472 -0.089708596467971802 -0.93922412395477295
vn 0.24597358703613281 0.0052933548577129841 -0.96926206350326538
vn -0.2228572815656662 0.7566106915473938 -0.6147153377532959
vn -0.36769562959671021 0.9227716326713562 -0.11529304087162018
vn -0.20497730374336243 0.97141408920288086 -0.11974561214447021
vn 0.10766207426786423 0.90416926145553589 -0.41338461637496948
vn -0.043882925063371658 0.99277877807617188 -0.11164484173059464
vn 0.094650633633136749 0.98861807584762573 -0.11694266647100449
vn 0.2648942768573761 0.38560411334037781 -0.88382154703140259
vn 0.16981101036071777 0.81104230880737305 -0.5597987174987793
vn 0.32240304350852966 0.48188209533691406 -0.81476742029190063
vn 0.48837524652481079 0.27617689967155457 -0.82777774333953857
vn 0.44038715958595276 -0.010428220964968204 -0.89774739742279053
vn 0.40037098526954651 0.18397256731987 -0.89769548177719116
vn 0.45469841361045837 0.83861541748046875 -0.29995593428611755
vn 0.38856261968612671 0.72719186544418335 -0.5658719539642334
vn 0.29251047968864441 0.90971994400024414 -0.29469853639602661
vn -0.017409969121217728 0.97896319627761841 0.20329287648200989
vn -0.12844666838645935 0.9340854287147522 0.33314540982246399
vn 0.0087794670835137367 0.94625759124755859 0.32329481840133667
vn -0.15015996992588043 0.95255327224731445 0.26475313305854797
vn -0.17369478940963745 0.91519391536712646 0.36366230249404907
vn -0.01231431495398283 0.99330717325210571 0.11484445631504059
vn -0.23403541743755341 0.88082367181777954 0.4115544855594635
vn 0.18753819167613983 0.91295790672302246 0.36240494251251221
vn 0.25896495580673218 0.95422691106796265 0.14962661266326904
vn 0.064374253153800964 0.98470979928970337 0.16187213361263275
vn -0.069563016295433044 0.97232717275619507 0.22302652895450592
vn -0.074718765914440155 0.97397106885910034 0.21400348842144012
vn 0.0021465269383043051 0.97574925422668457 0.21888087689876556
vn -0.0070349257439374924 0.97219663858413696 0.23406016826629639
vn -0.06223670020699501 0.97465509176254272 0.21488146483898163
vn -0.03617192804813385 0.975044846534729 0.21904133260250092
vn -0.35258734226226807 0.81579583883285522 0.45843133330345154
vn -0.32361504435539246 0.87461555004119873 0.36099988222122192
vn -0.49593129754066467 0.74245119094848633 0.45035356283187866
vn 0.8463752269744873 0.33837640285491943 0.41127902269363403
vn 0.79353117942810059 0.43418711423873901 0.4263681173324585
vn 0.72153753042221069 0.38250452280044556 0.57712554931640625
vn -0.093217000365257263 0.97793149948120117 0.18697759509086609
vn -0.059373553842306137 0.97865974903106689 0.19672273099422455
vn -0.060718249529600143 0.97546887397766113 0.21159827709197998
vn 0.43812689185142517 -0.82750868797302246 -0.3511042594909668
vn 0.63625967502593994 -0.71929460763931274 -0.27890655398368835
vn 0.37851545214653015 -0.89423304796218872 -0.23890025913715363
vn 0.75480943918228149 -0.44809707999229431 -0.47903209924697876
vn -0.25148636102676392 -0.96197336912155151 -0.10659182816743851
vn -0.1770542711019516 -0.98414349555969238 0.010649332776665688
vn -0.52602517604827881 -0.84564018249511719 -0.090499460697174072
vn -0.6200518012046814 -0.75583744049072266 -0.21034623682498932
vn -0.81976783275604248 -0.56042754650115967 -0.11790519952774048
vn -0.91030973196029663 -0.36330077052116394 -0.19836525619029999
vn -0.52996504306793213 -0.73806083202362061 -0.4176160991191864
vn -0.73336315155029297 -0.52657490968704224 -0.42999690771102905
vn -0.67048871517181396 -0.52243155241012573 -0.52679234743118286
vn -0.94148129224777222 -0.32097822427749634 -0.10288804769515991
vn -0.98768961429595947 -0.15628482401371002 -0.0066538993269205093
vn -0.98592609167098999 -0.16212543845176697 -0.040805120021104813
vn -0.74094259738922119 -0.66029590368270874 0.12252894788980484
vn -0.7590448260307312 -0.64936012029647827 0.046716351062059402
vn -0.33627480268478394 -0.94123977422714233 0.031415265053510666
vn -0.61031138896942139 -0.79118764400482178 -0.039270557463169098
vn -0.31596440076828003 -0.92874151468276978 0.19392198324203491
vn -0.72580301761627197 -0.55439811944961548 0.40725013613700867
vn -0.72080808877944946 -0.63270127773284912 0.28306323289871216
vn -0.2385159432888031 -0.97077977657318115 0.026395656168460846
vn -0.93424409627914429 -0.32615751028060913 -0.14425401389598846
vn -0.80156910419464111 -0.57531100511550903 -0.16280108690261841
vn -0.83604669570922852 -0.52638572454452515 -0.15473859012126923
vn -0.94820404052734375 -0.30568736791610718 -0.086396396160125732
vn -0.98428893089294434 -0.13482110202312469 -0.114011250436306
vn -0.8864513635635376 -0.3931502103805542 -0.24420665204524994
vn -0.92556416988372803 -0.3197040855884552 -0.20278124511241913
vn 0.8844800591468811 -0.46366232633590698 -0.052079968154430389
vn 0.95254027843475342 -0.30283993482589722 0.030903484672307968
vn 0.91592931747436523 -0.38063260912895203 -0.1272491067647934
vn -0.41982552409172058 -0.59831851720809937 -0.68246716260910034
vn -0.47233843803405762 -0.77830183506011963 -0.41369396448135376
vn -0.40408661961555481 -0.83320063352584839 -0.37747934460639954
vn 0.21611499786376953 -0.1734037846326828 0.9608461856842041
vn -0.14976337552070618 -0.60416501760482788 0.78265929222106934
vn -0.23480330407619476 -0.66481024026870728 0.70915073156356812
vn 0.01797066442668438 -0.94100725650787354 0.33790892362594604
vn 0.0030963537283241749 -0.99181997776031494 0.12760713696479797
vn -0.10131555795669556 -0.94504266977310181 0.31085291504859924
vn -0.037715721875429153 -0.99802851676940918 0.050165876746177673
vn 0.17797704041004181 -0.62833106517791748 0.75731384754180908
vn -0.80555576086044312 -0.26731967926025391 -0.52879118919372559
vn -0.87430232763290405 -0.043762423098087311 -0.48340493440628052
vn -0.81604123115539551 -0.16387714445590973 -0.55427521467208862
vn -0.24011024832725525 -0.83235752582550049 -0.49952778220176697
vn -0.28349578380584717 -0.93910878896713257 -0.19417741894721985
vn -0.35762479901313782 -0.87856388092041016 -0.31659117341041565
vn -0.23945741355419159 -0.95529764890670776 -0.17339710891246796
vn -0.11200995743274689 -0.96130508184432983 -0.25168702006340027
vn -0.2357061505317688 -0.92688584327697754 -0.29210489988327026
vn -0.069202639162540436 -0.91196238994598389 -0.40439528226852417
vn -0.0012620321940630674 -0.98789894580841064 -0.15509390830993652
vn -0.064366839826107025 -0.9798043966293335 -0.18931511044502258
vn 0.78895384073257446 -0.61311256885528564 -0.040556758642196655
vn 0.91195005178451538 -0.39764249324798584 0.10113143175840378
vn 0.67253983020782471 -0.73681527376174927 0.069234021008014679
vn -0.094132103025913239 0.77287477254867554 0.62753778696060181
vn -0.24866272509098053 0.85198897123336792 0.46074032783508301
vn -0.29207527637481689 0.39074769616127014 0.87293082475662231
vn -0.51633650064468384 0.40566959977149963 0.75420737266540527
vn -0.54055553674697876 0.78732037544250488 0.29652377963066101
vn -0.5947461724281311 0.75704795122146606 0.27047261595726013
vn -0.65966254472732544 0.74302995204925537 0.11292403191328049
vn 0.62957483530044556 -0.63742071390151978 -0.44421878457069397
vn 0.7581402063369751 -0.21133309602737427 -0.6168968677520752
vn 0.86864191293716431 -0.36996886134147644 -0.32952132821083069
vn 0.73614639043807983 -0.4799063503742218 -0.47726130485534668
vn 0.97057008743286133 -0.17356923222541809 -0.16693535447120667
vn 0.94445502758026123 -0.30236223340034485 0.1287703663110733
vn 0.7517738938331604 0.5108109712600708 0.41702297329902649
vn 0.72239583730697632 0.44421836733818054 0.52991914749145508
vn 0.69030547142028809 0.55047357082366943 0.46952873468399048
vn 0.74330085515975952 0.52279645204544067 0.41735807061195374
vn 0.65100228786468506 0.64477801322937012 0.40057122707366943
vn 0.64460146427154541 0.63920354843139648 0.41941362619400024
vn 0.3405754566192627 0.80609214305877686 0.48396673798561096
vn 0.5608222484588623 0.58355110883712769 0.58732151985168457
vn 0.47382211685180664 0.85413360595703125 0.21435587108135223
vn 0.50257295370101929 0.83626395463943481 0.21927841007709503
vn 0.70780652761459351 0.6857297420501709 0.16966046392917633
vn 0.39638233184814453 0.91613852977752686 0.059759631752967834
vn 0.73860102891921997 0.00049277953803539276 -0.67414259910583496
vn 0.58507108688354492 -0.019445106387138367 -0.8107488751411438
vn 0.59783893823623657 0.018533412367105484 -0.80140197277069092
vn 0.40313959121704102 0.53811681270599365 -0.74020862579345703
vn 0.47108864784240723 0.85252106189727783 -0.22645825147628784
vn 0.5414617657661438 0.47624057531356812 -0.69283044338226318
vn 0.62329763174057007 0.69681465625762939 -0.35489350557327271
vn 0.76701313257217407 0.5294644832611084 -0.36243367195129395
vn 0.65988492965698242 0.52466553449630737 -0.5378456711769104
vn 0.78584146499633789 0.31222829222679138 -0.53382271528244019
vn -0.93383538722991943 -0.33442044258117676 -0.1269424706697464
vn -0.61883985996246338 0.077307969331741333 0.78170371055603027
vn -0.69139379262924194 0.073768995702266693 0.71870213747024536
vn -0.55088329315185547 0.054513707756996155 0.83280003070831299
vn -0.012866768054664135 -0.99989789724349976 0.0062130969017744064
vn 0.0034897518344223499 -0.99998611211776733 0.0039441534318029881
vn -0.01444627158343792 -0.99983274936676025 0.011212737299501896
vn 0.0019551024306565523 -0.99999642372131348 0.0018166019581258297
vn -0.0034278722014278173 -0.99999403953552246 -0.00042831103201024234
vn 0.0024128302466124296 -0.99999696016311646 -0.00045237841550260782
vn 0.2387266606092453 0.014431620948016644 0.97097957134246826
vn -0.81545114517211914 0.38124018907546997 -0.43554031848907471
vn -0.78678274154663086 0.49238264560699463 -0.37219914793968201
vn -0.66600179672241211 0.53379362821578979 -0.52106237411499023
vn -0.60878568887710571 0.51505494117736816 -0.6034056544303894
vn -0.68745380640029907 0.3174746036529541 -0.65315937995910645
vn -0.81922602653503418 0.36017873883247375 -0.44625106453895569
vn 0.30363598465919495 -0.032324831932783127 -0.95223963260650635
vn 0.32468894124031067 -0.038489058613777161 -0.9450373649597168
vn 0.31191906332969666 -0.070289291441440582 -0.94750511646270752
vn -0.99962490797042847 -0.0016364738112315536 0.027338212355971336
vn -0.99731194972991943 0.022010952234268188 0.06988862156867981
vn -0.99713790416717529 0.0084164189174771309 0.075134627521038055
vn -0.98490643501281738 0.063601158559322357 -0.16097880899906158
vn -0.94526737928390503 0.2921503484249115 -0.14531946182250977
vn -0.89000403881072998 0.40557044744491577 -0.20833972096443176
vn 0.057162106037139893 -0.99300676584243774 -0.10329584032297134
vn 0.048584248870611191 -0.99756574630737305 -0.050021830946207047
vn -0.032233059406280518 -0.99939042329788208 -0.013408578000962734
vn 0.58010208606719971 0.073318108916282654 0.81123733520507812
vn 0.42765119671821594 0.054962676018476486 0.9022713303565979
vn 0.60850059986114502 0.095378868281841278 0.78780066967010498
vn 0.41589760780334473 0.038029085844755173 0.90861594676971436
vn -0.092538520693778992 0.98111104965209961 0.16987547278404236
vn -0.080423407256603241 0.98142784833908081 0.17415937781333923
vn -0.087075620889663696 0.97622746229171753 0.19848886132240295
vn 0.87642174959182739 0.171988844871521 0.44978305697441101
vn 0.86299103498458862 0.17685729265213013 0.47325250506401062
vn 0.85427743196487427 0.27530092000961304 0.44093021750450134
vn 0.044344544410705566 0.99756532907485962 0.053823843598365784
vn 0.95144945383071899 0.30590769648551941 0.034123886376619339
vn 0.83396905660629272 0.5513535737991333 0.022468401119112968
vn 0.74234908819198608 0.60290181636810303 0.29227936267852783
vn -0.13389663398265839 0.1482197642326355 -0.97984826564788818
vn 0.23373995721340179 0.059444785118103027 -0.97048026323318481
vn 0.16293865442276001 -0.038086868822574615 -0.98590081930160522
vn -0.042277071624994278 0.3153308629989624 -0.94803959131240845
vn -0.49181443452835083 0.26378989219665527 -0.82977914810180664
vn -0.48380115628242493 0.45117691159248352 -0.74991720914840698
vn 0.27740371227264404 0.016549907624721527 -0.96061086654663086
vn 0.27937987446784973 -0.02258232980966568 -0.95991504192352295
vn 0.28840816020965576 -0.0088267987594008446 -0.95746690034866333
vn 0.18765313923358917 0.96480458974838257 -0.18422383069992065
vn 0.31376871466636658 0.74734640121459961 -0.5856812596321106
vn 0.14835338294506073 0.89209312200546265 -0.4268033504486084
vn -0.11190436035394669 0.97780388593673706 0.17713539302349091
vn -0.14657960832118988 0.98354649543762207 0.10559668391942978
vn -0.062209751456975937 0.99281638860702515 0.10220369696617126
vn 0.92290139198303223 0.25379163026809692 0.28955629467964172
vn 0.93172270059585571 0.15295840799808502 0.32938811182975769
vn 0.95272624492645264 0.1294921487569809 0.27485367655754089
vn -0.99908900260925293 -0.016574004665017128 0.039325147867202759
vn -0.99665820598602295 0.019071664661169052 0.079427532851696014
vn -0.9992530345916748 0.014306969940662384 0.035898584872484207
vn -0.97659426927566528 0.057691857218742371 0.20720835030078888
vn -0.99381965398788452 0.020388426259160042 0.10911847651004791
vn -0.99071758985519409 0.039828557521104813 0.12997075915336609
vn 0.058539804071187973 -0.99826788902282715 0.0058557260781526566
vn 0.011467447504401207 -0.99984842538833618 0.013098863884806633
vn 0.021856794133782387 -0.99973851442337036 -0.0067258663475513458
vn 0.8664889931678772 -0.30005365610122681 0.39895442128181458
vn -0.27473825216293335 0.92685222625732422 0.25585892796516418
vn -0.45709675550460815 0.86030095815658569 0.22570954263210297
vn -0.72232890129089355 0.56085419654846191 0.40457814931869507
vn -0.65204817056655884 0.72533112764358521 0.22074399888515472
vn -0.88101029396057129 0.38938221335411072 0.26870501041412354
vn -0.75548255443572998 0.56000083684921265 0.34006637334823608
vn -0.97644054889678955 0.15907479822635651 0.14580479264259338
vn -0.94590097665786743 0.20361119508743286 0.25261408090591431
vn -0.91782701015472412 0.33459874987602234 0.21362881362438202
vn -0.37592995166778564 0.92657607793807983 0.011552468873560429
vn -0.43273165822029114 0.89909863471984863 -0.066067531704902649
vn -0.63202875852584839 0.77050948143005371 -0.082793839275836945
vn -0.77864563465118408 0.58727329969406128 -0.22095482051372528
vn -0.85456055402755737 0.48357012867927551 -0.18943661451339722
vn -0.99728173017501831 0.049942094832658768 -0.054175548255443573
vn -0.98140627145767212 0.045277107506990433 -0.18652525544166565
vn -0.99342668056488037 -0.0051743937656283379 -0.1143532395362854
vn 0.30773162841796875 -0.904632568359375 -0.29485785961151123
vn 0.1817842423915863 -0.97622579336166382 -0.11805802583694458
vn 0.10226801037788391 -0.97536814212799072 -0.19544374942779541
vn 0.4137999415397644 -0.90272235870361328 -0.11773694306612015
vn 0.76983493566513062 -0.62610030174255371 -0.12390530109405518
vn 0.53119426965713501 -0.84724003076553345 -0.0041166790761053562
vn 0.98933279514312744 -0.064299046993255615 0.13071428239345551
vn -0.29908311367034912 0.21221686899662018 0.93032968044281006
vn -0.11461038887500763 0.15584847331047058 0.98110944032669067
vn -0.1379893571138382 0.35701760649681091 0.92384922504425049
vn -0.41994702816009521 0.89402979612350464 -0.15606164932250977
vn 0.28395384550094604 -0.25703972578048706 -0.92374283075332642
vn -0.33652183413505554 -0.65811032056808472 -0.6735309362411499
vn -0.28537359833717346 -0.35495522618293762 -0.89026325941085815
vn 0.88991600275039673 0.31045371294021606 0.33416762948036194
vn 0.83974307775497437 0.47770956158638 0.25811836123466492
vn 0.80169218778610229 0.5197489857673645 0.29521283507347107
vn -0.13396178185939789 0.92914885282516479 -0.34458178281784058
vn -0.13405606150627136 0.77278459072113037 -0.62034904956817627
vn -0.24415202438831329 0.79411977529525757 -0.5565640926361084
vn 0.041271578520536423 0.89226412773132324 -0.44962355494499207
vn 0.32334062457084656 -0.0057763452641665936 -0.94626504182815552
vn 0.35904797911643982 0.030871996656060219 -0.93280839920043945
vn 0.34235891699790955 0.048621188849210739 -0.93831038475036621
vn -0.33807817101478577 0.93706816434860229 0.087214507162570953
vn -0.70126336812973022 0.71180820465087891 0.039481647312641144
vn -0.66082489490509033 0.7359473705291748 0.14728167653083801
vn -0.78803014755249023 -0.35156354308128357 -0.50538259744644165
vn 0.9070783257484436 0.11407553404569626 0.40521067380905151
vn 0.93432289361953735 0.12103098630905151 0.33524948358535767
vn 0.93293792009353638 0.095166824758052826 0.34723207354545593
vn 0.23640835285186768 0.40072488784790039 0.88517266511917114
vn 0.082821711897850037 0.37766346335411072 0.92223143577575684
vn 0.090409904718399048 0.16764102876186371 0.98169368505477905
vn 0.97736752033233643 0.18500185012817383 -0.10260161757469177
vn 0.88542258739471436 0.050315987318754196 -0.46205532550811768
vn 0.82709896564483643 0.1684795618057251 -0.53621071577072144
vn -0.27934008836746216 -0.9063037633895874 0.3171476423740387
vn -0.42122656106948853 -0.64080160856246948 0.64182668924331665
vn -0.56634706258773804 -0.54536968469619751 0.61791819334030151
vn -0.87413406372070312 0.097371630370616913 0.47582393884658813
vn -0.12364144623279572 -0.0031262598931789398 0.99232202768325806
vn -0.93512886762619019 0.3532949686050415 0.026771234348416328
vn 0.966957688331604 0.073260843753814697 0.24418377876281738
vn 0.44693377614021301 0.20659022033214569 0.87038534879684448
vn 0.60244560241699219 0.3174445629119873 0.73231703042984009
vn 0.44119194149971008 0.4266451895236969 0.7895084023475647
vn -0.60486805438995361 0.67822593450546265 0.41730597615242004
vn -0.69497853517532349 0.70601552724838257 -0.13618706166744232
vn -0.52364861965179443 0.82481706142425537 -0.21323435008525848
vn -0.43725469708442688 0.67294615507125854 -0.59661698341369629
vn 0.032296370714902878 -0.94147056341171265 -0.33554449677467346
vn 0.071876868605613708 -0.88420605659484863 -0.46153372526168823
vn 0.13144466280937195 -0.90084904432296753 -0.41375508904457092
vn 0.92231762409210205 0.05960286408662796 0.38180848956108093
vn 0.90286487340927124 0.093296200037002563 0.41967940330505371
vn 0.93387198448181152 0.056033220142126083 0.35319024324417114
vn 0.0016595653723925352 0.96187645196914673 0.27347925305366516
vn 0.070590876042842865 0.95109260082244873 0.30073213577270508
vn 0.095779404044151306 0.95669299364089966 0.27489066123962402
vn -0.047154705971479416 0.99658399820327759 0.067799195647239685
vn -0.34261190891265869 0.92599719762802124 -0.15857586264610291
vn -0.26542934775352478 0.95414507389068604 -0.13839954137802124
vn -0.21290002763271332 0.97607773542404175 -0.044111263006925583
vn -0.86474055051803589 0.17840045690536499 -0.46946468949317932
vn 0.93210101127624512 0.050755266100168228 0.35862460732460022
vn -0.46215718984603882 0.79732567071914673 0.3881784975528717
vn 0.23897093534469604 0.18342678248882294 0.95354467630386353
usemtl vc_191919__Default
f 1//1 2//2 3//3
f 4//4 5//5 6//6
f 7//7 8//8 9//9
f 10//10 11//11 12//12
f 13//13 14//14 15//15
f 16//16 17//17 18//18
f 19//19 20//20 21//21
f 22//22 23//23 24//24
f 25//25 26//26 27//27
f 28//28 29//29 30//30
f 31//31 32//32 33//33
f 34//34 35//35 36//36
f 35//35 37//37 36//36
f 38//38 39//39 40//40
f 41//41 42//42 43//43
f 44//44 45//45 46//46
f 46//46 45//45 47//47
f 48//48 49//49 50//50
f 51//51 52//52 53//53
f 54//54 55//55 51//51
f 56//56 57//57 58//58
f 60//60 440//440 61//61 59//59
f 62//62 63//63 64//64
f 65//65 66//66 67//67
f 68//68 69//69 70//70
f 71//71 68//68 70//70
f 72//72 73//73 74//74
f 75//75 76//76 77//77
f 78//78 79//79 80//80
f 81//81 82//82 83//83
f 84//84 85//85 86//86
f 87//87 88//88 89//89
f 88//88 90//90 89//89
f 91//91 92//92 93//93
f 94//94 95//95 96//96
f 97//97 98//98 99//99
f 100//100 101//101 102//102
f 103//103 104//104 105//105
f 106//106 107//107 108//108
f 109//109 110//110 111//111
f 112//112 113//113 114//114
f 115//115 116//116 117//117
f 118//118 119//119 120//120
f 121//121 122//122 123//123
f 124//124 125//125 126//126
f 127//127 128//128 129//129
f 130//130 131//131 132//132
f 135//135 463//463 133//133 134//134
f 136//136 137//137 138//138
f 139//139 140//140 141//141
f 142//142 143//143 144//144
f 145//145 146//146 147//147
f 148//148 149//149 150//150
f 151//151 152//152 153//153
f 154//154 155//155 156//156
f 157//157 158//158 159//159
f 160//160 161//161 162//162
f 163//163 164//164 165//165
f 166//166 167//167 168//168
f 169//169 170//170 171//171
f 172//172 173//173 174//174
f 175//175 176//176 177//177
f 178//178 179//179 180//180
f 181//181 182//182 183//183
f 184//184 185//185 186//186
f 187//187 188//188 189//189
f 190//190 191//191 192//192
f 193//193 194//194 195//195
f 193//193 196//196 194//194
f 197//197 198//198 199//199
f 200//200 201//201 202//202
f 203//203 204//204 205//205
f 207//207 464//464 208//208 206//206
f 209//209 210//210 211//211
f 212//212 213//213 214//214
f 215//215 216//216 217//217
f 216//216 215//215 218//218
f 219//219 220//220 221//221
f 222//222 223//223 224//224
f 225//225 226//226 227//227
f 228//228 229//229 230//230
f 231//231 232//232 233//233
f 232//232 234//234 233//233
f 235//235 236//236 237//237
f 237//237 238//238 235//235
f 239//239 240//240 241//241
f 239//239 241//241 242//242
f 243//243 244//244 245//245
f 246//246 247//247 248//248
f 249//249 250//250 251//251
f 22//22 252//252 23//23
f 253//253 254//254 255//255
f 256//256 257//257 258//258
f 42//42 259//259 43//43
f 260//260 261//261 262//262
f 263//263 264//264 265//265
f 266//266 267//267 268//268
f 269//269 270//270 271//271
f 272//272 273//273 274//274
f 275//275 276//276 277//277
f 95//95 94//94 278//278
f 279//279 280//280 281//281
f 121//121 282//282 122//122
f 283//283 284//284 285//285
f 128//128 286//286 129//129
f 137//137 136//136 287//287
f 288//288 289//289 290//290
f 291//291 292//292 293//293
f 294//294 295//295 296//296
f 297//297 298//298 299//299
f 300//300 301//301 302//302
f 303//303 304//304 305//305
f 306//306 307//307 308//308
f 308//308 307//307 309//309
f 228//228 230//230 310//310
f 311//311 312//312 313//313
f 314//314 315//315 316//316
f 317//317 318//318 319//319
f 44//44 46//46 320//320
f 321//321 322//322 323//323
f 324//324 325//325 326//326
f 327//327 328//328 329//329
f 330//330 331//331 332//332
f 333//333 334//334 335//335
f 336//336 337//337 338//338
f 339//339 340//340 341//341
f 339//339 342//342 340//340
f 343//343 344//344 345//345
f 346//346 347//347 348//348
f 144//144 143//143 349//349
f 350//350 351//351 352//352
f 353//353 354//354 355//355
f 356//356 357//357 358//358
f 359//359 360//360 361//361
f 362//362 363//363 364//364
f 365//365 366//366 367//367
f 368//368 369//369 370//370
f 371//371 372//372 373//373
f 374//374 375//375 376//376
f 377//377 378//378 379//379
f 38//38 40//40 380//380
f 381//381 382//382 383//383
f 384//384 385//385 386//386
f 387//387 388//388 389//389
f 390//390 391//391 392//392
f 393//393 334//334 394//394
f 393//393 335//335 334//334
f 395//395 396//396 397//397
f 398//398 399//399 400//400
f 401//401 402//402 403//403
f 84//84 86//86 404//404
f 405//405 406//406 407//407
f 109//109 111//111 408//408
f 409//409 410//410 411//411
f 412//412 413//413 414//414
f 415//415 416//416 417//417
f 418//418 416//416 415//415
f 419//419 420//420 421//421
f 422//422 423//423 424//424
f 260//260 262//262 425//425
f 426//426 427//427 428//428
f 431//431 465//465 429//429 430//430
f 432//432 433//433 434//434
f 435//435 436//436 437//437
f 20//20 438//438 21//21
f 49//49 439//439 50//50
f 85//85 441//441 86//86
f 442//442 443//443 444//444
f 95//95 445//445 96//96
f 446//446 447//447 448//448
f 449//449 450//450 451//451
f 452//452 453//453 454//454
f 455//455 456//456 457//457
f 97//97 99//99 458//458
f 459//459 460//460 461//461
f 112//112 114//114 462//462
