# Dual color encoding: per-vertex RGB for Rerun, face MTL colors for legacy RViz.
mtllib sim_gene01_l_hand_thumb_5.mtl
# Rhino

g sim_gene01_l_hand_thumb_5
v 17.628093794400826 11.55343615258122 -6.3912969518578064 0.0980392157 0.0980392157 0.0980392157
v 18.606390267437465 0.38328456040899561 0.53997064526547955 0.0980392157 0.0980392157 0.0980392157
v 17.182847393139657 0.18433611244888981 -8.5516145205597045 0.0980392157 0.0980392157 0.0980392157
v 18.606390267437465 0.38328456040899561 0.53997064526547955 0.0980392157 0.0980392157 0.0980392157
v 12.529832544219717 -6.1949818037655868 -0.21973762772502817 0.0980392157 0.0980392157 0.0980392157
v 17.182847393139657 0.18433611244888981 -8.5516145205597045 0.0980392157 0.0980392157 0.0980392157
v 12.730532369564544 -4.5850298636396882 4.5565697588065541 0.0980392157 0.0980392157 0.0980392157
v 9.9094936788124741 0.5117409046806457 -11.094400124585944 0.0980392157 0.0980392157 0.0980392157
v 17.182847393139657 0.18433611244888981 -8.5516145205597045 0.0980392157 0.0980392157 0.0980392157
v 12.529832544219717 -6.1949818037655868 -0.21973762772502817 0.0980392157 0.0980392157 0.0980392157
v 16.004396355266628 18.130539256689879 3.8688193495817038 0.0980392157 0.0980392157 0.0980392157
v 1.539252555463591 -0.18492552660528361 -13.440681804096997 0.0980392157 0.0980392157 0.0980392157
v 17.182847393139657 0.18433611244888981 -8.5516145205597045 0.0980392157 0.0980392157 0.0980392157
v 9.9094936788124741 0.5117409046806457 -11.094400124585944 0.0980392157 0.0980392157 0.0980392157
v 13.162545468789205 29.424465655703955 -8.230679492098643 0.0980392157 0.0980392157 0.0980392157
v 17.182847393139657 0.18433611244888981 -8.5516145205597045 0.0980392157 0.0980392157 0.0980392157
v 10.943393700339428 0.27556068677803136 -11.97397153534302 0.0980392157 0.0980392157 0.0980392157
v 9.9094936788124741 0.5117409046806457 -11.094400124585944 0.0980392157 0.0980392157 0.0980392157
v 12.529832544219717 -6.1949818037655868 -0.21973762772502817 0.0980392157 0.0980392157 0.0980392157
v 11.560457160512952 3.7157144956424455 -9.6058718830273992 0.0980392157 0.0980392157 0.0980392157
v 5.3450077614373797 9.206354336723237 -2.1469994248538566 0.0980392157 0.0980392157 0.0980392157
v 11.560457160512952 3.7157144956424455 -9.6058718830273992 0.0980392157 0.0980392157 0.0980392157
v 11.900546632241342 4.8093684350156458 4.3493812412914874 0.0980392157 0.0980392157 0.0980392157
v 11.900546632241342 4.8093684350156458 4.3493812412914874 0.0980392157 0.0980392157 0.0980392157
v 16.347174520902353 9.2407549962095388 6.1919426841478087 0.0980392157 0.0980392157 0.0980392157
v 12.730532369564544 -4.5850298636396882 4.5565697588065541 0.0980392157 0.0980392157 0.0980392157
v 18.606390267437465 0.38328456040899561 0.53997064526547955 0.0980392157 0.0980392157 0.0980392157
v 16.347174520902353 9.2407549962095388 6.1919426841478087 0.0980392157 0.0980392157 0.0980392157
v 10.943393700339428 0.27556068677803136 -11.97397153534302 0.0980392157 0.0980392157 0.0980392157
v 17.182847393139657 0.18433611244888981 -8.5516145205597045 0.0980392157 0.0980392157 0.0980392157
v 1.539252555463591 -0.18492552660528361 -13.440681804096997 0.0980392157 0.0980392157 0.0980392157
v -4.6550852875303121 13.68409892888028 8.2830369986828032 0.0980392157 0.0980392157 0.0980392157
v 7.1991169372094923 7.9666752357469059 5.2076621432905688 0.0980392157 0.0980392157 0.0980392157
v 11.402584556288375 12.343101168572673 7.7659655064005282 0.0980392157 0.0980392157 0.0980392157
v 11.900546632241342 4.8093684350156458 4.3493812412914874 0.0980392157 0.0980392157 0.0980392157
v 16.347174520902353 9.2407549962095388 6.1919426841478087 0.0980392157 0.0980392157 0.0980392157
v 12.730532369564544 -4.5850298636396882 4.5565697588065541 0.0980392157 0.0980392157 0.0980392157
v 5.3450077614373797 9.206354336723237 -2.1469994248538566 0.0980392157 0.0980392157 0.0980392157
v 11.900546632241342 4.8093684350156458 4.3493812412914874 0.0980392157 0.0980392157 0.0980392157
v 7.1991169372094923 7.9666752357469059 5.2076621432905688 0.0980392157 0.0980392157 0.0980392157
v 5.8113737106323242 4.7484474182128906 -11.247872352600098 0.0980392157 0.0980392157 0.0980392157
v 9.9094936788124741 0.5117409046806457 -11.094400124585944 0.0980392157 0.0980392157 0.0980392157
v 11.560457160512952 3.7157144956424455 -9.6058718830273992 0.0980392157 0.0980392157 0.0980392157
v 5.8113737106323242 4.7484474182128906 -11.247872352600098 0.0980392157 0.0980392157 0.0980392157
v 11.560457160512952 3.7157144956424455 -9.6058718830273992 0.0980392157 0.0980392157 0.0980392157
v 5.3450077614373797 9.206354336723237 -2.1469994248538566 0.0980392157 0.0980392157 0.0980392157
v 5.8113737106323242 4.7484474182128906 -11.247872352600098 0.0980392157 0.0980392157 0.0980392157
v 4.7796969413757324 7.437161922454834 -5.5001254081726074 0.0980392157 0.0980392157 0.0980392157
v 9.9094936788124741 0.5117409046806457 -11.094400124585944 0.0980392157 0.0980392157 0.0980392157
v 1.539252555463591 -0.18492552660528361 -13.440681804096997 0.0980392157 0.0980392157 0.0980392157
v 9.9094936788124741 0.5117409046806457 -11.094400124585944 0.0980392157 0.0980392157 0.0980392157
v 4.7796969413757324 7.437161922454834 -5.5001254081726074 0.0980392157 0.0980392157 0.0980392157
v 5.8113737106323242 4.7484474182128906 -11.247872352600098 0.0980392157 0.0980392157 0.0980392157
v 1.539252555463591 -0.18492552660528361 -13.440681804096997 0.0980392157 0.0980392157 0.0980392157
v 4.7796969413757324 7.437161922454834 -5.5001254081726074 0.0980392157 0.0980392157 0.0980392157
v 0.62495841572999744 4.0127879163568263 -11.745552627681157 0.0980392157 0.0980392157 0.0980392157
v 1.539252555463591 -0.18492552660528361 -13.440681804096997 0.0980392157 0.0980392157 0.0980392157
v 5.8113737106323242 4.7484474182128906 -11.247872352600098 0.0980392157 0.0980392157 0.0980392157
v 0.62495841572999744 4.0127879163568263 -11.745552627681157 0.0980392157 0.0980392157 0.0980392157
v 7.785733587427405 25.180725873095668 7.373314227460118 0.0980392157 0.0980392157 0.0980392157
v 11.402584556288375 12.343101168572673 7.7659655064005282 0.0980392157 0.0980392157 0.0980392157
v 16.347174520902353 9.2407549962095388 6.1919426841478087 0.0980392157 0.0980392157 0.0980392157
v 5.3450077614373797 9.206354336723237 -2.1469994248538566 0.0980392157 0.0980392157 0.0980392157
v 7.1991169372094923 7.9666752357469059 5.2076621432905688 0.0980392157 0.0980392157 0.0980392157
v -5.3877968125041429 7.9469575784945947 5.22771190313214 0.0980392157 0.0980392157 0.0980392157
v -7.5586185318018355 0.23054224169351745 -12.42195502539002 0.0980392157 0.0980392157 0.0980392157
v 0.62495841572999744 4.0127879163568263 -11.745552627681157 0.0980392157 0.0980392157 0.0980392157
v -1.7662933075655782 6.607886826336447 -11.523560575278898 0.0980392157 0.0980392157 0.0980392157
v -3.3655375360563875 7.5121088402193861 -5.7087238436655623 0.0980392157 0.0980392157 0.0980392157
v 0.62495841572999744 4.0127879163568263 -11.745552627681157 0.0980392157 0.0980392157 0.0980392157
v -7.5586185318018355 0.23054224169351745 -12.42195502539002 0.0980392157 0.0980392157 0.0980392157
v 0.62495841572999744 4.0127879163568263 -11.745552627681157 0.0980392157 0.0980392157 0.0980392157
v -3.3655375360563875 7.5121088402193861 -5.7087238436655623 0.0980392157 0.0980392157 0.0980392157
v -1.7662933075655782 6.607886826336447 -11.523560575278898 0.0980392157 0.0980392157 0.0980392157
v 0.62495841572999744 4.0127879163568263 -11.745552627681157 0.0980392157 0.0980392157 0.0980392157
v 5.3450077614373797 9.206354336723237 -2.1469994248538566 0.0980392157 0.0980392157 0.0980392157
v 13.162545468789205 29.424465655703955 -8.230679492098643 0.0980392157 0.0980392157 0.0980392157
v 11.396051604583608 31.467197654116276 -0.57850471343005117 0.0980392157 0.0980392157 0.0980392157
v -4.6550852875303121 13.68409892888028 8.2830369986828032 0.0980392157 0.0980392157 0.0980392157
v -5.2261173962824214 9.4352690337164535 -0.52720656051945414 0.0980392157 0.0980392157 0.0980392157
v -5.3877968125041429 7.9469575784945947 5.22771190313214 0.0980392157 0.0980392157 0.0980392157
v -3.3655375360563875 7.5121088402193861 -5.7087238436655623 0.0980392157 0.0980392157 0.0980392157
v -3.3655375360563875 7.5121088402193861 -5.7087238436655623 0.0980392157 0.0980392157 0.0980392157
v -1.7662933075655782 6.607886826336447 -11.523560575278898 0.0980392157 0.0980392157 0.0980392157
v 5.3450077614373797 9.206354336723237 -2.1469994248538566 0.0980392157 0.0980392157 0.0980392157
v -1.7662933075655782 6.607886826336447 -11.523560575278898 0.0980392157 0.0980392157 0.0980392157
v -7.5586185318018355 0.23054224169351745 -12.42195502539002 0.0980392157 0.0980392157 0.0980392157
v -3.3655375360563875 7.5121088402193861 -5.7087238436655623 0.0980392157 0.0980392157 0.0980392157
v -1.7662933075655782 6.607886826336447 -11.523560575278898 0.0980392157 0.0980392157 0.0980392157
v -6.6457239116338691 4.0426658667842972 -11.160854843729654 0.0980392157 0.0980392157 0.0980392157
v 4.187587076697703 34.527944205078015 -10.325244587112589 0.0980392157 0.0980392157 0.0980392157
v -12.059912365584731 -5.1200255786089661 -0.69082197117183397 0.0980392157 0.0980392157 0.0980392157
v -9.3368858052479169 -5.1089681702545491 -2.5097526876623246 0.0980392157 0.0980392157 0.0980392157
v -9.7418478232835461 -4.2846460179120349 5.1593987011531484 0.0980392157 0.0980392157 0.0980392157
v -9.3368858052479169 -5.1089681702545491 -2.5097526876623246 0.0980392157 0.0980392157 0.0980392157
v -9.2101372447320653 -1.6638099160972823 -5.3324795984783488 0.0980392157 0.0980392157 0.0980392157
v -9.7418478232835461 -4.2846460179120349 5.1593987011531484 0.0980392157 0.0980392157 0.0980392157
v -15.454895450233316 0.31555222619963197 -10.22817353173531 0.0980392157 0.0980392157 0.0980392157
v -7.5586185318018355 0.23054224169351745 -12.42195502539002 0.0980392157 0.0980392157 0.0980392157
v -9.2101372447320653 -1.6638099160972823 -5.3324795984783488 0.0980392157 0.0980392157 0.0980392157
v -9.2189139095660284 5.2941112059844171 -0.11014161098258286 0.0980392157 0.0980392157 0.0980392157
v -3.3655375360563875 7.5121088402193861 -5.7087238436655623 0.0980392157 0.0980392157 0.0980392157
v -5.2261173962824214 9.4352690337164535 -0.52720656051945414 0.0980392157 0.0980392157 0.0980392157
v -9.2189139095660284 5.2941112059844171 -0.11014161098258286 0.0980392157 0.0980392157 0.0980392157
v -9.2101372447320653 -1.6638099160972823 -5.3324795984783488 0.0980392157 0.0980392157 0.0980392157
v -7.5586185318018355 0.23054224169351745 -12.42195502539002 0.0980392157 0.0980392157 0.0980392157
v -9.2189139095660284 5.2941112059844171 -0.11014161098258286 0.0980392157 0.0980392157 0.0980392157
v -7.5586185318018355 0.23054224169351745 -12.42195502539002 0.0980392157 0.0980392157 0.0980392157
v -6.6457239116338691 4.0426658667842972 -11.160854843729654 0.0980392157 0.0980392157 0.0980392157
v 6.9592697882269459 33.412438487729872 4.6675283984588827 0.0980392157 0.0980392157 0.0980392157
v 16.004396355266628 18.130539256689879 3.8688193495817038 0.0980392157 0.0980392157 0.0980392157
v -6.1857171299452629 9.0278189120979153 -5.5928537569591317 0.0980392157 0.0980392157 0.0980392157
v -1.7662933075655782 6.607886826336447 -11.523560575278898 0.0980392157 0.0980392157 0.0980392157
v -3.3655375360563875 7.5121088402193861 -5.7087238436655623 0.0980392157 0.0980392157 0.0980392157
v -6.6457239116338691 4.0426658667842972 -11.160854843729654 0.0980392157 0.0980392157 0.0980392157
v -9.1500005722045898 5.4530806541442871 -5.5000982284545898 0.0980392157 0.0980392157 0.0980392157
v -3.3655375360563875 7.5121088402193861 -5.7087238436655623 0.0980392157 0.0980392157 0.0980392157
v -6.6457239116338691 4.0426658667842972 -11.160854843729654 0.0980392157 0.0980392157 0.0980392157
v -6.1857171299452629 9.0278189120979153 -5.5928537569591317 0.0980392157 0.0980392157 0.0980392157
v -3.3655375360563875 7.5121088402193861 -5.7087238436655623 0.0980392157 0.0980392157 0.0980392157
v -9.1500005722045898 5.4530806541442871 -5.5000982284545898 0.0980392157 0.0980392157 0.0980392157
v -8.1955404281616211 7.4532566070556641 -10.573886871337891 0.0980392157 0.0980392157 0.0980392157
v -1.7662933075655782 6.607886826336447 -11.523560575278898 0.0980392157 0.0980392157 0.0980392157
v -6.1857171299452629 9.0278189120979153 -5.5928537569591317 0.0980392157 0.0980392157 0.0980392157
v -8.1955404281616211 7.4532566070556641 -10.573886871337891 0.0980392157 0.0980392157 0.0980392157
v -9.1500005722045898 5.4530806541442871 -5.5000982284545898 0.0980392157 0.0980392157 0.0980392157
v -6.6457239116338691 4.0426658667842972 -11.160854843729654 0.0980392157 0.0980392157 0.0980392157
v 9.8515327966341584 35.626238620651094 -7.9278446171991028 0.0980392157 0.0980392157 0.0980392157
v -15.243499619707627 1.5614218365777328 1.9913221544592132 0.0980392157 0.0980392157 0.0980392157
v -12.059912365584731 -5.1200255786089661 -0.69082197117183397 0.0980392157 0.0980392157 0.0980392157
v -9.7418478232835461 -4.2846460179120349 5.1593987011531484 0.0980392157 0.0980392157 0.0980392157
v -17.800268514137432 -0.012330572190690441 -2.1629563724657062 0.0980392157 0.0980392157 0.0980392157
v -9.3368858052479169 -5.1089681702545491 -2.5097526876623246 0.0980392157 0.0980392157 0.0980392157
v -12.059912365584731 -5.1200255786089661 -0.69082197117183397 0.0980392157 0.0980392157 0.0980392157
v -17.800268514137432 -0.012330572190690441 -2.1629563724657062 0.0980392157 0.0980392157 0.0980392157
v -12.059912365584731 -5.1200255786089661 -0.69082197117183397 0.0980392157 0.0980392157 0.0980392157
v -15.243499619707627 1.5614218365777328 1.9913221544592132 0.0980392157 0.0980392157 0.0980392157
v -9.7972106047291341 3.1010835534393166 5.2388952950263343 0.0980392157 0.0980392157 0.0980392157
v -8.2951615148022046 1.6736733743028138 2.0070846896912888 0.0980392157 0.0980392157 0.0980392157
v -5.3877968125041429 7.9469575784945947 5.22771190313214 0.0980392157 0.0980392157 0.0980392157
v -9.2189139095660284 5.2941112059844171 -0.11014161098258286 0.0980392157 0.0980392157 0.0980392157
v -5.3877968125041429 7.9469575784945947 5.22771190313214 0.0980392157 0.0980392157 0.0980392157
v -8.2951615148022046 1.6736733743028138 2.0070846896912888 0.0980392157 0.0980392157 0.0980392157
v -18.227173472376744 0.20508638703813831 -7.2532607144437797 0.0980392157 0.0980392157 0.0980392157
v -9.2101372447320653 -1.6638099160972823 -5.3324795984783488 0.0980392157 0.0980392157 0.0980392157
v -9.3368858052479169 -5.1089681702545491 -2.5097526876623246 0.0980392157 0.0980392157 0.0980392157
v -18.227173472376744 0.20508638703813831 -7.2532607144437797 0.0980392157 0.0980392157 0.0980392157
v -9.3368858052479169 -5.1089681702545491 -2.5097526876623246 0.0980392157 0.0980392157 0.0980392157
v -17.800268514137432 -0.012330572190690441 -2.1629563724657062 0.0980392157 0.0980392157 0.0980392157
v -9.2189139095660284 5.2941112059844171 -0.11014161098258286 0.0980392157 0.0980392157 0.0980392157
v -5.2261173962824214 9.4352690337164535 -0.52720656051945414 0.0980392157 0.0980392157 0.0980392157
v -5.3877968125041429 7.9469575784945947 5.22771190313214 0.0980392157 0.0980392157 0.0980392157
v -14.09227663189975 10.956334010063657 6.9533090079955135 0.0980392157 0.0980392157 0.0980392157
v -9.7972106047291341 3.1010835534393166 5.2388952950263343 0.0980392157 0.0980392157 0.0980392157
v -5.3877968125041429 7.9469575784945947 5.22771190313214 0.0980392157 0.0980392157 0.0980392157
v -17.414240257070478 4.6678763570526449 4.0356977504157818 0.0980392157 0.0980392157 0.0980392157
v -14.09227663189975 10.956334010063657 6.9533090079955135 0.0980392157 0.0980392157 0.0980392157
v -5.3877968125041429 7.9469575784945947 5.22771190313214 0.0980392157 0.0980392157 0.0980392157
v -4.6550852875303121 13.68409892888028 8.2830369986828032 0.0980392157 0.0980392157 0.0980392157
v -18.227173472376744 0.20508638703813831 -7.2532607144437797 0.0980392157 0.0980392157 0.0980392157
v -9.2101372447320653 -1.6638099160972823 -5.3324795984783488 0.0980392157 0.0980392157 0.0980392157
v -8.1955404281616211 7.4532566070556641 -10.573886871337891 0.0980392157 0.0980392157 0.0980392157
v -6.1857171299452629 9.0278189120979153 -5.5928537569591317 0.0980392157 0.0980392157 0.0980392157
v -9.1500005722045898 5.4530806541442871 -5.5000982284545898 0.0980392157 0.0980392157 0.0980392157
v 5.7572883523251761 36.958732028385349 -0.47595120428901339 0.0980392157 0.0980392157 0.0980392157
v -16.489671849980805 16.14246864640689 -8.1616777007796699 0.0980392157 0.0980392157 0.0980392157
v -15.454895450233316 0.31555222619963197 -10.22817353173531 0.0980392157 0.0980392157 0.0980392157
v -18.227173472376744 0.20508638703813831 -7.2532607144437797 0.0980392157 0.0980392157 0.0980392157
v -12.093288857787563 20.33033372477334 -9.9950788604925531 0.0980392157 0.0980392157 0.0980392157
v -7.5586185318018355 0.23054224169351745 -12.42195502539002 0.0980392157 0.0980392157 0.0980392157
v -15.243499619707627 1.5614218365777328 1.9913221544592132 0.0980392157 0.0980392157 0.0980392157
v -9.7418478232835461 -4.2846460179120349 5.1593987011531484 0.0980392157 0.0980392157 0.0980392157
v -9.7972106047291341 3.1010835534393166 5.2388952950263343 0.0980392157 0.0980392157 0.0980392157
v -17.414240257070478 4.6678763570526449 4.0356977504157818 0.0980392157 0.0980392157 0.0980392157
v -15.243499619707627 1.5614218365777328 1.9913221544592132 0.0980392157 0.0980392157 0.0980392157
v -9.7972106047291341 3.1010835534393166 5.2388952950263343 0.0980392157 0.0980392157 0.0980392157
v -17.800268514137432 -0.012330572190690441 -2.1629563724657062 0.0980392157 0.0980392157 0.0980392157
v -15.243499619707627 1.5614218365777328 1.9913221544592132 0.0980392157 0.0980392157 0.0980392157
v -17.414240257070478 4.6678763570526449 4.0356977504157818 0.0980392157 0.0980392157 0.0980392157
v -2.9450824751493769 36.309279198976917 -10.226560866411834 0.0980392157 0.0980392157 0.0980392157
v 4.1778056216043655 38.609869311582493 -8.1882244594301827 0.0980392157 0.0980392157 0.0980392157
v -17.800268514137432 -0.012330572190690441 -2.1629563724657062 0.0980392157 0.0980392157 0.0980392157
v -17.414240257070478 4.6678763570526449 4.0356977504157818 0.0980392157 0.0980392157 0.0980392157
v -6.5566725610504406 30.144212989694189 6.0701192097366201 0.0980392157 0.0980392157 0.0980392157
v 6.9592697882269459 33.412438487729872 4.6675283984588827 0.0980392157 0.0980392157 0.0980392157
v -5.4840204108499906 36.306039717134269 1.612906255654919 0.0980392157 0.0980392157 0.0980392157
v -7.5198919284745624 37.807185269885132 -8.5275522003839512 0.0980392157 0.0980392157 0.0980392157
v -14.09227663189975 10.956334010063657 6.9533090079955135 0.0980392157 0.0980392157 0.0980392157
v -16.547199182124132 13.25326568240736 4.1169926213008186 0.0980392157 0.0980392157 0.0980392157
v -16.489671849980805 16.14246864640689 -8.1616777007796699 0.0980392157 0.0980392157 0.0980392157
v -11.44882826261712 21.213617735882451 6.6115370616139266 0.0980392157 0.0980392157 0.0980392157
v -13.492686486569506 27.729205038504222 -7.873682342893412 0.0980392157 0.0980392157 0.0980392157
v -16.547199182124132 13.25326568240736 4.1169926213008186 0.0980392157 0.0980392157 0.0980392157
v -14.09227663189975 10.956334010063657 6.9533090079955135 0.0980392157 0.0980392157 0.0980392157
v -12.508675910441072 27.893400152740387 2.2835834918881464 0.0980392157 0.0980392157 0.0980392157
v -13.492686486569506 27.729205038504222 -7.873682342893412 0.0980392157 0.0980392157 0.0980392157
v -4.6550852875303121 13.68409892888028 8.2830369986828032 0.0980392157 0.0980392157 0.0980392157
v -5.3877968125041429 7.9469575784945947 5.22771190313214 0.0980392157 0.0980392157 0.0980392157
v 7.1991169372094923 7.9666752357469059 5.2076621432905688 0.0980392157 0.0980392157 0.0980392157
v 1.539252555463591 -0.18492552660528361 -13.440681804096997 0.0980392157 0.0980392157 0.0980392157
v -8.1955404281616211 7.4532566070556641 -10.573886871337891 0.0980392157 0.0980392157 0.0980392157
v -8.2951615148022046 1.6736733743028138 2.0070846896912888 0.0980392157 0.0980392157 0.0980392157
v -9.7972106047291341 3.1010835534393166 5.2388952950263343 0.0980392157 0.0980392157 0.0980392157
v 9.8515327966341584 35.626238620651094 -7.9278446171991028 0.0980392157 0.0980392157 0.0980392157
v -12.508675910441072 27.893400152740387 2.2835834918881464 0.0980392157 0.0980392157 0.0980392157
v -9.2189139095660284 5.2941112059844171 -0.11014161098258286 0.0980392157 0.0980392157 0.0980392157
v -8.2951615148022046 1.6736733743028138 2.0070846896912888 0.0980392157 0.0980392157 0.0980392157
v -9.2101372447320653 -1.6638099160972823 -5.3324795984783488 0.0980392157 0.0980392157 0.0980392157
v -14.09227663189975 10.956334010063657 6.9533090079955135 0.0980392157 0.0980392157 0.0980392157
v -7.5198919284745624 37.807185269885132 -8.5275522003839512 0.0980392157 0.0980392157 0.0980392157
v 12.730532369564544 -4.5850298636396882 4.5565697588065541 0.0980392157 0.0980392157 0.0980392157
vn 0.96954268217086792 0.11760479956865311 -0.21483978629112244
vn 0.99739730358123779 0.066724792122840881 0.027320021763443947
vn 0.91972893476486206 0.065020911395549774 -0.38713169097900391
vn 0.74943888187408447 -0.65999090671539307 -0.052471958100795746
vn 0.75426459312438965 -0.65125787258148193 -0.0833553746342659
vn 0.76144766807556152 -0.59767943620681763 -0.25095164775848389
vn 0.74691611528396606 -0.66440129280090332 0.026215467602014542
vn 0.19642163813114166 -0.86587852239608765 -0.46007931232452393
vn 0.10441377013921738 -0.78345239162445068 -0.61261743307113647
vn -0.04028160497546196 -0.91673976182937622 -0.39744892716407776
vn 0.92850112915039062 0.2419562041759491 0.28167861700057983
vn 0.0012385551817715168 0.99999868869781494 -0.001041308743879199
vn 0.0012385551817715168 0.99999868869781494 -0.001041308743879199
vn 0.0012385551817715168 0.99999868869781494 -0.001041308743879199
vn 0.52080661058425903 0.15968608856201172 -0.83860647678375244
vn 0.68949282169342041 0.063470274209976196 -0.72150617837905884
vn 0.27380800247192383 0.044324435293674469 -0.96076250076293945
vn -0.9664762020111084 0.009034973569214344 0.25659719109535217
vn -0.9997934103012085 -0.0022398859728127718 -0.020202165469527245
vn -0.98262107372283936 0.011439252644777298 0.18526987731456757
vn -0.57352143526077271 -0.59931862354278564 -0.5584714412689209
vn -0.57352143526077271 -0.59931862354278564 -0.5584714412689209
vn -0.57352143526077271 -0.59931862354278564 -0.5584714412689209
vn -0.99955016374588013 -0.0031650899909436703 -0.029823269695043564
vn 0.42794790863990784 -0.26418855786323547 0.86432921886444092
vn 0.47907343506813049 -0.5445934534072876 0.68840873241424561
vn 0.47630766034126282 -0.51862359046936035 0.71004265546798706
vn 0.73738324642181396 0.12486999481916428 0.66383236646652222
vn 0.040688015520572662 -0.99076598882675171 -0.12933400273323059
vn 0.08664538711309433 -0.99054509401321411 -0.10636249929666519
vn -0.024478953331708908 -0.99969577789306641 0.0030284177046269178
vn 0.029625767841935158 -0.53393912315368652 0.84500372409820557
vn -0.10237019509077072 -0.45923879742622375 0.88239449262619019
vn -0.032260164618492126 -0.45388096570968628 0.89047813415527344
vn 0.024720195680856705 -0.060783922672271729 0.99784481525421143
vn 0.068084530532360077 -0.345682293176651 0.93587833642959595
vn 0.50914406776428223 -0.3037240207195282 0.80530989170074463
vn -0.57475823163986206 -0.81604254245758057 -0.061053469777107239
vn -0.57475823163986206 -0.81604254245758057 -0.061053469777107239
vn -0.57475823163986206 -0.81604254245758057 -0.061053469777107239
vn -0.20130954682826996 -0.099313221871852875 0.9744800329208374
vn -0.25604003667831421 -0.073247969150543213 0.96388703584671021
vn -0.27738207578659058 -0.069856107234954834 0.95821672677993774
vn -0.019498687237501144 -0.90331107378005981 0.42854279279708862
vn -0.078135840594768524 -0.89637839794158936 0.43634915351867676
vn -0.014607096090912819 -0.90438747406005859 0.42646214365959167
vn 0.81994152069091797 0.56074893474578857 -0.11513713747262955
vn 0.81994152069091797 0.56074893474578857 -0.11513713747262955
vn 0.81994152069091797 0.56074893474578857 -0.11513713747262955
vn -0.092826895415782928 -0.69438809156417847 0.71358835697174072
vn -0.092826895415782928 -0.69438809156417847 0.71358835697174072
vn -0.092826895415782928 -0.69438809156417847 0.71358835697174072
vn -0.58178919553756714 0.69164025783538818 -0.42796623706817627
vn -0.58178919553756714 0.69164025783538818 -0.42796623706817627
vn -0.58178919553756714 0.69164025783538818 -0.42796623706817627
vn -0.041521895676851273 -0.089252613484859467 0.99514317512512207
vn -0.037294939160346985 -0.077724635601043701 0.99627703428268433
vn -0.093481555581092834 -0.12562943994998932 0.9876631498336792
vn 0.010038610547780991 -0.90455001592636108 0.42624926567077637
vn 0.14384013414382935 0.13287399709224701 0.98063987493515015
vn 0.13338164985179901 0.00485246442258358 0.99105286598205566
vn 0.3217073380947113 0.16138181090354919 0.93298459053039551
vn -0.068636670708656311 -0.97747969627380371 0.19955572485923767
vn 0.045006252825260162 -0.91885280609130859 -0.39202550053596497
vn -0.11826354265213013 -0.84700417518615723 -0.5182640552520752
vn 0.13673876225948334 -0.084762938320636749 0.98697406053543091
vn 0.10102378576993942 -0.15461894869804382 0.9827955961227417
vn 0.85433757305145264 0.5194358229637146 0.017138596624135971
vn 0.85433757305145264 0.5194358229637146 0.017138596624135971
vn 0.85433757305145264 0.5194358229637146 0.017138596624135971
vn 0.085197843611240387 -0.78429579734802246 0.61450904607772827
vn 0.085197843611240387 -0.78429579734802246 0.61450904607772827
vn 0.085197843611240387 -0.78429579734802246 0.61450904607772827
vn -0.36810699105262756 -0.82228583097457886 0.43398532271385193
vn -0.44653764367103577 -0.75780016183853149 0.47575521469116211
vn -0.35904687643051147 -0.82889091968536377 0.42898160219192505
vn 0.9282228946685791 0.36759874224662781 -0.057213649153709412
vn 0.83995085954666138 0.49767583608627319 0.21633607149124146
vn -0.012199663557112217 -0.01908867247402668 0.99974334239959717
vn 0.049052037298679352 -0.9987824559211731 -0.0052470504306256771
vn 0.016656197607517242 -0.87808078527450562 -0.47822245955467224
vn 0.1414867639541626 -0.91340363025665283 0.3816743791103363
vn 0.41026699542999268 -0.88246476650238037 0.23008014261722565
vn 0.28410422801971436 -0.92134946584701538 0.26532986760139465
vn -0.0065915612503886223 -0.94591993093490601 0.32433328032493591
vn -0.73945742845535278 0.62749344110488892 -0.24383337795734406
vn -0.93184804916381836 0.35497361421585083 -0.075186118483543396
vn -0.82184356451034546 0.53838783502578735 -0.18631055951118469
vn 0.10613691061735153 -0.080415375530719757 0.99109452962875366
vn 0.15205469727516174 -0.079055942595005035 0.98520535230636597
vn 0.14126648008823395 0.13159827888011932 -0.98118585348129272
vn -0.18458910286426544 -0.97955900430679321 -0.079943642020225525
vn 0.094682753086090088 -0.90635108947753906 -0.41178020834922791
vn -0.16939707100391388 -0.74524521827697754 0.64491409063339233
vn 0.99739623069763184 -0.066210314631462097 -0.028581410646438599
vn 0.99407511949539185 -0.053636979311704636 -0.094539351761341095
vn 0.97828817367553711 -0.12314168363809586 0.16669838130474091
vn -0.053964093327522278 -0.98451840877532959 -0.16676737368106842
vn -0.0083198091015219688 -0.98459112644195557 -0.17467433214187622
vn -0.10868842154741287 -0.92110037803649902 -0.3738461434841156
vn 0.64461034536361694 -0.75711029767990112 0.10611987859010696
vn 0.6491924524307251 -0.74530023336410522 0.15191009640693665
vn 0.63974809646606445 -0.76554781198501587 0.068256266415119171
vn 0.97953873872756958 2.753934722932172E-06 0.20125560462474823
vn 0.97953873872756958 2.753934722932172E-06 0.20125560462474823
vn 0.97953873872756958 2.753934722932172E-06 0.20125560462474823
vn 0.91595220565795898 -0.011863996274769306 0.401111900806427
vn 0.73949003219604492 -0.66965591907501221 0.068668946623802185
vn 0.88254553079605103 -0.40843430161476135 0.23301255702972412
vn 0.39205896854400635 0.58231508731842041 0.71217900514602661
vn 0.64626240730285645 0.18435920774936676 0.74051100015640259
vn -0.68233942985534668 -0.72567510604858398 -0.088366039097309113
vn -0.68233942985534668 -0.72567510604858398 -0.088366039097309113
vn -0.68233942985534668 -0.72567510604858398 -0.088366039097309113
vn 0.65204805135726929 -0.7333189845085144 0.19255281984806061
vn -0.36397397518157959 0.85276603698730469 -0.37458378076553345
vn -0.36397397518157959 0.85276603698730469 -0.37458378076553345
vn -0.36397397518157959 0.85276603698730469 -0.37458378076553345
vn 0 -1.359532598144142E-05 -1
vn 0 -1.3641374607686885E-05 -1
vn 0 -1.369889378111111E-05 -1
vn 0.12630346417427063 -0.94946372509002686 0.28734317421913147
vn 0.12630346417427063 -0.94946372509002686 0.28734317421913147
vn 0.12630346417427063 -0.94946372509002686 0.28734317421913147
vn 0.88572549819946289 0.35022559762001038 0.30468407273292542
vn 0.88572549819946289 0.35022559762001038 0.30468407273292542
vn 0.88572549819946289 0.35022559762001038 0.30468407273292542
vn 0.75535887479782104 0.65482312440872192 0.025290889665484428
vn -0.98493707180023193 -0.092033527791500092 0.14638563990592957
vn -0.92833459377288818 -0.3496498167514801 0.12625333666801453
vn -0.95422720909118652 -0.29564705491065979 0.045201782137155533
vn -0.3861640989780426 -0.82758110761642456 -0.40741479396820068
vn -0.61047297716140747 -0.69443100690841675 -0.38090458512306213
vn -0.54990661144256592 -0.80504816770553589 -0.22248639166355133
vn -0.66572755575180054 -0.33649146556854248 0.66601824760437012
vn -0.66572755575180054 -0.33649146556854248 0.66601824760437012
vn -0.66572755575180054 -0.33649146556854248 0.66601824760437012
vn 0.74482011795043945 -0.61164289712905884 0.26671317219734192
vn 0.74482011795043945 -0.61164289712905884 0.26671317219734192
vn 0.74482011795043945 -0.61164289712905884 0.26671317219734192
vn 0.76538729667663574 -0.17898857593536377 -0.61817902326583862
vn 0.81151187419891357 -0.14463642239570618 -0.56615263223648071
vn 0.76636457443237305 -0.17830532789230347 -0.61716490983963013
vn 0.029837315902113914 -0.69298523664474487 -0.72033405303955078
vn 0.029837315902113914 -0.69298523664474487 -0.72033405303955078
vn 0.029837315902113914 -0.69298523664474487 -0.72033405303955078
vn -0.53385990858078003 -0.84440737962722778 -0.044381823390722275
vn -0.53385990858078003 -0.84440737962722778 -0.044381823390722275
vn -0.53385990858078003 -0.84440737962722778 -0.044381823390722275
vn 0.72495484352111816 -0.67866998910903931 -0.11767564713954926
vn 0.71244353055953979 -0.68540459871292114 -0.15048156678676605
vn 0.68058574199676514 -0.70951604843139648 -0.18272937834262848
vn 0.067201361060142517 -0.2779974639415741 0.95822823047637939
vn -0.1029309406876564 -0.11156848818063736 0.98841172456741333
vn 0.13622087240219116 0.12880918383598328 0.9822688102722168
vn -0.25183051824569702 -0.42057076096534729 0.87160861492156982
vn 0.023324107751250267 -0.54504936933517456 0.83807945251464844
vn 0.0089212348684668541 -0.46934255957603455 0.88297110795974731
vn 0.0088130412623286247 -0.46914449334144592 0.88307744264602661
vn -0.11720651388168335 -0.98952609300613403 -0.084265835583209991
vn -0.091882094740867615 -0.96706253290176392 -0.237376868724823
vn 0.67527031898498535 -0.72065293788909912 -0.15706488490104675
vn 0.67527031898498535 -0.72065293788909912 -0.15706488490104675
vn 0.67527031898498535 -0.72065293788909912 -0.15706488490104675
vn 0.31919920444488525 0.88184976577758789 0.34706318378448486
vn -0.70354408025741577 0.12588216364383698 -0.69941359758377075
vn -0.4084659218788147 0.083801746368408203 -0.90891849994659424
vn -0.99227380752563477 0.071838408708572388 -0.10115302354097366
vn -0.28757840394973755 0.081788867712020874 -0.9542585015296936
vn -0.18913707137107849 0.084456875920295715 -0.97831189632415771
vn -0.60679596662521362 -0.12602263689041138 0.78480374813079834
vn -0.21500726044178009 -0.45579579472541809 0.86372566223144531
vn -0.50954079627990723 0.0053779506124556065 0.86042970418930054
vn -0.26407203078269958 -0.8264654278755188 0.49721303582191467
vn -0.26407203078269958 -0.8264654278755188 0.49721303582191467
vn -0.26407203078269958 -0.8264654278755188 0.49721303582191467
vn 0.21498756110668182 -0.83807504177093506 0.50140857696533203
vn 0.12931033968925476 -0.77463650703430176 0.61904531717300415
vn -0.018016837537288666 -0.6283717155456543 0.77770453691482544
vn -0.1299985945224762 0.18384745717048645 -0.97432053089141846
vn 0.1433379203081131 0.96482455730438232 -0.22038094699382782
vn -0.99566441774368286 0.09148687869310379 0.016807325184345245
vn -0.9851987361907959 0.10058615356683731 0.13880150020122528
vn -0.20145471394062042 0.32409301400184631 0.92432659864425659
vn 0.064910106360912323 0.12235406786203384 0.99036163091659546
vn -0.30619847774505615 0.82963865995407104 0.46684277057647705
vn -0.51630556583404541 0.8563237190246582 0.011756458319723606
vn -0.42134192585945129 0.10378764569759369 0.90094345808029175
vn -0.95626914501190186 0.16390013694763184 0.24225206673145294
vn -0.98165518045425415 0.15302909910678864 -0.11373311281204224
vn -0.44012507796287537 0.19708807766437531 0.87604010105133057
vn -0.73300480842590332 0.24974644184112549 -0.63271689414978027
vn -0.62799608707427979 0.40318503975868225 0.66562956571578979
vn -0.67309349775314331 0.34908926486968994 0.65198302268981934
vn -0.89254856109619141 0.37665373086929321 0.24796976149082184
vn -0.94672226905822754 0.31467503309249878 -0.068531781435012817
vn 4.9111637054011226E-05 -0.41942620277404785 0.90778940916061401
vn -4.1422521462664008E-05 -0.41946104168891907 0.90777331590652466
vn 5.0009966798825189E-05 -0.41942593455314636 0.90778952836990356
vn 0.038495749235153198 0.066764667630195618 -0.99702584743499756
vn 0.16395135223865509 -0.092312730848789215 0.98213964700698853
vn 0.99424159526824951 0.012810545973479748 0.10639356076717377
vn 0.98776084184646606 3.6821391404373571E-05 0.15597593784332275
vn 0.38345548510551453 0.28197506070137024 -0.87946116924285889
vn -0.7547716498374939 0.3620293140411377 0.54704159498214722
vn 0.98219233751296997 0.18714053928852081 0.016632996499538422
vn 0.99676769971847534 0.054516628384590149 0.059009157121181488
vn 0.97196048498153687 -0.062019240111112595 -0.22681812942028046
vn -0.2039591372013092 0.13259154558181763 0.9699588418006897
vn -0.38918527960777283 0.39393535256385803 -0.83267629146575928
vn -0.99977046251296997 -0.017741315066814423 -0.012008866295218468
usemtl vc_191919__Default
f 1//1 2//2 3//3
f 4//4 5//5 6//6
f 4//4 7//7 5//5
f 8//8 9//9 10//10
f 11//11 2//2 1//1
f 12//12 13//13 14//14
f 15//15 1//1 16//16
f 17//17 15//15 16//16
f 18//18 19//19 20//20
f 21//21 22//22 23//23
f 20//20 19//19 24//24
f 25//25 26//26 27//27
f 11//11 28//28 2//2
f 29//29 30//30 31//31
f 32//32 33//33 34//34
f 34//34 33//33 35//35
f 36//36 35//35 37//37
f 34//34 35//35 36//36
f 38//38 39//39 40//40
f 41//41 42//42 43//43
f 44//44 45//45 46//46
f 47//47 48//48 49//49
f 50//50 51//51 52//52
f 53//53 54//54 55//55
f 56//56 57//57 58//58
f 46//46 59//59 44//44
f 60//60 61//61 62//62
f 63//63 64//64 65//65
f 66//66 57//57 67//67
f 68//68 69//69 70//70
f 71//71 72//72 73//73
f 74//74 75//75 76//76
f 11//11 77//77 78//78
f 79//79 61//61 60//60
f 80//80 63//63 81//81
f 80//80 82//82 63//63
f 60//60 62//62 11//11
f 83//83 84//84 85//85
f 86//86 87//87 88//88
f 89//89 90//90 66//66
f 15//15 17//17 91//91
f 92//92 93//93 94//94
f 95//95 96//96 97//97
f 98//98 99//99 100//100
f 101//101 102//102 103//103
f 104//104 105//105 106//106
f 107//107 108//108 109//109
f 110//110 60//60 111//111
f 112//112 113//113 114//114
f 101//101 115//115 102//102
f 116//116 117//117 118//118
f 119//119 120//120 121//121
f 122//122 123//123 124//124
f 125//125 126//126 127//127
f 110//110 111//111 78//78
f 128//128 78//78 77//77
f 129//129 130//130 131//131
f 132//132 133//133 134//134
f 135//135 136//136 137//137
f 138//138 139//139 140//140
f 141//141 142//142 143//143
f 144//144 145//145 146//146
f 147//147 148//148 149//149
f 150//150 151//151 152//152
f 153//153 154//154 155//155
f 153//153 156//156 154//154
f 157//157 158//158 159//159
f 160//160 98//98 161//161
f 162//162 163//163 164//164
f 165//165 78//78 128//128
f 166//166 167//167 168//168
f 169//169 170//170 167//167
f 169//169 167//167 166//166
f 171//171 172//172 173//173
f 174//174 175//175 176//176
f 177//177 178//178 179//179
f 180//180 181//181 91//91
f 168//168 182//182 183//183
f 184//184 60//60 185//185
f 186//186 184//184 110//110
f 181//181 187//187 186//186 165//165
f 187//187 181//181 180//180
f 183//183 188//188 189//189
f 183//183 189//189 190//190 168//168
f 191//191 79//79 184//184
f 110//110 165//165 186//186
f 166//166 192//192 169//169
f 191//191 193//193 194//194
f 195//195 193//193 191//191
f 190//190 189//189 195//195 196//196
f 186//186 195//195 184//184
f 187//187 195//195 186//186
f 77//77 11//11 1//1
f 197//197 198//198 199//199
f 91//91 17//17 200//200
f 170//170 169//169 200//200
f 90//90 89//89 201//201
f 97//97 202//202 203//203
f 110//110 78//78 165//165
f 204//204 91//91 181//181
f 165//165 128//128 181//181
f 184//184 205//205 191//191
f 196//196 195//195 187//187
f 206//206 207//207 208//208
f 169//169 180//180 200//200
f 79//79 191//191 209//209
f 180//180 169//169 210//210
f 91//91 200//200 180//180
f 192//192 210//210 169//169
f 91//91 204//204 15//15
f 96//96 207//207 97//97
f 211//211 24//24 19//19
f 79//79 60//60 184//184
