# Dual color encoding: per-vertex RGB for Rerun, face MTL colors for legacy RViz.
mtllib sim_gene01_l_hand_middle_4.mtl
# Rhino

g sim_gene01_l_hand_middle_4
v 13.292359067921316 -0.25709809140940709 -6.5844700756667169 0.0980392157 0.0980392157 0.0980392157
v 11.145307683007275 -0.51513925548151429 -8.894373152620723 0.0980392157 0.0980392157 0.0980392157
v 12.858380611919861 14.694123501668914 -5.9386857001459079 0.0980392157 0.0980392157 0.0980392157
v -1.041425237375476 26.060023753643037 -10.505501546514472 0.0980392157 0.0980392157 0.0980392157
v 3.6148843289315877 29.88827770996415 -8.4316475073782193 0.0980392157 0.0980392157 0.0980392157
v 10.325304084917931 15.697544368786168 -8.9135515005550534 0.0980392157 0.0980392157 0.0980392157
v 8.8119325836677334 26.568069540616786 -6.5500338455442195 0.0980392157 0.0980392157 0.0980392157
v 1.1422026247672363 -0.70444756470748104 -11.396130523820416 0.0980392157 0.0980392157 0.0980392157
v 4.0721908355509813 -0.72680812027374886 -9.9579930224489921 0.0980392157 0.0980392157 0.0980392157
v 1.1422026247672363 -0.70444756470748104 -11.396130523820416 0.0980392157 0.0980392157 0.0980392157
v 11.145307683007275 -0.51513925548151429 -8.894373152620723 0.0980392157 0.0980392157 0.0980392157
v -4.0074528568227628 31.045576368627071 -7.1199458703322325 0.0980392157 0.0980392157 0.0980392157
v 3.388020123072701 17.92118598069797 -9.1436898189266618 0.0980392157 0.0980392157 0.0980392157
v 6.3816250880032435 0.28118691984531186 -5.7324128317694445 0.0980392157 0.0980392157 0.0980392157
v 4.3495118189326831 7.9021487333185227 -5.1142582388445241 0.0980392157 0.0980392157 0.0980392157
v -3.9046725497980144 18.187055958023763 -5.8001922173034952 0.0980392157 0.0980392157 0.0980392157
v -3.9315621098071798 18.482498428263419 -9.0311014469471651 0.0980392157 0.0980392157 0.0980392157
v 3.388020123072701 17.92118598069797 -9.1436898189266618 0.0980392157 0.0980392157 0.0980392157
v -4.6202251916754467 7.6196352556428142 -9.5680522977442468 0.0980392157 0.0980392157 0.0980392157
v 3.388020123072701 17.92118598069797 -9.1436898189266618 0.0980392157 0.0980392157 0.0980392157
v -3.9315621098071798 18.482498428263419 -9.0311014469471651 0.0980392157 0.0980392157 0.0980392157
v -4.6202251916754467 7.6196352556428142 -9.5680522977442468 0.0980392157 0.0980392157 0.0980392157
v 4.0721908355509813 -0.72680812027374886 -9.9579930224489921 0.0980392157 0.0980392157 0.0980392157
v -6.4878945677767987 -0.71591129359182459 -10.382125266553871 0.0980392157 0.0980392157 0.0980392157
v -6.4878945677767987 -0.71591129359182459 -10.382125266553871 0.0980392157 0.0980392157 0.0980392157
v -9.555242680417896 26.438479815977459 -7.0362541306219377 0.0980392157 0.0980392157 0.0980392157
v -4.6202251916754467 7.6196352556428142 -9.5680522977442468 0.0980392157 0.0980392157 0.0980392157
v -3.9315621098071798 18.482498428263419 -9.0311014469471651 0.0980392157 0.0980392157 0.0980392157
v -3.9046725497980144 18.187055958023763 -5.8001922173034952 0.0980392157 0.0980392157 0.0980392157
v -6.4878945677767987 -0.71591129359182459 -10.382125266553871 0.0980392157 0.0980392157 0.0980392157
v -3.8825729554947315 7.4700872001487353 -5.1075328778700388 0.0980392157 0.0980392157 0.0980392157
v -8.4750133728624473 6.054023133652513 -5.030327131462645 0.0980392157 0.0980392157 0.0980392157
v -4.6202251916754467 7.6196352556428142 -9.5680522977442468 0.0980392157 0.0980392157 0.0980392157
v -11.5471207377784 13.997388866597454 -8.5482434943627634 0.0980392157 0.0980392157 0.0980392157
v -6.4878945677767987 -0.71591129359182459 -10.382125266553871 0.0980392157 0.0980392157 0.0980392157
v -4.6202251916754467 7.6196352556428142 -9.5680522977442468 0.0980392157 0.0980392157 0.0980392157
v -8.4750133728624473 6.054023133652513 -5.030327131462645 0.0980392157 0.0980392157 0.0980392157
v 13.288792800335527 3.7468607255847401 4.7035471077181246 0.0980392157 0.0980392157 0.0980392157
v 13.292359067921316 -0.25709809140940709 -6.5844700756667169 0.0980392157 0.0980392157 0.0980392157
v 5.7260621707084658 -4.4033069949418344 -2.4416171588545676 0.0980392157 0.0980392157 0.0980392157
v 11.145307683007275 -0.51513925548151429 -8.894373152620723 0.0980392157 0.0980392157 0.0980392157
v 13.292359067921316 -0.25709809140940709 -6.5844700756667169 0.0980392157 0.0980392157 0.0980392157
v 10.325304084917931 15.697544368786168 -8.9135515005550534 0.0980392157 0.0980392157 0.0980392157
v 5.7260621707084658 -4.4033069949418344 -2.4416171588545676 0.0980392157 0.0980392157 0.0980392157
v 6.3816250880032435 0.28118691984531186 -5.7324128317694445 0.0980392157 0.0980392157 0.0980392157
v 11.145307683007275 -0.51513925548151429 -8.894373152620723 0.0980392157 0.0980392157 0.0980392157
v 3.3170295393916769 31.798988138005701 -5.057354607534899 0.0980392157 0.0980392157 0.0980392157
v 7.9871565784155392 28.033163728359074 1.2196441689747164 0.0980392157 0.0980392157 0.0980392157
v 3.388020123072701 17.92118598069797 -9.1436898189266618 0.0980392157 0.0980392157 0.0980392157
v 3.4900278700351701 15.529196078709644 -5.2296383267539905 0.0980392157 0.0980392157 0.0980392157
v -3.9046725497980144 18.187055958023763 -5.8001922173034952 0.0980392157 0.0980392157 0.0980392157
v -5.6754894092555697 30.76493756882704 -1.2138517220881759 0.0980392157 0.0980392157 0.0980392157
v -4.0074528568227628 31.045576368627071 -7.1199458703322325 0.0980392157 0.0980392157 0.0980392157
v -3.8825729554947315 7.4700872001487353 -5.1075328778700388 0.0980392157 0.0980392157 0.0980392157
v -3.9046725497980144 18.187055958023763 -5.8001922173034952 0.0980392157 0.0980392157 0.0980392157
v 3.4900278700351701 15.529196078709644 -5.2296383267539905 0.0980392157 0.0980392157 0.0980392157
v -8.7201016541452638 -4.7490652806833173 -3.1289201637684858 0.0980392157 0.0980392157 0.0980392157
v -8.7382237597478483 -0.82777139191940452 -5.1277402842338038 0.0980392157 0.0980392157 0.0980392157
v -8.4750133728624473 6.054023133652513 -5.030327131462645 0.0980392157 0.0980392157 0.0980392157
v -13.453389264274678 -0.20734091222805828 -7.3486310625968896 0.0980392157 0.0980392157 0.0980392157
v -8.7382237597478483 -0.82777139191940452 -5.1277402842338038 0.0980392157 0.0980392157 0.0980392157
v -8.7201016541452638 -4.7490652806833173 -3.1289201637684858 0.0980392157 0.0980392157 0.0980392157
v -13.62292692185339 13.09620955942893 -5.8185361227328576 0.0980392157 0.0980392157 0.0980392157
v -13.453389264274678 -0.20734091222805828 -7.3486310625968896 0.0980392157 0.0980392157 0.0980392157
v -14.222187778200109 1.7366114551925818 2.5486498255239138 0.0980392157 0.0980392157 0.0980392157
v 11.336392374809893 19.007445531088486 4.6742747196970571 0.0980392157 0.0980392157 0.0980392157
v 10.081388093124588 -5.1157409320346545 0.18682381528235911 0.0980392157 0.0980392157 0.0980392157
v 5.7260621707084658 -4.4033069949418344 -2.4416171588545676 0.0980392157 0.0980392157 0.0980392157
v 13.292359067921316 -0.25709809140940709 -6.5844700756667169 0.0980392157 0.0980392157 0.0980392157
v 0.34830964966771949 31.168606490398435 -0.23022178226299703 0.0980392157 0.0980392157 0.0980392157
v -6.6870987406336253 9.1047811119274584 -0.2460093728595758 0.0980392157 0.0980392157 0.0980392157
v -3.8825729554947315 7.4700872001487353 -5.1075328778700388 0.0980392157 0.0980392157 0.0980392157
v 4.3495118189326831 7.9021487333185227 -5.1142582388445241 0.0980392157 0.0980392157 0.0980392157
v -8.4750133728624473 6.054023133652513 -5.030327131462645 0.0980392157 0.0980392157 0.0980392157
v -9.3551870863705044 -3.5306553504671401 4.5522299817213758 0.0980392157 0.0980392157 0.0980392157
v -8.7526576184483709 4.9236819742420259 4.8889491837425156 0.0980392157 0.0980392157 0.0980392157
v -6.0774478706159201 8.2695265822283019 4.4978218362704672 0.0980392157 0.0980392157 0.0980392157
v -8.7526576184483709 4.9236819742420259 4.8889491837425156 0.0980392157 0.0980392157 0.0980392157
v -6.6870987406336253 9.1047811119274584 -0.2460093728595758 0.0980392157 0.0980392157 0.0980392157
v -8.4750133728624473 6.054023133652513 -5.030327131462645 0.0980392157 0.0980392157 0.0980392157
v -11.159486576203999 -4.7927097753766654 0.649908970453281 0.0980392157 0.0980392157 0.0980392157
v -13.453389264274678 -0.20734091222805828 -7.3486310625968896 0.0980392157 0.0980392157 0.0980392157
v -8.7201016541452638 -4.7490652806833173 -3.1289201637684858 0.0980392157 0.0980392157 0.0980392157
v -12.539605794621563 17.590631576149462 3.7595350872805868 0.0980392157 0.0980392157 0.0980392157
v -9.6205898848587506 25.555433675581686 3.3877680063294435 0.0980392157 0.0980392157 0.0980392157
v 9.5226308938756699 -1.1053126886559133 4.8329346456899884 0.0980392157 0.0980392157 0.0980392157
v 10.081388093124588 -5.1157409320346545 0.18682381528235911 0.0980392157 0.0980392157 0.0980392157
v 13.292359067921316 -0.25709809140940709 -6.5844700756667169 0.0980392157 0.0980392157 0.0980392157
v 5.7260621707084658 -4.4033069949418344 -2.4416171588545676 0.0980392157 0.0980392157 0.0980392157
v 10.081388093124588 -5.1157409320346545 0.18682381528235911 0.0980392157 0.0980392157 0.0980392157
v 6.2656462241006414 -4.2438283748525549 4.0056421747530111 0.0980392157 0.0980392157 0.0980392157
v 5.8853776590464983 8.4987150203149131 4.8258020881648616 0.0980392157 0.0980392157 0.0980392157
v 4.3495118189326831 7.9021487333185227 -5.1142582388445241 0.0980392157 0.0980392157 0.0980392157
v 6.3816250880032435 0.28118691984531186 -5.7324128317694445 0.0980392157 0.0980392157 0.0980392157
v 6.2656462241006414 -4.2438283748525549 4.0056421747530111 0.0980392157 0.0980392157 0.0980392157
v 5.8853776590464983 8.4987150203149131 4.8258020881648616 0.0980392157 0.0980392157 0.0980392157
v 5.7260621707084658 -4.4033069949418344 -2.4416171588545676 0.0980392157 0.0980392157 0.0980392157
v 5.8853776590464983 8.4987150203149131 4.8258020881648616 0.0980392157 0.0980392157 0.0980392157
v -14.222187778200109 1.7366114551925818 2.5486498255239138 0.0980392157 0.0980392157 0.0980392157
v -13.453389264274678 -0.20734091222805828 -7.3486310625968896 0.0980392157 0.0980392157 0.0980392157
v -9.3551870863705044 -3.5306553504671401 4.5522299817213758 0.0980392157 0.0980392157 0.0980392157
v 9.5226308938756699 -1.1053126886559133 4.8329346456899884 0.0980392157 0.0980392157 0.0980392157
v 13.292359067921316 -0.25709809140940709 -6.5844700756667169 0.0980392157 0.0980392157 0.0980392157
v 13.288792800335527 3.7468607255847401 4.7035471077181246 0.0980392157 0.0980392157 0.0980392157
v -3.7870033265934517 27.571592680947955 4.4805280786288169 0.0980392157 0.0980392157 0.0980392157
v -6.0774478706159201 8.2695265822283019 4.4978218362704672 0.0980392157 0.0980392157 0.0980392157
v -5.6754894092555697 30.76493756882704 -1.2138517220881759 0.0980392157 0.0980392157 0.0980392157
v 6.2656462241006414 -4.2438283748525549 4.0056421747530111 0.0980392157 0.0980392157 0.0980392157
v 10.081388093124588 -5.1157409320346545 0.18682381528235911 0.0980392157 0.0980392157 0.0980392157
v 9.5226308938756699 -1.1053126886559133 4.8329346456899884 0.0980392157 0.0980392157 0.0980392157
v 5.3785711354603194 25.163005959446998 6.1290830775603471 0.0980392157 0.0980392157 0.0980392157
v -8.7526576184483709 4.9236819742420259 4.8889491837425156 0.0980392157 0.0980392157 0.0980392157
v -14.222187778200109 1.7366114551925818 2.5486498255239138 0.0980392157 0.0980392157 0.0980392157
v -9.3551870863705044 -3.5306553504671401 4.5522299817213758 0.0980392157 0.0980392157 0.0980392157
v -12.194972746050123 9.8361119531679471 7.1144059908761825 0.0980392157 0.0980392157 0.0980392157
v 9.2221116081800218 11.733351370498713 7.9824312072565249 0.0980392157 0.0980392157 0.0980392157
v 11.336392374809893 19.007445531088486 4.6742747196970571 0.0980392157 0.0980392157 0.0980392157
v 9.2221116081800218 11.733351370498713 7.9824312072565249 0.0980392157 0.0980392157 0.0980392157
v 5.8853776590464983 8.4987150203149131 4.8258020881648616 0.0980392157 0.0980392157 0.0980392157
v 13.288792800335527 3.7468607255847401 4.7035471077181246 0.0980392157 0.0980392157 0.0980392157
v 9.5226308938756699 -1.1053126886559133 4.8329346456899884 0.0980392157 0.0980392157 0.0980392157
v 13.288792800335527 3.7468607255847401 4.7035471077181246 0.0980392157 0.0980392157 0.0980392157
v 5.8853776590464983 8.4987150203149131 4.8258020881648616 0.0980392157 0.0980392157 0.0980392157
v -12.194972746050123 9.8361119531679471 7.1144059908761825 0.0980392157 0.0980392157 0.0980392157
v -8.7526576184483709 4.9236819742420259 4.8889491837425156 0.0980392157 0.0980392157 0.0980392157
v -6.0774478706159201 8.2695265822283019 4.4978218362704672 0.0980392157 0.0980392157 0.0980392157
v -12.194972746050123 9.8361119531679471 7.1144059908761825 0.0980392157 0.0980392157 0.0980392157
v -6.0774478706159201 8.2695265822283019 4.4978218362704672 0.0980392157 0.0980392157 0.0980392157
v -3.3000547998111074 14.060327702566457 8.528534658958117 0.0980392157 0.0980392157 0.0980392157
v -3.3000547998111074 14.060327702566457 8.528534658958117 0.0980392157 0.0980392157 0.0980392157
v 5.8853776590464983 8.4987150203149131 4.8258020881648616 0.0980392157 0.0980392157 0.0980392157
v 9.2221116081800218 11.733351370498713 7.9824312072565249 0.0980392157 0.0980392157 0.0980392157
v -7.4372551143355814 21.519663170349766 6.9665797734284833 0.0980392157 0.0980392157 0.0980392157
v -12.194972746050123 9.8361119531679471 7.1144059908761825 0.0980392157 0.0980392157 0.0980392157
v -14.222187778200109 1.7366114551925818 2.5486498255239138 0.0980392157 0.0980392157 0.0980392157
v -8.7526576184483709 4.9236819742420259 4.8889491837425156 0.0980392157 0.0980392157 0.0980392157
v -12.194972746050123 9.8361119531679471 7.1144059908761825 0.0980392157 0.0980392157 0.0980392157
v -3.3000547998111074 14.060327702566457 8.528534658958117 0.0980392157 0.0980392157 0.0980392157
v -9.555242680417896 26.438479815977459 -7.0362541306219377 0.0980392157 0.0980392157 0.0980392157
v -11.5471207377784 13.997388866597454 -8.5482434943627634 0.0980392157 0.0980392157 0.0980392157
v 5.3785711354603194 25.163005959446998 6.1290830775603471 0.0980392157 0.0980392157 0.0980392157
v 3.6148843289315877 29.88827770996415 -8.4316475073782193 0.0980392157 0.0980392157 0.0980392157
v 6.3816250880032435 0.28118691984531186 -5.7324128317694445 0.0980392157 0.0980392157 0.0980392157
v -9.3551870863705044 -3.5306553504671401 4.5522299817213758 0.0980392157 0.0980392157 0.0980392157
v -11.159486576203999 -4.7927097753766654 0.649908970453281 0.0980392157 0.0980392157 0.0980392157
v -8.7201016541452638 -4.7490652806833173 -3.1289201637684858 0.0980392157 0.0980392157 0.0980392157
v -13.453389264274678 -0.20734091222805828 -7.3486310625968896 0.0980392157 0.0980392157 0.0980392157
v -11.159486576203999 -4.7927097753766654 0.649908970453281 0.0980392157 0.0980392157 0.0980392157
v -9.3551870863705044 -3.5306553504671401 4.5522299817213758 0.0980392157 0.0980392157 0.0980392157
v 6.2656462241006414 -4.2438283748525549 4.0056421747530111 0.0980392157 0.0980392157 0.0980392157
v 6.3816250880032435 0.28118691984531186 -5.7324128317694445 0.0980392157 0.0980392157 0.0980392157
v -9.6205898848587506 25.555433675581686 3.3877680063294435 0.0980392157 0.0980392157 0.0980392157
v 6.3816250880032435 0.28118691984531186 -5.7324128317694445 0.0980392157 0.0980392157 0.0980392157
v -13.453389264274678 -0.20734091222805828 -7.3486310625968896 0.0980392157 0.0980392157 0.0980392157
v 5.8853776590464983 8.4987150203149131 4.8258020881648616 0.0980392157 0.0980392157 0.0980392157
v -3.3000547998111074 14.060327702566457 8.528534658958117 0.0980392157 0.0980392157 0.0980392157
v -6.0774478706159201 8.2695265822283019 4.4978218362704672 0.0980392157 0.0980392157 0.0980392157
v -8.7382237597478483 -0.82777139191940452 -5.1277402842338038 0.0980392157 0.0980392157 0.0980392157
v -13.453389264274678 -0.20734091222805828 -7.3486310625968896 0.0980392157 0.0980392157 0.0980392157
v -3.3000547998111074 14.060327702566457 8.528534658958117 0.0980392157 0.0980392157 0.0980392157
v 3.4900278700351701 15.529196078709644 -5.2296383267539905 0.0980392157 0.0980392157 0.0980392157
v -8.4750133728624473 6.054023133652513 -5.030327131462645 0.0980392157 0.0980392157 0.0980392157
v -3.8825729554947315 7.4700872001487353 -5.1075328778700388 0.0980392157 0.0980392157 0.0980392157
v -8.7382237597478483 -0.82777139191940452 -5.1277402842338038 0.0980392157 0.0980392157 0.0980392157
v 4.3495118189326831 7.9021487333185227 -5.1142582388445241 0.0980392157 0.0980392157 0.0980392157
vn 0.80708461999893188 -0.00074890966061502695 -0.59043532609939575
vn 0.47310295701026917 0.009531710296869278 -0.88095557689666748
vn 0.98232585191726685 0.13442724943161011 -0.13025052845478058
vn -0.02383529394865036 0.1241275742650032 -0.99197995662689209
vn 0.26104596257209778 0.46399107575416565 -0.84650295972824097
vn 0.41671118140220642 0.041208088397979736 -0.90810441970825195
vn 0.84818083047866821 0.45317128300666809 -0.27427190542221069
vn 0.062897160649299622 0.018190899863839149 -0.99785423278808594
vn 0.00043391206418164074 -0.99990248680114746 -0.01395952794700861
vn -0.0016164467670023441 -0.99991601705551147 -0.012858050875365734
vn 0.0038560638204216957 -0.99996435642242432 -0.0075096976943314075
vn -0.35198590159416199 0.61773359775543213 -0.70321488380432129
vn -0.99998378753662109 -0.0025862387847155333 -0.0050674132071435452
vn -0.99976927042007446 -0.0030591248068958521 -0.021260222420096397
vn -0.99990189075469971 -0.0022363841999322176 -0.013828112743794918
vn -0.001975951949134469 -0.99999803304672241 0
vn -0.0019758017733693123 -0.99999803304672241 0
vn -0.0019767701160162687 -0.99999803304672241 0
vn 0.098209932446479797 -0.030412260442972183 0.99470090866088867
vn -0.090156108140945435 -0.072272293269634247 0.9933018684387207
vn 0.055048111826181412 -0.12133719027042389 0.99108374118804932
vn 0.1664426326751709 -0.020324356853961945 0.98584163188934326
vn -0.14021433889865875 -0.021446686238050461 0.98988884687423706
vn -0.19512438774108887 0.012659868225455284 -0.98069679737091064
vn -0.0045473701320588589 -0.99980020523071289 -0.019464405253529549
vn -0.82087385654449463 0.42634490132331848 -0.3799949586391449
vn 0.99986422061920166 -0.0028719673864543438 -0.016226667910814285
vn 0.99996185302734375 -0.0039326781406998634 -0.0077959997579455376
vn 0.99997884035110474 -0.0025967471301555634 -0.0059607438743114471
vn 0.16794782876968384 -0.015234513208270073 0.98567813634872437
vn -8.7556247308384627E-05 -0.99999552965164185 -0.0029848313424736261
vn 0.003242346690967679 -0.99999433755874634 -0.00089134601876139641
vn 0.0027181773912161589 -0.99999558925628662 -0.0012208903208374977
vn -0.50566107034683228 0.071545816957950592 -0.85976046323776245
vn 0.89435398578643799 -0.0018836596282199025 0.44735598564147949
vn 0.88734298944473267 -0.014006159268319607 0.46089717745780945
vn 0.8855019211769104 -0.0087670935317873955 0.46455299854278564
vn 0.99189478158950806 0.038396816700696945 0.1211213544011116
vn 0.96408343315124512 -0.0042457352392375469 -0.2655656635761261
vn 0.011262231506407261 -0.59336161613464355 -0.80485719442367554
vn 0.11642657965421677 -0.89787179231643677 -0.42458346486091614
vn 0.27094399929046631 -0.87641036510467529 -0.39811334013938904
vn 0.64908301830291748 0.11462529003620148 -0.75203210115432739
vn -0.54386776685714722 -0.28016182780265808 -0.7910228967666626
vn -0.54386776685714722 -0.28016182780265808 -0.7910228967666626
vn -0.54386776685714722 -0.28016182780265808 -0.7910228967666626
vn 0.28293415904045105 0.95499128103256226 -0.089106030762195587
vn 0.74515897035598755 0.6207420825958252 0.2437567263841629
vn -0.00030563116888515651 -0.38582274317741394 -0.92257291078567505
vn 0.00018507185450289398 -0.38620194792747498 -0.92241424322128296
vn -0.00080870906822383404 -0.38480514287948608 -0.92299747467041016
vn -0.40575510263442993 0.88377583026885986 0.23303021490573883
vn -0.28592139482498169 0.88943970203399658 -0.3565753698348999
vn 0 0 -1
vn 0 0 -1
vn 0 0 -1
vn 0.99999994039535522 0.00020985327137168497 0.00027250839048065245
vn 1 3.7305676414689515E-06 7.5063367148686666E-06
vn 1 -7.3148657975252718E-05 -9.2623362434096634E-05
vn -0.54088222980499268 0.22430478036403656 -0.81063789129257202
vn -0.015798268839716911 -0.37940409779548645 -0.92509621381759644
vn 0.063014373183250427 -0.7037394642829895 -0.70765805244445801
vn -0.98439741134643555 0.11074978113174438 -0.13673415780067444
vn -0.92462176084518433 -0.0031902741175144911 -0.38087323307991028
vn -0.9983019232749939 0.022377016022801399 0.053781863301992416
vn 0.8991362452507019 0.24212409555912018 0.36459559202194214
vn 0.16023585200309753 -0.70420956611633301 -0.69167435169219971
vn 0.050611771643161774 -0.7711414098739624 -0.63464903831481934
vn 0.056687768548727036 -0.76939505338668823 -0.63625288009643555
vn 0.020602982491254807 0.92180591821670532 0.3871038556098938
vn 0.00065698340767994523 -0.99738603830337524 0.072254441678524017
vn -6.1500955780502409E-05 -0.89155244827270508 0.4529174268245697
vn -0.0043112672865390778 -0.95346415042877197 0.30147561430931091
vn 0.0030039774719625711 -0.93169254064559937 0.36323541402816772
vn 0.99999988079071045 0.0002174593391828239 -0.00045373113243840635
vn 0.99999988079071045 -0.00040410098154097795 -0.00016275122470688075
vn 0.84095257520675659 -0.49532139301300049 -0.21784287691116333
vn 0.89672619104385376 -0.42882108688354492 -0.10952015221118927
vn 0.90411162376403809 -0.42726346850395203 0.0052981199696660042
vn 0.87413859367370605 -0.47548630833625793 0.098966829478740692
vn -0.93067455291748047 -0.36427739262580872 0.033865869045257568
vn -0.87071377038955688 -0.46374443173408508 -0.16370289027690887
vn -0.37436842918395996 -0.77585095167160034 -0.50784206390380859
vn -0.94850742816925049 0.21377916634082794 0.23373526334762573
vn -0.76409626007080078 0.51133430004119873 0.39331173896789551
vn 0.99900227785110474 0.015435267239809036 0.04190661758184433
vn 0.9929845929145813 -0.10705963522195816 0.050197385251522064
vn 0.84708702564239502 -0.42064493894577026 0.32480975985527039
vn 0.0026219836436212063 -0.88711977005004883 -0.46153178811073303
vn -0.0011106088059023023 -0.98063254356384277 0.1958533376455307
vn -0.0059117781929671764 -0.89293527603149414 0.45014622807502747
vn -0.90188395977020264 -0.37751421332359314 -0.20997226238250732
vn -0.91656643152236938 -0.34692290425300598 0.19887302815914154
vn -0.86208182573318481 -0.48076161742210388 0.16025970876216888
vn -0.98537230491638184 -0.082877799868583679 0.14890486001968384
vn -0.9963957667350769 0.084489740431308746 -0.0075487862341105938
vn -0.99711579084396362 -0.065658710896968842 -0.03806542232632637
vn -0.01066292729228735 -0.91260433197021484 -0.40870484709739685
vn -0.78224903345108032 -0.53211134672164917 0.32395055890083313
vn -0.52702230215072632 -0.830047607421875 -0.18239627778530121
vn -0.69795352220535278 -0.70317196846008301 0.13568376004695892
vn 0.57712125778198242 -0.8165934681892395 0.010303079150617123
vn 0.59429478645324707 -0.64363622665405273 0.48223033547401428
vn 0.57413387298583984 -0.81874614953994751 -0.005003306083381176
vn -0.074106648564338684 0.66461038589477539 0.74350607395172119
vn 0.0016934265149757266 -0.92213010787963867 -0.38687625527381897
vn -0.37903574109077454 0.88699853420257568 0.26375266909599304
vn 0.068826176226139069 -0.70541727542877197 0.70544272661209106
vn 0.23391921818256378 -0.7021021842956543 0.6725580096244812
vn -0.1209196150302887 -0.89860653877258301 0.4217638373374939
vn 0.20228460431098938 0.32685846090316772 0.92317086458206177
vn -0.38881060481071472 3.8049889553803951E-05 0.9213176965713501
vn -0.38881060481071472 3.8049889553803951E-05 0.9213176965713501
vn -0.38881060481071472 3.8049889553803951E-05 0.9213176965713501
vn -0.6705595850944519 0.20051825046539307 0.71424245834350586
vn 0.33061915636062622 0.26971840858459473 0.90440201759338379
vn 0.83760571479797363 0.28336799144744873 0.46703243255615234
vn -0.15503817796707153 -0.58632338047027588 0.79510253667831421
vn 0.041987277567386627 -0.58183985948562622 0.81221884489059448
vn -0.2868601381778717 -0.49798530340194702 0.81836539506912231
vn 0.04293745756149292 -0.1100575253367424 0.99299734830856323
vn 0.10382010042667389 -0.037632711231708527 0.99388390779495239
vn 0.0078865699470043182 0.040810231119394302 0.99913579225540161
vn 0.31431707739830017 -0.31370657682418823 0.89598715305328369
vn 0.31431707739830017 -0.31370657682418823 0.89598715305328369
vn 0.31431707739830017 -0.31370657682418823 0.89598715305328369
vn 0.18156671524047852 -0.82914471626281738 0.52872729301452637
vn 0.084512323141098022 -0.82471925020217896 0.55919206142425537
vn 0.080462999641895294 -0.60489106178283691 0.79223263263702393
vn 0.086446322500705719 -0.61971735954284668 0.78004962205886841
vn -0.028727045282721519 -0.73305022716522217 0.67956763505935669
vn -0.20834942162036896 -0.80224752426147461 0.55945456027984619
vn -0.25446164608001709 0.26365569233894348 0.93044877052307129
vn -0.78803384304046631 0.069995790719985962 0.61163979768753052
vn -0.27920296788215637 -0.64936715364456177 0.707366943359375
vn 0.03743864968419075 -0.33239609003067017 0.94239652156829834
vn 0.077311545610427856 -0.20881514251232147 0.97489446401596069
vn -0.1020510345697403 0.092940777540206909 0.99042797088623047
vn -0.60762357711791992 0.39676424860954285 -0.68802016973495483
vn -0.7506023645401001 0.10123318433761597 -0.65295320749282837
vn 0.21158105134963989 0.57865267992019653 0.78765124082565308
vn 0.19838039577007294 0.81779581308364868 -0.54023629426956177
vn -0.99709296226501465 0.024416249245405197 -0.072176292538642883
vn -0.13220745325088501 -0.55951410531997681 0.81820851564407349
vn -0.34155067801475525 -0.93559706211090088 0.089449949562549591
vn -0.14552158117294312 -0.85586917400360107 -0.49629774689674377
vn -0.99664944410324097 0.063853979110717773 0.051112920045852661
vn -0.99901151657104492 0.044323816895484924 -0.003374848049134016
vn -0.99874007701873779 0.025150690227746964 -0.043424613773822784
vn -0.001846461440436542 -0.3269793689250946 0.94502967596054077
vn 0.0037853431422263384 -0.99975186586380005 -0.021952547132968903
vn -0.31782227754592896 0.57078683376312256 0.75709402561187744
vn -0.14840567111968994 0.081702098250389099 0.985545814037323
vn -0.59188014268875122 0.0045425365678966045 -0.80601316690444946
vn -0.046648770570755005 -0.51403647661209106 0.85649889707565308
vn 0.033598292618989944 -0.55039983987808228 0.8342248797416687
vn 0.023313336074352264 -0.54087609052658081 0.84077912569046021
vn -0.0025868318043649197 -0.99949800968170166 -0.031576778739690781
vn -0.0056364978663623333 -0.99970793724060059 0.023501651361584663
vn -0.018180219456553459 0.046266041696071625 0.99876368045806885
vn -0.99998778104782104 -1.1197920684935525E-05 -0.0049379700794816017
vn 0.99999994039535522 4.1926985431928188E-05 0.00024334338377229869
vn 0.99988532066345215 -0.0013931933790445328 -0.015079847536981106
vn 0.89211243391036987 0.0031984392553567886 0.45180216431617737
vn 0 0 -1
usemtl vc_191919__Default
f 1//1 2//2 3//3
f 4//4 5//5 6//6
f 7//7 6//6 5//5
f 6//6 2//2 8//8
f 9//9 10//10 11//11
f 4//4 12//12 5//5
f 13//13 14//14 15//15
f 16//16 17//17 18//18
f 19//19 20//20 21//21
f 20//20 22//22 23//23
f 8//8 24//24 4//4
f 9//9 25//25 10//10
f 26//26 12//12 4//4
f 27//27 28//28 29//29
f 30//30 23//23 22//22
f 31//31 32//32 33//33
f 34//34 26//26 4//4
f 4//4 24//24 34//34
f 35//35 36//36 37//37
f 3//3 38//38 39//39
f 40//40 41//41 42//42
f 3//3 43//43 7//7
f 44//44 45//45 46//46
f 47//47 7//7 5//5
f 48//48 7//7 47//47
f 49//49 50//50 51//51
f 52//52 53//53 26//26
f 56//56 165//165 54//54 55//55
f 57//57 58//58 59//59
f 60//60 61//61 62//62
f 63//63 64//64 65//65
f 66//66 3//3 7//7 48//48
f 67//67 68//68 69//69
f 53//53 52//52 70//70 47//47
f 71//71 72//72 73//73
f 71//71 74//74 72//72
f 75//75 57//57 76//76
f 77//77 78//78 79//79
f 79//79 78//78 80//80
f 81//81 82//82 83//83
f 26//26 63//63 84//84 85//85
f 86//86 87//87 88//88
f 89//89 90//90 91//91
f 48//48 47//47 70//70
f 92//92 93//93 94//94
f 95//95 96//96 97//97
f 71//71 73//73 98//98
f 85//85 52//52 26//26
f 99//99 100//100 101//101
f 102//102 103//103 104//104
f 105//105 70//70 52//52
f 106//106 71//71 98//98
f 85//85 105//105 107//107
f 65//65 84//84 63//63
f 108//108 109//109 110//110
f 111//111 48//48 70//70
f 112//112 113//113 114//114
f 115//115 84//84 65//65
f 116//116 38//38 117//117
f 118//118 119//119 120//120
f 121//121 122//122 123//123
f 124//124 125//125 126//126
f 127//127 128//128 129//129
f 130//130 131//131 132//132
f 133//133 85//85 84//84
f 134//134 133//133 84//84
f 135//135 136//136 137//137
f 111//111 116//116 66//66
f 111//111 133//133 138//138 116//116
f 63//63 139//139 140//140
f 141//141 66//66 48//48
f 47//47 142//142 53//53
f 143//143 97//97 96//96
f 144//144 145//145 146//146
f 147//147 148//148 149//149
f 66//66 38//38 3//3
f 123//123 150//150 121//121
f 11//11 151//151 9//9
f 133//133 105//105 152//152
f 20//20 23//23 153//153
f 34//34 24//24 154//154
f 155//155 156//156 157//157
f 25//25 158//158 159//159
f 6//6 8//8 4//4
f 64//64 63//63 140//140
f 133//133 115//115 160//160
f 111//111 70//70 105//105
f 2//2 6//6 3//3
f 13//13 15//15 161//161
f 57//57 162//162 76//76
f 105//105 133//133 111//111
f 27//27 29//29 163//163
f 35//35 37//37 164//164
