# Dual color encoding: per-vertex RGB for Rerun, face MTL colors for legacy RViz.
mtllib sim_gene01_r_hand_little_4.mtl
# Rhino

g sim_gene01_r_hand_little_4
v -4.8009616891506424 31.217539727001888 -7.3434919382404003 0.0980392157 0.0980392157 0.0980392157
v 5.3892568111852235 29.268271496973615 -8.1625478525395181 0.0980392157 0.0980392157 0.0980392157
v -0.16277118276930236 25.031680592011952 -10.424189117843829 0.0980392157 0.0980392157 0.0980392157
v 5.553312890006918 31.000387318541208 -4.3820005858817339 0.0980392157 0.0980392157 0.0980392157
v 5.3892568111852235 29.268271496973615 -8.1625478525395181 0.0980392157 0.0980392157 0.0980392157
v 10.091282609378036 23.911269239577212 -6.2606720941942404 0.0980392157 0.0980392157 0.0980392157
v -10.377423941501526 24.158809875641953 -6.4948343425463282 0.0980392157 0.0980392157 0.0980392157
v -8.7172367174056546 21.183566843878417 -9.2494034023482357 0.0980392157 0.0980392157 0.0980392157
v 5.3892568111852235 29.268271496973615 -8.1625478525395181 0.0980392157 0.0980392157 0.0980392157
v 12.886101185555585 12.379048440834552 -7.336569868948339 0.0980392157 0.0980392157 0.0980392157
v -5.1157495173683376 18.244252210786591 -5.4886733175653539 0.0980392157 0.0980392157 0.0980392157
v -5.2010584454313964 18.783785761759304 -8.6478673127018908 0.0980392157 0.0980392157 0.0980392157
v 4.1110417286312773 16.100830609685023 -5.3051307986601612 0.0980392157 0.0980392157 0.0980392157
v 0.57367683979322237 16.938800125982596 -9.6495731160677369 0.0980392157 0.0980392157 0.0980392157
v 5.9433012008666992 13.444358825683594 -8.7425613403320312 0.0980392157 0.0980392157 0.0980392157
v 0.57367683979322237 16.938800125982596 -9.6495731160677369 0.0980392157 0.0980392157 0.0980392157
v 6.4786331336211331 4.3516364368903346 -9.0705860149765183 0.0980392157 0.0980392157 0.0980392157
v 4.1110417286312773 16.100830609685023 -5.3051307986601612 0.0980392157 0.0980392157 0.0980392157
v 0.57367683979322237 16.938800125982596 -9.6495731160677369 0.0980392157 0.0980392157 0.0980392157
v 5.9433012008666992 13.444358825683594 -8.7425613403320312 0.0980392157 0.0980392157 0.0980392157
v -4.6035671164884704 -0.44632230724815969 -10.972109901992249 0.0980392157 0.0980392157 0.0980392157
v -8.1074837379456586 3.5952128698853634 -8.8483108880220716 0.0980392157 0.0980392157 0.0980392157
v -5.2010584454313964 18.783785761759304 -8.6478673127018908 0.0980392157 0.0980392157 0.0980392157
v -7.3610029829307564 7.4307101647571692 -5.2309251468427718 0.0980392157 0.0980392157 0.0980392157
v -8.1074837379456586 3.5952128698853634 -8.8483108880220716 0.0980392157 0.0980392157 0.0980392157
v -5.2010584454313964 18.783785761759304 -8.6478673127018908 0.0980392157 0.0980392157 0.0980392157
v -5.1157495173683376 18.244252210786591 -5.4886733175653539 0.0980392157 0.0980392157 0.0980392157
v 4.590048646656542 7.6423794004699754 -5.0722636017145888 0.0980392157 0.0980392157 0.0980392157
v 5.9433012008666992 13.444358825683594 -8.7425613403320312 0.0980392157 0.0980392157 0.0980392157
v 6.4786331336211331 4.3516364368903346 -9.0705860149765183 0.0980392157 0.0980392157 0.0980392157
v 4.1110417286312773 16.100830609685023 -5.3051307986601612 0.0980392157 0.0980392157 0.0980392157
v 12.9121025954041 -0.21263981733914361 -7.8969430316598492 0.0980392157 0.0980392157 0.0980392157
v 5.6667184823648213 19.843900980495629 -9.9176195171194141 0.0980392157 0.0980392157 0.0980392157
v 12.886101185555585 12.379048440834552 -7.336569868948339 0.0980392157 0.0980392157 0.0980392157
v -13.583800735141548 14.275127032420013 -6.1386287104552064 0.0980392157 0.0980392157 0.0980392157
v -12.723371640609706 -0.16889986509689076 -8.1690637478053052 0.0980392157 0.0980392157 0.0980392157
v -4.6035671164884704 -0.44632230724815969 -10.972109901992249 0.0980392157 0.0980392157 0.0980392157
v -0.065790604469947667 -0.72182410126917662 -10.026393504846984 0.0980392157 0.0980392157 0.0980392157
v -8.9018167580156131 6.9556450940007988 5.2621985138456919 0.0980392157 0.0980392157 0.0980392157
v 5.8964588746388955 -0.51572833395475803 -10.670679897888999 0.0980392157 0.0980392157 0.0980392157
v 5.8964588746388955 -0.51572833395475803 -10.670679897888999 0.0980392157 0.0980392157 0.0980392157
v 5.6566681647346142 -2.475631020087377 -3.7125285359423672 0.0980392157 0.0980392157 0.0980392157
v 6.4786331336211331 4.3516364368903346 -9.0705860149765183 0.0980392157 0.0980392157 0.0980392157
v -9.2956765526937346 -3.5934880964185956 -1.9933238835719513 0.0980392157 0.0980392157 0.0980392157
v -4.6035671164884704 -0.44632230724815969 -10.972109901992249 0.0980392157 0.0980392157 0.0980392157
v -8.1074837379456586 3.5952128698853634 -8.8483108880220716 0.0980392157 0.0980392157 0.0980392157
v 5.6566681647346142 -2.475631020087377 -3.7125285359423672 0.0980392157 0.0980392157 0.0980392157
v 5.8964588746388955 -0.51572833395475803 -10.670679897888999 0.0980392157 0.0980392157 0.0980392157
v 12.9121025954041 -0.21263981733914361 -7.8969430316598492 0.0980392157 0.0980392157 0.0980392157
v -9.2956765526937346 -3.5934880964185956 -1.9933238835719513 0.0980392157 0.0980392157 0.0980392157
v -12.723371640609706 -0.16889986509689076 -8.1690637478053052 0.0980392157 0.0980392157 0.0980392157
v -4.6035671164884704 -0.44632230724815969 -10.972109901992249 0.0980392157 0.0980392157 0.0980392157
v 9.6375516365515583 24.428290083299441 4.110804187661337 0.0980392157 0.0980392157 0.0980392157
v -7.3361193082927629 29.41488041723747 0.087429380416038968 0.0980392157 0.0980392157 0.0980392157
v -10.377423941501526 24.158809875641953 -6.4948343425463282 0.0980392157 0.0980392157 0.0980392157
v 12.400330137375738 15.936799378607541 1.6510420484215644 0.0980392157 0.0980392157 0.0980392157
v -7.3610029829307564 7.4307101647571692 -5.2309251468427718 0.0980392157 0.0980392157 0.0980392157
v -5.1157495173683376 18.244252210786591 -5.4886733175653539 0.0980392157 0.0980392157 0.0980392157
v 4.590048646656542 7.6423794004699754 -5.0722636017145888 0.0980392157 0.0980392157 0.0980392157
v -14.209031789852979 -0.28514705586587397 -4.6988035622728095 0.0980392157 0.0980392157 0.0980392157
v -13.583800735141548 14.275127032420013 -6.1386287104552064 0.0980392157 0.0980392157 0.0980392157
v 12.886101185555585 12.379048440834552 -7.336569868948339 0.0980392157 0.0980392157 0.0980392157
v 13.20505449729127 6.7335260361141245 5.0795955572100784 0.0980392157 0.0980392157 0.0980392157
v 9.2906935057809559 -4.3339709327849816 -2.7775950467826149 0.0980392157 0.0980392157 0.0980392157
v 5.6566681647346142 -2.475631020087377 -3.7125285359423672 0.0980392157 0.0980392157 0.0980392157
v 12.9121025954041 -0.21263981733914361 -7.8969430316598492 0.0980392157 0.0980392157 0.0980392157
v 9.2906935057809559 -4.3339709327849816 -2.7775950467826149 0.0980392157 0.0980392157 0.0980392157
v 12.9121025954041 -0.21263981733914361 -7.8969430316598492 0.0980392157 0.0980392157 0.0980392157
v 13.236358352470882 0.89196561011288866 -0.46890561413492937 0.0980392157 0.0980392157 0.0980392157
v -9.2956765526937346 -3.5934880964185956 -1.9933238835719513 0.0980392157 0.0980392157 0.0980392157
v -3.5954990756437448 9.0637579782658477 1.1908866583688893 0.0980392157 0.0980392157 0.0980392157
v -8.9018167580156131 6.9556450940007988 5.2621985138456919 0.0980392157 0.0980392157 0.0980392157
v -7.3610029829307564 7.4307101647571692 -5.2309251468427718 0.0980392157 0.0980392157 0.0980392157
v 4.590048646656542 7.6423794004699754 -5.0722636017145888 0.0980392157 0.0980392157 0.0980392157
v 5.8463893039571264 7.6016399713684706 4.9151829114130914 0.0980392157 0.0980392157 0.0980392157
v 5.8463893039571264 7.6016399713684706 4.9151829114130914 0.0980392157 0.0980392157 0.0980392157
v 4.590048646656542 7.6423794004699754 -5.0722636017145888 0.0980392157 0.0980392157 0.0980392157
v 6.4786331336211331 4.3516364368903346 -9.0705860149765183 0.0980392157 0.0980392157 0.0980392157
v 5.6566681647346142 -2.475631020087377 -3.7125285359423672 0.0980392157 0.0980392157 0.0980392157
v 6.4786331336211331 4.3516364368903346 -9.0705860149765183 0.0980392157 0.0980392157 0.0980392157
v -9.2363092237660762 -3.0579214143275184 4.7410228045860787 0.0980392157 0.0980392157 0.0980392157
v -14.209031789852979 -0.28514705586587397 -4.6988035622728095 0.0980392157 0.0980392157 0.0980392157
v -14.006675653903097 3.2473071464495527 3.670273812886983 0.0980392157 0.0980392157 0.0980392157
v -14.209031789852979 -0.28514705586587397 -4.6988035622728095 0.0980392157 0.0980392157 0.0980392157
v -9.2363092237660762 -3.0579214143275184 4.7410228045860787 0.0980392157 0.0980392157 0.0980392157
v 5.6566681647346142 -2.475631020087377 -3.7125285359423672 0.0980392157 0.0980392157 0.0980392157
v 9.2906935057809559 -4.3339709327849816 -2.7775950467826149 0.0980392157 0.0980392157 0.0980392157
v 7.2461839297485513 -5.3614731676429344 4.2433861185896591 0.0980392157 0.0980392157 0.0980392157
v 1.2361836378797351 31.520559719151205 -0.37683846352498818 0.0980392157 0.0980392157 0.0980392157
v -14.006675653903097 3.2473071464495527 3.670273812886983 0.0980392157 0.0980392157 0.0980392157
v -12.585933489611852 10.116586027549952 6.5261091840867493 0.0980392157 0.0980392157 0.0980392157
v -9.2363092237660762 -3.0579214143275184 4.7410228045860787 0.0980392157 0.0980392157 0.0980392157
v 7.2461839297485513 -5.3614731676429344 4.2433861185896591 0.0980392157 0.0980392157 0.0980392157
v 9.2906935057809559 -4.3339709327849816 -2.7775950467826149 0.0980392157 0.0980392157 0.0980392157
v 13.236358352470882 0.89196561011288866 -0.46890561413492937 0.0980392157 0.0980392157 0.0980392157
v -3.8290957231403766 25.858784870658521 6.0864147440816438 0.0980392157 0.0980392157 0.0980392157
v 1.2361836378797351 31.520559719151205 -0.37683846352498818 0.0980392157 0.0980392157 0.0980392157
v -11.277283252164628 21.447808390270684 4.7623864316937796 0.0980392157 0.0980392157 0.0980392157
v -3.8290957231403766 25.858784870658521 6.0864147440816438 0.0980392157 0.0980392157 0.0980392157
v 4.2075738481380718 24.612066169952545 6.5331568288403261 0.0980392157 0.0980392157 0.0980392157
v 4.2075738481380718 24.612066169952545 6.5331568288403261 0.0980392157 0.0980392157 0.0980392157
v 5.8463893039571264 7.6016399713684706 4.9151829114130914 0.0980392157 0.0980392157 0.0980392157
v -8.9018167580156131 6.9556450940007988 5.2621985138456919 0.0980392157 0.0980392157 0.0980392157
v -3.5954990756437448 9.0637579782658477 1.1908866583688893 0.0980392157 0.0980392157 0.0980392157
v 7.2461839297485513 -5.3614731676429344 4.2433861185896591 0.0980392157 0.0980392157 0.0980392157
v 13.236358352470882 0.89196561011288866 -0.46890561413492937 0.0980392157 0.0980392157 0.0980392157
v 13.20505449729127 6.7335260361141245 5.0795955572100784 0.0980392157 0.0980392157 0.0980392157
v 5.8463893039571264 7.6016399713684706 4.9151829114130914 0.0980392157 0.0980392157 0.0980392157
v 13.20505449729127 6.7335260361141245 5.0795955572100784 0.0980392157 0.0980392157 0.0980392157
v -2.9709392113431998 11.601064275394922 5.4243406916512562 0.0980392157 0.0980392157 0.0980392157
v 8.5804225947278709 12.208875430114759 8.177344547206939 0.0980392157 0.0980392157 0.0980392157
v -2.9709392113431998 11.601064275394922 5.4243406916512562 0.0980392157 0.0980392157 0.0980392157
v 13.20505449729127 6.7335260361141245 5.0795955572100784 0.0980392157 0.0980392157 0.0980392157
v -5.3126433725444429 13.350671457996356 8.6680574528128957 0.0980392157 0.0980392157 0.0980392157
v 7.2461839297485513 -5.3614731676429344 4.2433861185896591 0.0980392157 0.0980392157 0.0980392157
v -8.9018167580156131 6.9556450940007988 5.2621985138456919 0.0980392157 0.0980392157 0.0980392157
v -5.3126433725444429 13.350671457996356 8.6680574528128957 0.0980392157 0.0980392157 0.0980392157
v -12.585933489611852 10.116586027549952 6.5261091840867493 0.0980392157 0.0980392157 0.0980392157
v -2.9709392113431998 11.601064275394922 5.4243406916512562 0.0980392157 0.0980392157 0.0980392157
v -9.2363092237660762 -3.0579214143275184 4.7410228045860787 0.0980392157 0.0980392157 0.0980392157
v -14.006675653903097 3.2473071464495527 3.670273812886983 0.0980392157 0.0980392157 0.0980392157
v -12.585933489611852 10.116586027549952 6.5261091840867493 0.0980392157 0.0980392157 0.0980392157
v -14.006675653903097 3.2473071464495527 3.670273812886983 0.0980392157 0.0980392157 0.0980392157
v -8.9018167580156131 6.9556450940007988 5.2621985138456919 0.0980392157 0.0980392157 0.0980392157
v -5.3126433725444429 13.350671457996356 8.6680574528128957 0.0980392157 0.0980392157 0.0980392157
v 8.5804225947278709 12.208875430114759 8.177344547206939 0.0980392157 0.0980392157 0.0980392157
v -11.277283252164628 21.447808390270684 4.7623864316937796 0.0980392157 0.0980392157 0.0980392157
v -9.2363092237660762 -3.0579214143275184 4.7410228045860787 0.0980392157 0.0980392157 0.0980392157
v -12.723371640609706 -0.16889986509689076 -8.1690637478053052 0.0980392157 0.0980392157 0.0980392157
v -9.2956765526937346 -3.5934880964185956 -1.9933238835719513 0.0980392157 0.0980392157 0.0980392157
v -12.585933489611852 10.116586027549952 6.5261091840867493 0.0980392157 0.0980392157 0.0980392157
v 5.8964588746388955 -0.51572833395475803 -10.670679897888999 0.0980392157 0.0980392157 0.0980392157
v -0.065790604469947667 -0.72182410126917662 -10.026393504846984 0.0980392157 0.0980392157 0.0980392157
v 7.2461839297485513 -5.3614731676429344 4.2433861185896591 0.0980392157 0.0980392157 0.0980392157
v -0.065790604469947667 -0.72182410126917662 -10.026393504846984 0.0980392157 0.0980392157 0.0980392157
v -4.6035671164884704 -0.44632230724815969 -10.972109901992249 0.0980392157 0.0980392157 0.0980392157
v -11.277283252164628 21.447808390270684 4.7623864316937796 0.0980392157 0.0980392157 0.0980392157
v 13.236358352470882 0.89196561011288866 -0.46890561413492937 0.0980392157 0.0980392157 0.0980392157
v 12.9121025954041 -0.21263981733914361 -7.8969430316598492 0.0980392157 0.0980392157 0.0980392157
v 4.1110417286312773 16.100830609685023 -5.3051307986601612 0.0980392157 0.0980392157 0.0980392157
vn -0.37280726432800293 0.78552210330963135 -0.49393299221992493
vn 0.39348775148391724 0.37280359864234924 -0.84034806489944458
vn -0.0053818831220269203 0.10194013267755508 -0.99477595090866089
vn 0.51524972915649414 0.85160189867019653 -0.096394665539264679
vn 0.5916106104850769 0.72240012884140015 -0.3579593300819397
vn 0.91025525331497192 0.35834807157516479 -0.20741766691207886
vn -0.72569310665130615 0.30935445427894592 -0.61454802751541138
vn -0.3548559844493866 0.097057126462459564 -0.92986941337585449
vn 0.40244653820991516 0.37070703506469727 -0.83702635765075684
vn 0.64457017183303833 -0.0072851679287850857 -0.76451045274734497
vn -0.24387255311012268 -0.96976584196090698 0.0089672310277819633
vn -0.14063046872615814 -0.97844970226287842 -0.15119275450706482
vn -0.20247058570384979 -0.97772347927093506 -0.055339407175779343
vn -0.19481350481510162 -0.98076605796813965 -0.012065745890140533
vn -0.22611799836158752 -0.077037706971168518 0.97104883193969727
vn -0.01061603520065546 -0.055922951549291611 0.99837863445281982
vn -0.21492660045623779 -0.0080020502209663391 0.97659742832183838
vn -0.079078264534473419 -0.99669718742370605 -0.018475335091352463
vn -0.094948567450046539 -0.99547231197357178 -0.0044382112100720406
vn -0.18730321526527405 -0.97919607162475586 0.078055195510387421
vn -0.14373248815536499 0.013525948859751225 -0.98952412605285645
vn 0.23065653443336487 -0.0036024437285959721 0.97302854061126709
vn 0.13157251477241516 -0.15285642445087433 0.97945064306259155
vn 0.95874989032745361 -0.28424015641212463 -0.0024858892429620028
vn 0.97979944944381714 -0.13377353549003601 0.14865298569202423
vn 0.9832381010055542 -0.13720551133155823 -0.12007298320531845
vn 0.99276942014694214 -0.1072968915104866 -0.053816750645637512
vn -0.98621237277984619 0.16204476356506348 -0.033565148711204529
vn -0.97307586669921875 0.2289106696844101 0.026893211528658867
vn -0.99122887849807739 0.093963749706745148 -0.09293084591627121
vn -0.93445676565170288 0.33451181650161743 0.12203437089920044
vn 0.59079492092132568 0.017856260761618614 -0.80662417411804199
vn 0.24341879785060883 0.069448180496692657 -0.96743178367614746
vn 0.6213950514793396 0.10131838917732239 -0.77691876888275146
vn -0.78290963172912598 0.11938178539276123 -0.61057388782501221
vn -0.57970601320266724 0.0078685833141207695 -0.81478774547576904
vn 0.15666531026363373 -0.017466697841882706 0.98749727010726929
vn -0.0065525113604962826 -0.037491749972105026 0.99927544593811035
vn 0.99729698896408081 -0.065329715609550476 -0.033627178519964218
vn 0.22955726087093353 0.020036697387695312 -0.97308892011642456
vn -0.97874665260314941 0.20507284998893738 0.00035286627826280892
vn -0.98386019468307495 0.17791818082332611 -0.019083578139543533
vn -0.98338192701339722 0.18133026361465454 -0.0089076226577162743
vn 0.84379690885543823 -0.10954983532428741 0.52536237239837646
vn 0.85538744926452637 -0.26742076873779297 0.44361969828605652
vn 0.78387492895126343 0.11341046541929245 0.61047369241714478
vn -0.052722178399562836 -0.96079516410827637 -0.27220040559768677
vn -0.0052296090871095657 -0.99956709146499634 -0.028953868895769119
vn 0.029228094965219498 -0.99825912714004517 0.051229324191808701
vn -0.1993827223777771 -0.97925752401351929 -0.036072086542844772
vn -0.064811177551746368 -0.99789756536483765 0.00013760915317106992
vn 0.13983988761901855 -0.90408331155776978 -0.40382936596870422
vn 0.79331129789352417 0.42024767398834229 0.44050997495651245
vn -0.60378599166870117 0.74802803993225098 0.27549314498901367
vn -0.8817908763885498 0.41043522953987122 -0.2323525995016098
vn 0.97700601816177368 0.18235164880752563 0.11048595607280731
vn 0.011325235478579998 0.00050231051864102483 -0.99993574619293213
vn 0.018584759905934334 -0.072346724569797516 -0.99720638990402222
vn 0.001216281671077013 0.0016374223632737994 -0.99999791383743286
vn -0.99517786502838135 -0.021786030381917953 -0.09563659131526947
vn -0.98675578832626343 0.11590687185525894 -0.11348405480384827
vn 0.95221298933029175 0.097812525928020477 -0.28934949636459351
vn 0.98108017444610596 0.099321216344833374 0.16618357598781586
vn -0.01508073415607214 -0.65320628881454468 -0.75702977180480957
vn -0.01508073415607214 -0.65320628881454468 -0.75702977180480957
vn -0.01508073415607214 -0.65320628881454468 -0.75702977180480957
vn 0.5685276985168457 -0.80484467744827271 -0.17029768228530884
vn 0.5685276985168457 -0.80484467744827271 -0.17029768228530884
vn 0.5685276985168457 -0.80484467744827271 -0.17029768228530884
vn 0.99920988082885742 0.030991474166512489 -0.024883696809411049
vn 0.043943691998720169 -0.98729985952377319 0.15266939997673035
vn 0.33693909645080566 -0.91044121980667114 -0.2399350106716156
vn 0.1056893989443779 -0.91282051801681519 0.39444708824157715
vn -0.050959240645170212 -0.87663263082504272 0.47845414280891418
vn -0.028038328513503075 -0.99783211946487427 0.05953872948884964
vn -0.99794870615005493 -0.060953408479690552 -0.019571490585803986
vn -0.95590329170227051 -0.26767453551292419 0.12082748860120773
vn -0.89606142044067383 -0.43655627965927124 0.080576285719871521
vn -0.99567300081253052 -0.038302868604660034 -0.084664814174175262
vn -0.97315388917922974 0.1157655194401741 -0.19892172515392303
vn -0.44496521353721619 -0.78330636024475098 -0.43409344553947449
vn -0.2438054084777832 -0.96981990337371826 0.0028861414175480604
vn -0.78800928592681885 -0.39002677798271179 0.47636169195175171
vn -0.65083134174346924 -0.72621750831604004 0.22141963243484497
vn -0.83897268772125244 -0.47183763980865479 0.27109786868095398
vn -0.0013207993470132351 -0.69171679019927979 -0.72216767072677612
vn 0.0098025286570191383 -0.83209699392318726 -0.55454349517822266
vn 0.050059448927640915 -0.77052795886993408 0.63543742895126343
vn 0.09078400582075119 0.8139958381652832 0.57373261451721191
vn -0.99760133028030396 0.066183611750602722 0.020280396565794945
vn -0.86243742704391479 0.18059234321117401 0.47285100817680359
vn 0.99969714879989624 0.024475192651152611 0.0025682228151708841
vn 0.83047932386398315 -0.50111478567123413 0.24328599870204926
vn 0.57946962118148804 -0.71398782730102539 -0.39298391342163086
vn 0.85358542203903198 -0.51759016513824463 0.059095676988363266
vn -0.13281530141830444 0.41361647844314575 0.90071165561676025
vn 0.11120423674583435 0.92100298404693604 0.37334579229354858
vn -0.036529779434204102 0.77932113409042358 0.62555903196334839
vn -0.41926813125610352 0.69181853532791138 0.58787870407104492
vn 0.14618584513664246 0.34430161118507385 0.92740827798843384
vn 0.30657008290290833 0.81947553157806396 0.48422583937644958
vn -0.13622203469276428 -0.72717273235321045 -0.6728026270866394
vn 0.093366339802742004 -0.95774132013320923 -0.27205571532249451
vn 0.02435695193707943 -0.93549454212188721 -0.35250061750411987
vn 0.74974757432937622 -0.61262840032577515 0.25012999773025513
vn 0.74416500329971313 -0.64276778697967529 0.18184612691402435
vn 0.71161133050918579 -0.40590101480484009 0.57345759868621826
vn 0.032593365758657455 -0.015343059785664082 0.999350905418396
vn 0.15309701859951019 -0.094565108418464661 0.98367613554000854
vn 0.0091075273230671883 -0.0078985309228301048 0.9999273419380188
vn -0.18534046411514282 -0.77219831943511963 0.60774886608123779
vn -0.068588480353355408 -0.90266507863998413 0.42484274506568909
vn -0.25044447183609009 -0.73098838329315186 0.63477045297622681
vn 0.065702632069587708 -0.96008020639419556 0.27189916372299194
vn -0.0030618945602327585 -0.021960772573947906 0.99975413084030151
vn -0.034505773335695267 0.029528571292757988 0.99896818399429321
vn 0.037737909704446793 -0.65822011232376099 0.75187903642654419
vn -0.23040422797203064 -0.79299134016036987 0.56398463249206543
vn 0.048836264759302139 -0.65045195817947388 0.75797581672668457
vn -0.18771620094776154 -0.32671359181404114 0.92629414796829224
vn -0.13755179941654205 -0.1636052280664444 0.97688937187194824
vn 0.071256116032600403 -0.38126236200332642 0.92171663045883179
vn -0.39476650953292847 -0.50796949863433838 0.76558887958526611
vn 0.024452058598399162 -0.33258610963821411 0.94275581836700439
vn -0.066083326935768127 0.11823300272226334 0.99078452587127686
vn 0.21477434039115906 0.13198624551296234 0.96770429611206055
vn -0.30286881327629089 0.25348633527755737 0.91870296001434326
vn -0.99911856651306152 0.017504584044218063 -0.038153380155563354
vn -0.9964175820350647 0.058624576777219772 0.060951817780733109
vn -0.99986207485198975 -0.0032358889002352953 0.016288464888930321
vn -0.0073273344896733761 0.0063862740062177181 0.99995273351669312
vn -0.20330066978931427 -0.013370937667787075 0.97902506589889526
vn -0.18501262366771698 -0.0012887310003861785 0.982735276222229
vn -0.98815059661865234 -0.071209356188774109 0.13596919178962708
vn 0.0021856529638171196 -0.99999600648880005 0.0018063104944303632
vn 3.3912874641828239E-05 -0.99966436624526978 -0.025907639414072037
vn -0.84561431407928467 0.32959586381912231 0.41988453269004822
vn 0.99939078092575073 0.012920117005705833 0.032420426607131958
vn 0.95368242263793945 0.0059143276885151863 -0.30075708031654358
vn -0.036006778478622437 -0.030181393027305603 -0.99889570474624634
usemtl vc_191919__Default
f 1//1 2//2 3//3
f 1//1 4//4 5//5
f 6//6 5//5 4//4
f 7//7 1//1 8//8
f 9//9 6//6 10//10
f 11//11 12//12 13//13
f 13//13 12//12 14//14
f 15//15 16//16 17//17
f 18//18 19//19 20//20
f 3//3 21//21 8//8
f 22//22 16//16 23//23
f 24//24 25//25 26//26
f 24//24 26//26 27//27
f 28//28 29//29 30//30
f 28//28 31//31 29//29
f 32//32 40//40 33//33 34//34
f 35//35 8//8 36//36
f 37//37 38//38 22//22
f 39//39 25//25 24//24
f 38//38 17//17 16//16
f 41//41 42//42 43//43
f 44//44 45//45 46//46
f 47//47 48//48 49//49
f 50//50 51//51 52//52
f 4//4 53//53 6//6
f 54//54 1//1 55//55
f 6//6 53//53 56//56
f 58//58 140//140 59//59 57//57
f 60//60 61//61 36//36
f 63//63 138//138 62//62 56//56
f 64//64 65//65 66//66
f 67//67 68//68 69//69
f 25//25 39//39 70//70
f 71//71 72//72 73//73
f 74//74 75//75 71//71
f 76//76 77//77 78//78
f 79//79 76//76 80//80
f 81//81 82//82 51//51
f 83//83 84//84 85//85
f 86//86 87//87 88//88
f 53//53 4//4 89//89
f 90//90 91//91 61//61
f 92//92 70//70 39//39
f 93//93 94//94 95//95
f 96//96 97//97 54//54
f 54//54 98//98 99//99
f 100//100 97//97 96//96
f 89//89 101//101 53//53
f 63//63 56//56 53//53
f 102//102 103//103 104//104
f 105//105 106//106 107//107
f 108//108 109//109 110//110
f 111//111 112//112 113//113
f 111//111 114//114 112//112
f 115//115 109//109 108//108
f 108//108 110//110 116//116
f 117//117 118//118 119//119
f 120//120 116//116 121//121
f 122//122 123//123 124//124
f 125//125 126//126 100//100
f 126//126 53//53 100//100
f 96//96 127//127 125//125
f 53//53 126//126 63//63
f 33//33 40//40 3//3
f 128//128 129//129 130//130
f 110//110 131//131 116//116
f 40//40 21//21 3//3
f 132//132 17//17 133//133
f 61//61 60//60 90//90
f 79//79 134//134 76//76
f 1//1 3//3 8//8
f 135//135 136//136 48//48
f 10//10 33//33 9//9
f 4//4 1//1 97//97
f 6//6 56//56 62//62
f 74//74 71//71 73//73
f 91//91 137//137 61//61
f 127//127 91//91 125//125
f 2//2 33//33 3//3
f 36//36 8//8 21//21
f 38//38 16//16 22//22
f 125//125 100//100 96//96
f 8//8 35//35 7//7
f 54//54 55//55 137//137
f 97//97 1//1 54//54
f 138//138 139//139 62//62
f 137//137 55//55 61//61
