# Dual color encoding: per-vertex RGB for Rerun, face MTL colors for legacy RViz.
mtllib sim_gene01_l_hand_ring_1.mtl
# Rhino

g sim_gene01_l_hand_ring_1
v -5.4959513059153142 3.1670953247594991 7.6591613844037028 0.0980392157 0.0980392157 0.0980392157
v -5.5488975114126813 3.2218737966471314 9.4244920659898863 0.0980392157 0.0980392157 0.0980392157
v -4.1162881407623377 4.3001118067923265 9.9820676096556369 0.0980392157 0.0980392157 0.0980392157
v -5.5820781960733257 -3.4121633692638662 7.6206445669419196 0.0980392157 0.0980392157 0.0980392157
v -4.6105348191954247 -3.7946935307200356 7.0412167901175922 0.0980392157 0.0980392157 0.0980392157
v -5.57261266067969 -3.4921146288035447 9.4185169964739632 0.0980392157 0.0980392157 0.0980392157
v -4.3056948965597304 -1.8582566228431663 9.6540563656237115 0.0980392157 0.0980392157 0.0980392157
v -4.1162881407623377 4.3001118067923265 9.9820676096556369 0.0980392157 0.0980392157 0.0980392157
v -5.5488975114126813 3.2218737966471314 9.4244920659898863 0.0980392157 0.0980392157 0.0980392157
v -4.5000710634589671 3.5796797331466106 6.815671117881239 0.0980392157 0.0980392157 0.0980392157
v -5.5820781960733257 -3.4121633692638662 7.6206445669419196 0.0980392157 0.0980392157 0.0980392157
v -5.4959513059153142 3.1670953247594991 7.6591613844037028 0.0980392157 0.0980392157 0.0980392157
v -4.6105348191954247 -3.7946935307200356 7.0412167901175922 0.0980392157 0.0980392157 0.0980392157
v -5.57261266067969 -3.4921146288035447 9.4185169964739632 0.0980392157 0.0980392157 0.0980392157
v -4.7202860903815207 -3.6223410908383964 9.5119620330565535 0.0980392157 0.0980392157 0.0980392157
v -3.9695465890865096 4.4898158160296591 5.8617977134467409 0.0980392157 0.0980392157 0.0980392157
v -4.0066865139344605 -4.49134980688632 0.42753579510632211 0.0980392157 0.0980392157 0.0980392157
v -4.6105348191954247 -3.7946935307200356 7.0412167901175922 0.0980392157 0.0980392157 0.0980392157
v -4.4990829050607299 -4.0103345434494395 3.6678589410064601 0.0980392157 0.0980392157 0.0980392157
v -3.8910802702765963 -4.5329940568646432 8.6964436047341547 0.0980392157 0.0980392157 0.0980392157
v -4.7853471888150168 -1.4019386280558661 0.93046276054741761 0.0980392157 0.0980392157 0.0980392157
v -4.4228040489891658 -4.3867874540901557 -0.84499281499841328 0.0980392157 0.0980392157 0.0980392157
v -4.4990829050607299 -4.0103345434494395 3.6678589410064601 0.0980392157 0.0980392157 0.0980392157
v -4.9203612802328296 0.29805240425755425 1.5355838308828249 0.0980392157 0.0980392157 0.0980392157
v -4.5012271162750217 2.1945640333969338 3.1708100038087581 0.0980392157 0.0980392157 0.0980392157
v -4.4959608959686062 4.0154586012664213 3.6675131994797865 0.0980392157 0.0980392157 0.0980392157
v -4.5000710634589671 3.5796797331466106 6.815671117881239 0.0980392157 0.0980392157 0.0980392157
v -5.014875681107652 1.4096312937915105 0.72507694336629036 0.0980392157 0.0980392157 0.0980392157
v -4.9203612802328296 0.29805240425755425 1.5355838308828249 0.0980392157 0.0980392157 0.0980392157
v -4.4959608959686062 4.0154586012664213 3.6675131994797865 0.0980392157 0.0980392157 0.0980392157
v -4.3135515451298181 4.474871593141323 -0.62371937058548022 0.0980392157 0.0980392157 0.0980392157
v -4.973273162042295 1.5101754975217845 -0.45609764582201817 0.0980392157 0.0980392157 0.0980392157
v -4.2039845355074634 3.8014493323074197 -2.4092860797052786 0.0980392157 0.0980392157 0.0980392157
v -5.0386776231710062 0.99620388387180325 -1.156178518115214 0.0980392157 0.0980392157 0.0980392157
v -4.2565078686715143 0.77469624715199625 -4.5147417280856299 0.0980392157 0.0980392157 0.0980392157
v -4.2857339894693629 -2.2661815371863039 -3.9978769649386678 0.0980392157 0.0980392157 0.0980392157
v -5.0444760060476304 0.1026924189931141 -1.5215293498413573 0.0980392157 0.0980392157 0.0980392157
v -3.9695465890865096 4.4898158160296591 5.8617977134467409 0.0980392157 0.0980392157 0.0980392157
v -4.4959608959686062 4.0154586012664213 3.6675131994797865 0.0980392157 0.0980392157 0.0980392157
v -4.5000710634589671 3.5796797331466106 6.815671117881239 0.0980392157 0.0980392157 0.0980392157
v -4.3135515451298181 4.474871593141323 -0.62371937058548022 0.0980392157 0.0980392157 0.0980392157
v -2.0089118766010579 4.9059637089050865 8.5486235666671284 0.0980392157 0.0980392157 0.0980392157
v -3.9695465890865096 4.4898158160296591 5.8617977134467409 0.0980392157 0.0980392157 0.0980392157
v -4.1162881407623377 4.3001118067923265 9.9820676096556369 0.0980392157 0.0980392157 0.0980392157
v -1.6567472915659902 4.5590330430554129 5.5752831476394453 0.0980392157 0.0980392157 0.0980392157
v -3.9650601542350867 2.81926346564887 -3.5581042033261032 0.0980392157 0.0980392157 0.0980392157
v -4.2039845355074634 3.8014493323074197 -2.4092860797052786 0.0980392157 0.0980392157 0.0980392157
v 4.1172176111602905 4.0086295019167437 -2.1400321235674626 0.0980392157 0.0980392157 0.0980392157
v -4.2039845355074634 3.8014493323074197 -2.4092860797052786 0.0980392157 0.0980392157 0.0980392157
v -3.9650601542350867 2.81926346564887 -3.5581042033261032 0.0980392157 0.0980392157 0.0980392157
v -4.2565078686715143 0.77469624715199625 -4.5147417280856299 0.0980392157 0.0980392157 0.0980392157
v -5.0444760060476304 0.1026924189931141 -1.5215293498413573 0.0980392157 0.0980392157 0.0980392157
v -4.2857339894693629 -2.2661815371863039 -3.9978769649386678 0.0980392157 0.0980392157 0.0980392157
v -4.9243573157196225 -1.1457249940961272 -1.0622323278047692 0.0980392157 0.0980392157 0.0980392157
v 4.8909912114749821 0.29744210607814003 1.5614005333653105 0.0980392157 0.0980392157 0.0980392157
v 4.9032462111175059 -1.307286543685966 0.8809722077762937 0.0980392157 0.0980392157 0.0980392157
v -4.7853471888150168 -1.4019386280558661 0.93046276054741761 0.0980392157 0.0980392157 0.0980392157
v 4.8909912114749821 0.29744210607814003 1.5614005333653105 0.0980392157 0.0980392157 0.0980392157
v -4.9203612802328296 0.29805240425755425 1.5355838308828249 0.0980392157 0.0980392157 0.0980392157
v -5.014875681107652 1.4096312937915105 0.72507694336629036 0.0980392157 0.0980392157 0.0980392157
v 5.0897669586849057 -0.29736063495075626 -1.5167444662897704 0.0980392157 0.0980392157 0.0980392157
v 4.9000000953674316 0.9113764762878418 -1.1894104480743408 0.0980392157 0.0980392157 0.0980392157
v -5.0444760060476304 0.1026924189931141 -1.5215293498413573 0.0980392157 0.0980392157 0.0980392157
v -4.973273162042295 1.5101754975217845 -0.45609764582201817 0.0980392157 0.0980392157 0.0980392157
v -5.0386776231710062 0.99620388387180325 -1.156178518115214 0.0980392157 0.0980392157 0.0980392157
v 4.9000000953674316 0.9113764762878418 -1.1894104480743408 0.0980392157 0.0980392157 0.0980392157
v 4.9787655343550412 -1.3084540873213817 -0.71125007840662557 0.0980392157 0.0980392157 0.0980392157
v -4.9243573157196225 -1.1457249940961272 -1.0622323278047692 0.0980392157 0.0980392157 0.0980392157
v -4.7853471888150168 -1.4019386280558661 0.93046276054741761 0.0980392157 0.0980392157 0.0980392157
v 4.9008759281217769 1.4783275218923408 -0.42517840729332118 0.0980392157 0.0980392157 0.0980392157
v 4.6924117346572354 2.4501425873952307 2.4376130937081459 0.0980392157 0.0980392157 0.0980392157
v 4.8909912114749821 0.29744210607814003 1.5614005333653105 0.0980392157 0.0980392157 0.0980392157
v 4.9042682245830687 1.3677439831530434 0.7075019079615309 0.0980392157 0.0980392157 0.0980392157
v 4.8324795004659826 2.1842058423292467 -1.5017299381610163 0.0980392157 0.0980392157 0.0980392157
v 4.9000000953674316 0.9113764762878418 -1.1894104480743408 0.0980392157 0.0980392157 0.0980392157
v 5.0897669586849057 -0.29736063495075626 -1.5167444662897704 0.0980392157 0.0980392157 0.0980392157
v 4.9008759281217769 1.4783275218923408 -0.42517840729332118 0.0980392157 0.0980392157 0.0980392157
v 4.2845727210860653 2.5012460256031934 -3.7564756129079577 0.0980392157 0.0980392157 0.0980392157
v 4.0117668707967251 1.1712195028767063 -4.3860440045863447 0.0980392157 0.0980392157 0.0980392157
v -3.9650601542350867 2.81926346564887 -3.5581042033261032 0.0980392157 0.0980392157 0.0980392157
v 4.5994275665907178 -2.9463068902173943 1.8174195777558462 0.0980392157 0.0980392157 0.0980392157
v 4.9032462111175059 -1.307286543685966 0.8809722077762937 0.0980392157 0.0980392157 0.0980392157
v -4.2857339894693629 -2.2661815371863039 -3.9978769649386678 0.0980392157 0.0980392157 0.0980392157
v -4.2565078686715143 0.77469624715199625 -4.5147417280856299 0.0980392157 0.0980392157 0.0980392157
v 4.2329393309984198 -0.94170891387722122 -4.4081671467284833 0.0980392157 0.0980392157 0.0980392157
v -2.9024535682265835 -4.2176943023084439 11.510377536532868 0.0980392157 0.0980392157 0.0980392157
v -4.3056948965597304 -1.8582566228431663 9.6540563656237115 0.0980392157 0.0980392157 0.0980392157
v -4.7202860903815207 -3.6223410908383964 9.5119620330565535 0.0980392157 0.0980392157 0.0980392157
v -2.4262189238952021 -4.6259528016344751 7.1398032979701496 0.0980392157 0.0980392157 0.0980392157
v -3.8910802702765963 -4.5329940568646432 8.6964436047341547 0.0980392157 0.0980392157 0.0980392157
v -4.0066865139344605 -4.49134980688632 0.42753579510632211 0.0980392157 0.0980392157 0.0980392157
v -4.0215448097944924 -3.9156102781146154 -2.2552532809943786 0.0980392157 0.0980392157 0.0980392157
v -4.4228040489891658 -4.3867874540901557 -0.84499281499841328 0.0980392157 0.0980392157 0.0980392157
v -4.2857339894693629 -2.2661815371863039 -3.9978769649386678 0.0980392157 0.0980392157 0.0980392157
v 4.2588328490064757 -3.8158771416512725 -2.4732616987445009 0.0980392157 0.0980392157 0.0980392157
v -4.0215448097944924 -3.9156102781146154 -2.2552532809943786 0.0980392157 0.0980392157 0.0980392157
v -4.2857339894693629 -2.2661815371863039 -3.9978769649386678 0.0980392157 0.0980392157 0.0980392157
v -4.3135515451298181 4.474871593141323 -0.62371937058548022 0.0980392157 0.0980392157 0.0980392157
v 4.2753979566781375 4.4561937349526168 -0.4407876649490941 0.0980392157 0.0980392157 0.0980392157
v 3.4426654886449559 4.5155957663381354 5.4274355100630398 0.0980392157 0.0980392157 0.0980392157
v -4.3135515451298181 4.474871593141323 -0.62371937058548022 0.0980392157 0.0980392157 0.0980392157
v 4.2753979566781375 4.4561937349526168 -0.4407876649490941 0.0980392157 0.0980392157 0.0980392157
v -4.2039845355074634 3.8014493323074197 -2.4092860797052786 0.0980392157 0.0980392157 0.0980392157
v -4.1162881407623377 4.3001118067923265 9.9820676096556369 0.0980392157 0.0980392157 0.0980392157
v -2.9567836619446943 4.0421758436614761 11.407160011080501 0.0980392157 0.0980392157 0.0980392157
v -3.9650601542350867 2.81926346564887 -3.5581042033261032 0.0980392157 0.0980392157 0.0980392157
v 3.9768210808418072 -2.2155281961846578 -3.9565180329402057 0.0980392157 0.0980392157 0.0980392157
v 4.2845727210860653 2.5012460256031934 -3.7564756129079577 0.0980392157 0.0980392157 0.0980392157
v 4.2329393309984198 -0.94170891387722122 -4.4081671467284833 0.0980392157 0.0980392157 0.0980392157
v 4.0117668707967251 1.1712195028767063 -4.3860440045863447 0.0980392157 0.0980392157 0.0980392157
v -2.9024535682265835 -4.2176943023084439 11.510377536532868 0.0980392157 0.0980392157 0.0980392157
v -4.7202860903815207 -3.6223410908383964 9.5119620330565535 0.0980392157 0.0980392157 0.0980392157
v -2.1931017767327097 -4.8807507060918729 8.6185419958704497 0.0980392157 0.0980392157 0.0980392157
v -2.9024535682265835 -4.2176943023084439 11.510377536532868 0.0980392157 0.0980392157 0.0980392157
v -3.8910802702765963 -4.5329940568646432 8.6964436047341547 0.0980392157 0.0980392157 0.0980392157
v -2.4262189238952021 -4.6259528016344751 7.1398032979701496 0.0980392157 0.0980392157 0.0980392157
v -2.1931017767327097 -4.8807507060918729 8.6185419958704497 0.0980392157 0.0980392157 0.0980392157
v 2.0007590180089894 -4.5245321342264031 5.0466600099982442 0.0980392157 0.0980392157 0.0980392157
v -1.2973903296008271 -4.5092110237575724 5.103256824472858 0.0980392157 0.0980392157 0.0980392157
v 0.31061182503479212 -5.6750028068955842 6.6144195169949969 0.0980392157 0.0980392157 0.0980392157
v -1.2973903296008271 -4.5092110237575724 5.103256824472858 0.0980392157 0.0980392157 0.0980392157
v 2.0007590180089894 -4.5245321342264031 5.0466600099982442 0.0980392157 0.0980392157 0.0980392157
v 4.4750160884620271 -4.3278555962794725 8.1773914090171846 0.0980392157 0.0980392157 0.0980392157
v 1.5434003224242558 -5.0440894971599448 8.9610642180736484 0.0980392157 0.0980392157 0.0980392157
v 2.1195263192085734 -4.8430501363340559 7.282153205369732 0.0980392157 0.0980392157 0.0980392157
v 2.644726381670317 -4.3431162144610571 11.639923138651355 0.0980392157 0.0980392157 0.0980392157
v 4.4750160884620271 -4.3278555962794725 8.1773914090171846 0.0980392157 0.0980392157 0.0980392157
v 3.9867652226016226 -3.9570802585910769 10.22650239993647 0.0980392157 0.0980392157 0.0980392157
v 2.644726381670317 -4.3431162144610571 11.639923138651355 0.0980392157 0.0980392157 0.0980392157
v 4.2866625801128233 -4.4803451402837089 -0.49755544943815638 0.0980392157 0.0980392157 0.0980392157
v 4.4750160884620271 -4.3278555962794725 8.1773914090171846 0.0980392157 0.0980392157 0.0980392157
v 4.2866625801128233 -4.4803451402837089 -0.49755544943815638 0.0980392157 0.0980392157 0.0980392157
v 4.5994275665907178 -2.9463068902173943 1.8174195777558462 0.0980392157 0.0980392157 0.0980392157
v 4.2588328490064757 -3.8158771416512725 -2.4732616987445009 0.0980392157 0.0980392157 0.0980392157
v -1.5984840805463421 4.2963924893976335 12.201900907979434 0.0980392157 0.0980392157 0.0980392157
v -4.1162881407623377 4.3001118067923265 9.9820676096556369 0.0980392157 0.0980392157 0.0980392157
v -2.9567836619446943 4.0421758436614761 11.407160011080501 0.0980392157 0.0980392157 0.0980392157
v -2.0089118766010579 4.9059637089050865 8.5486235666671284 0.0980392157 0.0980392157 0.0980392157
v -4.1162881407623377 4.3001118067923265 9.9820676096556369 0.0980392157 0.0980392157 0.0980392157
v -1.5491345999435473 4.5405458613002079 10.847784156246266 0.0980392157 0.0980392157 0.0980392157
v -1.5984840805463421 4.2963924893976335 12.201900907979434 0.0980392157 0.0980392157 0.0980392157
v -0.2729820683378783 -5.425230945566752 9.5503861875394271 0.0980392157 0.0980392157 0.0980392157
v -2.9024535682265835 -4.2176943023084439 11.510377536532868 0.0980392157 0.0980392157 0.0980392157
v -1.3642693295179393 -6.0473659647627898 8.3799940853719814 0.0980392157 0.0980392157 0.0980392157
v -0.2729820683378783 -5.425230945566752 9.5503861875394271 0.0980392157 0.0980392157 0.0980392157
v -2.1931017767327097 -4.8807507060918729 8.6185419958704497 0.0980392157 0.0980392157 0.0980392157
v -1.3642693295179393 -6.0473659647627898 8.3799940853719814 0.0980392157 0.0980392157 0.0980392157
v -2.1931017767327097 -4.8807507060918729 8.6185419958704497 0.0980392157 0.0980392157 0.0980392157
v -2.4262189238952021 -4.6259528016344751 7.1398032979701496 0.0980392157 0.0980392157 0.0980392157
v -1.0145672491414555 -6.8285014085352174 6.7724079604503507 0.0980392157 0.0980392157 0.0980392157
v -2.4262189238952021 -4.6259528016344751 7.1398032979701496 0.0980392157 0.0980392157 0.0980392157
v 0.31061182503479212 -5.6750028068955842 6.6144195169949969 0.0980392157 0.0980392157 0.0980392157
v -2.0255529258004046 7.7241767690585323 7.2475055264692463 0.0980392157 0.0980392157 0.0980392157
v -2.0960977091201434 7.7246144228125573 8.8340247695424825 0.0980392157 0.0980392157 0.0980392157
v -1.3071447607225499 9.4527015698118682 7.3425125220761842 0.0980392157 0.0980392157 0.0980392157
v -1.125681316963993 7.6866532420722624 9.9817879174965274 0.0980392157 0.0980392157 0.0980392157
v -0.62328875743594869 9.507108926891279 9.2668318450533906 0.0980392157 0.0980392157 0.0980392157
v -2.0960977091201434 7.7246144228125573 8.8340247695424825 0.0980392157 0.0980392157 0.0980392157
v -0.98495985536914699 6.4644381097651138 6.8415925856034177 0.0980392157 0.0980392157 0.0980392157
v -2.0255529258004046 7.7241767690585323 7.2475055264692463 0.0980392157 0.0980392157 0.0980392157
v -1.3071447607225499 9.4527015698118682 7.3425125220761842 0.0980392157 0.0980392157 0.0980392157
v -1.125681316963993 7.6866532420722624 9.9817879174965274 0.0980392157 0.0980392157 0.0980392157
v -2.0960977091201434 7.7246144228125573 8.8340247695424825 0.0980392157 0.0980392157 0.0980392157
v -1.4408585602931925 6.3160483935333129 8.3124717952577427 0.0980392157 0.0980392157 0.0980392157
v -0.60266278526143235 5.7775514401404937 9.3341063952797168 0.0980392157 0.0980392157 0.0980392157
v -1.125681316963993 7.6866532420722624 9.9817879174965274 0.0980392157 0.0980392157 0.0980392157
v -1.4408585602931925 6.3160483935333129 8.3124717952577427 0.0980392157 0.0980392157 0.0980392157
v -0.60266278526143235 5.7775514401404937 9.3341063952797168 0.0980392157 0.0980392157 0.0980392157
v 0.8837358444368375 5.8553720544094183 9.0516631852160412 0.0980392157 0.0980392157 0.0980392157
v -1.125681316963993 7.6866532420722624 9.9817879174965274 0.0980392157 0.0980392157 0.0980392157
v -0.98495985536914699 6.4644381097651138 6.8415925856034177 0.0980392157 0.0980392157 0.0980392157
v -1.4408585602931925 6.3160483935333129 8.3124717952577427 0.0980392157 0.0980392157 0.0980392157
v -2.0255529258004046 7.7241767690585323 7.2475055264692463 0.0980392157 0.0980392157 0.0980392157
v -2.0089118766010579 4.9059637089050865 8.5486235666671284 0.0980392157 0.0980392157 0.0980392157
v -0.60266278526143235 5.7775514401404937 9.3341063952797168 0.0980392157 0.0980392157 0.0980392157
v -1.4408585602931925 6.3160483935333129 8.3124717952577427 0.0980392157 0.0980392157 0.0980392157
v -0.98495985536914699 6.4644381097651138 6.8415925856034177 0.0980392157 0.0980392157 0.0980392157
v -2.0089118766010579 4.9059637089050865 8.5486235666671284 0.0980392157 0.0980392157 0.0980392157
v -1.4408585602931925 6.3160483935333129 8.3124717952577427 0.0980392157 0.0980392157 0.0980392157
v -0.60266278526143235 5.7775514401404937 9.3341063952797168 0.0980392157 0.0980392157 0.0980392157
v -2.0089118766010579 4.9059637089050865 8.5486235666671284 0.0980392157 0.0980392157 0.0980392157
v -1.5491345999435473 4.5405458613002079 10.847784156246266 0.0980392157 0.0980392157 0.0980392157
v -0.98495985536914699 6.4644381097651138 6.8415925856034177 0.0980392157 0.0980392157 0.0980392157
v -1.6567472915659902 4.5590330430554129 5.5752831476394453 0.0980392157 0.0980392157 0.0980392157
v -2.0089118766010579 4.9059637089050865 8.5486235666671284 0.0980392157 0.0980392157 0.0980392157
v -0.2729820683378783 -5.425230945566752 9.5503861875394271 0.0980392157 0.0980392157 0.0980392157
v 0.63091151896856557 -4.5406284068542808 10.756833526171995 0.0980392157 0.0980392157 0.0980392157
v -2.9024535682265835 -4.2176943023084439 11.510377536532868 0.0980392157 0.0980392157 0.0980392157
v -1.0145672491414555 -6.8285014085352174 6.7724079604503507 0.0980392157 0.0980392157 0.0980392157
v 0.31061182503479212 -5.6750028068955842 6.6144195169949969 0.0980392157 0.0980392157 0.0980392157
v -2.4262189238952021 -4.6259528016344751 7.1398032979701496 0.0980392157 0.0980392157 0.0980392157
v -1.2973903296008271 -4.5092110237575724 5.103256824472858 0.0980392157 0.0980392157 0.0980392157
v -1.3642693295179393 -6.0473659647627898 8.3799940853719814 0.0980392157 0.0980392157 0.0980392157
v -1.0145672491414555 -6.8285014085352174 6.7724079604503507 0.0980392157 0.0980392157 0.0980392157
v -2.1062167861996186 -7.750622337660638 7.2244941321707534 0.0980392157 0.0980392157 0.0980392157
v -1.8510176938576675 -7.9395909295431251 9.0552383067158839 0.0980392157 0.0980392157 0.0980392157
v -0.2729820683378783 -5.425230945566752 9.5503861875394271 0.0980392157 0.0980392157 0.0980392157
v -1.3642693295179393 -6.0473659647627898 8.3799940853719814 0.0980392157 0.0980392157 0.0980392157
v -1.8510176938576675 -7.9395909295431251 9.0552383067158839 0.0980392157 0.0980392157 0.0980392157
v -1.0888517507636153 -7.7466280816240145 5.9826374985483737 0.0980392157 0.0980392157 0.0980392157
v -2.1062167861996186 -7.750622337660638 7.2244941321707534 0.0980392157 0.0980392157 0.0980392157
v -1.0145672491414555 -6.8285014085352174 6.7724079604503507 0.0980392157 0.0980392157 0.0980392157
v -2.1062167861996186 -7.750622337660638 7.2244941321707534 0.0980392157 0.0980392157 0.0980392157
v -1.3374922298720149 -9.4303315129219172 7.5530927202235221 0.0980392157 0.0980392157 0.0980392157
v -1.8510176938576675 -7.9395909295431251 9.0552383067158839 0.0980392157 0.0980392157 0.0980392157
v -0.48818299071297844 -9.54408487633048 9.4429988419789499 0.0980392157 0.0980392157 0.0980392157
v -1.8510176938576675 -7.9395909295431251 9.0552383067158839 0.0980392157 0.0980392157 0.0980392157
v -1.3374922298720149 -9.4303315129219172 7.5530927202235221 0.0980392157 0.0980392157 0.0980392157
v -1.3374922298720149 -9.4303315129219172 7.5530927202235221 0.0980392157 0.0980392157 0.0980392157
v -2.1062167861996186 -7.750622337660638 7.2244941321707534 0.0980392157 0.0980392157 0.0980392157
v -1.0888517507636153 -7.7466280816240145 5.9826374985483737 0.0980392157 0.0980392157 0.0980392157
v -0.021398902871710312 -9.4836889903602781 6.5692250598243529 0.0980392157 0.0980392157 0.0980392157
v -1.0888517507636153 -7.7466280816240145 5.9826374985483737 0.0980392157 0.0980392157 0.0980392157
v 1.2188552398147925 -9.3915862356196662 7.191061317538777 0.0980392157 0.0980392157 0.0980392157
v -0.021398902871710312 -9.4836889903602781 6.5692250598243529 0.0980392157 0.0980392157 0.0980392157
v -1.3374922298720149 -9.4303315129219172 7.5530927202235221 0.0980392157 0.0980392157 0.0980392157
v -1.0888517507636153 -7.7466280816240145 5.9826374985483737 0.0980392157 0.0980392157 0.0980392157
v -0.18696094140618524 9.4425397220439908 6.4476652170533386 0.0980392157 0.0980392157 0.0980392157
v -1.3071447607225499 9.4527015698118682 7.3425125220761842 0.0980392157 0.0980392157 0.0980392157
v -0.62328875743594869 9.507108926891279 9.2668318450533906 0.0980392157 0.0980392157 0.0980392157
v -0.62328875743594869 9.507108926891279 9.2668318450533906 0.0980392157 0.0980392157 0.0980392157
v 1.330621833052734 9.4820749682324301 7.4324763301354588 0.0980392157 0.0980392157 0.0980392157
v 0.9687028282704766 9.3269539674091817 8.9675873706310067 0.0980392157 0.0980392157 0.0980392157
v 1.330621833052734 9.4820749682324301 7.4324763301354588 0.0980392157 0.0980392157 0.0980392157
v -0.62328875743594869 9.507108926891279 9.2668318450533906 0.0980392157 0.0980392157 0.0980392157
v -1.3071447607225499 9.4527015698118682 7.3425125220761842 0.0980392157 0.0980392157 0.0980392157
v -0.18696094140618524 9.4425397220439908 6.4476652170533386 0.0980392157 0.0980392157 0.0980392157
v 0.58690853010065114 5.9966312598851035 6.5975346466145322 0.0980392157 0.0980392157 0.0980392157
v -1.6567472915659902 4.5590330430554129 5.5752831476394453 0.0980392157 0.0980392157 0.0980392157
v -0.98495985536914699 6.4644381097651138 6.8415925856034177 0.0980392157 0.0980392157 0.0980392157
v 0.58690853010065114 5.9966312598851035 6.5975346466145322 0.0980392157 0.0980392157 0.0980392157
v 1.4008423745517371 4.9581012050981066 6.0817705123741197 0.0980392157 0.0980392157 0.0980392157
v -1.6567472915659902 4.5590330430554129 5.5752831476394453 0.0980392157 0.0980392157 0.0980392157
v 0.58690853010065114 5.9966312598851035 6.5975346466145322 0.0980392157 0.0980392157 0.0980392157
v 1.4403763536673804 4.5953880490654182 10.688445287532986 0.0980392157 0.0980392157 0.0980392157
v -1.5491345999435473 4.5405458613002079 10.847784156246266 0.0980392157 0.0980392157 0.0980392157
v -1.5984840805463421 4.2963924893976335 12.201900907979434 0.0980392157 0.0980392157 0.0980392157
v 2.4530170063910148 4.3150865281713511 11.870872021930454 0.0980392157 0.0980392157 0.0980392157
v 0.069279009771830324 3.9737240633446405 12.536281835686857 0.0980392157 0.0980392157 0.0980392157
v 2.4530170063910148 4.3150865281713511 11.870872021930454 0.0980392157 0.0980392157 0.0980392157
v 0.60174273429953473 -4.3099307466403047 12.460984132305436 0.0980392157 0.0980392157 0.0980392157
v 0.069279009771830324 3.9737240633446405 12.536281835686857 0.0980392157 0.0980392157 0.0980392157
v -0.99808061740763776 -4.3071875047558512 12.373295311623808 0.0980392157 0.0980392157 0.0980392157
v -0.021398902871710312 -9.4836889903602781 6.5692250598243529 0.0980392157 0.0980392157 0.0980392157
v 1.2188552398147925 -9.3915862356196662 7.191061317538777 0.0980392157 0.0980392157 0.0980392157
v -0.48818299071297844 -9.54408487633048 9.4429988419789499 0.0980392157 0.0980392157 0.0980392157
v -1.3374922298720149 -9.4303315129219172 7.5530927202235221 0.0980392157 0.0980392157 0.0980392157
v 1.2188552398147925 -9.3915862356196662 7.191061317538777 0.0980392157 0.0980392157 0.0980392157
v 1.3317579406963742 -9.477857874061316 8.5629551854423696 0.0980392157 0.0980392157 0.0980392157
v 1.2616814828049225 7.6978575031917451 9.869142687531264 0.0980392157 0.0980392157 0.0980392157
v -0.62328875743594869 9.507108926891279 9.2668318450533906 0.0980392157 0.0980392157 0.0980392157
v -1.125681316963993 7.6866532420722624 9.9817879174965274 0.0980392157 0.0980392157 0.0980392157
v 1.7418928235260214 7.7363040690520553 6.6878753067402412 0.0980392157 0.0980392157 0.0980392157
v 0.8837358444368375 5.8553720544094183 9.0516631852160412 0.0980392157 0.0980392157 0.0980392157
v -1.5491345999435473 4.5405458613002079 10.847784156246266 0.0980392157 0.0980392157 0.0980392157
v 1.4403763536673804 4.5953880490654182 10.688445287532986 0.0980392157 0.0980392157 0.0980392157
v 1.1881731141424807 -6.3481207323635314 8.7167002741316697 0.0980392157 0.0980392157 0.0980392157
v 0.63091151896856557 -4.5406284068542808 10.756833526171995 0.0980392157 0.0980392157 0.0980392157
v -0.2729820683378783 -5.425230945566752 9.5503861875394271 0.0980392157 0.0980392157 0.0980392157
v 1.3656543163879735 -7.7607718261451764 6.1724747677886773 0.0980392157 0.0980392157 0.0980392157
v -1.0888517507636153 -7.7466280816240145 5.9826374985483737 0.0980392157 0.0980392157 0.0980392157
v -1.0145672491414555 -6.8285014085352174 6.7724079604503507 0.0980392157 0.0980392157 0.0980392157
v 2.1489437933808397 7.7337210099065263 8.7087797563958116 0.0980392157 0.0980392157 0.0980392157
v 0.9687028282704766 9.3269539674091817 8.9675873706310067 0.0980392157 0.0980392157 0.0980392157
v 1.2616814828049225 7.6978575031917451 9.869142687531264 0.0980392157 0.0980392157 0.0980392157
v 4.4581805785369859 4.2619452032511926 8.6193148256643166 0.0980392157 0.0980392157 0.0980392157
v 2.0989209643396247 4.8537138513727189 8.777514198454444 0.0980392157 0.0980392157 0.0980392157
v 3.8495973380640383 4.3237619895155559 10.294868373808606 0.0980392157 0.0980392157 0.0980392157
v 2.4530170063910148 4.3150865281713511 11.870872021930454 0.0980392157 0.0980392157 0.0980392157
v 2.0989209643396247 4.8537138513727189 8.777514198454444 0.0980392157 0.0980392157 0.0980392157
v 4.2753979566781375 4.4561937349526168 -0.4407876649490941 0.0980392157 0.0980392157 0.0980392157
v 2.4530170063910148 4.3150865281713511 11.870872021930454 0.0980392157 0.0980392157 0.0980392157
v 0.63091151896856557 -4.5406284068542808 10.756833526171995 0.0980392157 0.0980392157 0.0980392157
v 0.60174273429953473 -4.3099307466403047 12.460984132305436 0.0980392157 0.0980392157 0.0980392157
v 1.5434003224242558 -5.0440894971599448 8.9610642180736484 0.0980392157 0.0980392157 0.0980392157
v 2.644726381670317 -4.3431162144610571 11.639923138651355 0.0980392157 0.0980392157 0.0980392157
v 1.5434003224242558 -5.0440894971599448 8.9610642180736484 0.0980392157 0.0980392157 0.0980392157
v 0.63091151896856557 -4.5406284068542808 10.756833526171995 0.0980392157 0.0980392157 0.0980392157
v 1.1881731141424807 -6.3481207323635314 8.7167002741316697 0.0980392157 0.0980392157 0.0980392157
v 1.952056329491306 -7.6965412756947558 9.0954959478174189 0.0980392157 0.0980392157 0.0980392157
v 1.1881731141424807 -6.3481207323635314 8.7167002741316697 0.0980392157 0.0980392157 0.0980392157
v -0.2729820683378783 -5.425230945566752 9.5503861875394271 0.0980392157 0.0980392157 0.0980392157
v 1.3656543163879735 -7.7607718261451764 6.1724747677886773 0.0980392157 0.0980392157 0.0980392157
v -1.0145672491414555 -6.8285014085352174 6.7724079604503507 0.0980392157 0.0980392157 0.0980392157
v 0.31061182503479212 -5.6750028068955842 6.6144195169949969 0.0980392157 0.0980392157 0.0980392157
v -0.48818299071297844 -9.54408487633048 9.4429988419789499 0.0980392157 0.0980392157 0.0980392157
v 1.952056329491306 -7.6965412756947558 9.0954959478174189 0.0980392157 0.0980392157 0.0980392157
v -0.2729820683378783 -5.425230945566752 9.5503861875394271 0.0980392157 0.0980392157 0.0980392157
v 1.7418928235260214 7.7363040690520553 6.6878753067402412 0.0980392157 0.0980392157 0.0980392157
v -0.18696094140618524 9.4425397220439908 6.4476652170533386 0.0980392157 0.0980392157 0.0980392157
v 1.330621833052734 9.4820749682324301 7.4324763301354588 0.0980392157 0.0980392157 0.0980392157
v 0.8837358444368375 5.8553720544094183 9.0516631852160412 0.0980392157 0.0980392157 0.0980392157
v 1.4175987256193912 6.4353987585985806 8.3163492532691521 0.0980392157 0.0980392157 0.0980392157
v 1.2616814828049225 7.6978575031917451 9.869142687531264 0.0980392157 0.0980392157 0.0980392157
v 2.1489437933808397 7.7337210099065263 8.7087797563958116 0.0980392157 0.0980392157 0.0980392157
v 1.2616814828049225 7.6978575031917451 9.869142687531264 0.0980392157 0.0980392157 0.0980392157
v 1.4175987256193912 6.4353987585985806 8.3163492532691521 0.0980392157 0.0980392157 0.0980392157
v 1.7418928235260214 7.7363040690520553 6.6878753067402412 0.0980392157 0.0980392157 0.0980392157
v 1.4175987256193912 6.4353987585985806 8.3163492532691521 0.0980392157 0.0980392157 0.0980392157
v 0.58690853010065114 5.9966312598851035 6.5975346466145322 0.0980392157 0.0980392157 0.0980392157
v 2.0989209643396247 4.8537138513727189 8.777514198454444 0.0980392157 0.0980392157 0.0980392157
v 1.4175987256193912 6.4353987585985806 8.3163492532691521 0.0980392157 0.0980392157 0.0980392157
v 0.8837358444368375 5.8553720544094183 9.0516631852160412 0.0980392157 0.0980392157 0.0980392157
v 2.0989209643396247 4.8537138513727189 8.777514198454444 0.0980392157 0.0980392157 0.0980392157
v 1.4008423745517371 4.9581012050981066 6.0817705123741197 0.0980392157 0.0980392157 0.0980392157
v 0.58690853010065114 5.9966312598851035 6.5975346466145322 0.0980392157 0.0980392157 0.0980392157
v 1.4175987256193912 6.4353987585985806 8.3163492532691521 0.0980392157 0.0980392157 0.0980392157
v 2.644726381670317 -4.3431162144610571 11.639923138651355 0.0980392157 0.0980392157 0.0980392157
v 1.3307564983074016 -6.5751529551869599 7.346073749335126 0.0980392157 0.0980392157 0.0980392157
v 0.31061182503479212 -5.6750028068955842 6.6144195169949969 0.0980392157 0.0980392157 0.0980392157
v 2.1195263192085734 -4.8430501363340559 7.282153205369732 0.0980392157 0.0980392157 0.0980392157
v 1.3656543163879735 -7.7607718261451764 6.1724747677886773 0.0980392157 0.0980392157 0.0980392157
v 0.31061182503479212 -5.6750028068955842 6.6144195169949969 0.0980392157 0.0980392157 0.0980392157
v 1.3307564983074016 -6.5751529551869599 7.346073749335126 0.0980392157 0.0980392157 0.0980392157
v 1.3656543163879735 -7.7607718261451764 6.1724747677886773 0.0980392157 0.0980392157 0.0980392157
v 1.3307564983074016 -6.5751529551869599 7.346073749335126 0.0980392157 0.0980392157 0.0980392157
v 2.1166834779851373 -7.7107697043166379 7.2056122530529283 0.0980392157 0.0980392157 0.0980392157
v 1.3317579406963742 -9.477857874061316 8.5629551854423696 0.0980392157 0.0980392157 0.0980392157
v 1.952056329491306 -7.6965412756947558 9.0954959478174189 0.0980392157 0.0980392157 0.0980392157
v -0.48818299071297844 -9.54408487633048 9.4429988419789499 0.0980392157 0.0980392157 0.0980392157
v 1.3656543163879735 -7.7607718261451764 6.1724747677886773 0.0980392157 0.0980392157 0.0980392157
v 2.1166834779851373 -7.7107697043166379 7.2056122530529283 0.0980392157 0.0980392157 0.0980392157
v 1.2188552398147925 -9.3915862356196662 7.191061317538777 0.0980392157 0.0980392157 0.0980392157
v 1.7418928235260214 7.7363040690520553 6.6878753067402412 0.0980392157 0.0980392157 0.0980392157
v 1.330621833052734 9.4820749682324301 7.4324763301354588 0.0980392157 0.0980392157 0.0980392157
v 2.1489437933808397 7.7337210099065263 8.7087797563958116 0.0980392157 0.0980392157 0.0980392157
v 1.4175987256193912 6.4353987585985806 8.3163492532691521 0.0980392157 0.0980392157 0.0980392157
v 1.7418928235260214 7.7363040690520553 6.6878753067402412 0.0980392157 0.0980392157 0.0980392157
v 2.1489437933808397 7.7337210099065263 8.7087797563958116 0.0980392157 0.0980392157 0.0980392157
v 2.0989209643396247 4.8537138513727189 8.777514198454444 0.0980392157 0.0980392157 0.0980392157
v 1.4008423745517371 4.9581012050981066 6.0817705123741197 0.0980392157 0.0980392157 0.0980392157
v 1.4175987256193912 6.4353987585985806 8.3163492532691521 0.0980392157 0.0980392157 0.0980392157
v 1.5434003224242558 -5.0440894971599448 8.9610642180736484 0.0980392157 0.0980392157 0.0980392157
v 1.1881731141424807 -6.3481207323635314 8.7167002741316697 0.0980392157 0.0980392157 0.0980392157
v 2.1195263192085734 -4.8430501363340559 7.282153205369732 0.0980392157 0.0980392157 0.0980392157
v 1.3307564983074016 -6.5751529551869599 7.346073749335126 0.0980392157 0.0980392157 0.0980392157
v 2.1195263192085734 -4.8430501363340559 7.282153205369732 0.0980392157 0.0980392157 0.0980392157
v 1.1881731141424807 -6.3481207323635314 8.7167002741316697 0.0980392157 0.0980392157 0.0980392157
v 1.1881731141424807 -6.3481207323635314 8.7167002741316697 0.0980392157 0.0980392157 0.0980392157
v 1.952056329491306 -7.6965412756947558 9.0954959478174189 0.0980392157 0.0980392157 0.0980392157
v 2.1166834779851373 -7.7107697043166379 7.2056122530529283 0.0980392157 0.0980392157 0.0980392157
v 1.2188552398147925 -9.3915862356196662 7.191061317538777 0.0980392157 0.0980392157 0.0980392157
v 2.1166834779851373 -7.7107697043166379 7.2056122530529283 0.0980392157 0.0980392157 0.0980392157
v 1.3317579406963742 -9.477857874061316 8.5629551854423696 0.0980392157 0.0980392157 0.0980392157
v 3.9867652226016226 -3.9570802585910769 10.22650239993647 0.0980392157 0.0980392157 0.0980392157
v 4.2753979566781375 4.4561937349526168 -0.4407876649490941 0.0980392157 0.0980392157 0.0980392157
v 4.4964949969956445 3.9397502303733036 4.237945079236912 0.0980392157 0.0980392157 0.0980392157
v 4.4581805785369859 4.2619452032511926 8.6193148256643166 0.0980392157 0.0980392157 0.0980392157
v 3.8495973380640383 4.3237619895155559 10.294868373808606 0.0980392157 0.0980392157 0.0980392157
v 4.2329393309984198 -0.94170891387722122 -4.4081671467284833 0.0980392157 0.0980392157 0.0980392157
v 4.2845727210860653 2.5012460256031934 -3.7564756129079577 0.0980392157 0.0980392157 0.0980392157
v 4.9787655343550412 -1.3084540873213817 -0.71125007840662557 0.0980392157 0.0980392157 0.0980392157
v 4.2866625801128233 -4.4803451402837089 -0.49755544943815638 0.0980392157 0.0980392157 0.0980392157
v 4.2588328490064757 -3.8158771416512725 -2.4732616987445009 0.0980392157 0.0980392157 0.0980392157
v 4.4750160884620271 -4.3278555962794725 8.1773914090171846 0.0980392157 0.0980392157 0.0980392157
v 4.2588328490064757 -3.8158771416512725 -2.4732616987445009 0.0980392157 0.0980392157 0.0980392157
v 5.0897669586849057 -0.29736063495075626 -1.5167444662897704 0.0980392157 0.0980392157 0.0980392157
v 4.2588328490064757 -3.8158771416512725 -2.4732616987445009 0.0980392157 0.0980392157 0.0980392157
v 4.2329393309984198 -0.94170891387722122 -4.4081671467284833 0.0980392157 0.0980392157 0.0980392157
v -4.6105348191954247 -3.7946935307200356 7.0412167901175922 0.0980392157 0.0980392157 0.0980392157
v -4.5000710634589671 3.5796797331466106 6.815671117881239 0.0980392157 0.0980392157 0.0980392157
v 4.2753979566781375 4.4561937349526168 -0.4407876649490941 0.0980392157 0.0980392157 0.0980392157
v 4.2845727210860653 2.5012460256031934 -3.7564756129079577 0.0980392157 0.0980392157 0.0980392157
v 4.1172176111602905 4.0086295019167437 -2.1400321235674626 0.0980392157 0.0980392157 0.0980392157
v 1.330621833052734 9.4820749682324301 7.4324763301354588 0.0980392157 0.0980392157 0.0980392157
v 0.9687028282704766 9.3269539674091817 8.9675873706310067 0.0980392157 0.0980392157 0.0980392157
v 2.1489437933808397 7.7337210099065263 8.7087797563958116 0.0980392157 0.0980392157 0.0980392157
v 4.5994275665907178 -2.9463068902173943 1.8174195777558462 0.0980392157 0.0980392157 0.0980392157
v -4.4990829050607299 -4.0103345434494395 3.6678589410064601 0.0980392157 0.0980392157 0.0980392157
v -4.4228040489891658 -4.3867874540901557 -0.84499281499841328 0.0980392157 0.0980392157 0.0980392157
v 4.0117668707967251 1.1712195028767063 -4.3860440045863447 0.0980392157 0.0980392157 0.0980392157
v 4.2588328490064757 -3.8158771416512725 -2.4732616987445009 0.0980392157 0.0980392157 0.0980392157
v 3.9768210808418072 -2.2155281961846578 -3.9565180329402057 0.0980392157 0.0980392157 0.0980392157
v -1.5491345999435473 4.5405458613002079 10.847784156246266 0.0980392157 0.0980392157 0.0980392157
v -4.1162881407623377 4.3001118067923265 9.9820676096556369 0.0980392157 0.0980392157 0.0980392157
v -1.5984840805463421 4.2963924893976335 12.201900907979434 0.0980392157 0.0980392157 0.0980392157
v -0.48818299071297844 -9.54408487633048 9.4429988419789499 0.0980392157 0.0980392157 0.0980392157
v -1.8510176938576675 -7.9395909295431251 9.0552383067158839 0.0980392157 0.0980392157 0.0980392157
v -1.6567472915659902 4.5590330430554129 5.5752831476394453 0.0980392157 0.0980392157 0.0980392157
v 1.4008423745517371 4.9581012050981066 6.0817705123741197 0.0980392157 0.0980392157 0.0980392157
v 3.4426654886449559 4.5155957663381354 5.4274355100630398 0.0980392157 0.0980392157 0.0980392157
v -0.99808061740763776 -4.3071875047558512 12.373295311623808 0.0980392157 0.0980392157 0.0980392157
v 4.4964949969956445 3.9397502303733036 4.237945079236912 0.0980392157 0.0980392157 0.0980392157
v 4.2753979566781375 4.4561937349526168 -0.4407876649490941 0.0980392157 0.0980392157 0.0980392157
v 4.4581805785369859 4.2619452032511926 8.6193148256643166 0.0980392157 0.0980392157 0.0980392157
v -5.5820781960733257 -3.4121633692638662 7.6206445669419196 0.0980392157 0.0980392157 0.0980392157
v -5.57261266067969 -3.4921146288035447 9.4185169964739632 0.0980392157 0.0980392157 0.0980392157
v -5.5488975114126813 3.2218737966471314 9.4244920659898863 0.0980392157 0.0980392157 0.0980392157
v -4.7202860903815207 -3.6223410908383964 9.5119620330565535 0.0980392157 0.0980392157 0.0980392157
v -2.0960977091201434 7.7246144228125573 8.8340247695424825 0.0980392157 0.0980392157 0.0980392157
v 0.31061182503479212 -5.6750028068955842 6.6144195169949969 0.0980392157 0.0980392157 0.0980392157
v 2.0007590180089894 -4.5245321342264031 5.0466600099982442 0.0980392157 0.0980392157 0.0980392157
v -2.9024535682265835 -4.2176943023084439 11.510377536532868 0.0980392157 0.0980392157 0.0980392157
v 1.2188552398147925 -9.3915862356196662 7.191061317538777 0.0980392157 0.0980392157 0.0980392157
v -1.0888517507636153 -7.7466280816240145 5.9826374985483737 0.0980392157 0.0980392157 0.0980392157
v 1.3656543163879735 -7.7607718261451764 6.1724747677886773 0.0980392157 0.0980392157 0.0980392157
v -0.62328875743594869 9.507108926891279 9.2668318450533906 0.0980392157 0.0980392157 0.0980392157
v -1.3071447607225499 9.4527015698118682 7.3425125220761842 0.0980392157 0.0980392157 0.0980392157
v -2.0960977091201434 7.7246144228125573 8.8340247695424825 0.0980392157 0.0980392157 0.0980392157
v -1.125681316963993 7.6866532420722624 9.9817879174965274 0.0980392157 0.0980392157 0.0980392157
v 0.8837358444368375 5.8553720544094183 9.0516631852160412 0.0980392157 0.0980392157 0.0980392157
v 1.2616814828049225 7.6978575031917451 9.869142687531264 0.0980392157 0.0980392157 0.0980392157
v 0.9687028282704766 9.3269539674091817 8.9675873706310067 0.0980392157 0.0980392157 0.0980392157
v -0.62328875743594869 9.507108926891279 9.2668318450533906 0.0980392157 0.0980392157 0.0980392157
v 1.2616814828049225 7.6978575031917451 9.869142687531264 0.0980392157 0.0980392157 0.0980392157
v 1.3307564983074016 -6.5751529551869599 7.346073749335126 0.0980392157 0.0980392157 0.0980392157
v -4.4228040489891658 -4.3867874540901557 -0.84499281499841328 0.0980392157 0.0980392157 0.0980392157
v -4.7202860903815207 -3.6223410908383964 9.5119620330565535 0.0980392157 0.0980392157 0.0980392157
v -4.9243573157196225 -1.1457249940961272 -1.0622323278047692 0.0980392157 0.0980392157 0.0980392157
v -4.4228040489891658 -4.3867874540901557 -0.84499281499841328 0.0980392157 0.0980392157 0.0980392157
v 1.952056329491306 -7.6965412756947558 9.0954959478174189 0.0980392157 0.0980392157 0.0980392157
v -4.9203612802328296 0.29805240425755425 1.5355838308828249 0.0980392157 0.0980392157 0.0980392157
v -5.0386776231710062 0.99620388387180325 -1.156178518115214 0.0980392157 0.0980392157 0.0980392157
v 5.0897669586849057 -0.29736063495075626 -1.5167444662897704 0.0980392157 0.0980392157 0.0980392157
v -5.0444760060476304 0.1026924189931141 -1.5215293498413573 0.0980392157 0.0980392157 0.0980392157
v -4.9243573157196225 -1.1457249940961272 -1.0622323278047692 0.0980392157 0.0980392157 0.0980392157
v -4.9243573157196225 -1.1457249940961272 -1.0622323278047692 0.0980392157 0.0980392157 0.0980392157
v 4.9787655343550412 -1.3084540873213817 -0.71125007840662557 0.0980392157 0.0980392157 0.0980392157
v 5.0897669586849057 -0.29736063495075626 -1.5167444662897704 0.0980392157 0.0980392157 0.0980392157
v 4.9032462111175059 -1.307286543685966 0.8809722077762937 0.0980392157 0.0980392157 0.0980392157
v 4.9042682245830687 1.3677439831530434 0.7075019079615309 0.0980392157 0.0980392157 0.0980392157
v 1.4008423745517371 4.9581012050981066 6.0817705123741197 0.0980392157 0.0980392157 0.0980392157
v 4.9032462111175059 -1.307286543685966 0.8809722077762937 0.0980392157 0.0980392157 0.0980392157
v -5.4959513059153142 3.1670953247594991 7.6591613844037028 0.0980392157 0.0980392157 0.0980392157
vn -0.72297298908233643 0.68428587913513184 -0.095199190080165863
vn -0.63678336143493652 0.77104252576828003 0.0006463919417001307
vn -0.63821274042129517 0.74743771553039551 0.18444876372814178
vn 0 -1 0
vn 0 -1 0
vn 0 -1 0
vn -0.17807114124298096 -0.015127363614737988 0.98390132188796997
vn -0.56004035472869873 -0.018344011157751083 0.82826220989227295
vn -0.21728762984275818 0.0014863890828564763 0.97610646486282349
vn -0.59623211622238159 0.065963953733444214 -0.80009752511978149
vn -0.57192015647888184 0.012773568741977215 -0.820209801197052
vn -0.91538667678833008 0.019066289067268372 -0.40212398767471313
vn -0.70497429370880127 0.035719510167837143 -0.70833283662796021
vn -0.11880861967802048 -0.021939527243375778 0.99267476797103882
vn -0.10850843787193298 -0.013047799468040466 0.99400991201400757
vn -0.70463335514068604 0.70951354503631592 0.0090730451047420502
vn -0.69454842805862427 -0.71940922737121582 -0.0072652990929782391
vn -0.71983790397644043 -0.69411945343017578 -0.0056196986697614193
vn -0.70378106832504272 -0.71041691303253174 -4.8288522521033883E-05
vn -0.69669407606124878 -0.71218031644821167 0.086119644343852997
vn -0.95234102010726929 -0.28301739692687988 0.1137879267334938
vn -0.9997553825378418 0.0010822048643603921 -0.022090686485171318
vn -0.99998372793197632 0.0057072951458394527 -0.00017283805937040597
vn -0.95012420415878296 -0.30839654803276062 -0.046427618712186813
vn -0.98953956365585327 0.10423052310943604 0.099736809730529785
vn -0.99999767541885376 -0.0014468436129391193 -0.0016040549380704761
vn -0.99999570846557617 0.0021088148932904005 0.0020394918974488974
vn -0.97367966175079346 0.21140551567077637 0.085179686546325684
vn -0.95314925909042358 0.10100189596414566 0.28514048457145691
vn -0.99997872114181519 -0.0041225524619221687 -0.0050575160421431065
vn -0.99920141696929932 -0.02905566431581974 -0.027428261935710907
vn -0.92581963539123535 0.35190883278846741 -0.1379062682390213
vn -0.99079173803329468 -0.10442543774843216 0.086180120706558228
vn -0.81889677047729492 0.38183173537254333 -0.42850035429000854
vn -0.9959520697593689 -0.084974251687526703 -0.029306637123227119
vn -0.97610330581665039 -0.06032116711139679 -0.20876704156398773
vn -0.96285539865493774 0.086994454264640808 0.25561970472335815
vn -0.69739407300949097 0.71668785810470581 -0.00012283894466236234
vn -0.74467343091964722 0.66742819547653198 0.001022517797537148
vn -0.69984608888626099 0.71428972482681274 -0.0023714057169854641
vn -0.7076641321182251 0.7054983377456665 -0.038517702370882034
vn -0.34024474024772644 0.93851089477539062 -0.058573335409164429
vn -0.074732586741447449 0.99715739488601685 0.0095990467816591263
vn -0.087167404592037201 0.99249827861785889 0.085726112127304077
vn -0.042205415666103363 0.99870413541793823 -0.028438165783882141
vn -7.1285080593952443E-06 0.70691806077957153 -0.70729541778564453
vn 4.2011633922811598E-05 0.82460922002792358 -0.56570273637771606
vn 0.01828669011592865 0.87726819515228271 -0.47965207695960999
vn -0.69045096635818481 0.60874879360198975 -0.39077147841453552
vn -0.69717490673065186 0.45167306065559387 -0.5567212700843811
vn -0.7073097825050354 0.13097433745861053 -0.69466441869735718
vn -0.98232609033584595 0.040856420993804932 -0.18266415596008301
vn -0.99120056629180908 -0.079422138631343842 -0.10589418560266495
vn -0.99979931116104126 -0.0063172881491482258 0.019010353833436966
vn -1.5310089862552445E-09 0.37584972381591797 -0.92668062448501587
vn 8.6539174048994028E-08 0.37584957480430603 -0.92668068408966064
vn -3.058908149000672E-08 0.37584999203681946 -0.92668050527572632
vn 0 -0.55028825998306274 -0.83497476577758789
vn 0 -0.53515386581420898 -0.84475463628768921
vn 0 -0.92323416471481323 -0.38423779606819153
vn 0 -0.35458183288574219 0.93502497673034668
vn 0 -0.35458183288574219 0.93502497673034668
vn 0 -0.35458183288574219 0.93502497673034668
vn 2.126959053327937E-09 -0.9387671947479248 0.34455209970474243
vn 0 -0.80752640962600708 0.58983141183853149
vn 0 -0.79261535406112671 0.60972201824188232
vn 0 0.99380195140838623 0.1111653596162796
vn -1.0883474121925474E-09 0.99380195140838623 0.1111653670668602
vn -3.2258800075624094E-09 0.99380195140838623 0.11116535216569901
vn -3.5746237081468735E-09 -0.97711348533630371 0.21271875500679016
vn 0.96532130241394043 0.21180988848209381 0.15261505544185638
vn 0.99979645013809204 0.020171919837594032 -0.00031767622567713261
vn 0.99996423721313477 0.0022024423815310001 -0.0081645399332046509
vn 0.92114931344985962 0.32528278231620789 -0.2137172669172287
vn 1 0 0
vn 0.98836600780487061 -0.10569760948419571 -0.1093648374080658
vn 0.99997520446777344 0.00092391500947996974 -0.0069818249903619289
vn 0.075916871428489685 0.57958543300628662 -0.81136757135391235
vn -0.026299320161342621 0.26197931170463562 -0.96471506357192993
vn 0.013953035697340965 0.53064560890197754 -0.84747892618179321
vn 0.97459977865219116 -0.19362278282642365 0.11254081875085831
vn 0.9999624490737915 -0.0084728049114346504 0.0018351346952840686
vn 0.0025397446006536484 -0.41640815138816833 -0.90917426347732544
vn -0.0044046598486602306 0.18361067771911621 -0.98298919200897217
vn 0.0014375182799994946 -0.21290421485900879 -0.97707200050354004
vn -0.64498013257980347 0.0076306494884192944 0.76416122913360596
vn -0.90933752059936523 0.0044643143191933632 0.41603532433509827
vn -0.90010815858840942 -0.38107532262802124 0.21115604043006897
vn 0.0069803544320166111 -0.99997389316558838 0.0018777170917019248
vn -0.037691857665777206 -0.99918997287750244 0.014095084741711617
vn -0.020027318969368935 -0.99979680776596069 -0.0023014221806079149
vn -0.70578235387802124 -0.61331337690353394 -0.35456719994544983
vn -0.67515861988067627 -0.68311196565628052 -0.27842217683792114
vn -0.70128649473190308 -0.42703309655189514 -0.57082396745681763
vn -0.0069773383438587189 -0.85591202974319458 -0.51707440614700317
vn -0.021991627290844917 -0.8605426549911499 -0.5089033842086792
vn -0.019943946972489357 -0.47887060046195984 -0.8776589035987854
vn 0.00082745094550773501 0.99958282709121704 -0.028870416805148125
vn -0.0088281063362956047 0.99995893239974976 0.0020424695685505867
vn 0.051434654742479324 0.9985727071762085 -0.014386585913598537
vn -0.059432629495859146 0.97100132703781128 -0.2315690666437149
vn -0.00034873414551839232 0.98929160833358765 -0.14595218002796173
vn -0.0042957300320267677 0.8793565034866333 -0.47614455223083496
vn -0.89311373233795166 -0.0064250589348375797 0.4497850239276886
vn -0.65267729759216309 0.0044651520438492298 0.75762289762496948
vn -0.0453035868704319 0.59890681505203247 -0.79953622817993164
vn 0.035997401922941208 -0.50799351930618286 -0.86060833930969238
vn 0.66569620370864868 0.40517663955688477 -0.62664216756820679
vn 0.70000112056732178 -0.16173015534877777 -0.6955873966217041
vn 0.70176213979721069 0.19077181816101074 -0.68639349937438965
vn -0.50137197971343994 -0.71561169624328613 0.48633942008018494
vn -0.67853206396102905 -0.69017201662063599 0.25150907039642334
vn 0.027959462255239487 -0.92869943380355835 0.36977773904800415
vn 0.066701337695121765 -0.97269797325134277 -0.22228270769119263
vn -0.14621070027351379 -0.96636468172073364 0.21156962215900421
vn -0.34175336360931396 -0.92979645729064941 -0.13668648898601532
vn -0.30852127075195312 -0.94904172420501709 0.064299196004867554
vn 0.019997561350464821 -0.99765872955322266 -0.065399885177612305
vn -0.021210722625255585 -0.99972236156463623 -0.01026187464594841
vn 0.083335191011428833 -0.69548964500427246 -0.71368718147277832
vn -0.02666403166949749 -0.79893290996551514 -0.60082882642745972
vn 0.0014682919718325138 -0.75091075897216797 -0.66040205955505371
vn -0.031290076673030853 -0.99910503625869751 0.028461681678891182
vn 0.41464322805404663 -0.9031832218170166 0.11104553192853928
vn 0.32366988062858582 -0.93955183029174805 -0.11171466857194901
vn 0.047217868268489838 -0.99293869733810425 0.10882674157619476
vn 0.7214551568031311 -0.69187217950820923 0.028555238619446754
vn 0.64634197950363159 -0.70589631795883179 0.28974545001983643
vn 0.54129183292388916 -0.59091264009475708 0.59818506240844727
vn 0.027035269886255264 -0.99896782636642456 -0.036501221358776093
vn 0.0095556871965527534 -0.99992895126342773 0.0071235573850572109
vn 0.70941770076751709 -0.70322328805923462 -0.046942148357629776
vn 0.87992751598358154 -0.47435098886489868 0.026808418333530426
vn 0.045494303107261658 -0.83520990610122681 -0.5480462908744812
vn -0.083347268402576447 0.87642371654510498 0.47427275776863098
vn -0.083347268402576447 0.87642371654510498 0.47427275776863098
vn -0.083347268402576447 0.87642371654510498 0.47427275776863098
vn 0 0.91695302724838257 0.39899510145187378
vn 0 0.91695302724838257 0.39899510145187378
vn 0 0.91695302724838257 0.39899510145187378
vn -0.35525855422019958 -0.0028542093932628632 0.93476372957229614
vn -0.67908710241317749 -0.72912406921386719 -0.084963306784629822
vn -0.73224782943725586 -0.68057411909103394 -0.025138974189758301
vn 0.020221661776304245 -0.074076689779758453 0.99704748392105103
vn 0.020221661776304245 -0.074076689779758453 0.99704748392105103
vn 0.020221661776304245 -0.074076689779758453 0.99704748392105103
vn -0.79916626214981079 -0.59260648488998413 0.10075109452009201
vn -0.77826994657516479 -0.62460297346115112 0.064551971852779388
vn -0.81102722883224487 -0.58461558818817139 0.021434260532259941
vn 0 -0.023562297224998474 -0.99972236156463623
vn 0 -0.023562297224998474 -0.99972236156463623
vn 0 -0.023562297224998474 -0.99972236156463623
vn -0.73050040006637573 0.64556998014450073 -0.22272974252700806
vn -0.77605420351028442 0.62777262926101685 0.060344170778989792
vn -0.73168015480041504 0.64570224285125732 -0.21843257546424866
vn -0.43057021498680115 0.73694777488708496 0.52107316255569458
vn -0.43681693077087402 0.73712962865829468 0.51558792591094971
vn -0.5929642915725708 0.72275525331497192 0.35499045252799988
vn -0.5311240553855896 -0.039837315678596497 -0.84635704755783081
vn -0.26728418469429016 0.06678655743598938 -0.9613005518913269
vn -0.36819934844970703 0.34008640050888062 -0.86531525850296021
vn -0.32802221179008484 -0.85639858245849609 0.39872655272483826
vn -0.46934375166893005 -0.8429291844367981 0.26303386688232422
vn -0.45236468315124512 -0.8464512825012207 0.28086727857589722
vn -0.46258917450904846 -0.46654784679412842 0.75388616323471069
vn -0.49705305695533752 -0.46698060631752014 0.73134630918502808
vn -0.8266746997833252 -0.41289493441581726 0.38226518034934998
vn 0.29744827747344971 -0.020177450031042099 0.9545246958732605
vn 0.29744827747344971 -0.020177450031042099 0.9545246958732605
vn 0.29744827747344971 -0.020177450031042099 0.9545246958732605
vn -0.64577978849411011 -0.46907371282577515 -0.60244357585906982
vn -0.85745698213577271 -0.48985910415649414 0.15749797224998474
vn -0.74916410446166992 -0.51301801204681396 -0.41900557279586792
vn -0.87685191631317139 0.180095374584198 0.44575369358062744
vn -0.51038080453872681 0.016560075804591179 0.85978907346725464
vn -0.89442706108093262 -0.0047043445520102978 0.4471890926361084
vn -0.80568587779998779 0.40119236707687378 -0.43579235672950745
vn -0.80568587779998779 0.40119236707687378 -0.43579235672950745
vn -0.80568587779998779 0.40119236707687378 -0.43579235672950745
vn -0.23247556388378143 0.80066788196563721 0.55216491222381592
vn -0.60603231191635132 0.71430027484893799 0.34999993443489075
vn -0.21945548057556152 0.84976762533187866 0.47930604219436646
vn -0.95528852939605713 0.29538607597351074 -0.013073795475065708
vn -0.95528852939605713 0.29538607597351074 -0.013073795475065708
vn -0.95528852939605713 0.29538607597351074 -0.013073795475065708
vn -0.16679057478904724 -0.71391624212265015 0.68007683753967285
vn 0.063638165593147278 -0.80181032419204712 0.59418046474456787
vn 0.095376066863536835 -0.86977022886276245 0.48415195941925049
vn -0.87471139430999756 -0.22254198789596558 0.43052881956100464
vn 0.018518697470426559 -0.78713446855545044 -0.61650335788726807
vn -0.48574313521385193 -0.77864229679107666 -0.39720249176025391
vn -0.25406131148338318 -0.83585751056671143 -0.48661592602729797
vn -0.86615890264511108 0.49777790904045105 0.044562891125679016
vn -0.8556438684463501 0.43018311262130737 -0.28777778148651123
vn -0.85672789812088013 0.49872925877571106 -0.13147790729999542
vn -0.83141863346099854 0.54058080911636353 0.12851221859455109
vn -0.20161275565624237 0.035036690533161163 0.97883844375610352
vn -0.96223074197769165 -0.0087422439828515053 0.27209469676017761
vn -0.75258803367614746 0.0040420820005238056 0.65847927331924438
vn -0.45630139112472534 0.81996190547943115 -0.34561756253242493
vn -0.45630139112472534 0.81996190547943115 -0.34561756253242493
vn -0.45630139112472534 0.81996190547943115 -0.34561756253242493
vn -0.77556461095809937 -0.63126808404922485 -0.00039320220821537077
vn -0.76616835594177246 -0.6395452618598938 0.06299128383398056
vn -0.73090940713882446 -0.64846938848495483 0.21274134516716003
vn -0.75233912467956543 -0.17859192192554474 0.63410627841949463
vn -0.82749104499816895 -0.38243556022644043 0.41109809279441833
vn -0.60936343669891357 -0.79212886095046997 -0.034757882356643677
vn -0.53848415613174438 -0.71659106016159058 -0.44331935048103333
vn -0.53848415613174438 -0.71659106016159058 -0.44331935048103333
vn -0.53848415613174438 -0.71659106016159058 -0.44331935048103333
vn 0.31565013527870178 0.00090125546557828784 -0.94887524843215942
vn 0.31565013527870178 0.00090125546557828784 -0.94887524843215942
vn 0.31565013527870178 0.00090125546557828784 -0.94887524843215942
vn -0.40104386210441589 -0.3683631420135498 -0.83873260021209717
vn -0.69215399026870728 0.17571000754833221 -0.70003491640090942
vn -0.31579312682151794 -0.59178757667541504 -0.74166172742843628
vn 0.008502650074660778 0.99993038177490234 -0.0081813130527734756
vn 0.0036306558176875114 0.99993467330932617 -0.010839219205081463
vn -0.046558614820241928 0.9981265664100647 0.039694629609584808
vn -0.020540812984108925 0.99936598539352417 0.029081098735332489
vn 0.068360790610313416 0.99477040767669678 -0.075885780155658722
vn 0.31099075078964233 0.91259056329727173 0.26544913649559021
vn 0.31099075078964233 0.91259056329727173 0.26544913649559021
vn 0.31099075078964233 0.91259056329727173 0.26544913649559021
vn -0.86796718835830688 -0.0065258224494755268 -0.49657872319221497
vn -0.11057226359844208 0.056440509855747223 -0.99226421117782593
vn 0.12746512889862061 -0.042731825262308121 -0.99092209339141846
vn 0.11427152156829834 0.63848388195037842 -0.76110470294952393
vn -0.19628898799419403 0.60114669799804688 -0.77465689182281494
vn -0.75276672840118408 0.34160339832305908 -0.56271606683731079
vn 0.03409949317574501 0.50971144437789917 -0.85966938734054565
vn 0.0081645119935274124 0.55779367685317993 -0.82993948459625244
vn -0.041299935430288315 0.49779927730560303 -0.86630839109420776
vn -0.010539994575083256 0.99731695652008057 -0.072441354393959045
vn -0.0244442168623209 0.9974328875541687 0.067306019365787506
vn -0.2086343914270401 0.75892603397369385 0.61684924364089966
vn 0.36562690138816833 0.66320425271987915 0.65305215120315552
vn 0.025907455012202263 0.69989341497421265 0.71377730369567871
vn 0.14614376425743103 0.92819947004318237 -0.34218084812164307
vn 0.12775756418704987 0.0050652646459639072 0.99179250001907349
vn 0.016943946480751038 0.0011733860010281205 0.99985575675964355
vn -0.22560888528823853 0.0022774394601583481 0.97421526908874512
vn -0.0018974734703078866 -0.99999737739562988 -0.0012791099725291133
vn 0.0015447689220309258 -0.99999791383743286 0.0013286661123856902
vn 0.011550297029316425 -0.99991333484649658 0.00631745345890522
vn -0.10548729449510574 -0.99069255590438843 -0.086026996374130249
vn 0.037474099546670914 -0.99841552972793579 -0.04197770357131958
vn -0.006734232883900404 -0.99997729063034058 -0.00019238617096561939
vn 0.31189313530921936 0.73927736282348633 0.59681791067123413
vn -0.065514855086803436 0.77241283655166626 0.6317327618598938
vn -0.14865985512733459 0.76461708545684814 0.62710517644882202
vn -0.048441875725984573 -0.23481342196464539 -0.97083264589309692
vn 0.26174136996269226 0.78541511297225952 0.5609050989151001
vn -0.27674591541290283 0.67956209182739258 0.6794167160987854
vn 0.19688938558101654 0.89847791194915771 0.39239269495010376
vn 0.14174593985080719 -0.54684990644454956 0.82514435052871704
vn -0.043204955756664276 -0.57954210042953491 0.81379622220993042
vn -0.027614152058959007 -0.54929709434509277 0.83517074584960938
vn 0.33622699975967407 0.80099177360534668 -0.49534192681312561
vn -0.28466117382049561 0.77600139379501343 -0.56284087896347046
vn -0.22807154059410095 0.78387337923049927 -0.57751697301864624
vn 0.53919094800949097 0.70667153596878052 0.45813584327697754
vn 0.53919094800949097 0.70667153596878052 0.45813584327697754
vn 0.53919094800949097 0.70667153596878052 0.45813584327697754
vn -0.0097272666171193123 0.99836236238479614 0.056373093277215958
vn -0.25541159510612488 0.95389437675476074 -0.15764018893241882
vn 0.53920859098434448 0.77410405874252319 0.33168810606002808
vn -0.059866201132535934 0.9981921911239624 -0.0053277178667485714
vn 0.31784942746162415 0.94508647918701172 0.076047986745834351
vn -0.15805172920227051 0.9872591495513916 0.018412301316857338
vn 0.53812569379806519 -0.0075117326341569424 0.84283113479614258
vn -0.011390207335352898 -0.99884051084518433 -0.04677465558052063
vn 0.077402882277965546 -0.85145676136016846 0.51868116855621338
vn 0.19915033876895905 -0.95563220977783203 0.21703965961933136
vn 0.030118964612483978 -0.94454848766326904 0.32698774337768555
vn 0.99735891819000244 0.038282677531242371 -0.061721861362457275
vn 0.99735891819000244 0.038282677531242371 -0.061721861362457275
vn 0.99735891819000244 0.038282677531242371 -0.061721861362457275
vn 0.43970683217048645 0.39179244637489319 0.8081810474395752
vn 0.43970683217048645 0.39179244637489319 0.8081810474395752
vn 0.43970683217048645 0.39179244637489319 0.8081810474395752
vn -0.27466541528701782 0.019575949758291245 -0.96134054660797119
vn -0.27466541528701782 0.019575949758291245 -0.96134054660797119
vn -0.27466541528701782 0.019575949758291245 -0.96134054660797119
vn -0.10186668485403061 -0.42364245653152466 0.90008348226547241
vn 0.24476543068885803 -0.0040940782055258751 0.96957367658615112
vn 0.075469441711902618 0.2984689474105835 0.95143085718154907
vn 0.032886721193790436 0.079752415418624878 -0.99627208709716797
vn 0.032886721193790436 0.079752415418624878 -0.99627208709716797
vn 0.032886721193790436 0.079752415418624878 -0.99627208709716797
vn 0.71189862489700317 -0.45162171125411987 0.53780865669250488
vn 0.71189862489700317 -0.45162171125411987 0.53780865669250488
vn 0.71189862489700317 -0.45162171125411987 0.53780865669250488
vn 0.43990457057952881 -0.8302314281463623 0.3423444926738739
vn 0.43990457057952881 -0.8302314281463623 0.3423444926738739
vn 0.43990457057952881 -0.8302314281463623 0.3423444926738739
vn 0.93636137247085571 -0.33336883783340454 -0.10996638983488083
vn 0.93636137247085571 -0.33336883783340454 -0.10996638983488083
vn 0.93636137247085571 -0.33336883783340454 -0.10996638983488083
vn 0.88377487659454346 0.23265601694583893 0.40597185492515564
vn 0.86498260498046875 0.0045751947909593582 0.50178098678588867
vn 0.51659983396530151 0.0075201555155217648 0.8561939001083374
vn 0.52512651681900024 0.71635574102401733 0.4594307541847229
vn 0.79718083143234253 0.41515901684761047 -0.43834424018859863
vn 0.79718083143234253 0.41515901684761047 -0.43834424018859863
vn 0.79718083143234253 0.41515901684761047 -0.43834424018859863
vn 0.57979202270507812 -0.0065978718921542168 0.81473779678344727
vn 0.86124718189239502 0.04541710764169693 -0.50615274906158447
vn 0.38610967993736267 -0.002755569526925683 -0.92244875431060791
vn 0.87304246425628662 -0.18496216833591461 -0.45120489597320557
vn 0.57241511344909668 0.45977118611335754 -0.67893403768539429
vn 0.44042295217514038 0.45606225728988647 -0.77332711219787598
vn 0.75901871919631958 0.43874001502990723 -0.48103824257850647
vn 0.37450158596038818 0.84785956144332886 -0.3753434419631958
vn 0.43860557675361633 0.84153664112091064 -0.31534302234649658
vn 0.48579585552215576 0.83218991756439209 -0.26732435822486877
vn 0.2494988739490509 -0.30068066716194153 0.92051148414611816
vn 0.34711149334907532 -0.38592341542243958 0.85473781824111938
vn 0.420551598072052 -0.44878277182579041 0.78849881887435913
vn 0.45800629258155823 -0.74703711271286011 -0.48183581233024597
vn 0.59215140342712402 -0.73419380187988281 -0.33213883638381958
vn 0.51641160249710083 -0.74537283182144165 -0.42159029841423035
vn 0.72470307350158691 0.64312493801116943 -0.24737770855426788
vn 0.74476909637451172 0.64558559656143188 -0.16893266141414642
vn 0.7732769250869751 0.63336461782455444 0.029866807162761688
vn 0.86718446016311646 -0.49201273918151855 0.076906107366085052
vn 0.82498925924301147 -0.5534331202507019 -0.11447471380233765
vn 0.85295140743255615 -0.50880700349807739 0.11657342314720154
vn 0.81281912326812744 0.58025026321411133 -0.051329385489225388
vn 0.74221283197402954 0.6658550500869751 -0.075875893235206604
vn 0.84429627656936646 0.50783908367156982 -0.17106512188911438
vn 0.78875643014907837 -0.61467635631561279 0.0060166874900460243
vn 0.78601902723312378 -0.61808532476425171 0.012025674805045128
vn 0.79139947891235352 -0.61129927635192871 0.00012160320329712704
vn 0.86451858282089233 -0.38220205903053284 0.32638818025588989
vn 0.86451858282089233 -0.38220205903053284 0.32638818025588989
vn 0.86451858282089233 -0.38220205903053284 0.32638818025588989
vn 0.81896424293518066 0.5122377872467041 0.25866976380348206
vn 0.7933887243270874 0.52485454082489014 0.30832141637802124
vn 0.84855145215988159 0.48889908194541931 -0.20233166217803955
vn 0.85668689012527466 -0.40673196315765381 -0.31726428866386414
vn 0.84894865751266479 -0.4197770357131958 -0.32105058431625366
vn 0.86029410362243652 -0.41035377979278564 0.3024960458278656
vn 0.87106829881668091 -0.0024222938809543848 0.49115589261054993
vn 0.99847191572189331 -0.052659306675195694 -0.016758590936660767
vn 0.99636244773864746 0.085198186337947845 0.001772681251168251
vn 0.99591571092605591 -0.014610638841986656 0.089098110795021057
vn 0.8647734522819519 0.0030864758882671595 0.50215274095535278
vn 0.880088210105896 -0.0375218465924263 -0.47332528233528137
vn 0.99424207210540771 -0.075920730829238892 0.075621992349624634
vn 0.96126443147659302 -0.26672878861427307 -0.069472745060920715
vn 0.99951434135437012 0.030097693204879761 -0.0080774454399943352
vn 0.99083805084228516 -0.10695192962884903 -0.082469627261161804
vn 0.99900531768798828 -0.0012897694250568748 0.0445718914270401
vn 0.9672960638999939 -0.24732336401939392 -0.056297920644283295
vn 0.34452709555625916 -0.93225067853927612 0.1104976087808609
vn 0.98728978633880615 0.15860718488693237 -0.010130481794476509
vn 0.98926597833633423 -0.04343850165605545 -0.13952024281024933
vn -0.99988472461700439 0.001600913587026298 0.015097667463123798
vn -0.99983853101730347 0.010535870678722858 -0.014555529691278934
vn 0.66202056407928467 0.71086710691452026 -0.23748002946376801
vn 0.68417918682098389 0.55116051435470581 -0.47762006521224976
vn 0.69741100072860718 0.62010210752487183 -0.35929274559020996
vn 0.89836031198501587 0.38199451565742493 0.2168615460395813
vn 0.7666703462600708 0.43118375539779663 0.47570696473121643
vn 0.83577489852905273 0.42360928654670715 0.34933575987815857
vn 0.99850404262542725 0.049095168709754944 -0.024069169536232948
vn -0.70718133449554443 -0.70703214406967163 0.00037466813228093088
vn -0.7067522406578064 -0.70269584655761719 -0.081974498927593231
vn 0.009184911847114563 0.22929246723651886 -0.97331422567367554
vn 0.71523123979568481 -0.58735060691833496 -0.37876585125923157
vn 0.69664478302001953 -0.35339006781578064 -0.62434083223342896
vn -0.29059275984764099 0.95684683322906494 0
vn 0.31088832020759583 0.95044642686843872 0
vn -0.3462490439414978 0.93814265727996826 0
vn -0.095332920551300049 -0.010610716417431831 0.99538886547088623
vn -0.14991074800491333 0.032277386635541916 0.98817253112792969
vn -0.11221972107887268 0.9741443395614624 0.19608555734157562
vn 0.17167207598686218 0.94503533840179443 -0.27827492356300354
vn 0.13455033302307129 0.96091830730438232 -0.24193423986434937
vn -0.0335652194917202 -0.98481422662734985 0.17033584415912628
vn 0.73096460103988647 0.68238741159439087 0.0061733466573059559
vn 0.72077959775924683 0.69173794984817505 -0.044444896280765533
vn 0.69548463821411133 0.71756190061569214 0.037497460842132568
vn -0.99841052293777466 -0.0034656627103686333 -0.056253507733345032
vn -0.99492102861404419 0.01409442350268364 0.099666893482208252
vn -0.99560397863388062 -0.0031654615886509418 0.093609370291233063
vn 0 -1 0
vn -0.83756965398788452 -0.49693563580513 0.22700673341751099
vn 0.44944849610328674 -0.89312535524368286 -0.017975199967622757
vn 0.5962899923324585 -0.80032283067703247 0.062622383236885071
vn -0.17676527798175812 -0.97330373525619507 0.1464029848575592
vn 0.38532188534736633 -0.74640381336212158 -0.54259413480758667
vn -0.30238440632820129 -0.75326955318450928 -0.5840793251991272
vn 0.36062401533126831 -0.77350372076034546 -0.52119314670562744
vn -0.87430369853973389 0.36037120223045349 0.32515475153923035
vn -0.89814424514770508 0.1610802561044693 0.40913328528404236
vn -0.8338770866394043 0.46349388360977173 0.29970383644104004
vn -0.24721673130989075 -0.8071448802947998 0.5360979437828064
vn 0.15889693796634674 -0.77952420711517334 0.60588258504867554
vn 0.31418788433074951 -0.79199355840682983 0.52348083257675171
vn 0.51636368036270142 0.48319441080093384 0.70703017711639404
vn -0.12554082274436951 0.22171661257743835 0.96699601411819458
vn 0.38968166708946228 0.43359696865081787 0.81249111890792847
vn 0.83528530597686768 0.46609362959861755 -0.29164215922355652
vn -0.90263813734054565 -0.1954607367515564 -0.38345727324485779
vn -0.63769632577896118 -0.7666245698928833 0.075034469366073608
vn -0.86543923616409302 -0.48231062293052673 -0.13561488687992096
vn 0.0028428896330296993 -0.97412455081939697 -0.22599406540393829
vn 0.85059422254562378 -0.39727607369422913 0.34447231888771057
vn 1.666918691967112E-08 0.37584942579269409 -0.92668074369430542
vn 0 -0.35458183288574219 0.93502497673034668
vn 0 0.20616115629673004 0.97851806879043579
vn 0 0.20616115629673004 0.97851806879043579
vn 0 0.20616115629673004 0.97851806879043579
vn 0 0.67407494783401489 0.7386629581451416
vn 0 0.67407494783401489 0.7386629581451416
vn 0 0.67407494783401489 0.7386629581451416
vn 4.9339926588842786E-10 0.99380195140838623 0.11116535216569901
vn 3.1808988776305114E-10 -0.84899055957794189 -0.52840805053710938
vn 0.39355441927909851 0.90230011940002441 -0.17598135769367218
vn 0.99727600812911987 0.062002886086702347 0.039952866733074188
vn -0.98533987998962402 0.0070242071524262428 -0.17045806348323822
usemtl vc_191919__Default
f 1//1 2//2 3//3
f 4//4 5//5 6//6
f 7//7 8//8 9//9
f 10//10 11//11 12//12
f 11//11 10//10 13//13
f 7//7 9//9 14//14
f 7//7 14//14 15//15
f 3//3 16//16 1//1
f 17//17 18//18 19//19
f 17//17 20//20 18//18
f 21//21 22//22 23//23
f 24//24 21//21 23//23
f 25//25 24//24 23//23
f 26//26 25//25 23//23
f 27//27 26//26 23//23
f 28//28 29//29 25//25
f 30//30 31//31 25//25
f 28//28 25//25 31//31
f 32//32 28//28 31//31
f 32//32 31//31 33//33
f 34//34 32//32 33//33
f 34//34 33//33 35//35
f 35//35 36//36 37//37
f 38//38 39//39 40//40
f 38//38 41//41 39//39
f 42//42 43//43 44//44
f 42//42 45//45 43//43
f 46//46 47//47 48//48
f 49//49 50//50 51//51
f 52//52 53//53 54//54
f 57//57 412//412 55//55 56//56
f 60//60 421//421 58//58 59//59
f 61//61 62//62 63//63
f 64//64 65//65 66//66
f 67//67 68//68 69//69
f 70//70 421//421 60//60 64//64
f 71//71 72//72 73//73
f 74//74 75//75 76//76
f 74//74 77//77 75//75
f 78//78 79//79 80//80
f 81//81 82//82 72//72
f 81//81 72//72 71//71
f 83//83 84//84 85//85
f 86//86 87//87 88//88
f 89//89 90//90 91//91
f 92//92 93//93 94//94
f 97//97 107//107 95//95 96//96
f 43//43 45//45 98//98
f 98//98 45//45 100//100 99//99
f 48//48 101//101 102//102
f 48//48 103//103 101//101
f 104//104 87//87 105//105
f 78//78 106//106 48//48
f 74//74 71//71 77//77
f 107//107 97//97 85//85
f 108//108 109//109 110//110
f 111//111 112//112 20//20
f 113//113 114//114 115//115
f 116//116 117//117 90//90
f 91//91 118//118 119//119
f 120//120 121//121 122//122
f 123//123 124//124 125//125
f 126//126 124//124 123//123
f 127//127 128//128 129//129
f 118//118 130//130 131//131
f 132//132 133//133 127//127
f 134//134 130//130 96//96
f 135//135 136//136 137//137
f 138//138 139//139 140//140
f 141//141 105//105 86//86
f 117//117 142//142 143//143
f 144//144 145//145 146//146
f 147//147 148//148 149//149
f 150//150 151//151 152//152
f 153//153 154//154 155//155
f 156//156 157//157 158//158
f 159//159 160//160 161//161
f 162//162 163//163 164//164
f 165//165 166//166 167//167
f 168//168 169//169 170//170
f 171//171 172//172 173//173
f 174//174 175//175 176//176
f 177//177 178//178 179//179
f 180//180 181//181 182//182
f 183//183 184//184 185//185
f 186//186 187//187 188//188
f 189//189 147//147 149//149
f 190//190 191//191 192//192
f 193//193 194//194 195//195
f 196//196 193//193 195//195
f 197//197 198//198 199//199
f 200//200 201//201 202//202
f 203//203 204//204 205//205
f 206//206 207//207 208//208
f 209//209 210//210 211//211
f 212//212 213//213 214//214
f 215//215 216//216 217//217
f 218//218 219//219 220//220
f 221//221 222//222 218//218
f 223//223 224//224 225//225
f 159//159 226//226 227//227
f 228//228 159//159 227//227
f 229//229 230//230 231//231
f 232//232 233//233 234//234
f 235//235 236//236 237//237
f 238//238 237//237 239//239
f 235//235 237//237 240//240
f 241//241 242//242 243//243
f 244//244 245//245 246//246
f 247//247 244//244 246//246
f 248//248 249//249 246//246
f 250//250 251//251 252//252
f 228//228 227//227 253//253
f 254//254 180//180 255//255
f 256//256 254//254 255//255
f 257//257 258//258 259//259
f 260//260 261//261 262//262
f 263//263 264//264 265//265
f 266//266 267//267 235//235
f 268//268 266//266 235//235
f 269//269 268//268 235//235
f 100//100 422//422 270//270 266//266
f 266//266 271//271 100//100
f 241//241 272//272 242//242
f 273//273 126//126 274//274
f 275//275 276//276 187//187
f 277//277 278//278 279//279
f 280//280 281//281 282//282
f 283//283 284//284 285//285
f 286//286 287//287 288//288
f 289//289 290//290 291//291
f 292//292 293//293 294//294
f 295//295 296//296 297//297
f 298//298 299//299 300//300
f 301//301 302//302 303//303
f 304//304 254//254 256//256
f 305//305 306//306 307//307
f 308//308 272//272 241//241
f 309//309 310//310 311//311
f 312//312 313//313 314//314
f 315//315 316//316 317//317
f 318//318 319//319 320//320
f 321//321 322//322 323//323
f 324//324 325//325 326//326
f 327//327 328//328 329//329
f 330//330 331//331 332//332
f 333//333 334//334 335//335
f 336//336 337//337 338//338
f 339//339 340//340 341//341
f 342//342 343//343 344//344
f 272//272 308//308 345//345
f 71//71 346//346 347//347
f 345//345 348//348 349//349
f 81//81 71//71 347//347
f 74//74 76//76 350//350
f 74//74 351//351 346//346
f 74//74 346//346 71//71
f 352//352 81//81 353//353
f 352//352 353//353 354//354
f 355//355 348//348 345//345
f 356//356 357//357 352//352
f 358//358 359//359 76//76
f 23//23 360//360 361//361
f 362//362 363//363 364//364
f 91//91 119//119 89//89
f 243//243 242//242 141//141
f 365//365 366//366 367//367
f 347//347 348//348 355//355 368//368
f 71//71 73//73 77//77
f 17//17 369//369 370//370
f 84//84 371//371 85//85
f 372//372 373//373 109//109
f 374//374 375//375 376//376
f 377//377 197//197 378//378
f 379//379 380//380 381//381
f 382//382 273//273 274//274
f 383//383 384//384 385//385
f 388//388 424//424 386//386 387//387
f 5//5 389//389 6//6
f 16//16 40//40 1//1
f 91//91 130//130 118//118
f 172//172 390//390 173//173
f 125//125 391//391 392//392
f 243//243 141//141 86//86
f 273//273 382//382 393//393
f 394//394 395//395 396//396
f 87//87 86//86 105//105
f 397//397 398//398 399//399
f 400//400 401//401 402//402
f 403//403 404//404 405//405
f 339//339 341//341 406//406
f 74//74 350//350 351//351
f 53//53 407//407 54//54
f 20//20 408//408 18//18
f 79//79 84//84 80//80
f 123//123 125//125 118//118
f 22//22 21//21 409//409
f 64//64 66//66 70//70
f 410//410 130//130 91//91
f 130//130 410//410 96//96
f 343//343 411//411 344//344
f 34//34 35//35 52//52
f 62//62 413//413 63//63
f 414//414 415//415 416//416
f 417//417 418//418 419//419
f 67//67 69//69 420//420
f 272//272 345//345 349//349
f 352//352 423//423 81//81
