# Dual color encoding: per-vertex RGB for Rerun, face MTL colors for legacy RViz.
mtllib sim_gene01_l_hand_little_3.mtl
# Rhino

g sim_gene01_l_hand_little_3
v 12.248682676048073 13.305707362904542 -9.9435172467276391 0.0980392157 0.0980392157 0.0980392157
v 11.409413953964698 -4.383330695351864 -10.879047231835186 0.0980392157 0.0980392157 0.0980392157
v 6.0860221313214637 31.835843523219339 -11.097881143232859 0.0980392157 0.0980392157 0.0980392157
v 0.47721079593963656 34.750206147143174 -5.0966204889869218 0.0980392157 0.0980392157 0.0980392157
v 6.0860221313214637 31.835843523219339 -11.097881143232859 0.0980392157 0.0980392157 0.0980392157
v 0.55419573889106122 32.101926589606045 -10.309607577705837 0.0980392157 0.0980392157 0.0980392157
v 5.5934451084449774 35.147940993715977 -5.1116570721064356 0.0980392157 0.0980392157 0.0980392157
v 7.7167405046554469 -5.2793165529865593 -9.916191370780453 0.0980392157 0.0980392157 0.0980392157
v -1.1965665102209382 -5.7522770013752087 -12.745843036819396 0.0980392157 0.0980392157 0.0980392157
v 11.409413953964698 -4.383330695351864 -10.879047231835186 0.0980392157 0.0980392157 0.0980392157
v -1.1965665102209382 -5.7522770013752087 -12.745843036819396 0.0980392157 0.0980392157 0.0980392157
v -0.77634589482175864 -5.5787868117684418 -11.168450113738704 0.0980392157 0.0980392157 0.0980392157
v -3.2580924550937667 21.316989791869016 -9.5601676324819724 0.0980392157 0.0980392157 0.0980392157
v 0.55419573889106122 32.101926589606045 -10.309607577705837 0.0980392157 0.0980392157 0.0980392157
v -2.7047801117373034 31.862423760955043 -11.843218544091922 0.0980392157 0.0980392157 0.0980392157
v 2.105502718747482 23.613041637006074 -5.5712158294652072 0.0980392157 0.0980392157 0.0980392157
v 0.47721079593963656 34.750206147143174 -5.0966204889869218 0.0980392157 0.0980392157 0.0980392157
v 0.55419573889106122 32.101926589606045 -10.309607577705837 0.0980392157 0.0980392157 0.0980392157
v -3.2580924550937667 21.316989791869016 -9.5601676324819724 0.0980392157 0.0980392157 0.0980392157
v 2.105502718747482 23.613041637006074 -5.5712158294652072 0.0980392157 0.0980392157 0.0980392157
v 2.241706371307373 23.126934051513672 -10.459344863891602 0.0980392157 0.0980392157 0.0980392157
v 4.558362114232489 8.7597098584807007 -4.9349894842685833 0.0980392157 0.0980392157 0.0980392157
v 2.9133538358631155 15.570596588318551 -5.2484736478600897 0.0980392157 0.0980392157 0.0980392157
v 3.0732614317252902 17.586480547203159 -10.472611509614074 0.0980392157 0.0980392157 0.0980392157
v 6.4199395570887026 4.9970633645877935 -10.007064286074897 0.0980392157 0.0980392157 0.0980392157
v 3.0732614317252902 17.586480547203159 -10.472611509614074 0.0980392157 0.0980392157 0.0980392157
v -0.77634589482175864 -5.5787868117684418 -11.168450113738704 0.0980392157 0.0980392157 0.0980392157
v -4.542712281231525 13.449628155079173 -10.5537220881842 0.0980392157 0.0980392157 0.0980392157
v -3.5736184147185401 7.9609587317514272 -10.609100778179032 0.0980392157 0.0980392157 0.0980392157
v -4.542712281231525 13.449628155079173 -10.5537220881842 0.0980392157 0.0980392157 0.0980392157
v 3.0732614317252902 17.586480547203159 -10.472611509614074 0.0980392157 0.0980392157 0.0980392157
v 2.9133538358631155 15.570596588318551 -5.2484736478600897 0.0980392157 0.0980392157 0.0980392157
v 7.7167405046554469 -5.2793165529865593 -9.916191370780453 0.0980392157 0.0980392157 0.0980392157
v -12.64756528848374 31.567893916235629 -9.0411849703218277 0.0980392157 0.0980392157 0.0980392157
v 0.47721079593963656 34.750206147143174 -5.0966204889869218 0.0980392157 0.0980392157 0.0980392157
v -2.7047801117373034 31.862423760955043 -11.843218544091922 0.0980392157 0.0980392157 0.0980392157
v -12.676504529610959 1.126339392645832 -10.565160769006333 0.0980392157 0.0980392157 0.0980392157
v -12.64756528848374 31.567893916235629 -9.0411849703218277 0.0980392157 0.0980392157 0.0980392157
v -2.7047801117373034 31.862423760955043 -11.843218544091922 0.0980392157 0.0980392157 0.0980392157
v -4.542712281231525 13.449628155079173 -10.5537220881842 0.0980392157 0.0980392157 0.0980392157
v -4.5017955462994177 13.443759418155228 -5.2499983078811976 0.0980392157 0.0980392157 0.0980392157
v -4.2178086898914273 8.5094275391651095 -5.1175874761028251 0.0980392157 0.0980392157 0.0980392157
v -4.2178086898914273 8.5094275391651095 -5.1175874761028251 0.0980392157 0.0980392157 0.0980392157
v -10.256794177795664 5.8239365353736607 -9.5646571881930544 0.0980392157 0.0980392157 0.0980392157
v -3.5736184147185401 7.9609587317514272 -10.609100778179032 0.0980392157 0.0980392157 0.0980392157
v -3.5736184147185401 7.9609587317514272 -10.609100778179032 0.0980392157 0.0980392157 0.0980392157
v -10.256794177795664 5.8239365353736607 -9.5646571881930544 0.0980392157 0.0980392157 0.0980392157
v -11.283710136272708 -4.9560199434195766 -10.030341317610102 0.0980392157 0.0980392157 0.0980392157
v 6.9337869391753806 31.405625298254854 -4.8842164958698451 0.0980392157 0.0980392157 0.0980392157
v 13.353223386194029 32.191954120348683 -5.5140718888692257 0.0980392157 0.0980392157 0.0980392157
v 11.447265761240303 32.194030534003296 -9.1824834549870662 0.0980392157 0.0980392157 0.0980392157
v 12.248682676048073 13.305707362904542 -9.9435172467276391 0.0980392157 0.0980392157 0.0980392157
v 11.447265761240303 32.194030534003296 -9.1824834549870662 0.0980392157 0.0980392157 0.0980392157
v 13.353223386194029 32.191954120348683 -5.5140718888692257 0.0980392157 0.0980392157 0.0980392157
v 6.9337869391753806 31.405625298254854 -4.8842164958698451 0.0980392157 0.0980392157 0.0980392157
v 6.0860221313214637 31.835843523219339 -11.097881143232859 0.0980392157 0.0980392157 0.0980392157
v 13.659405696963098 16.822457774408846 1.0426507813163586 0.0980392157 0.0980392157 0.0980392157
v 11.520315616729754 12.788062618506338 5.0255589286185574 0.0980392157 0.0980392157 0.0980392157
v 12.248682676048073 13.305707362904542 -9.9435172467276391 0.0980392157 0.0980392157 0.0980392157
v 13.659405696963098 16.822457774408846 1.0426507813163586 0.0980392157 0.0980392157 0.0980392157
v 6.9337869391753806 31.405625298254854 -4.8842164958698451 0.0980392157 0.0980392157 0.0980392157
v 6.0860221313214637 31.835843523219339 -11.097881143232859 0.0980392157 0.0980392157 0.0980392157
v 5.5934451084449774 35.147940993715977 -5.1116570721064356 0.0980392157 0.0980392157 0.0980392157
v 11.644276606290139 -4.1460138219885483 -3.5105747730725478 0.0980392157 0.0980392157 0.0980392157
v 11.409413953964698 -4.383330695351864 -10.879047231835186 0.0980392157 0.0980392157 0.0980392157
v 12.126052314722303 2.1608822569530646 -5.3320320711629341 0.0980392157 0.0980392157 0.0980392157
v 7.7167405046554469 -5.2793165529865593 -9.916191370780453 0.0980392157 0.0980392157 0.0980392157
v 11.409413953964698 -4.383330695351864 -10.879047231835186 0.0980392157 0.0980392157 0.0980392157
v 11.644276606290139 -4.1460138219885483 -3.5105747730725478 0.0980392157 0.0980392157 0.0980392157
v -2.7047801117373034 31.862423760955043 -11.843218544091922 0.0980392157 0.0980392157 0.0980392157
v 0.47721079593963656 34.750206147143174 -5.0966204889869218 0.0980392157 0.0980392157 0.0980392157
v -3.413772976630113 26.431762103982578 -5.0680010429516038 0.0980392157 0.0980392157 0.0980392157
v -3.413772976630113 26.431762103982578 -5.0680010429516038 0.0980392157 0.0980392157 0.0980392157
v 0.47721079593963656 34.750206147143174 -5.0966204889869218 0.0980392157 0.0980392157 0.0980392157
v 2.105502718747482 23.613041637006074 -5.5712158294652072 0.0980392157 0.0980392157 0.0980392157
v 2.105502718747482 23.613041637006074 -5.5712158294652072 0.0980392157 0.0980392157 0.0980392157
v -3.2580924550937667 21.316989791869016 -9.5601676324819724 0.0980392157 0.0980392157 0.0980392157
v -3.413772976630113 26.431762103982578 -5.0680010429516038 0.0980392157 0.0980392157 0.0980392157
v -7.9010254647610161 39.265148103704945 -5.2017192853671386 0.0980392157 0.0980392157 0.0980392157
v 0.47721079593963656 34.750206147143174 -5.0966204889869218 0.0980392157 0.0980392157 0.0980392157
v -12.64756528848374 31.567893916235629 -9.0411849703218277 0.0980392157 0.0980392157 0.0980392157
v -8.3999996185302734 34.925445556640625 -4.682581901550293 0.0980392157 0.0980392157 0.0980392157
v -7.9010254647610161 39.265148103704945 -5.2017192853671386 0.0980392157 0.0980392157 0.0980392157
v -12.64756528848374 31.567893916235629 -9.0411849703218277 0.0980392157 0.0980392157 0.0980392157
v -14.091623378512468 32.11649536045914 -4.2182027302747533 0.0980392157 0.0980392157 0.0980392157
v -8.3999996185302734 34.925445556640625 -4.682581901550293 0.0980392157 0.0980392157 0.0980392157
v -12.64756528848374 31.567893916235629 -9.0411849703218277 0.0980392157 0.0980392157 0.0980392157
v 4.558362114232489 8.7597098584807007 -4.9349894842685833 0.0980392157 0.0980392157 0.0980392157
v -4.2178086898914273 8.5094275391651095 -5.1175874761028251 0.0980392157 0.0980392157 0.0980392157
v 2.9133538358631155 15.570596588318551 -5.2484736478600897 0.0980392157 0.0980392157 0.0980392157
v -8.8882187412104994 9.8007163144827736 -0.50118462899982175 0.0980392157 0.0980392157 0.0980392157
v -10.256794177795664 5.8239365353736607 -9.5646571881930544 0.0980392157 0.0980392157 0.0980392157
v -4.2178086898914273 8.5094275391651095 -5.1175874761028251 0.0980392157 0.0980392157 0.0980392157
v -8.018825840821691 -1.1432991970944428 -10.103781084211393 0.0980392157 0.0980392157 0.0980392157
v -11.283710136272708 -4.9560199434195766 -10.030341317610102 0.0980392157 0.0980392157 0.0980392157
v -8.018825840821691 -1.1432991970944428 -10.103781084211393 0.0980392157 0.0980392157 0.0980392157
v -11.737968353833233 -0.22239139764574212 -5.7781724325747961 0.0980392157 0.0980392157 0.0980392157
v -13.711542283438908 11.27204243981758 -6.5120653160982149 0.0980392157 0.0980392157 0.0980392157
v -14.091623378512468 32.11649536045914 -4.2182027302747533 0.0980392157 0.0980392157 0.0980392157
v -12.676504529610959 1.126339392645832 -10.565160769006333 0.0980392157 0.0980392157 0.0980392157
v -11.283710136272708 -4.9560199434195766 -10.030341317610102 0.0980392157 0.0980392157 0.0980392157
v -13.711542283438908 11.27204243981758 -6.5120653160982149 0.0980392157 0.0980392157 0.0980392157
v 9.3566059281753962 33.980890339976476 0.48631959343862896 0.0980392157 0.0980392157 0.0980392157
v 13.353223386194029 32.191954120348683 -5.5140718888692257 0.0980392157 0.0980392157 0.0980392157
v 6.9337869391753806 31.405625298254854 -4.8842164958698451 0.0980392157 0.0980392157 0.0980392157
v 13.451562665131153 27.415971832902208 4.0709884423662928 0.0980392157 0.0980392157 0.0980392157
v 9.3566059281753962 33.980890339976476 0.48631959343862896 0.0980392157 0.0980392157 0.0980392157
v 6.9337869391753806 31.405625298254854 -4.8842164958698451 0.0980392157 0.0980392157 0.0980392157
v 5.5934451084449774 35.147940993715977 -5.1116570721064356 0.0980392157 0.0980392157 0.0980392157
v 0.47721079593963656 34.750206147143174 -5.0966204889869218 0.0980392157 0.0980392157 0.0980392157
v -7.9010254647610161 39.265148103704945 -5.2017192853671386 0.0980392157 0.0980392157 0.0980392157
v 4.0256468999382617 41.522367287215317 -5.2856594791501905 0.0980392157 0.0980392157 0.0980392157
v 9.3566059281753962 33.980890339976476 0.48631959343862896 0.0980392157 0.0980392157 0.0980392157
v 5.5934451084449774 35.147940993715977 -5.1116570721064356 0.0980392157 0.0980392157 0.0980392157
v 4.0256468999382617 41.522367287215317 -5.2856594791501905 0.0980392157 0.0980392157 0.0980392157
v 11.644276606290139 -4.1460138219885483 -3.5105747730725478 0.0980392157 0.0980392157 0.0980392157
v 12.126052314722303 2.1608822569530646 -5.3320320711629341 0.0980392157 0.0980392157 0.0980392157
v 14.388271148631144 -0.66718468904837791 0.45304659637447831 0.0980392157 0.0980392157 0.0980392157
v 8.2962745822631145 -6.7737702433739493 1.7382085155345841 0.0980392157 0.0980392157 0.0980392157
v 7.7167405046554469 -5.2793165529865593 -9.916191370780453 0.0980392157 0.0980392157 0.0980392157
v 11.644276606290139 -4.1460138219885483 -3.5105747730725478 0.0980392157 0.0980392157 0.0980392157
v 8.2962745822631145 -6.7737702433739493 1.7382085155345841 0.0980392157 0.0980392157 0.0980392157
v 6.4199395570887026 4.9970633645877935 -10.007064286074897 0.0980392157 0.0980392157 0.0980392157
v 7.7167405046554469 -5.2793165529865593 -9.916191370780453 0.0980392157 0.0980392157 0.0980392157
v -12.030304919478745 34.337271495885624 0.44551809995363773 0.0980392157 0.0980392157 0.0980392157
v -7.9010254647610161 39.265148103704945 -5.2017192853671386 0.0980392157 0.0980392157 0.0980392157
v -8.3999996185302734 34.925445556640625 -4.682581901550293 0.0980392157 0.0980392157 0.0980392157
v -12.030304919478745 34.337271495885624 0.44551809995363773 0.0980392157 0.0980392157 0.0980392157
v -14.091623378512468 32.11649536045914 -4.2182027302747533 0.0980392157 0.0980392157 0.0980392157
v -13.758628231734754 11.596072365572297 5.2728321553756938 0.0980392157 0.0980392157 0.0980392157
v -14.143459567035013 27.738026089462036 3.7025862861576413 0.0980392157 0.0980392157 0.0980392157
v -11.283710136272708 -4.9560199434195766 -10.030341317610102 0.0980392157 0.0980392157 0.0980392157
v -11.737968353833233 -0.22239139764574212 -5.7781724325747961 0.0980392157 0.0980392157 0.0980392157
v -11.711045039889861 -5.5704044001361774 3.7765407045909898 0.0980392157 0.0980392157 0.0980392157
v 9.3566059281753962 33.980890339976476 0.48631959343862896 0.0980392157 0.0980392157 0.0980392157
v 13.451562665131153 27.415971832902208 4.0709884423662928 0.0980392157 0.0980392157 0.0980392157
v 13.353223386194029 32.191954120348683 -5.5140718888692257 0.0980392157 0.0980392157 0.0980392157
v 4.905666188470283 40.808966301091417 5.0732518482715889 0.0980392157 0.0980392157 0.0980392157
v 9.3566059281753962 33.980890339976476 0.48631959343862896 0.0980392157 0.0980392157 0.0980392157
v 4.0256468999382617 41.522367287215317 -5.2856594791501905 0.0980392157 0.0980392157 0.0980392157
v 4.7342467308044434 38 0.75718748569488525 0.0980392157 0.0980392157 0.0980392157
v 4.905666188470283 40.808966301091417 5.0732518482715889 0.0980392157 0.0980392157 0.0980392157
v 4.0256468999382617 41.522367287215317 -5.2856594791501905 0.0980392157 0.0980392157 0.0980392157
v 14.388271148631144 -0.66718468904837791 0.45304659637447831 0.0980392157 0.0980392157 0.0980392157
v 12.126052314722303 2.1608822569530646 -5.3320320711629341 0.0980392157 0.0980392157 0.0980392157
v 11.752628845075384 5.8497751319503273 4.1633118103118951 0.0980392157 0.0980392157 0.0980392157
v 8.3781123975015497 0.64052788105321634 6.1138206885124999 0.0980392157 0.0980392157 0.0980392157
v 5.9002435311176864 8.7000214350280718 4.8558155601636921 0.0980392157 0.0980392157 0.0980392157
v 4.0256468999382617 41.522367287215317 -5.2856594791501905 0.0980392157 0.0980392157 0.0980392157
v -8.011233749862738 41.868465256730914 -1.2485473269804876 0.0980392157 0.0980392157 0.0980392157
v 0.27661427974612718 41.544238429817788 4.1973269576235168 0.0980392157 0.0980392157 0.0980392157
v -14.143459567035013 27.738026089462036 3.7025862861576413 0.0980392157 0.0980392157 0.0980392157
v -8.8882187412104994 9.8007163144827736 -0.50118462899982175 0.0980392157 0.0980392157 0.0980392157
v -11.154953851563089 7.882948977494685 5.2460906012371638 0.0980392157 0.0980392157 0.0980392157
v -10.256794177795664 5.8239365353736607 -9.5646571881930544 0.0980392157 0.0980392157 0.0980392157
v -11.154953851563089 7.882948977494685 5.2460906012371638 0.0980392157 0.0980392157 0.0980392157
v -13.703948380420508 -2.3985316084240589 5.332954091684579 0.0980392157 0.0980392157 0.0980392157
v -11.711045039889861 -5.5704044001361774 3.7765407045909898 0.0980392157 0.0980392157 0.0980392157
v -14.310690338670881 -4.5575292299410997 -2.2675280927268671 0.0980392157 0.0980392157 0.0980392157
v -11.283710136272708 -4.9560199434195766 -10.030341317610102 0.0980392157 0.0980392157 0.0980392157
v -13.758628231734754 11.596072365572297 5.2728321553756938 0.0980392157 0.0980392157 0.0980392157
v -13.711542283438908 11.27204243981758 -6.5120653160982149 0.0980392157 0.0980392157 0.0980392157
v -14.310690338670881 -4.5575292299410997 -2.2675280927268671 0.0980392157 0.0980392157 0.0980392157
v 0.27661427974612718 41.544238429817788 4.1973269576235168 0.0980392157 0.0980392157 0.0980392157
v 4.7342467308044434 38 0.75718748569488525 0.0980392157 0.0980392157 0.0980392157
v 4.0256468999382617 41.522367287215317 -5.2856594791501905 0.0980392157 0.0980392157 0.0980392157
v 0.27661427974612718 41.544238429817788 4.1973269576235168 0.0980392157 0.0980392157 0.0980392157
v 4.905666188470283 40.808966301091417 5.0732518482715889 0.0980392157 0.0980392157 0.0980392157
v 4.7342467308044434 38 0.75718748569488525 0.0980392157 0.0980392157 0.0980392157
v 11.896870012684539 -3.4428820066910841 4.2377116531680139 0.0980392157 0.0980392157 0.0980392157
v 14.388271148631144 -0.66718468904837791 0.45304659637447831 0.0980392157 0.0980392157 0.0980392157
v 11.752628845075384 5.8497751319503273 4.1633118103118951 0.0980392157 0.0980392157 0.0980392157
v 11.896870012684539 -3.4428820066910841 4.2377116531680139 0.0980392157 0.0980392157 0.0980392157
v 11.644276606290139 -4.1460138219885483 -3.5105747730725478 0.0980392157 0.0980392157 0.0980392157
v 14.388271148631144 -0.66718468904837791 0.45304659637447831 0.0980392157 0.0980392157 0.0980392157
v -7.7860910883966943 39.879816731255282 5.2047467093179085 0.0980392157 0.0980392157 0.0980392157
v -8.011233749862738 41.868465256730914 -1.2485473269804876 0.0980392157 0.0980392157 0.0980392157
v -7.9010254647610161 39.265148103704945 -5.2017192853671386 0.0980392157 0.0980392157 0.0980392157
v -12.030304919478745 34.337271495885624 0.44551809995363773 0.0980392157 0.0980392157 0.0980392157
v -7.7860910883966943 39.879816731255282 5.2047467093179085 0.0980392157 0.0980392157 0.0980392157
v -7.9010254647610161 39.265148103704945 -5.2017192853671386 0.0980392157 0.0980392157 0.0980392157
v -13.703948380420508 -2.3985316084240589 5.332954091684579 0.0980392157 0.0980392157 0.0980392157
v 6.5576262508072514 26.100302111744305 5.2502888555665601 0.0980392157 0.0980392157 0.0980392157
v 13.451562665131153 27.415971832902208 4.0709884423662928 0.0980392157 0.0980392157 0.0980392157
v 9.3566059281753962 33.980890339976476 0.48631959343862896 0.0980392157 0.0980392157 0.0980392157
v 6.5576262508072514 26.100302111744305 5.2502888555665601 0.0980392157 0.0980392157 0.0980392157
v 9.3566059281753962 33.980890339976476 0.48631959343862896 0.0980392157 0.0980392157 0.0980392157
v 4.905666188470283 40.808966301091417 5.0732518482715889 0.0980392157 0.0980392157 0.0980392157
v 11.031887223317547 13.918222933866424 7.7415609245858423 0.0980392157 0.0980392157 0.0980392157
v 11.031887223317547 13.918222933866424 7.7415609245858423 0.0980392157 0.0980392157 0.0980392157
v 11.520315616729754 12.788062618506338 5.0255589286185574 0.0980392157 0.0980392157 0.0980392157
v -7.7860910883966943 39.879816731255282 5.2047467093179085 0.0980392157 0.0980392157 0.0980392157
v -12.030304919478745 34.337271495885624 0.44551809995363773 0.0980392157 0.0980392157 0.0980392157
v -8.3898326391408968 25.083854717144192 5.3658422972948854 0.0980392157 0.0980392157 0.0980392157
v -8.3898326391408968 25.083854717144192 5.3658422972948854 0.0980392157 0.0980392157 0.0980392157
v -12.030304919478745 34.337271495885624 0.44551809995363773 0.0980392157 0.0980392157 0.0980392157
v -14.143459567035013 27.738026089462036 3.7025862861576413 0.0980392157 0.0980392157 0.0980392157
v 13.451562665131153 27.415971832902208 4.0709884423662928 0.0980392157 0.0980392157 0.0980392157
v 6.5576262508072514 26.100302111744305 5.2502888555665601 0.0980392157 0.0980392157 0.0980392157
v 8.2412057663796645 23.007023427057121 8.2881487932765481 0.0980392157 0.0980392157 0.0980392157
v 8.2412057663796645 23.007023427057121 8.2881487932765481 0.0980392157 0.0980392157 0.0980392157
v 6.5576262508072514 26.100302111744305 5.2502888555665601 0.0980392157 0.0980392157 0.0980392157
v -8.3898326391408968 25.083854717144192 5.3658422972948854 0.0980392157 0.0980392157 0.0980392157
v -10.069670941093165 23.063776667507256 7.8980646781590407 0.0980392157 0.0980392157 0.0980392157
v -10.069670941093165 23.063776667507256 7.8980646781590407 0.0980392157 0.0980392157 0.0980392157
v -8.3898326391408968 25.083854717144192 5.3658422972948854 0.0980392157 0.0980392157 0.0980392157
v -14.143459567035013 27.738026089462036 3.7025862861576413 0.0980392157 0.0980392157 0.0980392157
v 4.905666188470283 40.808966301091417 5.0732518482715889 0.0980392157 0.0980392157 0.0980392157
v 0.27661427974612718 41.544238429817788 4.1973269576235168 0.0980392157 0.0980392157 0.0980392157
v -7.7860910883966943 39.879816731255282 5.2047467093179085 0.0980392157 0.0980392157 0.0980392157
v 8.3781123975015497 0.64052788105321634 6.1138206885124999 0.0980392157 0.0980392157 0.0980392157
v 11.752628845075384 5.8497751319503273 4.1633118103118951 0.0980392157 0.0980392157 0.0980392157
v 11.520315616729754 12.788062618506338 5.0255589286185574 0.0980392157 0.0980392157 0.0980392157
v 11.896870012684539 -3.4428820066910841 4.2377116531680139 0.0980392157 0.0980392157 0.0980392157
v 8.3781123975015497 0.64052788105321634 6.1138206885124999 0.0980392157 0.0980392157 0.0980392157
v 5.9002435311176864 8.7000214350280718 4.8558155601636921 0.0980392157 0.0980392157 0.0980392157
v -13.758628231734754 11.596072365572297 5.2728321553756938 0.0980392157 0.0980392157 0.0980392157
v -11.154953851563089 7.882948977494685 5.2460906012371638 0.0980392157 0.0980392157 0.0980392157
v -13.703948380420508 -2.3985316084240589 5.332954091684579 0.0980392157 0.0980392157 0.0980392157
v -13.758628231734754 11.596072365572297 5.2728321553756938 0.0980392157 0.0980392157 0.0980392157
v -5.6170405752744585 13.920791812758718 8.6544081097135575 0.0980392157 0.0980392157 0.0980392157
v -13.758628231734754 11.596072365572297 5.2728321553756938 0.0980392157 0.0980392157 0.0980392157
v 11.031887223317547 13.918222933866424 7.7415609245858423 0.0980392157 0.0980392157 0.0980392157
v 11.520315616729754 12.788062618506338 5.0255589286185574 0.0980392157 0.0980392157 0.0980392157
v -10.069670941093165 23.063776667507256 7.8980646781590407 0.0980392157 0.0980392157 0.0980392157
v -14.143459567035013 27.738026089462036 3.7025862861576413 0.0980392157 0.0980392157 0.0980392157
v -5.6170405752744585 13.920791812758718 8.6544081097135575 0.0980392157 0.0980392157 0.0980392157
v -13.758628231734754 11.596072365572297 5.2728321553756938 0.0980392157 0.0980392157 0.0980392157
v 12.248682676048073 13.305707362904542 -9.9435172467276391 0.0980392157 0.0980392157 0.0980392157
v 12.126052314722303 2.1608822569530646 -5.3320320711629341 0.0980392157 0.0980392157 0.0980392157
v 2.241706371307373 23.126934051513672 -10.459344863891602 0.0980392157 0.0980392157 0.0980392157
v 0.55419573889106122 32.101926589606045 -10.309607577705837 0.0980392157 0.0980392157 0.0980392157
v 6.0860221313214637 31.835843523219339 -11.097881143232859 0.0980392157 0.0980392157 0.0980392157
v -11.283710136272708 -4.9560199434195766 -10.030341317610102 0.0980392157 0.0980392157 0.0980392157
v -14.310690338670881 -4.5575292299410997 -2.2675280927268671 0.0980392157 0.0980392157 0.0980392157
v 11.520315616729754 12.788062618506338 5.0255589286185574 0.0980392157 0.0980392157 0.0980392157
v 4.0256468999382617 41.522367287215317 -5.2856594791501905 0.0980392157 0.0980392157 0.0980392157
v -7.9010254647610161 39.265148103704945 -5.2017192853671386 0.0980392157 0.0980392157 0.0980392157
v 4.558362114232489 8.7597098584807007 -4.9349894842685833 0.0980392157 0.0980392157 0.0980392157
v 11.896870012684539 -3.4428820066910841 4.2377116531680139 0.0980392157 0.0980392157 0.0980392157
v 11.896870012684539 -3.4428820066910841 4.2377116531680139 0.0980392157 0.0980392157 0.0980392157
v 8.3781123975015497 0.64052788105321634 6.1138206885124999 0.0980392157 0.0980392157 0.0980392157
v 2.241706371307373 23.126934051513672 -10.459344863891602 0.0980392157 0.0980392157 0.0980392157
v -11.737968353833233 -0.22239139764574212 -5.7781724325747961 0.0980392157 0.0980392157 0.0980392157
v -8.018825840821691 -1.1432991970944428 -10.103781084211393 0.0980392157 0.0980392157 0.0980392157
v -10.256794177795664 5.8239365353736607 -9.5646571881930544 0.0980392157 0.0980392157 0.0980392157
v 5.9002435311176864 8.7000214350280718 4.8558155601636921 0.0980392157 0.0980392157 0.0980392157
v -11.154953851563089 7.882948977494685 5.2460906012371638 0.0980392157 0.0980392157 0.0980392157
v -8.3898326391408968 25.083854717144192 5.3658422972948854 0.0980392157 0.0980392157 0.0980392157
v 6.5576262508072514 26.100302111744305 5.2502888555665601 0.0980392157 0.0980392157 0.0980392157
v 8.2412057663796645 23.007023427057121 8.2881487932765481 0.0980392157 0.0980392157 0.0980392157
v -11.283710136272708 -4.9560199434195766 -10.030341317610102 0.0980392157 0.0980392157 0.0980392157
v 6.4199395570887026 4.9970633645877935 -10.007064286074897 0.0980392157 0.0980392157 0.0980392157
v 5.9002435311176864 8.7000214350280718 4.8558155601636921 0.0980392157 0.0980392157 0.0980392157
v -3.413772976630113 26.431762103982578 -5.0680010429516038 0.0980392157 0.0980392157 0.0980392157
v -3.2580924550937667 21.316989791869016 -9.5601676324819724 0.0980392157 0.0980392157 0.0980392157
v -2.7047801117373034 31.862423760955043 -11.843218544091922 0.0980392157 0.0980392157 0.0980392157
v -4.5017955462994177 13.443759418155228 -5.2499983078811976 0.0980392157 0.0980392157 0.0980392157
v -10.256794177795664 5.8239365353736607 -9.5646571881930544 0.0980392157 0.0980392157 0.0980392157
v -13.703948380420508 -2.3985316084240589 5.332954091684579 0.0980392157 0.0980392157 0.0980392157
v 11.520315616729754 12.788062618506338 5.0255589286185574 0.0980392157 0.0980392157 0.0980392157
v -3.5736184147185401 7.9609587317514272 -10.609100778179032 0.0980392157 0.0980392157 0.0980392157
v 6.4199395570887026 4.9970633645877935 -10.007064286074897 0.0980392157 0.0980392157 0.0980392157
v -4.5017955462994177 13.443759418155228 -5.2499983078811976 0.0980392157 0.0980392157 0.0980392157
v 5.5934451084449774 35.147940993715977 -5.1116570721064356 0.0980392157 0.0980392157 0.0980392157
vn 0.43004119396209717 0.053293526172637939 -0.90123492479324341
vn 0.20974071323871613 0.043914489448070526 -0.97677034139633179
vn 0.2637576162815094 0.02850443497300148 -0.96416771411895752
vn -0.047875098884105682 0.90642279386520386 -0.41964945197105408
vn -0.080342486500740051 0.87807470560073853 -0.47173073887825012
vn 0.0070437905378639698 0.91858911514282227 -0.39515110850334167
vn -0.15081985294818878 0.85538780689239502 -0.49554517865180969
vn 0.066354580223560333 -0.99778223037719727 -0.0052574523724615574
vn -0.0099229076877236366 -0.99835038185119629 -0.056550893932580948
vn 0.1228853240609169 -0.99216967821121216 0.022327328100800514
vn -0.024922125041484833 0.017460431903600693 -0.99953693151473999
vn 0.0035320254974067211 -0.99922692775726318 -0.039154499769210815
vn 0.096183344721794128 -0.0084458570927381516 0.99532783031463623
vn 0.0048088813200592995 -0.021020332351326942 0.9997674822807312
vn 0.034019608050584793 -0.044816862791776657 0.99841582775115967
vn -0.98459488153457642 -0.17475633323192596 -0.0057599726133048534
vn -0.98473167419433594 -0.17406205832958221 -0.0024339021183550358
vn -0.98481762409210205 -0.17355896532535553 -0.0033975802361965179
vn -0.072536632418632507 0.9655647873878479 0.24984605610370636
vn -0.40455037355422974 0.91450464725494385 0.0044959383085370064
vn -0.2971159815788269 0.94596999883651733 0.12985704839229584
vn -0.96079754829406738 -0.27714931964874268 -0.007509003859013319
vn -0.98036724328994751 -0.19699893891811371 -0.0084574194625020027
vn -0.98469769954681396 -0.17405575513839722 -0.0086632957682013512
vn -0.20697647333145142 0.013288292102515697 0.97825568914413452
vn -0.040108382701873779 -0.056932929903268814 0.99757200479507446
vn 0.006283988244831562 -0.026698276400566101 0.99962377548217773
vn 0.12058308720588684 -0.001018769689835608 0.99270272254943848
vn 0.078854076564311981 -0.011631261557340622 0.99681830406188965
vn 0.17366369068622589 -0.98480170965194702 -0.0025485439691692591
vn 0.17019428312778473 -0.98541051149368286 -8.4384118963498622E-05
vn 0.17132046818733215 -0.98521518707275391 0.0006080314633436501
vn -0.17057126760482788 -0.040770310908555984 0.98450154066085815
vn -0.0012260380899533629 0.99953222274780273 0.030559198930859566
vn -0.049300115555524826 0.96224546432495117 -0.26768100261688232
vn 0.0080161774531006813 0.99916172027587891 0.040144097059965134
vn -0.32853376865386963 0.032688021659851074 -0.94392639398574829
vn -0.66120725870132446 0.073866255581378937 -0.74655789136886597
vn -0.079989418387413025 0.028535908088088036 -0.99638718366622925
vn 0.98435676097869873 0.17600648105144501 -0.0079663880169391632
vn 0.98470956087112427 0.17408604919910431 -0.0064152311533689499
vn 0.98324662446975708 0.18183544278144836 -0.012725082226097584
vn 0.030050050467252731 -0.99760746955871582 0.06226041167974472
vn 0.32105997204780579 -0.92498195171356201 0.20329521596431732
vn 0.098811119794845581 -0.9904589056968689 0.096059821546077728
vn 0.11595427244901657 -0.018692027777433395 0.99307864904403687
vn 0.25426977872848511 -0.027655329555273056 0.96673786640167236
vn -0.15940335392951965 -0.98668003082275391 0.032452087849378586
vn -0.22274959087371826 0.955219566822052 0.19477739930152893
vn -0.1016731783747673 0.99477660655975342 0.0090581336989998817
vn -0.022157097235321999 0.99763506650924683 0.065064139664173126
vn 0.9237789511680603 0.140353724360466 -0.35627701878547668
vn 0.52811217308044434 0.062955252826213837 -0.84683775901794434
vn 0.98230743408203125 -0.016030548140406609 -0.18658822774887085
vn 0.0061440384015440941 0.99969065189361572 -0.024100659415125847
vn -0.0023756814189255238 0.99994826316833496 0.009888489730656147
vn 0.99292439222335815 -0.079386405646800995 0.08831198513507843
vn 0.67529797554016113 -0.72469049692153931 0.13709980249404907
vn 0.76224875450134277 -0.59217637777328491 0.26135027408599854
vn 0.67019307613372803 -0.73058915138244629 0.13069315254688263
vn 0.99667233228683472 0.016752889379858971 0.079771846532821655
vn 0.96451270580291748 0.053500395268201828 0.25855934619903564
vn 0.99706202745437622 0.014759687706828117 0.075162850320339203
vn 0.97420758008956909 -0.1999889463186264 -0.10451811552047729
vn 0.93985861539840698 -0.293690025806427 0.1743902713060379
vn 0.99267935752868652 0.098912179470062256 -0.069311395287513733
vn 0.7180144190788269 -0.68830430507659912 0.10340471565723419
vn 0.58054929971694946 -0.81004226207733154 0.082425877451896667
vn 0.4085889458656311 -0.91262167692184448 -0.013296188786625862
vn 0.78174811601638794 -0.52810126543045044 -0.33163076639175415
vn 0.78174811601638794 -0.52810126543045044 -0.33163076639175415
vn 0.78174811601638794 -0.52810126543045044 -0.33163076639175415
vn 0 0 -1
vn 0 0 -1
vn 0 0 -1
vn -0.042413268238306046 0.48674026131629944 -0.87251651287078857
vn -0.038287367671728134 0.52260339260101318 -0.85171574354171753
vn -0.10777216404676437 0.54280096292495728 -0.83291792869567871
vn 0.64484792947769165 -0.001024413388222456 -0.76431024074554443
vn 0.64484792947769165 -0.001024413388222456 -0.76431024074554443
vn 0.64484792947769165 -0.001024413388222456 -0.76431024074554443
vn -0.77330869436264038 0.13207902014255524 0.62011998891830444
vn -0.72493666410446167 0.076436430215835571 0.68456137180328369
vn -0.72024917602539062 0.07139994204044342 0.69003129005432129
vn -0.43031838536262512 0.83360815048217773 -0.34629976749420166
vn -0.43542790412902832 0.84200543165206909 -0.31847977638244629
vn -0.42818558216094971 0.83007246255874634 -0.3572629988193512
vn 0 0 -1
vn 0 0 -1
vn 0 0 -1
vn 0.0053082136437296867 -0.99256247282028198 0.12162052839994431
vn -0.00055339693790301681 -0.97672480344772339 0.21449552476406097
vn 0.0045944387093186378 -0.86943680047988892 0.49402275681495667
vn 0.17757347226142883 -0.033103346824645996 0.98355060815811157
vn 0.68605762720108032 -0.41096067428588867 0.60036343336105347
vn 0.68605762720108032 -0.41096067428588867 0.60036343336105347
vn 0.68605762720108032 -0.41096067428588867 0.60036343336105347
vn -0.99228435754776001 -0.072468161582946777 -0.10059861838817596
vn -0.99712038040161133 -0.0030105654150247574 -0.075775355100631714
vn -0.91306078433990479 -0.010298806242644787 -0.40769350528717041
vn -0.94509124755859375 0.022699160501360893 -0.32601723074913025
vn -0.98053658008575439 -0.023639274761080742 -0.19490814208984375
vn -0.22917461395263672 0.83534866571426392 -0.49967151880264282
vn -0.22917461395263672 0.83534866571426392 -0.49967151880264282
vn -0.22917461395263672 0.83534866571426392 -0.49967151880264282
vn 0.97306770086288452 0.01570463739335537 0.22998404502868652
vn 0.81797260046005249 0.38716971874237061 -0.425464928150177
vn 0.81797260046005249 0.38716971874237061 -0.425464928150177
vn 0.81797260046005249 0.38716971874237061 -0.425464928150177
vn 0 0 -1
vn 0 0 -1
vn 0 0 -1
vn 0.77960711717605591 0.044501021504402161 -0.62468582391738892
vn 0.75598001480102539 0.033229455351829529 -0.6537507176399231
vn 0.75004565715789795 -0.0025257938541471958 -0.66138124465942383
vn 0.85613828897476196 -0.13811077177524567 -0.49794840812683105
vn 0.76926779747009277 -0.079592786729335785 -0.63394951820373535
vn 0.97555136680603027 -0.10183028131723404 -0.19475659728050232
vn 0.32150724530220032 -0.93752849102020264 0.13294146955013275
vn -0.2845228910446167 -0.61177945137023926 -0.73808711767196655
vn 0.42649984359741211 -0.82469213008880615 -0.37145763635635376
vn -0.98969477415084839 -0.14014068245887756 0.029409147799015045
vn -0.97890698909759521 -0.10312879085540771 -0.17636755108833313
vn -0.95851057767868042 0.0014153040247038007 -0.28505352139472961
vn -0.73982471227645874 -2.7817673981189728E-05 -0.67279970645904541
vn -0.73982471227645874 -2.7817673981189728E-05 -0.67279970645904541
vn -0.73982471227645874 -2.7817673981189728E-05 -0.67279970645904541
vn -0.74648022651672363 0.65404731035232544 0.12243108451366425
vn -0.60889345407485962 0.78889685869216919 -0.083009310066699982
vn -0.95669054985046387 -0.053061634302139282 0.28623002767562866
vn -0.99511164426803589 -0.012341675348579884 0.097982190549373627
vn 0.97627425193786621 0.10260532796382904 0.19068494439125061
vn 0.99978160858154297 0.0065270592458546162 0.019854007288813591
vn 0.99999243021011353 0.0029315482825040817 0.0025482163764536381
vn 0.09520837664604187 0.96720260381698608 0.23548778891563416
vn -0.091575540602207184 0.5765150785446167 0.8119385838508606
vn 0.0057901041582226753 0.99970495700836182 0.023588519543409348
vn 0.86326456069946289 0.50475168228149414 9.6983039838960394E-06
vn 0.86326456069946289 0.50475168228149414 9.6983039838960394E-06
vn 0.86326456069946289 0.50475168228149414 9.6983039838960394E-06
vn -0.94607692956924438 0.32394206523895264 4.483119846554473E-05
vn -0.94607692956924438 0.32394206523895264 4.483119846554473E-05
vn -0.94607692956924438 0.32394206523895264 4.483119846554473E-05
vn 0.92749011516571045 0.33474260568618774 0.1664615273475647
vn 0.98982828855514526 0.14185632765293121 -0.01080691535025835
vn 0.994437575340271 0.087707534432411194 0.058320432901382446
vn -0.98549169301986694 0.038064770400524139 0.16540023684501648
vn -0.9251176118850708 -0.37824699282646179 0.032964549958705902
vn 0.052964374423027039 0.99758076667785645 0.045026298612356186
vn -0.088189557194709778 0.96887052059173584 -0.23132774233818054
vn 0.018075892701745033 0.91151952743530273 0.41085928678512573
vn -0.80457878112792969 0.33227729797363281 0.49218371510505676
vn 0.73560833930969238 -0.67728060483932495 -0.013088156469166279
vn 0.7027321457862854 -0.6971622109413147 -0.14188861846923828
vn 0.71823376417160034 -0.68499797582626343 0.12213946878910065
vn 0.99981075525283813 -0.012521844357252121 -0.01488862931728363
vn 0.99999845027923584 0.0012761218240484595 0.00121290422976017
vn -0.14087319374084473 -0.81022727489471436 0.56893450021743774
vn -0.63135993480682373 -0.73686420917510986 -0.24169351160526276
vn -0.39729288220405579 -0.48266828060150146 -0.78050607442855835
vn -0.99987113475799561 0.0044043697416782379 0.015435807406902313
vn -0.99502813816070557 0.092157445847988129 0.03776228055357933
vn -0.99882417917251587 -0.013708172366023064 -0.046500857919454575
vn 0.53964942693710327 0.83697372674942017 -0.090848885476589203
vn 0.53964942693710327 0.83697372674942017 -0.090848885476589203
vn 0.53964942693710327 0.83697372674942017 -0.090848885476589203
vn -0.13125693798065186 0.74439311027526855 -0.65471404790878296
vn -0.13125693798065186 0.74439311027526855 -0.65471404790878296
vn -0.13125693798065186 0.74439311027526855 -0.65471404790878296
vn 0.80926400423049927 0.14045847952365875 0.57040619850158691
vn 0.83583658933639526 0.2082245945930481 0.50795644521713257
vn 0.91975194215774536 -0.0046267574653029442 0.39247292280197144
vn 0.62776768207550049 -0.77238720655441284 0.096569627523422241
vn 0.69589507579803467 -0.71437126398086548 -0.073509931564331055
vn 0.61704015731811523 -0.78683948516845703 -0.012045824900269508
vn -0.70471054315567017 0.61175459623336792 0.35935965180397034
vn -0.86157631874084473 0.50646960735321045 -0.03427572175860405
vn -0.97050368785858154 0.19332784414291382 -0.144038125872612
vn -0.7210310697555542 0.68948596715927124 0.068725869059562683
vn -0.73951953649520874 0.66098171472549438 0.1273343414068222
vn -0.52243739366531372 0.7935364842414856 -0.31202411651611328
vn -0.47445264458656311 -0.49521940946578979 0.72777223587036133
vn 0.12123961746692657 0.36978986859321594 0.92117124795913696
vn 0.15529979765415192 0.37606853246688843 0.91348475217819214
vn 0.46442696452140808 0.17861939966678619 0.86741149425506592
vn 0.52029317617416382 -0.40941014885902405 0.74945199489593506
vn 0.76509624719619751 0.34905648231506348 0.54109823703765869
vn 0.79624557495117188 0.49741441011428833 0.34434264898300171
vn 0.44016149640083313 0.020170321688055992 0.89769202470779419
vn 0.93160378932952881 -0.30268514156341553 0.20123633742332458
vn 0.93584084510803223 -0.33637183904647827 0.1051471084356308
vn -0.83452075719833374 -0.060903895646333694 0.54760009050369263
vn -0.59537100791931152 0.31880524754524231 0.73749345541000366
vn -0.7336275577545166 0.21830736100673676 0.64353126287460327
vn -0.10384635627269745 0.29561197757720947 0.94964700937271118
vn -0.44449302554130554 0.42687264084815979 0.78753137588500977
vn -0.40061458945274353 0.41245859861373901 0.81816005706787109
vn -0.048653185367584229 0.69104725122451782 0.72117024660110474
vn 0.1788286566734314 0.56122356653213501 0.80811411142349243
vn 0.17062298953533173 0.48797768354415894 0.85601729154586792
vn 0.028130900114774704 0.52125829458236694 0.85293519496917725
vn 0.017411146312952042 0.61379015445709229 0.78927719593048096
vn -0.15563070774078369 0.92493182420730591 0.34681439399719238
vn -0.070228844881057739 0.93318122625350952 0.35247799754142761
vn -0.0455479696393013 0.59285801649093628 0.80401790142059326
vn -0.067577987909317017 0.61666136980056763 0.78432261943817139
vn -0.21006341278553009 0.75028055906295776 0.62685918807983398
vn -9.1852052719332278E-05 0.014068424701690674 0.99990105628967285
vn -0.013565722852945328 0.49727299809455872 0.86748808622360229
vn -0.012372643686830997 0.027667483314871788 0.99954062700271606
vn 0.091407164931297302 0.16917657852172852 0.98133784532546997
vn 0.48005858063697815 0.097175531089305878 0.8718375563621521
vn 0.2198350727558136 -0.047558300197124481 0.9743770956993103
vn 0.69977456331253052 0.12785127758979797 0.70282971858978271
vn -0.068652555346488953 0.083318814635276794 0.99415534734725952
vn 0.041021555662155151 -0.0077131339348852634 0.99912846088409424
vn -0.065451204776763916 0.014488623477518559 0.99775058031082153
vn -0.10172272473573685 0.035526182502508163 0.99417823553085327
vn -0.60759425163269043 0.19925318658351898 0.76884812116622925
vn -0.41865438222885132 -0.018821069970726967 0.90795058012008667
vn 0.055326342582702637 -0.73516654968261719 0.67562496662139893
vn 0.023631192743778229 -0.53527355194091797 0.84434813261032104
vn 0.15379126369953156 -0.95137119293212891 0.26691034436225891
vn 0.21208393573760986 -0.93488812446594238 0.28461301326751709
vn -0.23221911489963531 0.023930078372359276 0.97236907482147217
vn -0.86774224042892456 0.0031766032334417105 0.49700430035591125
vn -0.060610149055719376 0.032040640711784363 0.99764710664749146
vn -0.52356839179992676 0.073468305170536041 0.84881007671356201
vn 0.95088434219360352 -0.041138768196105957 0.30680060386657715
vn 0.92633074522018433 0.26118305325508118 0.27146774530410767
vn -0.98410159349441528 -0.17746204137802124 -0.0071569019928574562
vn -0.003879358759149909 0.99887442588806152 0.047273773699998856
vn -0.012686111032962799 0.99909007549285889 0.040719084441661835
vn 0.22596004605293274 -0.041720513254404068 0.97324275970458984
vn -0.91547620296478271 -0.025007514283061028 -0.40159425139427185
vn 0.98071694374084473 -0.017070474103093147 -0.19468645751476288
vn -0.055785376578569412 0.81189721822738647 -0.58112895488739014
vn 0.033888004720211029 0.80412948131561279 -0.59348750114440918
vn -0.16092577576637268 -0.9191441535949707 0.35955098271369934
vn 0.46242326498031616 -0.8854249119758606 0.046770565211772919
vn 0.4431915283203125 -0.56420069932937622 0.69660526514053345
vn 0.34367907047271729 0.034512583166360855 0.93845278024673462
vn -0.052150983363389969 -0.022131914272904396 0.9983939528465271
vn 0.7481573224067688 0.056374214589595795 0.66112220287322998
vn 0.73248720169067383 0.080218076705932617 0.67603808641433716
vn 0.75644838809967041 0.067166291177272797 0.65059554576873779
vn -0.15660874545574188 -0.84836393594741821 -0.50571960210800171
vn 0.018350578844547272 -0.8985980749130249 -0.43838879466056824
vn 0.012335898354649544 -0.0058368784375488758 0.99990689754486084
vn 0.0034527932293713093 0.0053555085323750973 0.99997967481613159
vn 0.15457424521446228 0.004121104720979929 0.98797255754470825
vn -0.21085444092750549 0.042341470718383789 -0.9766000509262085
vn -0.15754082798957825 -0.92819708585739136 0.33709210157394409
vn -0.60038697719573975 -0.66041409969329834 0.45098641514778137
vn 0.99029266834259033 0.13886018097400665 -0.0061840168200433254
vn 0.99850821495056152 -0.02886686846613884 -0.046347443014383316
vn 0.94976216554641724 0.31189453601837158 0.025953968986868858
vn 0 0 -1
vn 0.99988669157028198 -0.013766906224191189 0.0060920058749616146
vn -0.99998831748962402 -0.0031877986621111631 -0.0036272045690566301
vn 0.94177699089050293 0.045759439468383789 0.33310988545417786
vn 0.98481136560440063 0.17269648611545563 -0.017958736047148705
vn -0.89092278480529785 -0.45411238074302673 -0.0062039499171078205
vn 0.17396494746208191 -0.98474979400634766 -0.0020002212841063738
vn 0 0 -1
usemtl vc_191919__Default
f 1//1 2//2 3//3
f 4//4 7//7 5//5 6//6
f 8//8 9//9 10//10
f 11//11 39//39 3//3 2//2
f 12//12 9//9 8//8
f 13//13 14//14 15//15
f 16//16 17//17 18//18
f 19//19 20//20 21//21
f 22//22 23//23 24//24
f 25//25 26//26 27//27
f 28//28 29//29 26//26
f 30//30 31//31 32//32
f 25//25 27//27 33//33
f 34//34 35//35 36//36
f 37//37 38//38 39//39
f 40//40 41//41 42//42
f 11//11 37//37 39//39
f 43//43 44//44 45//45
f 47//47 94//94 27//27 46//46
f 48//48 9//9 12//12
f 49//49 50//50 51//51
f 52//52 53//53 54//54
f 55//55 51//51 56//56
f 57//57 52//52 54//54
f 58//58 59//59 60//60
f 61//61 62//62 63//63
f 64//64 65//65 66//66
f 67//67 68//68 69//69
f 70//70 71//71 72//72
f 73//73 74//74 75//75
f 76//76 77//77 78//78
f 79//79 80//80 81//81
f 82//82 83//83 84//84
f 85//85 86//86 87//87
f 89//89 258//258 90//90 88//88
f 91//91 92//92 93//93
f 95//95 96//96 97//97
f 38//38 98//98 99//99
f 100//100 101//101 102//102
f 103//103 104//104 105//105
f 54//54 106//106 57//57
f 107//107 108//108 109//109
f 110//110 111//111 112//112
f 113//113 114//114 115//115
f 116//116 117//117 118//118
f 119//119 120//120 121//121
f 122//122 123//123 124//124
f 125//125 126//126 127//127
f 128//128 86//86 129//129
f 98//98 130//130 131//131
f 132//132 133//133 134//134
f 135//135 136//136 137//137
f 138//138 139//139 140//140
f 141//141 142//142 143//143
f 144//144 145//145 146//146
f 147//147 148//148 123//123
f 149//149 150//150 151//151
f 152//152 128//128 129//129
f 153//153 154//154 155//155
f 156//156 134//134 133//133
f 156//156 157//157 134//134
f 158//158 159//159 160//160
f 161//161 162//162 163//163
f 164//164 165//165 166//166
f 167//167 168//168 169//169
f 170//170 171//171 172//172
f 173//173 174//174 175//175
f 176//176 177//177 178//178
f 179//179 180//180 181//181
f 158//158 182//182 159//159
f 183//183 184//184 185//185
f 186//186 187//187 188//188
f 189//189 57//57 106//106
f 190//190 191//191 57//57
f 192//192 193//193 194//194
f 195//195 196//196 197//197
f 198//198 199//199 200//200
f 201//201 202//202 203//203
f 204//204 201//201 203//203
f 205//205 206//206 207//207
f 208//208 209//209 210//210
f 211//211 212//212 213//213
f 214//214 212//212 211//211
f 215//215 213//213 216//216
f 213//213 217//217 216//216
f 217//217 218//218 216//216
f 219//219 218//218 220//220
f 221//221 222//222 223//223
f 223//223 222//222 224//224
f 225//225 226//226 130//130
f 227//227 225//225 228//228
f 65//65 229//229 230//230
f 16//16 18//18 231//231
f 36//36 232//232 233//233
f 234//234 27//27 94//94
f 101//101 235//235 102//102
f 145//145 229//229 236//236
f 237//237 238//238 150//150
f 91//91 93//93 239//239
f 119//119 121//121 240//240
f 151//151 150//150 176//176
f 241//241 242//242 119//119
f 243//243 14//14 13//13
f 29//29 27//27 26//26
f 37//37 98//98 38//38
f 244//244 245//245 246//246
f 91//91 247//247 248//248
f 250//250 208//208 210//210 249//249
f 251//251 225//225 227//227
f 53//53 1//1 3//3
f 11//11 252//252 37//37
f 253//253 254//254 239//239
f 122//122 147//147 123//123
f 189//189 106//106 251//251
f 255//255 256//256 257//257
f 91//91 239//239 247//247
f 251//251 227//227 189//189
f 98//98 131//131 99//99
f 156//156 133//133 259//259
f 161//161 163//163 260//260
f 261//261 172//172 145//145
f 40//40 42//42 262//262
f 22//22 24//24 263//263
f 30//30 32//32 264//264
f 110//110 112//112 265//265
